<?xml version="1.0" encoding="utf-8"?>
<!-- Generator: Adobe Illustrator 16.0.0, SVG Export Plug-In . SVG Version: 6.00 Build 0)  -->
<!DOCTYPE svg PUBLIC "-//W3C//DTD SVG 1.1//EN" "http://www.w3.org/Graphics/SVG/1.1/DTD/svg11.dtd">
<svg version="1.1"
	 id="Layer_1" xmlns:dc="http://purl.org/dc/elements/1.1/" xmlns:cc="http://creativecommons.org/ns#" xmlns:rdf="http://www.w3.org/1999/02/22-rdf-syntax-ns#" xmlns:svg="http://www.w3.org/2000/svg" xmlns:inkscape="http://www.inkscape.org/namespaces/inkscape"
	 xmlns="http://www.w3.org/2000/svg" xmlns:xlink="http://www.w3.org/1999/xlink" x="0px" y="0px" width="249.667px"
	 height="91.25px" viewBox="0 0 249.667 91.25" enable-background="new 0 0 249.667 91.25" xml:space="preserve">
<g id="g3">
	<path id="path5" inkscape:connector-curvature="0" fill="#FFFFFF" d="M133.58,15.176v38.241c0,2.134,1.275,3.515,3.252,3.515
		c1.976,0,3.252-1.381,3.252-3.515V15.176c0-2.136-1.276-3.514-3.252-3.514C134.855,11.662,133.58,13.04,133.58,15.176z"/>
	<path id="path7" inkscape:connector-curvature="0" fill="#FFFFFF" d="M179.839,15.538c0,0,0,14.515,0,15.73
		c-1.195,0-24.248,0-25.444,0c0-1.216,0-15.73,0-15.73c0-2.428-1.216-3.876-3.253-3.876c-2.035,0-3.253,1.448-3.253,3.876v37.517
		c0,2.426,1.218,3.877,3.253,3.877c2.037,0,3.253-1.451,3.253-3.877c0,0,0-14.637,0-15.853c1.196,0,24.249,0,25.444,0
		c0,1.216,0,15.853,0,15.853c0,2.426,1.218,3.877,3.252,3.877c2.037,0,3.25-1.451,3.25-3.877V15.538c0-2.428-1.213-3.876-3.25-3.876
		C181.057,11.662,179.839,13.11,179.839,15.538z"/>
	<path id="path9" inkscape:connector-curvature="0" fill="#FFFFFF" d="M208.856,15.377l0.015-0.038l-15.672,35.753
		c-0.021,0.053-0.136,0.387-0.136,0.387c-0.317,0.926-0.63,1.886-0.63,2.547c0,1.684,1.316,2.906,3.133,2.906
		c1.512,0,2.571-0.822,3.152-2.437c0,0,2.878-6.632,3.186-7.338c0.79,0,21.793,0,22.586,0c0.309,0.707,3.201,7.378,3.201,7.378
		c0.564,1.574,1.627,2.396,3.135,2.396c1.817,0,3.137-1.224,3.137-2.906c0-0.661-0.313-1.621-0.633-2.547l-0.111-0.334l-15.7-35.814
		c-0.847-2.451-2.267-3.668-4.322-3.668C211.142,11.662,209.721,12.879,208.856,15.377z M213.212,20.055
		c0.94,2.183,8.416,19.559,9.106,21.17c-1.688,0-16.627,0-18.272,0C204.688,39.638,212.326,22.259,213.212,20.055z"/>
	<path id="path11" inkscape:connector-curvature="0" fill="#FFFFFF" d="M102.082,15.377l0.014-0.038L86.421,51.092
		c-0.02,0.053-0.134,0.387-0.134,0.387c-0.319,0.926-0.63,1.886-0.63,2.547c0,1.684,1.317,2.906,3.133,2.906
		c1.51,0,2.572-0.822,3.152-2.437c0,0,2.878-6.632,3.186-7.338c0.79,0,21.794,0,22.585,0c0.307,0.707,3.201,7.378,3.201,7.378
		c0.565,1.574,1.626,2.396,3.136,2.396c1.817,0,3.134-1.224,3.134-2.906c0-0.661-0.312-1.621-0.631-2.547l-0.113-0.334
		L110.742,15.33c-0.847-2.451-2.266-3.668-4.32-3.668C104.366,11.662,102.945,12.879,102.082,15.377z M106.439,20.055
		c0.938,2.183,8.413,19.559,9.105,21.17c-1.688,0-16.625,0-18.273,0C97.911,39.638,105.55,22.259,106.439,20.055z"/>
</g>
<path id="path13" inkscape:connector-curvature="0" fill="#FFFFFF" d="M78.666,31.517c-1.292-1.323-3.389-1.324-4.684,0
	L63.793,41.952l-1.77-1.813l12.947-13.26c1.295-1.326,1.293-3.471,0.001-4.799c-1.294-1.323-3.391-1.325-4.686,0L57.339,35.342
	L55.57,33.53l15.877-16.266c1.295-1.324,1.294-3.471,0-4.794c-1.294-1.327-3.389-1.327-4.683,0L45.687,34.057
	c-0.064,0.066-0.111,0.143-0.169,0.212l-11.34,11.614l11.953,12.242c3.103,3.18,8.138,3.18,11.24,0l5.484-5.617
	c0.002-0.003,0.005-0.005,0.007-0.008l15.803-16.184C79.959,34.988,79.959,32.841,78.666,31.517z"/>
<path id="path15" inkscape:connector-curvature="0" fill="#FFFFFF" d="M36.888,22.023c1.88-1.925,1.88-5.047,0-6.973
	c-1.879-1.925-4.928-1.923-6.806,0c-1.88,1.926-1.88,5.048-0.002,6.973C31.96,23.949,35.009,23.949,36.888,22.023z M61.635,9.077
	c-1.294-1.324-3.391-1.324-4.685,0L33.568,33.022l-7.455-7.637c-1.65-1.688-4.324-1.688-5.974,0.001
	c-1.648,1.688-1.648,4.426,0.001,6.119l12.14,12.433l5.972-6.117l0,0l23.381-23.948C62.929,12.548,62.926,10.401,61.635,9.077z"/>
<g id="g17">
	<path id="path19" inkscape:connector-curvature="0" fill="#FFFFFF" d="M20.054,81.395c1.547,0,1.913-0.55,2.178-1.914l1.791-8.912
		c0.041-0.244,0.122-0.651,0.122-0.854c0-0.916-0.753-1.059-1.546-1.059l0.082-0.406h5.393c2.381,0,4.294,0.446,4.294,2.89
		c0,3.684-3.337,4.172-5.495,4.172h-1.994l-0.834,4.172c-0.041,0.244-0.122,0.631-0.122,0.854c0,0.915,0.854,1.058,1.729,1.058
		l-0.081,0.407h-5.596L20.054,81.395z M25.04,74.516h1.669c1.648,0,3.643-0.57,3.643-3.256c0-2.056-1.608-2.219-2.707-2.219
		c-1.425,0-1.547,0.184-1.811,1.525L25.04,74.516z"/>
	<path id="path21" inkscape:connector-curvature="0" fill="#FFFFFF" d="M34.889,74.434c0.041-0.203,0.082-0.468,0.082-0.629
		c0-0.144-0.082-0.326-0.224-0.326c-0.387,0-1.242,0.875-1.771,1.403l-0.265-0.224c0.59-0.61,2.096-2.422,3.113-2.422
		c0.509,0,0.814,0.428,0.814,0.937c0,0.347-0.082,0.834-0.163,1.261l-0.305,1.445l0.041,0.041c0.387-0.916,1.506-3.684,3.073-3.684
		c0.651,0,0.977,0.447,0.977,0.955c0,0.592-0.448,1.019-0.957,1.019c-0.468,0-0.671-0.346-0.896-0.346
		c-0.59,0-2.32,2.481-3.418,7.937h-1.587L34.889,74.434z"/>
	<path id="path23" inkscape:connector-curvature="0" fill="#FFFFFF" d="M40.464,78.564c0-2.768,1.648-6.328,4.843-6.328
		c2.198,0,3.134,1.547,3.134,3.5c0,2.746-1.648,6.268-4.762,6.268C41.4,82.004,40.464,80.438,40.464,78.564z M43.721,81.333
		c2.157,0,2.91-4.396,2.91-6.31c0-1.181-0.366-2.115-1.404-2.115c-2.117,0-2.951,4.232-2.951,6.186
		C42.276,80.702,42.907,81.333,43.721,81.333z"/>
	<path id="path25" inkscape:connector-curvature="0" fill="#FFFFFF" d="M54.75,79.583c-0.61,0.671-2.198,2.421-3.256,2.421
		c-0.55,0-0.875-0.427-0.875-0.936c0-0.366,0.082-0.836,0.163-1.262l1.363-6.736h-1.689l0.122-0.631
		c1.872,0,2.829-0.978,3.358-3.032h0.529l-0.61,3.032h2.666l-0.122,0.631h-2.666l-1.363,6.736c-0.041,0.202-0.102,0.467-0.102,0.631
		c0,0.143,0.122,0.324,0.305,0.324c0.428,0,1.343-0.834,1.913-1.404L54.75,79.583z"/>
	<path id="path27" inkscape:connector-curvature="0" fill="#FFFFFF" d="M62.768,81.536c-0.468,0.144-1.506,0.468-2.788,0.468
		c-2.015,0-3.297-1.14-3.297-3.521c0-2.768,1.262-6.246,4.945-6.246c1.343,0,2.564,0.568,2.564,1.912
		c0,1.791-1.689,1.953-3.236,1.953h-2.198c-0.122,0.672-0.265,1.344-0.265,2.035c0,1.689,0.57,3.094,3.053,3.094
		c0.448,0,0.896-0.082,1.323-0.265L62.768,81.536z M60.631,75.473c0.814,0,1.974-0.203,1.974-1.466c0-0.61-0.529-1.099-1.262-1.099
		c-1.546,0-2.259,1.668-2.442,2.563h1.73V75.473z"/>
	<path id="path29" inkscape:connector-curvature="0" fill="#FFFFFF" d="M71.396,81.516c-0.305,0.123-1.343,0.488-2.646,0.488
		c-2.137,0-3.541-1.199-3.541-3.479c0-2.891,1.547-6.289,4.925-6.289c1.546,0,2.768,0.938,2.768,2.035
		c0,0.529-0.366,0.998-0.997,0.998c-1.648,0-0.305-2.36-1.994-2.36c-1.893,0-2.89,2.991-2.89,5.147c0,2.422,1.241,3.176,3.012,3.176
		c0.509,0,1.018-0.104,1.506-0.246L71.396,81.516z"/>
	<path id="path31" inkscape:connector-curvature="0" fill="#FFFFFF" d="M78.498,79.583c-0.61,0.671-2.198,2.421-3.256,2.421
		c-0.55,0-0.875-0.427-0.875-0.936c0-0.366,0.082-0.836,0.163-1.262l1.363-6.736h-1.689l0.122-0.631
		c1.872,0,2.829-0.978,3.358-3.032h0.529l-0.61,3.032h2.666l-0.122,0.631H77.48l-1.363,6.736c-0.041,0.202-0.102,0.467-0.102,0.631
		c0,0.143,0.122,0.324,0.305,0.324c0.428,0,1.343-0.834,1.913-1.404L78.498,79.583z"/>
	<path id="path33" inkscape:connector-curvature="0" fill="#FFFFFF" d="M84.908,79.583c-0.59,0.61-2.096,2.421-3.114,2.421
		c-0.509,0-0.814-0.427-0.814-0.936c0-0.366,0.102-0.836,0.183-1.262l1.099-5.373c0.041-0.203,0.082-0.469,0.082-0.631
		c0-0.143-0.082-0.326-0.183-0.326c-0.407,0-1.262,0.875-1.791,1.404l-0.244-0.224c0.59-0.61,2.096-2.423,3.113-2.423
		c0.489,0,0.773,0.488,0.773,1.078c0,0.244-0.102,0.754-0.183,1.119l-1.099,5.373c-0.041,0.203-0.081,0.469-0.081,0.631
		c0,0.144,0.081,0.325,0.224,0.325c0.387,0,1.242-0.875,1.771-1.403L84.908,79.583z M82.629,69.204c0-0.651,0.529-1.16,1.16-1.16
		c0.651,0,1.16,0.509,1.16,1.16s-0.509,1.16-1.16,1.16C83.158,70.364,82.629,69.855,82.629,69.204z"/>
	<path id="path35" inkscape:connector-curvature="0" fill="#FFFFFF" d="M88.286,74.434c0.041-0.203,0.082-0.468,0.082-0.629
		c0-0.144-0.102-0.326-0.204-0.326c-0.407,0-1.262,0.875-1.791,1.403l-0.244-0.224c0.59-0.61,2.096-2.422,3.114-2.422
		c0.509,0,0.793,0.428,0.793,0.937c0,0.347-0.082,0.834-0.183,1.261l-0.651,3.236l0.041,0.04c0.712-1.812,2.564-5.474,4.599-5.474
		c0.732,0,1.18,0.509,1.18,1.343c0,0.226-0.082,0.753-0.163,1.119l-1.16,5.108c-0.061,0.202-0.102,0.467-0.102,0.631
		c0,0.143,0.102,0.324,0.224,0.324c0.407,0,1.262-0.875,1.771-1.404l0.265,0.226c-0.59,0.61-2.096,2.421-3.114,2.421
		c-0.509,0-0.814-0.427-0.814-0.936c0-0.366,0.082-0.836,0.183-1.262l1.119-4.885c0.061-0.306,0.122-0.691,0.122-0.855
		c0-0.324-0.163-0.59-0.447-0.59c-1.587,0-4.111,6.023-4.518,8.323H86.8L88.286,74.434z"/>
	<path id="path37" inkscape:connector-curvature="0" fill="#FFFFFF" d="M103.487,82.004c-0.427,2.157-1.445,4.091-4.904,4.091
		c-1.241,0-2.259-0.306-2.259-1.221c0-0.61,0.448-0.978,0.936-0.978c1.201,0,0.916,1.525,2.279,1.525c1.546,0,2.157-2.4,2.36-3.419
		l0.692-3.356l-0.041-0.041c-0.387,0.854-1.465,3.397-3.48,3.397c-1.628,0-1.954-1.403-1.954-2.543c0-2.097,2.076-7.226,4.945-7.226
		c0.997,0,1.404,0.529,1.628,0.834l0.122-0.631h1.587L103.487,82.004z M99.723,80.967c1.832,0,3.704-4.803,3.704-6.838
		c0-0.875-0.631-1.221-1.058-1.221c-1.791,0-3.439,4.253-3.439,6.471C98.929,80.58,99.356,80.967,99.723,80.967z"/>
	<path id="path39" inkscape:connector-curvature="0" fill="#FFFFFF" d="M115.595,70.385c-0.041-1.486-0.509-1.729-1.567-1.729
		l0.102-0.406h5.006l-0.102,0.406c-1.506,0-1.669,0.489-1.669,2.034l0.265,7.836h0.041l5.515-10.276h0.977l1.526,10.276h0.041
		l3.357-7.998c0.164-0.387,0.307-0.793,0.307-1.18c0-0.51-0.529-0.692-1.262-0.692l0.08-0.406h4.498l-0.103,0.406
		c-1.465,0-1.894,0.692-2.544,2.219l-4.701,11.131h-0.957l-1.607-10.806h-0.041l-5.799,10.806h-0.957L115.595,70.385z"/>
	<path id="path41" inkscape:connector-curvature="0" fill="#FFFFFF" d="M130.513,78.564c0-2.768,1.648-6.328,4.844-6.328
		c2.197,0,3.135,1.547,3.135,3.5c0,2.746-1.648,6.268-4.763,6.268C131.451,82.004,130.513,80.438,130.513,78.564z M133.769,81.333
		c2.156,0,2.91-4.396,2.91-6.31c0-1.181-0.366-2.115-1.404-2.115c-2.115,0-2.949,4.232-2.949,6.186
		C132.326,80.702,132.957,81.333,133.769,81.333z"/>
	<path id="path43" inkscape:connector-curvature="0" fill="#FFFFFF" d="M142.255,74.434c0.039-0.203,0.08-0.468,0.08-0.629
		c0-0.144-0.08-0.326-0.224-0.326c-0.387,0-1.241,0.875-1.771,1.403l-0.266-0.224c0.59-0.61,2.096-2.422,3.113-2.422
		c0.51,0,0.814,0.428,0.814,0.937c0,0.347-0.082,0.834-0.164,1.261l-0.305,1.445l0.041,0.041c0.387-0.916,1.506-3.684,3.072-3.684
		c0.65,0,0.977,0.447,0.977,0.955c0,0.592-0.446,1.019-0.955,1.019c-0.469,0-0.672-0.346-0.896-0.346
		c-0.591,0-2.32,2.481-3.419,7.937h-1.588L142.255,74.434z"/>
	<path id="path45" inkscape:connector-curvature="0" fill="#FFFFFF" d="M150.313,70.038c0.082-0.347,0.122-0.59,0.122-0.772
		c0-0.752-0.59-0.937-1.546-0.937l0.081-0.347l3.398-0.325l-1.566,7.813l0.039,0.041c0.449-0.753,1.976-3.256,3.582-3.256
		c1.242,0,1.588,1.119,1.588,1.872c0,2.218-1.913,3.073-3.947,3.073l1.646,2.482c0.672,1.037,0.998,1.547,1.486,1.547
		c0.387,0,0.773-0.226,1.241-0.47l0.144,0.326c-0.692,0.388-1.67,0.915-2.26,0.915c-0.691,0-1.078-0.59-1.648-1.443l-2.219-3.338
		l-0.896,4.578h-1.587L150.313,70.038z M151.026,76.652c1.688,0,3.397-0.651,3.397-2.564c0-0.387-0.184-0.875-0.569-0.875
		c-1.099,0-2.89,2.788-3.276,3.439H151.026z"/>
	<path id="path47" inkscape:connector-curvature="0" fill="#FFFFFF" d="M163.728,81.536c-0.469,0.144-1.506,0.468-2.788,0.468
		c-2.015,0-3.297-1.14-3.297-3.521c0-2.768,1.262-6.246,4.944-6.246c1.344,0,2.563,0.568,2.563,1.912
		c0,1.791-1.688,1.953-3.235,1.953h-2.196c-0.123,0.672-0.265,1.344-0.265,2.035c0,1.689,0.568,3.094,3.051,3.094
		c0.449,0,0.896-0.082,1.324-0.265L163.728,81.536z M161.591,75.473c0.813,0,1.974-0.203,1.974-1.466
		c0-0.61-0.528-1.099-1.262-1.099c-1.548,0-2.259,1.668-2.442,2.563h1.73V75.473z"/>
	<path id="path49" inkscape:connector-curvature="0" fill="#FFFFFF" d="M168.246,74.434c0.041-0.203,0.082-0.468,0.082-0.629
		c0-0.144-0.082-0.326-0.225-0.326c-0.387,0-1.241,0.875-1.771,1.403l-0.265-0.224c0.591-0.61,2.097-2.422,3.113-2.422
		c0.509,0,0.813,0.428,0.813,0.937c0,0.347-0.082,0.834-0.162,1.261l-0.307,1.445l0.041,0.041c0.387-0.916,1.506-3.684,3.073-3.684
		c0.651,0,0.978,0.447,0.978,0.955c0,0.592-0.447,1.019-0.957,1.019c-0.469,0-0.672-0.346-0.896-0.346
		c-0.591,0-2.32,2.481-3.419,7.937h-1.588L168.246,74.434z"/>
	<path id="path51" inkscape:connector-curvature="0" fill="#FFFFFF" d="M179.05,81.395c1.566,0,1.934-0.55,2.197-1.914l1.791-8.912
		c0.041-0.244,0.123-0.651,0.123-0.854c0-0.916-0.754-1.059-1.568-1.059l0.082-0.406h5.435l-0.082,0.406
		c-1.526,0-1.913,0.55-2.178,1.913l-0.772,3.847h5.941l0.773-3.847c0.041-0.244,0.121-0.651,0.121-0.854
		c0-0.916-0.752-1.059-1.545-1.059l0.08-0.406h5.413l-0.081,0.406c-1.547,0-1.912,0.55-2.178,1.913l-1.791,8.912
		c-0.041,0.244-0.122,0.631-0.122,0.855c0,0.915,0.753,1.059,1.547,1.059l-0.082,0.406h-5.413l0.082-0.406
		c1.526,0,1.893-0.549,2.178-1.914l0.854-4.272h-5.942l-0.854,4.272c-0.063,0.244-0.143,0.631-0.143,0.855
		c0,0.915,0.772,1.059,1.565,1.059l-0.081,0.406h-5.434L179.05,81.395z"/>
	<path id="path53" inkscape:connector-curvature="0" fill="#FFFFFF" d="M200.664,81.536c-0.47,0.144-1.506,0.468-2.789,0.468
		c-2.015,0-3.297-1.14-3.297-3.521c0-2.768,1.262-6.246,4.945-6.246c1.344,0,2.563,0.568,2.563,1.912
		c0,1.791-1.688,1.953-3.234,1.953h-2.197c-0.123,0.672-0.265,1.344-0.265,2.035c0,1.689,0.569,3.094,3.052,3.094
		c0.448,0,0.896-0.082,1.323-0.265L200.664,81.536z M198.526,75.473c0.813,0,1.974-0.203,1.974-1.466
		c0-0.61-0.528-1.099-1.262-1.099c-1.547,0-2.259,1.668-2.441,2.563h1.729V75.473z"/>
	<path id="path55" inkscape:connector-curvature="0" fill="#FFFFFF" d="M208.395,78.77l-0.041-0.041
		c-0.446,0.896-1.606,3.275-3.438,3.275c-1.627,0-1.975-1.302-1.975-2.462c0-2.035,1.995-7.306,4.945-7.306
		c1.078,0,1.404,0.672,1.566,1.099h0.041l0.143-0.896h1.588l-1.486,7.367c-0.039,0.202-0.08,0.467-0.08,0.631
		c0,0.143,0.08,0.324,0.223,0.324c0.388,0,1.242-0.875,1.771-1.404l0.266,0.226c-0.59,0.61-2.097,2.421-3.113,2.421
		c-0.51,0-0.814-0.427-0.814-0.936c0-0.366,0.104-0.836,0.184-1.262L208.395,78.77z M205.626,80.967
		c1.629,0,3.582-4.376,3.582-6.675c0-0.631-0.203-1.384-0.978-1.384c-2.015,0-3.479,4.375-3.479,6.49
		C204.751,80.58,205.22,80.967,205.626,80.967z"/>
	<path id="path57" inkscape:connector-curvature="0" fill="#FFFFFF" d="M217.574,79.583c-0.591,0.61-2.097,2.421-3.113,2.421
		c-0.51,0-0.814-0.427-0.814-0.936c0-0.366,0.102-0.836,0.184-1.262l1.953-9.77c0.063-0.346,0.102-0.59,0.102-0.771
		c0-0.754-0.59-0.938-1.524-0.938l0.062-0.346l3.418-0.326l-2.441,12.148c-0.04,0.203-0.081,0.469-0.081,0.631
		c0,0.144,0.081,0.325,0.224,0.325c0.388,0,1.242-0.875,1.771-1.403L217.574,79.583z"/>
	<path id="path59" inkscape:connector-curvature="0" fill="#FFFFFF" d="M223.555,79.583c-0.61,0.671-2.197,2.421-3.257,2.421
		c-0.549,0-0.875-0.427-0.875-0.936c0-0.366,0.082-0.836,0.164-1.262l1.363-6.736h-1.688l0.122-0.631
		c1.871,0,2.828-0.978,3.357-3.032h0.528l-0.61,3.032h2.666l-0.123,0.631h-2.664l-1.365,6.736c-0.039,0.202-0.102,0.467-0.102,0.631
		c0,0.143,0.122,0.324,0.307,0.324c0.427,0,1.343-0.834,1.912-1.404L223.555,79.583z"/>
	<path id="path61" inkscape:connector-curvature="0" fill="#FFFFFF" d="M227.951,70.038c0.063-0.347,0.104-0.59,0.104-0.772
		c0-0.752-0.592-0.937-1.547-0.937l0.08-0.347l3.42-0.325l-2.016,10.013l0.041,0.04c0.713-1.812,2.545-5.474,4.578-5.474
		c0.754,0,1.201,0.509,1.201,1.343c0,0.226-0.102,0.753-0.184,1.119l-1.159,5.108c-0.041,0.202-0.082,0.467-0.082,0.631
		c0,0.143,0.082,0.324,0.224,0.324c0.387,0,1.242-0.875,1.771-1.404l0.265,0.226c-0.59,0.61-2.097,2.421-3.134,2.421
		c-0.51,0-0.795-0.427-0.795-0.936c0-0.366,0.082-0.836,0.185-1.262L232,74.923c0.082-0.306,0.144-0.692,0.144-0.854
		c0-0.325-0.144-0.59-0.468-0.59c-1.567,0-4.051,6.022-4.497,8.322h-1.589L227.951,70.038z"/>
</g>
<g id="text63" transform="translate(228.4263,21)">
	<path id="path72" inkscape:connector-curvature="0" fill="#FFFFFF" d="M11.068-3.838c0,1.398-0.496,2.594-1.488,3.586
		C8.592,0.736,7.398,1.23,6,1.23S3.406,0.736,2.414-0.252C1.426-1.244,0.932-2.439,0.932-3.838s0.494-2.592,1.482-3.58
		C3.406-8.41,4.602-8.906,6-8.906S8.592-8.41,9.58-7.418C10.572-6.43,11.068-5.236,11.068-3.838z M10.389-3.838
		c0-1.211-0.43-2.25-1.289-3.117C8.244-7.822,7.211-8.256,6-8.256S3.754-7.822,2.895-6.955C2.039-6.088,1.611-5.049,1.611-3.838
		s0.428,2.25,1.283,3.117C3.754,0.146,4.789,0.58,6,0.58s2.244-0.434,3.1-1.301C9.959-1.588,10.389-2.627,10.389-3.838z M9.264-1.26
		H7.957L6.018-3.34H5.068v2.08H4.102v-5.361H5.93c0.367,0,0.67,0.016,0.908,0.047s0.473,0.107,0.703,0.229
		C7.787-6.213,7.967-6.051,8.08-5.859C8.197-5.672,8.256-5.436,8.256-5.15c0,0.379-0.111,0.695-0.334,0.949
		C7.703-3.951,7.4-3.752,7.014-3.604L9.264-1.26z M7.201-5.086c0-0.141-0.027-0.266-0.082-0.375S6.973-5.66,6.844-5.73
		C6.723-5.797,6.594-5.84,6.457-5.859S6.148-5.889,5.941-5.889H5.068v1.811h0.744c0.242,0,0.451-0.018,0.627-0.053
		C6.615-4.17,6.76-4.234,6.873-4.324c0.121-0.098,0.205-0.205,0.252-0.322C7.176-4.764,7.201-4.91,7.201-5.086z"/>
</g>
</svg>
