<?xml version="1.0" encoding="utf-8"?>
<!-- Generator: Adobe Illustrator 16.0.0, SVG Export Plug-In . SVG Version: 6.00 Build 0)  -->
<!DOCTYPE svg PUBLIC "-//W3C//DTD SVG 1.1//EN" "http://www.w3.org/Graphics/SVG/1.1/DTD/svg11.dtd">
<svg version="1.1"
	 id="svg3020" xmlns:dc="http://purl.org/dc/elements/1.1/" xmlns:cc="http://creativecommons.org/ns#" xmlns:rdf="http://www.w3.org/1999/02/22-rdf-syntax-ns#" xmlns:svg="http://www.w3.org/2000/svg" xmlns:inkscape="http://www.inkscape.org/namespaces/inkscape"
	 xmlns="http://www.w3.org/2000/svg" xmlns:xlink="http://www.w3.org/1999/xlink" x="0px" y="0px" width="320px" height="60px"
	 viewBox="0 0 320 60" enable-background="new 0 0 320 60" xml:space="preserve">
<g id="text3030" transform="scale(0.95814898,1.043679)" >
</g>
<g id="g3009" transform="matrix(1.4688253,0,0,1.4688253,-277.70507,-0.75165246)">
	<g id="flowRoot3055" transform="matrix(0.68081616,0,0,0.68081616,189.0661,0.51173714)">
	</g>
	<g id="flowRoot3063" transform="matrix(0.68081616,0,0,0.68081616,189.0661,0.51173714)">
	</g>
	<path id="path3142-1" inkscape:connector-curvature="0" fill="none" stroke="#000000" stroke-width="0.8599" d="M226.309,20.484
		h175.198"/>
	<g id="g3569" transform="matrix(0.68081616,0,0,0.68081616,66.230655,78.160046)">
	</g>
	<g id="g4269" transform="matrix(0.76576368,0,0,0.76576368,73.348893,7.0190154)">
		<g id="text4271">
			<path id="path70" inkscape:connector-curvature="0" d="M155.837,21.571v-0.484c0.948,0,1.422-0.146,1.422-0.438v-7.581
				c0-0.292-0.474-0.438-1.422-0.438v-0.485h4.912c0.503,0,1.006,0.103,1.509,0.31c0.503,0.207,0.916,0.508,1.24,0.903
				c0.328,0.395,0.492,0.856,0.492,1.381c0,0.512-0.164,0.961-0.492,1.347c-0.328,0.386-0.741,0.681-1.24,0.883
				c-0.498,0.198-1.001,0.296-1.509,0.296h-2.211v3.383c0,0.293,0.474,0.438,1.422,0.438v0.484H155.837z M158.499,16.855h1.873
				c0.508,0,0.919-0.072,1.233-0.216c0.314-0.148,0.544-0.375,0.687-0.681c0.148-0.31,0.222-0.716,0.222-1.219
				c0-0.75-0.166-1.289-0.498-1.618c-0.328-0.328-0.876-0.492-1.644-0.492H159.2c-0.166,0-0.296,0.007-0.391,0.02
				c-0.09,0.013-0.164,0.054-0.222,0.121c-0.058,0.063-0.088,0.162-0.088,0.296V16.855z"/>
			<path id="path72" inkscape:connector-curvature="0" d="M165.184,21.571v-0.484c0.948,0,1.422-0.146,1.422-0.438v-7.581
				c0-0.292-0.474-0.438-1.422-0.438v-0.485h7.803l0.384,3.16h-0.398c-0.099-0.795-0.238-1.373-0.418-1.732
				c-0.175-0.359-0.458-0.606-0.849-0.741c-0.391-0.135-0.977-0.202-1.759-0.202h-1.354c-0.166,0-0.296,0.007-0.391,0.02
				c-0.09,0.013-0.164,0.054-0.223,0.121c-0.058,0.063-0.087,0.162-0.087,0.296v3.369h1.017c0.468,0,0.816-0.038,1.044-0.115
				c0.234-0.081,0.393-0.231,0.478-0.451c0.09-0.225,0.135-0.573,0.135-1.044h0.404v3.706h-0.404c0-0.468-0.045-0.813-0.135-1.038
				c-0.085-0.224-0.245-0.375-0.478-0.451c-0.229-0.081-0.577-0.121-1.044-0.121h-1.017v3.726c0,0.198,0.056,0.321,0.168,0.371
				c0.112,0.045,0.29,0.068,0.532,0.068h1.462c0.638,0,1.152-0.049,1.543-0.148c0.395-0.103,0.701-0.272,0.916-0.505
				c0.22-0.239,0.389-0.544,0.505-0.916c0.121-0.378,0.234-0.899,0.337-1.564h0.398l-0.58,3.618H165.184z"/>
			<path id="path74" inkscape:connector-curvature="0" d="M174.563,21.571v-0.484c0.948,0,1.422-0.146,1.422-0.438v-7.581
				c0-0.292-0.474-0.438-1.422-0.438v-0.485h4.474v0.485c-1.177,0-1.766,0.146-1.766,0.438v7.581c0,0.198,0.056,0.321,0.168,0.371
				c0.112,0.045,0.29,0.068,0.532,0.068h1.065c0.687,0,1.217-0.126,1.59-0.378c0.373-0.251,0.636-0.593,0.788-1.024
				c0.157-0.436,0.276-1.014,0.357-1.732h0.397l-0.384,3.618H174.563z"/>
		</g>
		<g id="text4273">
			<path id="path77" inkscape:connector-curvature="0" d="M194.742,16.302h-7.992v-1.078h7.992V16.302z M194.742,19.132h-7.992
				v-1.078h7.992V19.132z"/>
		</g>
		<g id="text4275">
			<path id="path80" inkscape:connector-curvature="0" d="M307.43,11.085V10.6c1.15,0,1.726-0.146,1.726-0.438V2.919
				c-0.477,0.229-1.078,0.343-1.806,0.343V2.777c1.127,0,1.978-0.294,2.553-0.883h0.195c0.031,0,0.061,0.013,0.088,0.04
				c0.031,0.023,0.047,0.049,0.047,0.081v8.147c0,0.292,0.576,0.438,1.725,0.438v0.485H307.43z"/>
			<path id="path82" inkscape:connector-curvature="0" d="M316.5,11.388c-1.128,0-1.895-0.462-2.305-1.388
				c-0.404-0.93-0.606-2.035-0.606-3.315c0-0.8,0.072-1.552,0.215-2.257c0.148-0.705,0.438-1.302,0.87-1.792
				c0.436-0.494,1.044-0.741,1.826-0.741c0.607,0,1.103,0.148,1.489,0.445c0.386,0.296,0.681,0.68,0.882,1.152
				c0.203,0.467,0.34,0.97,0.412,1.509c0.076,0.534,0.115,1.096,0.115,1.684c0,0.791-0.075,1.532-0.222,2.224
				c-0.144,0.688-0.429,1.274-0.856,1.759C317.893,11.148,317.286,11.388,316.5,11.388z M316.5,11.032
				c0.511,0,0.893-0.263,1.145-0.788c0.252-0.526,0.406-1.107,0.465-1.745c0.058-0.638,0.087-1.316,0.087-2.035
				c0-0.692-0.029-1.33-0.087-1.914c-0.059-0.584-0.214-1.112-0.465-1.584c-0.247-0.476-0.629-0.714-1.145-0.714
				c-0.522,0-0.907,0.238-1.159,0.714c-0.252,0.476-0.406,1.006-0.465,1.59c-0.057,0.58-0.087,1.215-0.087,1.907
				c0,0.512,0.01,0.995,0.033,1.449c0.028,0.454,0.095,0.923,0.203,1.408c0.108,0.481,0.28,0.887,0.518,1.22
				C315.785,10.868,316.105,11.032,316.5,11.032z"/>
		</g>
		<g id="text4277">
			<path id="path85" inkscape:connector-curvature="0" d="M205.156,23.609c0,1.006-0.213,1.755-0.64,2.243
				c-0.422,0.49-1.033,0.735-1.833,0.735c-0.817,0-1.435-0.245-1.853-0.735c-0.418-0.489-0.626-1.236-0.626-2.237
				c0-1.005,0.213-1.754,0.64-2.243c0.427-0.49,1.04-0.735,1.84-0.735c0.813,0,1.429,0.247,1.846,0.741
				S205.156,22.616,205.156,23.609z M209.813,20.826l-5.256,10.033h-1.112l5.256-10.033H209.813z M213.047,28.076
				c0,1.007-0.213,1.755-0.64,2.244c-0.427,0.49-1.04,0.734-1.84,0.734c-0.813,0-1.428-0.247-1.846-0.741
				c-0.418-0.494-0.626-1.237-0.626-2.23c0-1.006,0.211-1.754,0.633-2.243c0.427-0.49,1.04-0.735,1.839-0.735
				c0.818,0,1.436,0.245,1.853,0.735S213.047,27.074,213.047,28.076z M203.957,23.609c0-0.773-0.101-1.312-0.303-1.618
				c-0.198-0.306-0.521-0.458-0.97-0.458c-0.458,0-0.786,0.153-0.984,0.458c-0.198,0.306-0.297,0.847-0.297,1.624
				c0,0.778,0.099,1.319,0.297,1.624c0.198,0.301,0.525,0.451,0.984,0.451c0.449,0,0.773-0.15,0.97-0.451
				C203.856,24.934,203.957,24.39,203.957,23.609z M211.848,28.076c0-0.773-0.101-1.311-0.303-1.617
				c-0.198-0.306-0.521-0.458-0.97-0.458c-0.458,0-0.786,0.153-0.984,0.458c-0.198,0.306-0.297,0.847-0.297,1.624
				c0,0.777,0.099,1.318,0.297,1.624c0.198,0.301,0.525,0.451,0.984,0.451c0.449,0,0.773-0.15,0.97-0.451
				C211.747,29.401,211.848,28.857,211.848,28.076z"/>
		</g>
		<g id="text4279">
			<path id="path88" inkscape:connector-curvature="0" d="M217.364,33.534v-0.478c0.314,0,0.573-0.028,0.775-0.082
				s0.303-0.175,0.303-0.363v-2.554c-0.216,0.287-0.488,0.519-0.816,0.695c-0.328,0.175-0.672,0.262-1.031,0.262
				c-0.413,0-0.797-0.085-1.153-0.256c-0.355-0.171-0.665-0.402-0.93-0.694c-0.26-0.292-0.465-0.629-0.613-1.011
				c-0.144-0.386-0.216-0.778-0.216-1.172c0-0.549,0.135-1.063,0.404-1.544c0.27-0.485,0.638-0.869,1.105-1.152
				c0.472-0.283,0.979-0.425,1.523-0.425c0.391,0,0.752,0.11,1.085,0.33c0.333,0.221,0.597,0.514,0.795,0.883l0.492-1.213h0.364
				v7.851c0,0.188,0.101,0.309,0.303,0.363c0.202,0.054,0.458,0.082,0.768,0.082v0.478H217.364z M216.677,30.65
				c0.408,0,0.773-0.135,1.091-0.404c0.323-0.274,0.562-0.618,0.715-1.031v-2.426c-0.095-0.44-0.29-0.822-0.586-1.146
				c-0.296-0.323-0.651-0.484-1.064-0.484c-0.315,0-0.595,0.083-0.842,0.249c-0.247,0.166-0.454,0.388-0.62,0.668
				c-0.162,0.278-0.283,0.579-0.364,0.903c-0.081,0.323-0.121,0.629-0.121,0.916c0,0.368,0.065,0.77,0.195,1.206
				c0.13,0.432,0.33,0.797,0.6,1.098C215.949,30.5,216.281,30.65,216.677,30.65z"/>
			<path id="path90" inkscape:connector-curvature="0" d="M220.861,30.859v-0.485c0.314,0,0.573-0.025,0.775-0.074
				c0.202-0.05,0.303-0.171,0.303-0.365v-3.766c0-0.247-0.038-0.425-0.114-0.532c-0.072-0.112-0.178-0.18-0.317-0.202
				c-0.139-0.027-0.355-0.04-0.647-0.04v-0.485l1.974-0.148v1.348c0.148-0.399,0.359-0.723,0.633-0.971
				c0.274-0.251,0.606-0.377,0.997-0.377c0.274,0,0.519,0.081,0.735,0.243c0.216,0.161,0.323,0.375,0.323,0.639
				c0,0.167-0.061,0.313-0.182,0.438c-0.117,0.122-0.263,0.181-0.438,0.181c-0.171,0-0.316-0.06-0.438-0.181
				c-0.121-0.121-0.182-0.267-0.182-0.438c0-0.247,0.088-0.422,0.263-0.524h-0.081c-0.373,0-0.679,0.134-0.916,0.404
				c-0.234,0.27-0.4,0.604-0.499,1.005c-0.099,0.399-0.148,0.781-0.148,1.144v2.264c0,0.292,0.447,0.438,1.341,0.438v0.485H220.861z
				"/>
			<path id="path92" inkscape:connector-curvature="0" d="M227.303,29.201v-3.806h-1.146v-0.358c0.602,0,1.044-0.28,1.328-0.842
				c0.283-0.561,0.425-1.17,0.425-1.826h0.397v2.54h1.947v0.485h-1.947v3.78c0,0.381,0.063,0.715,0.189,1.004
				c0.13,0.287,0.362,0.431,0.694,0.431c0.314,0,0.541-0.15,0.681-0.451c0.139-0.306,0.209-0.633,0.209-0.983v-0.816h0.398v0.842
				c0,0.288-0.054,0.573-0.162,0.856c-0.103,0.279-0.258,0.508-0.465,0.688c-0.207,0.179-0.458,0.269-0.754,0.269
				c-0.553,0-0.991-0.163-1.314-0.491C227.462,30.19,227.303,29.75,227.303,29.201z"/>
		</g>
		<g id="text4281">
			<path id="path95" inkscape:connector-curvature="0" d="M232.309,30.097c0-0.207,0.076-0.384,0.229-0.531
				c0.153-0.148,0.33-0.222,0.533-0.222c0.125,0,0.249,0.033,0.37,0.101c0.122,0.068,0.216,0.161,0.283,0.283
				c0.068,0.122,0.101,0.245,0.101,0.37c0,0.203-0.074,0.38-0.222,0.533c-0.148,0.153-0.326,0.229-0.532,0.229
				c-0.202,0-0.38-0.076-0.533-0.229C232.385,30.477,232.309,30.3,232.309,30.097z"/>
		</g>
		<g id="text4283">
			<path id="path98" inkscape:connector-curvature="0" d="M246.128,27.004h-3.672v3.673h-1.119v-3.673h-3.672v-1.078h3.672v-3.672
				h1.119v3.672h3.672V27.004z"/>
		</g>
		<g id="text4285">
			<path id="path101" inkscape:connector-curvature="0" d="M250.879,33.832c-0.512-0.404-0.955-0.868-1.328-1.394
				c-0.368-0.521-0.672-1.078-0.909-1.67c-0.234-0.594-0.409-1.214-0.526-1.86c-0.117-0.648-0.175-1.297-0.175-1.948
				c0-0.66,0.059-1.314,0.175-1.96c0.117-0.647,0.294-1.269,0.532-1.867c0.243-0.597,0.55-1.156,0.923-1.677
				s0.808-0.978,1.307-1.368c0-0.017,0.023-0.027,0.067-0.027h0.128c0.027,0,0.052,0.014,0.074,0.041
				c0.023,0.023,0.034,0.049,0.034,0.081c0,0.041-0.009,0.069-0.027,0.088c-0.449,0.44-0.824,0.912-1.125,1.415
				c-0.296,0.503-0.537,1.04-0.721,1.61c-0.18,0.566-0.31,1.155-0.391,1.766c-0.081,0.606-0.121,1.24-0.121,1.9
				c0,2.924,0.781,5.146,2.345,6.665c0.027,0.027,0.04,0.065,0.04,0.115c0,0.023-0.013,0.047-0.04,0.075
				c-0.022,0.031-0.045,0.047-0.067,0.047h-0.128C250.901,33.86,250.879,33.85,250.879,33.832z"/>
		</g>
		<g id="text4287">
			<path id="path104" inkscape:connector-curvature="0" d="M258.257,23.609c0,1.006-0.213,1.755-0.64,2.243
				c-0.422,0.49-1.033,0.735-1.833,0.735c-0.818,0-1.436-0.245-1.853-0.735c-0.418-0.489-0.626-1.236-0.626-2.237
				c0-1.005,0.213-1.754,0.64-2.243c0.427-0.49,1.04-0.735,1.84-0.735c0.813,0,1.428,0.247,1.846,0.741
				C258.048,21.872,258.257,22.616,258.257,23.609z M262.913,20.826l-5.256,10.033h-1.112l5.256-10.033H262.913z M266.147,28.076
				c0,1.007-0.213,1.755-0.64,2.244c-0.427,0.49-1.04,0.734-1.84,0.734c-0.813,0-1.428-0.247-1.846-0.741
				c-0.418-0.494-0.626-1.237-0.626-2.23c0-1.006,0.211-1.754,0.633-2.243c0.427-0.49,1.04-0.735,1.839-0.735
				c0.818,0,1.435,0.245,1.853,0.735C265.938,26.329,266.147,27.074,266.147,28.076L266.147,28.076z M257.057,23.609
				c0-0.773-0.101-1.312-0.303-1.618c-0.198-0.306-0.521-0.458-0.97-0.458c-0.458,0-0.786,0.153-0.984,0.458
				c-0.198,0.306-0.297,0.847-0.297,1.624c0,0.778,0.099,1.319,0.297,1.624c0.198,0.301,0.526,0.451,0.984,0.451
				c0.449,0,0.772-0.15,0.97-0.451C256.956,24.934,257.057,24.39,257.057,23.609L257.057,23.609z M264.948,28.076
				c0-0.773-0.101-1.311-0.303-1.617c-0.198-0.306-0.521-0.458-0.97-0.458c-0.458,0-0.786,0.153-0.984,0.458
				c-0.198,0.306-0.296,0.847-0.296,1.624c0,0.777,0.099,1.318,0.296,1.624c0.198,0.301,0.525,0.451,0.984,0.451
				c0.449,0,0.773-0.15,0.97-0.451C264.846,29.401,264.948,28.857,264.948,28.076L264.948,28.076z"/>
		</g>
		<g id="text4289">
			<path id="path107" inkscape:connector-curvature="0" d="M269.763,31.014c-0.557,0-1.062-0.144-1.516-0.431
				c-0.454-0.293-0.811-0.679-1.071-1.16c-0.26-0.484-0.391-0.998-0.391-1.542c0-0.544,0.128-1.065,0.384-1.564
				c0.26-0.499,0.617-0.897,1.071-1.193c0.458-0.301,0.965-0.451,1.523-0.451c0.539,0,1.028,0.105,1.469,0.317
				c0.445,0.211,0.667,0.557,0.667,1.038c0,0.18-0.065,0.337-0.195,0.471c-0.126,0.13-0.281,0.196-0.465,0.196
				c-0.184,0-0.342-0.066-0.472-0.196c-0.125-0.135-0.188-0.292-0.188-0.471c0-0.161,0.052-0.301,0.155-0.418
				c0.103-0.122,0.231-0.198,0.384-0.229c-0.319-0.202-0.766-0.303-1.341-0.303c-0.44,0-0.795,0.146-1.065,0.438
				c-0.27,0.293-0.458,0.654-0.566,1.085c-0.108,0.432-0.161,0.858-0.161,1.281c0,0.445,0.065,0.875,0.195,1.294
				c0.135,0.413,0.348,0.756,0.64,1.031c0.297,0.269,0.667,0.404,1.112,0.404c0.435,0,0.806-0.132,1.112-0.398
				c0.306-0.269,0.514-0.62,0.626-1.051c0-0.054,0.036-0.081,0.108-0.081h0.168c0.027,0,0.052,0.013,0.074,0.041
				c0.023,0.022,0.034,0.049,0.034,0.08v0.041c-0.139,0.544-0.415,0.975-0.829,1.294S270.324,31.014,269.763,31.014z"/>
			<path id="path109" inkscape:connector-curvature="0" d="M272.802,30.859v-0.485c0.314,0,0.573-0.025,0.775-0.074
				c0.202-0.05,0.303-0.171,0.303-0.365v-3.766c0-0.247-0.038-0.425-0.115-0.532c-0.072-0.112-0.177-0.18-0.316-0.202
				c-0.139-0.027-0.355-0.04-0.647-0.04v-0.485l1.974-0.148v1.348c0.148-0.399,0.359-0.723,0.633-0.971
				c0.274-0.251,0.606-0.377,0.997-0.377c0.274,0,0.519,0.081,0.735,0.243c0.216,0.161,0.323,0.375,0.323,0.639
				c0,0.167-0.061,0.313-0.182,0.438c-0.117,0.122-0.263,0.181-0.438,0.181c-0.171,0-0.317-0.06-0.438-0.181
				c-0.122-0.121-0.182-0.267-0.182-0.438c0-0.247,0.088-0.422,0.263-0.524h-0.081c-0.373,0-0.679,0.134-0.916,0.404
				c-0.234,0.27-0.4,0.604-0.499,1.005c-0.099,0.399-0.148,0.781-0.148,1.144v2.264c0,0.292,0.447,0.438,1.341,0.438v0.485H272.802z
				"/>
			<path id="path111" inkscape:connector-curvature="0" d="M278.26,30.859v-0.485c0.314,0,0.573-0.025,0.775-0.074
				c0.202-0.05,0.303-0.171,0.303-0.365v-3.766c0-0.354-0.069-0.573-0.209-0.654c-0.135-0.081-0.404-0.121-0.809-0.121v-0.485
				l1.988-0.148v5.175c0,0.194,0.088,0.314,0.263,0.365c0.175,0.049,0.408,0.074,0.701,0.074v0.485H278.26z M278.846,22.389
				c0-0.201,0.076-0.379,0.229-0.532c0.152-0.153,0.328-0.229,0.525-0.229c0.131,0,0.256,0.034,0.378,0.102
				c0.121,0.067,0.215,0.161,0.283,0.283c0.067,0.121,0.101,0.247,0.101,0.377c0,0.198-0.076,0.373-0.229,0.526
				c-0.153,0.153-0.33,0.229-0.533,0.229c-0.198,0-0.373-0.076-0.525-0.229C278.923,22.762,278.846,22.587,278.846,22.389
				L278.846,22.389z"/>
			<path id="path113" inkscape:connector-curvature="0" d="M282.121,30.899v-2.25c0-0.072,0.04-0.108,0.121-0.108h0.168
				c0.054,0,0.09,0.036,0.108,0.108c0.256,1.334,0.876,2.001,1.86,2.001c0.436,0,0.8-0.099,1.092-0.296
				c0.297-0.198,0.445-0.504,0.445-0.917c0-0.297-0.114-0.548-0.343-0.755c-0.229-0.211-0.501-0.355-0.815-0.431l-0.923-0.182
				c-0.31-0.067-0.593-0.17-0.849-0.309c-0.251-0.14-0.458-0.324-0.62-0.553c-0.161-0.234-0.243-0.503-0.243-0.808
				c0-0.405,0.106-0.735,0.317-0.991c0.216-0.26,0.494-0.447,0.836-0.559c0.341-0.117,0.71-0.175,1.105-0.175
				c0.472,0,0.883,0.126,1.233,0.378l0.398-0.344c0-0.023,0.022-0.034,0.067-0.034h0.101c0.027,0,0.052,0.013,0.074,0.041
				c0.023,0.023,0.034,0.047,0.034,0.074v1.806c0,0.085-0.036,0.128-0.108,0.128h-0.168c-0.081,0-0.122-0.043-0.122-0.128
				c0-0.48-0.135-0.867-0.404-1.159c-0.265-0.292-0.638-0.438-1.119-0.438c-0.413,0-0.773,0.076-1.078,0.229
				c-0.301,0.153-0.451,0.415-0.451,0.788c0,0.255,0.108,0.467,0.323,0.633c0.22,0.162,0.476,0.279,0.768,0.35l0.937,0.175
				c0.314,0.072,0.606,0.194,0.876,0.365c0.274,0.17,0.49,0.385,0.647,0.646c0.161,0.26,0.243,0.556,0.243,0.883
				c0,0.333-0.059,0.623-0.175,0.869c-0.112,0.243-0.272,0.445-0.478,0.607c-0.202,0.161-0.442,0.28-0.721,0.357
				c-0.278,0.076-0.57,0.115-0.876,0.115c-0.575,0-1.067-0.193-1.476-0.58l-0.505,0.547c0,0.022-0.025,0.033-0.074,0.033h-0.081
				C282.161,31.014,282.121,30.976,282.121,30.899z"/>
			<path id="path115" inkscape:connector-curvature="0" d="M288.516,29.201v-3.806h-1.146v-0.358c0.602,0,1.044-0.28,1.328-0.842
				c0.283-0.561,0.425-1.17,0.425-1.826h0.398v2.54h1.947v0.485h-1.947v3.78c0,0.381,0.063,0.715,0.188,1.004
				c0.13,0.287,0.362,0.431,0.694,0.431c0.314,0,0.541-0.15,0.681-0.451c0.139-0.306,0.209-0.633,0.209-0.983v-0.816h0.398v0.842
				c0,0.288-0.054,0.573-0.162,0.856c-0.103,0.279-0.258,0.508-0.465,0.688c-0.207,0.179-0.458,0.269-0.754,0.269
				c-0.553,0-0.991-0.163-1.314-0.491C288.675,30.19,288.516,29.75,288.516,29.201z"/>
		</g>
		<g id="text4291">
			<path id="path118" inkscape:connector-curvature="0" d="M294.859,30.097c0-0.207,0.076-0.384,0.229-0.531
				c0.153-0.148,0.33-0.222,0.531-0.222c0.127,0,0.25,0.033,0.372,0.101c0.121,0.068,0.215,0.161,0.283,0.283
				c0.067,0.122,0.101,0.245,0.101,0.37c0,0.203-0.075,0.38-0.222,0.533c-0.148,0.153-0.326,0.229-0.533,0.229
				c-0.201,0-0.379-0.076-0.531-0.229C294.936,30.477,294.859,30.3,294.859,30.097z"/>
		</g>
		<g id="text4293">
			<path id="path121" inkscape:connector-curvature="0" d="M302.749,24.822c-0.108,0.108-0.359,0.234-0.754,0.377l-1.833,0.702
				l1.833,0.701c0.395,0.143,0.647,0.269,0.754,0.378c0.109,0.108,0.162,0.233,0.162,0.377c0,0.18-0.036,0.306-0.109,0.377
				c-0.108,0.109-0.234,0.162-0.378,0.162c-0.215,0-0.449-0.109-0.7-0.324l-1.672-1.509l0.379,2.264
				c0.035,0.215,0.054,0.377,0.054,0.484c0,0.18-0.054,0.324-0.162,0.431c-0.108,0.108-0.234,0.161-0.378,0.161
				c-0.143,0-0.269-0.054-0.377-0.161c-0.108-0.108-0.161-0.252-0.161-0.431c0-0.143,0.017-0.306,0.054-0.484l0.431-2.264
				l-1.67,1.509c-0.252,0.215-0.485,0.324-0.702,0.324c-0.143,0-0.269-0.054-0.377-0.162c-0.072-0.071-0.108-0.197-0.108-0.377
				c0-0.144,0.054-0.269,0.161-0.377c0.108-0.109,0.359-0.234,0.755-0.378l1.832-0.701l-1.832-0.702
				c-0.396-0.143-0.648-0.269-0.755-0.377c-0.108-0.108-0.161-0.234-0.161-0.378c0-0.18,0.036-0.305,0.108-0.378
				c0.108-0.108,0.234-0.161,0.377-0.161c0.216,0,0.45,0.108,0.702,0.324l1.67,1.51l-0.377-2.264
				c-0.036-0.215-0.054-0.378-0.054-0.485c0-0.18,0.054-0.324,0.161-0.431c0.108-0.108,0.234-0.161,0.377-0.161
				c0.144,0,0.27,0.054,0.378,0.161c0.109,0.108,0.162,0.252,0.162,0.431c0,0.143-0.018,0.305-0.054,0.485l-0.432,2.264l1.672-1.51
				c0.251-0.216,0.484-0.324,0.7-0.324c0.144,0,0.27,0.054,0.378,0.161c0.072,0.073,0.109,0.198,0.109,0.378
				C302.911,24.588,302.858,24.714,302.749,24.822z"/>
		</g>
		<g id="text4295">
			<path id="path124" inkscape:connector-curvature="0" d="M306.987,30.859v-0.371c0-0.023,0.01-0.048,0.028-0.074l2.143-2.372
				c0.323-0.351,0.585-0.645,0.788-0.883c0.201-0.239,0.401-0.512,0.599-0.822c0.198-0.31,0.353-0.624,0.465-0.943
				c0.116-0.324,0.175-0.665,0.175-1.025c0-0.378-0.069-0.736-0.209-1.078c-0.14-0.346-0.348-0.622-0.627-0.828
				c-0.273-0.207-0.607-0.311-0.998-0.311c-0.399,0-0.759,0.122-1.077,0.365c-0.319,0.238-0.544,0.548-0.675,0.929
				c0.036-0.009,0.086-0.013,0.149-0.013c0.207,0,0.382,0.069,0.525,0.209c0.148,0.139,0.222,0.319,0.222,0.538
				c0,0.212-0.074,0.391-0.222,0.54c-0.143,0.143-0.319,0.215-0.525,0.215c-0.216,0-0.398-0.075-0.546-0.222
				c-0.143-0.153-0.216-0.33-0.216-0.533c0-0.346,0.066-0.669,0.196-0.97c0.13-0.306,0.316-0.576,0.559-0.808
				c0.247-0.238,0.523-0.42,0.828-0.546c0.311-0.126,0.638-0.188,0.985-0.188c0.524,0,1.014,0.112,1.468,0.337
				c0.454,0.221,0.814,0.535,1.078,0.943c0.265,0.405,0.398,0.879,0.398,1.422c0,0.399-0.088,0.78-0.263,1.139
				s-0.399,0.687-0.674,0.983c-0.274,0.293-0.624,0.625-1.051,0.998c-0.427,0.372-0.708,0.623-0.842,0.748l-1.565,1.504h1.328
				c0.651,0,1.195-0.005,1.631-0.014c0.44-0.014,0.674-0.031,0.701-0.054c0.108-0.117,0.218-0.542,0.33-1.274h0.405l-0.392,2.46
				H306.987z"/>
		</g>
		<g id="text4297">
			<path id="path127" inkscape:connector-curvature="0" d="M314.846,33.86c-0.081,0-0.122-0.041-0.122-0.122
				c0-0.04,0.01-0.069,0.028-0.088c1.572-1.536,2.358-3.767,2.358-6.691s-0.778-5.145-2.332-6.664
				c-0.036-0.023-0.054-0.061-0.054-0.115c0-0.032,0.012-0.058,0.035-0.081c0.026-0.027,0.056-0.041,0.087-0.041h0.128
				c0.026,0,0.049,0.01,0.067,0.027c0.661,0.521,1.211,1.155,1.651,1.901c0.441,0.746,0.762,1.541,0.964,2.385
				c0.207,0.845,0.311,1.707,0.311,2.587c0,0.651-0.056,1.294-0.168,1.927c-0.108,0.629-0.283,1.249-0.526,1.86
				c-0.238,0.616-0.542,1.182-0.91,1.698c-0.368,0.521-0.808,0.984-1.321,1.387c-0.018,0.018-0.041,0.028-0.067,0.028H314.846z"/>
		</g>
		<g id="text4299">
			<path id="path130" inkscape:connector-curvature="0" d="M332.528,27.004h-3.673v3.673h-1.118v-3.673h-3.673v-1.078h3.673v-3.672
				h1.118v3.672h3.673V27.004z"/>
		</g>
		<g id="text4301">
			<path id="path133" inkscape:connector-curvature="0" d="M340.278,33.832c-0.512-0.404-0.954-0.868-1.327-1.394
				c-0.368-0.521-0.672-1.078-0.91-1.67c-0.234-0.594-0.409-1.214-0.526-1.86c-0.116-0.648-0.175-1.297-0.175-1.948
				c0-0.66,0.059-1.314,0.175-1.96c0.117-0.647,0.295-1.269,0.533-1.867c0.242-0.597,0.55-1.156,0.923-1.677
				s0.808-0.978,1.307-1.368c0-0.017,0.023-0.027,0.068-0.027h0.129c0.026,0,0.051,0.014,0.074,0.041
				c0.023,0.023,0.034,0.049,0.034,0.081c0,0.041-0.009,0.069-0.028,0.088c-0.448,0.44-0.823,0.912-1.125,1.415
				c-0.296,0.503-0.537,1.04-0.721,1.61c-0.179,0.566-0.31,1.155-0.391,1.766c-0.081,0.606-0.122,1.24-0.122,1.9
				c0,2.924,0.781,5.146,2.345,6.665c0.027,0.027,0.041,0.065,0.041,0.115c0,0.023-0.014,0.047-0.041,0.075
				c-0.022,0.031-0.044,0.047-0.067,0.047h-0.129C340.301,33.86,340.278,33.85,340.278,33.832z"/>
		</g>
		<g id="text4303">
			<path id="path136" inkscape:connector-curvature="0" d="M347.656,23.609c0,1.006-0.214,1.755-0.64,2.243
				c-0.423,0.49-1.033,0.735-1.833,0.735c-0.818,0-1.436-0.245-1.853-0.735c-0.418-0.489-0.627-1.236-0.627-2.237
				c0-1.005,0.214-1.754,0.64-2.243s1.04-0.735,1.84-0.735c0.813,0,1.428,0.247,1.846,0.741
				C347.448,21.872,347.656,22.616,347.656,23.609z M352.313,20.826l-5.255,10.033h-1.112l5.255-10.033H352.313z M355.547,28.076
				c0,1.007-0.214,1.755-0.64,2.244c-0.426,0.49-1.04,0.734-1.84,0.734c-0.813,0-1.428-0.247-1.846-0.741
				c-0.418-0.494-0.627-1.237-0.627-2.23c0-1.006,0.211-1.754,0.634-2.243c0.426-0.49,1.039-0.735,1.839-0.735
				c0.818,0,1.435,0.245,1.853,0.735C355.339,26.329,355.547,27.074,355.547,28.076z M346.457,23.609
				c0-0.773-0.101-1.312-0.302-1.618c-0.198-0.306-0.522-0.458-0.971-0.458c-0.458,0-0.787,0.153-0.985,0.458
				c-0.197,0.306-0.295,0.847-0.295,1.624c0,0.778,0.098,1.319,0.295,1.624c0.198,0.301,0.526,0.451,0.985,0.451
				c0.449,0,0.773-0.15,0.971-0.451C346.356,24.934,346.457,24.39,346.457,23.609z M354.347,28.076c0-0.773-0.101-1.311-0.302-1.617
				c-0.198-0.306-0.521-0.458-0.971-0.458c-0.458,0-0.787,0.153-0.984,0.458c-0.198,0.306-0.296,0.847-0.296,1.624
				c0,0.777,0.098,1.318,0.296,1.624c0.197,0.301,0.525,0.451,0.984,0.451c0.45,0,0.773-0.15,0.971-0.451
				C354.246,29.401,354.347,28.857,354.347,28.076z"/>
		</g>
		<g id="text4305">
			<path id="path139" inkscape:connector-curvature="0" d="M357.134,29.201v-3.806h-1.144v-0.358c0.601,0,1.044-0.28,1.327-0.842
				c0.283-0.561,0.425-1.17,0.425-1.826h0.398v2.54h1.947v0.485h-1.947v3.78c0,0.381,0.063,0.715,0.188,1.004
				c0.13,0.287,0.362,0.431,0.695,0.431c0.314,0,0.541-0.15,0.681-0.451c0.139-0.306,0.208-0.633,0.208-0.983v-0.816h0.398v0.842
				c0,0.288-0.054,0.573-0.161,0.856c-0.103,0.279-0.259,0.508-0.465,0.688c-0.207,0.179-0.458,0.269-0.754,0.269
				c-0.552,0-0.991-0.163-1.314-0.491C357.294,30.19,357.134,29.75,357.134,29.201z"/>
			<path id="path141" inkscape:connector-curvature="0" d="M361.447,30.859v-0.485c0.314,0,0.573-0.025,0.774-0.074
				c0.202-0.05,0.304-0.171,0.304-0.365v-3.766c0-0.247-0.038-0.425-0.115-0.532c-0.073-0.112-0.178-0.18-0.318-0.202
				c-0.139-0.027-0.354-0.04-0.646-0.04v-0.485l1.974-0.148v1.348c0.148-0.399,0.359-0.723,0.633-0.971
				c0.274-0.251,0.607-0.377,0.998-0.377c0.274,0,0.519,0.081,0.735,0.243c0.215,0.161,0.323,0.375,0.323,0.639
				c0,0.167-0.061,0.313-0.182,0.438c-0.116,0.122-0.262,0.181-0.438,0.181c-0.17,0-0.316-0.06-0.438-0.181
				c-0.122-0.121-0.182-0.267-0.182-0.438c0-0.247,0.088-0.422,0.263-0.524h-0.081c-0.373,0-0.679,0.134-0.917,0.404
				c-0.234,0.27-0.399,0.604-0.498,1.005c-0.099,0.399-0.148,0.781-0.148,1.144v2.264c0,0.292,0.447,0.438,1.341,0.438v0.485
				H361.447z"/>
			<path id="path143" inkscape:connector-curvature="0" d="M366.905,30.859v-0.485c0.314,0,0.573-0.025,0.774-0.074
				c0.203-0.05,0.304-0.171,0.304-0.365v-3.766c0-0.354-0.069-0.573-0.209-0.654c-0.135-0.081-0.404-0.121-0.808-0.121v-0.485
				l1.988-0.148v5.175c0,0.194,0.087,0.314,0.262,0.365c0.175,0.049,0.409,0.074,0.701,0.074v0.485H366.905z M367.492,22.389
				c0-0.201,0.076-0.379,0.228-0.532c0.153-0.153,0.328-0.229,0.525-0.229c0.13,0,0.257,0.034,0.378,0.102
				c0.122,0.067,0.216,0.161,0.283,0.283c0.067,0.121,0.102,0.247,0.102,0.377c0,0.198-0.076,0.373-0.229,0.526
				s-0.33,0.229-0.533,0.229c-0.197,0-0.372-0.076-0.525-0.229C367.568,22.762,367.492,22.587,367.492,22.389z"/>
			<path id="path145" inkscape:connector-curvature="0" d="M373.677,31.014c-0.544,0-1.04-0.146-1.49-0.438
				c-0.449-0.297-0.799-0.686-1.051-1.166c-0.247-0.48-0.371-0.991-0.371-1.529c0-0.557,0.135-1.074,0.404-1.551
				c0.274-0.481,0.645-0.862,1.113-1.145c0.467-0.283,0.981-0.425,1.542-0.425c0.337,0,0.656,0.072,0.957,0.215
				c0.302,0.14,0.563,0.335,0.782,0.587v-2.87c0-0.247-0.038-0.425-0.115-0.533c-0.072-0.112-0.178-0.179-0.317-0.201
				c-0.135-0.028-0.348-0.041-0.64-0.041v-0.485l2.041-0.148v8.321c0,0.243,0.036,0.42,0.108,0.532
				c0.076,0.109,0.182,0.175,0.318,0.202c0.139,0.023,0.354,0.034,0.646,0.034v0.485l-2.082,0.155v-0.869
				c-0.238,0.273-0.521,0.487-0.849,0.64C374.346,30.938,374.014,31.014,373.677,31.014z M372.269,29.659
				c0.157,0.301,0.366,0.542,0.627,0.721c0.265,0.181,0.552,0.27,0.862,0.27c0.381,0,0.732-0.11,1.051-0.33
				c0.319-0.221,0.557-0.506,0.714-0.856v-3.309c-0.108-0.201-0.245-0.381-0.411-0.538c-0.162-0.161-0.346-0.286-0.553-0.371
				c-0.201-0.086-0.417-0.128-0.646-0.128c-0.481,0-0.867,0.136-1.16,0.411c-0.292,0.269-0.496,0.616-0.613,1.038
				c-0.116,0.422-0.175,0.865-0.175,1.328c0,0.368,0.018,0.689,0.054,0.963C372.06,29.132,372.143,29.399,372.269,29.659z"/>
		</g>
		<g id="text4307">
			<path id="path148" inkscape:connector-curvature="0" d="M379.758,30.097c0-0.207,0.076-0.384,0.229-0.531
				c0.153-0.148,0.33-0.222,0.533-0.222c0.125,0,0.248,0.033,0.37,0.101s0.216,0.161,0.283,0.283
				c0.068,0.122,0.102,0.245,0.102,0.37c0,0.203-0.074,0.38-0.223,0.533c-0.148,0.153-0.325,0.229-0.531,0.229
				c-0.203,0-0.38-0.076-0.533-0.229C379.835,30.477,379.758,30.3,379.758,30.097z"/>
		</g>
		<g id="text4309">
			<path id="path151" inkscape:connector-curvature="0" d="M387.649,24.822c-0.108,0.108-0.359,0.234-0.754,0.377l-1.833,0.702
				l1.833,0.701c0.395,0.143,0.647,0.269,0.754,0.378c0.108,0.108,0.161,0.233,0.161,0.377c0,0.18-0.036,0.306-0.108,0.377
				c-0.108,0.109-0.234,0.162-0.377,0.162c-0.215,0-0.45-0.109-0.702-0.324l-1.67-1.509l0.377,2.264
				c0.036,0.215,0.054,0.377,0.054,0.484c0,0.18-0.054,0.324-0.161,0.431c-0.108,0.108-0.233,0.161-0.377,0.161
				s-0.27-0.054-0.378-0.161c-0.108-0.108-0.161-0.252-0.161-0.431c0-0.143,0.018-0.306,0.054-0.484l0.432-2.264l-1.671,1.509
				c-0.252,0.215-0.485,0.324-0.701,0.324c-0.144,0-0.269-0.054-0.378-0.162c-0.072-0.071-0.108-0.197-0.108-0.377
				c0-0.144,0.054-0.269,0.161-0.377c0.109-0.109,0.359-0.234,0.754-0.378l1.834-0.701l-1.834-0.702
				c-0.395-0.143-0.646-0.269-0.754-0.377c-0.108-0.108-0.161-0.234-0.161-0.378c0-0.18,0.036-0.305,0.108-0.378
				c0.109-0.108,0.234-0.161,0.378-0.161c0.215,0,0.449,0.108,0.701,0.324l1.671,1.51l-0.378-2.264
				c-0.036-0.215-0.054-0.378-0.054-0.485c0-0.18,0.054-0.324,0.161-0.431c0.109-0.108,0.234-0.161,0.378-0.161
				c0.144,0,0.269,0.054,0.377,0.161c0.108,0.108,0.161,0.252,0.161,0.431c0,0.143-0.017,0.305-0.054,0.485l-0.431,2.264l1.67-1.51
				c0.252-0.216,0.486-0.324,0.702-0.324c0.143,0,0.269,0.054,0.377,0.161c0.072,0.073,0.108,0.198,0.108,0.378
				C387.81,24.588,387.757,24.714,387.649,24.822z"/>
		</g>
		<g id="text4311">
			<path id="path154" inkscape:connector-curvature="0" d="M391.888,30.859v-0.371c0-0.023,0.009-0.048,0.026-0.074l2.143-2.372
				c0.324-0.351,0.587-0.645,0.788-0.883c0.203-0.239,0.403-0.512,0.6-0.822c0.198-0.31,0.353-0.624,0.465-0.943
				c0.117-0.324,0.175-0.665,0.175-1.025c0-0.378-0.069-0.736-0.208-1.078c-0.139-0.346-0.348-0.622-0.627-0.828
				c-0.274-0.207-0.606-0.311-0.997-0.311c-0.4,0-0.76,0.122-1.078,0.365c-0.32,0.238-0.544,0.548-0.674,0.929
				c0.036-0.009,0.085-0.013,0.148-0.013c0.207,0,0.382,0.069,0.526,0.209c0.148,0.139,0.222,0.319,0.222,0.538
				c0,0.212-0.075,0.391-0.222,0.54c-0.144,0.143-0.32,0.215-0.526,0.215c-0.215,0-0.398-0.075-0.545-0.222
				c-0.144-0.153-0.215-0.33-0.215-0.533c0-0.346,0.064-0.669,0.194-0.97c0.13-0.306,0.318-0.576,0.559-0.808
				c0.247-0.238,0.524-0.42,0.829-0.546c0.31-0.126,0.638-0.188,0.984-0.188c0.526,0,1.016,0.112,1.469,0.337
				c0.454,0.221,0.814,0.535,1.078,0.943c0.265,0.405,0.398,0.879,0.398,1.422c0,0.399-0.088,0.78-0.263,1.139
				c-0.175,0.359-0.399,0.687-0.674,0.983c-0.273,0.293-0.624,0.625-1.051,0.998c-0.426,0.372-0.707,0.623-0.842,0.748l-1.563,1.504
				h1.327c0.652,0,1.196-0.005,1.631-0.014c0.44-0.014,0.674-0.031,0.701-0.054c0.108-0.117,0.218-0.542,0.33-1.274h0.405
				l-0.391,2.46H391.888z"/>
		</g>
		<g id="text4313">
			<path id="path157" inkscape:connector-curvature="0" d="M399.746,33.86c-0.081,0-0.121-0.041-0.121-0.122
				c0-0.04,0.009-0.069,0.026-0.088c1.572-1.536,2.358-3.767,2.359-6.691c-0.001-2.924-0.777-5.145-2.331-6.664
				c-0.036-0.023-0.054-0.061-0.054-0.115c0-0.032,0.01-0.058,0.033-0.081c0.027-0.027,0.056-0.041,0.088-0.041h0.128
				c0.028,0,0.05,0.01,0.068,0.027c0.661,0.521,1.21,1.155,1.651,1.901c0.439,0.746,0.761,1.541,0.964,2.385
				c0.207,0.845,0.309,1.707,0.309,2.587c0,0.651-0.056,1.294-0.168,1.927c-0.108,0.629-0.283,1.249-0.525,1.86
				c-0.238,0.616-0.541,1.182-0.909,1.698c-0.369,0.521-0.809,0.984-1.321,1.387c-0.017,0.018-0.04,0.028-0.068,0.028H399.746z"/>
		</g>
		<g id="text4315">
			<path id="path160" inkscape:connector-curvature="0" d="M417.428,27.004h-3.673v3.673h-1.118v-3.673h-3.673v-1.078h3.673v-3.672
				h1.118v3.672h3.673V27.004z"/>
		</g>
		<g id="text4317">
			<path id="path163" inkscape:connector-curvature="0" d="M421.587,30.859v-0.371c0-0.023,0.01-0.048,0.027-0.074l2.143-2.372
				c0.323-0.351,0.586-0.645,0.788-0.883c0.202-0.239,0.402-0.512,0.6-0.822c0.197-0.31,0.353-0.624,0.465-0.943
				c0.117-0.324,0.175-0.665,0.175-1.025c0-0.378-0.069-0.736-0.209-1.078c-0.139-0.346-0.348-0.622-0.626-0.828
				c-0.274-0.207-0.607-0.311-0.998-0.311c-0.399,0-0.759,0.122-1.077,0.365c-0.32,0.238-0.544,0.548-0.675,0.929
				c0.036-0.009,0.086-0.013,0.148-0.013c0.207,0,0.382,0.069,0.526,0.209c0.148,0.139,0.222,0.319,0.222,0.538
				c0,0.212-0.075,0.391-0.222,0.54c-0.144,0.143-0.32,0.215-0.526,0.215c-0.215,0-0.398-0.075-0.545-0.222
				c-0.144-0.153-0.216-0.33-0.216-0.533c0-0.346,0.065-0.669,0.195-0.97c0.13-0.306,0.317-0.576,0.559-0.808
				c0.247-0.238,0.524-0.42,0.829-0.546c0.31-0.126,0.638-0.188,0.984-0.188c0.525,0,1.015,0.112,1.469,0.337
				c0.453,0.221,0.813,0.535,1.078,0.943c0.265,0.405,0.397,0.879,0.397,1.422c0,0.399-0.087,0.78-0.262,1.139
				s-0.4,0.687-0.674,0.983c-0.274,0.293-0.624,0.625-1.051,0.998c-0.427,0.372-0.708,0.623-0.842,0.748l-1.563,1.504h1.327
				c0.651,0,1.195-0.005,1.631-0.014c0.44-0.014,0.674-0.031,0.702-0.054c0.108-0.117,0.217-0.542,0.33-1.274h0.404l-0.391,2.46
				H421.587z"/>
		</g>
		<g id="text4319">
		</g>
		<g id="text4376">
			<path id="path173" inkscape:connector-curvature="0" d="M154.419,28.223V28c0.435,0,0.652-0.067,0.652-0.201v-3.479
				c0-0.134-0.217-0.201-0.652-0.201v-0.222h1.988c0.237,0,0.485,0.043,0.745,0.129c0.262,0.084,0.48,0.214,0.655,0.39
				c0.175,0.175,0.263,0.384,0.263,0.627c0,0.177-0.054,0.337-0.161,0.477c-0.105,0.138-0.241,0.254-0.409,0.35
				c-0.165,0.092-0.334,0.16-0.507,0.201c0.19,0.066,0.356,0.171,0.498,0.315c0.142,0.144,0.228,0.309,0.257,0.495l0.09,0.563
				c0.041,0.254,0.085,0.443,0.13,0.569c0.045,0.124,0.145,0.186,0.3,0.186c0.132,0,0.23-0.061,0.294-0.182
				c0.066-0.124,0.099-0.258,0.099-0.402c0-0.015,0.007-0.027,0.019-0.037c0.014-0.012,0.029-0.018,0.043-0.018h0.059
				c0.041,0,0.062,0.028,0.062,0.083c0,0.115-0.023,0.229-0.068,0.34c-0.045,0.109-0.111,0.2-0.198,0.272
				c-0.084,0.072-0.185,0.109-0.303,0.109c-0.305,0-0.568-0.076-0.788-0.226c-0.218-0.153-0.328-0.375-0.328-0.669v-0.563
				c0-0.21-0.073-0.391-0.22-0.541c-0.146-0.15-0.326-0.226-0.538-0.226h-0.761V27.8c0,0.134,0.217,0.201,0.652,0.201v0.223H154.419
				z M155.641,25.975h0.677c0.35,0,0.617-0.069,0.801-0.21c0.184-0.142,0.275-0.382,0.275-0.721c0-0.335-0.091-0.573-0.272-0.714
				s-0.449-0.21-0.804-0.21h-0.356c-0.076,0-0.136,0.003-0.179,0.009c-0.041,0.007-0.075,0.025-0.102,0.056
				c-0.026,0.03-0.04,0.075-0.04,0.136V25.975L155.641,25.975z"/>
			<path id="path175" inkscape:connector-curvature="0" d="M160.449,28.294c-0.258,0-0.495-0.067-0.711-0.201
				c-0.214-0.136-0.383-0.316-0.507-0.542c-0.122-0.226-0.182-0.465-0.182-0.717c0-0.247,0.056-0.482,0.167-0.705
				c0.113-0.222,0.27-0.401,0.47-0.537c0.202-0.138,0.427-0.208,0.674-0.208c0.194,0,0.362,0.033,0.504,0.099
				c0.145,0.064,0.263,0.154,0.356,0.269c0.093,0.115,0.163,0.252,0.211,0.408c0.047,0.156,0.071,0.329,0.071,0.517
				c0,0.056-0.021,0.083-0.065,0.083h-1.834v0.069c0,0.35,0.07,0.651,0.211,0.902c0.142,0.252,0.373,0.378,0.692,0.378
				c0.13,0,0.25-0.03,0.359-0.087c0.112-0.057,0.208-0.138,0.288-0.241c0.082-0.102,0.138-0.214,0.167-0.331
				c0.004-0.015,0.011-0.027,0.022-0.037c0.013-0.012,0.026-0.018,0.04-0.018h0.056c0.043,0,0.065,0.027,0.065,0.081
				c-0.059,0.239-0.188,0.436-0.386,0.59C160.915,28.218,160.694,28.294,160.449,28.294z M159.608,26.603h1.444
				c0-0.16-0.023-0.319-0.068-0.483c-0.043-0.163-0.116-0.298-0.22-0.405c-0.103-0.109-0.238-0.165-0.405-0.165
				c-0.239,0-0.425,0.113-0.557,0.337C159.672,26.111,159.608,26.35,159.608,26.603z"/>
			<path id="path177" inkscape:connector-curvature="0" d="M161.889,28.242v-1.032c0-0.033,0.019-0.05,0.056-0.05h0.077
				c0.025,0,0.041,0.017,0.049,0.05c0.118,0.611,0.402,0.918,0.853,0.918c0.2,0,0.367-0.045,0.501-0.136
				c0.136-0.09,0.204-0.231,0.204-0.42c0-0.136-0.053-0.252-0.158-0.346c-0.105-0.096-0.23-0.162-0.374-0.198l-0.424-0.083
				c-0.142-0.03-0.272-0.078-0.389-0.142c-0.115-0.063-0.211-0.148-0.285-0.254c-0.074-0.107-0.111-0.23-0.111-0.371
				c0-0.186,0.049-0.337,0.145-0.455c0.099-0.12,0.227-0.205,0.383-0.256c0.157-0.054,0.326-0.081,0.507-0.081
				c0.217,0,0.405,0.058,0.566,0.174l0.183-0.158c0-0.01,0.01-0.016,0.031-0.016h0.046c0.012,0,0.023,0.007,0.034,0.019
				c0.01,0.01,0.016,0.021,0.016,0.034v0.828c0,0.039-0.017,0.059-0.049,0.059h-0.077c-0.037,0-0.056-0.02-0.056-0.059
				c0-0.221-0.062-0.398-0.185-0.532c-0.122-0.134-0.293-0.201-0.513-0.201c-0.19,0-0.355,0.036-0.495,0.105
				c-0.138,0.07-0.207,0.191-0.207,0.362c0,0.117,0.049,0.214,0.148,0.291c0.101,0.074,0.218,0.128,0.352,0.161l0.43,0.081
				c0.144,0.033,0.278,0.089,0.402,0.167c0.125,0.078,0.224,0.177,0.296,0.297c0.074,0.12,0.112,0.254,0.112,0.405
				c0,0.153-0.027,0.286-0.08,0.399c-0.052,0.111-0.125,0.203-0.22,0.278c-0.093,0.075-0.203,0.128-0.331,0.164
				c-0.128,0.035-0.262,0.052-0.402,0.052c-0.264,0-0.49-0.089-0.677-0.266l-0.232,0.251c0,0.01-0.011,0.015-0.034,0.015h-0.037
				C161.908,28.294,161.889,28.276,161.889,28.242z"/>
			<path id="path179" inkscape:connector-curvature="0" d="M164.341,29.45v-0.22c0.144,0,0.263-0.012,0.356-0.036
				c0.093-0.025,0.139-0.081,0.139-0.168v-3.052c0-0.115-0.041-0.188-0.123-0.216c-0.082-0.029-0.206-0.043-0.371-0.043v-0.223
				l0.937-0.069v0.393c0.115-0.128,0.249-0.225,0.402-0.291c0.155-0.068,0.318-0.102,0.491-0.102c0.25,0,0.474,0.069,0.674,0.205
				c0.2,0.134,0.356,0.311,0.467,0.531c0.114,0.219,0.17,0.451,0.17,0.696c0,0.255-0.063,0.493-0.188,0.714
				c-0.124,0.221-0.294,0.397-0.511,0.529c-0.214,0.129-0.45,0.194-0.708,0.194c-0.307,0-0.567-0.124-0.779-0.374v1.107
				c0,0.087,0.046,0.142,0.139,0.168c0.095,0.024,0.214,0.036,0.356,0.036v0.22H164.341z M165.297,27.607
				c0.074,0.151,0.177,0.276,0.309,0.375c0.132,0.096,0.276,0.145,0.433,0.145c0.146,0,0.275-0.039,0.386-0.117
				c0.113-0.078,0.208-0.184,0.284-0.316c0.076-0.132,0.132-0.269,0.167-0.414c0.037-0.147,0.056-0.287,0.056-0.423
				c0-0.17-0.031-0.353-0.092-0.548c-0.06-0.198-0.153-0.364-0.278-0.497c-0.124-0.136-0.274-0.205-0.451-0.205
				c-0.171,0-0.329,0.045-0.473,0.134c-0.142,0.087-0.256,0.205-0.34,0.356V27.607L165.297,27.607z"/>
			<path id="path181" inkscape:connector-curvature="0" d="M167.885,28.223V28c0.144,0,0.263-0.011,0.356-0.034
				c0.093-0.023,0.139-0.078,0.139-0.167v-1.729c0-0.163-0.032-0.263-0.096-0.3c-0.062-0.038-0.186-0.056-0.371-0.056v-0.223
				l0.912-0.069V27.8c0,0.089,0.04,0.144,0.121,0.167c0.08,0.023,0.188,0.034,0.321,0.034v0.223H167.885z M168.154,24.336
				c0-0.093,0.035-0.175,0.105-0.244c0.07-0.07,0.15-0.106,0.241-0.106c0.06,0,0.118,0.016,0.173,0.047
				c0.056,0.031,0.099,0.075,0.13,0.13c0.031,0.056,0.046,0.113,0.046,0.173c0,0.091-0.035,0.171-0.105,0.241
				c-0.07,0.07-0.152,0.105-0.244,0.105c-0.091,0-0.171-0.035-0.241-0.105C168.188,24.507,168.154,24.428,168.154,24.336z"/>
			<path id="path183" inkscape:connector-curvature="0" d="M169.61,28.223V28c0.145,0,0.263-0.011,0.356-0.034
				c0.093-0.023,0.139-0.078,0.139-0.167v-1.729c0-0.114-0.018-0.195-0.053-0.244c-0.033-0.052-0.082-0.083-0.145-0.094
				c-0.064-0.012-0.163-0.017-0.297-0.017v-0.223l0.906-0.069v0.619c0.068-0.183,0.165-0.333,0.29-0.445
				c0.126-0.115,0.278-0.174,0.458-0.174c0.125,0,0.238,0.037,0.337,0.112c0.099,0.074,0.148,0.172,0.148,0.293
				c0,0.076-0.028,0.143-0.084,0.201c-0.053,0.056-0.12,0.083-0.201,0.083c-0.078,0-0.145-0.028-0.201-0.083
				c-0.056-0.056-0.083-0.122-0.083-0.201c0-0.114,0.04-0.194,0.121-0.24h-0.037c-0.171,0-0.311,0.061-0.42,0.185
				c-0.107,0.124-0.184,0.277-0.229,0.461c-0.046,0.183-0.068,0.358-0.068,0.525V27.8c0,0.134,0.205,0.201,0.615,0.201v0.223H169.61
				z"/>
			<path id="path185" inkscape:connector-curvature="0" d="M172.173,27.602c0-0.252,0.099-0.456,0.296-0.613
				c0.198-0.158,0.435-0.269,0.711-0.333c0.278-0.066,0.542-0.099,0.792-0.099v-0.26c0-0.122-0.027-0.239-0.08-0.352
				c-0.054-0.115-0.131-0.209-0.232-0.281c-0.101-0.074-0.212-0.112-0.334-0.112c-0.28,0-0.494,0.063-0.64,0.189
				c0.08,0,0.146,0.031,0.198,0.092c0.053,0.061,0.08,0.13,0.08,0.211c0,0.084-0.03,0.156-0.09,0.216
				c-0.06,0.06-0.131,0.09-0.213,0.09c-0.085,0-0.157-0.03-0.217-0.09s-0.089-0.132-0.089-0.216c0-0.223,0.101-0.388,0.303-0.495
				c0.202-0.109,0.425-0.164,0.668-0.164c0.171,0,0.343,0.037,0.516,0.111c0.173,0.073,0.315,0.177,0.424,0.313
				c0.112,0.136,0.167,0.295,0.167,0.476v1.426c0,0.082,0.017,0.159,0.053,0.229c0.035,0.068,0.09,0.102,0.164,0.102
				c0.07,0,0.122-0.035,0.155-0.105c0.035-0.069,0.053-0.145,0.053-0.226v-0.405h0.185v0.405c0,0.095-0.025,0.186-0.074,0.273
				c-0.049,0.084-0.116,0.153-0.201,0.203c-0.082,0.05-0.172,0.075-0.269,0.075c-0.124,0-0.231-0.047-0.322-0.142
				c-0.089-0.097-0.138-0.211-0.148-0.343c-0.079,0.159-0.194,0.286-0.346,0.38c-0.152,0.093-0.315,0.139-0.488,0.139
				c-0.161,0-0.32-0.023-0.476-0.07c-0.155-0.048-0.284-0.122-0.389-0.223C172.224,27.897,172.173,27.764,172.173,27.602z
				 M172.686,27.602c0,0.148,0.055,0.273,0.164,0.373c0.109,0.102,0.238,0.152,0.387,0.152c0.136,0,0.26-0.034,0.371-0.102
				c0.112-0.069,0.2-0.161,0.266-0.279c0.066-0.117,0.099-0.241,0.099-0.371v-0.659c-0.192,0-0.389,0.032-0.591,0.096
				c-0.2,0.062-0.366,0.16-0.497,0.293C172.752,27.241,172.686,27.406,172.686,27.602L172.686,27.602z"/>
			<path id="path187" inkscape:connector-curvature="0" d="M175.744,28.223v-3.748c0-0.114-0.018-0.194-0.053-0.244
				c-0.033-0.052-0.082-0.082-0.145-0.093c-0.064-0.012-0.163-0.018-0.297-0.018v-0.222l0.937-0.069v1.982
				c0.07-0.078,0.152-0.147,0.244-0.205c0.095-0.059,0.196-0.104,0.303-0.135c0.107-0.031,0.216-0.047,0.328-0.047
				c0.19,0,0.365,0.038,0.526,0.115c0.163,0.076,0.304,0.181,0.423,0.316c0.12,0.134,0.212,0.288,0.278,0.464
				c0.068,0.173,0.102,0.352,0.102,0.538c0,0.255-0.063,0.493-0.188,0.714c-0.124,0.221-0.294,0.397-0.51,0.529
				c-0.214,0.129-0.451,0.194-0.708,0.194c-0.161,0-0.316-0.041-0.467-0.123c-0.15-0.082-0.275-0.192-0.374-0.327l-0.216,0.38
				H175.744z M176.205,27.602c0.07,0.155,0.171,0.281,0.303,0.38c0.132,0.096,0.278,0.145,0.439,0.145
				c0.219,0,0.395-0.063,0.529-0.188c0.136-0.126,0.231-0.285,0.285-0.476c0.053-0.193,0.08-0.394,0.08-0.606
				c0-0.358-0.046-0.629-0.139-0.814c-0.041-0.082-0.098-0.159-0.17-0.229c-0.07-0.07-0.149-0.124-0.238-0.164
				c-0.086-0.041-0.178-0.062-0.275-0.062c-0.169,0-0.326,0.046-0.47,0.136c-0.145,0.089-0.259,0.208-0.343,0.359V27.602z"/>
			<path id="path189" inkscape:connector-curvature="0" d="M178.793,28.223V28c0.145,0,0.263-0.011,0.356-0.034
				c0.093-0.023,0.139-0.078,0.139-0.167v-3.324c0-0.114-0.017-0.194-0.053-0.244c-0.033-0.052-0.082-0.082-0.145-0.093
				c-0.064-0.012-0.163-0.018-0.297-0.018v-0.222l0.94-0.069v3.97c0,0.089,0.046,0.144,0.139,0.167
				c0.093,0.023,0.21,0.034,0.353,0.034v0.223H178.793z"/>
			<path id="path191" inkscape:connector-curvature="0" d="M181.931,28.294c-0.257,0-0.494-0.067-0.711-0.201
				c-0.214-0.136-0.383-0.316-0.507-0.542c-0.122-0.226-0.182-0.465-0.182-0.717c0-0.247,0.056-0.482,0.167-0.705
				c0.113-0.222,0.27-0.401,0.47-0.537c0.202-0.138,0.427-0.208,0.674-0.208c0.194,0,0.362,0.033,0.504,0.099
				c0.144,0.064,0.263,0.154,0.356,0.269s0.163,0.252,0.21,0.408s0.071,0.329,0.071,0.517c0,0.056-0.022,0.083-0.065,0.083h-1.834
				v0.069c0,0.35,0.07,0.651,0.21,0.902c0.142,0.252,0.373,0.378,0.693,0.378c0.13,0,0.249-0.03,0.359-0.087
				c0.111-0.057,0.207-0.138,0.287-0.241c0.082-0.102,0.138-0.214,0.167-0.331c0.004-0.015,0.011-0.027,0.022-0.037
				c0.012-0.012,0.026-0.018,0.04-0.018h0.056c0.043,0,0.065,0.027,0.065,0.081c-0.06,0.239-0.189,0.436-0.386,0.59
				C182.398,28.218,182.176,28.294,181.931,28.294z M181.09,26.603h1.444c0-0.16-0.023-0.319-0.068-0.483
				c-0.043-0.163-0.117-0.298-0.22-0.405c-0.103-0.109-0.238-0.165-0.405-0.165c-0.239,0-0.425,0.113-0.557,0.337
				C181.155,26.111,181.09,26.35,181.09,26.603z"/>
			<path id="path193" inkscape:connector-curvature="0" d="M157.143,34.239v-0.222c0.435,0,0.652-0.068,0.652-0.201v-3.478
				c0-0.134-0.217-0.201-0.652-0.201v-0.222h3.491l0.176,1.45h-0.182c-0.029-0.266-0.068-0.475-0.118-0.628
				c-0.047-0.155-0.117-0.275-0.21-0.362c-0.093-0.089-0.217-0.15-0.374-0.185c-0.155-0.036-0.368-0.053-0.64-0.053h-0.578
				c-0.076,0-0.136,0.003-0.179,0.01c-0.041,0.006-0.075,0.025-0.102,0.056c-0.027,0.029-0.04,0.074-0.04,0.136v1.629h0.448
				c0.217,0,0.375-0.018,0.476-0.056c0.101-0.038,0.17-0.109,0.207-0.21c0.039-0.101,0.059-0.26,0.059-0.476h0.182v1.703h-0.182
				c0-0.216-0.02-0.375-0.059-0.476c-0.037-0.102-0.106-0.17-0.207-0.208c-0.101-0.039-0.26-0.058-0.476-0.058h-0.448v1.629
				c0,0.134,0.27,0.201,0.81,0.201v0.222H157.143z"/>
			<path id="path195" inkscape:connector-curvature="0" d="M161.243,34.239v-0.222c0.145,0,0.263-0.012,0.356-0.035
				c0.093-0.023,0.139-0.078,0.139-0.167v-1.728c0-0.114-0.017-0.195-0.053-0.245c-0.033-0.052-0.082-0.082-0.145-0.093
				c-0.064-0.012-0.163-0.018-0.297-0.018v-0.222l0.906-0.069v0.619c0.068-0.184,0.165-0.333,0.291-0.446
				c0.125-0.115,0.278-0.173,0.458-0.173c0.125,0,0.238,0.037,0.337,0.111c0.099,0.075,0.148,0.173,0.148,0.294
				c0,0.076-0.028,0.142-0.084,0.201c-0.053,0.056-0.12,0.083-0.201,0.083c-0.079,0-0.145-0.028-0.201-0.083
				c-0.056-0.056-0.084-0.122-0.084-0.201c0-0.114,0.04-0.194,0.121-0.241h-0.037c-0.171,0-0.311,0.062-0.421,0.186
				c-0.107,0.123-0.184,0.277-0.229,0.46c-0.046,0.184-0.068,0.359-0.068,0.526v1.038c0,0.134,0.205,0.201,0.616,0.201v0.222
				H161.243z"/>
			<path id="path197" inkscape:connector-curvature="0" d="M163.807,33.617c0-0.252,0.099-0.455,0.296-0.612
				c0.198-0.159,0.435-0.27,0.712-0.334c0.278-0.066,0.542-0.099,0.791-0.099v-0.259c0-0.122-0.027-0.24-0.08-0.353
				c-0.054-0.116-0.131-0.21-0.232-0.281c-0.101-0.075-0.212-0.112-0.334-0.112c-0.28,0-0.494,0.063-0.64,0.188
				c0.08,0,0.146,0.031,0.198,0.093c0.053,0.06,0.08,0.13,0.08,0.211c0,0.083-0.03,0.156-0.09,0.215
				c-0.059,0.061-0.131,0.09-0.213,0.09c-0.085,0-0.157-0.03-0.217-0.09c-0.059-0.059-0.089-0.132-0.089-0.215
				c0-0.223,0.101-0.388,0.303-0.495c0.202-0.109,0.425-0.164,0.668-0.164c0.171,0,0.343,0.037,0.517,0.111
				c0.173,0.072,0.314,0.176,0.423,0.312c0.112,0.137,0.167,0.295,0.167,0.477v1.426c0,0.082,0.017,0.159,0.053,0.228
				c0.035,0.068,0.09,0.102,0.164,0.102c0.07,0,0.122-0.035,0.155-0.105c0.035-0.07,0.053-0.145,0.053-0.226V33.32h0.185v0.405
				c0,0.095-0.025,0.185-0.074,0.272c-0.049,0.085-0.116,0.153-0.201,0.204c-0.082,0.049-0.172,0.074-0.269,0.074
				c-0.124,0-0.231-0.047-0.322-0.142c-0.089-0.097-0.138-0.211-0.148-0.343c-0.078,0.158-0.194,0.285-0.346,0.38
				c-0.152,0.092-0.315,0.139-0.488,0.139c-0.161,0-0.32-0.024-0.476-0.071c-0.155-0.047-0.284-0.122-0.389-0.222
				C163.858,33.913,163.807,33.78,163.807,33.617z M164.32,33.617c0,0.148,0.055,0.273,0.164,0.374
				c0.109,0.102,0.238,0.152,0.387,0.152c0.136,0,0.26-0.035,0.371-0.102c0.112-0.068,0.2-0.161,0.266-0.278
				c0.066-0.118,0.099-0.241,0.099-0.372v-0.658c-0.192,0-0.389,0.031-0.591,0.095c-0.2,0.062-0.366,0.16-0.497,0.293
				C164.386,33.256,164.32,33.421,164.32,33.617L164.32,33.617z"/>
			<path id="path199" inkscape:connector-curvature="0" d="M168.296,34.31c-0.256,0-0.488-0.066-0.695-0.198
				c-0.208-0.134-0.372-0.311-0.492-0.531c-0.119-0.223-0.179-0.459-0.179-0.708c0-0.25,0.059-0.489,0.176-0.717
				c0.12-0.229,0.283-0.412,0.492-0.547c0.21-0.139,0.443-0.207,0.698-0.207c0.247,0,0.472,0.048,0.674,0.145
				c0.204,0.097,0.306,0.255,0.306,0.476c0,0.083-0.03,0.155-0.09,0.217c-0.058,0.059-0.128,0.089-0.213,0.089
				c-0.085,0-0.157-0.03-0.217-0.089c-0.058-0.063-0.086-0.134-0.086-0.217c0-0.074,0.023-0.137,0.071-0.191
				c0.047-0.056,0.106-0.09,0.176-0.106c-0.146-0.092-0.352-0.139-0.616-0.139c-0.202,0-0.365,0.068-0.488,0.201
				s-0.21,0.3-0.26,0.497c-0.049,0.198-0.074,0.394-0.074,0.588c0,0.204,0.03,0.402,0.089,0.594c0.062,0.189,0.16,0.347,0.294,0.472
				c0.136,0.124,0.306,0.186,0.51,0.186c0.2,0,0.37-0.061,0.51-0.182c0.14-0.123,0.236-0.285,0.288-0.483
				c0-0.024,0.016-0.036,0.049-0.036h0.077c0.012,0,0.024,0.006,0.034,0.018c0.01,0.01,0.016,0.023,0.016,0.037v0.018
				c-0.064,0.249-0.191,0.447-0.38,0.594S168.554,34.31,168.296,34.31z"/>
			<path id="path201" inkscape:connector-curvature="0" d="M170.172,33.478v-1.747h-0.525v-0.164c0.276,0,0.479-0.129,0.609-0.386
				c0.13-0.258,0.194-0.537,0.194-0.838h0.183v1.166h0.893v0.222h-0.893v1.735c0,0.175,0.029,0.328,0.086,0.46
				c0.06,0.132,0.166,0.198,0.319,0.198c0.144,0,0.248-0.069,0.312-0.207c0.064-0.141,0.096-0.291,0.096-0.452v-0.374h0.182v0.386
				c0,0.132-0.025,0.262-0.074,0.392c-0.047,0.129-0.118,0.233-0.213,0.316c-0.095,0.082-0.21,0.123-0.346,0.123
				c-0.254,0-0.455-0.076-0.603-0.226C170.246,33.931,170.172,33.73,170.172,33.478z"/>
			<path id="path203" inkscape:connector-curvature="0" d="M172.182,34.239v-0.222c0.144,0,0.263-0.012,0.356-0.035
				s0.139-0.078,0.139-0.167v-1.728c0-0.163-0.032-0.264-0.096-0.3c-0.062-0.037-0.186-0.056-0.371-0.056v-0.222l0.912-0.069v2.375
				c0,0.089,0.04,0.144,0.121,0.167s0.188,0.035,0.321,0.035v0.222H172.182z M172.452,30.352c0-0.093,0.035-0.174,0.105-0.245
				c0.07-0.069,0.15-0.105,0.241-0.105c0.06,0,0.118,0.016,0.173,0.046c0.056,0.031,0.099,0.075,0.13,0.13
				c0.031,0.056,0.046,0.113,0.046,0.174c0,0.09-0.035,0.17-0.105,0.241c-0.07,0.069-0.152,0.104-0.244,0.104
				c-0.091,0-0.171-0.035-0.241-0.104C172.486,30.522,172.452,30.443,172.452,30.352z"/>
			<path id="path205" inkscape:connector-curvature="0" d="M175.327,34.31c-0.254,0-0.488-0.064-0.705-0.192
				c-0.216-0.129-0.387-0.303-0.513-0.519c-0.126-0.216-0.188-0.452-0.188-0.708c0-0.194,0.034-0.38,0.102-0.56
				c0.07-0.179,0.169-0.339,0.297-0.479c0.13-0.142,0.28-0.252,0.451-0.33c0.171-0.081,0.357-0.121,0.557-0.121
				c0.26,0,0.496,0.069,0.708,0.207c0.214,0.135,0.383,0.32,0.507,0.55c0.124,0.229,0.186,0.473,0.186,0.733
				c0,0.254-0.063,0.49-0.189,0.708c-0.125,0.216-0.297,0.39-0.513,0.519C175.811,34.245,175.578,34.31,175.327,34.31z
				 M175.327,34.124c0.338,0,0.564-0.122,0.677-0.368c0.113-0.245,0.17-0.557,0.17-0.936c0-0.213-0.011-0.388-0.034-0.526
				c-0.023-0.141-0.072-0.267-0.148-0.38c-0.048-0.07-0.109-0.131-0.183-0.182c-0.072-0.054-0.149-0.094-0.232-0.121
				c-0.08-0.029-0.164-0.043-0.25-0.043c-0.132,0-0.257,0.03-0.377,0.089c-0.117,0.06-0.215,0.146-0.293,0.257
				c-0.079,0.12-0.129,0.252-0.152,0.396c-0.021,0.142-0.031,0.313-0.031,0.511c0,0.236,0.02,0.45,0.062,0.639
				c0.041,0.188,0.124,0.346,0.247,0.474C174.908,34.06,175.09,34.124,175.327,34.124z"/>
			<path id="path207" inkscape:connector-curvature="0" d="M177.098,34.239v-0.222c0.145,0,0.263-0.012,0.356-0.035
				c0.093-0.023,0.139-0.078,0.139-0.167v-1.728c0-0.114-0.018-0.195-0.053-0.245c-0.033-0.052-0.082-0.082-0.145-0.093
				c-0.064-0.012-0.163-0.018-0.297-0.018v-0.222l0.919-0.069v0.619c0.084-0.182,0.209-0.33,0.374-0.446
				c0.167-0.115,0.349-0.173,0.544-0.173c0.293,0,0.512,0.07,0.659,0.21c0.148,0.14,0.223,0.355,0.223,0.643v1.521
				c0,0.089,0.046,0.144,0.139,0.167c0.093,0.023,0.211,0.035,0.356,0.035v0.222h-1.45v-0.222c0.144,0,0.263-0.012,0.356-0.035
				c0.093-0.023,0.139-0.078,0.139-0.167v-1.502c0-0.207-0.03-0.376-0.09-0.507c-0.06-0.135-0.182-0.201-0.368-0.201
				c-0.245,0-0.447,0.097-0.606,0.293c-0.156,0.196-0.235,0.418-0.235,0.669v1.249c0,0.089,0.046,0.144,0.139,0.167
				c0.092,0.023,0.21,0.035,0.352,0.035v0.222H177.098z"/>
		</g>
	</g>
</g>
</svg>
