<?xml version="1.0" encoding="utf-8"?>
<!-- Generator: Adobe Illustrator 16.0.0, SVG Export Plug-In . SVG Version: 6.00 Build 0)  -->
<!DOCTYPE svg PUBLIC "-//W3C//DTD SVG 1.1//EN" "http://www.w3.org/Graphics/SVG/1.1/DTD/svg11.dtd">
<svg version="1.1"
	 id="svg3020" xmlns:dc="http://purl.org/dc/elements/1.1/" xmlns:cc="http://creativecommons.org/ns#" xmlns:rdf="http://www.w3.org/1999/02/22-rdf-syntax-ns#" xmlns:svg="http://www.w3.org/2000/svg" xmlns:inkscape="http://www.inkscape.org/namespaces/inkscape"
	 xmlns="http://www.w3.org/2000/svg" xmlns:xlink="http://www.w3.org/1999/xlink" x="0px" y="0px" width="575px" height="60px"
	 viewBox="0 0 320 60" enable-background="new 0 0 320 60" xml:space="preserve">
<g id="text3030" transform="scale(0.95814898,1.043679)">
</g>
<g id="g3009" transform="matrix(1.4688253,0,0,1.4688253,-277.70507,-0.75165246)">
	<g id="flowRoot3055" transform="matrix(0.68081616,0,0,0.68081616,189.0661,0.51173714)">
	</g>
	<g id="flowRoot3063" transform="matrix(0.68081616,0,0,0.68081616,189.0661,0.51173714)">
	</g>
	<path id="path3142-1" inkscape:connector-curvature="0" fill="none" stroke="#000000" stroke-width="0.9808" d="M242.336,22.978
		h142.581"/>
	<g id="g3223" transform="matrix(1.0293023,0,0,1.0293023,-1.8275946,4.0479541)">
		<g id="text3225">
			<path id="path51" inkscape:connector-curvature="0" d="M211.525,24.009c-0.876,0-1.664-0.231-2.365-0.694
				c-0.696-0.468-1.242-1.085-1.637-1.853c-0.395-0.773-0.593-1.583-0.593-2.433c0-0.629,0.112-1.251,0.337-1.866
				c0.229-0.616,0.546-1.161,0.95-1.638c0.409-0.476,0.898-0.854,1.469-1.132c0.571-0.278,1.184-0.418,1.84-0.418
				c0.651,0,1.262,0.141,1.833,0.424c0.575,0.278,1.067,0.658,1.476,1.139c0.409,0.481,0.723,1.02,0.943,1.617
				c0.22,0.598,0.33,1.222,0.33,1.873c0,0.634-0.112,1.251-0.337,1.853c-0.22,0.602-0.544,1.141-0.97,1.617
				c-0.422,0.476-0.917,0.846-1.482,1.112c0.175,0.409,0.355,0.725,0.539,0.95c0.184,0.229,0.44,0.344,0.768,0.344
				c0.346,0,0.642-0.119,0.889-0.357c0.247-0.238,0.371-0.528,0.371-0.869c0-0.032,0.016-0.06,0.047-0.087
				c0.036-0.027,0.07-0.041,0.101-0.041c0.103,0,0.155,0.061,0.155,0.182c0,0.661-0.13,1.267-0.391,1.82
				c-0.256,0.552-0.678,0.829-1.267,0.829c-0.323,0-0.591-0.081-0.802-0.242c-0.211-0.157-0.373-0.36-0.485-0.607
				c-0.108-0.243-0.193-0.526-0.256-0.849c-0.063-0.324-0.119-0.618-0.169-0.883C212.414,23.939,211.983,24.009,211.525,24.009z
				 M211.525,23.612c0.413,0,0.813-0.105,1.199-0.317c-0.085-0.395-0.218-0.709-0.398-0.943c-0.175-0.238-0.442-0.357-0.802-0.357
				c-0.22,0-0.407,0.083-0.559,0.249c-0.152,0.162-0.229,0.351-0.229,0.566c0,0.233,0.072,0.426,0.216,0.579
				C211.1,23.537,211.291,23.612,211.525,23.612z M210.379,22.81c0-0.203,0.049-0.393,0.148-0.573
				c0.099-0.18,0.236-0.324,0.411-0.431c0.18-0.112,0.375-0.169,0.586-0.169c0.4,0,0.717,0.13,0.95,0.391
				c0.234,0.256,0.44,0.604,0.62,1.044c0.306-0.229,0.562-0.499,0.768-0.809c0.207-0.314,0.366-0.642,0.478-0.983
				c0.117-0.346,0.2-0.711,0.249-1.092c0.054-0.386,0.081-0.773,0.081-1.159c0-0.638-0.065-1.238-0.195-1.799
				c-0.126-0.562-0.341-1.067-0.647-1.516c-0.265-0.4-0.602-0.721-1.011-0.964c-0.409-0.247-0.84-0.371-1.294-0.371
				c-0.462,0-0.898,0.121-1.307,0.364c-0.404,0.238-0.741,0.562-1.011,0.971c-0.314,0.458-0.535,0.968-0.66,1.53
				c-0.121,0.561-0.182,1.157-0.182,1.785c0,0.98,0.166,1.871,0.499,2.675c0.332,0.8,0.887,1.366,1.664,1.699
				C210.429,23.215,210.379,23.017,210.379,22.81z"/>
		</g>
		<g id="text3227">
			<path id="path54" inkscape:connector-curvature="0" d="M230.62,18.437h-7.991v-1.078h7.991V18.437z M230.62,21.266h-7.991v-1.077
				h7.991V21.266z"/>
		</g>
		<g id="text3229">
			<path id="path57" inkscape:connector-curvature="0" d="M236.784,10.926v-0.485l4.265-6.361c0.031-0.045,0.078-0.067,0.141-0.067
				h0.202c0.103,0,0.155,0.051,0.155,0.155v6.274h1.354v0.485h-1.354v1.354c0,0.189,0.135,0.31,0.404,0.364
				c0.27,0.049,0.582,0.074,0.937,0.074v0.485h-3.8v-0.485c0.355,0,0.667-0.025,0.937-0.074c0.27-0.054,0.404-0.175,0.404-0.364
				v-1.354H236.784z M237.242,10.441h3.268V5.555L237.242,10.441z"/>
			<path id="path59" inkscape:connector-curvature="0" d="M246.75,13.507c-1.127,0-1.895-0.463-2.304-1.388
				c-0.404-0.93-0.607-2.035-0.607-3.315c0-0.8,0.072-1.552,0.216-2.258c0.148-0.705,0.438-1.303,0.869-1.792
				c0.436-0.494,1.044-0.741,1.826-0.741c0.607,0,1.103,0.148,1.489,0.445c0.387,0.296,0.68,0.68,0.883,1.152
				c0.202,0.467,0.339,0.971,0.411,1.51c0.077,0.535,0.115,1.096,0.115,1.685c0,0.791-0.074,1.532-0.223,2.224
				c-0.144,0.687-0.429,1.273-0.856,1.759C248.143,13.267,247.536,13.507,246.75,13.507z M246.75,13.15
				c0.512,0,0.894-0.263,1.146-0.788c0.252-0.526,0.407-1.107,0.465-1.745c0.058-0.638,0.088-1.316,0.088-2.035
				c0-0.692-0.029-1.33-0.088-1.914c-0.058-0.584-0.213-1.112-0.465-1.583c-0.247-0.476-0.629-0.714-1.146-0.714
				c-0.521,0-0.907,0.238-1.159,0.714c-0.252,0.476-0.407,1.006-0.465,1.59c-0.058,0.579-0.088,1.215-0.088,1.907
				c0,0.512,0.011,0.995,0.034,1.449c0.027,0.454,0.094,0.923,0.202,1.408c0.108,0.481,0.281,0.888,0.519,1.22
				C246.036,12.986,246.355,13.15,246.75,13.15z"/>
			<path id="path61" inkscape:connector-curvature="0" d="M251.514,12.139c0.216,0.315,0.505,0.548,0.869,0.701
				c0.364,0.153,0.755,0.229,1.173,0.229c0.534,0,0.914-0.227,1.139-0.681c0.224-0.458,0.337-0.977,0.337-1.556
				c0-0.261-0.025-0.521-0.074-0.782c-0.045-0.26-0.123-0.503-0.236-0.728c-0.112-0.224-0.267-0.404-0.465-0.539
				c-0.193-0.135-0.431-0.202-0.714-0.202h-0.916c-0.081,0-0.121-0.043-0.121-0.128V8.332c0-0.072,0.04-0.108,0.121-0.108
				l0.761-0.06c0.324,0,0.591-0.121,0.802-0.364c0.216-0.243,0.373-0.537,0.472-0.883c0.099-0.35,0.149-0.683,0.149-0.997
				c0-0.44-0.103-0.802-0.31-1.085c-0.207-0.283-0.521-0.424-0.943-0.424c-0.35,0-0.685,0.067-1.004,0.202
				c-0.319,0.13-0.573,0.33-0.761,0.599c0.018-0.005,0.034-0.006,0.047-0.006c0.013-0.005,0.029-0.007,0.047-0.007
				c0.207,0,0.379,0.072,0.519,0.215c0.139,0.144,0.209,0.317,0.209,0.519c0,0.198-0.07,0.368-0.209,0.512
				c-0.139,0.144-0.312,0.216-0.519,0.216c-0.202,0-0.375-0.072-0.519-0.216c-0.144-0.144-0.215-0.314-0.215-0.512
				c0-0.395,0.119-0.739,0.357-1.031c0.238-0.292,0.544-0.512,0.917-0.66c0.377-0.153,0.755-0.229,1.132-0.229
				c0.278,0,0.573,0.043,0.883,0.128c0.31,0.081,0.591,0.2,0.842,0.357c0.252,0.153,0.456,0.35,0.613,0.593
				c0.161,0.243,0.243,0.519,0.243,0.829c0,0.386-0.088,0.743-0.263,1.071c-0.171,0.328-0.407,0.611-0.708,0.849
				c-0.301,0.238-0.631,0.416-0.991,0.532c0.4,0.077,0.78,0.227,1.139,0.452c0.359,0.225,0.647,0.512,0.863,0.863
				c0.22,0.35,0.33,0.728,0.33,1.132c0,0.508-0.139,0.968-0.418,1.381c-0.279,0.409-0.645,0.73-1.098,0.964
				c-0.454,0.229-0.932,0.344-1.435,0.344c-0.431,0-0.865-0.083-1.301-0.249c-0.431-0.162-0.786-0.407-1.064-0.734
				c-0.274-0.328-0.411-0.721-0.411-1.179c0-0.229,0.077-0.42,0.229-0.573c0.153-0.153,0.344-0.229,0.573-0.229
				c0.148,0,0.283,0.036,0.404,0.108c0.126,0.068,0.222,0.164,0.29,0.29c0.072,0.126,0.108,0.261,0.108,0.404
				c0,0.225-0.079,0.413-0.236,0.566c-0.157,0.153-0.346,0.229-0.566,0.229H251.514z"/>
		</g>
		<g id="text3231">
			<path id="path64" inkscape:connector-curvature="0" d="M263.65,7.516c-0.103,0-0.198-0.043-0.283-0.128
				c-0.081-0.09-0.121-0.189-0.121-0.296c0-0.153,0.065-0.263,0.195-0.33l1.988-0.943l-1.988-0.923
				c-0.13-0.068-0.195-0.178-0.195-0.33c0-0.117,0.04-0.218,0.121-0.303c0.081-0.085,0.175-0.128,0.283-0.128
				c0.072,0,0.14,0.025,0.202,0.074l1.752,1.28l-0.202-2.237l-0.014-0.027c0-0.103,0.04-0.191,0.121-0.263
				c0.085-0.072,0.182-0.108,0.29-0.108c0.099,0,0.189,0.034,0.269,0.101c0.086,0.068,0.128,0.157,0.128,0.27v0.027l-0.216,2.237
				l1.752-1.28c0.063-0.049,0.13-0.074,0.202-0.074c0.112,0,0.207,0.043,0.283,0.128c0.081,0.086,0.121,0.187,0.121,0.303
				c0,0.153-0.065,0.263-0.195,0.33l-1.988,0.923l1.988,0.943c0.13,0.068,0.195,0.177,0.195,0.33c0,0.108-0.041,0.207-0.121,0.296
				c-0.076,0.086-0.171,0.128-0.283,0.128c-0.077,0-0.144-0.023-0.202-0.067l-1.752-1.28l0.216,2.23v0.027
				c0,0.108-0.043,0.198-0.128,0.27c-0.081,0.072-0.171,0.108-0.269,0.108c-0.108,0-0.204-0.036-0.29-0.108
				c-0.081-0.077-0.121-0.166-0.121-0.27l0.014-0.027l0.202-2.23l-1.752,1.28C263.799,7.494,263.732,7.516,263.65,7.516z"/>
		</g>
		<g id="text3233">
			<path id="path67" inkscape:connector-curvature="0" d="M272.875,13.399v-3.221c0-0.072,0.04-0.108,0.121-0.108h0.169
				c0.027,0,0.052,0.011,0.074,0.034c0.022,0.023,0.034,0.047,0.034,0.074c0,0.903,0.278,1.604,0.836,2.102
				c0.562,0.494,1.296,0.741,2.203,0.741c0.319,0,0.613-0.092,0.883-0.276c0.269-0.184,0.478-0.424,0.627-0.721
				c0.153-0.301,0.229-0.611,0.229-0.93c0-0.278-0.056-0.548-0.168-0.808c-0.112-0.265-0.274-0.494-0.485-0.687
				c-0.211-0.193-0.449-0.321-0.714-0.384l-1.792-0.438c-0.593-0.157-1.078-0.478-1.456-0.963c-0.373-0.49-0.559-1.038-0.559-1.644
				c0-0.476,0.121-0.923,0.364-1.341c0.243-0.418,0.568-0.748,0.977-0.991c0.413-0.243,0.858-0.364,1.334-0.364
				c0.921,0,1.653,0.312,2.197,0.937l0.566-0.896c0.027-0.027,0.058-0.04,0.094-0.04h0.094c0.027,0,0.052,0.011,0.074,0.034
				c0.027,0.018,0.04,0.045,0.04,0.081v3.201c0,0.081-0.038,0.121-0.114,0.121h-0.162c-0.085,0-0.128-0.04-0.128-0.121
				c0-0.233-0.04-0.49-0.121-0.768c-0.077-0.278-0.184-0.546-0.323-0.802c-0.14-0.256-0.29-0.465-0.452-0.627
				c-0.445-0.449-1.033-0.674-1.766-0.674c-0.314,0-0.604,0.081-0.869,0.243c-0.265,0.157-0.476,0.373-0.633,0.647
				c-0.157,0.274-0.236,0.562-0.236,0.863c0,0.395,0.121,0.755,0.364,1.078c0.247,0.319,0.568,0.53,0.964,0.633l1.792,0.438
				c0.296,0.072,0.575,0.202,0.836,0.391c0.265,0.184,0.485,0.4,0.66,0.647c0.175,0.247,0.312,0.523,0.411,0.829
				c0.099,0.301,0.148,0.613,0.148,0.937c0,0.499-0.115,0.97-0.344,1.415c-0.229,0.44-0.553,0.795-0.97,1.065
				c-0.413,0.269-0.867,0.404-1.361,0.404c-0.306,0-0.618-0.034-0.937-0.101c-0.319-0.068-0.613-0.171-0.883-0.31
				c-0.27-0.139-0.514-0.319-0.734-0.539l-0.58,0.909c-0.027,0.027-0.06,0.041-0.101,0.041h-0.081
				C272.915,13.507,272.875,13.471,272.875,13.399z"/>
			<path id="path69" inkscape:connector-curvature="0" d="M282.929,11.728c0.332,0.404,0.737,0.721,1.213,0.95
				c0.481,0.229,0.982,0.344,1.503,0.344c0.512,0,0.977-0.13,1.395-0.391c0.418-0.26,0.627-0.631,0.627-1.112V10.36
				c0-0.292-0.575-0.438-1.725-0.438V9.437h3.955v0.485c-0.292,0-0.524,0.025-0.694,0.074c-0.171,0.049-0.256,0.171-0.256,0.364
				v2.722c0,0.031-0.014,0.061-0.04,0.088c-0.023,0.023-0.049,0.034-0.081,0.034c-0.085,0-0.229-0.101-0.431-0.303
				c-0.198-0.202-0.355-0.382-0.472-0.539c-0.225,0.386-0.577,0.674-1.058,0.862c-0.481,0.189-0.984,0.283-1.509,0.283
				c-0.894,0-1.709-0.229-2.446-0.687c-0.732-0.463-1.312-1.078-1.739-1.846c-0.427-0.773-0.64-1.602-0.64-2.487
				c0-0.651,0.123-1.285,0.371-1.9c0.247-0.615,0.591-1.157,1.031-1.624c0.445-0.467,0.961-0.831,1.55-1.092
				c0.588-0.265,1.213-0.397,1.873-0.397c0.476,0,0.926,0.103,1.348,0.31c0.427,0.202,0.806,0.49,1.139,0.863l0.802-1.132
				c0.054-0.027,0.085-0.04,0.094-0.04h0.101c0.027,0,0.052,0.011,0.074,0.034c0.023,0.022,0.034,0.049,0.034,0.081v3.726
				c0,0.081-0.036,0.121-0.108,0.121h-0.249c-0.086,0-0.128-0.04-0.128-0.121c0-0.265-0.054-0.562-0.161-0.889
				c-0.103-0.328-0.238-0.638-0.404-0.93c-0.162-0.296-0.35-0.557-0.566-0.782c-0.516-0.503-1.109-0.754-1.779-0.754
				c-0.512,0-1.002,0.114-1.469,0.344c-0.467,0.229-0.86,0.546-1.179,0.95c-0.337,0.431-0.571,0.923-0.701,1.476
				c-0.13,0.548-0.195,1.134-0.195,1.759C282.005,9.897,282.313,10.978,282.929,11.728z"/>
		</g>
		<g id="text3235">
			<path id="path72" inkscape:connector-curvature="0" d="M292.901,7.516c-0.103,0-0.198-0.043-0.283-0.128
				c-0.081-0.09-0.121-0.189-0.121-0.296c0-0.153,0.065-0.263,0.196-0.33l1.988-0.943l-1.988-0.923
				c-0.13-0.068-0.196-0.178-0.196-0.33c0-0.117,0.041-0.218,0.121-0.303c0.081-0.085,0.175-0.128,0.283-0.128
				c0.072,0,0.139,0.025,0.202,0.074l1.752,1.28l-0.202-2.237l-0.014-0.027c0-0.103,0.041-0.191,0.121-0.263
				c0.085-0.072,0.182-0.108,0.29-0.108c0.099,0,0.189,0.034,0.269,0.101c0.085,0.068,0.128,0.157,0.128,0.27v0.027l-0.216,2.237
				l1.752-1.28c0.063-0.049,0.13-0.074,0.202-0.074c0.112,0,0.207,0.043,0.283,0.128c0.081,0.086,0.121,0.187,0.121,0.303
				c0,0.153-0.065,0.263-0.196,0.33l-1.988,0.923l1.988,0.943c0.13,0.068,0.196,0.177,0.196,0.33c0,0.108-0.041,0.207-0.121,0.296
				c-0.076,0.086-0.171,0.128-0.283,0.128c-0.076,0-0.144-0.023-0.202-0.067l-1.752-1.28l0.216,2.23v0.027
				c0,0.108-0.043,0.198-0.128,0.27c-0.081,0.072-0.171,0.108-0.269,0.108c-0.108,0-0.205-0.036-0.29-0.108
				c-0.081-0.077-0.121-0.166-0.121-0.27l0.014-0.027l0.202-2.23l-1.752,1.28C293.048,7.494,292.981,7.516,292.901,7.516z"/>
		</g>
		<g id="text3237">
			<path id="path75" inkscape:connector-curvature="0" d="M301.775,13.204v-0.485c0.948,0,1.421-0.146,1.421-0.438V4.7
				c0-0.292-0.473-0.438-1.421-0.438V3.776h7.803l0.384,3.161h-0.398c-0.098-0.795-0.238-1.373-0.417-1.732
				c-0.176-0.359-0.459-0.607-0.849-0.742c-0.391-0.135-0.977-0.202-1.759-0.202h-1.355c-0.167,0-0.296,0.007-0.391,0.02
				c-0.09,0.014-0.164,0.054-0.223,0.121c-0.058,0.063-0.087,0.161-0.087,0.296v3.369h1.017c0.468,0,0.815-0.038,1.044-0.114
				c0.234-0.081,0.393-0.231,0.479-0.452c0.09-0.225,0.134-0.573,0.134-1.044h0.404v3.706h-0.404c0-0.467-0.045-0.813-0.134-1.038
				c-0.085-0.224-0.245-0.375-0.479-0.452c-0.229-0.081-0.577-0.121-1.044-0.121h-1.017v3.726c0,0.198,0.056,0.321,0.169,0.371
				c0.112,0.045,0.289,0.067,0.532,0.067h1.462c0.638,0,1.152-0.049,1.543-0.148c0.395-0.103,0.701-0.272,0.917-0.505
				c0.22-0.238,0.388-0.544,0.505-0.917c0.121-0.377,0.234-0.898,0.337-1.563h0.397l-0.579,3.619H301.775z"/>
			<path id="path77" inkscape:connector-curvature="0" d="M311.188,13.204v-0.485c0.948,0,1.422-0.146,1.422-0.438V4.7
				c0-0.292-0.474-0.438-1.422-0.438V3.776h4.332c0.517,0,1.058,0.094,1.624,0.283c0.571,0.184,1.047,0.467,1.429,0.849
				c0.382,0.382,0.573,0.838,0.573,1.368c0,0.386-0.117,0.732-0.351,1.038c-0.229,0.301-0.526,0.555-0.889,0.761
				c-0.359,0.202-0.728,0.348-1.105,0.438c0.413,0.144,0.775,0.373,1.085,0.687c0.31,0.314,0.496,0.674,0.559,1.078l0.195,1.226
				c0.09,0.553,0.185,0.966,0.283,1.24c0.099,0.269,0.317,0.404,0.654,0.404c0.288,0,0.501-0.132,0.641-0.398
				c0.143-0.27,0.215-0.562,0.215-0.876c0-0.031,0.014-0.058,0.041-0.081c0.031-0.027,0.063-0.04,0.094-0.04h0.128
				c0.09,0,0.134,0.061,0.134,0.182c0,0.252-0.049,0.499-0.148,0.741c-0.099,0.238-0.242,0.436-0.431,0.593
				c-0.185,0.157-0.404,0.236-0.661,0.236c-0.665,0-1.238-0.164-1.718-0.492c-0.476-0.332-0.714-0.817-0.714-1.455v-1.226
				c0-0.458-0.16-0.851-0.479-1.179c-0.319-0.328-0.709-0.492-1.172-0.492h-1.658v3.618c0,0.292,0.474,0.438,1.422,0.438v0.485
				H311.188z M313.85,8.305h1.475c0.764,0,1.345-0.153,1.745-0.458c0.399-0.31,0.599-0.833,0.599-1.57
				c0-0.732-0.198-1.251-0.593-1.557c-0.395-0.305-0.979-0.458-1.752-0.458h-0.775c-0.166,0-0.296,0.007-0.391,0.02
				c-0.09,0.014-0.163,0.054-0.222,0.121c-0.059,0.063-0.087,0.161-0.087,0.296V8.305z"/>
		</g>
		<g id="text3239">
			<path id="path80" inkscape:connector-curvature="0" d="M323.5,7.516c-0.103,0-0.198-0.043-0.283-0.128
				c-0.081-0.09-0.121-0.189-0.121-0.296c0-0.153,0.066-0.263,0.196-0.33l1.988-0.943l-1.988-0.923
				c-0.13-0.068-0.196-0.178-0.196-0.33c0-0.117,0.041-0.218,0.121-0.303c0.081-0.085,0.176-0.128,0.283-0.128
				c0.072,0,0.14,0.025,0.203,0.074l1.752,1.28l-0.202-2.237l-0.014-0.027c0-0.103,0.04-0.191,0.121-0.263
				c0.085-0.072,0.182-0.108,0.289-0.108c0.099,0,0.189,0.034,0.27,0.101c0.085,0.068,0.128,0.157,0.128,0.27v0.027l-0.216,2.237
				l1.752-1.28c0.063-0.049,0.13-0.074,0.202-0.074c0.112,0,0.207,0.043,0.284,0.128c0.08,0.086,0.121,0.187,0.121,0.303
				c0,0.153-0.065,0.263-0.196,0.33l-1.988,0.923l1.988,0.943c0.13,0.068,0.196,0.177,0.196,0.33c0,0.108-0.041,0.207-0.121,0.296
				c-0.077,0.086-0.171,0.128-0.284,0.128c-0.076,0-0.144-0.023-0.202-0.067l-1.752-1.28l0.216,2.23v0.027
				c0,0.108-0.043,0.198-0.128,0.27c-0.081,0.072-0.171,0.108-0.27,0.108c-0.107,0-0.204-0.036-0.289-0.108
				c-0.081-0.077-0.121-0.166-0.121-0.27l0.014-0.027l0.202-2.23l-1.752,1.28C323.649,7.494,323.582,7.516,323.5,7.516z"/>
		</g>
		<g id="text3241">
			<path id="path83" inkscape:connector-curvature="0" d="M332.224,13.204v-0.485c0.948,0,1.422-0.146,1.422-0.438V4.7
				c0-0.292-0.474-0.438-1.422-0.438V3.776h4.131v0.485c-0.948,0-1.422,0.146-1.422,0.438v4.474l4.266-4.097
				c0.116-0.126,0.175-0.252,0.175-0.377c0-0.144-0.063-0.252-0.189-0.324c-0.121-0.076-0.26-0.115-0.417-0.115V3.776h2.998v0.485
				c-0.754,0-1.417,0.272-1.988,0.815l-2.445,2.345l3.026,4.481c0.247,0.364,0.462,0.591,0.647,0.68
				c0.189,0.09,0.505,0.135,0.95,0.135v0.485h-3.612v-0.485c0.221,0,0.404-0.022,0.553-0.067c0.152-0.045,0.229-0.15,0.229-0.317
				c0-0.112-0.059-0.256-0.175-0.431l-2.473-3.666l-1.543,1.489v2.554c0,0.292,0.474,0.438,1.422,0.438v0.485H332.224z"/>
		</g>
		<g id="text3243">
			<path id="path86" inkscape:connector-curvature="0" d="M346.151,7.516c-0.103,0-0.198-0.043-0.283-0.128
				c-0.081-0.09-0.121-0.189-0.121-0.296c0-0.153,0.065-0.263,0.195-0.33l1.988-0.943l-1.988-0.923
				c-0.13-0.068-0.195-0.178-0.195-0.33c0-0.117,0.041-0.218,0.121-0.303c0.081-0.085,0.175-0.128,0.283-0.128
				c0.072,0,0.14,0.025,0.202,0.074l1.752,1.28l-0.203-2.237l-0.013-0.027c0-0.103,0.04-0.191,0.121-0.263
				c0.086-0.072,0.182-0.108,0.29-0.108c0.099,0,0.189,0.034,0.269,0.101c0.086,0.068,0.129,0.157,0.129,0.27v0.027l-0.216,2.237
				l1.752-1.28c0.063-0.049,0.13-0.074,0.202-0.074c0.112,0,0.206,0.043,0.283,0.128c0.081,0.086,0.121,0.187,0.121,0.303
				c0,0.153-0.065,0.263-0.195,0.33l-1.988,0.923l1.988,0.943c0.13,0.068,0.195,0.177,0.195,0.33c0,0.108-0.04,0.207-0.121,0.296
				c-0.077,0.086-0.171,0.128-0.283,0.128c-0.077,0-0.144-0.023-0.202-0.067l-1.752-1.28l0.216,2.23v0.027
				c0,0.108-0.043,0.198-0.129,0.27c-0.081,0.072-0.171,0.108-0.269,0.108c-0.108,0-0.204-0.036-0.29-0.108
				c-0.081-0.077-0.121-0.166-0.121-0.27l0.013-0.027l0.203-2.23l-1.752,1.28C346.299,7.494,346.232,7.516,346.151,7.516z"/>
		</g>
		<g id="text3245">
			<path id="path89" inkscape:connector-curvature="0" d="M355.881,13.204v-0.485c1.15,0,1.725-0.146,1.725-0.438V5.037
				c-0.477,0.229-1.078,0.344-1.806,0.344V4.895c1.128,0,1.979-0.294,2.554-0.883h0.195c0.032,0,0.061,0.013,0.088,0.04
				c0.031,0.022,0.047,0.049,0.047,0.081v8.146c0,0.292,0.575,0.438,1.725,0.438v0.485H355.881z"/>
			<path id="path91" inkscape:connector-curvature="0" d="M364.95,13.507c-1.127,0-1.895-0.463-2.304-1.388
				c-0.404-0.93-0.607-2.035-0.607-3.315c0-0.8,0.072-1.552,0.216-2.258c0.149-0.705,0.438-1.303,0.869-1.792
				c0.435-0.494,1.044-0.741,1.825-0.741c0.607,0,1.103,0.148,1.49,0.445s0.681,0.68,0.882,1.152c0.203,0.467,0.34,0.971,0.411,1.51
				c0.076,0.535,0.114,1.096,0.114,1.685c0,0.791-0.074,1.532-0.222,2.224c-0.143,0.687-0.429,1.273-0.856,1.759
				C366.342,13.267,365.736,13.507,364.95,13.507z M364.95,13.15c0.513,0,0.894-0.263,1.146-0.788
				c0.252-0.526,0.407-1.107,0.465-1.745c0.058-0.638,0.088-1.316,0.088-2.035c0-0.692-0.03-1.33-0.088-1.914
				c-0.058-0.584-0.213-1.112-0.465-1.583c-0.247-0.476-0.629-0.714-1.146-0.714c-0.521,0-0.907,0.238-1.159,0.714
				c-0.251,0.476-0.406,1.006-0.465,1.59c-0.058,0.579-0.087,1.215-0.087,1.907c0,0.512,0.011,0.995,0.034,1.449
				c0.026,0.454,0.094,0.923,0.202,1.408c0.108,0.481,0.28,0.888,0.519,1.22C364.236,12.986,364.554,13.15,364.95,13.15z"/>
		</g>
		<g id="text3247">
			<path id="path94" inkscape:connector-curvature="0" d="M372.413,8.323c-0.416,0-0.762-0.11-1.041-0.329
				c-0.278-0.222-0.494-0.509-0.648-0.859c-0.151-0.353-0.255-0.723-0.314-1.109c-0.059-0.386-0.088-0.777-0.088-1.173
				c0-0.53,0.103-1.062,0.309-1.595c0.206-0.533,0.509-0.975,0.908-1.325c0.402-0.35,0.878-0.525,1.428-0.525
				c0.229,0,0.442,0.044,0.638,0.132c0.199,0.085,0.355,0.213,0.466,0.383c0.114,0.167,0.172,0.37,0.172,0.608
				c0,0.138-0.048,0.254-0.143,0.348c-0.091,0.092-0.206,0.137-0.343,0.137c-0.132,0-0.244-0.047-0.339-0.142
				c-0.095-0.095-0.142-0.209-0.142-0.344c0-0.131,0.047-0.243,0.142-0.338c0.095-0.095,0.207-0.142,0.339-0.142h0.054
				c-0.085-0.121-0.206-0.209-0.364-0.265c-0.154-0.059-0.314-0.088-0.481-0.088c-0.203,0-0.391,0.044-0.565,0.133
				c-0.17,0.088-0.324,0.208-0.461,0.358c-0.137,0.15-0.252,0.317-0.344,0.5c-0.091,0.18-0.163,0.386-0.216,0.618
				c-0.049,0.232-0.08,0.45-0.093,0.653s-0.019,0.458-0.019,0.765c0.118-0.275,0.284-0.499,0.5-0.672
				c0.216-0.176,0.46-0.265,0.731-0.265c0.298,0,0.57,0.06,0.815,0.182c0.245,0.121,0.456,0.29,0.633,0.505
				c0.176,0.213,0.311,0.456,0.402,0.731c0.096,0.275,0.143,0.553,0.143,0.834c0,0.393-0.089,0.767-0.265,1.124
				c-0.174,0.353-0.419,0.635-0.736,0.844C373.175,8.218,372.815,8.323,372.413,8.323z M372.413,8.004
				c0.258,0,0.466-0.059,0.623-0.177c0.158-0.118,0.272-0.273,0.344-0.466c0.075-0.196,0.121-0.392,0.138-0.589
				c0.02-0.2,0.029-0.443,0.029-0.731c0-0.379-0.018-0.703-0.054-0.971c-0.036-0.268-0.134-0.504-0.295-0.707
				c-0.16-0.206-0.406-0.309-0.736-0.309c-0.272,0-0.496,0.092-0.673,0.275c-0.173,0.183-0.301,0.416-0.382,0.697
				c-0.079,0.278-0.118,0.546-0.118,0.805c0,0.088,0.003,0.155,0.01,0.201c0.001,0.01-0.002,0.018-0.005,0.025
				c0,0.006-0.002,0.015-0.005,0.025c0,0.288,0.03,0.579,0.088,0.873c0.059,0.295,0.172,0.543,0.338,0.746
				C371.883,7.903,372.114,8.004,372.413,8.004z"/>
		</g>
		<g id="text3249">
			<path id="path97" inkscape:connector-curvature="0" d="M283.385,33.008v-0.485c0.948,0,1.422-0.272,1.422-0.815v-7.203
				c0-0.292-0.474-0.438-1.422-0.438v-0.485h2.608c0.112,0,0.186,0.052,0.223,0.155l3.005,7.809l3.005-7.809
				c0.036-0.103,0.11-0.155,0.223-0.155h2.608v0.485c-0.948,0-1.422,0.146-1.422,0.438v7.581c0,0.292,0.473,0.438,1.422,0.438v0.485
				h-4.016v-0.485c0.948,0,1.422-0.146,1.422-0.438v-8.032l-3.396,8.8c-0.04,0.103-0.117,0.155-0.229,0.155
				c-0.117,0-0.195-0.052-0.236-0.155l-3.356-8.692v7.547c0,0.543,0.474,0.815,1.422,0.815v0.485H283.385z"/>
			<path id="path99" inkscape:connector-curvature="0" d="M299.833,33.163l-2.816-8.659c-0.072-0.193-0.211-0.315-0.418-0.364
				s-0.476-0.074-0.809-0.074v-0.485h3.699v0.485c-0.773,0-1.159,0.123-1.159,0.371v0.067l2.203,6.792l1.88-5.808l-0.317-0.984
				c-0.072-0.193-0.211-0.315-0.418-0.364c-0.207-0.049-0.476-0.074-0.809-0.074v-0.485h3.693v0.485
				c-0.782,0-1.173,0.123-1.173,0.371c0,0.014,0.005,0.034,0.014,0.061c0.009,0.026,0.014,0.045,0.014,0.054l2.196,6.745l2.07-6.414
				c0.008-0.027,0.013-0.07,0.013-0.129c0-0.242-0.128-0.418-0.384-0.525c-0.256-0.109-0.523-0.162-0.802-0.162v-0.485h2.952v0.485
				c-0.729,0-1.178,0.272-1.348,0.816l-2.695,8.281c-0.031,0.099-0.099,0.149-0.202,0.149h-0.101c-0.103,0-0.171-0.05-0.202-0.149
				l-2.278-7.028l-2.291,7.028c-0.032,0.099-0.101,0.149-0.209,0.149h-0.094C299.934,33.312,299.865,33.262,299.833,33.163z"/>
		</g>
		<g id="text3251">
			<path id="path102" inkscape:connector-curvature="0" d="M312.55,27.321c-0.103,0-0.198-0.043-0.283-0.128
				c-0.081-0.09-0.121-0.189-0.121-0.297c0-0.152,0.065-0.262,0.196-0.329l1.988-0.944l-1.988-0.923
				c-0.13-0.067-0.196-0.178-0.196-0.331c0-0.116,0.041-0.217,0.121-0.303c0.081-0.085,0.176-0.128,0.283-0.128
				c0.072,0,0.14,0.025,0.202,0.074l1.752,1.28l-0.203-2.238l-0.013-0.027c0-0.103,0.04-0.191,0.121-0.262
				c0.085-0.072,0.181-0.108,0.289-0.108c0.099,0,0.189,0.034,0.269,0.101c0.086,0.067,0.129,0.157,0.129,0.269v0.027l-0.216,2.238
				l1.752-1.28c0.063-0.05,0.13-0.074,0.202-0.074c0.112,0,0.207,0.043,0.283,0.128c0.081,0.086,0.121,0.187,0.121,0.303
				c0,0.153-0.065,0.264-0.195,0.331l-1.988,0.923l1.988,0.944c0.13,0.067,0.195,0.177,0.195,0.329c0,0.109-0.04,0.207-0.121,0.297
				c-0.077,0.085-0.171,0.128-0.283,0.128c-0.077,0-0.144-0.023-0.202-0.067l-1.752-1.28l0.216,2.23v0.027
				c0,0.108-0.043,0.198-0.129,0.27c-0.081,0.071-0.171,0.107-0.269,0.107c-0.108,0-0.204-0.036-0.289-0.107
				c-0.081-0.077-0.121-0.167-0.121-0.27l0.013-0.027l0.203-2.23l-1.752,1.28C312.699,27.299,312.632,27.321,312.55,27.321z"/>
		</g>
		<g id="text3253">
			<path id="path105" inkscape:connector-curvature="0" d="M324.147,31.533c0.315,0.399,0.707,0.716,1.179,0.95
				c0.472,0.229,0.962,0.344,1.469,0.344c0.427,0,0.822-0.083,1.186-0.249c0.364-0.171,0.68-0.406,0.95-0.707
				c0.274-0.301,0.483-0.643,0.627-1.024c0.149-0.382,0.222-0.784,0.222-1.207c0-0.072,0.04-0.107,0.121-0.107h0.168
				c0.072,0,0.109,0.045,0.109,0.134c0,0.481-0.092,0.946-0.276,1.395c-0.185,0.444-0.444,0.837-0.782,1.179
				c-0.337,0.337-0.726,0.6-1.166,0.789c-0.436,0.189-0.892,0.283-1.367,0.283c-0.661,0-1.287-0.133-1.88-0.398
				c-0.588-0.269-1.103-0.636-1.543-1.098c-0.435-0.468-0.777-1.006-1.024-1.617c-0.243-0.611-0.364-1.247-0.364-1.907
				s0.121-1.296,0.364-1.907c0.247-0.611,0.589-1.15,1.024-1.617c0.441-0.467,0.955-0.831,1.543-1.092
				c0.593-0.265,1.22-0.398,1.88-0.398c0.472,0,0.922,0.103,1.354,0.31c0.431,0.203,0.809,0.49,1.132,0.863l0.802-1.132
				c0.054-0.026,0.085-0.041,0.094-0.041h0.101c0.027,0,0.052,0.012,0.075,0.034c0.022,0.023,0.034,0.05,0.034,0.081v3.726
				c0,0.081-0.036,0.121-0.109,0.121h-0.249c-0.085,0-0.128-0.04-0.128-0.121c0-0.265-0.054-0.561-0.161-0.889
				c-0.103-0.328-0.238-0.638-0.404-0.93c-0.161-0.296-0.35-0.557-0.566-0.782c-0.517-0.503-1.11-0.754-1.779-0.754
				c-0.508,0-0.995,0.114-1.462,0.344c-0.462,0.229-0.854,0.546-1.172,0.95c-0.337,0.431-0.57,0.924-0.701,1.476
				c-0.13,0.548-0.195,1.135-0.195,1.759s0.065,1.213,0.195,1.765C323.576,30.609,323.81,31.101,324.147,31.533z"/>
		</g>
		<g id="text3255">
		</g>
	</g>
</g>
</svg>
