<?xml version="1.0" encoding="UTF-8" standalone="no"?>
<!-- Created with Inkscape (http://www.inkscape.org/) -->

<svg
   xmlns:dc="http://purl.org/dc/elements/1.1/"
   xmlns:cc="http://creativecommons.org/ns#"
   xmlns:rdf="http://www.w3.org/1999/02/22-rdf-syntax-ns#"
   xmlns:svg="http://www.w3.org/2000/svg"
   xmlns="http://www.w3.org/2000/svg"
   version="1.2"
   width="320"
   height="60"
   id="svg3020">
  <metadata
     id="metadata3026">
    <rdf:RDF>
      <cc:Work
         rdf:about="">
        <dc:format>image/svg+xml</dc:format>
        <dc:type
           rdf:resource="http://purl.org/dc/dcmitype/StillImage" />
        <dc:title></dc:title>
      </cc:Work>
    </rdf:RDF>
  </metadata>
  <defs
     id="defs3024" />
  <text
     x="44.56657"
     y="42.23513"
     transform="scale(0.95814898,1.043679)"
     id="text3030"
     xml:space="preserve"
     style="font-size:41.02812958px;font-style:normal;font-variant:normal;font-weight:normal;font-stretch:normal;line-height:125%;letter-spacing:0px;word-spacing:0px;fill:#000000;fill-opacity:1;font-family:Cambria Math;-inkscape-font-specification:Cambria Math"><tspan
       x="44.56657"
       y="42.23513"
       id="tspan3032" /></text>
  <g
     id="text4292"
     style="font-size:24px;font-style:normal;font-variant:normal;font-weight:normal;font-stretch:normal;text-align:center;line-height:125%;letter-spacing:0px;word-spacing:0px;text-anchor:middle;fill:#ffffff;fill-opacity:1;font-family:cmr10;-inkscape-font-specification:cmr10">
    <path
       d="m 81.665985,42.243744 0,-0.832031 c 0.546874,-4e-6 0.996092,-0.04688 1.347656,-0.140625 0.351561,-0.09375 0.527342,-0.304691 0.527344,-0.632813 l 0,-11.566406 c -2e-6,-0.437491 -0.156252,-0.710928 -0.46875,-0.820313 -0.312502,-0.109365 -0.781251,-0.164053 -1.40625,-0.164062 l 0,-0.84375 3.550781,-0.257813 0,1.488282 c 0.437496,-0.484366 0.947261,-0.853506 1.529297,-1.107422 0.582025,-0.253896 1.201165,-0.380849 1.857422,-0.38086 0.945304,1.1e-5 1.796866,0.25587 2.554688,0.767579 0.757801,0.511728 1.349598,1.183602 1.77539,2.015625 0.425769,0.832038 0.63866,1.712896 0.638672,2.642578 -1.2e-5,0.968754 -0.23634,1.871097 -0.708984,2.707031 -0.472668,0.835939 -1.117198,1.501954 -1.933594,1.998047 -0.816415,0.496093 -1.712899,0.74414 -2.689453,0.74414 -1.164069,0 -2.148443,-0.472656 -2.953125,-1.417968 l 0,4.195312 c -4e-6,0.328122 0.17773,0.539059 0.533203,0.632813 0.355464,0.09375 0.802729,0.140621 1.341797,0.140625 l 0,0.832031 z m 3.621094,-6.984375 c 0.281245,0.570314 0.67187,1.041017 1.171875,1.412109 0.499994,0.371095 1.046868,0.556641 1.640625,0.556641 0.55468,0 1.044914,-0.148437 1.470703,-0.445313 0.425772,-0.296873 0.783194,-0.695311 1.072266,-1.195312 0.289052,-0.499998 0.501943,-1.025388 0.638671,-1.576172 0.136709,-0.550777 0.205068,-1.08398 0.205079,-1.599609 -1.1e-5,-0.64062 -0.115245,-1.333978 -0.345704,-2.080078 -0.230478,-0.746086 -0.58204,-1.374992 -1.054687,-1.886719 -0.472665,-0.511709 -1.04493,-0.767568 -1.716797,-0.767578 -0.648444,10e-6 -1.244147,0.166025 -1.787109,0.498047 -0.542974,0.33204 -0.974614,0.783211 -1.294922,1.353515 z"
       id="path4299"
       style="fill:#ffffff" />
    <path
       d="m 94.978485,42.243744 0,-0.832031 c 0.546874,-4e-6 0.996092,-0.04688 1.347656,-0.140625 0.351561,-0.09375 0.527342,-0.304691 0.527344,-0.632813 l 0,-11.566406 c -2e-6,-0.437491 -0.156252,-0.710928 -0.46875,-0.820313 -0.312502,-0.109365 -0.781251,-0.164053 -1.40625,-0.164062 l 0,-0.84375 3.550781,-0.257813 0,1.488282 c 0.437496,-0.484366 0.947261,-0.853506 1.529294,-1.107422 0.58203,-0.253896 1.20117,-0.380849 1.85743,-0.38086 0.9453,1.1e-5 1.79686,0.25587 2.55468,0.767579 0.7578,0.511728 1.3496,1.183602 1.77539,2.015625 0.42577,0.832038 0.63866,1.712896 0.63868,2.642578 -2e-5,0.968754 -0.23635,1.871097 -0.70899,2.707031 -0.47267,0.835939 -1.1172,1.501954 -1.93359,1.998047 -0.81642,0.496093 -1.7129,0.74414 -2.68946,0.74414 -1.16406,0 -2.148439,-0.472656 -2.953121,-1.417968 l 0,4.195312 c -4e-6,0.328122 0.17773,0.539059 0.533203,0.632813 0.355464,0.09375 0.802729,0.140621 1.341798,0.140625 l 0,0.832031 z m 3.621094,-6.984375 c 0.281245,0.570314 0.67187,1.041017 1.171875,1.412109 0.499996,0.371095 1.046866,0.556641 1.640626,0.556641 0.55468,0 1.04491,-0.148437 1.4707,-0.445313 0.42577,-0.296873 0.7832,-0.695311 1.07227,-1.195312 0.28905,-0.499998 0.50194,-1.025388 0.63867,-1.576172 0.13671,-0.550777 0.20507,-1.08398 0.20508,-1.599609 -1e-5,-0.64062 -0.11525,-1.333978 -0.34571,-2.080078 -0.23047,-0.746086 -0.58204,-1.374992 -1.05468,-1.886719 -0.47267,-0.511709 -1.04493,-0.767568 -1.7168,-0.767578 -0.64844,10e-6 -1.24415,0.166025 -1.787109,0.498047 -0.542974,0.33204 -0.974614,0.783211 -1.294922,1.353515 z"
       id="path4301"
       style="fill:#ffffff" />
    <path
       d="m 108.38474,37.5914 0,-0.84375 c 0.54687,10e-7 0.99609,-0.04297 1.34765,-0.128906 0.35156,-0.08594 0.52734,-0.296874 0.52735,-0.632813 l 0,-6.550781 c -10e-6,-0.429679 -0.0645,-0.740225 -0.19336,-0.93164 -0.12891,-0.191397 -0.31446,-0.308585 -0.55664,-0.351563 -0.24219,-0.04296 -0.61719,-0.06444 -1.125,-0.06445 l 0,-0.84375 3.48046,-0.257813 0,2.34375 c 0.32031,-0.687491 0.79492,-1.24999 1.42383,-1.6875 0.6289,-0.437489 1.31445,-0.656239 2.05664,-0.65625 1.84374,1.1e-5 2.92577,0.75001 3.2461,2.25 0.3203,-0.671866 0.78905,-1.214834 1.40625,-1.628906 0.61717,-0.414052 1.29295,-0.621083 2.02734,-0.621094 0.72655,1.1e-5 1.33788,0.117198 1.83398,0.351563 0.49608,0.234385 0.86913,0.591806 1.11915,1.072266 0.24998,0.480477 0.37498,1.083992 0.375,1.810546 l 0,5.765625 c -2e-5,0.335939 0.17771,0.546876 0.5332,0.632813 0.35545,0.08594 0.80271,0.128907 1.3418,0.128906 l 0,0.84375 -5.4961,0 0,-0.84375 c 0.54686,10e-7 0.99608,-0.04297 1.34766,-0.128906 0.35154,-0.08594 0.52733,-0.296874 0.52734,-0.632813 l 0,-5.695312 c -10e-6,-0.804679 -0.1133,-1.453116 -0.33984,-1.945313 -0.22658,-0.492177 -0.69142,-0.738271 -1.39453,-0.738281 -0.92189,10e-6 -1.68361,0.371104 -2.28516,1.113281 -0.60157,0.742196 -0.90235,1.585945 -0.90234,2.53125 l 0,4.734375 c -1e-5,0.335939 0.17577,0.546876 0.52734,0.632813 0.35155,0.08594 0.80077,0.128907 1.34766,0.128906 l 0,0.84375 -5.4961,0 0,-0.84375 c 0.54687,10e-7 0.99609,-0.04297 1.34766,-0.128906 0.35155,-0.08594 0.52733,-0.296874 0.52734,-0.632813 l 0,-5.695312 c -1e-5,-0.781242 -0.11329,-1.42382 -0.33984,-1.927734 -0.22657,-0.503897 -0.69142,-0.75585 -1.39453,-0.75586 -0.9297,10e-6 -1.69337,0.371104 -2.29102,1.113281 -0.59766,0.742196 -0.89649,1.585945 -0.89648,2.53125 l 0,4.734375 c -1e-5,0.335939 0.17577,0.546876 0.52734,0.632813 0.35156,0.08594 0.79687,0.128907 1.33594,0.128906 l 0,0.84375 z"
       id="path4303"
       style="fill:#ffffff" />
    <path
       d="m 138.15036,34.708588 0,-6.621094 -1.99219,0 0,-0.621094 c 1.04688,10e-6 1.81641,-0.48827 2.3086,-1.464844 0.49218,-0.97655 0.73827,-2.035142 0.73828,-3.175781 l 0.6914,0 0,4.417969 3.38672,0 0,0.84375 -3.38672,0 0,6.574219 c 0,0.664064 0.11133,1.246095 0.33399,1.746093 0.22265,0.500001 0.62304,0.750001 1.20117,0.75 0.54687,10e-7 0.9414,-0.263671 1.18359,-0.791015 0.24218,-0.527342 0.36328,-1.095701 0.36329,-1.705078 l 0,-1.417969 0.6914,0 0,1.464844 c -1e-5,0.500002 -0.0918,0.994142 -0.27539,1.482422 -0.1836,0.488282 -0.45508,0.888672 -0.81445,1.201171 -0.35938,0.3125 -0.79688,0.46875 -1.3125,0.46875 -0.96094,0 -1.72071,-0.287109 -2.2793,-0.861328 -0.5586,-0.574217 -0.83789,-1.337888 -0.83789,-2.291015 z"
       id="path4305"
       style="fill:#ffffff" />
    <path
       d="m 151.02927,37.860931 c -0.96095,0 -1.85157,-0.24414 -2.67188,-0.732421 -0.82031,-0.488281 -1.46875,-1.142577 -1.94531,-1.962891 -0.47656,-0.820309 -0.71485,-1.71484 -0.71484,-2.683594 -1e-5,-0.734369 0.13085,-1.4414 0.39257,-2.121094 0.26172,-0.679679 0.63672,-1.2871 1.125,-1.822265 0.48828,-0.535147 1.05664,-0.953115 1.70508,-1.253906 0.64843,-0.300771 1.35156,-0.451162 2.10938,-0.451172 0.98436,10e-6 1.88085,0.259776 2.68945,0.779297 0.80858,0.51954 1.44725,1.214852 1.91602,2.085937 0.46873,0.871101 0.70311,1.798834 0.70312,2.783203 -1e-5,0.960942 -0.23829,1.853519 -0.71484,2.677735 -0.47658,0.82422 -1.12306,1.480469 -1.93946,1.96875 -0.81641,0.488281 -1.70118,0.732421 -2.65429,0.732421 z m 0,-0.703125 c 1.28124,10e-7 2.13671,-0.464842 2.5664,-1.394531 0.42968,-0.929685 0.64452,-2.113277 0.64453,-3.550781 -10e-6,-0.804681 -0.043,-1.470696 -0.1289,-1.998047 -0.0859,-0.527336 -0.27345,-1.005851 -0.5625,-1.435547 -0.1797,-0.265616 -0.40821,-0.498037 -0.68555,-0.697265 -0.27735,-0.19921 -0.57032,-0.351553 -0.87891,-0.457032 -0.3086,-0.105458 -0.62695,-0.158193 -0.95507,-0.158203 -0.50001,10e-6 -0.97462,0.113291 -1.42383,0.339844 -0.44922,0.226572 -0.82227,0.55079 -1.11914,0.972656 -0.29688,0.453134 -0.48633,0.95118 -0.56836,1.494141 -0.082,0.542975 -0.12305,1.189459 -0.12305,1.939453 0,0.898442 0.0781,1.705082 0.23438,2.419922 0.15624,0.714846 0.4707,1.314455 0.94336,1.798828 0.47265,0.484376 1.15819,0.726563 2.05664,0.726562 z"
       id="path4307"
       style="fill:#ffffff" />
    <path
       d="m 165.75974,37.5914 0,-0.84375 c 0.54687,10e-7 0.99609,-0.04297 1.34765,-0.128906 0.35156,-0.08594 0.52734,-0.296874 0.52735,-0.632813 l 0,-6.550781 c -1e-5,-0.429679 -0.0645,-0.740225 -0.19336,-0.93164 -0.12891,-0.191397 -0.31446,-0.308585 -0.55664,-0.351563 -0.24219,-0.04296 -0.61719,-0.06444 -1.125,-0.06445 l 0,-0.84375 3.48046,-0.257813 0,2.34375 c 0.32031,-0.687491 0.79492,-1.24999 1.42383,-1.6875 0.6289,-0.437489 1.31445,-0.656239 2.05664,-0.65625 1.84374,1.1e-5 2.92577,0.75001 3.2461,2.25 0.3203,-0.671866 0.78905,-1.214834 1.40625,-1.628906 0.61717,-0.414052 1.29295,-0.621083 2.02734,-0.621094 0.72655,1.1e-5 1.33788,0.117198 1.83398,0.351563 0.49608,0.234385 0.86913,0.591806 1.11915,1.072266 0.24998,0.480477 0.37498,1.083992 0.375,1.810546 l 0,5.765625 c -2e-5,0.335939 0.17771,0.546876 0.5332,0.632813 0.35545,0.08594 0.80271,0.128907 1.3418,0.128906 l 0,0.84375 -5.4961,0 0,-0.84375 c 0.54686,10e-7 0.99608,-0.04297 1.34766,-0.128906 0.35154,-0.08594 0.52733,-0.296874 0.52734,-0.632813 l 0,-5.695312 c -1e-5,-0.804679 -0.1133,-1.453116 -0.33984,-1.945313 -0.22658,-0.492177 -0.69142,-0.738271 -1.39453,-0.738281 -0.92189,10e-6 -1.68361,0.371104 -2.28516,1.113281 -0.60157,0.742196 -0.90235,1.585945 -0.90234,2.53125 l 0,4.734375 c -1e-5,0.335939 0.17577,0.546876 0.52734,0.632813 0.35155,0.08594 0.80077,0.128907 1.34766,0.128906 l 0,0.84375 -5.4961,0 0,-0.84375 c 0.54687,10e-7 0.99609,-0.04297 1.34766,-0.128906 0.35155,-0.08594 0.52733,-0.296874 0.52734,-0.632813 l 0,-5.695312 c -1e-5,-0.781242 -0.11329,-1.42382 -0.33984,-1.927734 -0.22657,-0.503897 -0.69142,-0.75585 -1.39453,-0.75586 -0.9297,10e-6 -1.69337,0.371104 -2.29102,1.113281 -0.59766,0.742196 -0.89649,1.585945 -0.89648,2.53125 l 0,4.734375 c -1e-5,0.335939 0.17577,0.546876 0.52734,0.632813 0.35156,0.08594 0.79687,0.128907 1.33594,0.128906 l 0,0.84375 z"
       id="path4309"
       style="fill:#ffffff" />
    <path
       d="m 185.72849,39.4664 c -1e-5,-0.570314 0.20703,-1.06836 0.62109,-1.49414 0.41406,-0.425782 0.90625,-0.728516 1.47656,-0.908204 -0.32031,-0.242186 -0.56445,-0.546874 -0.73242,-0.914062 -0.16797,-0.367186 -0.25196,-0.75781 -0.25195,-1.171875 -1e-5,-0.749997 0.23828,-1.414059 0.71484,-1.992188 -0.73438,-0.718744 -1.10156,-1.542962 -1.10156,-2.472656 0,-0.499992 0.10742,-0.968742 0.32226,-1.40625 0.21485,-0.437491 0.51367,-0.816397 0.89649,-1.136719 0.38281,-0.320302 0.80859,-0.564443 1.27734,-0.732421 0.46875,-0.167959 0.94922,-0.251943 1.44141,-0.251954 0.95312,1.1e-5 1.80858,0.277354 2.5664,0.832032 0.32812,-0.351553 0.71679,-0.623037 1.16602,-0.814453 0.44921,-0.191396 0.91601,-0.287099 1.40039,-0.28711 0.34374,1.1e-5 0.62499,0.123058 0.84375,0.369141 0.21874,0.246104 0.32811,0.541025 0.32813,0.884765 -2e-5,0.195322 -0.0742,0.367197 -0.22266,0.515625 -0.14845,0.148447 -0.32032,0.222666 -0.51563,0.222657 -0.20313,9e-6 -0.37891,-0.07421 -0.52734,-0.222657 -0.14845,-0.148428 -0.22267,-0.320303 -0.22266,-0.515625 -10e-6,-0.296865 0.0977,-0.503896 0.29297,-0.621093 -0.82813,10e-6 -1.53907,0.285166 -2.13281,0.855468 0.28905,0.289072 0.52148,0.642587 0.69727,1.060547 0.17577,0.417977 0.26366,0.833992 0.26367,1.248047 -1e-5,0.679694 -0.18751,1.291022 -0.5625,1.833985 -0.37501,0.542973 -0.86915,0.964848 -1.48242,1.265625 -0.61329,0.300784 -1.24415,0.451175 -1.89258,0.451171 -0.87501,4e-6 -1.67579,-0.238277 -2.40235,-0.714843 -0.22656,0.312504 -0.33984,0.664066 -0.33984,1.054687 0,0.421878 0.13867,0.791018 0.41602,1.107422 0.27734,0.316408 0.62695,0.474611 1.04882,0.474609 l 1.96875,0 c 0.95312,2e-6 1.8125,0.08594 2.57813,0.257813 0.76561,0.171876 1.40819,0.515626 1.92773,1.03125 0.51952,0.515625 0.77929,1.246093 0.7793,2.191406 -1e-5,0.703123 -0.29689,1.287106 -0.89062,1.751953 -0.59376,0.46484 -1.30275,0.800777 -2.12696,1.007813 -0.82422,0.207026 -1.5879,0.310542 -2.29101,0.310547 -0.71095,-5e-6 -1.48048,-0.103521 -2.3086,-0.310547 -0.82813,-0.207036 -1.53906,-0.542973 -2.13281,-1.007813 -0.59375,-0.464847 -0.89063,-1.04883 -0.89062,-1.751953 z m 1.34765,0 c 0,0.53906 0.21875,0.990232 0.65625,1.353516 0.4375,0.363277 0.96484,0.632808 1.58203,0.808594 0.61719,0.175777 1.19922,0.263667 1.7461,0.263671 0.53905,-4e-6 1.11718,-0.08789 1.73437,-0.263671 0.61718,-0.175786 1.14257,-0.445317 1.57617,-0.808594 0.43359,-0.363284 0.65038,-0.814456 0.65039,-1.353516 -10e-6,-0.835938 -0.38282,-1.376953 -1.14843,-1.623047 -0.76564,-0.246093 -1.69532,-0.36914 -2.78907,-0.36914 l -1.96875,0 c -0.36719,0 -0.70508,0.08789 -1.01367,0.263672 -0.30859,0.17578 -0.55664,0.421874 -0.74414,0.738281 -0.1875,0.316405 -0.28125,0.646483 -0.28125,0.990234 z m 3.31641,-6.046875 c 1.35937,4e-6 2.03905,-0.968745 2.03906,-2.90625 -1e-5,-0.835929 -0.14454,-1.525382 -0.43359,-2.068359 -0.28907,-0.542959 -0.82423,-0.814443 -1.60547,-0.814453 -0.78126,10e-6 -1.31641,0.271494 -1.60547,0.814453 -0.28907,0.542977 -0.4336,1.23243 -0.43359,2.068359 -1e-5,0.531257 0.0547,1.011725 0.16406,1.441406 0.10937,0.429693 0.31249,0.781255 0.60937,1.054688 0.29687,0.273442 0.71875,0.41016 1.26563,0.410156 z"
       id="path4311"
       style="fill:#ffffff" />
    <path
       d="m 198.40817,43.110931 c 0,-0.04688 0.008,-0.07813 0.0234,-0.09375 l 8.34375,-23.132812 c 0.0312,-0.09373 0.0859,-0.165998 0.16406,-0.216797 0.0781,-0.05076 0.16796,-0.07615 0.26953,-0.07617 0.14062,1.8e-5 0.25585,0.04299 0.34571,0.128906 0.0898,0.08596 0.13475,0.203143 0.13476,0.351563 l 0,0.09375 -8.34375,23.132812 c -0.0937,0.195307 -0.24609,0.292963 -0.45703,0.292969 -0.13281,-6e-6 -0.24609,-0.04688 -0.33984,-0.140625 -0.0937,-0.09376 -0.14063,-0.207037 -0.14063,-0.339844 z"
       id="path4313"
       style="fill:#ffffff" />
    <path
       d="m 209.77536,37.5914 0,-0.84375 c 0.54687,10e-7 0.99609,-0.04297 1.34766,-0.128906 0.35156,-0.08594 0.52734,-0.296874 0.52734,-0.632813 l 0,-6.550781 c 0,-0.429679 -0.0645,-0.740225 -0.19336,-0.93164 -0.12891,-0.191397 -0.31445,-0.308585 -0.55664,-0.351563 -0.24219,-0.04296 -0.61719,-0.06444 -1.125,-0.06445 l 0,-0.84375 3.48047,-0.257813 0,2.34375 c 0.32031,-0.687491 0.79492,-1.24999 1.42383,-1.6875 0.6289,-0.437489 1.31444,-0.656239 2.05664,-0.65625 1.84374,1.1e-5 2.92577,0.75001 3.24609,2.25 0.3203,-0.671866 0.78905,-1.214834 1.40625,-1.628906 0.61718,-0.414052 1.29296,-0.621083 2.02735,-0.621094 0.72654,1.1e-5 1.33787,0.117198 1.83398,0.351563 0.49608,0.234385 0.86912,0.591806 1.11914,1.072266 0.24998,0.480477 0.37498,1.083992 0.375,1.810546 l 0,5.765625 c -2e-5,0.335939 0.17772,0.546876 0.5332,0.632813 0.35545,0.08594 0.80272,0.128907 1.3418,0.128906 l 0,0.84375 -5.49609,0 0,-0.84375 c 0.54686,10e-7 0.99608,-0.04297 1.34765,-0.128906 0.35155,-0.08594 0.52733,-0.296874 0.52735,-0.632813 l 0,-5.695312 c -2e-5,-0.804679 -0.1133,-1.453116 -0.33985,-1.945313 -0.22658,-0.492177 -0.69142,-0.738271 -1.39453,-0.738281 -0.92189,10e-6 -1.6836,0.371104 -2.28515,1.113281 -0.60158,0.742196 -0.90236,1.585945 -0.90235,2.53125 l 0,4.734375 c -1e-5,0.335939 0.17577,0.546876 0.52735,0.632813 0.35155,0.08594 0.80076,0.128907 1.34765,0.128906 l 0,0.84375 -5.49609,0 0,-0.84375 c 0.54686,10e-7 0.99608,-0.04297 1.34765,-0.128906 0.35156,-0.08594 0.52734,-0.296874 0.52735,-0.632813 l 0,-5.695312 c -1e-5,-0.781242 -0.11329,-1.42382 -0.33985,-1.927734 -0.22657,-0.503897 -0.69141,-0.75585 -1.39453,-0.75586 -0.92969,10e-6 -1.69336,0.371104 -2.29101,1.113281 -0.59766,0.742196 -0.89649,1.585945 -0.89649,2.53125 l 0,4.734375 c 0,0.335939 0.17578,0.546876 0.52735,0.632813 0.35155,0.08594 0.79687,0.128907 1.33593,0.128906 l 0,0.84375 z"
       id="path4315"
       style="fill:#ffffff" />
    <path
       d="m 230.56151,26.787867 c 0.24376,0.355475 0.5713,0.619541 0.98263,0.792199 0.41134,0.172659 0.85314,0.258988 1.32541,0.258988 0.60431,0 1.03341,-0.257718 1.28733,-0.773156 0.2539,-0.515435 0.38086,-1.100697 0.38086,-1.755786 0,-0.294532 -0.0267,-0.589068 -0.08,-0.883606 -0.0533,-0.294532 -0.14346,-0.568754 -0.27041,-0.822668 -0.12696,-0.253905 -0.30089,-0.457033 -0.52179,-0.609384 -0.2209,-0.15234 -0.49132,-0.228513 -0.81124,-0.228518 l -1.03595,0 c -0.0914,5e-6 -0.13712,-0.04824 -0.13711,-0.144729 l 0,-0.137111 c -1e-5,-0.08125 0.0457,-0.121871 0.13711,-0.121877 l 0.86075,-0.06856 c 0.36563,6e-6 0.66905,-0.137105 0.91027,-0.411334 0.24121,-0.274216 0.41768,-0.608107 0.5294,-1.001674 0.11172,-0.393553 0.16758,-0.768069 0.16758,-1.123551 0,-0.497654 -0.1168,-0.906449 -0.35039,-1.226384 -0.23361,-0.319917 -0.58908,-0.47988 -1.06643,-0.47989 -0.3961,10e-6 -0.77442,0.07491 -1.13497,0.22471 -0.36056,0.149817 -0.64747,0.377066 -0.86076,0.681748 0.0203,-0.0051 0.0381,-0.0089 0.0533,-0.01143 0.0152,-0.0025 0.033,-0.0038 0.0533,-0.0038 0.23359,9e-6 0.4291,0.08126 0.58653,0.243753 0.15742,0.162511 0.23613,0.358021 0.23613,0.586532 0,0.223448 -0.0787,0.41642 -0.23613,0.578914 -0.15743,0.16251 -0.35294,0.243761 -0.58653,0.243754 -0.22853,7e-6 -0.42404,-0.08124 -0.58654,-0.243754 -0.1625,-0.162494 -0.24375,-0.355466 -0.24375,-0.578914 0,-0.446873 0.13457,-0.835355 0.40372,-1.165446 0.26914,-0.330073 0.61573,-0.580174 1.03976,-0.750304 0.42402,-0.170109 0.84932,-0.255169 1.27589,-0.255179 0.31485,10e-6 0.64747,0.04698 0.99787,0.14092 0.35039,0.09396 0.66778,0.228528 0.95216,0.403716 0.28437,0.175208 0.5167,0.399918 0.69698,0.674131 0.18027,0.274231 0.27041,0.58654 0.27042,0.936927 -1e-5,0.436733 -0.0978,0.840449 -0.29327,1.21115 -0.19551,0.370715 -0.46339,0.690641 -0.80362,0.959779 -0.34025,0.26915 -0.71349,0.469739 -1.11974,0.601766 0.45195,0.08633 0.88106,0.256455 1.28732,0.510359 0.40625,0.253915 0.73252,0.578919 0.97882,0.975014 0.24629,0.396103 0.36943,0.822671 0.36944,1.279705 -1e-5,0.573839 -0.15743,1.093084 -0.47227,1.557737 -0.31486,0.464656 -0.72873,0.827747 -1.24162,1.089273 -0.5129,0.261527 -1.05373,0.392291 -1.62249,0.392291 -0.48751,0 -0.97628,-0.09268 -1.46633,-0.278031 -0.49004,-0.185354 -0.89122,-0.463385 -1.20353,-0.834094 -0.31231,-0.370707 -0.46846,-0.815049 -0.46846,-1.333027 0,-0.258985 0.0863,-0.474808 0.25899,-0.64747 0.17265,-0.172655 0.38848,-0.258985 0.64747,-0.258988 0.16758,3e-6 0.32119,0.03936 0.46084,0.118068 0.13965,0.07871 0.24883,0.189166 0.32755,0.331353 0.0787,0.142192 0.11806,0.294537 0.11806,0.457037 0,0.253912 -0.0889,0.467196 -0.2666,0.639853 -0.17774,0.17266 -0.39102,0.258989 -0.63985,0.258988 z"
       id="path4317"
       style="font-size:65.00091553%;baseline-shift:super;fill:#ffffff" />
  </g>
</svg>
