<?xml version="1.0" encoding="UTF-8" standalone="no"?>
<!-- Created with Inkscape (http://www.inkscape.org/) -->

<svg
   xmlns:dc="http://purl.org/dc/elements/1.1/"
   xmlns:cc="http://creativecommons.org/ns#"
   xmlns:rdf="http://www.w3.org/1999/02/22-rdf-syntax-ns#"
   xmlns:svg="http://www.w3.org/2000/svg"
   xmlns="http://www.w3.org/2000/svg"
   version="1.2"
   width="320"
   height="60"
   id="svg3020">
  <metadata
     id="metadata3026">
    <rdf:RDF>
      <cc:Work
         rdf:about="">
        <dc:format>image/svg+xml</dc:format>
        <dc:type
           rdf:resource="http://purl.org/dc/dcmitype/StillImage" />
        <dc:title></dc:title>
      </cc:Work>
    </rdf:RDF>
  </metadata>
  <defs
     id="defs3024" />
  <text
     x="44.56657"
     y="42.23513"
     transform="scale(0.95814898,1.043679)"
     id="text3030"
     xml:space="preserve"
     style="font-size:41.02812958px;font-style:normal;font-variant:normal;font-weight:normal;font-stretch:normal;line-height:125%;letter-spacing:0px;word-spacing:0px;fill:#000000;fill-opacity:1;font-family:Cambria Math;-inkscape-font-specification:Cambria Math"><tspan
       x="44.56657"
       y="42.23513"
       id="tspan3032" /></text>
  <g
     id="text2994"
     style="font-size:24px;font-style:normal;font-variant:normal;font-weight:normal;font-stretch:normal;text-align:center;line-height:125%;letter-spacing:0px;word-spacing:0px;text-anchor:middle;fill:#ffffff;fill-opacity:1;font-family:cmr10;-inkscape-font-specification:cmr10">
    <path
       d="m 110.59105,35.906712 c 0.54687,0.695314 1.23046,1.244142 2.05078,1.646484 0.8203,0.402344 1.67187,0.603516 2.55469,0.603516 0.74217,0 1.42967,-0.146484 2.0625,-0.439454 0.6328,-0.292967 1.18553,-0.70117 1.6582,-1.224609 0.47264,-0.523435 0.83592,-1.117184 1.08984,-1.78125 0.2539,-0.664058 0.38085,-1.363276 0.38086,-2.097656 -10e-6,-0.124994 0.0703,-0.187494 0.21094,-0.1875 l 0.29297,0 c 0.12498,6e-6 0.18748,0.07813 0.1875,0.234375 -2e-5,0.835942 -0.16017,1.642582 -0.48047,2.419922 -0.32033,0.777346 -0.77345,1.460939 -1.35937,2.050781 -0.58595,0.589844 -1.25978,1.048828 -2.02149,1.376953 -0.76173,0.328125 -1.55665,0.492187 -2.38476,0.492188 -1.14845,-10e-7 -2.23634,-0.232423 -3.26368,-0.697266 -1.02734,-0.464843 -1.92187,-1.101561 -2.68359,-1.910156 -0.76172,-0.808591 -1.35547,-1.744137 -1.78125,-2.806641 -0.42578,-1.062494 -0.63867,-2.167962 -0.63867,-3.316406 0,-1.148428 0.21289,-2.253896 0.63867,-3.316406 0.42578,-1.062488 1.01953,-1.999987 1.78125,-2.8125 0.76172,-0.812485 1.65625,-1.44725 2.68359,-1.904297 1.02734,-0.457015 2.11523,-0.68553 3.26368,-0.685547 0.8203,1.7e-5 1.60545,0.177751 2.35547,0.533203 0.74998,0.355485 1.40623,0.857437 1.96875,1.505859 l 1.39453,-1.96875 c 0.0937,-0.04686 0.14842,-0.0703 0.16406,-0.07031 l 0.17578,0 c 0.0469,1.7e-5 0.0898,0.01955 0.12891,0.05859 0.039,0.03908 0.0586,0.08595 0.0586,0.140625 l 0,6.480468 c -2e-5,0.140635 -0.0625,0.210948 -0.1875,0.210938 l -0.43359,0 c -0.14846,10e-6 -0.22267,-0.0703 -0.22266,-0.210938 -1e-5,-0.460926 -0.0918,-0.976551 -0.27539,-1.546875 -0.18361,-0.5703 -0.41798,-1.111315 -0.70313,-1.623047 -0.28517,-0.511704 -0.61524,-0.962876 -0.99023,-1.353515 -0.89845,-0.874985 -1.9297,-1.312484 -3.09375,-1.3125 -0.88282,1.6e-5 -1.72852,0.199234 -2.53711,0.597656 -0.8086,0.398453 -1.49024,0.949233 -2.04492,1.652344 -0.58594,0.750013 -0.99219,1.603528 -1.21875,2.560547 -0.22657,0.957041 -0.33985,1.978525 -0.33984,3.064453 -1e-5,1.085944 0.11327,2.109381 0.33984,3.070312 0.22656,0.960942 0.63281,1.81641 1.21875,2.566407 z"
       id="path2999"
       style="fill:#ffffff;stroke:none" />
    <path
       d="m 128.46214,38.742649 c -0.96094,0 -1.85156,-0.244141 -2.67187,-0.732422 -0.82032,-0.48828 -1.46875,-1.142576 -1.94531,-1.96289 -0.47657,-0.82031 -0.71485,-1.71484 -0.71485,-2.683594 0,-0.734369 0.13086,-1.4414 0.39258,-2.121094 0.26172,-0.67968 0.63672,-1.287101 1.125,-1.822266 0.48828,-0.535146 1.05664,-0.953115 1.70508,-1.253906 0.64843,-0.30077 1.35156,-0.451161 2.10937,-0.451172 0.98437,1.1e-5 1.88085,0.259776 2.68946,0.779297 0.80858,0.519541 1.44725,1.214853 1.91601,2.085938 0.46874,0.8711 0.70312,1.798834 0.70313,2.783203 -1e-5,0.960941 -0.2383,1.853519 -0.71485,2.677734 -0.47657,0.824221 -1.12305,1.48047 -1.93945,1.96875 -0.81641,0.488281 -1.70118,0.732422 -2.6543,0.732422 z m 0,-0.703125 c 1.28125,10e-7 2.13671,-0.464843 2.56641,-1.394531 0.42968,-0.929685 0.64452,-2.113277 0.64453,-3.550781 -1e-5,-0.804682 -0.043,-1.470697 -0.12891,-1.998047 -0.0859,-0.527336 -0.27344,-1.005851 -0.5625,-1.435547 -0.17969,-0.265616 -0.40821,-0.498038 -0.68554,-0.697266 -0.27735,-0.199209 -0.57032,-0.351552 -0.87891,-0.457031 -0.3086,-0.105459 -0.62696,-0.158193 -0.95508,-0.158203 -0.5,10e-6 -0.97461,0.113291 -1.42383,0.339844 -0.44922,0.226572 -0.82226,0.55079 -1.11914,0.972656 -0.29687,0.453133 -0.48633,0.95118 -0.56836,1.49414 -0.082,0.542976 -0.12304,1.18946 -0.12304,1.939454 0,0.898442 0.0781,1.705081 0.23437,2.419921 0.15625,0.714846 0.4707,1.314455 0.94336,1.798829 0.47265,0.484375 1.1582,0.726563 2.05664,0.726562 z"
       id="path3001"
       style="fill:#ffffff;stroke:none" />
    <path
       d="m 135.17699,38.473118 0,-0.84375 c 0.54687,10e-7 0.99609,-0.04297 1.34765,-0.128906 0.35156,-0.08594 0.52734,-0.296874 0.52735,-0.632813 l 0,-6.550781 c -1e-5,-0.429679 -0.0645,-0.740226 -0.19336,-0.931641 -0.12891,-0.191397 -0.31446,-0.308584 -0.55664,-0.351562 -0.24219,-0.04296 -0.61719,-0.06444 -1.125,-0.06445 l 0,-0.84375 3.48047,-0.257813 0,2.34375 c 0.3203,-0.687491 0.79491,-1.24999 1.42382,-1.6875 0.6289,-0.43749 1.31445,-0.656239 2.05664,-0.65625 1.10937,1.1e-5 1.94335,0.265635 2.50196,0.796875 0.55858,0.531259 0.83788,1.343759 0.83789,2.4375 l 0,5.765625 c -1e-5,0.335939 0.17577,0.546876 0.52734,0.632813 0.35155,0.08594 0.80077,0.128907 1.34766,0.128906 l 0,0.84375 -5.4961,0 0,-0.84375 c 0.54687,10e-7 0.99609,-0.04297 1.34766,-0.128906 0.35155,-0.08594 0.52733,-0.296874 0.52734,-0.632813 l 0,-5.695312 c -1e-5,-0.781242 -0.11329,-1.42382 -0.33984,-1.927735 -0.22657,-0.503896 -0.69141,-0.755849 -1.39453,-0.755859 -0.92969,10e-6 -1.69337,0.371103 -2.29102,1.113281 -0.59766,0.742196 -0.89649,1.585945 -0.89648,2.53125 l 0,4.734375 c -1e-5,0.335939 0.17578,0.546876 0.52734,0.632813 0.35156,0.08594 0.79687,0.128907 1.33594,0.128906 l 0,0.84375 z"
       id="path3003"
       style="fill:#ffffff;stroke:none" />
    <path
       d="m 148.57152,38.54343 0,-3.914062 c 0,-0.124996 0.0703,-0.187496 0.21094,-0.1875 l 0.29296,0 c 0.0937,4e-6 0.15625,0.0625 0.1875,0.1875 0.44531,2.320314 1.52344,3.480469 3.23438,3.480469 0.75781,0 1.39257,-0.171875 1.9043,-0.515625 0.51171,-0.343749 0.76757,-0.874999 0.76757,-1.59375 0,-0.515622 -0.19922,-0.955075 -0.59765,-1.31836 -0.39845,-0.363277 -0.8711,-0.611324 -1.41797,-0.74414 l -1.60547,-0.316407 c -0.53907,-0.117182 -1.0293,-0.29687 -1.4707,-0.539062 -0.44141,-0.242182 -0.80274,-0.564447 -1.08399,-0.966797 -0.28125,-0.402337 -0.42187,-0.869133 -0.42187,-1.400391 0,-0.703116 0.18554,-1.279288 0.55664,-1.728515 0.37109,-0.449209 0.85351,-0.773428 1.44726,-0.972657 0.59375,-0.199208 1.23438,-0.298817 1.92188,-0.298828 0.82031,1.1e-5 1.53515,0.218761 2.14453,0.65625 l 0.69141,-0.597656 c -1e-5,-0.03905 0.0391,-0.05858 0.11718,-0.05859 l 0.17579,0 c 0.0469,1.1e-5 0.0898,0.02149 0.1289,0.06445 0.0391,0.04298 0.0586,0.0879 0.0586,0.134766 l 0,3.140625 c -10e-6,0.148445 -0.0625,0.222664 -0.1875,0.222656 l -0.29297,0 c -0.14064,8e-6 -0.21095,-0.07421 -0.21094,-0.222656 -1e-5,-0.835929 -0.23243,-1.507803 -0.69727,-2.015625 -0.46485,-0.507802 -1.11524,-0.761708 -1.95117,-0.761719 -0.71875,1.1e-5 -1.3418,0.132823 -1.86914,0.398438 -0.52734,0.265634 -0.79102,0.722665 -0.79101,1.371094 -10e-6,0.44532 0.18945,0.810554 0.56835,1.095703 0.37891,0.285163 0.82227,0.490241 1.33008,0.615234 l 1.62891,0.304688 c 0.54687,0.125006 1.05663,0.335943 1.5293,0.632812 0.47264,0.296881 0.84764,0.67188 1.125,1.125 0.27733,0.453129 0.416,0.964848 0.41601,1.535156 -1e-5,0.578128 -0.0996,1.08008 -0.29883,1.50586 -0.19922,0.425782 -0.47657,0.779297 -0.83203,1.060547 -0.35547,0.28125 -0.7754,0.488281 -1.25976,0.621093 -0.48438,0.132813 -0.9922,0.199219 -1.52344,0.199219 -1,0 -1.85547,-0.335937 -2.56641,-1.007812 l -0.8789,0.949218 c 0,0.03906 -0.043,0.05859 -0.12891,0.05859 l -0.14062,0 c -0.14063,0 -0.21094,-0.06641 -0.21094,-0.199219 z"
       id="path3005"
       style="fill:#ffffff;stroke:none" />
    <path
       d="m 159.69261,35.590305 0,-6.621093 -1.99219,0 0,-0.621094 c 1.04688,10e-6 1.81641,-0.488271 2.3086,-1.464844 0.49218,-0.97655 0.73828,-2.035143 0.73828,-3.175781 l 0.69141,0 0,4.417969 3.38671,0 0,0.84375 -3.38671,0 0,6.574218 c -10e-6,0.664065 0.11132,1.246096 0.33398,1.746094 0.22265,0.500001 0.62304,0.750001 1.20117,0.75 0.54687,10e-7 0.9414,-0.263671 1.1836,-0.791016 0.24218,-0.527342 0.36327,-1.0957 0.36328,-1.705078 l 0,-1.417968 0.6914,0 0,1.464843 c -1e-5,0.500003 -0.0918,0.994143 -0.27539,1.482422 -0.1836,0.488282 -0.45508,0.888673 -0.81445,1.201172 -0.35938,0.3125 -0.79688,0.46875 -1.3125,0.46875 -0.96094,0 -1.72071,-0.287109 -2.2793,-0.861328 -0.55859,-0.574218 -0.83789,-1.337889 -0.83789,-2.291016 z"
       id="path3007"
       style="fill:#ffffff;stroke:none" />
    <path
       d="m 167.53246,36.117649 c -10e-6,-0.953122 0.37499,-1.728511 1.125,-2.326172 0.74999,-0.597651 1.65038,-1.019525 2.70117,-1.265625 1.05077,-0.246087 2.04882,-0.369134 2.99414,-0.36914 l 0,-0.984375 c -1e-5,-0.46093 -0.10157,-0.908195 -0.30469,-1.341797 -0.20313,-0.433585 -0.4961,-0.789053 -0.87891,-1.066407 -0.38281,-0.277333 -0.80469,-0.416005 -1.26562,-0.416015 -1.06251,10e-6 -1.8711,0.238291 -2.42578,0.714844 0.30468,9e-6 0.55664,0.115243 0.75586,0.345703 0.19921,0.230477 0.29882,0.498055 0.29883,0.802734 -10e-6,0.320321 -0.11329,0.593758 -0.33985,0.820313 -0.22656,0.226569 -0.4961,0.33985 -0.80859,0.339843 -0.32032,7e-6 -0.59375,-0.113274 -0.82031,-0.339843 -0.22657,-0.226555 -0.33985,-0.499992 -0.33985,-0.820313 0,-0.843741 0.38281,-1.470693 1.14844,-1.880859 0.76562,-0.410146 1.60937,-0.615224 2.53125,-0.615235 0.64843,1.1e-5 1.30077,0.138683 1.95703,0.416016 0.65624,0.277354 1.19335,0.673838 1.61133,1.189453 0.41796,0.515634 0.62694,1.117196 0.62695,1.804688 l 0,5.402343 c -1e-5,0.312502 0.0664,0.599611 0.19922,0.861328 0.1328,0.26172 0.33983,0.392579 0.62109,0.392579 0.26562,0 0.46288,-0.132812 0.5918,-0.398438 0.1289,-0.265624 0.19335,-0.55078 0.19336,-0.855469 l 0,-1.535156 0.70313,0 0,1.535156 c -2e-5,0.359377 -0.0938,0.701173 -0.28125,1.025391 -0.18752,0.324219 -0.43947,0.582032 -0.75586,0.773437 -0.31642,0.191407 -0.65822,0.28711 -1.02539,0.28711 -0.46876,0 -0.87306,-0.181641 -1.2129,-0.544922 -0.33985,-0.363281 -0.5293,-0.794921 -0.56835,-1.294922 -0.29689,0.601564 -0.73439,1.080079 -1.3125,1.435547 -0.57814,0.355469 -1.19532,0.533203 -1.85157,0.533203 -0.60938,0 -1.20899,-0.08984 -1.79883,-0.269531 -0.58984,-0.179687 -1.08203,-0.46289 -1.47656,-0.84961 -0.39453,-0.386717 -0.5918,-0.88867 -0.59179,-1.505859 z m 1.94531,0 c 0,0.562502 0.20703,1.035158 0.62109,1.417969 0.41406,0.382813 0.90234,0.574219 1.46485,0.574219 0.51561,0 0.98436,-0.128906 1.40625,-0.386719 0.42186,-0.257812 0.7578,-0.609374 1.00781,-1.054688 0.24999,-0.44531 0.37499,-0.914059 0.375,-1.40625 l 0,-2.496093 c -0.72657,5e-6 -1.47071,0.119146 -2.23242,0.357421 -0.76173,0.238287 -1.39259,0.611333 -1.89258,1.119141 -0.50001,0.507816 -0.75,1.132816 -0.75,1.875 z"
       id="path3009"
       style="fill:#ffffff;stroke:none" />
    <path
       d="m 179.28636,38.473118 0,-0.84375 c 0.54688,10e-7 0.99609,-0.04297 1.34766,-0.128906 0.35156,-0.08594 0.52734,-0.296874 0.52734,-0.632813 l 0,-6.550781 c 0,-0.429679 -0.0644,-0.740226 -0.19336,-0.931641 -0.12891,-0.191397 -0.31445,-0.308584 -0.55664,-0.351562 -0.24219,-0.04296 -0.61719,-0.06444 -1.125,-0.06445 l 0,-0.84375 3.48047,-0.257813 0,2.34375 c 0.32031,-0.687491 0.79492,-1.24999 1.42383,-1.6875 0.6289,-0.43749 1.31444,-0.656239 2.05664,-0.65625 1.10937,1.1e-5 1.94335,0.265635 2.50195,0.796875 0.55859,0.531259 0.83788,1.343759 0.83789,2.4375 l 0,5.765625 c -1e-5,0.335939 0.17577,0.546876 0.52735,0.632813 0.35155,0.08594 0.80077,0.128907 1.34765,0.128906 l 0,0.84375 -5.49609,0 0,-0.84375 c 0.54687,10e-7 0.99608,-0.04297 1.34766,-0.128906 0.35155,-0.08594 0.52733,-0.296874 0.52734,-0.632813 l 0,-5.695312 c -1e-5,-0.781242 -0.11329,-1.42382 -0.33984,-1.927735 -0.22658,-0.503896 -0.69142,-0.755849 -1.39454,-0.755859 -0.92969,10e-6 -1.69336,0.371103 -2.29101,1.113281 -0.59766,0.742196 -0.89649,1.585945 -0.89649,2.53125 l 0,4.734375 c 0,0.335939 0.17578,0.546876 0.52735,0.632813 0.35156,0.08594 0.79687,0.128907 1.33594,0.128906 l 0,0.84375 z"
       id="path3011"
       style="fill:#ffffff;stroke:none" />
    <path
       d="m 194.33324,35.590305 0,-6.621093 -1.99219,0 0,-0.621094 c 1.04687,10e-6 1.8164,-0.488271 2.30859,-1.464844 0.49219,-0.97655 0.73828,-2.035143 0.73828,-3.175781 l 0.69141,0 0,4.417969 3.38672,0 0,0.84375 -3.38672,0 0,6.574218 c 0,0.664065 0.11132,1.246096 0.33398,1.746094 0.22266,0.500001 0.62305,0.750001 1.20118,0.75 0.54687,10e-7 0.9414,-0.263671 1.18359,-0.791016 0.24218,-0.527342 0.36327,-1.0957 0.36328,-1.705078 l 0,-1.417968 0.69141,0 0,1.464843 c -1e-5,0.500003 -0.0918,0.994143 -0.27539,1.482422 -0.1836,0.488282 -0.45509,0.888673 -0.81446,1.201172 -0.35938,0.3125 -0.79688,0.46875 -1.3125,0.46875 -0.96094,0 -1.7207,-0.287109 -2.27929,-0.861328 -0.5586,-0.574218 -0.8379,-1.337889 -0.83789,-2.291016 z"
       id="path3013"
       style="fill:#ffffff;stroke:none" />
    <path
       d="m 202.00902,38.54343 0,-3.914062 c 0,-0.124996 0.0703,-0.187496 0.21094,-0.1875 l 0.29296,0 c 0.0937,4e-6 0.15625,0.0625 0.1875,0.1875 0.44531,2.320314 1.52344,3.480469 3.23438,3.480469 0.75781,0 1.39257,-0.171875 1.9043,-0.515625 0.51171,-0.343749 0.76757,-0.874999 0.76757,-1.59375 0,-0.515622 -0.19922,-0.955075 -0.59765,-1.31836 -0.39845,-0.363277 -0.8711,-0.611324 -1.41797,-0.74414 l -1.60547,-0.316407 c -0.53907,-0.117182 -1.0293,-0.29687 -1.4707,-0.539062 -0.44141,-0.242182 -0.80274,-0.564447 -1.08399,-0.966797 -0.28125,-0.402337 -0.42187,-0.869133 -0.42187,-1.400391 0,-0.703116 0.18554,-1.279288 0.55664,-1.728515 0.37109,-0.449209 0.85351,-0.773428 1.44726,-0.972657 0.59375,-0.199208 1.23438,-0.298817 1.92188,-0.298828 0.82031,1.1e-5 1.53515,0.218761 2.14453,0.65625 l 0.69141,-0.597656 c -1e-5,-0.03905 0.0391,-0.05858 0.11718,-0.05859 l 0.17579,0 c 0.0469,1.1e-5 0.0898,0.02149 0.1289,0.06445 0.0391,0.04298 0.0586,0.0879 0.0586,0.134766 l 0,3.140625 c -10e-6,0.148445 -0.0625,0.222664 -0.1875,0.222656 l -0.29297,0 c -0.14064,8e-6 -0.21095,-0.07421 -0.21094,-0.222656 -1e-5,-0.835929 -0.23243,-1.507803 -0.69727,-2.015625 -0.46485,-0.507802 -1.11524,-0.761708 -1.95117,-0.761719 -0.71875,1.1e-5 -1.3418,0.132823 -1.86914,0.398438 -0.52734,0.265634 -0.79102,0.722665 -0.79101,1.371094 -10e-6,0.44532 0.18945,0.810554 0.56835,1.095703 0.37891,0.285163 0.82227,0.490241 1.33008,0.615234 l 1.62891,0.304688 c 0.54687,0.125006 1.05663,0.335943 1.5293,0.632812 0.47264,0.296881 0.84764,0.67188 1.125,1.125 0.27733,0.453129 0.416,0.964848 0.41601,1.535156 -1e-5,0.578128 -0.0996,1.08008 -0.29883,1.50586 -0.19922,0.425782 -0.47657,0.779297 -0.83203,1.060547 -0.35547,0.28125 -0.7754,0.488281 -1.25976,0.621093 -0.48438,0.132813 -0.9922,0.199219 -1.52344,0.199219 -1,0 -1.85547,-0.335937 -2.56641,-1.007812 l -0.8789,0.949218 c 0,0.03906 -0.043,0.05859 -0.12891,0.05859 l -0.14062,0 c -0.14063,0 -0.21094,-0.06641 -0.21094,-0.199219 z"
       id="path3015"
       style="fill:#ffffff;stroke:none" />
  </g>
</svg>
