<?xml version="1.0" encoding="utf-8"?>
<!-- Generator: Adobe Illustrator 16.0.0, SVG Export Plug-In . SVG Version: 6.00 Build 0)  -->
<!DOCTYPE svg PUBLIC "-//W3C//DTD SVG 1.1//EN" "http://www.w3.org/Graphics/SVG/1.1/DTD/svg11.dtd">
<svg version="1.1"
	 id="svg3020" xmlns:dc="http://purl.org/dc/elements/1.1/" xmlns:cc="http://creativecommons.org/ns#" xmlns:rdf="http://www.w3.org/1999/02/22-rdf-syntax-ns#" xmlns:svg="http://www.w3.org/2000/svg" xmlns:inkscape="http://www.inkscape.org/namespaces/inkscape"
	 xmlns="http://www.w3.org/2000/svg" xmlns:xlink="http://www.w3.org/1999/xlink" x="0px" y="0px" width="320px" height="60px"
	 viewBox="0 0 320 60" enable-background="new 0 0 320 60" xml:space="preserve">
<g id="text3030" transform="scale(0.95814898,1.043679)">
</g>
<g id="g3009" transform="matrix(1.4688253,0,0,1.4688253,-277.70507,-0.75165246)">
	<g id="flowRoot3055" transform="matrix(0.68081616,0,0,0.68081616,189.0661,0.51173714)">
	</g>
	<g id="flowRoot3063" transform="matrix(0.68081616,0,0,0.68081616,189.0661,0.51173714)">
	</g>
	<g id="g3569" transform="matrix(0.68081616,0,0,0.68081616,66.230655,78.160046)">
	</g>
	<g id="g3705" transform="matrix(1.2057983,0,0,1.2057983,-49.219548,1.2356698)">
		<g id="text3707">
			<path id="path55" inkscape:connector-curvature="0" d="M224.328,11.898c0.332,0.404,0.737,0.721,1.213,0.95
				c0.481,0.229,0.982,0.344,1.503,0.344c0.512,0,0.977-0.13,1.395-0.391c0.418-0.261,0.627-0.631,0.627-1.112V10.53
				c0-0.292-0.575-0.438-1.725-0.438V9.607h3.955v0.485c-0.292,0-0.523,0.025-0.694,0.074s-0.256,0.171-0.256,0.364v2.722
				c0,0.031-0.014,0.061-0.041,0.088c-0.022,0.022-0.049,0.034-0.081,0.034c-0.085,0-0.229-0.101-0.431-0.303
				c-0.198-0.202-0.355-0.382-0.472-0.539c-0.225,0.386-0.577,0.674-1.058,0.862c-0.481,0.189-0.984,0.283-1.509,0.283
				c-0.894,0-1.709-0.229-2.446-0.687c-0.732-0.463-1.312-1.078-1.739-1.846c-0.427-0.773-0.64-1.601-0.64-2.486
				c0-0.651,0.124-1.285,0.371-1.9c0.247-0.615,0.591-1.157,1.031-1.624c0.445-0.467,0.961-0.831,1.55-1.091
				c0.589-0.265,1.213-0.398,1.873-0.398c0.476,0,0.925,0.103,1.348,0.31c0.427,0.202,0.806,0.49,1.139,0.863l0.802-1.132
				c0.054-0.027,0.085-0.04,0.094-0.04h0.101c0.027,0,0.052,0.011,0.074,0.034c0.022,0.023,0.034,0.049,0.034,0.081v3.726
				c0,0.081-0.036,0.121-0.108,0.121h-0.249c-0.085,0-0.128-0.04-0.128-0.121c0-0.265-0.054-0.561-0.162-0.889
				c-0.103-0.328-0.238-0.638-0.404-0.93c-0.162-0.296-0.35-0.557-0.566-0.782c-0.517-0.503-1.11-0.755-1.779-0.755
				c-0.512,0-1.002,0.114-1.469,0.344c-0.467,0.229-0.86,0.546-1.179,0.95c-0.337,0.431-0.57,0.923-0.701,1.476
				c-0.13,0.548-0.195,1.134-0.195,1.759C223.404,10.068,223.712,11.148,224.328,11.898z"/>
		</g>
		<g id="text3709">
			<path id="path58" inkscape:connector-curvature="0" d="M226.374,30.116c-0.876,0-1.664-0.232-2.365-0.694
				c-0.696-0.468-1.242-1.085-1.637-1.853c-0.395-0.772-0.593-1.584-0.593-2.433c0-0.629,0.112-1.251,0.337-1.866
				c0.229-0.615,0.546-1.161,0.95-1.638c0.409-0.476,0.898-0.854,1.469-1.131c0.571-0.279,1.184-0.418,1.84-0.418
				c0.651,0,1.262,0.141,1.833,0.425c0.575,0.278,1.067,0.658,1.476,1.139c0.409,0.48,0.723,1.02,0.943,1.617
				c0.22,0.598,0.33,1.222,0.33,1.873c0,0.634-0.112,1.251-0.337,1.853c-0.22,0.602-0.544,1.141-0.97,1.617
				c-0.422,0.476-0.916,0.846-1.482,1.112c0.175,0.409,0.355,0.726,0.539,0.95c0.184,0.229,0.44,0.344,0.768,0.344
				c0.346,0,0.642-0.119,0.889-0.357c0.247-0.238,0.371-0.528,0.371-0.869c0-0.032,0.016-0.061,0.047-0.088
				c0.036-0.026,0.07-0.04,0.101-0.04c0.103,0,0.155,0.061,0.155,0.182c0,0.661-0.13,1.267-0.391,1.82
				c-0.256,0.552-0.678,0.829-1.267,0.829c-0.324,0-0.591-0.081-0.802-0.243c-0.211-0.157-0.373-0.36-0.485-0.607
				c-0.108-0.243-0.193-0.525-0.256-0.849c-0.063-0.323-0.119-0.618-0.168-0.882C227.264,30.047,226.833,30.116,226.374,30.116z
				 M226.374,29.719c0.413,0,0.813-0.105,1.199-0.316c-0.085-0.395-0.218-0.71-0.398-0.943c-0.175-0.238-0.442-0.357-0.802-0.357
				c-0.22,0-0.407,0.083-0.559,0.249c-0.153,0.162-0.229,0.351-0.229,0.566c0,0.233,0.072,0.427,0.216,0.58
				C225.95,29.645,226.141,29.719,226.374,29.719z M225.229,28.917c0-0.202,0.049-0.393,0.148-0.573
				c0.099-0.18,0.236-0.323,0.411-0.431c0.18-0.112,0.375-0.169,0.586-0.169c0.4,0,0.717,0.131,0.95,0.391
				c0.234,0.256,0.44,0.604,0.62,1.044c0.305-0.229,0.561-0.499,0.768-0.809c0.206-0.314,0.366-0.642,0.478-0.984
				c0.117-0.346,0.2-0.71,0.249-1.092c0.054-0.387,0.081-0.772,0.081-1.159c0-0.638-0.065-1.238-0.195-1.799
				c-0.126-0.561-0.341-1.066-0.647-1.516c-0.265-0.399-0.602-0.721-1.011-0.963c-0.409-0.247-0.84-0.371-1.294-0.371
				c-0.463,0-0.898,0.121-1.307,0.364c-0.404,0.238-0.741,0.561-1.011,0.97c-0.315,0.459-0.535,0.968-0.66,1.53
				c-0.121,0.562-0.182,1.157-0.182,1.786c0,0.979,0.166,1.871,0.499,2.675c0.332,0.8,0.887,1.366,1.664,1.698
				C225.278,29.321,225.229,29.124,225.229,28.917L225.229,28.917z"/>
		</g>
		<g id="text3711">
			<path id="path61" inkscape:connector-curvature="0" d="M240.7,15.943c-0.103,0-0.198-0.043-0.283-0.128
				c-0.081-0.09-0.121-0.189-0.121-0.296c0-0.153,0.065-0.263,0.195-0.33l1.988-0.943l-1.988-0.923
				c-0.13-0.067-0.195-0.178-0.195-0.33c0-0.117,0.041-0.218,0.121-0.303c0.081-0.085,0.175-0.128,0.283-0.128
				c0.072,0,0.139,0.025,0.202,0.074l1.752,1.28l-0.202-2.237l-0.014-0.027c0-0.103,0.041-0.191,0.121-0.263
				c0.085-0.072,0.182-0.108,0.29-0.108c0.099,0,0.189,0.034,0.27,0.101c0.085,0.067,0.128,0.157,0.128,0.27v0.027l-0.216,2.237
				l1.752-1.28c0.063-0.049,0.13-0.074,0.202-0.074c0.112,0,0.207,0.043,0.283,0.128c0.081,0.085,0.121,0.186,0.121,0.303
				c0,0.153-0.065,0.263-0.195,0.33l-1.988,0.923l1.988,0.943c0.13,0.068,0.195,0.178,0.195,0.33c0,0.108-0.04,0.206-0.121,0.296
				c-0.076,0.085-0.171,0.128-0.283,0.128c-0.076,0-0.144-0.023-0.202-0.068l-1.752-1.28l0.216,2.23v0.027
				c0,0.108-0.043,0.197-0.128,0.27c-0.081,0.072-0.171,0.108-0.27,0.108c-0.108,0-0.204-0.035-0.29-0.108
				c-0.081-0.077-0.121-0.166-0.121-0.27l0.014-0.027l0.202-2.23l-1.752,1.28C240.849,15.92,240.781,15.943,240.7,15.943z"/>
		</g>
		<g id="text3713">
			<path id="path64" inkscape:connector-curvature="0" d="M257.403,30.61c-1.006-0.794-1.875-1.707-2.607-2.739
				c-0.723-1.023-1.319-2.117-1.786-3.282c-0.459-1.165-0.803-2.382-1.032-3.652c-0.229-1.27-0.344-2.545-0.344-3.824
				c0-1.297,0.115-2.58,0.344-3.851c0.229-1.27,0.578-2.492,1.045-3.666c0.476-1.173,1.081-2.272,1.813-3.295
				c0.732-1.023,1.588-1.919,2.567-2.686c0-0.035,0.044-0.053,0.132-0.053h0.251c0.053,0,0.101,0.026,0.146,0.079
				c0.044,0.044,0.066,0.097,0.066,0.159c0,0.079-0.018,0.137-0.053,0.172c-0.882,0.865-1.619,1.791-2.21,2.779
				c-0.582,0.988-1.054,2.042-1.416,3.163c-0.353,1.112-0.609,2.267-0.768,3.467c-0.159,1.191-0.238,2.435-0.238,3.731
				c0,5.743,1.535,10.106,4.605,13.088c0.053,0.053,0.079,0.128,0.079,0.225c0,0.044-0.026,0.093-0.079,0.146
				c-0.044,0.062-0.088,0.093-0.132,0.093h-0.251C257.447,30.663,257.403,30.646,257.403,30.61z"/>
		</g>
		<g id="text3715">
			<path id="path67" inkscape:connector-curvature="0" d="M257.03,21.629v-0.485c1.15,0,1.725-0.146,1.725-0.438v-7.244
				c-0.476,0.229-1.078,0.344-1.806,0.344v-0.485c1.128,0,1.979-0.294,2.554-0.883h0.195c0.031,0,0.061,0.014,0.088,0.041
				c0.031,0.022,0.047,0.049,0.047,0.081v8.146c0,0.292,0.575,0.438,1.725,0.438v0.485H257.03z"/>
		</g>
		<g id="text3717" transform="scale(1.2650587,0.79047714)">
			<path id="path70" inkscape:connector-curvature="0" d="M217.251,22.581h-5.319v-1.543h5.319V22.581z"/>
		</g>
		<g id="text3719">
			<path id="path73" inkscape:connector-curvature="0" d="M282.24,21.785c-0.562,0-1.078-0.146-1.55-0.438
				c-0.467-0.297-0.836-0.69-1.105-1.18c-0.265-0.494-0.398-1.015-0.398-1.563c0-0.539,0.121-1.051,0.364-1.537
				c0.247-0.485,0.589-0.876,1.024-1.172c0.44-0.301,0.93-0.452,1.469-0.452c0.422,0,0.789,0.072,1.098,0.216
				c0.315,0.139,0.573,0.335,0.775,0.586c0.202,0.251,0.355,0.548,0.458,0.89c0.103,0.341,0.155,0.716,0.155,1.125
				c0,0.121-0.047,0.182-0.141,0.182h-3.996v0.148c0,0.764,0.153,1.42,0.458,1.968c0.31,0.548,0.813,0.822,1.509,0.822
				c0.283,0,0.544-0.063,0.782-0.189c0.243-0.126,0.452-0.301,0.627-0.525c0.18-0.224,0.301-0.465,0.364-0.721
				c0.009-0.032,0.025-0.058,0.047-0.081c0.027-0.027,0.056-0.04,0.088-0.04h0.121c0.094,0,0.141,0.058,0.141,0.175
				c-0.13,0.521-0.411,0.95-0.842,1.287C283.258,21.618,282.775,21.785,282.24,21.785z M280.407,18.099h3.147
				c0-0.346-0.049-0.696-0.148-1.051c-0.095-0.355-0.254-0.649-0.479-0.882c-0.224-0.238-0.519-0.357-0.883-0.357
				c-0.521,0-0.925,0.245-1.213,0.734C280.549,17.028,280.407,17.546,280.407,18.099z"/>
		</g>
		<g id="text3721" transform="scale(1.2448276,0.8033241)">
			<path id="path76" inkscape:connector-curvature="0" d="M235.693,13.305h-3.812v-1.106h3.812V13.305z"/>
		</g>
		<g id="text3723">
			<path id="path79" inkscape:connector-curvature="0" d="M298.093,19.052c-0.671-0.529-1.249-1.138-1.738-1.826
				c-0.482-0.682-0.879-1.412-1.191-2.188c-0.305-0.776-0.535-1.588-0.688-2.435c-0.153-0.847-0.229-1.697-0.229-2.55
				c0-0.865,0.077-1.72,0.229-2.567c0.153-0.847,0.385-1.661,0.697-2.444c0.318-0.782,0.721-1.514,1.209-2.197
				c0.489-0.682,1.059-1.279,1.712-1.791c0-0.023,0.03-0.035,0.088-0.035h0.168c0.035,0,0.068,0.018,0.097,0.053
				c0.03,0.029,0.044,0.065,0.044,0.106c0,0.053-0.011,0.091-0.035,0.115c-0.588,0.576-1.078,1.194-1.473,1.853
				c-0.388,0.659-0.702,1.362-0.944,2.108c-0.235,0.741-0.406,1.512-0.512,2.311c-0.106,0.794-0.159,1.623-0.159,2.488
				c0,3.829,1.023,6.737,3.07,8.725c0.035,0.035,0.053,0.085,0.053,0.15c0,0.029-0.018,0.062-0.053,0.097
				c-0.029,0.041-0.058,0.062-0.088,0.062h-0.168C298.123,19.087,298.093,19.075,298.093,19.052z"/>
		</g>
		<g id="text3725">
			<path id="path82" inkscape:connector-curvature="0" d="M300.009,8.712V8.359c0.69,0,1.036-0.198,1.036-0.594V2.259
				C300.825,2.22,300.48,2.2,300.009,2.2V1.847h1.924c0.033,0,0.055,0.013,0.068,0.039l3.558,5.236V2.794
				c0-0.396-0.345-0.594-1.035-0.594V1.847h2.39V2.2c-0.687,0-1.031,0.198-1.031,0.594v5.83c0,0.02-0.013,0.039-0.04,0.059
				c-0.026,0.02-0.047,0.029-0.063,0.029h-0.123c-0.033,0-0.055-0.013-0.068-0.039l-4.22-6.213v5.305
				c0,0.396,0.345,0.594,1.035,0.594v0.353H300.009z"/>
			<path id="path84" inkscape:connector-curvature="0" d="M308.263,7.505V4.732h-0.834v-0.26c0.438,0,0.76-0.205,0.967-0.613
				c0.206-0.409,0.309-0.852,0.309-1.33h0.289v1.85h1.418v0.353h-1.418v2.753c0,0.278,0.046,0.522,0.138,0.731
				c0.095,0.21,0.263,0.314,0.505,0.314c0.229,0,0.394-0.109,0.496-0.329c0.101-0.222,0.152-0.461,0.152-0.717V6.891h0.289v0.613
				c0,0.21-0.039,0.417-0.118,0.623c-0.075,0.203-0.187,0.37-0.339,0.5c-0.15,0.131-0.334,0.196-0.549,0.196
				c-0.403,0-0.721-0.119-0.957-0.358C308.379,8.225,308.263,7.904,308.263,7.505z"/>
		</g>
		<g id="text3727">
			<path id="path87" inkscape:connector-curvature="0" d="M302.513,19.898c-0.416,0-0.763-0.11-1.04-0.329
				c-0.278-0.223-0.494-0.509-0.648-0.859c-0.151-0.353-0.255-0.723-0.314-1.109c-0.059-0.386-0.088-0.776-0.088-1.173
				c0-0.53,0.103-1.062,0.309-1.595c0.206-0.533,0.509-0.975,0.908-1.325c0.402-0.35,0.878-0.525,1.428-0.525
				c0.229,0,0.442,0.044,0.639,0.132c0.2,0.085,0.355,0.213,0.466,0.383c0.114,0.167,0.171,0.37,0.171,0.608
				c0,0.137-0.047,0.254-0.142,0.348c-0.092,0.092-0.206,0.137-0.343,0.137c-0.131,0-0.244-0.047-0.339-0.142
				c-0.095-0.095-0.142-0.21-0.142-0.344c0-0.131,0.047-0.244,0.142-0.339c0.095-0.095,0.207-0.143,0.339-0.143h0.054
				c-0.085-0.121-0.206-0.209-0.363-0.265c-0.154-0.059-0.314-0.088-0.481-0.088c-0.202,0-0.39,0.044-0.564,0.132
				c-0.17,0.089-0.324,0.208-0.462,0.358c-0.137,0.151-0.251,0.317-0.343,0.5c-0.092,0.18-0.164,0.386-0.216,0.618
				c-0.049,0.232-0.081,0.45-0.093,0.653c-0.013,0.203-0.019,0.458-0.019,0.765c0.117-0.275,0.285-0.499,0.5-0.672
				c0.216-0.177,0.46-0.265,0.731-0.265c0.298,0,0.57,0.061,0.814,0.182c0.246,0.121,0.457,0.289,0.633,0.505
				c0.177,0.213,0.311,0.457,0.403,0.731c0.095,0.275,0.142,0.553,0.142,0.834c0,0.393-0.088,0.767-0.265,1.124
				c-0.173,0.353-0.419,0.634-0.736,0.844C303.275,19.793,302.915,19.898,302.513,19.898z M302.513,19.579
				c0.259,0,0.466-0.059,0.623-0.176c0.157-0.118,0.272-0.273,0.344-0.466c0.075-0.196,0.121-0.393,0.138-0.589
				c0.019-0.2,0.029-0.443,0.029-0.732c0-0.379-0.018-0.703-0.053-0.972c-0.036-0.268-0.134-0.504-0.294-0.707
				c-0.16-0.206-0.406-0.309-0.736-0.309c-0.271,0-0.496,0.092-0.673,0.275c-0.173,0.183-0.301,0.416-0.383,0.697
				c-0.078,0.278-0.117,0.546-0.117,0.804c0,0.089,0.003,0.155,0.01,0.202c0,0.009-0.002,0.018-0.005,0.024
				c0,0.007-0.002,0.014-0.005,0.024c0,0.288,0.029,0.579,0.088,0.873s0.171,0.544,0.339,0.747
				C301.983,19.477,302.215,19.579,302.513,19.579z"/>
			<path id="path89" inkscape:connector-curvature="0" d="M307.537,19.898c-0.821,0-1.381-0.337-1.678-1.011
				c-0.294-0.677-0.441-1.482-0.441-2.414c0-0.582,0.052-1.13,0.157-1.644c0.108-0.514,0.319-0.949,0.633-1.305
				c0.318-0.36,0.761-0.54,1.33-0.54c0.442,0,0.803,0.108,1.085,0.324c0.282,0.216,0.496,0.496,0.643,0.839
				c0.147,0.34,0.247,0.707,0.299,1.099c0.055,0.389,0.083,0.798,0.083,1.227c0,0.576-0.054,1.116-0.162,1.619
				c-0.105,0.501-0.313,0.927-0.624,1.281C308.552,19.723,308.11,19.898,307.537,19.898z M307.537,19.638
				c0.373,0,0.651-0.191,0.834-0.575c0.184-0.383,0.296-0.806,0.339-1.27c0.042-0.465,0.064-0.959,0.064-1.482
				c0-0.504-0.021-0.969-0.064-1.394c-0.042-0.425-0.155-0.81-0.339-1.153c-0.18-0.347-0.458-0.52-0.834-0.52
				c-0.379,0-0.661,0.173-0.844,0.52c-0.184,0.347-0.297,0.733-0.339,1.158c-0.043,0.422-0.064,0.885-0.064,1.389
				c0,0.373,0.008,0.725,0.024,1.055c0.02,0.33,0.068,0.672,0.147,1.026c0.079,0.35,0.205,0.646,0.378,0.888
				C307.018,19.519,307.25,19.638,307.537,19.638z"/>
		</g>
		<g id="text3729">
			<path id="path92" inkscape:connector-curvature="0" d="M313.174,19.087c-0.106,0-0.159-0.053-0.159-0.159
				c0-0.053,0.012-0.091,0.035-0.115c2.058-2.011,3.088-4.932,3.088-8.76c0-3.829-1.018-6.737-3.052-8.725
				c-0.047-0.029-0.071-0.079-0.071-0.15c0-0.041,0.014-0.076,0.044-0.106c0.035-0.035,0.073-0.053,0.115-0.053h0.168
				c0.035,0,0.065,0.012,0.088,0.035c0.865,0.682,1.585,1.512,2.161,2.488c0.576,0.977,0.997,2.018,1.262,3.123
				c0.27,1.106,0.406,2.235,0.406,3.388c0,0.853-0.074,1.694-0.221,2.523c-0.141,0.824-0.371,1.635-0.688,2.435
				c-0.312,0.806-0.709,1.547-1.191,2.223c-0.482,0.682-1.059,1.288-1.729,1.817c-0.024,0.024-0.053,0.035-0.088,0.035H313.174z"/>
		</g>
		<g id="text3731">
			<path id="path95" inkscape:connector-curvature="0" d="M319.16,30.663c-0.159,0-0.238-0.079-0.238-0.238
				c0-0.079,0.018-0.137,0.053-0.172c3.088-3.017,4.632-7.397,4.632-13.141c0-5.743-1.526-10.106-4.579-13.087
				c-0.071-0.044-0.106-0.119-0.106-0.225c0-0.062,0.022-0.115,0.066-0.159c0.053-0.053,0.11-0.079,0.172-0.079h0.251
				c0.053,0,0.097,0.018,0.132,0.053c1.297,1.023,2.378,2.267,3.242,3.732s1.495,3.026,1.892,4.685
				c0.406,1.659,0.609,3.352,0.609,5.081c0,1.279-0.11,2.541-0.331,3.785c-0.212,1.235-0.556,2.453-1.032,3.652
				c-0.468,1.209-1.063,2.32-1.786,3.335c-0.723,1.023-1.588,1.932-2.594,2.726c-0.035,0.035-0.079,0.053-0.132,0.053H319.16z"/>
		</g>
		<g id="text3733">
			<path id="path98" inkscape:connector-curvature="0" d="M328.45,15.943c-0.103,0-0.197-0.043-0.283-0.128
				c-0.081-0.09-0.121-0.189-0.121-0.296c0-0.153,0.065-0.263,0.196-0.33l1.987-0.943l-1.987-0.923
				c-0.131-0.067-0.196-0.178-0.196-0.33c0-0.117,0.04-0.218,0.121-0.303c0.081-0.085,0.175-0.128,0.283-0.128
				c0.072,0,0.139,0.025,0.202,0.074l1.752,1.28l-0.202-2.237l-0.014-0.027c0-0.103,0.04-0.191,0.121-0.263
				c0.085-0.072,0.182-0.108,0.289-0.108c0.099,0,0.189,0.034,0.27,0.101c0.085,0.067,0.128,0.157,0.128,0.27v0.027l-0.216,2.237
				l1.752-1.28c0.063-0.049,0.13-0.074,0.202-0.074c0.112,0,0.207,0.043,0.283,0.128c0.081,0.085,0.121,0.186,0.121,0.303
				c0,0.153-0.065,0.263-0.195,0.33l-1.988,0.923l1.988,0.943c0.13,0.068,0.195,0.178,0.195,0.33c0,0.108-0.041,0.206-0.121,0.296
				c-0.076,0.085-0.171,0.128-0.283,0.128c-0.076,0-0.143-0.023-0.202-0.068l-1.752-1.28l0.216,2.23v0.027
				c0,0.108-0.043,0.197-0.128,0.27c-0.081,0.072-0.171,0.108-0.27,0.108c-0.108,0-0.204-0.035-0.289-0.108
				c-0.081-0.077-0.121-0.166-0.121-0.27l0.014-0.027l0.202-2.23l-1.752,1.28C328.599,15.92,328.531,15.943,328.45,15.943z"/>
		</g>
		<g id="text3735">
			<path id="path101" inkscape:connector-curvature="0" d="M338.03,21.629v-0.485c1.15,0,1.725-0.146,1.725-0.438v-7.244
				c-0.476,0.229-1.078,0.344-1.806,0.344v-0.485c1.127,0,1.978-0.294,2.554-0.883h0.195c0.031,0,0.061,0.014,0.087,0.041
				c0.032,0.022,0.047,0.049,0.047,0.081v8.146c0,0.292,0.575,0.438,1.725,0.438v0.485H338.03z"/>
			<path id="path103" inkscape:connector-curvature="0" d="M347.1,21.933c-1.128,0-1.896-0.462-2.305-1.388
				c-0.405-0.93-0.607-2.035-0.607-3.315c0-0.799,0.072-1.552,0.216-2.257c0.148-0.705,0.438-1.303,0.87-1.792
				c0.436-0.494,1.044-0.741,1.826-0.741c0.606,0,1.103,0.148,1.489,0.445c0.387,0.297,0.68,0.681,0.883,1.152
				c0.202,0.467,0.339,0.97,0.411,1.509c0.077,0.535,0.115,1.096,0.115,1.684c0,0.791-0.074,1.532-0.222,2.224
				c-0.144,0.687-0.429,1.273-0.856,1.758C348.493,21.692,347.886,21.933,347.1,21.933z M347.1,21.576
				c0.512,0,0.893-0.263,1.145-0.788c0.251-0.525,0.406-1.107,0.465-1.745s0.088-1.316,0.088-2.035c0-0.692-0.029-1.33-0.088-1.914
				c-0.058-0.584-0.213-1.112-0.465-1.584c-0.247-0.476-0.629-0.714-1.145-0.714c-0.522,0-0.908,0.238-1.159,0.714
				c-0.252,0.476-0.407,1.006-0.465,1.59c-0.058,0.579-0.087,1.215-0.087,1.907c0,0.512,0.011,0.995,0.033,1.448
				c0.027,0.454,0.095,0.924,0.202,1.409c0.108,0.48,0.281,0.887,0.519,1.219C346.386,21.412,346.705,21.576,347.1,21.576z"/>
		</g>
		<g id="text3737">
			<path id="path106" inkscape:connector-curvature="0" d="M354.563,16.744c-0.416,0-0.763-0.11-1.041-0.329
				c-0.278-0.222-0.494-0.509-0.647-0.859c-0.151-0.353-0.255-0.723-0.314-1.109c-0.058-0.386-0.088-0.777-0.088-1.173
				c0-0.53,0.103-1.062,0.309-1.595c0.206-0.533,0.509-0.975,0.908-1.325c0.402-0.35,0.878-0.525,1.428-0.525
				c0.229,0,0.442,0.044,0.638,0.133c0.2,0.085,0.355,0.213,0.466,0.383c0.114,0.167,0.171,0.37,0.171,0.608
				c0,0.138-0.047,0.254-0.142,0.348c-0.092,0.092-0.206,0.137-0.344,0.137c-0.131,0-0.244-0.047-0.339-0.142
				c-0.095-0.095-0.142-0.209-0.142-0.344c0-0.131,0.047-0.244,0.142-0.339c0.095-0.095,0.207-0.142,0.339-0.142h0.054
				c-0.085-0.121-0.206-0.21-0.363-0.265c-0.154-0.059-0.314-0.089-0.481-0.089c-0.203,0-0.391,0.044-0.564,0.133
				c-0.17,0.088-0.324,0.208-0.462,0.358c-0.137,0.151-0.252,0.318-0.344,0.501c-0.092,0.18-0.163,0.386-0.216,0.618
				c-0.049,0.232-0.08,0.45-0.093,0.653c-0.013,0.203-0.02,0.458-0.02,0.766c0.118-0.275,0.285-0.499,0.501-0.672
				c0.216-0.176,0.46-0.265,0.731-0.265c0.298,0,0.569,0.061,0.814,0.182c0.245,0.121,0.457,0.289,0.634,0.505
				c0.176,0.213,0.31,0.456,0.402,0.731c0.095,0.275,0.142,0.553,0.142,0.834c0,0.393-0.088,0.767-0.265,1.124
				c-0.173,0.353-0.419,0.635-0.736,0.844C355.325,16.639,354.965,16.744,354.563,16.744z M354.563,16.425
				c0.258,0,0.466-0.059,0.623-0.177c0.157-0.118,0.271-0.273,0.343-0.466c0.076-0.196,0.121-0.393,0.138-0.589
				c0.02-0.2,0.029-0.443,0.029-0.731c0-0.379-0.018-0.703-0.054-0.972s-0.134-0.504-0.294-0.707
				c-0.16-0.206-0.405-0.309-0.736-0.309c-0.271,0-0.495,0.092-0.672,0.275c-0.174,0.183-0.301,0.415-0.383,0.697
				c-0.079,0.278-0.118,0.546-0.118,0.805c0,0.088,0.003,0.155,0.01,0.201c0,0.01-0.002,0.018-0.005,0.024
				c0,0.007-0.002,0.015-0.005,0.025c0,0.288,0.029,0.579,0.089,0.873c0.058,0.294,0.171,0.543,0.339,0.746
				C354.033,16.323,354.265,16.425,354.563,16.425z"/>
		</g>
		<g id="text3739">
		</g>
	</g>
	<path id="path3142-7" inkscape:connector-curvature="0" fill="none" stroke="#000000" stroke-width="1.0546" d="M216.098,22.012
		h15.811"/>
	<path id="path3142-7-4" inkscape:connector-curvature="0" fill="none" stroke="#000000" stroke-width="0.9654" d="M311.921,13.631
		h13.251"/>
</g>
</svg>
