<?xml version="1.0" encoding="utf-8"?>
<!-- Generator: Adobe Illustrator 16.0.0, SVG Export Plug-In . SVG Version: 6.00 Build 0)  -->
<!DOCTYPE svg PUBLIC "-//W3C//DTD SVG 1.1//EN" "http://www.w3.org/Graphics/SVG/1.1/DTD/svg11.dtd">
<svg version="1.1"
	 id="svg3020" xmlns:dc="http://purl.org/dc/elements/1.1/" xmlns:cc="http://creativecommons.org/ns#" xmlns:rdf="http://www.w3.org/1999/02/22-rdf-syntax-ns#" xmlns:svg="http://www.w3.org/2000/svg" xmlns:inkscape="http://www.inkscape.org/namespaces/inkscape"
	 xmlns="http://www.w3.org/2000/svg" xmlns:xlink="http://www.w3.org/1999/xlink" x="0px" y="0px" width="320px" height="60px"
	 viewBox="0 0 320 60" enable-background="new 0 0 320 60" xml:space="preserve">
<g id="text3030" transform="scale(0.95814898,1.043679)">
</g>
<g id="g3009" transform="matrix(1.4688253,0,0,1.4688253,-277.70507,-0.75165246)">
	<g id="flowRoot3055" transform="matrix(0.68081616,0,0,0.68081616,189.0661,0.51173714)">
	</g>
	<g id="flowRoot3063" transform="matrix(0.68081616,0,0,0.68081616,189.0661,0.51173714)">
	</g>
	<g id="g3516" transform="matrix(1.2886146,0,0,1.2886146,-75.381333,10.672822)">
		<g id="text3518">
			<path id="path49" inkscape:connector-curvature="0" d="M217.409,13.221l-2.817-8.659c-0.072-0.193-0.211-0.314-0.418-0.364
				c-0.207-0.05-0.476-0.074-0.809-0.074V3.639h3.699v0.485c-0.773,0-1.159,0.123-1.159,0.37v0.067l2.203,6.792l1.88-5.808
				l-0.317-0.984c-0.072-0.193-0.211-0.314-0.418-0.364c-0.207-0.05-0.476-0.074-0.809-0.074V3.639h3.693v0.485
				c-0.782,0-1.172,0.123-1.172,0.37c0,0.013,0.005,0.034,0.013,0.061c0.009,0.027,0.014,0.045,0.014,0.054l2.197,6.745l2.069-6.415
				c0.009-0.027,0.013-0.07,0.013-0.128c0-0.243-0.128-0.418-0.384-0.526c-0.256-0.108-0.523-0.161-0.802-0.161V3.639h2.951v0.485
				c-0.727,0-1.177,0.272-1.348,0.815l-2.695,8.281c-0.032,0.099-0.099,0.148-0.202,0.148h-0.101c-0.103,0-0.171-0.05-0.202-0.148
				l-2.278-7.028l-2.291,7.028c-0.031,0.099-0.101,0.148-0.209,0.148h-0.094C217.51,13.369,217.44,13.32,217.409,13.221z"/>
			<path id="path51" inkscape:connector-curvature="0" d="M227.766,13.067v-0.486c0.948,0,1.422-0.146,1.422-0.438V4.562
				c0-0.292-0.474-0.438-1.422-0.438V3.639h5.074c0.467,0,0.939,0.092,1.415,0.276c0.476,0.18,0.869,0.449,1.179,0.808
				c0.314,0.355,0.472,0.775,0.472,1.26c0,0.561-0.231,1.033-0.694,1.415c-0.458,0.377-0.995,0.624-1.611,0.741
				c0.4,0,0.811,0.11,1.233,0.33c0.422,0.22,0.768,0.515,1.038,0.883c0.27,0.368,0.404,0.759,0.404,1.173
				c0,0.503-0.151,0.948-0.451,1.334c-0.297,0.386-0.683,0.685-1.159,0.896c-0.476,0.207-0.955,0.311-1.435,0.311H227.766z
				 M230.387,12.143c0,0.198,0.056,0.321,0.168,0.37c0.112,0.045,0.29,0.068,0.532,0.068h1.752c0.359,0,0.692-0.094,0.997-0.283
				c0.31-0.188,0.555-0.44,0.734-0.754c0.18-0.319,0.27-0.658,0.27-1.017c0-0.351-0.074-0.692-0.222-1.025
				c-0.148-0.336-0.362-0.613-0.64-0.829c-0.274-0.216-0.589-0.323-0.943-0.323h-2.648V12.143L230.387,12.143z M230.387,7.985h2.069
				c0.278,0,0.539-0.049,0.781-0.148c0.247-0.103,0.467-0.249,0.66-0.438c0.198-0.193,0.348-0.409,0.451-0.647
				c0.108-0.243,0.162-0.499,0.162-0.768c0-0.238-0.04-0.467-0.121-0.688c-0.076-0.22-0.191-0.42-0.344-0.6
				c-0.153-0.18-0.333-0.319-0.539-0.418c-0.207-0.103-0.429-0.155-0.667-0.155h-1.752c-0.166,0-0.296,0.007-0.391,0.02
				c-0.09,0.013-0.164,0.054-0.222,0.121c-0.058,0.063-0.087,0.162-0.087,0.296V7.985L230.387,7.985z"/>
			<path id="path53" inkscape:connector-curvature="0" d="M240.252,11.59c0.333,0.405,0.737,0.721,1.213,0.95
				c0.481,0.229,0.982,0.344,1.503,0.344c0.512,0,0.977-0.13,1.395-0.391c0.418-0.261,0.627-0.631,0.627-1.112v-1.159
				c0-0.292-0.575-0.438-1.725-0.438V9.3h3.955v0.485c-0.292,0-0.523,0.025-0.694,0.074c-0.171,0.049-0.256,0.171-0.256,0.364v2.722
				c0,0.031-0.013,0.061-0.04,0.088c-0.022,0.023-0.05,0.034-0.081,0.034c-0.085,0-0.229-0.101-0.431-0.303
				c-0.198-0.202-0.355-0.382-0.472-0.539c-0.225,0.386-0.577,0.674-1.058,0.862c-0.481,0.189-0.984,0.283-1.509,0.283
				c-0.894,0-1.709-0.229-2.446-0.687c-0.732-0.463-1.312-1.078-1.738-1.847c-0.427-0.772-0.64-1.602-0.64-2.486
				c0-0.652,0.124-1.285,0.37-1.9c0.247-0.616,0.591-1.157,1.031-1.624c0.444-0.467,0.961-0.831,1.55-1.092
				c0.588-0.265,1.213-0.398,1.873-0.398c0.476,0,0.926,0.103,1.348,0.31c0.427,0.202,0.806,0.49,1.139,0.862l0.802-1.132
				c0.054-0.027,0.085-0.041,0.094-0.041h0.101c0.027,0,0.052,0.011,0.074,0.034c0.022,0.022,0.034,0.05,0.034,0.081v3.726
				c0,0.081-0.036,0.121-0.108,0.121h-0.249c-0.085,0-0.128-0.04-0.128-0.121c0-0.265-0.054-0.562-0.162-0.889
				c-0.103-0.328-0.238-0.638-0.404-0.93c-0.162-0.296-0.351-0.557-0.566-0.781c-0.517-0.503-1.11-0.755-1.779-0.755
				c-0.512,0-1.002,0.115-1.469,0.344s-0.86,0.546-1.179,0.95c-0.337,0.431-0.571,0.923-0.701,1.476
				c-0.13,0.548-0.195,1.134-0.195,1.759C239.329,9.76,239.636,10.84,240.252,11.59z"/>
			<path id="path55" inkscape:connector-curvature="0" d="M250.244,13.067v-0.486c0.463,0,0.912-0.025,1.348-0.074
				c0.436-0.054,0.654-0.175,0.654-0.364V4.562c0-0.198-0.056-0.319-0.168-0.364c-0.108-0.05-0.285-0.074-0.532-0.074h-0.579
				c-0.759,0-1.298,0.166-1.617,0.498c-0.166,0.166-0.285,0.434-0.357,0.802c-0.072,0.364-0.133,0.822-0.182,1.374h-0.398
				l0.263-3.16h8.43l0.263,3.16h-0.404c-0.054-0.593-0.115-1.062-0.182-1.408c-0.063-0.35-0.18-0.606-0.351-0.768
				c-0.323-0.332-0.862-0.498-1.617-0.498h-0.579c-0.166,0-0.296,0.007-0.391,0.02c-0.09,0.013-0.164,0.054-0.222,0.121
				c-0.058,0.063-0.087,0.162-0.087,0.296v7.581c0,0.189,0.218,0.31,0.653,0.364c0.436,0.049,0.883,0.074,1.341,0.074v0.486H250.244
				z"/>
		</g>
		<g id="text3520">
			<path id="path58" inkscape:connector-curvature="0" d="M271.092,7.797h-7.992V6.719h7.992V7.797z M271.092,10.627h-7.992V9.549
				h7.992V10.627z"/>
		</g>
		<g id="text3522">
			<path id="path61" inkscape:connector-curvature="0" d="M279,13.369c-1.127,0-1.896-0.463-2.304-1.388
				c-0.404-0.93-0.606-2.035-0.606-3.315c0-0.799,0.072-1.552,0.215-2.257c0.148-0.705,0.438-1.303,0.869-1.792
				c0.436-0.494,1.044-0.741,1.826-0.741c0.607,0,1.103,0.148,1.489,0.445c0.386,0.296,0.681,0.681,0.883,1.152
				c0.202,0.467,0.339,0.97,0.411,1.509c0.076,0.535,0.115,1.096,0.115,1.685c0,0.791-0.074,1.532-0.222,2.224
				c-0.144,0.687-0.429,1.273-0.856,1.759C280.393,13.129,279.786,13.369,279,13.369z M279,13.012c0.512,0,0.894-0.263,1.146-0.788
				s0.407-1.108,0.465-1.745c0.058-0.638,0.088-1.316,0.088-2.035c0-0.692-0.029-1.33-0.088-1.914
				c-0.058-0.584-0.213-1.112-0.465-1.583c-0.247-0.476-0.629-0.714-1.146-0.714c-0.521,0-0.907,0.238-1.159,0.714
				c-0.252,0.476-0.407,1.006-0.465,1.59c-0.058,0.58-0.087,1.215-0.087,1.907c0,0.512,0.011,0.995,0.034,1.449
				c0.027,0.454,0.094,0.924,0.202,1.409c0.108,0.48,0.281,0.887,0.519,1.22C278.286,12.848,278.605,13.012,279,13.012z"/>
		</g>
		<g id="text3524">
			<path id="path64" inkscape:connector-curvature="0" d="M284.359,12.305c0-0.207,0.076-0.384,0.229-0.532
				c0.153-0.149,0.33-0.222,0.532-0.222c0.126,0,0.249,0.034,0.371,0.101c0.121,0.068,0.216,0.161,0.283,0.283
				s0.101,0.245,0.101,0.371c0,0.202-0.074,0.379-0.222,0.532c-0.148,0.153-0.326,0.23-0.532,0.23c-0.202,0-0.379-0.076-0.532-0.23
				C284.435,12.684,284.359,12.507,284.359,12.305z"/>
		</g>
		<g id="text3526">
			<path id="path67" inkscape:connector-curvature="0" d="M288.449,12.709c0-0.512,0.045-1.013,0.135-1.502
				c0.09-0.49,0.22-0.973,0.391-1.449c0.175-0.481,0.384-0.95,0.627-1.408c0.247-0.463,0.517-0.896,0.809-1.301l1.26-1.752h-1.577
				c-1.635,0-2.478,0.022-2.527,0.068c-0.121,0.148-0.236,0.573-0.344,1.273h-0.398l0.451-2.897h0.404v0.04
				c0,0.166,0.281,0.274,0.842,0.324c0.562,0.05,1.112,0.074,1.651,0.074h2.567v0.357c0,0.009-0.002,0.016-0.007,0.02
				c0,0.004-0.002,0.011-0.007,0.02l-1.9,2.668c-0.467,0.692-0.759,1.46-0.876,2.304c-0.117,0.845-0.175,1.898-0.175,3.16
				c0,0.18-0.065,0.335-0.196,0.465c-0.13,0.131-0.285,0.196-0.465,0.196c-0.184,0-0.341-0.065-0.472-0.196
				C288.514,13.044,288.449,12.889,288.449,12.709z"/>
		</g>
		<g id="text3528">
			<path id="path70" inkscape:connector-curvature="0" d="M295.108,11.408V7.601h-1.145V7.244c0.602,0,1.044-0.281,1.328-0.842
				c0.283-0.562,0.425-1.17,0.425-1.826h0.397v2.54h1.947v0.485h-1.947v3.78c0,0.382,0.063,0.717,0.189,1.004
				c0.13,0.288,0.362,0.431,0.694,0.431c0.314,0,0.541-0.151,0.681-0.451c0.139-0.305,0.209-0.633,0.209-0.984v-0.815h0.398v0.842
				c0,0.288-0.054,0.573-0.162,0.856c-0.103,0.279-0.258,0.508-0.465,0.688c-0.207,0.18-0.458,0.269-0.755,0.269
				c-0.552,0-0.991-0.164-1.314-0.492C295.268,12.397,295.108,11.957,295.108,11.408z"/>
		</g>
		<g id="text3530">
			<path id="path73" inkscape:connector-curvature="0" d="M299.249,15.92v-0.353c0.229,0,0.417-0.018,0.564-0.054
				c0.148-0.036,0.221-0.124,0.221-0.265v-2.743c0-0.18-0.028-0.309-0.084-0.387c-0.052-0.082-0.129-0.131-0.23-0.147
				c-0.102-0.02-0.259-0.03-0.472-0.03v-0.353l1.458-0.108v0.981c0.134-0.288,0.332-0.523,0.593-0.706
				c0.265-0.183,0.553-0.275,0.864-0.275c0.464,0,0.813,0.111,1.045,0.334c0.235,0.222,0.353,0.563,0.353,1.021v2.414
				c0,0.141,0.074,0.229,0.221,0.265c0.147,0.036,0.335,0.054,0.564,0.054v0.353h-2.301v-0.353c0.229,0,0.417-0.018,0.564-0.054
				c0.147-0.036,0.221-0.124,0.221-0.265v-2.385c0-0.327-0.047-0.595-0.142-0.805c-0.095-0.213-0.29-0.319-0.584-0.319
				c-0.389,0-0.71,0.156-0.962,0.466c-0.249,0.311-0.373,0.664-0.373,1.06v1.983c0,0.141,0.074,0.229,0.221,0.265
				c0.147,0.036,0.334,0.054,0.56,0.054v0.353H299.249z"/>
			<path id="path75" inkscape:connector-curvature="0" d="M306.748,15.92l-1.301-3.656c-0.059-0.147-0.144-0.237-0.255-0.27
				c-0.111-0.036-0.273-0.054-0.486-0.054v-0.353h2.071v0.353c-0.395,0-0.593,0.084-0.593,0.251c0.003,0.009,0.005,0.02,0.005,0.029
				c0.003,0.01,0.005,0.025,0.005,0.044l0.966,2.709l0.835-2.36l-0.133-0.349c-0.052-0.147-0.136-0.237-0.25-0.27
				c-0.115-0.036-0.277-0.054-0.486-0.054v-0.353h1.982v0.353c-0.395,0-0.593,0.084-0.593,0.251c0,0.026,0.003,0.051,0.01,0.073
				l1.006,2.832l0.913-2.562c0.013-0.052,0.02-0.1,0.02-0.142c0-0.141-0.061-0.251-0.182-0.329c-0.118-0.082-0.25-0.123-0.397-0.123
				v-0.353h1.708v0.353c-0.203,0-0.378,0.054-0.525,0.162c-0.144,0.105-0.251,0.249-0.319,0.432l-1.198,3.386
				c-0.023,0.075-0.074,0.112-0.152,0.112h-0.078c-0.078,0-0.129-0.037-0.152-0.112l-1.016-2.866l-1.015,2.866
				c-0.033,0.075-0.086,0.112-0.157,0.112h-0.074C306.823,16.032,306.771,15.995,306.748,15.92z"/>
			<path id="path77" inkscape:connector-curvature="0" d="M312.832,15.92V9.972c0-0.18-0.028-0.309-0.083-0.387
				c-0.053-0.082-0.13-0.131-0.231-0.147c-0.101-0.02-0.258-0.029-0.471-0.029V9.054l1.486-0.108v3.146
				c0.111-0.124,0.24-0.232,0.387-0.324c0.151-0.095,0.311-0.167,0.481-0.216c0.17-0.049,0.344-0.074,0.521-0.074
				c0.301,0,0.579,0.061,0.834,0.182c0.258,0.121,0.482,0.288,0.672,0.5c0.19,0.213,0.337,0.458,0.442,0.736
				c0.108,0.275,0.162,0.56,0.162,0.854c0,0.406-0.1,0.783-0.299,1.134c-0.196,0.35-0.466,0.63-0.81,0.839
				c-0.34,0.206-0.715,0.309-1.124,0.309c-0.255,0-0.502-0.065-0.741-0.196c-0.239-0.131-0.437-0.304-0.594-0.52l-0.344,0.604
				H312.832z M313.564,14.933c0.111,0.246,0.271,0.447,0.481,0.604c0.209,0.154,0.442,0.231,0.697,0.231
				c0.347,0,0.626-0.1,0.839-0.299c0.216-0.2,0.366-0.451,0.451-0.756c0.086-0.304,0.128-0.625,0.128-0.962
				c0-0.566-0.074-0.996-0.221-1.291c-0.066-0.131-0.156-0.252-0.27-0.363c-0.111-0.111-0.237-0.198-0.378-0.261
				c-0.137-0.065-0.283-0.098-0.436-0.098c-0.268,0-0.517,0.072-0.746,0.216c-0.229,0.141-0.411,0.331-0.545,0.569V14.933z"/>
		</g>
		<g id="text3532">
			<path id="path80" inkscape:connector-curvature="0" d="M333.128,9.212h-3.673v3.672h-1.119V9.212h-3.673V8.134h3.673V4.462h1.119
				v3.672h3.673V9.212z"/>
		</g>
		<g id="text3534">
			<path id="path83" inkscape:connector-curvature="0" d="M340.05,13.369c-1.128,0-1.896-0.463-2.305-1.388
				c-0.405-0.93-0.606-2.035-0.606-3.315c0-0.799,0.071-1.552,0.216-2.257c0.148-0.705,0.438-1.303,0.869-1.792
				c0.435-0.494,1.044-0.741,1.826-0.741c0.606,0,1.103,0.148,1.489,0.445c0.386,0.296,0.68,0.681,0.882,1.152
				c0.202,0.467,0.339,0.97,0.411,1.509c0.076,0.535,0.115,1.096,0.115,1.685c0,0.791-0.074,1.532-0.222,2.224
				c-0.143,0.687-0.429,1.273-0.855,1.759C341.442,13.129,340.836,13.369,340.05,13.369z M340.05,13.012
				c0.512,0,0.894-0.263,1.145-0.788c0.251-0.526,0.407-1.108,0.464-1.745c0.059-0.638,0.088-1.316,0.088-2.035
				c0-0.692-0.029-1.33-0.088-1.914c-0.058-0.584-0.213-1.112-0.464-1.583c-0.248-0.476-0.629-0.714-1.145-0.714
				c-0.521,0-0.908,0.238-1.159,0.714c-0.251,0.476-0.407,1.006-0.465,1.59c-0.059,0.58-0.088,1.215-0.088,1.907
				c0,0.512,0.011,0.995,0.034,1.449c0.027,0.454,0.094,0.924,0.202,1.409c0.108,0.48,0.281,0.887,0.519,1.22
				C339.336,12.848,339.655,13.012,340.05,13.012z"/>
		</g>
		<g id="text3536">
			<path id="path86" inkscape:connector-curvature="0" d="M345.409,12.305c0-0.207,0.076-0.384,0.229-0.532
				c0.153-0.149,0.33-0.222,0.532-0.222c0.126,0,0.249,0.034,0.37,0.101c0.121,0.068,0.216,0.161,0.283,0.283
				c0.068,0.121,0.101,0.245,0.101,0.371c0,0.202-0.074,0.379-0.222,0.532c-0.149,0.153-0.326,0.23-0.532,0.23
				c-0.202,0-0.38-0.076-0.532-0.23C345.485,12.684,345.409,12.507,345.409,12.305z"/>
		</g>
		<g id="text3538">
			<path id="path89" inkscape:connector-curvature="0" d="M348.414,12.002c0.216,0.315,0.506,0.548,0.869,0.701
				c0.364,0.153,0.755,0.229,1.173,0.229c0.534,0,0.914-0.227,1.138-0.681c0.225-0.458,0.337-0.977,0.337-1.557
				c0-0.261-0.025-0.521-0.074-0.782c-0.045-0.261-0.124-0.503-0.236-0.727c-0.112-0.224-0.267-0.405-0.464-0.539
				c-0.193-0.135-0.431-0.202-0.715-0.202h-0.916c-0.081,0-0.121-0.042-0.121-0.128V8.194c0-0.072,0.04-0.108,0.121-0.108
				l0.762-0.061c0.323,0,0.591-0.121,0.802-0.364c0.216-0.242,0.373-0.537,0.472-0.883c0.099-0.351,0.148-0.683,0.148-0.997
				c0-0.44-0.103-0.802-0.31-1.085c-0.207-0.283-0.521-0.425-0.943-0.425c-0.351,0-0.685,0.067-1.004,0.202
				c-0.319,0.13-0.573,0.33-0.762,0.6c0.018-0.004,0.034-0.007,0.047-0.007c0.013-0.004,0.029-0.007,0.047-0.007
				c0.207,0,0.38,0.072,0.519,0.216c0.139,0.144,0.209,0.317,0.209,0.519c0,0.198-0.07,0.368-0.209,0.512
				c-0.139,0.144-0.312,0.216-0.519,0.216c-0.202,0-0.375-0.072-0.519-0.216c-0.144-0.144-0.216-0.314-0.216-0.512
				c0-0.395,0.119-0.739,0.357-1.031s0.543-0.512,0.917-0.66c0.377-0.153,0.754-0.229,1.132-0.229c0.278,0,0.573,0.043,0.882,0.128
				c0.31,0.081,0.591,0.2,0.842,0.357c0.252,0.153,0.456,0.35,0.613,0.593c0.161,0.242,0.243,0.519,0.243,0.829
				c0,0.386-0.088,0.743-0.263,1.071c-0.171,0.328-0.407,0.611-0.707,0.849s-0.631,0.416-0.991,0.533
				c0.4,0.076,0.78,0.227,1.139,0.451c0.359,0.225,0.647,0.512,0.863,0.863c0.22,0.35,0.33,0.727,0.33,1.132
				c0,0.508-0.139,0.968-0.418,1.382c-0.279,0.409-0.645,0.73-1.098,0.963c-0.453,0.229-0.932,0.344-1.435,0.344
				c-0.431,0-0.865-0.083-1.301-0.249c-0.431-0.162-0.786-0.407-1.064-0.735c-0.275-0.328-0.412-0.721-0.412-1.179
				c0-0.23,0.076-0.421,0.229-0.573c0.153-0.153,0.344-0.229,0.573-0.229c0.148,0,0.283,0.036,0.404,0.108
				c0.126,0.067,0.223,0.164,0.29,0.289c0.072,0.126,0.108,0.261,0.108,0.404c0,0.224-0.079,0.413-0.236,0.566
				c-0.157,0.153-0.346,0.229-0.566,0.229H348.414z"/>
		</g>
		<g id="text3540">
			<path id="path92" inkscape:connector-curvature="0" d="M356.158,11.408V7.601h-1.145V7.244c0.602,0,1.044-0.281,1.327-0.842
				c0.283-0.562,0.425-1.17,0.425-1.826h0.397v2.54h1.947v0.485h-1.947v3.78c0,0.382,0.063,0.717,0.189,1.004
				c0.13,0.288,0.361,0.431,0.694,0.431c0.314,0,0.541-0.151,0.681-0.451c0.139-0.305,0.209-0.633,0.209-0.984v-0.815h0.398v0.842
				c0,0.288-0.054,0.573-0.162,0.856c-0.103,0.279-0.258,0.508-0.465,0.688c-0.207,0.18-0.459,0.269-0.755,0.269
				c-0.553,0-0.991-0.164-1.314-0.492C356.318,12.397,356.158,11.957,356.158,11.408z"/>
		</g>
		<g id="text3542">
			<path id="path95" inkscape:connector-curvature="0" d="M359.68,16.705c0-0.239,0.087-0.448,0.26-0.628
				c0.174-0.176,0.379-0.302,0.619-0.378c-0.134-0.101-0.237-0.229-0.31-0.383c-0.069-0.154-0.103-0.317-0.103-0.491
				c0-0.314,0.1-0.592,0.3-0.834c-0.307-0.301-0.461-0.646-0.461-1.036c0-0.209,0.044-0.406,0.133-0.589
				c0.091-0.183,0.218-0.342,0.378-0.476c0.16-0.134,0.338-0.236,0.535-0.304c0.197-0.072,0.398-0.108,0.604-0.108
				c0.399,0,0.757,0.117,1.075,0.349c0.137-0.148,0.299-0.26,0.486-0.338c0.19-0.082,0.386-0.123,0.589-0.123
				c0.144,0,0.262,0.052,0.353,0.157c0.091,0.101,0.138,0.224,0.138,0.368c0,0.082-0.031,0.154-0.093,0.216
				c-0.062,0.062-0.134,0.093-0.216,0.093c-0.085,0-0.158-0.031-0.221-0.093c-0.062-0.062-0.093-0.134-0.093-0.216
				c0-0.125,0.041-0.212,0.123-0.261c-0.347,0-0.645,0.119-0.894,0.359c0.121,0.121,0.218,0.269,0.29,0.446
				c0.075,0.173,0.112,0.347,0.112,0.52c0,0.285-0.078,0.541-0.235,0.77c-0.157,0.226-0.365,0.402-0.623,0.53
				c-0.255,0.124-0.519,0.186-0.79,0.186c-0.366,0-0.702-0.1-1.006-0.299c-0.095,0.131-0.142,0.278-0.142,0.442
				c0,0.177,0.057,0.332,0.172,0.466c0.118,0.131,0.265,0.197,0.442,0.197h0.824c0.399,0,0.759,0.036,1.079,0.108
				c0.321,0.072,0.589,0.216,0.805,0.432c0.219,0.216,0.329,0.522,0.329,0.918c0,0.294-0.125,0.538-0.374,0.731
				c-0.249,0.196-0.546,0.337-0.893,0.422c-0.344,0.088-0.662,0.133-0.957,0.133c-0.298,0-0.62-0.044-0.967-0.133
				c-0.347-0.085-0.644-0.226-0.893-0.422C359.804,17.243,359.68,16.999,359.68,16.705z M360.244,16.705
				c0,0.225,0.091,0.414,0.275,0.564c0.183,0.154,0.403,0.266,0.662,0.338c0.258,0.075,0.502,0.112,0.731,0.112
				c0.226,0,0.468-0.037,0.726-0.112c0.259-0.072,0.478-0.185,0.658-0.338c0.183-0.151,0.275-0.339,0.275-0.564
				c0-0.35-0.16-0.578-0.481-0.682c-0.321-0.102-0.71-0.152-1.168-0.152h-0.824c-0.154,0-0.296,0.036-0.427,0.108
				c-0.127,0.075-0.23,0.179-0.309,0.309C360.283,16.422,360.244,16.561,360.244,16.705z M361.632,14.173
				c0.57,0,0.854-0.406,0.854-1.217c0-0.35-0.061-0.638-0.182-0.864c-0.121-0.229-0.346-0.343-0.673-0.343
				c-0.327,0-0.551,0.115-0.672,0.343c-0.121,0.226-0.182,0.514-0.182,0.864c0,0.222,0.023,0.424,0.068,0.604
				c0.046,0.18,0.131,0.327,0.255,0.442C361.227,14.115,361.403,14.173,361.632,14.173z"/>
		</g>
		<g id="text3544">
		</g>
	</g>
</g>
</svg>
