<?xml version="1.0" encoding="UTF-8" standalone="no"?>
<!-- Created with Inkscape (http://www.inkscape.org/) -->

<svg
   xmlns:dc="http://purl.org/dc/elements/1.1/"
   xmlns:cc="http://creativecommons.org/ns#"
   xmlns:rdf="http://www.w3.org/1999/02/22-rdf-syntax-ns#"
   xmlns:svg="http://www.w3.org/2000/svg"
   xmlns="http://www.w3.org/2000/svg"
   version="1.2"
   width="320"
   height="60"
   id="svg3020">
  <metadata
     id="metadata3026">
    <rdf:RDF>
      <cc:Work
         rdf:about="">
        <dc:format>image/svg+xml</dc:format>
        <dc:type
           rdf:resource="http://purl.org/dc/dcmitype/StillImage" />
        <dc:title></dc:title>
      </cc:Work>
    </rdf:RDF>
  </metadata>
  <defs
     id="defs3024" />
  <text
     x="44.56657"
     y="42.23513"
     transform="scale(0.95814898,1.043679)"
     id="text3030"
     xml:space="preserve"
     style="font-size:41.02812958px;font-style:normal;font-variant:normal;font-weight:normal;font-stretch:normal;line-height:125%;letter-spacing:0px;word-spacing:0px;fill:#000000;fill-opacity:1;stroke:none;font-family:Cambria Math;-inkscape-font-specification:Cambria Math"><tspan
       x="44.56657"
       y="42.23513"
       id="tspan3032" /></text>
  <g
     id="text2991"
     style="font-size:20px;font-style:normal;font-variant:normal;font-weight:normal;font-stretch:normal;text-align:center;line-height:125%;letter-spacing:0px;word-spacing:0px;text-anchor:middle;fill:#ffffff;fill-opacity:1;stroke:#f9f9f9;font-family:cmr10;-inkscape-font-specification:cmr10">
    <path
       d="m 100.10474,38.179211 0,-0.703125 c 1.1914,0 1.92382,-0.393879 2.19726,-1.181641 l 4.19922,-12.216797 c 0.0391,-0.143215 0.14648,-0.214829 0.32227,-0.214844 l 0.2539,0 c 0.17578,1.5e-5 0.2832,0.07163 0.32227,0.214844 l 4.38476,12.763672 c 0.12369,0.279949 0.35969,0.45573 0.70801,0.527344 0.3483,0.07161 0.78287,0.107422 1.30371,0.107422 l 0,0.703125 -5.57617,0 0,-0.703125 c 1.10676,0 1.66015,-0.179036 1.66016,-0.53711 l 0,-0.09766 -1.08399,-3.125 -4.85351,0 -0.89844,2.578125 c -0.013,0.04557 -0.0195,0.113934 -0.0195,0.205078 -1e-5,0.332033 0.15787,0.577801 0.47363,0.737305 0.31575,0.159506 0.65592,0.239258 1.02051,0.239258 l 0,0.703125 z m 4.07226,-5.15625 4.38477,0 -2.19727,-6.386719 z"
       id="path3062"
       style="fill:#ffffff;stroke:#f9f9f9" />
    <path
       d="m 114.97778,38.179211 0,-0.703125 c 0.45573,0 0.83008,-0.03581 1.12305,-0.107422 0.29297,-0.07161 0.43945,-0.247395 0.43945,-0.527344 l 0,-5.458984 c 0,-0.358066 -0.0537,-0.616855 -0.16113,-0.776368 -0.10742,-0.159497 -0.26205,-0.257153 -0.46387,-0.292968 -0.20182,-0.0358 -0.51432,-0.0537 -0.9375,-0.05371 l 0,-0.703125 2.86133,-0.214844 0,1.953125 c 0.21484,-0.57942 0.52083,-1.049797 0.91797,-1.411133 0.39713,-0.361319 0.8789,-0.541983 1.44531,-0.541992 0.39713,9e-6 0.75195,0.117196 1.06446,0.351563 0.31249,0.234383 0.46874,0.543627 0.46875,0.927734 -1e-5,0.240893 -0.0863,0.450853 -0.25879,0.629883 -0.17254,0.179043 -0.38575,0.268561 -0.63965,0.268554 -0.2474,7e-6 -0.45899,-0.08788 -0.63477,-0.263671 -0.17578,-0.175775 -0.26367,-0.387363 -0.26367,-0.634766 0,-0.358065 0.12695,-0.611971 0.38086,-0.761719 l -0.11719,0 c -0.54037,8e-6 -0.98145,0.195321 -1.32324,0.585938 -0.3418,0.390632 -0.58431,0.875658 -0.72754,1.455078 -0.14323,0.579433 -0.21485,1.132817 -0.21484,1.660156 l 0,3.28125 c -10e-6,0.423178 0.64778,0.634766 1.94336,0.634766 l 0,0.703125 z"
       id="path3064"
       style="fill:#ffffff;stroke:#f9f9f9" />
    <path
       d="m 127.25317,38.40382 c -0.8138,0 -1.56087,-0.213216 -2.24121,-0.639648 -0.68034,-0.426432 -1.21419,-0.996093 -1.60156,-1.708985 -0.38737,-0.712888 -0.58105,-1.466468 -0.58105,-2.260742 0,-0.781245 0.1774,-1.523432 0.53222,-2.226562 0.35482,-0.703118 0.84961,-1.271151 1.48438,-1.704102 0.63476,-0.432934 1.34277,-0.649405 2.12402,-0.649414 0.61197,9e-6 1.1442,0.102548 1.59668,0.307617 0.45247,0.205087 0.82519,0.489917 1.11816,0.854492 0.29297,0.364591 0.51432,0.794278 0.66407,1.289063 0.14973,0.494797 0.2246,1.038417 0.22461,1.630859 -1e-5,0.175786 -0.0684,0.263677 -0.20508,0.263672 l -5.79102,0 0,0.214844 c 0,1.106774 0.22298,2.057294 0.66895,2.851562 0.44596,0.794272 1.1735,1.191407 2.18262,1.191407 0.41015,0 0.78938,-0.09115 1.13769,-0.273438 0.3483,-0.182291 0.65104,-0.436197 0.9082,-0.761719 0.25716,-0.325519 0.43131,-0.673826 0.52246,-1.044922 0.013,-0.04557 0.0374,-0.08626 0.0733,-0.12207 0.0358,-0.03581 0.0765,-0.05371 0.12207,-0.05371 l 0.17578,0 c 0.13671,3e-6 0.20507,0.08464 0.20508,0.253906 -0.18881,0.75521 -0.59571,1.375327 -1.22071,1.860352 -0.625,0.485026 -1.32487,0.727539 -2.09961,0.727539 z m -2.65625,-5.341797 4.56055,0 c -1e-5,-0.501296 -0.07,-1.009108 -0.20996,-1.523437 -0.13998,-0.514316 -0.37273,-0.942376 -0.69824,-1.28418 -0.32553,-0.341789 -0.75196,-0.512687 -1.2793,-0.512695 -0.75521,8e-6 -1.33952,0.353198 -1.75293,1.05957 -0.41341,0.706387 -0.62012,1.459967 -0.62012,2.260742 z"
       id="path3066"
       style="fill:#ffffff;stroke:#f9f9f9" />
    <path
       d="m 131.94067,36.21632 c 0,-0.794268 0.3125,-1.440426 0.9375,-1.938477 0.625,-0.498042 1.37533,-0.849604 2.25098,-1.054687 0.87565,-0.205073 1.70735,-0.307612 2.49512,-0.307617 l 0,-0.820313 c -1e-5,-0.384108 -0.0846,-0.756829 -0.25391,-1.118164 -0.16928,-0.36132 -0.41342,-0.657544 -0.73242,-0.888672 -0.31902,-0.231111 -0.67058,-0.346671 -1.05469,-0.346679 -0.88542,8e-6 -1.55925,0.198576 -2.02148,0.595703 0.2539,8e-6 0.46386,0.09604 0.62988,0.288086 0.16601,0.192064 0.24902,0.415046 0.24902,0.668945 0,0.266934 -0.0944,0.494798 -0.2832,0.683594 -0.1888,0.188808 -0.41341,0.283209 -0.67383,0.283203 -0.26693,6e-6 -0.49479,-0.0944 -0.68359,-0.283203 -0.1888,-0.188796 -0.28321,-0.41666 -0.2832,-0.683594 -1e-5,-0.703117 0.319,-1.225578 0.95703,-1.567383 0.63801,-0.341788 1.34114,-0.512686 2.10937,-0.512695 0.54036,9e-6 1.08398,0.115569 1.63086,0.34668 0.54687,0.231128 0.99446,0.561531 1.34277,0.991211 0.3483,0.429694 0.52246,0.930996 0.52247,1.503906 l 0,4.501953 c -1e-5,0.260418 0.0553,0.499676 0.16601,0.717773 0.11067,0.2181 0.2832,0.327149 0.51758,0.327149 0.22134,0 0.38573,-0.110677 0.49316,-0.332031 0.10742,-0.221353 0.16113,-0.458983 0.16114,-0.712891 l 0,-1.279297 0.58593,0 0,1.279297 c -1e-5,0.29948 -0.0781,0.584311 -0.23437,0.854492 -0.15626,0.270183 -0.36622,0.485026 -0.62988,0.644531 -0.26368,0.159506 -0.54852,0.239258 -0.8545,0.239258 -0.39063,0 -0.72754,-0.151367 -1.01074,-0.454101 -0.28321,-0.302734 -0.44109,-0.662434 -0.47363,-1.079102 -0.2474,0.501303 -0.61199,0.900066 -1.09375,1.196289 -0.48178,0.296224 -0.9961,0.444336 -1.54297,0.444336 -0.50782,0 -1.00749,-0.07487 -1.49902,-0.224609 -0.49154,-0.14974 -0.9017,-0.385742 -1.23047,-0.708008 -0.32878,-0.322265 -0.49317,-0.740559 -0.49317,-1.254883 z m 1.6211,0 c 0,0.468752 0.17252,0.862631 0.51758,1.181641 0.34504,0.319011 0.75195,0.478516 1.2207,0.478515 0.42968,1e-6 0.82031,-0.107421 1.17187,-0.322265 0.35156,-0.214843 0.63151,-0.507812 0.83985,-0.878907 0.20832,-0.371091 0.31249,-0.761716 0.3125,-1.171875 l 0,-2.080078 c -0.60548,5e-6 -1.22559,0.09929 -1.86035,0.297852 -0.63477,0.198572 -1.16049,0.509444 -1.57715,0.932617 -0.41667,0.42318 -0.625,0.944013 -0.625,1.5625 z"
       id="path3068"
       style="fill:#ffffff;stroke:#f9f9f9" />
    <path
       d="m 152.81958,38.40382 c -0.80079,0 -1.54297,-0.203451 -2.22656,-0.610352 -0.6836,-0.4069 -1.22396,-0.952147 -1.6211,-1.635742 -0.39713,-0.683591 -0.5957,-1.429033 -0.5957,-2.236328 0,-0.611974 0.10905,-1.201166 0.32715,-1.767578 0.2181,-0.5664 0.5306,-1.072584 0.9375,-1.518555 0.4069,-0.445955 0.88053,-0.794262 1.4209,-1.044922 0.54036,-0.250642 1.1263,-0.375967 1.75781,-0.375976 0.82031,9e-6 1.56738,0.21648 2.24121,0.649414 0.67382,0.432951 1.20605,1.012377 1.59668,1.738281 0.39062,0.725918 0.58593,1.499029 0.58594,2.319336 -1e-5,0.800785 -0.19858,1.544599 -0.5957,2.231445 -0.39715,0.686851 -0.93589,1.233725 -1.61622,1.640625 -0.68034,0.406901 -1.41764,0.610352 -2.21191,0.610352 z m 0,-0.585937 c 1.0677,0 1.78059,-0.38737 2.13867,-1.16211 0.35807,-0.774737 0.5371,-1.761064 0.53711,-2.958984 -1e-5,-0.670568 -0.0358,-1.22558 -0.10742,-1.665039 -0.0716,-0.439447 -0.22787,-0.838209 -0.46875,-1.196289 -0.14975,-0.221347 -0.34018,-0.415032 -0.57129,-0.581055 -0.23113,-0.166008 -0.47527,-0.292961 -0.73242,-0.380859 -0.25717,-0.08788 -0.52247,-0.131828 -0.7959,-0.131836 -0.41667,8e-6 -0.81218,0.09441 -1.18652,0.283203 -0.37436,0.18881 -0.68523,0.458992 -0.93262,0.810547 -0.2474,0.377611 -0.40528,0.792649 -0.47363,1.245117 -0.0684,0.452479 -0.10254,0.991216 -0.10254,1.616211 0,0.748701 0.0651,1.420901 0.19531,2.016601 0.13021,0.595705 0.39225,1.095379 0.78613,1.499024 0.39388,0.403646 0.96517,0.605469 1.71387,0.605469 z"
       id="path3070"
       style="fill:#ffffff;stroke:#f9f9f9" />
    <path
       d="m 158.46411,38.179211 0,-0.703125 c 0.44922,0 0.82031,-0.03581 1.11328,-0.107422 0.29297,-0.07161 0.43945,-0.247395 0.43946,-0.527344 l 0,-6.582031 -1.53321,0 0,-0.703125 1.53321,0 0,-2.392578 c -1e-5,-0.429676 0.0895,-0.831694 0.26855,-1.206055 0.17903,-0.374336 0.41992,-0.701484 0.72266,-0.981445 0.30273,-0.279935 0.65103,-0.499661 1.04492,-0.65918 0.39387,-0.159491 0.8024,-0.239244 1.22558,-0.239258 0.44922,1.4e-5 0.85449,0.133478 1.21582,0.400391 0.36133,0.26694 0.54199,0.621758 0.542,1.064453 -1e-5,0.253919 -0.0863,0.467134 -0.25879,0.639648 -0.17253,0.172538 -0.38575,0.258801 -0.63965,0.258789 -0.25391,1.2e-5 -0.47038,-0.08625 -0.64941,-0.258789 -0.17905,-0.172514 -0.26856,-0.385729 -0.26856,-0.639648 0,-0.416654 0.17903,-0.696601 0.53711,-0.839844 -0.21485,-0.0716 -0.40691,-0.107408 -0.57617,-0.107422 -0.39063,1.4e-5 -0.72429,0.13836 -1.00098,0.415039 -0.2767,0.276706 -0.4834,0.61362 -0.62012,1.010743 -0.13672,0.397147 -0.20508,0.791027 -0.20507,1.18164 l 0,2.353516 2.30468,0 0,0.703125 -2.23632,0 0,6.582031 c -1e-5,0.273439 0.1953,0.447592 0.58593,0.522461 0.39062,0.07487 0.83984,0.112305 1.34766,0.112305 l 0,0.703125 z"
       id="path3072"
       style="fill:#ffffff;stroke:#f9f9f9" />
    <path
       d="m 175.15356,36.040539 c 0.45573,0.579428 1.02539,1.036785 1.70899,1.37207 0.68359,0.335287 1.39322,0.50293 2.12891,0.50293 0.61848,0 1.19139,-0.12207 1.71875,-0.366211 0.52733,-0.24414 0.98794,-0.584309 1.38183,-1.020508 0.39387,-0.436196 0.6966,-0.930987 0.9082,-1.484375 0.21158,-0.553382 0.31737,-1.136063 0.31739,-1.748047 -2e-5,-0.104162 0.0586,-0.156245 0.17578,-0.15625 l 0.24414,0 c 0.10415,5e-6 0.15624,0.06511 0.15625,0.195313 -1e-5,0.696618 -0.13348,1.368818 -0.40039,2.016601 -0.26694,0.647789 -0.64455,1.21745 -1.13281,1.708985 -0.4883,0.491537 -1.04982,0.874023 -1.68457,1.147461 -0.63478,0.273437 -1.29721,0.410155 -1.98731,0.410156 -0.95704,-1e-6 -1.86361,-0.193685 -2.71973,-0.581055 -0.85612,-0.387369 -1.60156,-0.917968 -2.23632,-1.591797 -0.63477,-0.673825 -1.12956,-1.453447 -1.48438,-2.338867 -0.35482,-0.885412 -0.53223,-1.806635 -0.53223,-2.763672 0,-0.957023 0.17741,-1.878246 0.53223,-2.763672 0.35482,-0.885406 0.84961,-1.666655 1.48438,-2.34375 0.63476,-0.67707 1.3802,-1.206041 2.23632,-1.586914 0.85612,-0.380845 1.76269,-0.571275 2.71973,-0.571289 0.68359,1.4e-5 1.33788,0.148126 1.96289,0.444336 0.62499,0.296237 1.17187,0.714531 1.64063,1.254883 l 1.16211,-1.640625 c 0.0781,-0.03905 0.12368,-0.05858 0.13671,-0.05859 l 0.14649,0 c 0.0391,1.4e-5 0.0749,0.01629 0.10742,0.04883 0.0325,0.03257 0.0488,0.07163 0.0488,0.117188 l 0,5.40039 c -1e-5,0.117196 -0.0521,0.17579 -0.15625,0.175782 l -0.36133,0 c -0.12371,8e-6 -0.18556,-0.05859 -0.18555,-0.175782 -1e-5,-0.384105 -0.0765,-0.813792 -0.22949,-1.289062 -0.15301,-0.47525 -0.34832,-0.926096 -0.58594,-1.352539 -0.23764,-0.426421 -0.5127,-0.802397 -0.82519,-1.12793 -0.74871,-0.729153 -1.60808,-1.093736 -2.57813,-1.09375 -0.73568,1.4e-5 -1.44043,0.166029 -2.11425,0.498047 -0.67384,0.332044 -1.24187,0.791028 -1.70411,1.376953 -0.48828,0.625011 -0.82682,1.336273 -1.01562,2.133789 -0.18881,0.797535 -0.28321,1.648771 -0.2832,2.553711 -1e-5,0.904954 0.0944,1.757818 0.2832,2.558594 0.1888,0.800785 0.52734,1.513675 1.01562,2.138672 z"
       id="path3074"
       style="fill:#ffffff;stroke:#f9f9f9" />
    <path
       d="m 185.66138,38.179211 0,-0.703125 c 0.45573,0 0.83007,-0.03581 1.12304,-0.107422 0.29297,-0.07161 0.43945,-0.247395 0.43946,-0.527344 l 0,-5.458984 c -1e-5,-0.514316 -0.0993,-0.830071 -0.29785,-0.947266 -0.19857,-0.11718 -0.59083,-0.175773 -1.17676,-0.175781 l 0,-0.703125 2.88086,-0.214844 0,7.5 c -1e-5,0.279949 0.12695,0.45573 0.38086,0.527344 0.2539,0.07161 0.59244,0.107422 1.01562,0.107422 l 0,0.703125 z m 0.84961,-12.275391 c -1e-5,-0.292956 0.11067,-0.550117 0.33203,-0.771484 0.22135,-0.221341 0.47526,-0.332018 0.76172,-0.332032 0.1888,1.4e-5 0.37109,0.04884 0.54687,0.146485 0.17578,0.09767 0.3125,0.234388 0.41016,0.410156 0.0977,0.175794 0.14648,0.358085 0.14648,0.546875 0,0.28647 -0.11068,0.540376 -0.33203,0.761719 -0.22136,0.221365 -0.47852,0.332042 -0.77148,0.332031 -0.28646,1.1e-5 -0.54037,-0.110666 -0.76172,-0.332031 -0.22136,-0.221343 -0.33204,-0.475249 -0.33203,-0.761719 z"
       id="path3076"
       style="fill:#ffffff;stroke:#f9f9f9" />
    <path
       d="m 191.1106,38.179211 0,-0.703125 c 0.45572,0 0.83007,-0.03581 1.12304,-0.107422 0.29297,-0.07161 0.43945,-0.247395 0.43946,-0.527344 l 0,-5.458984 c -1e-5,-0.358066 -0.0537,-0.616855 -0.16114,-0.776368 -0.10742,-0.159497 -0.26204,-0.257153 -0.46386,-0.292968 -0.20183,-0.0358 -0.51433,-0.0537 -0.9375,-0.05371 l 0,-0.703125 2.86132,-0.214844 0,1.953125 c 0.21484,-0.57942 0.52083,-1.049797 0.91797,-1.411133 0.39713,-0.361319 0.8789,-0.541983 1.44532,-0.541992 0.39712,9e-6 0.75194,0.117196 1.06445,0.351563 0.31249,0.234383 0.46874,0.543627 0.46875,0.927734 -1e-5,0.240893 -0.0863,0.450853 -0.25879,0.629883 -0.17253,0.179043 -0.38575,0.268561 -0.63965,0.268554 -0.2474,7e-6 -0.45899,-0.08788 -0.63476,-0.263671 -0.17579,-0.175775 -0.26368,-0.387363 -0.26368,-0.634766 0,-0.358065 0.12695,-0.611971 0.38086,-0.761719 l -0.11718,0 c -0.54037,8e-6 -0.98145,0.195321 -1.32325,0.585938 -0.3418,0.390632 -0.58431,0.875658 -0.72754,1.455078 -0.14323,0.579433 -0.21484,1.132817 -0.21484,1.660156 l 0,3.28125 c 0,0.423178 0.64778,0.634766 1.94336,0.634766 l 0,0.703125 z"
       id="path3078"
       style="fill:#ffffff;stroke:#f9f9f9" />
    <path
       d="m 203.38599,38.40382 c -0.8073,0 -1.53972,-0.209961 -2.19727,-0.629883 -0.65755,-0.419921 -1.17513,-0.979816 -1.55273,-1.679687 -0.37761,-0.699867 -0.56641,-1.443682 -0.56641,-2.231446 0,-0.787755 0.18717,-1.542962 0.56152,-2.265625 0.37435,-0.722649 0.89193,-1.300447 1.55274,-1.733398 0.6608,-0.432934 1.39485,-0.649405 2.20215,-0.649414 0.78124,9e-6 1.4925,0.153004 2.13379,0.458984 0.64126,0.305998 0.9619,0.8073 0.96191,1.503907 -10e-6,0.260423 -0.0928,0.48666 -0.27832,0.67871 -0.18556,0.192064 -0.41179,0.288092 -0.67871,0.288086 -0.26694,6e-6 -0.49317,-0.09602 -0.67871,-0.288086 -0.18556,-0.19205 -0.27833,-0.418287 -0.27832,-0.67871 -1e-5,-0.234368 0.0749,-0.437819 0.22461,-0.610352 0.14973,-0.172518 0.33528,-0.281568 0.55664,-0.327148 -0.46225,-0.292961 -1.11003,-0.439445 -1.94336,-0.439454 -0.63803,9e-6 -1.15235,0.211597 -1.54297,0.634766 -0.39063,0.423184 -0.66407,0.947272 -0.82031,1.572266 -0.15626,0.625005 -0.23438,1.243494 -0.23438,1.855468 0,0.644535 0.096,1.267907 0.28809,1.870118 0.19205,0.602215 0.5013,1.100261 0.92773,1.49414 0.42643,0.393881 0.96191,0.590821 1.60645,0.590821 0.6315,0 1.16861,-0.193685 1.61133,-0.581055 0.4427,-0.387369 0.74543,-0.893553 0.9082,-1.518555 -1e-5,-0.07812 0.0521,-0.117185 0.15625,-0.117187 l 0.24414,0 c 0.0391,2e-6 0.0749,0.01791 0.10742,0.05371 0.0325,0.03581 0.0488,0.0765 0.0488,0.12207 l 0,0.05859 c -0.20183,0.787762 -0.60222,1.412761 -1.20117,1.875 -0.59897,0.462239 -1.30535,0.693359 -2.11914,0.693359 z"
       id="path3080"
       style="fill:#ffffff;stroke:#f9f9f9" />
    <path
       d="m 207.88794,38.179211 0,-0.703125 c 0.45573,0 0.83008,-0.03581 1.12305,-0.107422 0.29296,-0.07161 0.43945,-0.247395 0.43945,-0.527344 l 0,-10.498047 c 0,-0.358061 -0.0537,-0.616849 -0.16113,-0.776367 -0.10743,-0.159492 -0.26205,-0.257149 -0.46387,-0.292969 -0.20182,-0.03579 -0.51432,-0.0537 -0.9375,-0.05371 l 0,-0.703125 2.96875,-0.214843 0,12.539062 c 0,0.279949 0.14648,0.45573 0.43945,0.527344 0.29297,0.07161 0.66406,0.107422 1.11328,0.107422 l 0,0.703125 z"
       id="path3082"
       style="fill:#ffffff;stroke:#f9f9f9" />
    <path
       d="m 217.80005,38.40382 c -0.81381,0 -1.56088,-0.213216 -2.24121,-0.639648 -0.68034,-0.426432 -1.2142,-0.996093 -1.60156,-1.708985 -0.38738,-0.712888 -0.58106,-1.466468 -0.58106,-2.260742 0,-0.781245 0.17741,-1.523432 0.53223,-2.226562 0.35481,-0.703118 0.8496,-1.271151 1.48437,-1.704102 0.63476,-0.432934 1.34277,-0.649405 2.12403,-0.649414 0.61197,9e-6 1.1442,0.102548 1.59668,0.307617 0.45246,0.205087 0.82518,0.489917 1.11816,0.854492 0.29296,0.364591 0.51431,0.794278 0.66406,1.289063 0.14973,0.494797 0.2246,1.038417 0.22461,1.630859 -1e-5,0.175786 -0.0684,0.263677 -0.20508,0.263672 l -5.79101,0 0,0.214844 c 0,1.106774 0.22298,2.057294 0.66894,2.851562 0.44596,0.794272 1.1735,1.191407 2.18262,1.191407 0.41015,0 0.78938,-0.09115 1.1377,-0.273438 0.3483,-0.182291 0.65103,-0.436197 0.9082,-0.761719 0.25715,-0.325519 0.43131,-0.673826 0.52246,-1.044922 0.013,-0.04557 0.0374,-0.08626 0.0732,-0.12207 0.0358,-0.03581 0.0765,-0.05371 0.12207,-0.05371 l 0.17578,0 c 0.13671,3e-6 0.20507,0.08464 0.20508,0.253906 -0.18881,0.75521 -0.59571,1.375327 -1.2207,1.860352 -0.62501,0.485026 -1.32488,0.727539 -2.09961,0.727539 z m -2.65625,-5.341797 4.56055,0 c -1e-5,-0.501296 -0.07,-1.009108 -0.20997,-1.523437 -0.13998,-0.514316 -0.37272,-0.942376 -0.69824,-1.28418 -0.32552,-0.341789 -0.75196,-0.512687 -1.27929,-0.512695 -0.75522,8e-6 -1.33953,0.353198 -1.75293,1.05957 -0.41342,0.706387 -0.62012,1.459967 -0.62012,2.260742 z"
       id="path3084"
       style="fill:#ffffff;stroke:#f9f9f9" />
  </g>
</svg>
