<?xml version="1.0" encoding="utf-8"?>
<!-- Generator: Adobe Illustrator 16.0.0, SVG Export Plug-In . SVG Version: 6.00 Build 0)  -->
<!DOCTYPE svg PUBLIC "-//W3C//DTD SVG 1.1//EN" "http://www.w3.org/Graphics/SVG/1.1/DTD/svg11.dtd">
<svg version="1.1"
	 id="svg3020" xmlns:dc="http://purl.org/dc/elements/1.1/" xmlns:cc="http://creativecommons.org/ns#" xmlns:rdf="http://www.w3.org/1999/02/22-rdf-syntax-ns#" xmlns:svg="http://www.w3.org/2000/svg" xmlns:inkscape="http://www.inkscape.org/namespaces/inkscape"
	 xmlns="http://www.w3.org/2000/svg" xmlns:xlink="http://www.w3.org/1999/xlink" x="0px" y="0px" width="320px" height="60px"
	 viewBox="0 0 320 60" enable-background="new 0 0 320 60" xml:space="preserve">
<g id="text3030" transform="scale(0.95814898,1.043679)">
</g>
<g id="g3009" transform="matrix(1.4688253,0,0,1.4688253,-277.70507,-0.75165246)">
	<g id="flowRoot3055" transform="matrix(0.68081616,0,0,0.68081616,189.0661,0.51173714)">
	</g>
	<g id="flowRoot3063" transform="matrix(0.68081616,0,0,0.68081616,189.0661,0.51173714)">
	</g>
	<g id="g3569" transform="matrix(0.68081616,0,0,0.68081616,66.230655,78.160046)">
	</g>
	<g id="g3803" transform="matrix(1.0554215,0,0,1.0554215,-11.240675,0.71427028)">
		<g id="g3895" transform="matrix(0.8702126,0,0,0.8702126,40.480548,-3.4437702)">
			<g id="text3897">
				<path id="path57" inkscape:connector-curvature="0" fill="#FFFFFF" d="M202.182,35.204c-0.966,0-1.835-0.256-2.608-0.765
					c-0.768-0.515-1.37-1.197-1.806-2.044c-0.436-0.852-0.654-1.746-0.654-2.682c0-0.693,0.124-1.38,0.372-2.059
					c0.253-0.679,0.602-1.281,1.048-1.806c0.451-0.525,0.991-0.941,1.62-1.248c0.629-0.307,1.306-0.461,2.029-0.461
					c0.718,0,1.392,0.156,2.021,0.468c0.634,0.307,1.177,0.726,1.627,1.256c0.451,0.53,0.798,1.125,1.04,1.784
					c0.243,0.659,0.364,1.347,0.364,2.066c0,0.698-0.124,1.379-0.371,2.043c-0.243,0.665-0.599,1.258-1.07,1.784
					c-0.465,0.525-1.011,0.934-1.635,1.226c0.193,0.45,0.391,0.801,0.594,1.047c0.203,0.253,0.486,0.379,0.847,0.379
					c0.381,0,0.708-0.13,0.981-0.394c0.272-0.262,0.409-0.582,0.409-0.958c0-0.035,0.017-0.067,0.052-0.096
					c0.039-0.03,0.077-0.045,0.111-0.045c0.114,0,0.171,0.067,0.171,0.201c0,0.728-0.144,1.397-0.431,2.007
					c-0.282,0.61-0.748,0.914-1.397,0.914c-0.357,0-0.652-0.088-0.884-0.266c-0.233-0.173-0.411-0.396-0.535-0.669
					c-0.119-0.267-0.213-0.581-0.282-0.937c-0.07-0.356-0.131-0.68-0.186-0.974C203.163,35.126,202.688,35.204,202.182,35.204z
					 M202.182,34.765c0.456,0,0.897-0.117,1.323-0.35c-0.094-0.436-0.24-0.783-0.438-1.04c-0.193-0.262-0.488-0.394-0.884-0.394
					c-0.243,0-0.448,0.091-0.617,0.275c-0.168,0.178-0.253,0.387-0.253,0.624c0,0.258,0.079,0.471,0.238,0.638
					C201.714,34.682,201.925,34.765,202.182,34.765z M200.919,33.88c0-0.223,0.054-0.434,0.163-0.631
					c0.109-0.198,0.26-0.357,0.454-0.476c0.198-0.122,0.414-0.185,0.646-0.185c0.441,0,0.79,0.143,1.048,0.431
					c0.257,0.282,0.485,0.666,0.683,1.151c0.337-0.252,0.619-0.549,0.847-0.892c0.228-0.346,0.404-0.708,0.527-1.084
					c0.129-0.382,0.221-0.783,0.275-1.204c0.059-0.426,0.089-0.853,0.089-1.278c0-0.704-0.072-1.365-0.215-1.985
					c-0.139-0.619-0.376-1.176-0.713-1.671c-0.292-0.441-0.664-0.795-1.114-1.063c-0.451-0.273-0.927-0.409-1.427-0.409
					c-0.51,0-0.991,0.134-1.442,0.401c-0.446,0.262-0.817,0.619-1.114,1.07c-0.347,0.505-0.59,1.068-0.728,1.687
					c-0.134,0.619-0.201,1.276-0.201,1.97c0,1.079,0.184,2.063,0.55,2.949c0.366,0.882,0.978,1.506,1.835,1.873
					C200.974,34.326,200.919,34.108,200.919,33.88z"/>
			</g>
			<g id="text3899">
				<path id="path60" inkscape:connector-curvature="0" fill="#FFFFFF" d="M212.05,38.14c-0.447,0-0.853-0.116-1.218-0.345
					c-0.364-0.235-0.652-0.545-0.861-0.932c-0.209-0.388-0.314-0.802-0.314-1.239c0-0.437,0.103-0.856,0.308-1.255
					c0.209-0.401,0.496-0.72,0.861-0.958c0.368-0.242,0.776-0.362,1.223-0.362c0.433,0,0.826,0.084,1.18,0.253
					c0.357,0.169,0.536,0.447,0.536,0.834c0,0.145-0.052,0.271-0.157,0.379c-0.101,0.105-0.225,0.157-0.374,0.157
					c-0.149,0-0.274-0.052-0.379-0.157c-0.101-0.108-0.151-0.234-0.151-0.379c0-0.13,0.041-0.243,0.125-0.336
					c0.083-0.097,0.186-0.159,0.308-0.185c-0.256-0.161-0.615-0.242-1.077-0.242c-0.354,0-0.639,0.117-0.855,0.352
					c-0.216,0.235-0.368,0.525-0.455,0.872c-0.087,0.346-0.13,0.688-0.13,1.028c0,0.358,0.052,0.704,0.157,1.04
					c0.108,0.332,0.28,0.608,0.514,0.828c0.238,0.216,0.536,0.324,0.893,0.324c0.35,0,0.648-0.107,0.893-0.32
					c0.245-0.216,0.413-0.498,0.503-0.844c0-0.043,0.029-0.064,0.087-0.064h0.135c0.022,0,0.041,0.012,0.059,0.033
					c0.018,0.018,0.027,0.041,0.027,0.065v0.033c-0.112,0.437-0.334,0.783-0.666,1.039C212.892,38.012,212.501,38.14,212.05,38.14z"
					/>
				<path id="path62" inkscape:connector-curvature="0" fill="#FFFFFF" d="M216.974,38.14c-0.444,0-0.855-0.11-1.234-0.336
					c-0.379-0.227-0.678-0.53-0.898-0.909s-0.33-0.792-0.33-1.239c0-0.34,0.06-0.666,0.179-0.979
					c0.123-0.314,0.296-0.594,0.519-0.839c0.227-0.249,0.491-0.442,0.79-0.579c0.299-0.14,0.624-0.211,0.974-0.211
					c0.455,0,0.868,0.12,1.239,0.362c0.375,0.239,0.671,0.56,0.887,0.964c0.216,0.4,0.325,0.827,0.325,1.283
					c0,0.443-0.11,0.856-0.33,1.239c-0.22,0.379-0.519,0.682-0.898,0.909C217.822,38.028,217.414,38.14,216.974,38.14z
					 M216.974,37.815c0.592,0,0.987-0.215,1.185-0.644c0.198-0.43,0.298-0.976,0.298-1.64c0-0.371-0.02-0.678-0.059-0.919
					c-0.04-0.245-0.126-0.468-0.26-0.666c-0.083-0.122-0.189-0.229-0.319-0.319c-0.126-0.093-0.262-0.164-0.406-0.211
					c-0.14-0.051-0.287-0.076-0.438-0.076c-0.231,0-0.451,0.053-0.66,0.157c-0.206,0.104-0.377,0.254-0.514,0.449
					c-0.137,0.21-0.225,0.44-0.265,0.693c-0.036,0.249-0.054,0.547-0.054,0.893c0,0.416,0.036,0.789,0.108,1.121
					c0.072,0.329,0.216,0.604,0.433,0.828C216.242,37.703,216.559,37.815,216.974,37.815z"/>
				<path id="path64" inkscape:connector-curvature="0" fill="#FFFFFF" d="M220.032,38.015v-0.389c0.252,0,0.46-0.02,0.622-0.059
					c0.163-0.041,0.244-0.138,0.244-0.292V34.25c0-0.198-0.031-0.341-0.092-0.428c-0.058-0.09-0.143-0.144-0.254-0.162
					c-0.112-0.022-0.285-0.033-0.519-0.033v-0.389l1.585-0.119V34.2c0.119-0.321,0.289-0.581,0.509-0.78
					c0.22-0.201,0.487-0.303,0.801-0.303c0.22,0,0.417,0.065,0.59,0.195c0.173,0.13,0.26,0.301,0.26,0.515
					c0,0.132-0.049,0.249-0.146,0.352c-0.094,0.097-0.211,0.146-0.351,0.146c-0.137,0-0.254-0.048-0.352-0.146
					c-0.097-0.098-0.146-0.216-0.146-0.352c0-0.198,0.07-0.34,0.211-0.423h-0.065c-0.3,0-0.545,0.109-0.736,0.324
					c-0.187,0.216-0.321,0.486-0.4,0.806c-0.079,0.321-0.119,0.628-0.119,0.919v1.818c0,0.235,0.359,0.352,1.077,0.352v0.389h-2.719
					V38.015z"/>
				<path id="path66" inkscape:connector-curvature="0" fill="#FFFFFF" d="M224.361,38.015v-0.389c0.252,0,0.46-0.02,0.622-0.059
					c0.163-0.041,0.244-0.138,0.244-0.292V34.25c0-0.198-0.031-0.341-0.092-0.428c-0.058-0.09-0.143-0.144-0.254-0.162
					c-0.112-0.022-0.285-0.033-0.519-0.033v-0.389l1.585-0.119V34.2c0.119-0.321,0.289-0.581,0.509-0.78
					c0.22-0.201,0.487-0.303,0.801-0.303c0.22,0,0.417,0.065,0.59,0.195c0.173,0.13,0.26,0.301,0.26,0.515
					c0,0.132-0.049,0.249-0.146,0.352c-0.094,0.097-0.211,0.146-0.351,0.146c-0.137,0-0.254-0.048-0.352-0.146
					c-0.097-0.098-0.146-0.216-0.146-0.352c0-0.198,0.07-0.34,0.211-0.423h-0.065c-0.299,0-0.545,0.109-0.736,0.324
					c-0.187,0.216-0.321,0.486-0.4,0.806c-0.079,0.321-0.119,0.628-0.119,0.919v1.818c0,0.235,0.359,0.352,1.077,0.352v0.389h-2.719
					V38.015z"/>
				<path id="path68" inkscape:connector-curvature="0" fill="#FFFFFF" d="M231.163,38.14c-0.451,0-0.866-0.117-1.244-0.352
					c-0.375-0.237-0.671-0.554-0.887-0.947c-0.213-0.397-0.32-0.815-0.32-1.255c0-0.433,0.098-0.844,0.292-1.234
					c0.198-0.389,0.473-0.704,0.822-0.943c0.354-0.242,0.747-0.362,1.18-0.362c0.339,0,0.633,0.058,0.882,0.172
					c0.253,0.112,0.46,0.269,0.622,0.471c0.163,0.202,0.285,0.439,0.368,0.715c0.083,0.274,0.124,0.576,0.124,0.903
					c0,0.098-0.038,0.146-0.114,0.146h-3.209v0.119c0,0.614,0.123,1.141,0.368,1.581c0.249,0.44,0.653,0.66,1.212,0.66
					c0.227,0,0.437-0.051,0.628-0.152c0.195-0.101,0.363-0.242,0.503-0.422c0.144-0.18,0.241-0.374,0.292-0.579
					c0.007-0.025,0.02-0.047,0.038-0.064c0.021-0.022,0.045-0.033,0.07-0.033h0.097c0.076,0,0.114,0.048,0.114,0.141
					c-0.105,0.418-0.33,0.763-0.676,1.033C231.98,38.007,231.593,38.14,231.163,38.14z M229.691,35.18h2.527
					c0-0.278-0.04-0.56-0.119-0.846c-0.076-0.284-0.204-0.52-0.384-0.709c-0.18-0.191-0.417-0.287-0.709-0.287
					c-0.418,0-0.743,0.197-0.974,0.591C229.805,34.319,229.691,34.736,229.691,35.18z"/>
				<path id="path70" inkscape:connector-curvature="0" fill="#FFFFFF" d="M236.077,38.14c-0.447,0-0.853-0.116-1.218-0.345
					c-0.364-0.235-0.651-0.545-0.86-0.932c-0.209-0.388-0.314-0.802-0.314-1.239c0-0.437,0.103-0.856,0.308-1.255
					c0.209-0.401,0.496-0.72,0.86-0.958c0.368-0.242,0.776-0.362,1.223-0.362c0.433,0,0.826,0.084,1.18,0.253
					c0.357,0.169,0.536,0.447,0.536,0.834c0,0.145-0.052,0.271-0.157,0.379c-0.101,0.105-0.225,0.157-0.373,0.157
					s-0.274-0.052-0.379-0.157c-0.101-0.108-0.152-0.234-0.152-0.379c0-0.13,0.042-0.243,0.125-0.336
					c0.083-0.097,0.186-0.159,0.308-0.185c-0.256-0.161-0.615-0.242-1.077-0.242c-0.354,0-0.638,0.117-0.855,0.352
					c-0.216,0.235-0.368,0.525-0.455,0.872c-0.087,0.346-0.13,0.688-0.13,1.028c0,0.358,0.052,0.704,0.157,1.04
					c0.108,0.332,0.279,0.608,0.514,0.828c0.238,0.216,0.536,0.324,0.893,0.324c0.35,0,0.648-0.107,0.893-0.32
					c0.245-0.216,0.413-0.498,0.503-0.844c0-0.043,0.029-0.064,0.087-0.064h0.135c0.021,0,0.041,0.012,0.059,0.033
					c0.018,0.018,0.027,0.041,0.027,0.065v0.033c-0.112,0.437-0.334,0.783-0.666,1.039C236.92,38.012,236.528,38.14,236.077,38.14z"
					/>
				<path id="path72" inkscape:connector-curvature="0" fill="#FFFFFF" d="M239.362,36.685v-3.058h-0.92V33.34
					c0.484,0,0.839-0.225,1.066-0.677c0.227-0.45,0.341-0.94,0.341-1.467h0.319v2.041h1.564v0.389h-1.564v3.036
					c0,0.306,0.051,0.576,0.152,0.806c0.105,0.232,0.29,0.347,0.557,0.347c0.253,0,0.435-0.122,0.547-0.363
					c0.112-0.245,0.168-0.508,0.168-0.79v-0.655h0.319v0.678c0,0.23-0.043,0.46-0.13,0.686c-0.083,0.224-0.207,0.408-0.374,0.552
					c-0.166,0.144-0.368,0.216-0.606,0.216c-0.444,0-0.796-0.132-1.055-0.395C239.49,37.478,239.362,37.124,239.362,36.685z"/>
				<path id="path74" inkscape:connector-curvature="0" fill="#FFFFFF" d="M245.298,38.14c-0.451,0-0.866-0.117-1.245-0.352
					c-0.375-0.237-0.671-0.554-0.887-0.947c-0.213-0.397-0.319-0.815-0.319-1.255c0-0.433,0.097-0.844,0.292-1.234
					c0.198-0.389,0.472-0.704,0.822-0.943c0.354-0.242,0.747-0.362,1.18-0.362c0.339,0,0.633,0.058,0.882,0.172
					c0.252,0.112,0.46,0.269,0.622,0.471c0.162,0.202,0.285,0.439,0.368,0.715c0.083,0.274,0.125,0.576,0.125,0.903
					c0,0.098-0.038,0.146-0.114,0.146h-3.209v0.119c0,0.614,0.122,1.141,0.368,1.581c0.249,0.44,0.653,0.66,1.212,0.66
					c0.227,0,0.437-0.051,0.628-0.152c0.195-0.101,0.362-0.242,0.503-0.422c0.144-0.18,0.242-0.374,0.292-0.579
					c0.007-0.025,0.02-0.047,0.038-0.064c0.022-0.022,0.045-0.033,0.07-0.033h0.098c0.076,0,0.114,0.048,0.114,0.141
					c-0.105,0.418-0.33,0.763-0.676,1.033C246.116,38.007,245.728,38.14,245.298,38.14z M243.826,35.18h2.527
					c0-0.278-0.04-0.56-0.119-0.846c-0.076-0.284-0.204-0.52-0.384-0.709c-0.18-0.191-0.417-0.287-0.709-0.287
					c-0.419,0-0.743,0.197-0.974,0.591C243.94,34.319,243.826,34.736,243.826,35.18z"/>
				<path id="path76" inkscape:connector-curvature="0" fill="#FFFFFF" d="M250.158,38.14c-0.437,0-0.835-0.117-1.196-0.352
					c-0.361-0.237-0.642-0.55-0.844-0.937c-0.198-0.385-0.298-0.795-0.298-1.228c0-0.447,0.108-0.863,0.325-1.245
					c0.22-0.387,0.518-0.692,0.893-0.919c0.375-0.227,0.788-0.342,1.239-0.342c0.271,0,0.527,0.058,0.768,0.174
					c0.242,0.111,0.451,0.269,0.628,0.471v-2.305c0-0.198-0.031-0.342-0.092-0.428c-0.058-0.09-0.143-0.145-0.254-0.164
					c-0.108-0.02-0.279-0.032-0.514-0.032v-0.389l1.64-0.119v6.684c0,0.194,0.029,0.337,0.087,0.427
					c0.062,0.087,0.146,0.14,0.254,0.162c0.112,0.017,0.285,0.027,0.519,0.027v0.389l-1.672,0.125v-0.698
					c-0.191,0.22-0.418,0.391-0.682,0.514C250.696,38.078,250.429,38.14,250.158,38.14z M249.027,37.052
					c0.126,0.24,0.294,0.434,0.503,0.578c0.213,0.144,0.444,0.216,0.693,0.216c0.307,0,0.588-0.088,0.844-0.265
					c0.256-0.177,0.447-0.405,0.574-0.688v-2.657c-0.087-0.162-0.197-0.307-0.33-0.433c-0.13-0.13-0.278-0.229-0.444-0.298
					c-0.163-0.069-0.336-0.103-0.519-0.103c-0.386,0-0.696,0.11-0.931,0.33c-0.235,0.216-0.398,0.494-0.492,0.832
					c-0.094,0.339-0.141,0.695-0.141,1.066c0,0.297,0.014,0.555,0.043,0.775C248.859,36.628,248.926,36.842,249.027,37.052z"/>
			</g>
			<g id="text3901">
				<path id="path79" inkscape:connector-curvature="0" fill="#FFFFFF" d="M271.61,30.692h-8.813v-1.189h8.813V30.692z
					 M271.61,33.814h-8.813v-1.189h8.813V33.814z"/>
			</g>
			<g id="text3903">
				<path id="path82" inkscape:connector-curvature="0" fill="#FFFFFF" d="M285.718,35.204c-0.966,0-1.835-0.256-2.608-0.765
					c-0.768-0.515-1.37-1.197-1.806-2.044c-0.436-0.852-0.654-1.746-0.654-2.682c0-0.693,0.124-1.38,0.371-2.059
					c0.253-0.679,0.602-1.281,1.048-1.806c0.451-0.525,0.991-0.941,1.62-1.248c0.629-0.307,1.306-0.461,2.029-0.461
					c0.718,0,1.392,0.156,2.021,0.468c0.634,0.307,1.177,0.726,1.627,1.256c0.451,0.53,0.798,1.125,1.041,1.784
					c0.242,0.659,0.364,1.347,0.364,2.066c0,0.698-0.124,1.379-0.372,2.043c-0.243,0.665-0.599,1.258-1.07,1.784
					c-0.466,0.525-1.011,0.934-1.635,1.226c0.193,0.45,0.391,0.801,0.594,1.047c0.203,0.253,0.486,0.379,0.847,0.379
					c0.382,0,0.708-0.13,0.981-0.394c0.273-0.262,0.409-0.582,0.409-0.958c0-0.035,0.017-0.067,0.052-0.096
					c0.039-0.03,0.077-0.045,0.111-0.045c0.114,0,0.171,0.067,0.171,0.201c0,0.728-0.143,1.397-0.431,2.007
					c-0.282,0.61-0.748,0.914-1.397,0.914c-0.357,0-0.651-0.088-0.884-0.266c-0.233-0.173-0.411-0.396-0.535-0.669
					c-0.119-0.267-0.213-0.581-0.282-0.937c-0.069-0.356-0.131-0.68-0.186-0.974C286.699,35.126,286.224,35.204,285.718,35.204z
					 M285.718,34.765c0.456,0,0.897-0.117,1.323-0.35c-0.094-0.436-0.24-0.783-0.438-1.04c-0.193-0.262-0.488-0.394-0.884-0.394
					c-0.243,0-0.448,0.091-0.617,0.275c-0.168,0.178-0.253,0.387-0.253,0.624c0,0.258,0.079,0.471,0.238,0.638
					C285.25,34.682,285.461,34.765,285.718,34.765z M284.455,33.88c0-0.223,0.054-0.434,0.163-0.631
					c0.109-0.198,0.26-0.357,0.454-0.476c0.198-0.122,0.414-0.185,0.646-0.185c0.441,0,0.79,0.143,1.048,0.431
					c0.257,0.282,0.485,0.666,0.684,1.151c0.337-0.252,0.619-0.549,0.847-0.892c0.228-0.346,0.404-0.708,0.528-1.084
					c0.129-0.382,0.22-0.783,0.275-1.204c0.059-0.426,0.089-0.853,0.089-1.278c0-0.704-0.072-1.365-0.216-1.985
					c-0.139-0.619-0.376-1.176-0.713-1.671c-0.292-0.441-0.664-0.795-1.114-1.063c-0.451-0.273-0.927-0.409-1.427-0.409
					c-0.51,0-0.991,0.134-1.442,0.401c-0.446,0.262-0.817,0.619-1.114,1.07c-0.347,0.505-0.59,1.068-0.728,1.687
					c-0.134,0.619-0.201,1.276-0.201,1.97c0,1.079,0.184,2.063,0.55,2.949c0.366,0.882,0.978,1.506,1.835,1.873
					C284.509,34.326,284.455,34.108,284.455,33.88z"/>
			</g>
			<g id="text3905">
				<path id="path85" inkscape:connector-curvature="0" fill="#FFFFFF" d="M293.165,38.015v-0.389c0.253,0,0.46-0.02,0.624-0.059
					c0.161-0.041,0.243-0.138,0.243-0.292V34.25c0-0.284-0.056-0.46-0.168-0.525c-0.109-0.065-0.324-0.098-0.65-0.098v-0.389
					l1.597-0.119v4.157c0,0.156,0.07,0.253,0.211,0.292c0.14,0.039,0.328,0.059,0.562,0.059v0.389h-2.419V38.015z M293.637,31.213
					c0-0.162,0.061-0.305,0.184-0.429c0.122-0.122,0.263-0.184,0.421-0.184c0.106,0,0.206,0.028,0.303,0.081
					c0.097,0.054,0.172,0.13,0.227,0.227c0.054,0.098,0.081,0.198,0.081,0.303c0,0.159-0.062,0.3-0.184,0.422
					c-0.123,0.123-0.266,0.185-0.428,0.185c-0.159,0-0.3-0.062-0.422-0.185C293.698,31.512,293.637,31.371,293.637,31.213
					L293.637,31.213z"/>
				<path id="path87" inkscape:connector-curvature="0" fill="#FFFFFF" d="M296.229,38.015v-0.389c0.253,0,0.46-0.02,0.623-0.059
					c0.162-0.041,0.243-0.138,0.243-0.292V34.25c0-0.198-0.03-0.341-0.091-0.428c-0.058-0.09-0.143-0.144-0.255-0.162
					c-0.111-0.022-0.285-0.033-0.52-0.033v-0.389l1.607-0.119V34.2c0.148-0.319,0.366-0.578,0.655-0.78
					c0.292-0.201,0.61-0.303,0.953-0.303c0.512,0,0.897,0.123,1.152,0.368c0.261,0.245,0.391,0.62,0.391,1.126v2.663
					c0,0.155,0.08,0.252,0.242,0.292c0.162,0.039,0.37,0.059,0.623,0.059v0.388h-2.538v-0.388c0.252,0,0.46-0.02,0.622-0.059
					c0.163-0.041,0.244-0.138,0.244-0.292v-2.631c0-0.361-0.052-0.656-0.157-0.887c-0.105-0.235-0.319-0.35-0.644-0.35
					c-0.429,0-0.783,0.172-1.061,0.514c-0.274,0.342-0.411,0.732-0.411,1.168v2.186c0,0.155,0.081,0.252,0.243,0.292
					c0.162,0.039,0.368,0.059,0.617,0.059v0.389h-2.538V38.015z"/>
				<path id="path89" inkscape:connector-curvature="0" fill="#FFFFFF" d="M304.752,38.14c-0.436,0-0.835-0.117-1.196-0.352
					c-0.361-0.237-0.641-0.55-0.844-0.937c-0.198-0.385-0.298-0.795-0.298-1.228c0-0.447,0.108-0.863,0.325-1.245
					c0.22-0.387,0.518-0.692,0.893-0.919c0.376-0.227,0.788-0.342,1.239-0.342c0.271,0,0.526,0.058,0.768,0.174
					c0.242,0.111,0.452,0.269,0.628,0.471v-2.305c0-0.198-0.03-0.342-0.093-0.428c-0.056-0.09-0.142-0.145-0.253-0.164
					c-0.109-0.02-0.279-0.032-0.515-0.032v-0.389l1.64-0.119v6.684c0,0.194,0.029,0.337,0.087,0.427
					c0.061,0.087,0.145,0.14,0.254,0.162c0.111,0.017,0.285,0.027,0.52,0.027v0.389l-1.672,0.125v-0.698
					c-0.192,0.22-0.418,0.391-0.682,0.514C305.29,38.078,305.023,38.14,304.752,38.14z M303.621,37.052
					c0.126,0.24,0.294,0.434,0.504,0.578c0.213,0.144,0.443,0.216,0.692,0.216c0.307,0,0.588-0.088,0.844-0.265
					c0.256-0.177,0.447-0.405,0.573-0.688v-2.657c-0.087-0.162-0.197-0.307-0.33-0.433c-0.13-0.13-0.278-0.229-0.444-0.298
					c-0.161-0.069-0.336-0.103-0.52-0.103c-0.386,0-0.696,0.11-0.932,0.33c-0.235,0.216-0.397,0.494-0.492,0.832
					c-0.094,0.339-0.14,0.695-0.14,1.066c0,0.297,0.014,0.555,0.043,0.775C303.454,36.628,303.52,36.842,303.621,37.052z"/>
				<path id="path91" inkscape:connector-curvature="0" fill="#FFFFFF" d="M308.535,38.015v-0.389c0.253,0,0.46-0.02,0.623-0.059
					c0.162-0.041,0.243-0.138,0.243-0.292V34.25c0-0.284-0.056-0.46-0.168-0.525c-0.109-0.065-0.324-0.098-0.649-0.098v-0.389
					l1.595-0.119v4.157c0,0.156,0.071,0.253,0.211,0.292c0.14,0.039,0.329,0.059,0.562,0.059v0.389h-2.419V38.015z M309.006,31.213
					c0-0.162,0.062-0.305,0.184-0.429c0.123-0.122,0.264-0.184,0.423-0.184c0.104,0,0.206,0.028,0.303,0.081
					c0.097,0.054,0.174,0.13,0.227,0.227c0.054,0.098,0.081,0.198,0.081,0.303c0,0.159-0.062,0.3-0.185,0.422
					c-0.122,0.123-0.265,0.185-0.426,0.185c-0.159,0-0.3-0.062-0.423-0.185C309.067,31.512,309.006,31.371,309.006,31.213z"/>
				<path id="path93" inkscape:connector-curvature="0" fill="#FFFFFF" d="M314.028,38.14c-0.447,0-0.853-0.116-1.218-0.345
					c-0.365-0.235-0.651-0.545-0.861-0.932c-0.209-0.388-0.313-0.802-0.313-1.239c0-0.437,0.103-0.856,0.308-1.255
					c0.208-0.401,0.496-0.72,0.86-0.958c0.368-0.242,0.776-0.362,1.223-0.362c0.433,0,0.827,0.084,1.18,0.253
					c0.358,0.169,0.536,0.447,0.536,0.834c0,0.145-0.053,0.271-0.159,0.379c-0.101,0.105-0.224,0.157-0.372,0.157
					c-0.148,0-0.274-0.052-0.379-0.157c-0.101-0.108-0.152-0.234-0.152-0.379c0-0.13,0.042-0.243,0.125-0.336
					c0.083-0.097,0.187-0.159,0.308-0.185c-0.256-0.161-0.615-0.242-1.077-0.242c-0.353,0-0.638,0.117-0.854,0.352
					c-0.217,0.235-0.368,0.525-0.455,0.872c-0.087,0.346-0.13,0.688-0.13,1.028c0,0.358,0.052,0.704,0.157,1.04
					c0.108,0.332,0.279,0.608,0.515,0.828c0.237,0.216,0.536,0.324,0.893,0.324c0.35,0,0.648-0.107,0.893-0.32
					c0.245-0.216,0.413-0.498,0.505-0.844c0-0.043,0.028-0.064,0.086-0.064h0.135c0.022,0,0.041,0.012,0.059,0.033
					c0.017,0.018,0.027,0.041,0.027,0.065v0.033c-0.112,0.437-0.334,0.783-0.666,1.039C314.871,38.012,314.479,38.14,314.028,38.14z
					"/>
				<path id="path95" inkscape:connector-curvature="0" fill="#FFFFFF" d="M316.626,36.928c0-0.44,0.174-0.798,0.52-1.071
					c0.346-0.277,0.761-0.473,1.244-0.584c0.486-0.117,0.948-0.174,1.386-0.174v-0.455c0-0.213-0.047-0.418-0.141-0.617
					c-0.093-0.201-0.229-0.366-0.405-0.492c-0.177-0.13-0.372-0.195-0.585-0.195c-0.491,0-0.864,0.11-1.121,0.33
					c0.141,0,0.256,0.054,0.347,0.164c0.093,0.104,0.14,0.227,0.14,0.368c0,0.148-0.051,0.274-0.157,0.379
					c-0.105,0.104-0.229,0.156-0.374,0.156c-0.148,0-0.274-0.052-0.379-0.156c-0.104-0.106-0.157-0.232-0.157-0.379
					c0-0.389,0.177-0.679,0.531-0.866c0.353-0.191,0.743-0.287,1.168-0.287c0.3,0,0.601,0.064,0.904,0.194
					c0.303,0.127,0.549,0.308,0.741,0.547c0.195,0.237,0.292,0.515,0.292,0.833v2.495c0,0.144,0.031,0.278,0.093,0.4
					c0.061,0.119,0.156,0.18,0.287,0.18c0.123,0,0.213-0.062,0.271-0.184c0.062-0.122,0.092-0.254,0.092-0.395v-0.709h0.326v0.709
					c0,0.167-0.043,0.325-0.13,0.476c-0.087,0.148-0.204,0.266-0.352,0.357c-0.146,0.087-0.301,0.13-0.471,0.13
					c-0.217,0-0.405-0.083-0.563-0.249c-0.155-0.169-0.242-0.369-0.258-0.601c-0.139,0.278-0.34,0.499-0.607,0.666
					c-0.266,0.162-0.552,0.243-0.855,0.243c-0.282,0-0.56-0.042-0.833-0.125c-0.271-0.083-0.498-0.213-0.682-0.389
					C316.715,37.445,316.626,37.212,316.626,36.928z M317.524,36.928c0,0.259,0.096,0.478,0.287,0.654
					c0.191,0.177,0.417,0.265,0.676,0.265c0.237,0,0.455-0.059,0.649-0.178c0.195-0.119,0.35-0.282,0.465-0.486
					c0.114-0.206,0.172-0.423,0.172-0.649V35.38c-0.334,0-0.68,0.055-1.034,0.167c-0.35,0.108-0.641,0.28-0.871,0.514
					C317.639,36.297,317.524,36.585,317.524,36.928L317.524,36.928z"/>
				<path id="path97" inkscape:connector-curvature="0" fill="#FFFFFF" d="M322.854,36.685v-3.058h-0.919V33.34
					c0.484,0,0.838-0.225,1.066-0.677c0.227-0.45,0.342-0.94,0.342-1.467h0.319v2.041h1.564v0.389h-1.564v3.036
					c0,0.306,0.051,0.576,0.152,0.806c0.104,0.232,0.29,0.347,0.557,0.347c0.252,0,0.434-0.122,0.547-0.363
					c0.111-0.245,0.167-0.508,0.167-0.79v-0.655h0.32v0.678c0,0.23-0.043,0.46-0.13,0.686c-0.083,0.224-0.207,0.408-0.374,0.552
					c-0.167,0.144-0.368,0.216-0.607,0.216c-0.444,0-0.796-0.132-1.055-0.395C322.983,37.478,322.854,37.124,322.854,36.685z"/>
				<path id="path99" inkscape:connector-curvature="0" fill="#FFFFFF" d="M328.792,38.14c-0.452,0-0.867-0.117-1.244-0.352
					c-0.375-0.237-0.671-0.554-0.887-0.947c-0.213-0.397-0.319-0.815-0.319-1.255c0-0.433,0.098-0.844,0.292-1.234
					c0.198-0.389,0.473-0.704,0.823-0.943c0.353-0.242,0.746-0.362,1.179-0.362c0.34,0,0.633,0.058,0.882,0.172
					c0.253,0.112,0.46,0.269,0.623,0.471c0.161,0.202,0.284,0.439,0.368,0.715c0.083,0.274,0.125,0.576,0.125,0.903
					c0,0.098-0.038,0.146-0.114,0.146h-3.208v0.119c0,0.614,0.122,1.141,0.368,1.581c0.248,0.44,0.653,0.66,1.212,0.66
					c0.227,0,0.436-0.051,0.628-0.152c0.195-0.101,0.363-0.242,0.502-0.422c0.145-0.18,0.242-0.374,0.292-0.579
					c0.007-0.025,0.02-0.047,0.038-0.064c0.022-0.022,0.045-0.033,0.071-0.033h0.097c0.075,0,0.114,0.048,0.114,0.141
					c-0.105,0.418-0.33,0.763-0.678,1.033C329.608,38.007,329.22,38.14,328.792,38.14z M327.319,35.18h2.527
					c0-0.278-0.04-0.56-0.119-0.846c-0.075-0.284-0.203-0.52-0.384-0.709c-0.181-0.191-0.417-0.287-0.709-0.287
					c-0.418,0-0.743,0.197-0.974,0.591C327.433,34.319,327.319,34.736,327.319,35.18z"/>
				<path id="path101" inkscape:connector-curvature="0" fill="#FFFFFF" d="M333.65,38.14c-0.436,0-0.835-0.117-1.196-0.352
					c-0.362-0.237-0.643-0.55-0.844-0.937c-0.198-0.385-0.298-0.795-0.298-1.228c0-0.447,0.108-0.863,0.325-1.245
					c0.219-0.387,0.517-0.692,0.893-0.919c0.375-0.227,0.788-0.342,1.239-0.342c0.27,0,0.526,0.058,0.768,0.174
					c0.242,0.111,0.452,0.269,0.628,0.471v-2.305c0-0.198-0.03-0.342-0.093-0.428c-0.058-0.09-0.142-0.145-0.254-0.164
					c-0.108-0.02-0.279-0.032-0.514-0.032v-0.389l1.64-0.119v6.684c0,0.194,0.029,0.337,0.088,0.427
					c0.061,0.087,0.146,0.14,0.254,0.162c0.111,0.017,0.285,0.027,0.518,0.027v0.389l-1.671,0.125v-0.698
					c-0.192,0.22-0.418,0.391-0.682,0.514C334.188,38.078,333.921,38.14,333.65,38.14z M332.52,37.052
					c0.126,0.24,0.295,0.434,0.504,0.578c0.213,0.144,0.444,0.216,0.693,0.216c0.307,0,0.588-0.088,0.843-0.265
					c0.256-0.177,0.447-0.405,0.573-0.688v-2.657c-0.085-0.162-0.195-0.307-0.33-0.433c-0.13-0.13-0.277-0.229-0.443-0.298
					c-0.162-0.069-0.336-0.103-0.52-0.103c-0.386,0-0.696,0.11-0.931,0.33c-0.235,0.216-0.398,0.494-0.492,0.832
					c-0.094,0.339-0.14,0.695-0.14,1.066c0,0.297,0.014,0.555,0.043,0.775C332.352,36.628,332.418,36.842,332.52,37.052
					L332.52,37.052z"/>
			</g>
			<g id="text3907" transform="scale(0.77887444,1.283904)">
				<path id="path104" inkscape:connector-curvature="0" fill="#FFFFFF" d="M445.226,19.456l5.076,11.162l7.106-24.553h3.667v1.913
					h-2.604l-7.738,26.437h-1.394l-5.956-12.802l-2.43,1.079l-0.445-1.079L445.226,19.456z"/>
			</g>
			<g id="text3909">
				<path id="path107" inkscape:connector-curvature="0" fill="#FFFFFF" d="M360.676,22.916v-0.454c0.886,0,1.329-0.137,1.329-0.41
					v-7.089c0-0.273-0.443-0.41-1.329-0.41V14.1h4.594c0.471,0,0.941,0.097,1.412,0.29c0.471,0.193,0.857,0.475,1.16,0.844
					c0.307,0.37,0.46,0.801,0.46,1.292c0,0.479-0.153,0.899-0.46,1.261c-0.307,0.361-0.694,0.636-1.16,0.825
					c-0.466,0.185-0.937,0.277-1.412,0.277h-2.067v3.163c0,0.273,0.443,0.41,1.331,0.41v0.454H360.676z M363.165,18.505h1.752
					c0.475,0,0.859-0.067,1.153-0.202c0.295-0.139,0.509-0.351,0.643-0.636c0.138-0.29,0.208-0.67,0.208-1.141
					c0-0.701-0.155-1.206-0.466-1.512c-0.307-0.307-0.818-0.46-1.538-0.46h-1.096c-0.156,0-0.278,0.007-0.366,0.019
					c-0.084,0.013-0.153,0.051-0.207,0.114c-0.055,0.059-0.083,0.151-0.083,0.277V18.505L363.165,18.505z"/>
			</g>
			<g id="text3911">
				<path id="path110" inkscape:connector-curvature="0" fill="#FFFFFF" d="M368.059,25.69c-0.379,0-0.722-0.098-1.032-0.294
					c-0.309-0.199-0.552-0.462-0.73-0.789c-0.177-0.33-0.266-0.681-0.266-1.051c0-0.37,0.088-0.725,0.262-1.064
					c0.177-0.34,0.421-0.611,0.73-0.812c0.311-0.205,0.657-0.308,1.037-0.308c0.368,0,0.701,0.072,1,0.216
					c0.303,0.144,0.455,0.379,0.455,0.707c0,0.123-0.045,0.229-0.133,0.321c-0.085,0.089-0.191,0.133-0.317,0.133
					c-0.125,0-0.232-0.045-0.321-0.133c-0.085-0.092-0.127-0.199-0.127-0.321c0-0.11,0.035-0.205,0.105-0.284
					c0.07-0.083,0.158-0.135,0.261-0.156c-0.217-0.138-0.521-0.206-0.914-0.206c-0.3,0-0.541,0.1-0.725,0.298
					c-0.184,0.199-0.313,0.445-0.385,0.739c-0.074,0.294-0.111,0.585-0.111,0.872c0,0.303,0.045,0.597,0.133,0.881
					c0.093,0.281,0.237,0.515,0.436,0.702c0.202,0.184,0.455,0.275,0.757,0.275c0.297,0,0.549-0.09,0.757-0.271
					c0.208-0.184,0.35-0.422,0.426-0.716c0-0.037,0.025-0.055,0.074-0.055h0.114c0.019,0,0.035,0.009,0.051,0.028
					c0.015,0.015,0.023,0.034,0.023,0.055v0.028c-0.096,0.37-0.284,0.664-0.565,0.881C368.773,25.581,368.441,25.69,368.059,25.69z"
					/>
			</g>
			<g id="text3913">
				<path id="path113" inkscape:connector-curvature="0" fill="#FFFFFF" d="M373.51,22.916v-0.454c0.433,0,0.853-0.023,1.261-0.069
					c0.407-0.05,0.611-0.164,0.611-0.34v-7.089c0-0.185-0.052-0.298-0.158-0.34c-0.101-0.046-0.266-0.069-0.498-0.069h-0.541
					c-0.71,0-1.215,0.156-1.513,0.466c-0.155,0.156-0.266,0.405-0.333,0.75c-0.068,0.34-0.125,0.769-0.172,1.286h-0.371l0.245-2.956
					h7.883l0.246,2.956h-0.378c-0.051-0.555-0.107-0.994-0.171-1.317c-0.059-0.328-0.168-0.567-0.327-0.718
					c-0.303-0.311-0.806-0.466-1.513-0.466h-0.541c-0.156,0-0.277,0.007-0.366,0.019c-0.084,0.013-0.153,0.051-0.208,0.114
					c-0.055,0.059-0.083,0.151-0.083,0.277v7.089c0,0.177,0.204,0.29,0.612,0.34c0.408,0.046,0.827,0.069,1.254,0.069v0.454h-4.94
					V22.916z"/>
			</g>
			<g id="text3915">
				<path id="path116" inkscape:connector-curvature="0" fill="#FFFFFF" d="M379.669,25.612v-1.533c0-0.049,0.028-0.073,0.083-0.073
					h0.114c0.036,0,0.062,0.024,0.075,0.073c0.174,0.909,0.596,1.363,1.266,1.363c0.297,0,0.544-0.067,0.743-0.202
					c0.202-0.135,0.303-0.342,0.303-0.624c0-0.202-0.078-0.373-0.234-0.514c-0.156-0.144-0.342-0.242-0.555-0.294l-0.628-0.124
					c-0.211-0.046-0.404-0.116-0.579-0.211c-0.171-0.095-0.311-0.22-0.421-0.376c-0.11-0.159-0.167-0.342-0.167-0.551
					c0-0.275,0.072-0.5,0.216-0.675c0.147-0.177,0.337-0.304,0.57-0.381c0.232-0.08,0.484-0.119,0.753-0.119
					c0.32,0,0.602,0.086,0.84,0.257l0.271-0.234c0-0.015,0.014-0.023,0.046-0.023h0.069c0.018,0,0.035,0.009,0.051,0.027
					c0.014,0.015,0.022,0.032,0.022,0.051v1.23c0,0.058-0.024,0.087-0.073,0.087h-0.114c-0.055,0-0.083-0.029-0.083-0.087
					c0-0.328-0.092-0.591-0.275-0.789c-0.18-0.199-0.434-0.298-0.762-0.298c-0.281,0-0.526,0.052-0.734,0.156
					c-0.206,0.104-0.307,0.283-0.307,0.537c0,0.174,0.072,0.318,0.22,0.431c0.148,0.11,0.324,0.19,0.523,0.239l0.638,0.119
					c0.214,0.049,0.413,0.131,0.596,0.248c0.188,0.116,0.333,0.263,0.44,0.441c0.11,0.177,0.165,0.378,0.165,0.601
					c0,0.226-0.039,0.424-0.119,0.592c-0.077,0.165-0.185,0.303-0.326,0.413c-0.138,0.11-0.301,0.191-0.492,0.243
					c-0.19,0.052-0.389,0.078-0.596,0.078c-0.392,0-0.725-0.131-1.005-0.395l-0.343,0.372c0,0.015-0.017,0.023-0.051,0.023h-0.055
					C379.696,25.69,379.669,25.664,379.669,25.612z"/>
			</g>
			<g id="text3917">
				<path id="path119" inkscape:connector-curvature="0" fill="#FFFFFF" d="M360.349,39.648v-0.455c0.886,0,1.329-0.135,1.329-0.41
					v-7.088c0-0.274-0.443-0.41-1.329-0.41v-0.454h4.594c0.471,0,0.941,0.097,1.412,0.29c0.471,0.193,0.857,0.475,1.16,0.846
					c0.307,0.369,0.46,0.8,0.46,1.291c0,0.478-0.153,0.898-0.46,1.26c-0.306,0.361-0.694,0.636-1.16,0.825
					c-0.466,0.185-0.937,0.277-1.412,0.277h-2.067v3.163c0,0.274,0.443,0.41,1.331,0.41v0.454h-3.857V39.648z M362.838,35.236h1.752
					c0.475,0,0.859-0.067,1.153-0.202c0.295-0.138,0.508-0.35,0.644-0.636c0.138-0.29,0.207-0.67,0.207-1.141
					c0-0.701-0.155-1.206-0.465-1.514c-0.307-0.306-0.819-0.46-1.538-0.46h-1.096c-0.156,0-0.278,0.007-0.366,0.02
					c-0.085,0.012-0.153,0.049-0.208,0.113c-0.054,0.059-0.083,0.151-0.083,0.277V35.236L362.838,35.236z"/>
			</g>
			<g id="text3919">
				<path id="path122" inkscape:connector-curvature="0" fill="#FFFFFF" d="M366.405,42.343V40.81c0-0.048,0.027-0.074,0.083-0.074
					h0.115c0.036,0,0.062,0.025,0.073,0.074c0.174,0.909,0.596,1.362,1.267,1.362c0.297,0,0.544-0.067,0.743-0.201
					c0.201-0.135,0.303-0.343,0.303-0.625c0-0.203-0.077-0.374-0.234-0.514c-0.156-0.145-0.341-0.242-0.555-0.294l-0.628-0.125
					c-0.211-0.046-0.404-0.116-0.579-0.211c-0.171-0.094-0.311-0.22-0.422-0.376c-0.11-0.159-0.165-0.342-0.165-0.551
					c0-0.275,0.072-0.499,0.216-0.675c0.146-0.177,0.337-0.304,0.569-0.382c0.232-0.08,0.484-0.119,0.753-0.119
					c0.321,0,0.601,0.086,0.84,0.257l0.271-0.235c0-0.014,0.015-0.022,0.046-0.022h0.069c0.017,0,0.035,0.009,0.05,0.027
					c0.015,0.015,0.022,0.033,0.022,0.051v1.231c0,0.058-0.023,0.087-0.072,0.087h-0.115c-0.055,0-0.083-0.029-0.083-0.087
					c-0.001-0.327-0.093-0.591-0.277-0.789c-0.18-0.199-0.434-0.298-0.762-0.298c-0.282,0-0.526,0.052-0.734,0.156
					c-0.206,0.104-0.308,0.282-0.308,0.537c0,0.174,0.073,0.318,0.22,0.431c0.151,0.111,0.324,0.19,0.523,0.239l0.638,0.119
					c0.214,0.048,0.413,0.132,0.596,0.248c0.187,0.116,0.334,0.263,0.44,0.44c0.11,0.177,0.165,0.378,0.165,0.601
					c0,0.227-0.04,0.424-0.119,0.592c-0.076,0.165-0.185,0.303-0.326,0.413c-0.138,0.11-0.301,0.191-0.492,0.243
					c-0.19,0.052-0.388,0.077-0.596,0.077c-0.392,0-0.726-0.13-1.005-0.394l-0.343,0.371c0,0.016-0.017,0.022-0.051,0.022h-0.055
					C366.432,42.421,366.405,42.396,366.405,42.343z"/>
			</g>
			<g id="text3921">
				<path id="path125" inkscape:connector-curvature="0" fill="#FFFFFF" d="M374.166,39.648v-0.455c0.431,0,0.853-0.022,1.26-0.068
					c0.407-0.051,0.611-0.164,0.611-0.34v-7.089c0-0.185-0.052-0.298-0.158-0.34c-0.101-0.046-0.266-0.069-0.497-0.069h-0.542
					c-0.709,0-1.213,0.156-1.512,0.467c-0.156,0.155-0.267,0.405-0.334,0.749c-0.067,0.341-0.125,0.77-0.171,1.286h-0.371
					l0.245-2.956h7.883l0.246,2.956h-0.378c-0.051-0.555-0.107-0.994-0.172-1.317c-0.058-0.328-0.168-0.568-0.326-0.718
					c-0.303-0.311-0.806-0.467-1.513-0.467h-0.541c-0.155,0-0.277,0.007-0.365,0.02c-0.085,0.012-0.153,0.049-0.208,0.113
					c-0.055,0.059-0.082,0.151-0.082,0.277v7.089c0,0.177,0.203,0.29,0.611,0.34c0.408,0.046,0.826,0.069,1.255,0.069v0.454
					L374.166,39.648L374.166,39.648z"/>
			</g>
			<g id="text3923">
				<path id="path128" inkscape:connector-curvature="0" fill="#FFFFFF" d="M382.351,42.421c-0.379,0-0.724-0.097-1.032-0.292
					c-0.31-0.199-0.553-0.462-0.73-0.79c-0.178-0.33-0.266-0.68-0.266-1.05c0-0.37,0.087-0.725,0.261-1.065
					c0.177-0.34,0.421-0.61,0.73-0.812c0.312-0.205,0.658-0.308,1.037-0.308c0.366,0,0.701,0.072,1,0.216
					c0.303,0.144,0.455,0.379,0.455,0.707c0,0.122-0.046,0.229-0.133,0.321c-0.086,0.089-0.191,0.133-0.317,0.133
					c-0.125,0-0.232-0.044-0.321-0.133c-0.085-0.092-0.127-0.199-0.127-0.321c0-0.11,0.035-0.206,0.104-0.285
					c0.071-0.083,0.159-0.135,0.262-0.156c-0.217-0.138-0.52-0.206-0.914-0.206c-0.3,0-0.541,0.099-0.725,0.298
					c-0.184,0.198-0.311,0.444-0.386,0.738c-0.073,0.294-0.11,0.585-0.11,0.872c0,0.303,0.046,0.596,0.133,0.882
					c0.09,0.282,0.237,0.515,0.436,0.702c0.202,0.184,0.455,0.274,0.757,0.274c0.297,0,0.549-0.09,0.757-0.271
					c0.208-0.185,0.35-0.422,0.427-0.715c0-0.038,0.025-0.056,0.074-0.056h0.114c0.018,0,0.035,0.009,0.051,0.027
					c0.014,0.015,0.022,0.034,0.022,0.056v0.028c-0.095,0.37-0.283,0.663-0.564,0.88C383.065,42.312,382.734,42.421,382.351,42.421z
					"/>
			</g>
			<g id="text3925">
			</g>
			<g id="flowRoot3947" transform="matrix(0.74127363,0,0,0.74127363,171.57631,3.7368711)">
			</g>
			<rect id="rect3957" x="358.941" y="7.808" fill="#FFFFFF" width="25.001" height="2.431"/>
		</g>
	</g>
	<path id="path3142-1-9" inkscape:connector-curvature="0" fill="#FFFFFF" stroke="#FFFFFF" stroke-width="0.3751" d="
		M362.371,22.043h20.856"/>
</g>
</svg>
