<?xml version="1.0" encoding="UTF-8" standalone="no"?>
<!-- Created with Inkscape (http://www.inkscape.org/) -->

<svg
   xmlns:dc="http://purl.org/dc/elements/1.1/"
   xmlns:cc="http://creativecommons.org/ns#"
   xmlns:rdf="http://www.w3.org/1999/02/22-rdf-syntax-ns#"
   xmlns:svg="http://www.w3.org/2000/svg"
   xmlns="http://www.w3.org/2000/svg"
   xmlns:sodipodi="http://sodipodi.sourceforge.net/DTD/sodipodi-0.dtd"
   xmlns:inkscape="http://www.inkscape.org/namespaces/inkscape"
   version="1.2"
   width="320"
   height="60"
   id="svg3020"
   inkscape:version="0.48.3.1 r9886"
   sodipodi:docname="eqn_conv_09.svg">
  <sodipodi:namedview
     pagecolor="#ffffff"
     bordercolor="#666666"
     borderopacity="1"
     objecttolerance="10"
     gridtolerance="10"
     guidetolerance="10"
     inkscape:pageopacity="0"
     inkscape:pageshadow="2"
     inkscape:window-width="640"
     inkscape:window-height="480"
     id="namedview4140"
     showgrid="false"
     inkscape:zoom="0.871875"
     inkscape:cx="160"
     inkscape:cy="30"
     inkscape:window-x="0"
     inkscape:window-y="0"
     inkscape:window-maximized="0"
     inkscape:current-layer="svg3020" />
  <metadata
     id="metadata3026">
    <rdf:RDF>
      <cc:Work
         rdf:about="">
        <dc:format>image/svg+xml</dc:format>
        <dc:type
           rdf:resource="http://purl.org/dc/dcmitype/StillImage" />
        <dc:title />
      </cc:Work>
    </rdf:RDF>
  </metadata>
  <defs
     id="defs3024" />
  <text
     x="44.56657"
     y="42.23513"
     transform="scale(0.95814898,1.043679)"
     id="text3030"
     xml:space="preserve"
     style="font-size:41.02812958px;font-style:normal;font-variant:normal;font-weight:normal;font-stretch:normal;line-height:125%;letter-spacing:0px;word-spacing:0px;fill:#000000;fill-opacity:1;font-family:Cambria Math;-inkscape-font-specification:Cambria Math"><tspan
       x="44.56657"
       y="42.23513"
       id="tspan3032" /></text>
  <g
     style="font-size:24px;font-style:normal;font-variant:normal;font-weight:normal;font-stretch:normal;text-align:center;line-height:125%;letter-spacing:0px;word-spacing:0px;text-anchor:middle;fill:#ffffff;fill-opacity:1;font-family:cmr10;-inkscape-font-specification:cmr10"
     id="text3015">
    <path
       d="m 105.34381,37.977501 0,-0.84375 c 1.64844,1e-6 2.47265,-0.253905 2.47266,-0.761719 l 0,-13.183594 c -10e-6,-0.507797 -0.82422,-0.761703 -2.47266,-0.761718 l 0,-0.84375 13.23047,0 0.66797,5.496093 -0.69141,0 c -0.10939,-1.0078 -0.25587,-1.802721 -0.43945,-2.384765 -0.18361,-0.582018 -0.45119,-1.039048 -0.80274,-1.371094 -0.35157,-0.332016 -0.82227,-0.564438 -1.4121,-0.697266 -0.58986,-0.132797 -1.40041,-0.199203 -2.43165,-0.199218 l -2.1914,0 c -0.28907,1.5e-5 -0.51368,0.01173 -0.67383,0.03516 -0.16016,0.02345 -0.29102,0.09181 -0.39258,0.205078 -0.10157,0.113296 -0.15235,0.287124 -0.15234,0.521484 l 0,6.175782 1.69922,0 c 0.8203,8e-6 1.42186,-0.07226 1.80468,-0.216797 0.38281,-0.144522 0.64648,-0.408194 0.79102,-0.791016 0.14452,-0.382802 0.21679,-0.984364 0.2168,-1.804687 l 0.6914,0 0,6.457031 -0.6914,0 c -10e-6,-0.820307 -0.0723,-1.421869 -0.2168,-1.804688 -0.14454,-0.382805 -0.40821,-0.646477 -0.79102,-0.791015 -0.38282,-0.144524 -0.98438,-0.216789 -1.80468,-0.216797 l -1.69922,0 0,6.175781 c -1e-5,0.507814 1.02343,0.76172 3.07031,0.761719 l 0,0.84375 z"
       style="fill:#ffffff"
       id="path4143" />
    <path
       d="m 121.00006,37.977501 0,-0.84375 c 0.54687,1e-6 0.99609,-0.04297 1.34766,-0.128906 0.35156,-0.08594 0.52734,-0.296874 0.52734,-0.632813 l 0,-12.597656 c 0,-0.429673 -0.0645,-0.74022 -0.19336,-0.931641 -0.12891,-0.191391 -0.31445,-0.308578 -0.55664,-0.351562 -0.24219,-0.04295 -0.61719,-0.06444 -1.125,-0.06445 l 0,-0.84375 3.5625,-0.257813 0,15.046875 c 0,0.335939 0.17578,0.546876 0.52734,0.632813 0.35156,0.08594 0.79687,0.128907 1.33594,0.128906 l 0,0.84375 z"
       style="fill:#ffffff"
       id="path4145" />
    <path
       d="m 132.91803,38.247032 c -0.96094,0 -1.85157,-0.24414 -2.67188,-0.732422 -0.82031,-0.48828 -1.46875,-1.142576 -1.94531,-1.96289 -0.47656,-0.82031 -0.71484,-1.71484 -0.71484,-2.683594 0,-0.734369 0.13086,-1.4414 0.39258,-2.121094 0.26171,-0.679679 0.63671,-1.287101 1.125,-1.822265 0.48828,-0.535147 1.05663,-0.953115 1.70507,-1.253907 0.64844,-0.30077 1.35156,-0.451161 2.10938,-0.451172 0.98437,1.1e-5 1.88085,0.259777 2.68945,0.779297 0.80859,0.519541 1.44726,1.214853 1.91602,2.085938 0.46874,0.871101 0.70311,1.798834 0.70312,2.783203 -1e-5,0.960942 -0.23829,1.853519 -0.71484,2.677734 -0.47657,0.824221 -1.12306,1.48047 -1.93945,1.96875 -0.81642,0.488282 -1.70118,0.732422 -2.6543,0.732422 z m 0,-0.703125 c 1.28124,1e-6 2.13671,-0.464843 2.56641,-1.394531 0.42967,-0.929685 0.64452,-2.113277 0.64453,-3.550781 -1e-5,-0.804682 -0.043,-1.470697 -0.12891,-1.998047 -0.0859,-0.527336 -0.27345,-1.005851 -0.5625,-1.435547 -0.17969,-0.265616 -0.40821,-0.498038 -0.68555,-0.697266 -0.27735,-0.199209 -0.57032,-0.351552 -0.8789,-0.457031 -0.3086,-0.105459 -0.62696,-0.158193 -0.95508,-0.158203 -0.50001,10e-6 -0.97461,0.113291 -1.42383,0.339844 -0.44922,0.226572 -0.82227,0.55079 -1.11914,0.972656 -0.29688,0.453133 -0.48633,0.95118 -0.56836,1.494141 -0.082,0.542975 -0.12305,1.189459 -0.12305,1.939453 0,0.898442 0.0781,1.705081 0.23438,2.419922 0.15625,0.714846 0.4707,1.314454 0.94336,1.798828 0.47265,0.484375 1.1582,0.726563 2.05664,0.726562 z"
       style="fill:#ffffff"
       id="path4147" />
    <path
       d="m 144.22662,37.977501 -3.10547,-8.730469 c -0.14062,-0.351553 -0.34375,-0.56835 -0.60937,-0.65039 -0.26563,-0.08202 -0.65234,-0.123038 -1.16016,-0.123047 l 0,-0.84375 4.94532,0 0,0.84375 c -0.94532,9e-6 -1.41798,0.199228 -1.41797,0.597656 0.008,0.02345 0.0137,0.04688 0.0176,0.07031 0.004,0.02345 0.006,0.0586 0.006,0.105469 l 2.3086,6.46875 1.99219,-5.636719 -0.31641,-0.832031 c -0.12501,-0.351553 -0.32423,-0.56835 -0.59766,-0.65039 -0.27344,-0.08202 -0.66016,-0.123038 -1.16015,-0.123047 l 0,-0.84375 4.73437,0 0,0.84375 c -0.94532,9e-6 -1.41798,0.199228 -1.41797,0.597656 -1e-5,0.06251 0.008,0.121102 0.0234,0.175781 l 2.40234,6.761719 2.17969,-6.117188 c 0.0312,-0.124991 0.0469,-0.238273 0.0469,-0.339843 -2e-5,-0.335929 -0.14259,-0.599601 -0.42774,-0.791016 -0.28517,-0.191397 -0.60353,-0.2871 -0.95508,-0.287109 l 0,-0.84375 4.07813,0 0,0.84375 c -0.48439,9e-6 -0.90041,0.126962 -1.24805,0.380859 -0.34767,0.253915 -0.60353,0.599618 -0.76758,1.037109 l -2.85937,8.085938 c -0.0547,0.179687 -0.17579,0.269531 -0.36328,0.269531 l -0.1875,0 c -0.18751,0 -0.30861,-0.08984 -0.36328,-0.269531 l -2.42578,-6.84375 -2.42579,6.84375 c -0.0781,0.179687 -0.20313,0.269531 -0.375,0.269531 l -0.17578,0 c -0.19531,0 -0.32031,-0.08984 -0.375,-0.269531 z"
       style="fill:#ffffff"
       id="path4149" />
    <path
       d="m 165.07428,37.977501 0,-0.84375 c 1.64843,1e-6 2.47265,-0.253905 2.47266,-0.761719 l 0,-13.183594 c -1e-5,-0.507797 -0.82423,-0.761703 -2.47266,-0.761718 l 0,-0.84375 7.53516,0 c 0.89842,1.6e-5 1.84178,0.162125 2.83007,0.486328 0.98827,0.324234 1.81444,0.818374 2.47852,1.482422 0.66405,0.664076 0.99608,1.457044 0.99609,2.378906 -1e-5,0.671886 -0.20118,1.271495 -0.60351,1.798828 -0.40236,0.527354 -0.91798,0.968759 -1.54688,1.324219 -0.62892,0.355477 -1.27149,0.611336 -1.92773,0.767578 0.71874,0.250008 1.34764,0.648445 1.88672,1.195312 0.53905,0.546882 0.86327,1.171881 0.97265,1.875 l 0.33985,2.132813 c 0.15623,0.960939 0.3203,1.677736 0.49218,2.150391 0.17187,0.472656 0.55077,0.708984 1.13672,0.708984 0.49999,0 0.87303,-0.232422 1.11914,-0.697266 0.24608,-0.464842 0.36913,-0.970701 0.36914,-1.517578 -1e-5,-0.05468 0.0254,-0.103513 0.0762,-0.146484 0.0508,-0.04297 0.1035,-0.06445 0.1582,-0.06445 l 0.22266,0 c 0.15623,2e-6 0.23435,0.105471 0.23437,0.316406 -2e-5,0.437502 -0.0859,0.865236 -0.25781,1.283203 -0.17189,0.417969 -0.41994,0.763672 -0.74414,1.037109 -0.32424,0.273438 -0.709,0.410156 -1.1543,0.410157 -1.15626,-1e-6 -2.1504,-0.28711 -2.98242,-0.861328 -0.83204,-0.574218 -1.24806,-1.416014 -1.24805,-2.525391 l 0,-2.132813 c -1e-5,-0.796869 -0.27735,-1.480462 -0.83203,-2.050781 -0.5547,-0.570305 -1.23438,-0.855461 -2.03906,-0.855469 l -2.88281,0 0,6.292969 c -1e-5,0.507814 0.82421,0.76172 2.47265,0.761719 l 0,0.84375 z m 4.62891,-8.519531 2.5664,0 c 1.32812,8e-6 2.33984,-0.26757 3.03516,-0.802735 0.6953,-0.535146 1.04296,-1.443348 1.04297,-2.724609 -1e-5,-1.273424 -0.34376,-2.175767 -1.03125,-2.707031 -0.68751,-0.531235 -1.70314,-0.79686 -3.04688,-0.796875 l -1.34765,0 c -0.28907,1.5e-5 -0.51368,0.01173 -0.67383,0.03516 -0.16016,0.02345 -0.29102,0.09181 -0.39258,0.205078 -0.10157,0.113296 -0.15235,0.287124 -0.15234,0.521484 z"
       style="fill:#ffffff"
       id="path4151" />
    <path
       d="m 182.91022,35.622032 c 0,-0.953122 0.375,-1.728511 1.125,-2.326172 0.74999,-0.597651 1.65038,-1.019525 2.70117,-1.265625 1.05077,-0.246087 2.04882,-0.369134 2.99414,-0.36914 l 0,-0.984375 c -10e-6,-0.46093 -0.10157,-0.908195 -0.30469,-1.341797 -0.20313,-0.433585 -0.4961,-0.789053 -0.8789,-1.066406 -0.38282,-0.277334 -0.8047,-0.416006 -1.26563,-0.416016 -1.0625,10e-6 -1.8711,0.238291 -2.42578,0.714844 0.30468,9e-6 0.55664,0.115243 0.75586,0.345703 0.19921,0.230477 0.29882,0.498055 0.29883,0.802734 -1e-5,0.320321 -0.11329,0.593758 -0.33985,0.820313 -0.22656,0.226569 -0.49609,0.339851 -0.80859,0.339843 -0.32032,8e-6 -0.59375,-0.113274 -0.82031,-0.339843 -0.22657,-0.226555 -0.33985,-0.499992 -0.33985,-0.820313 0,-0.843741 0.38281,-1.470693 1.14844,-1.880859 0.76562,-0.410146 1.60937,-0.615224 2.53125,-0.615235 0.64843,1.1e-5 1.30078,0.138683 1.95703,0.416016 0.65624,0.277354 1.19335,0.673838 1.61133,1.189453 0.41796,0.515634 0.62694,1.117196 0.62695,1.804688 l 0,5.402343 c -1e-5,0.312502 0.0664,0.599611 0.19922,0.861329 0.1328,0.261719 0.33984,0.392578 0.6211,0.392578 0.26561,0 0.46288,-0.132812 0.59179,-0.398438 0.1289,-0.265623 0.19335,-0.550779 0.19336,-0.855469 l 0,-1.535156 0.70313,0 0,1.535156 c -1e-5,0.359377 -0.0938,0.701174 -0.28125,1.025391 -0.18751,0.324219 -0.43947,0.582032 -0.75586,0.773438 -0.31642,0.191406 -0.65822,0.287109 -1.02539,0.287109 -0.46876,0 -0.87306,-0.181641 -1.21289,-0.544922 -0.33986,-0.36328 -0.52931,-0.794921 -0.56836,-1.294922 -0.29689,0.601564 -0.73438,1.080079 -1.3125,1.435547 -0.57813,0.355469 -1.19532,0.533203 -1.85157,0.533203 -0.60937,0 -1.20898,-0.08984 -1.79882,-0.269531 -0.58985,-0.179687 -1.08204,-0.46289 -1.47657,-0.849609 -0.39453,-0.386718 -0.59179,-0.888671 -0.59179,-1.50586 z m 1.94531,0 c 0,0.562502 0.20703,1.035158 0.62109,1.417969 0.41406,0.382813 0.90234,0.574219 1.46485,0.574219 0.51562,0 0.98437,-0.128906 1.40625,-0.386719 0.42187,-0.257812 0.7578,-0.609374 1.00781,-1.054688 0.24999,-0.44531 0.37499,-0.914059 0.375,-1.40625 l 0,-2.496093 c -0.72657,5e-6 -1.47071,0.119146 -2.23242,0.357422 -0.76173,0.238286 -1.39258,0.611332 -1.89258,1.11914 -0.5,0.507816 -0.75,1.132816 -0.75,1.875 z"
       style="fill:#ffffff"
       id="path4153" />
    <path
       d="m 196.3985,35.094688 0,-6.621093 -1.99219,0 0,-0.621094 c 1.04687,10e-6 1.81641,-0.488271 2.30859,-1.464844 0.49219,-0.97655 0.73828,-2.035142 0.73829,-3.175781 l 0.6914,0 0,4.417969 3.38672,0 0,0.84375 -3.38672,0 0,6.574218 c 0,0.664065 0.11133,1.246096 0.33399,1.746094 0.22265,0.500001 0.62304,0.750001 1.20117,0.75 0.54687,1e-6 0.9414,-0.263671 1.18359,-0.791015 0.24218,-0.527342 0.36328,-1.095701 0.36328,-1.705079 l 0,-1.417968 0.69141,0 0,1.464843 c -10e-6,0.500003 -0.0918,0.994143 -0.27539,1.482422 -0.1836,0.488282 -0.45509,0.888673 -0.81445,1.201172 -0.35939,0.3125 -0.79689,0.46875 -1.3125,0.46875 -0.96095,0 -1.72071,-0.287109 -2.2793,-0.861328 -0.5586,-0.574218 -0.83789,-1.337889 -0.83789,-2.291016 z"
       style="fill:#ffffff"
       id="path4155" />
    <path
       d="m 209.25397,38.247032 c -0.97657,0 -1.87305,-0.255859 -2.68946,-0.767578 -0.8164,-0.511718 -1.45703,-1.195311 -1.92187,-2.050781 -0.46485,-0.855466 -0.69727,-1.759762 -0.69727,-2.712891 0,-0.937494 0.21289,-1.828118 0.63868,-2.671875 0.42577,-0.843741 1.01952,-1.525381 1.78125,-2.044922 0.76171,-0.51952 1.61132,-0.779286 2.54882,-0.779297 0.73437,1.1e-5 1.37304,0.123058 1.91602,0.369141 0.54296,0.246104 0.99022,0.5879 1.3418,1.025391 0.35155,0.437509 0.61717,0.953133 0.79687,1.546875 0.17968,0.593757 0.26952,1.2461 0.26953,1.957031 -1e-5,0.210943 -0.082,0.316412 -0.24609,0.316406 l -6.94922,0 0,0.257813 c 0,1.328129 0.26757,2.468752 0.80273,3.421875 0.53516,0.953126 1.4082,1.429688 2.61914,1.429687 0.49219,1e-6 0.94726,-0.109374 1.36524,-0.328125 0.41796,-0.218749 0.78124,-0.523436 1.08984,-0.914062 0.30859,-0.390623 0.51757,-0.808592 0.62696,-1.253907 0.0156,-0.05468 0.0449,-0.103512 0.0879,-0.146484 0.043,-0.04297 0.0918,-0.06445 0.14648,-0.06445 l 0.21094,0 c 0.16405,3e-6 0.24608,0.101565 0.24609,0.304687 -0.22657,0.906252 -0.71485,1.650392 -1.46484,2.232422 -0.75001,0.582032 -1.58985,0.873047 -2.51953,0.873047 z m -3.1875,-6.410156 5.47265,0 c 0,-0.601556 -0.084,-1.21093 -0.25195,-1.828125 -0.16798,-0.617179 -0.44727,-1.13085 -0.83789,-1.541016 -0.39063,-0.410146 -0.90235,-0.615224 -1.53516,-0.615234 -0.90625,10e-6 -1.60742,0.423838 -2.10351,1.271484 -0.4961,0.847665 -0.74415,1.751961 -0.74414,2.712891 z"
       style="fill:#ffffff"
       id="path4157" />
  </g>
</svg>
