<?xml version="1.0" encoding="utf-8"?>
<!-- Generator: Adobe Illustrator 16.0.0, SVG Export Plug-In . SVG Version: 6.00 Build 0)  -->
<!DOCTYPE svg PUBLIC "-//W3C//DTD SVG 1.1//EN" "http://www.w3.org/Graphics/SVG/1.1/DTD/svg11.dtd">
<svg version="1.1"
	 id="svg3020" xmlns:dc="http://purl.org/dc/elements/1.1/" xmlns:cc="http://creativecommons.org/ns#" xmlns:rdf="http://www.w3.org/1999/02/22-rdf-syntax-ns#" xmlns:svg="http://www.w3.org/2000/svg" xmlns:inkscape="http://www.inkscape.org/namespaces/inkscape"
	 xmlns="http://www.w3.org/2000/svg" xmlns:xlink="http://www.w3.org/1999/xlink" x="0px" y="0px" width="575px" height="60px"
	 viewBox="0 0 320 60" enable-background="new 0 0 320 60" xml:space="preserve">
<g id="text3030" transform="scale(0.95814898,1.043679)">
</g>
<g id="g3009" transform="matrix(1.4688253,0,0,1.4688253,-277.70507,-0.75165246)">
	<g id="flowRoot3055" transform="matrix(0.68081616,0,0,0.68081616,189.0661,0.51173714)">
	</g>
	<g id="flowRoot3063" transform="matrix(0.68081616,0,0,0.68081616,189.0661,0.51173714)">
	</g>
	<path id="path3142" inkscape:connector-curvature="0" fill="none" stroke="#000000" stroke-width="0.7416" d="M277.067,22.653
		h32.15"/>
	<g id="g3569" transform="matrix(0.68081616,0,0,0.68081616,66.230655,78.160046)">
	</g>
	<g id="g3803" transform="matrix(1.0554215,0,0,1.0554215,-11.240675,0.71427028)">
		<g id="text3805">
			<path id="path58" inkscape:connector-curvature="0" d="M208.89,25.024c-0.876,0-1.665-0.231-2.365-0.694
				c-0.696-0.467-1.242-1.085-1.638-1.853c-0.395-0.773-0.593-1.583-0.593-2.432c0-0.629,0.112-1.251,0.337-1.867
				c0.229-0.615,0.546-1.161,0.95-1.638c0.409-0.476,0.898-0.854,1.469-1.132c0.57-0.278,1.184-0.418,1.84-0.418
				c0.651,0,1.262,0.141,1.833,0.424c0.575,0.279,1.067,0.658,1.476,1.139c0.409,0.481,0.723,1.02,0.943,1.617
				c0.22,0.598,0.33,1.222,0.33,1.873c0,0.633-0.112,1.251-0.337,1.853c-0.22,0.602-0.543,1.14-0.97,1.616
				c-0.422,0.476-0.917,0.847-1.483,1.112c0.175,0.408,0.355,0.725,0.539,0.95c0.184,0.229,0.44,0.343,0.768,0.343
				c0.346,0,0.643-0.119,0.889-0.357c0.247-0.238,0.371-0.528,0.371-0.869c0-0.031,0.016-0.06,0.047-0.087
				c0.036-0.028,0.07-0.041,0.101-0.041c0.103,0,0.155,0.061,0.155,0.182c0,0.66-0.13,1.267-0.391,1.819
				c-0.256,0.552-0.678,0.829-1.267,0.829c-0.323,0-0.591-0.081-0.802-0.243c-0.211-0.157-0.373-0.359-0.485-0.606
				c-0.108-0.243-0.193-0.525-0.256-0.849c-0.063-0.323-0.119-0.617-0.169-0.883C209.78,24.955,209.348,25.024,208.89,25.024z
				 M208.89,24.627c0.413,0,0.813-0.106,1.199-0.317c-0.085-0.395-0.218-0.709-0.398-0.943c-0.175-0.238-0.442-0.357-0.802-0.357
				c-0.22,0-0.407,0.083-0.559,0.249c-0.153,0.162-0.229,0.35-0.229,0.566c0,0.234,0.072,0.427,0.215,0.58
				C208.466,24.553,208.657,24.627,208.89,24.627z M207.745,23.824c0-0.202,0.049-0.393,0.148-0.572
				c0.099-0.18,0.236-0.324,0.411-0.432c0.18-0.113,0.375-0.168,0.586-0.168c0.4,0,0.716,0.13,0.95,0.391
				c0.234,0.256,0.44,0.604,0.62,1.044c0.306-0.229,0.562-0.499,0.768-0.809c0.207-0.314,0.366-0.643,0.478-0.984
				c0.117-0.345,0.2-0.709,0.249-1.091c0.054-0.387,0.081-0.773,0.081-1.159c0-0.638-0.065-1.238-0.195-1.799
				c-0.126-0.562-0.341-1.067-0.647-1.516c-0.265-0.4-0.602-0.721-1.011-0.964c-0.409-0.247-0.84-0.371-1.294-0.371
				c-0.463,0-0.899,0.121-1.307,0.364c-0.404,0.238-0.741,0.562-1.011,0.97c-0.314,0.458-0.535,0.968-0.66,1.53
				c-0.121,0.562-0.182,1.157-0.182,1.786c0,0.979,0.166,1.871,0.499,2.675c0.333,0.8,0.887,1.366,1.665,1.698
				C207.794,24.229,207.745,24.031,207.745,23.824L207.745,23.824z"/>
		</g>
		<g id="text3807">
			<path id="path61" inkscape:connector-curvature="0" d="M215.451,27.568v-0.27c0-0.016,0.007-0.035,0.02-0.054l1.56-1.727
				c0.236-0.255,0.427-0.47,0.574-0.643c0.147-0.174,0.293-0.373,0.437-0.599s0.257-0.455,0.339-0.687
				c0.085-0.236,0.128-0.484,0.128-0.746c0-0.275-0.051-0.537-0.152-0.785c-0.101-0.252-0.254-0.454-0.456-0.603
				c-0.2-0.151-0.442-0.226-0.726-0.226c-0.291,0-0.553,0.088-0.785,0.265c-0.232,0.174-0.396,0.399-0.491,0.677
				c0.026-0.006,0.062-0.009,0.108-0.009c0.151,0,0.278,0.05,0.383,0.152c0.108,0.101,0.162,0.232,0.162,0.392
				c0,0.154-0.054,0.285-0.162,0.393c-0.105,0.105-0.232,0.156-0.383,0.156c-0.157,0-0.289-0.054-0.397-0.161
				c-0.105-0.112-0.157-0.241-0.157-0.388c0-0.252,0.047-0.488,0.142-0.707c0.095-0.222,0.231-0.418,0.407-0.588
				c0.18-0.174,0.381-0.306,0.604-0.398c0.226-0.091,0.465-0.137,0.717-0.137c0.383,0,0.739,0.082,1.07,0.246
				c0.33,0.16,0.592,0.389,0.785,0.687c0.193,0.295,0.289,0.64,0.289,1.036c0,0.291-0.064,0.568-0.191,0.83
				c-0.128,0.261-0.291,0.501-0.491,0.716c-0.199,0.213-0.454,0.455-0.765,0.726c-0.311,0.271-0.515,0.453-0.614,0.545l-1.138,1.094
				h0.967c0.474,0,0.87-0.003,1.188-0.009c0.32-0.01,0.491-0.023,0.51-0.04c0.078-0.085,0.159-0.394,0.24-0.927h0.294l-0.285,1.791
				H215.451z"/>
		</g>
		<g id="text3809">
			<path id="path64" inkscape:connector-curvature="0" d="M223.574,19.829v-0.896h8.301v0.896H223.574z M223.574,22.625v-0.896
				h8.301v0.896H223.574z M232.158,20.779L232.158,20.779z"/>
		</g>
		<g id="text3811">
			<path id="path67" inkscape:connector-curvature="0" d="M242.04,25.024c-0.876,0-1.664-0.231-2.365-0.694
				c-0.696-0.467-1.242-1.085-1.637-1.853c-0.395-0.773-0.593-1.583-0.593-2.432c0-0.629,0.112-1.251,0.337-1.867
				c0.229-0.615,0.546-1.161,0.95-1.638c0.409-0.476,0.899-0.854,1.469-1.132c0.57-0.278,1.184-0.418,1.839-0.418
				c0.651,0,1.262,0.141,1.833,0.424c0.575,0.279,1.067,0.658,1.476,1.139c0.409,0.481,0.724,1.02,0.944,1.617
				c0.22,0.598,0.33,1.222,0.33,1.873c0,0.633-0.112,1.251-0.337,1.853c-0.22,0.602-0.544,1.14-0.97,1.616
				c-0.422,0.476-0.916,0.847-1.482,1.112c0.175,0.408,0.355,0.725,0.539,0.95c0.184,0.229,0.44,0.343,0.768,0.343
				c0.346,0,0.643-0.119,0.889-0.357c0.247-0.238,0.371-0.528,0.371-0.869c0-0.031,0.016-0.06,0.047-0.087
				c0.036-0.028,0.07-0.041,0.101-0.041c0.104,0,0.155,0.061,0.155,0.182c0,0.66-0.13,1.267-0.391,1.819
				c-0.256,0.552-0.678,0.829-1.267,0.829c-0.323,0-0.591-0.081-0.802-0.243c-0.211-0.157-0.373-0.359-0.485-0.606
				c-0.108-0.243-0.193-0.525-0.256-0.849c-0.063-0.323-0.119-0.617-0.168-0.883C242.93,24.955,242.498,25.024,242.04,25.024z
				 M242.04,24.627c0.414,0,0.813-0.106,1.199-0.317c-0.085-0.395-0.218-0.709-0.397-0.943c-0.175-0.238-0.442-0.357-0.802-0.357
				c-0.22,0-0.406,0.083-0.559,0.249c-0.153,0.162-0.229,0.35-0.229,0.566c0,0.234,0.072,0.427,0.215,0.58
				C241.616,24.553,241.807,24.627,242.04,24.627z M240.895,23.824c0-0.202,0.049-0.393,0.148-0.572
				c0.099-0.18,0.236-0.324,0.411-0.432c0.18-0.113,0.375-0.168,0.586-0.168c0.4,0,0.717,0.13,0.95,0.391
				c0.233,0.256,0.44,0.604,0.62,1.044c0.306-0.229,0.562-0.499,0.768-0.809c0.207-0.314,0.366-0.643,0.478-0.984
				c0.117-0.345,0.2-0.709,0.249-1.091c0.054-0.387,0.081-0.773,0.081-1.159c0-0.638-0.065-1.238-0.195-1.799
				c-0.126-0.562-0.341-1.067-0.647-1.516c-0.265-0.4-0.602-0.721-1.011-0.964c-0.409-0.247-0.84-0.371-1.294-0.371
				c-0.463,0-0.899,0.121-1.307,0.364c-0.404,0.238-0.741,0.562-1.011,0.97c-0.314,0.458-0.535,0.968-0.66,1.53
				c-0.121,0.562-0.182,1.157-0.182,1.786c0,0.979,0.166,1.871,0.499,2.675c0.333,0.8,0.887,1.366,1.664,1.698
				C240.944,24.229,240.895,24.031,240.895,23.824z"/>
		</g>
		<g id="text3813">
			<path id="path70" inkscape:connector-curvature="0" d="M248.732,27.568v-0.353c0.838,0,1.256-0.106,1.256-0.319V21.62
				c-0.347,0.168-0.785,0.251-1.315,0.251v-0.353c0.821,0,1.441-0.214,1.86-0.643h0.142c0.023,0,0.044,0.01,0.064,0.03
				c0.023,0.016,0.034,0.035,0.034,0.059v5.933c0,0.212,0.419,0.319,1.256,0.319v0.353H248.732z"/>
		</g>
		<g id="text3815">
			<path id="path73" inkscape:connector-curvature="0" d="M256.273,23.167c-0.171,0-0.317-0.065-0.438-0.195
				c-0.117-0.135-0.175-0.285-0.175-0.451c0-0.117,0.029-0.22,0.088-0.31c0.058-0.094,0.137-0.157,0.236-0.189l2.001-0.714
				l-2.001-0.721c-0.099-0.031-0.178-0.094-0.236-0.189c-0.059-0.094-0.088-0.198-0.088-0.31c0-0.171,0.058-0.321,0.175-0.451
				c0.121-0.131,0.267-0.196,0.438-0.196c0.104,0,0.2,0.034,0.29,0.101l1.712,1.32l-0.337-2.028v-0.067
				c0-0.153,0.06-0.278,0.182-0.377c0.126-0.099,0.267-0.148,0.425-0.148c0.153,0,0.29,0.049,0.411,0.148
				c0.126,0.099,0.189,0.225,0.189,0.377v0.067l-0.337,2.028l1.712-1.32c0.09-0.068,0.186-0.101,0.29-0.101
				c0.171,0,0.317,0.065,0.438,0.196c0.126,0.125,0.189,0.276,0.189,0.451c0,0.103-0.031,0.204-0.094,0.304
				c-0.063,0.098-0.144,0.164-0.243,0.195l-2.001,0.721l2.001,0.714c0.099,0.032,0.18,0.094,0.243,0.189
				c0.063,0.094,0.094,0.197,0.094,0.31c0,0.166-0.063,0.316-0.189,0.451c-0.121,0.13-0.267,0.195-0.438,0.195
				c-0.099,0-0.196-0.031-0.29-0.094l-1.712-1.327l0.337,2.015v0.081c0,0.152-0.063,0.278-0.189,0.377
				c-0.121,0.099-0.258,0.148-0.411,0.148c-0.157,0-0.299-0.049-0.425-0.148c-0.121-0.099-0.182-0.225-0.182-0.377V23.76
				l0.337-2.015l-1.712,1.327C256.469,23.135,256.372,23.167,256.273,23.167z"/>
		</g>
		<g id="text3817">
			<path id="path76" inkscape:connector-curvature="0" d="M272.73,34.981c-1.149-0.907-2.142-1.95-2.978-3.13
				c-0.826-1.169-1.507-2.419-2.041-3.749c-0.524-1.33-0.917-2.721-1.179-4.173c-0.262-1.451-0.393-2.908-0.393-4.369
				c0-1.482,0.131-2.948,0.393-4.4c0.262-1.451,0.66-2.847,1.194-4.188c0.544-1.341,1.235-2.595,2.071-3.765
				c0.837-1.169,1.814-2.192,2.933-3.069c0-0.04,0.05-0.06,0.151-0.06h0.287c0.06,0,0.116,0.03,0.166,0.091
				c0.05,0.05,0.076,0.111,0.076,0.181c0,0.091-0.02,0.156-0.06,0.197c-1.008,0.988-1.85,2.046-2.525,3.175
				c-0.665,1.129-1.204,2.333-1.618,3.613c-0.403,1.27-0.695,2.59-0.877,3.961c-0.181,1.361-0.272,2.782-0.272,4.263
				c0,6.562,1.754,11.546,5.261,14.952c0.06,0.06,0.091,0.146,0.091,0.257c0,0.05-0.03,0.106-0.091,0.166
				c-0.05,0.071-0.101,0.106-0.151,0.106h-0.287C272.781,35.042,272.73,35.022,272.73,34.981z"/>
		</g>
		<g id="text3819">
			<path id="path79" inkscape:connector-curvature="0" d="M274.525,14.429v-3.221c0-0.072,0.041-0.108,0.121-0.108h0.169
				c0.027,0,0.052,0.011,0.074,0.034c0.023,0.022,0.034,0.047,0.034,0.074c0,0.903,0.279,1.604,0.836,2.102
				c0.562,0.494,1.296,0.741,2.204,0.741c0.319,0,0.613-0.092,0.883-0.276c0.27-0.184,0.478-0.425,0.627-0.721
				c0.153-0.301,0.229-0.611,0.229-0.93c0-0.279-0.056-0.548-0.169-0.809c-0.112-0.265-0.274-0.494-0.485-0.687
				c-0.211-0.193-0.449-0.321-0.714-0.384l-1.792-0.438c-0.593-0.157-1.078-0.478-1.455-0.964c-0.373-0.49-0.559-1.038-0.559-1.644
				c0-0.476,0.121-0.923,0.364-1.341c0.243-0.418,0.568-0.748,0.977-0.991c0.413-0.243,0.858-0.364,1.334-0.364
				c0.921,0,1.653,0.312,2.197,0.937l0.566-0.896c0.027-0.027,0.058-0.04,0.094-0.04h0.094c0.027,0,0.052,0.011,0.074,0.034
				c0.027,0.018,0.04,0.045,0.04,0.081v3.2c0,0.081-0.038,0.121-0.115,0.121h-0.162c-0.085,0-0.128-0.04-0.128-0.121
				c0-0.233-0.04-0.489-0.121-0.768c-0.076-0.278-0.184-0.546-0.323-0.802c-0.139-0.256-0.289-0.465-0.451-0.627
				c-0.445-0.449-1.033-0.674-1.765-0.674c-0.314,0-0.604,0.081-0.869,0.243c-0.265,0.157-0.476,0.373-0.633,0.647
				c-0.157,0.274-0.236,0.561-0.236,0.862c0,0.395,0.121,0.755,0.364,1.078c0.247,0.319,0.568,0.53,0.964,0.633l1.793,0.438
				c0.296,0.072,0.575,0.202,0.835,0.391c0.265,0.184,0.485,0.4,0.66,0.647c0.175,0.247,0.312,0.523,0.411,0.829
				c0.099,0.301,0.148,0.613,0.148,0.937c0,0.499-0.115,0.97-0.344,1.415c-0.229,0.44-0.553,0.795-0.97,1.065
				c-0.413,0.269-0.867,0.404-1.361,0.404c-0.306,0-0.618-0.034-0.937-0.101c-0.319-0.067-0.613-0.17-0.883-0.31
				c-0.269-0.139-0.514-0.319-0.734-0.539l-0.58,0.91c-0.027,0.027-0.061,0.04-0.101,0.04h-0.081
				C274.566,14.536,274.525,14.501,274.525,14.429z"/>
			<path id="path81" inkscape:connector-curvature="0" d="M281.829,14.233v-0.485c0.314,0,0.573-0.025,0.775-0.074
				c0.202-0.049,0.303-0.171,0.303-0.364V9.543c0-0.355-0.07-0.573-0.209-0.654c-0.135-0.081-0.404-0.121-0.809-0.121V8.284
				l1.988-0.148v5.175c0,0.193,0.088,0.314,0.263,0.364c0.175,0.049,0.409,0.074,0.701,0.074v0.485H281.829z M282.416,5.763
				c0-0.202,0.076-0.38,0.229-0.532s0.328-0.229,0.526-0.229c0.13,0,0.256,0.034,0.377,0.101c0.121,0.067,0.215,0.162,0.283,0.283
				c0.067,0.122,0.101,0.247,0.101,0.377c0,0.198-0.076,0.373-0.229,0.526c-0.153,0.153-0.33,0.229-0.532,0.229
				c-0.198,0-0.373-0.076-0.526-0.229C282.492,6.136,282.416,5.961,282.416,5.763z"/>
			<path id="path83" inkscape:connector-curvature="0" d="M285.771,14.233c-0.104,0-0.155-0.052-0.155-0.155V13.97
				c0-0.036,0.013-0.067,0.04-0.094l3.854-5.229h-1.24c-0.391,0-0.714,0.025-0.97,0.074c-0.252,0.049-0.46,0.144-0.627,0.283
				c-0.162,0.135-0.281,0.323-0.357,0.566c-0.072,0.238-0.108,0.568-0.108,0.99h-0.397l0.155-2.277h4.623
				c0.04,0,0.074,0.015,0.101,0.047c0.031,0.027,0.047,0.063,0.047,0.108v0.081c0,0.027-0.009,0.059-0.027,0.094l-3.861,5.222h1.321
				c0.4,0,0.732-0.025,0.997-0.074c0.27-0.049,0.499-0.168,0.687-0.357c0.175-0.175,0.294-0.411,0.357-0.707
				c0.067-0.296,0.119-0.663,0.155-1.098h0.397l-0.236,2.635H285.771z"/>
			<path id="path85" inkscape:connector-curvature="0" d="M294.787,14.388c-0.561,0-1.078-0.146-1.55-0.438
				c-0.467-0.296-0.836-0.689-1.105-1.179c-0.265-0.494-0.397-1.015-0.397-1.563c0-0.539,0.121-1.051,0.364-1.536
				c0.247-0.485,0.588-0.876,1.024-1.172c0.44-0.301,0.93-0.451,1.469-0.451c0.422,0,0.789,0.072,1.099,0.215
				c0.314,0.139,0.573,0.335,0.775,0.586c0.202,0.252,0.355,0.548,0.458,0.889s0.155,0.717,0.155,1.125
				c0,0.121-0.047,0.182-0.142,0.182h-3.995v0.148c0,0.764,0.153,1.42,0.458,1.968c0.311,0.548,0.814,0.822,1.51,0.822
				c0.283,0,0.544-0.063,0.782-0.189c0.242-0.126,0.451-0.301,0.626-0.526c0.18-0.225,0.301-0.465,0.364-0.721
				c0.009-0.031,0.025-0.058,0.047-0.081c0.027-0.027,0.056-0.041,0.088-0.041h0.121c0.094,0,0.142,0.059,0.142,0.175
				c-0.13,0.521-0.411,0.95-0.842,1.287C295.805,14.222,295.322,14.388,294.787,14.388z M292.954,10.703h3.147
				c0-0.346-0.049-0.696-0.148-1.051c-0.094-0.355-0.254-0.649-0.478-0.883c-0.225-0.238-0.519-0.357-0.883-0.357
				c-0.521,0-0.925,0.245-1.213,0.735C293.096,9.631,292.954,10.15,292.954,10.703L292.954,10.703z"/>
		</g>
		<g id="text3821">
			<path id="path88" inkscape:connector-curvature="0" d="M299.001,17.08v-0.27c0-0.016,0.007-0.034,0.02-0.054l1.561-1.727
				c0.236-0.255,0.426-0.47,0.574-0.643c0.147-0.173,0.293-0.373,0.437-0.599c0.144-0.225,0.257-0.454,0.339-0.687
				c0.084-0.236,0.127-0.484,0.127-0.746c0-0.275-0.05-0.537-0.152-0.785c-0.101-0.252-0.253-0.453-0.456-0.604
				c-0.199-0.151-0.442-0.226-0.726-0.226c-0.292,0-0.553,0.089-0.786,0.265c-0.232,0.173-0.396,0.399-0.491,0.677
				c0.026-0.007,0.062-0.01,0.108-0.01c0.15,0,0.278,0.051,0.382,0.152c0.108,0.101,0.162,0.232,0.162,0.393
				c0,0.154-0.054,0.284-0.162,0.392c-0.105,0.105-0.232,0.157-0.382,0.157c-0.157,0-0.29-0.054-0.398-0.162
				c-0.105-0.111-0.157-0.24-0.157-0.387c0-0.252,0.047-0.488,0.142-0.707c0.095-0.222,0.231-0.419,0.408-0.589
				c0.18-0.174,0.38-0.306,0.603-0.397c0.226-0.092,0.464-0.138,0.716-0.138c0.382,0,0.739,0.082,1.07,0.246
				c0.331,0.16,0.592,0.389,0.786,0.687c0.193,0.294,0.289,0.639,0.289,1.035c0,0.291-0.064,0.568-0.191,0.829
				c-0.128,0.262-0.292,0.5-0.491,0.717c-0.199,0.213-0.455,0.454-0.765,0.726c-0.311,0.272-0.515,0.453-0.613,0.545l-1.139,1.094
				h0.967c0.474,0,0.87-0.003,1.187-0.01c0.321-0.01,0.491-0.023,0.51-0.039c0.079-0.085,0.159-0.394,0.241-0.927h0.294
				l-0.284,1.791H299.001z"/>
		</g>
		<g id="text3823">
			<path id="path91" inkscape:connector-curvature="0" d="M274.675,34.205v-3.221c0-0.072,0.04-0.108,0.121-0.108h0.168
				c0.027,0,0.052,0.011,0.074,0.033c0.022,0.023,0.034,0.047,0.034,0.074c0,0.903,0.278,1.604,0.835,2.103
				c0.562,0.494,1.296,0.741,2.204,0.741c0.319,0,0.613-0.092,0.883-0.276c0.27-0.185,0.478-0.425,0.627-0.721
				c0.153-0.301,0.229-0.611,0.229-0.93c0-0.279-0.056-0.548-0.168-0.809c-0.112-0.265-0.274-0.494-0.485-0.687
				c-0.211-0.193-0.449-0.321-0.714-0.384l-1.792-0.438c-0.593-0.157-1.078-0.478-1.455-0.963c-0.373-0.49-0.559-1.038-0.559-1.644
				c0-0.476,0.121-0.924,0.364-1.341c0.243-0.418,0.568-0.748,0.977-0.991c0.413-0.242,0.858-0.363,1.334-0.363
				c0.921,0,1.653,0.312,2.197,0.937l0.566-0.896c0.027-0.027,0.058-0.04,0.094-0.04h0.094c0.027,0,0.052,0.011,0.074,0.033
				c0.027,0.018,0.04,0.045,0.04,0.081v3.201c0,0.081-0.038,0.121-0.115,0.121h-0.162c-0.085,0-0.128-0.04-0.128-0.121
				c0-0.234-0.04-0.49-0.121-0.769c-0.076-0.278-0.184-0.546-0.323-0.801c-0.139-0.256-0.29-0.465-0.451-0.627
				c-0.445-0.449-1.033-0.673-1.765-0.673c-0.314,0-0.604,0.081-0.869,0.243c-0.265,0.157-0.476,0.373-0.633,0.647
				c-0.157,0.274-0.236,0.561-0.236,0.862c0,0.396,0.121,0.755,0.364,1.078c0.247,0.319,0.568,0.53,0.964,0.633l1.793,0.438
				c0.296,0.072,0.575,0.202,0.835,0.391c0.265,0.185,0.485,0.401,0.66,0.648c0.175,0.247,0.312,0.523,0.411,0.828
				c0.099,0.301,0.148,0.613,0.148,0.937c0,0.499-0.115,0.97-0.344,1.415c-0.229,0.44-0.553,0.795-0.97,1.065
				c-0.413,0.27-0.867,0.404-1.361,0.404c-0.306,0-0.618-0.034-0.937-0.101c-0.319-0.067-0.613-0.171-0.883-0.31
				c-0.269-0.14-0.514-0.319-0.734-0.539l-0.58,0.91c-0.027,0.027-0.061,0.04-0.101,0.04h-0.081
				C274.715,34.313,274.675,34.277,274.675,34.205z"/>
			<path id="path93" inkscape:connector-curvature="0" d="M281.979,34.01v-0.486c0.314,0,0.573-0.024,0.775-0.074
				s0.303-0.171,0.303-0.363V29.32c0-0.355-0.07-0.573-0.209-0.654c-0.134-0.081-0.404-0.121-0.809-0.121V28.06l1.988-0.149v5.176
				c0,0.193,0.088,0.314,0.263,0.363c0.175,0.05,0.409,0.074,0.701,0.074v0.486H281.979z M282.566,25.54
				c0-0.202,0.077-0.38,0.229-0.532c0.153-0.152,0.328-0.229,0.526-0.229c0.13,0,0.256,0.034,0.377,0.101
				c0.121,0.067,0.216,0.162,0.283,0.283c0.067,0.122,0.101,0.247,0.101,0.377c0,0.198-0.076,0.373-0.229,0.526
				c-0.153,0.152-0.33,0.229-0.532,0.229c-0.198,0-0.373-0.076-0.526-0.229C282.642,25.913,282.566,25.738,282.566,25.54z"/>
			<path id="path95" inkscape:connector-curvature="0" d="M285.921,34.01c-0.103,0-0.155-0.052-0.155-0.155v-0.108
				c0-0.037,0.014-0.068,0.04-0.094l3.854-5.229h-1.24c-0.391,0-0.714,0.024-0.97,0.074c-0.252,0.05-0.46,0.144-0.627,0.283
				c-0.162,0.135-0.281,0.324-0.357,0.566c-0.072,0.238-0.108,0.568-0.108,0.99h-0.397l0.155-2.277h4.623
				c0.04,0,0.074,0.015,0.101,0.047c0.031,0.028,0.047,0.063,0.047,0.108v0.081c0,0.027-0.009,0.059-0.027,0.094l-3.861,5.222h1.321
				c0.4,0,0.732-0.025,0.997-0.074c0.27-0.049,0.499-0.169,0.687-0.357c0.175-0.175,0.294-0.411,0.357-0.707
				c0.067-0.296,0.119-0.663,0.155-1.099h0.397l-0.236,2.635H285.921z"/>
			<path id="path97" inkscape:connector-curvature="0" d="M294.937,34.165c-0.561,0-1.078-0.146-1.55-0.438
				c-0.467-0.297-0.835-0.69-1.105-1.179c-0.265-0.495-0.398-1.015-0.398-1.564c0-0.539,0.121-1.051,0.364-1.536
				c0.247-0.485,0.588-0.876,1.024-1.172c0.44-0.301,0.93-0.451,1.469-0.451c0.422,0,0.789,0.072,1.099,0.215
				c0.314,0.139,0.573,0.335,0.775,0.586c0.202,0.252,0.355,0.548,0.459,0.889c0.103,0.341,0.155,0.717,0.155,1.125
				c0,0.122-0.048,0.183-0.142,0.183h-3.995v0.147c0,0.764,0.153,1.42,0.458,1.968c0.31,0.548,0.813,0.822,1.509,0.822
				c0.283,0,0.544-0.063,0.782-0.188c0.243-0.126,0.451-0.301,0.626-0.526c0.18-0.225,0.301-0.465,0.364-0.721
				c0.009-0.031,0.025-0.058,0.047-0.081c0.027-0.026,0.056-0.04,0.088-0.04h0.121c0.095,0,0.142,0.059,0.142,0.175
				c-0.131,0.522-0.411,0.95-0.843,1.288C295.955,33.999,295.472,34.165,294.937,34.165z M293.104,30.479h3.147
				c0-0.346-0.049-0.697-0.148-1.051c-0.094-0.355-0.254-0.649-0.478-0.883c-0.225-0.238-0.519-0.357-0.883-0.357
				c-0.521,0-0.925,0.245-1.213,0.735C293.246,29.408,293.104,29.926,293.104,30.479z"/>
		</g>
		<g id="text3825">
			<path id="path100" inkscape:connector-curvature="0" d="M299.282,36.857v-0.353c0.838,0,1.257-0.106,1.257-0.319v-5.275
				c-0.347,0.167-0.786,0.251-1.315,0.251v-0.353c0.821,0,1.441-0.215,1.86-0.643h0.142c0.023,0,0.044,0.01,0.063,0.03
				c0.023,0.016,0.035,0.036,0.035,0.059v5.933c0,0.213,0.419,0.319,1.257,0.319v0.353H299.282z"/>
		</g>
		<g id="text3827">
			<path id="path103" inkscape:connector-curvature="0" d="M303.091,35.042c-0.181,0-0.272-0.091-0.272-0.272
				c0-0.091,0.02-0.156,0.06-0.197c3.528-3.447,5.292-8.451,5.292-15.013s-1.744-11.546-5.231-14.952
				c-0.081-0.05-0.121-0.136-0.121-0.257c0-0.071,0.025-0.131,0.076-0.181c0.06-0.06,0.126-0.091,0.197-0.091h0.287
				c0.06,0,0.111,0.02,0.151,0.06c1.482,1.169,2.716,2.59,3.704,4.263c0.988,1.673,1.708,3.457,2.162,5.352
				c0.464,1.895,0.695,3.83,0.695,5.806c0,1.461-0.126,2.903-0.378,4.324c-0.242,1.411-0.635,2.802-1.179,4.173
				c-0.534,1.381-1.215,2.651-2.041,3.81c-0.826,1.169-1.814,2.207-2.963,3.114c-0.04,0.04-0.091,0.06-0.151,0.06H303.091z"/>
		</g>
		<g id="text3829">
			<path id="path106" inkscape:connector-curvature="0" d="M312.657,7.315c0.157,0.229,0.368,0.399,0.632,0.51
				c0.266,0.111,0.55,0.167,0.854,0.167c0.389,0,0.666-0.165,0.829-0.496c0.164-0.334,0.246-0.712,0.246-1.134
				c0-0.19-0.018-0.38-0.054-0.569c-0.033-0.19-0.089-0.366-0.171-0.53c-0.082-0.163-0.195-0.294-0.339-0.392
				c-0.14-0.098-0.314-0.147-0.52-0.147h-0.667c-0.059,0-0.088-0.031-0.088-0.093V4.543c0-0.052,0.03-0.078,0.088-0.078l0.555-0.044
				c0.236,0,0.43-0.089,0.583-0.265c0.158-0.177,0.272-0.391,0.344-0.643c0.072-0.255,0.108-0.497,0.108-0.726
				c0-0.321-0.075-0.584-0.226-0.79c-0.15-0.206-0.379-0.309-0.687-0.309c-0.255,0-0.499,0.049-0.731,0.147
				c-0.233,0.095-0.417,0.24-0.555,0.437c0.013-0.003,0.025-0.005,0.035-0.005c0.01-0.003,0.021-0.005,0.034-0.005
				c0.151,0,0.277,0.053,0.378,0.157c0.101,0.105,0.152,0.231,0.152,0.378c0,0.144-0.051,0.268-0.152,0.373
				c-0.101,0.105-0.227,0.157-0.378,0.157c-0.147,0-0.273-0.052-0.378-0.157c-0.105-0.105-0.157-0.229-0.157-0.373
				c0-0.288,0.087-0.538,0.26-0.751c0.174-0.213,0.396-0.373,0.668-0.481c0.275-0.111,0.549-0.167,0.824-0.167
				c0.203,0,0.417,0.031,0.643,0.093c0.226,0.059,0.431,0.146,0.614,0.26c0.184,0.111,0.333,0.255,0.447,0.432
				c0.117,0.177,0.176,0.378,0.176,0.604c0,0.281-0.064,0.541-0.191,0.78c-0.125,0.239-0.296,0.445-0.515,0.618
				c-0.219,0.173-0.46,0.302-0.721,0.387c0.291,0.056,0.568,0.165,0.83,0.329c0.261,0.164,0.471,0.373,0.627,0.628
				c0.161,0.255,0.241,0.53,0.241,0.824c0,0.37-0.101,0.705-0.304,1.006c-0.203,0.298-0.469,0.532-0.799,0.702
				c-0.331,0.167-0.679,0.25-1.046,0.25c-0.314,0-0.63-0.06-0.947-0.181c-0.314-0.118-0.573-0.296-0.775-0.535
				c-0.2-0.239-0.299-0.525-0.299-0.859c0-0.167,0.055-0.306,0.167-0.417c0.111-0.111,0.25-0.167,0.417-0.167
				c0.108,0,0.206,0.026,0.294,0.078c0.091,0.049,0.162,0.12,0.211,0.211c0.052,0.092,0.078,0.19,0.078,0.294
				c0,0.163-0.057,0.301-0.171,0.412c-0.115,0.111-0.252,0.167-0.412,0.167H312.657z"/>
		</g>
		<g id="text3831">
			<path id="path109" inkscape:connector-curvature="0" d="M318.734,21.877c-0.171,0-0.317-0.065-0.438-0.195
				c-0.117-0.135-0.175-0.285-0.175-0.451c0-0.117,0.029-0.22,0.088-0.31c0.058-0.094,0.137-0.157,0.236-0.189l2.001-0.714
				l-2.001-0.721c-0.099-0.031-0.178-0.094-0.236-0.189c-0.059-0.094-0.088-0.197-0.088-0.31c0-0.171,0.059-0.321,0.175-0.451
				c0.122-0.13,0.267-0.196,0.438-0.196c0.103,0,0.2,0.034,0.29,0.101l1.711,1.321l-0.336-2.028v-0.067
				c0-0.153,0.06-0.278,0.181-0.377c0.126-0.099,0.268-0.148,0.425-0.148c0.153,0,0.29,0.049,0.411,0.148
				c0.125,0.099,0.188,0.225,0.188,0.377v0.067l-0.336,2.028l1.711-1.321c0.09-0.067,0.186-0.101,0.29-0.101
				c0.171,0,0.317,0.065,0.438,0.196c0.126,0.126,0.188,0.276,0.188,0.451c0,0.103-0.031,0.204-0.094,0.303
				c-0.063,0.099-0.144,0.164-0.243,0.195l-2.001,0.721l2.001,0.714c0.1,0.032,0.18,0.094,0.243,0.189
				c0.063,0.094,0.094,0.197,0.094,0.31c0,0.166-0.062,0.316-0.188,0.451c-0.122,0.13-0.267,0.195-0.438,0.195
				c-0.098,0-0.195-0.031-0.29-0.094l-1.711-1.327l0.336,2.015v0.081c0,0.152-0.063,0.278-0.188,0.377
				c-0.122,0.099-0.258,0.148-0.411,0.148c-0.157,0-0.299-0.049-0.425-0.148c-0.121-0.099-0.181-0.225-0.181-0.377V22.47
				l0.336-2.015l-1.711,1.327C318.929,21.845,318.832,21.877,318.734,21.877z"/>
		</g>
		<g id="text3833">
			<path id="path112" inkscape:connector-curvature="0" d="M336.481,34.981c-1.149-0.907-2.142-1.95-2.978-3.13
				c-0.826-1.169-1.507-2.419-2.041-3.749c-0.524-1.33-0.917-2.721-1.179-4.173c-0.262-1.451-0.393-2.908-0.393-4.369
				c0-1.482,0.131-2.948,0.393-4.4c0.262-1.451,0.66-2.847,1.194-4.188c0.544-1.341,1.235-2.595,2.071-3.765
				c0.837-1.169,1.814-2.192,2.933-3.069c0-0.04,0.05-0.06,0.151-0.06h0.287c0.06,0,0.116,0.03,0.166,0.091
				c0.05,0.05,0.076,0.111,0.076,0.181c0,0.091-0.02,0.156-0.06,0.197c-1.008,0.988-1.85,2.046-2.525,3.175
				c-0.665,1.129-1.204,2.333-1.618,3.613c-0.403,1.27-0.695,2.59-0.877,3.961c-0.181,1.361-0.272,2.782-0.272,4.263
				c0,6.562,1.754,11.546,5.261,14.952c0.06,0.06,0.091,0.146,0.091,0.257c0,0.05-0.03,0.106-0.091,0.166
				c-0.05,0.071-0.101,0.106-0.151,0.106h-0.287C336.531,35.042,336.481,35.022,336.481,34.981z"/>
		</g>
		<g id="text3835">
			<path id="path115" inkscape:connector-curvature="0" d="M338.108,14.233v-0.485c0.947,0,1.422-0.146,1.422-0.438V5.729
				c0-0.292-0.474-0.438-1.422-0.438V4.807h4.333c0.517,0,1.058,0.094,1.624,0.283c0.571,0.184,1.047,0.467,1.429,0.849
				c0.382,0.382,0.572,0.838,0.572,1.368c0,0.386-0.117,0.732-0.35,1.038c-0.229,0.301-0.525,0.555-0.889,0.761
				c-0.359,0.202-0.728,0.348-1.105,0.438c0.413,0.144,0.775,0.373,1.085,0.687c0.31,0.314,0.496,0.674,0.559,1.078l0.195,1.226
				c0.09,0.553,0.184,0.966,0.283,1.24c0.098,0.27,0.316,0.404,0.653,0.404c0.288,0,0.501-0.132,0.641-0.397
				c0.144-0.27,0.215-0.561,0.215-0.876c0-0.031,0.013-0.058,0.04-0.081c0.031-0.027,0.063-0.04,0.094-0.04h0.127
				c0.091,0,0.135,0.061,0.135,0.182c0,0.251-0.049,0.499-0.147,0.741c-0.1,0.238-0.243,0.436-0.432,0.593
				c-0.184,0.157-0.404,0.236-0.66,0.236c-0.665,0-1.237-0.164-1.718-0.492c-0.476-0.333-0.714-0.818-0.714-1.456v-1.227
				c0-0.458-0.159-0.851-0.478-1.179c-0.319-0.328-0.71-0.492-1.173-0.492h-1.657v3.618c0,0.292,0.474,0.438,1.422,0.438v0.485
				H338.108z M340.77,9.335h1.476c0.763,0,1.346-0.153,1.745-0.458c0.4-0.31,0.6-0.833,0.6-1.57c0-0.732-0.198-1.251-0.593-1.557
				c-0.395-0.306-0.98-0.458-1.752-0.458h-0.775c-0.166,0-0.297,0.007-0.391,0.02c-0.09,0.014-0.164,0.054-0.222,0.121
				c-0.058,0.063-0.088,0.162-0.088,0.297V9.335z"/>
			<path id="path117" inkscape:connector-curvature="0" d="M348.269,14.233v-0.485c0.948,0,1.422-0.146,1.422-0.438V5.729
				c0-0.292-0.474-0.438-1.422-0.438V4.807h4.912c0.503,0,1.007,0.103,1.509,0.31c0.503,0.207,0.917,0.507,1.24,0.903
				c0.328,0.395,0.493,0.856,0.493,1.381c0,0.512-0.164,0.961-0.493,1.348c-0.328,0.386-0.741,0.68-1.24,0.883
				c-0.498,0.198-1.002,0.296-1.509,0.296h-2.21v3.383c0,0.292,0.474,0.438,1.422,0.438v0.485H348.269z M350.932,9.516h1.873
				c0.507,0,0.918-0.072,1.232-0.215c0.315-0.148,0.544-0.375,0.688-0.681c0.148-0.31,0.222-0.717,0.222-1.22
				c0-0.75-0.166-1.289-0.499-1.617c-0.328-0.328-0.876-0.492-1.644-0.492h-1.173c-0.166,0-0.296,0.007-0.391,0.02
				c-0.09,0.014-0.164,0.054-0.223,0.121c-0.058,0.063-0.087,0.162-0.087,0.296V9.516z"/>
			<path id="path119" inkscape:connector-curvature="0" d="M357.676,14.233v-0.485c0.948,0,1.422-0.272,1.422-0.815V5.729
				c0-0.292-0.474-0.438-1.422-0.438V4.807h2.607c0.112,0,0.186,0.052,0.223,0.155l3.005,7.809l3.005-7.809
				c0.036-0.103,0.11-0.155,0.222-0.155h2.608v0.485c-0.948,0-1.422,0.146-1.422,0.438v7.581c0,0.292,0.474,0.438,1.422,0.438v0.485
				h-4.017v-0.485c0.948,0,1.422-0.146,1.422-0.438V5.278l-3.396,8.8c-0.04,0.103-0.117,0.155-0.229,0.155
				c-0.117,0-0.195-0.052-0.236-0.155l-3.356-8.693v7.547c0,0.543,0.474,0.815,1.422,0.815v0.485H357.676z"/>
		</g>
		<g id="text3837">
			<path id="path122" inkscape:connector-curvature="0" d="M370.503,17.08v-0.353c0.838,0,1.256-0.106,1.256-0.319v-5.275
				c-0.346,0.167-0.785,0.25-1.315,0.25v-0.353c0.821,0,1.441-0.214,1.86-0.643h0.142c0.023,0,0.045,0.01,0.064,0.03
				c0.023,0.016,0.035,0.036,0.035,0.059v5.933c0,0.213,0.419,0.319,1.256,0.319v0.353H370.503z"/>
		</g>
		<g id="text3839">
			<path id="path125" inkscape:connector-curvature="0" d="M337.958,34.01v-0.486c0.947,0,1.422-0.146,1.422-0.437v-7.581
				c0-0.292-0.474-0.438-1.422-0.438v-0.485h4.333c0.517,0,1.058,0.094,1.624,0.283c0.571,0.184,1.047,0.467,1.429,0.849
				c0.382,0.382,0.572,0.838,0.572,1.368c0,0.386-0.117,0.732-0.35,1.038c-0.229,0.301-0.525,0.554-0.889,0.762
				c-0.359,0.202-0.727,0.348-1.105,0.438c0.413,0.144,0.775,0.373,1.085,0.687c0.31,0.314,0.496,0.674,0.559,1.078l0.195,1.227
				c0.09,0.552,0.185,0.965,0.283,1.24c0.098,0.27,0.316,0.404,0.653,0.404c0.288,0,0.501-0.132,0.641-0.397
				c0.144-0.27,0.215-0.561,0.215-0.876c0-0.031,0.013-0.059,0.04-0.081c0.031-0.027,0.063-0.04,0.095-0.04h0.128
				c0.09,0,0.134,0.061,0.134,0.182c0,0.251-0.049,0.499-0.147,0.741c-0.1,0.238-0.243,0.436-0.431,0.593
				c-0.185,0.157-0.404,0.236-0.661,0.236c-0.665,0-1.237-0.164-1.718-0.491c-0.476-0.333-0.714-0.818-0.714-1.456v-1.227
				c0-0.458-0.159-0.851-0.478-1.179c-0.319-0.328-0.71-0.491-1.173-0.491h-1.657v3.618c0,0.292,0.474,0.437,1.422,0.437v0.486
				H337.958z M340.62,29.111h1.476c0.763,0,1.346-0.152,1.745-0.458c0.399-0.31,0.6-0.833,0.6-1.57c0-0.733-0.198-1.251-0.593-1.557
				c-0.395-0.306-0.979-0.459-1.751-0.459h-0.775c-0.166,0-0.297,0.007-0.391,0.02c-0.09,0.014-0.164,0.054-0.222,0.122
				c-0.058,0.063-0.088,0.162-0.088,0.297V29.111z"/>
			<path id="path127" inkscape:connector-curvature="0" d="M348.119,34.01v-0.486c0.948,0,1.422-0.146,1.422-0.437v-7.581
				c0-0.292-0.474-0.438-1.422-0.438v-0.485h4.912c0.503,0,1.007,0.103,1.509,0.31c0.503,0.207,0.917,0.508,1.24,0.903
				c0.328,0.395,0.492,0.855,0.492,1.381c0,0.513-0.164,0.961-0.492,1.348c-0.328,0.386-0.741,0.68-1.24,0.883
				c-0.499,0.198-1.002,0.297-1.509,0.297h-2.21v3.383c0,0.292,0.474,0.437,1.421,0.437v0.486H348.119z M350.782,29.293h1.873
				c0.508,0,0.919-0.072,1.233-0.215c0.315-0.148,0.544-0.375,0.688-0.681c0.148-0.31,0.222-0.716,0.222-1.22
				c0.001-0.75-0.166-1.289-0.498-1.616c-0.328-0.328-0.876-0.493-1.644-0.493h-1.172c-0.166,0-0.296,0.007-0.391,0.02
				c-0.09,0.014-0.164,0.054-0.223,0.122c-0.058,0.063-0.087,0.162-0.087,0.297V29.293z"/>
			<path id="path129" inkscape:connector-curvature="0" d="M357.526,34.01v-0.486c0.948,0,1.422-0.271,1.422-0.815v-7.203
				c0-0.292-0.474-0.438-1.422-0.438v-0.485h2.607c0.112,0,0.186,0.052,0.223,0.155l3.005,7.81l3.005-7.81
				c0.036-0.103,0.11-0.155,0.222-0.155h2.608v0.485c-0.949,0-1.422,0.146-1.422,0.438v7.581c0,0.292,0.474,0.437,1.422,0.437v0.486
				h-4.017v-0.486c0.948,0,1.422-0.146,1.422-0.437v-8.032l-3.396,8.8c-0.04,0.103-0.117,0.155-0.229,0.155
				c-0.117,0-0.195-0.052-0.236-0.155l-3.356-8.693v7.547c0,0.544,0.474,0.815,1.422,0.815v0.486H357.526z"/>
		</g>
		<g id="text3841">
			<path id="path132" inkscape:connector-curvature="0" d="M370.221,36.857v-0.27c0-0.016,0.007-0.035,0.02-0.054l1.56-1.727
				c0.236-0.256,0.427-0.47,0.574-0.643c0.147-0.173,0.294-0.373,0.437-0.599c0.144-0.226,0.257-0.454,0.339-0.687
				c0.084-0.236,0.127-0.484,0.127-0.746c0-0.275-0.05-0.537-0.152-0.785c-0.101-0.252-0.253-0.454-0.456-0.603
				c-0.199-0.151-0.442-0.226-0.726-0.226c-0.291,0-0.552,0.089-0.785,0.265c-0.232,0.173-0.396,0.399-0.491,0.677
				c0.026-0.007,0.062-0.01,0.108-0.01c0.151,0,0.278,0.051,0.383,0.152c0.108,0.102,0.162,0.233,0.162,0.393
				c0,0.154-0.054,0.285-0.162,0.392c-0.105,0.105-0.232,0.157-0.383,0.157c-0.157,0-0.289-0.054-0.397-0.161
				c-0.105-0.112-0.157-0.241-0.157-0.388c0-0.252,0.047-0.488,0.142-0.707c0.095-0.222,0.231-0.418,0.408-0.588
				c0.18-0.174,0.38-0.306,0.603-0.398c0.226-0.091,0.464-0.137,0.716-0.137c0.382,0,0.739,0.082,1.07,0.246
				c0.331,0.16,0.592,0.389,0.786,0.687c0.193,0.295,0.289,0.64,0.289,1.036c0,0.291-0.064,0.568-0.191,0.829
				c-0.128,0.262-0.291,0.501-0.491,0.717c-0.199,0.213-0.455,0.455-0.765,0.726c-0.311,0.271-0.515,0.453-0.614,0.545l-1.138,1.094
				h0.966c0.475,0,0.871-0.003,1.188-0.009c0.32-0.009,0.49-0.023,0.51-0.04c0.078-0.084,0.159-0.394,0.241-0.927h0.294
				l-0.285,1.792H370.221z"/>
		</g>
		<g id="text3843">
			<path id="path135" inkscape:connector-curvature="0" d="M375.855,35.042c-0.181,0-0.272-0.091-0.272-0.272
				c0-0.091,0.02-0.156,0.06-0.197c3.528-3.447,5.292-8.451,5.292-15.013s-1.744-11.546-5.231-14.952
				c-0.081-0.05-0.121-0.136-0.121-0.257c0-0.071,0.025-0.131,0.076-0.181c0.06-0.06,0.125-0.091,0.197-0.091h0.287
				c0.06,0,0.111,0.02,0.151,0.06c1.482,1.169,2.716,2.59,3.704,4.263c0.988,1.673,1.708,3.457,2.161,5.352
				c0.464,1.895,0.695,3.83,0.695,5.806c0,1.461-0.125,2.903-0.377,4.324c-0.243,1.411-0.635,2.802-1.179,4.173
				c-0.535,1.381-1.215,2.651-2.041,3.81c-0.826,1.169-1.814,2.207-2.963,3.114c-0.04,0.04-0.091,0.06-0.151,0.06H375.855z"/>
		</g>
		<g id="text3845">
		</g>
	</g>
	<path id="path3142-0" inkscape:connector-curvature="0" fill="none" stroke="#000000" stroke-width="0.816" d="M344.988,22.504
		h38.929"/>
</g>
</svg>
