<?xml version="1.0" encoding="UTF-8" standalone="no"?>
<!-- Created with Inkscape (http://www.inkscape.org/) -->

<svg
   xmlns:dc="http://purl.org/dc/elements/1.1/"
   xmlns:cc="http://creativecommons.org/ns#"
   xmlns:rdf="http://www.w3.org/1999/02/22-rdf-syntax-ns#"
   xmlns:svg="http://www.w3.org/2000/svg"
   xmlns="http://www.w3.org/2000/svg"
   xmlns:sodipodi="http://sodipodi.sourceforge.net/DTD/sodipodi-0.dtd"
   xmlns:inkscape="http://www.inkscape.org/namespaces/inkscape"
   version="1.2"
   width="320"
   height="60"
   id="svg3020"
   inkscape:version="0.48.3.1 r9886"
   sodipodi:docname="eqn_flow_01.svg">
  <sodipodi:namedview
     pagecolor="#ffffff"
     bordercolor="#666666"
     borderopacity="1"
     objecttolerance="10"
     gridtolerance="10"
     guidetolerance="10"
     inkscape:pageopacity="0"
     inkscape:pageshadow="2"
     inkscape:window-width="640"
     inkscape:window-height="480"
     id="namedview3992"
     showgrid="false"
     inkscape:zoom="0.871875"
     inkscape:cx="160"
     inkscape:cy="30"
     inkscape:window-x="0"
     inkscape:window-y="0"
     inkscape:window-maximized="0"
     inkscape:current-layer="svg3020" />
  <metadata
     id="metadata3026">
    <rdf:RDF>
      <cc:Work
         rdf:about="">
        <dc:format>image/svg+xml</dc:format>
        <dc:type
           rdf:resource="http://purl.org/dc/dcmitype/StillImage" />
        <dc:title />
      </cc:Work>
    </rdf:RDF>
  </metadata>
  <defs
     id="defs3024" />
  <text
     x="44.56657"
     y="42.23513"
     transform="scale(0.95814898,1.043679)"
     id="text3030"
     xml:space="preserve"
     style="font-size:41.02812958px;font-style:normal;font-variant:normal;font-weight:normal;font-stretch:normal;line-height:125%;letter-spacing:0px;word-spacing:0px;fill:#000000;fill-opacity:1;font-family:Cambria Math;-inkscape-font-specification:Cambria Math"><tspan
       x="44.56657"
       y="42.23513"
       id="tspan3032" /></text>
  <g
     style="font-size:20px;font-style:normal;font-variant:normal;font-weight:normal;font-stretch:normal;text-align:center;line-height:125%;letter-spacing:0px;word-spacing:0px;text-anchor:middle;fill:#ffffff;fill-opacity:1;font-family:cmr10;-inkscape-font-specification:cmr10"
     id="text3015">
    <path
       d="m 3.41008,37.977501 0,-0.703125 c 1.6666631,1e-6 2.4999956,-0.211588 2.5,-0.634766 l 0,-10.498047 C 5.2199721,26.473606 4.3475772,26.639622 3.2928925,26.63961 l 0,-0.703125 c 1.6341112,1.2e-5 2.8678339,-0.42642 3.7011718,-1.279297 l 0.2832032,0 c 0.045567,1.4e-5 0.089512,0.01792 0.1318359,0.05371 0.042312,0.03582 0.063471,0.07651 0.063477,0.122071 l 0,11.80664 c -6e-6,0.423178 0.8333265,0.634767 2.5,0.634766 l 0,0.703125 z"
       style="fill:#ffffff"
       id="path3995" />
    <path
       d="m 18.830002,37.977501 0,-0.703125 c 0.455728,1e-6 0.830077,-0.03581 1.123047,-0.107422 0.292966,-0.07161 0.439451,-0.247395 0.439453,-0.527344 l 0,-5.458984 c -2e-6,-0.358066 -0.05371,-0.616855 -0.161133,-0.776367 -0.107424,-0.159498 -0.262046,-0.257154 -0.463867,-0.292969 -0.201824,-0.0358 -0.514324,-0.0537 -0.9375,-0.05371 l 0,-0.703125 2.90039,-0.214844 0,1.953125 c 0.266924,-0.572909 0.662431,-1.041658 1.186524,-1.40625 0.524083,-0.364574 1.095372,-0.546866 1.713867,-0.546875 1.53645,9e-6 2.438142,0.625009 2.705078,1.875 0.266918,-0.559888 0.657543,-1.012362 1.171875,-1.357422 0.514312,-0.345043 1.077463,-0.517569 1.689453,-0.517578 0.605457,9e-6 1.114896,0.09766 1.528321,0.292969 0.413397,0.195321 0.724269,0.493172 0.932617,0.893555 0.208319,0.400398 0.312485,0.903327 0.3125,1.508789 l 0,4.804687 c -1.5e-5,0.279949 0.148097,0.45573 0.444336,0.527344 0.296208,0.07162 0.668929,0.107423 1.118164,0.107422 l 0,0.703125 -4.580078,0 0,-0.703125 c 0.455717,1e-6 0.830065,-0.03581 1.123047,-0.107422 0.292955,-0.07161 0.439439,-0.247395 0.439453,-0.527344 l 0,-4.746093 c -1.4e-5,-0.670567 -0.09442,-1.210931 -0.283203,-1.621094 -0.188815,-0.410148 -0.576185,-0.615226 -1.16211,-0.615235 -0.76824,9e-6 -1.403005,0.309253 -1.904297,0.927735 -0.501311,0.618496 -0.751962,1.32162 -0.751953,2.109375 l 0,3.945312 c -9e-6,0.279949 0.146475,0.45573 0.439453,0.527344 0.292959,0.07162 0.667308,0.107423 1.123047,0.107422 l 0,0.703125 -4.580078,0 0,-0.703125 c 0.455723,1e-6 0.830071,-0.03581 1.123047,-0.107422 0.292961,-0.07161 0.439445,-0.247395 0.439453,-0.527344 l 0,-4.746093 c -8e-6,-0.651035 -0.09441,-1.186517 -0.283203,-1.606446 -0.188809,-0.419914 -0.576179,-0.629874 -1.162109,-0.629883 -0.774746,9e-6 -1.411138,0.309253 -1.90918,0.927735 -0.498051,0.618496 -0.747074,1.32162 -0.74707,2.109375 l 0,3.945312 c -4e-6,0.279949 0.14648,0.45573 0.439453,0.527344 0.292964,0.07162 0.664057,0.107423 1.113281,0.107422 l 0,0.703125 z"
       style="fill:#ffffff"
       id="path3997" />
    <path
       d="m 36.151797,28.974557 c 0.203126,0.296229 0.476079,0.516284 0.818859,0.660166 0.342776,0.143882 0.710945,0.215823 1.104508,0.215823 0.503584,0 0.861173,-0.214765 1.072769,-0.644296 0.211587,-0.42953 0.317382,-0.917248 0.317387,-1.463156 -5e-6,-0.245443 -0.02222,-0.490889 -0.06665,-0.736338 -0.04444,-0.245443 -0.119554,-0.473962 -0.225345,-0.685557 -0.1058,-0.211587 -0.25074,-0.38086 -0.434821,-0.507819 -0.184088,-0.126951 -0.409433,-0.190428 -0.676035,-0.190433 l -0.863293,0 c -0.07618,5e-6 -0.114262,-0.0402 -0.11426,-0.120607 l 0,-0.114259 c -2e-6,-0.06771 0.03808,-0.101559 0.11426,-0.101564 l 0.717295,-0.05713 c 0.304688,5e-6 0.55754,-0.114254 0.758556,-0.342778 0.201007,-0.228514 0.348063,-0.506756 0.441168,-0.834729 0.0931,-0.32796 0.139646,-0.640057 0.13965,-0.936292 -4e-6,-0.414712 -0.09734,-0.755374 -0.291996,-1.021987 -0.194668,-0.266597 -0.490896,-0.3999 -0.888684,-0.399908 -0.330086,8e-6 -0.645357,0.06243 -0.945815,0.187258 -0.300461,0.124847 -0.53956,0.314222 -0.717295,0.568124 0.01693,-0.0042 0.03174,-0.0074 0.04443,-0.0095 0.01269,-0.0021 0.02751,-0.0032 0.04443,-0.0032 0.194662,8e-6 0.357587,0.06772 0.488776,0.203128 0.131185,0.135426 0.196778,0.298351 0.19678,0.488776 -2e-6,0.186208 -0.0656,0.347017 -0.19678,0.482429 -0.131189,0.135425 -0.294114,0.203134 -0.488776,0.203128 -0.190434,6e-6 -0.353359,-0.0677 -0.488777,-0.203128 -0.135419,-0.135412 -0.203129,-0.296221 -0.203128,-0.482429 -1e-6,-0.372394 0.112143,-0.696128 0.336431,-0.971205 0.224285,-0.275061 0.513108,-0.483478 0.866467,-0.625253 0.353356,-0.141757 0.707771,-0.212641 1.063248,-0.212649 0.26237,8e-6 0.539554,0.03915 0.831554,0.117433 0.291992,0.0783 0.556481,0.190441 0.793468,0.336431 0.236978,0.146006 0.430584,0.333264 0.580819,0.561775 0.150225,0.228526 0.22534,0.488784 0.225345,0.780773 -5e-6,0.363944 -0.08147,0.700374 -0.244388,1.009291 -0.162931,0.30893 -0.38616,0.575535 -0.669687,0.799816 -0.283537,0.224292 -0.594577,0.391449 -0.933119,0.501472 0.376629,0.07195 0.734218,0.213712 1.072769,0.425299 0.338541,0.211596 0.610436,0.482433 0.815685,0.812512 0.205238,0.330085 0.30786,0.685559 0.307866,1.066421 -6e-6,0.478199 -0.131192,0.910903 -0.39356,1.298114 -0.262379,0.387213 -0.607273,0.689789 -1.034683,0.907728 -0.427419,0.217939 -0.878108,0.326908 -1.352069,0.326908 -0.406259,0 -0.813572,-0.07723 -1.221941,-0.231692 -0.408374,-0.154462 -0.742688,-0.386154 -1.002944,-0.695078 -0.260259,-0.308923 -0.390387,-0.679208 -0.390387,-1.110856 0,-0.215821 0.07194,-0.395674 0.215824,-0.539558 0.143881,-0.14388 0.323734,-0.215821 0.539558,-0.215824 0.139649,3e-6 0.267662,0.0328 0.384039,0.09839 0.116373,0.0656 0.207357,0.157638 0.272953,0.276127 0.06559,0.118494 0.09839,0.245448 0.09839,0.380865 -2e-6,0.211593 -0.07406,0.38933 -0.222171,0.533211 -0.148116,0.143883 -0.325853,0.215824 -0.533211,0.215823 z"
       style="font-size:65.00091553%;baseline-shift:super;fill:#ffffff"
       id="path3999" />
    <path
       d="m 42.537125,42.57711 c -1e-6,-0.03907 0.0065,-0.06511 0.01953,-0.07813 l 6.953125,-19.277343 c 0.02603,-0.07811 0.07161,-0.138332 0.136719,-0.180665 0.0651,-0.0423 0.139965,-0.06346 0.224609,-0.06348 0.117179,1.5e-5 0.213207,0.03582 0.288086,0.107422 0.07486,0.07163 0.112296,0.169285 0.112305,0.292969 l 0,0.07813 -6.953125,19.277343 c -0.07813,0.162756 -0.20508,0.244136 -0.38086,0.244141 -0.110678,-5e-6 -0.205079,-0.03907 -0.283203,-0.117188 -0.07813,-0.07813 -0.117188,-0.17253 -0.117187,-0.283203 z"
       style="fill:#ffffff"
       id="path4001" />
    <path
       d="m 52.07814,38.036095 0,-3.261719 c 0,-0.104163 0.05859,-0.156247 0.175782,-0.15625 l 0.24414,0 c 0.07812,3e-6 0.130207,0.05209 0.15625,0.15625 0.371092,1.933595 1.269529,2.900391 2.695313,2.900391 0.631505,0 1.160476,-0.143229 1.586914,-0.429688 0.426426,-0.286457 0.639642,-0.729165 0.639648,-1.328125 -6e-6,-0.429685 -0.166021,-0.795896 -0.498047,-1.098633 -0.332036,-0.302731 -0.725916,-0.509436 -1.18164,-0.620117 l -1.337891,-0.263672 c -0.449221,-0.09765 -0.85775,-0.247391 -1.225586,-0.449219 -0.36784,-0.201818 -0.668946,-0.470372 -0.90332,-0.805664 -0.234376,-0.33528 -0.351563,-0.724277 -0.351563,-1.166992 0,-0.58593 0.154622,-1.066073 0.463867,-1.44043 0.309244,-0.37434 0.711262,-0.644522 1.206055,-0.810546 0.494789,-0.166007 1.028643,-0.249015 1.601563,-0.249024 0.683589,9e-6 1.279291,0.182301 1.787109,0.546875 l 0.576172,-0.498047 c -6e-6,-0.03254 0.03255,-0.04882 0.09766,-0.04883 l 0.146485,0 c 0.03905,9e-6 0.07486,0.01791 0.107421,0.05371 0.03255,0.03582 0.04882,0.07325 0.04883,0.112305 l 0,2.617187 c -7e-6,0.123704 -0.05209,0.185553 -0.15625,0.185547 l -0.244141,0 c -0.117194,6e-6 -0.175787,-0.06184 -0.175781,-0.185547 -6e-6,-0.696607 -0.193691,-1.256503 -0.581055,-1.679687 -0.387375,-0.423169 -0.929367,-0.634757 -1.625977,-0.634766 -0.598961,9e-6 -1.118166,0.110686 -1.557617,0.332031 -0.439455,0.221363 -0.659181,0.602222 -0.659179,1.142579 -2e-6,0.3711 0.157875,0.675462 0.473632,0.913085 0.315753,0.237637 0.685219,0.408535 1.108399,0.512696 l 1.357422,0.253906 c 0.455724,0.104172 0.880528,0.279953 1.274414,0.527344 0.393874,0.2474 0.706373,0.5599 0.9375,0.9375 0.231112,0.377607 0.346672,0.804039 0.346679,1.279297 -7e-6,0.481773 -0.08301,0.900066 -0.249023,1.254882 -0.166022,0.354819 -0.397142,0.649415 -0.693359,0.88379 -0.29623,0.234375 -0.646165,0.406901 -1.049805,0.517578 -0.403651,0.110677 -0.826827,0.166015 -1.269531,0.166015 -0.833337,0 -1.546227,-0.279948 -2.138672,-0.839843 l -0.732422,0.791015 c -10e-7,0.03255 -0.03581,0.04883 -0.107422,0.04883 l -0.117187,0 c -0.117189,0 -0.175782,-0.05534 -0.175782,-0.166015 z"
       style="fill:#ffffff"
       id="path4003" />
    <path
       d="m 67.683609,35.799767 c -0.156252,-0.01953 -0.291343,-0.08626 -0.405273,-0.200196 -0.113934,-0.11393 -0.1709,-0.249021 -0.170899,-0.405273 -10e-7,-0.149737 0.05371,-0.281573 0.161133,-0.395508 0.10742,-0.113929 0.245767,-0.187171 0.415039,-0.219727 l 12.158203,0 c 0.162747,0.03256 0.297838,0.105798 0.405274,0.219727 0.107407,0.113935 0.161118,0.245771 0.161132,0.395508 -1.4e-5,0.156252 -0.05698,0.291343 -0.170898,0.405273 -0.113946,0.113935 -0.245782,0.180666 -0.395508,0.200196 z m 0,-4.462891 c -0.156252,-0.01953 -0.291343,-0.08626 -0.405273,-0.200195 -0.113934,-0.113926 -0.1709,-0.245762 -0.170899,-0.395508 -10e-7,-0.156243 0.05371,-0.291334 0.161133,-0.405274 0.10742,-0.113924 0.245767,-0.187166 0.415039,-0.219726 l 12.158203,0 c 0.162747,0.03256 0.297838,0.105802 0.405274,0.219726 0.107407,0.11394 0.161118,0.249031 0.161132,0.405274 -1.4e-5,0.149746 -0.05698,0.281582 -0.170898,0.395508 -0.113946,0.113939 -0.245782,0.18067 -0.395508,0.200195 z"
       style="font-size:20px;font-style:normal;font-variant:normal;font-weight:normal;font-stretch:normal;fill:#ffffff;font-family:cmb10;-inkscape-font-specification:cmb10"
       id="path4005" />
    <path
       d="m 89.207047,37.977501 0,-0.537109 c -10e-7,-0.03255 0.01302,-0.06836 0.03906,-0.107422 l 3.105469,-3.4375 c 0.468745,-0.507808 0.849604,-0.93424 1.142578,-1.279297 0.292963,-0.345047 0.582676,-0.742182 0.869141,-1.191406 0.286451,-0.449212 0.512688,-0.906569 0.67871,-1.372071 0.166009,-0.465486 0.249017,-0.95865 0.249024,-1.479492 -7e-6,-0.546865 -0.100919,-1.069325 -0.302734,-1.567383 -0.20183,-0.498035 -0.502936,-0.896798 -0.903321,-1.196289 -0.400396,-0.299467 -0.883794,-0.449206 -1.450195,-0.449219 -0.579431,1.3e-5 -1.100264,0.174167 -1.5625,0.522461 -0.462242,0.348319 -0.787763,0.799165 -0.976563,1.352539 0.05208,-0.01301 0.123696,-0.01952 0.214844,-0.01953 0.299477,1.1e-5 0.55501,0.100922 0.766602,0.302735 0.211585,0.201833 0.317379,0.462249 0.317383,0.78125 -4e-6,0.305998 -0.105798,0.564787 -0.317383,0.776367 -0.211592,0.211597 -0.467125,0.317391 -0.766602,0.317383 -0.312502,8e-6 -0.574546,-0.109041 -0.786133,-0.327149 -0.211589,-0.21809 -0.317383,-0.473623 -0.317382,-0.766601 -10e-7,-0.501292 0.0944,-0.971669 0.283203,-1.411133 0.1888,-0.439442 0.46061,-0.830066 0.815429,-1.171875 0.354816,-0.341785 0.755206,-0.603829 1.201172,-0.786133 0.44596,-0.182279 0.919592,-0.273424 1.420899,-0.273438 0.761713,1.4e-5 1.471348,0.161146 2.128906,0.483399 0.657544,0.322278 1.178377,0.778007 1.5625,1.367187 0.384106,0.589204 0.576163,1.27768 0.576172,2.06543 -9e-6,0.579436 -0.126962,1.129566 -0.38086,1.650391 -0.253914,0.52084 -0.579435,0.994473 -0.976562,1.420898 -0.397143,0.426438 -0.904955,0.909836 -1.523438,1.450195 -0.618495,0.540369 -1.025395,0.901697 -1.220703,1.083985 l -2.265625,2.177734 1.923828,0 c 0.944005,2e-6 1.733393,-0.0081 2.368164,-0.02441 0.634759,-0.01627 0.971672,-0.04069 1.010743,-0.07324 0.156242,-0.169269 0.315747,-0.784503 0.478515,-1.845703 l 0.585938,0 -0.566406,3.564453 z"
       style="fill:#ffffff"
       id="path4007" />
    <path
       d="m 100.06642,37.977501 0,-0.703125 c 1.66666,1e-6 2.5,-0.211588 2.5,-0.634766 l 0,-10.498047 c -0.69011,0.332043 -1.5625,0.498059 -2.617186,0.498047 l 0,-0.703125 c 1.634116,1.2e-5 2.867836,-0.42642 3.701176,-1.279297 l 0.2832,0 c 0.0456,1.4e-5 0.0895,0.01792 0.13183,0.05371 0.0423,0.03582 0.0635,0.07651 0.0635,0.122071 l 0,11.80664 c 0,0.423178 0.83333,0.634767 2.5,0.634766 l 0,0.703125 z"
       style="fill:#ffffff"
       id="path4009" />
    <path
       d="m 109.20705,37.977501 0,-0.537109 c 0,-0.03255 0.013,-0.06836 0.0391,-0.107422 l 3.10547,-3.4375 c 0.46874,-0.507808 0.8496,-0.93424 1.14258,-1.279297 0.29296,-0.345047 0.58267,-0.742182 0.86914,-1.191406 0.28645,-0.449212 0.51269,-0.906569 0.67871,-1.372071 0.16601,-0.465486 0.24901,-0.95865 0.24902,-1.479492 -1e-5,-0.546865 -0.10092,-1.069325 -0.30273,-1.567383 -0.20183,-0.498035 -0.50294,-0.896798 -0.90332,-1.196289 -0.4004,-0.299467 -0.8838,-0.449206 -1.4502,-0.449219 -0.57943,1.3e-5 -1.10026,0.174167 -1.5625,0.522461 -0.46224,0.348319 -0.78776,0.799165 -0.97656,1.352539 0.0521,-0.01301 0.12369,-0.01952 0.21484,-0.01953 0.29948,1.1e-5 0.55501,0.100922 0.7666,0.302735 0.21159,0.201833 0.31738,0.462249 0.31739,0.78125 -10e-6,0.305998 -0.1058,0.564787 -0.31739,0.776367 -0.21159,0.211597 -0.46712,0.317391 -0.7666,0.317383 -0.3125,8e-6 -0.57454,-0.109041 -0.78613,-0.327149 -0.21159,-0.21809 -0.31738,-0.473623 -0.31738,-0.766601 0,-0.501292 0.0944,-0.971669 0.2832,-1.411133 0.1888,-0.439442 0.46061,-0.830066 0.81543,-1.171875 0.35481,-0.341785 0.7552,-0.603829 1.20117,-0.786133 0.44596,-0.182279 0.91959,-0.273424 1.4209,-0.273438 0.76171,1.4e-5 1.47135,0.161146 2.12891,0.483399 0.65754,0.322278 1.17837,0.778007 1.5625,1.367187 0.3841,0.589204 0.57616,1.27768 0.57617,2.06543 -1e-5,0.579436 -0.12696,1.129566 -0.38086,1.650391 -0.25392,0.52084 -0.57944,0.994473 -0.97656,1.420898 -0.39715,0.426438 -0.90496,0.909836 -1.52344,1.450195 -0.6185,0.540369 -1.0254,0.901697 -1.2207,1.083985 l -2.26563,2.177734 1.92383,0 c 0.944,2e-6 1.73339,-0.0081 2.36816,-0.02441 0.63476,-0.01627 0.97167,-0.04069 1.01074,-0.07324 0.15625,-0.169269 0.31575,-0.784503 0.47852,-1.845703 l 0.58594,0 -0.56641,3.564453 z"
       style="fill:#ffffff"
       id="path4011" />
    <path
       d="m 123.21095,38.416954 c -1.63412,0 -2.74577,-0.6722 -3.33496,-2.016602 -0.58919,-1.344398 -0.88379,-2.944331 -0.88379,-4.799804 0,-1.158847 0.1058,-2.249341 0.31739,-3.271485 0.21158,-1.022124 0.6315,-1.889636 1.25976,-2.602539 0.62825,-0.712877 1.50879,-1.069322 2.6416,-1.069336 0.8789,1.4e-5 1.5983,0.214857 2.15821,0.644532 0.55988,0.429699 0.98632,0.984712 1.27929,1.665039 0.29296,0.680349 0.49316,1.409515 0.60059,2.1875 0.10741,0.778003 0.16112,1.593431 0.16113,2.446289 -10e-6,1.145838 -0.1058,2.218428 -0.31738,3.217773 -0.2116,0.999351 -0.62664,1.84896 -1.24512,2.548828 -0.6185,0.69987 -1.4974,1.049805 -2.63672,1.049805 z m 0,-0.517578 c 0.74218,0 1.29557,-0.380859 1.66016,-1.142578 0.36458,-0.761717 0.58918,-1.604815 0.67383,-2.529297 0.0846,-0.924475 0.12694,-1.907547 0.12695,-2.949219 -1e-5,-1.002596 -0.0423,-1.927075 -0.12695,-2.773437 -0.0846,-0.846344 -0.30763,-1.612945 -0.66895,-2.299805 -0.36133,-0.686837 -0.91635,-1.030261 -1.66504,-1.030273 -0.75521,1.2e-5 -1.31511,0.345064 -1.67968,1.035156 -0.36459,0.690115 -0.5892,1.456716 -0.67383,2.299804 -0.0846,0.843108 -0.12696,1.765959 -0.12696,2.768555 0,0.742194 0.0179,1.442063 0.0537,2.09961 0.0358,0.657556 0.13184,1.336266 0.28809,2.036132 0.15625,0.699872 0.40853,1.289064 0.75684,1.767578 0.3483,0.478516 0.80891,0.717774 1.38183,0.717774 z"
       style="fill:#ffffff"
       id="path4013" />
    <path
       d="m 135.53517,37.977501 0,-0.703125 c 0.44922,1e-6 0.82031,-0.03581 1.11328,-0.107422 0.29297,-0.07161 0.43945,-0.247395 0.43946,-0.527344 l 0,-6.582031 -1.53321,0 0,-0.703125 1.53321,0 0,-2.392578 c -1e-5,-0.429676 0.0895,-0.831694 0.26855,-1.206055 0.17903,-0.374336 0.41992,-0.701484 0.72266,-0.981445 0.30273,-0.279935 0.65103,-0.499661 1.04492,-0.65918 0.39387,-0.159491 0.8024,-0.239243 1.22558,-0.239258 0.44922,1.5e-5 0.85449,0.133478 1.21582,0.400391 0.36133,0.266941 0.54199,0.621758 0.542,1.064453 -1e-5,0.253919 -0.0863,0.467135 -0.25879,0.639649 -0.17253,0.172537 -0.38575,0.2588 -0.63965,0.258789 -0.25391,1.1e-5 -0.47038,-0.08625 -0.64941,-0.258789 -0.17905,-0.172514 -0.26856,-0.38573 -0.26856,-0.639649 0,-0.416653 0.17903,-0.696601 0.53711,-0.839844 -0.21485,-0.0716 -0.40691,-0.107408 -0.57617,-0.107421 -0.39063,1.3e-5 -0.72429,0.138359 -1.00098,0.415039 -0.27669,0.276705 -0.4834,0.613619 -0.62012,1.010742 -0.13672,0.397147 -0.20508,0.791027 -0.20507,1.18164 l 0,2.353516 2.30468,0 0,0.703125 -2.23632,0 0,6.582031 c -1e-5,0.273439 0.1953,0.447592 0.58593,0.522461 0.39062,0.07487 0.83984,0.112306 1.34766,0.112305 l 0,0.703125 z"
       style="fill:#ffffff"
       id="path4015" />
    <path
       d="m 143.02541,35.575157 0,-5.517578 -1.66016,0 0,-0.517578 c 0.87239,8e-6 1.51367,-0.406892 1.92383,-1.220703 0.41015,-0.813792 0.61523,-1.695952 0.61523,-2.646485 l 0.57617,0 0,3.681641 2.82227,0 0,0.703125 -2.82227,0 0,5.478516 c 0,0.553387 0.0928,1.038413 0.27832,1.455078 0.18555,0.416667 0.51921,0.625 1.00098,0.625 0.45572,0 0.7845,-0.219726 0.98633,-0.65918 0.20182,-0.439452 0.30273,-0.913084 0.30273,-1.420898 l 0,-1.181641 0.57618,0 0,1.220703 c -1e-5,0.416669 -0.0765,0.828452 -0.2295,1.235352 -0.153,0.406902 -0.37923,0.74056 -0.67871,1.000976 -0.29948,0.260417 -0.66407,0.390625 -1.09375,0.390625 -0.80078,0 -1.43392,-0.239258 -1.89941,-0.717773 -0.4655,-0.478515 -0.69825,-1.114907 -0.69824,-1.90918 z"
       style="fill:#ffffff"
       id="path4017" />
    <path
       d="m 149.99564,28.974557 c 0.20312,0.296229 0.47608,0.516284 0.81886,0.660166 0.34277,0.143882 0.71094,0.215823 1.10451,0.215823 0.50358,0 0.86117,-0.214765 1.07276,-0.644296 0.21159,-0.42953 0.31739,-0.917248 0.31739,-1.463156 0,-0.245443 -0.0222,-0.490889 -0.0666,-0.736338 -0.0444,-0.245443 -0.11955,-0.473962 -0.22534,-0.685557 -0.1058,-0.211587 -0.25074,-0.38086 -0.43483,-0.507819 -0.18408,-0.126951 -0.40943,-0.190428 -0.67603,-0.190433 l -0.86329,0 c -0.0762,5e-6 -0.11427,-0.0402 -0.11426,-0.120607 l 0,-0.114259 c -1e-5,-0.06771 0.0381,-0.101559 0.11426,-0.101564 l 0.71729,-0.05713 c 0.30469,5e-6 0.55754,-0.114254 0.75856,-0.342778 0.20101,-0.228514 0.34806,-0.506756 0.44117,-0.834729 0.0931,-0.32796 0.13964,-0.640057 0.13965,-0.936292 -1e-5,-0.414712 -0.0973,-0.755374 -0.292,-1.021987 -0.19467,-0.266597 -0.4909,-0.3999 -0.88868,-0.399908 -0.33009,8e-6 -0.64536,0.06243 -0.94582,0.187258 -0.30046,0.124847 -0.53956,0.314222 -0.71729,0.568124 0.0169,-0.0042 0.0317,-0.0074 0.0444,-0.0095 0.0127,-0.0021 0.0275,-0.0032 0.0444,-0.0032 0.19467,8e-6 0.35759,0.06772 0.48878,0.203128 0.13119,0.135426 0.19678,0.298351 0.19678,0.488776 0,0.186208 -0.0656,0.347017 -0.19678,0.482429 -0.13119,0.135425 -0.29411,0.203134 -0.48878,0.203128 -0.19043,6e-6 -0.35335,-0.0677 -0.48877,-0.203128 -0.13542,-0.135412 -0.20313,-0.296221 -0.20313,-0.482429 0,-0.372394 0.11214,-0.696128 0.33643,-0.971205 0.22429,-0.275061 0.51311,-0.483478 0.86647,-0.625253 0.35335,-0.141757 0.70777,-0.212641 1.06325,-0.212649 0.26237,8e-6 0.53955,0.03915 0.83155,0.117433 0.29199,0.0783 0.55648,0.190441 0.79347,0.336431 0.23698,0.146006 0.43058,0.333264 0.58082,0.561775 0.15022,0.228526 0.22534,0.488784 0.22534,0.780773 0,0.363944 -0.0815,0.700374 -0.24439,1.009291 -0.16293,0.30893 -0.38616,0.575535 -0.66968,0.799816 -0.28354,0.224292 -0.59458,0.391449 -0.93312,0.501472 0.37663,0.07195 0.73422,0.213712 1.07277,0.425299 0.33854,0.211596 0.61043,0.482433 0.81568,0.812512 0.20524,0.330085 0.30786,0.685559 0.30787,1.066421 -1e-5,0.478199 -0.13119,0.910903 -0.39356,1.298114 -0.26238,0.387213 -0.60728,0.689789 -1.03469,0.907728 -0.42741,0.217939 -0.8781,0.326908 -1.35206,0.326908 -0.40626,0 -0.81358,-0.07723 -1.22195,-0.231692 -0.40837,-0.154462 -0.74268,-0.386154 -1.00294,-0.695078 -0.26026,-0.308923 -0.39039,-0.679208 -0.39039,-1.110856 0,-0.215821 0.0719,-0.395674 0.21583,-0.539558 0.14388,-0.14388 0.32373,-0.215821 0.53956,-0.215824 0.13964,3e-6 0.26766,0.0328 0.38403,0.09839 0.11638,0.0656 0.20736,0.157638 0.27296,0.276127 0.0656,0.118494 0.0984,0.245448 0.0984,0.380865 0,0.211593 -0.0741,0.38933 -0.22217,0.533211 -0.14812,0.143883 -0.32586,0.215824 -0.53321,0.215823 z"
       style="font-size:65.00091553%;baseline-shift:super;fill:#ffffff"
       id="path4019" />
    <path
       d="m 156.38097,42.57711 c 0,-0.03907 0.007,-0.06511 0.0195,-0.07813 l 6.95312,-19.277343 c 0.026,-0.07811 0.0716,-0.138332 0.13672,-0.180665 0.0651,-0.0423 0.13997,-0.06346 0.22461,-0.06348 0.11718,1.5e-5 0.21321,0.03582 0.28809,0.107422 0.0749,0.07163 0.11229,0.169285 0.1123,0.292969 l 0,0.07813 -6.95312,19.277343 c -0.0781,0.162756 -0.20508,0.244136 -0.38086,0.244141 -0.11068,-5e-6 -0.20508,-0.03907 -0.28321,-0.117188 -0.0781,-0.07813 -0.11718,-0.17253 -0.11718,-0.283203 z"
       style="fill:#ffffff"
       id="path4021" />
    <path
       d="m 165.85362,37.977501 0,-0.703125 c 0.45573,1e-6 0.83008,-0.03581 1.12305,-0.107422 0.29297,-0.07161 0.43945,-0.247395 0.43945,-0.527344 l 0,-5.458984 c 0,-0.358066 -0.0537,-0.616855 -0.16113,-0.776367 -0.10742,-0.159498 -0.26205,-0.257154 -0.46387,-0.292969 -0.20182,-0.0358 -0.51432,-0.0537 -0.9375,-0.05371 l 0,-0.703125 2.90039,-0.214844 0,1.953125 c 0.26693,-0.572909 0.66243,-1.041658 1.18653,-1.40625 0.52408,-0.364574 1.09537,-0.546866 1.71386,-0.546875 1.53645,9e-6 2.43815,0.625009 2.70508,1.875 0.26692,-0.559888 0.65754,-1.012362 1.17188,-1.357422 0.51431,-0.345043 1.07746,-0.517569 1.68945,-0.517578 0.60546,9e-6 1.1149,0.09766 1.52832,0.292969 0.4134,0.195321 0.72427,0.493172 0.93262,0.893555 0.20832,0.400398 0.31248,0.903327 0.3125,1.508789 l 0,4.804687 c -2e-5,0.279949 0.14809,0.45573 0.44433,0.527344 0.29621,0.07162 0.66893,0.107423 1.11817,0.107422 l 0,0.703125 -4.58008,0 0,-0.703125 c 0.45572,1e-6 0.83006,-0.03581 1.12305,-0.107422 0.29295,-0.07161 0.43944,-0.247395 0.43945,-0.527344 l 0,-4.746093 c -1e-5,-0.670567 -0.0944,-1.210931 -0.2832,-1.621094 -0.18882,-0.410148 -0.57619,-0.615226 -1.16211,-0.615235 -0.76824,9e-6 -1.40301,0.309253 -1.9043,0.927735 -0.50131,0.618496 -0.75196,1.32162 -0.75195,2.109375 l 0,3.945312 c -1e-5,0.279949 0.14647,0.45573 0.43945,0.527344 0.29296,0.07162 0.66731,0.107423 1.12305,0.107422 l 0,0.703125 -4.58008,0 0,-0.703125 c 0.45572,1e-6 0.83007,-0.03581 1.12305,-0.107422 0.29296,-0.07161 0.43944,-0.247395 0.43945,-0.527344 l 0,-4.746093 c -1e-5,-0.651035 -0.0944,-1.186517 -0.2832,-1.606446 -0.18881,-0.419914 -0.57618,-0.629874 -1.16211,-0.629883 -0.77475,9e-6 -1.41114,0.309253 -1.90918,0.927735 -0.49805,0.618496 -0.74708,1.32162 -0.74707,2.109375 l 0,3.945312 c -1e-5,0.279949 0.14648,0.45573 0.43945,0.527344 0.29296,0.07162 0.66406,0.107423 1.11328,0.107422 l 0,0.703125 z"
       style="fill:#ffffff"
       id="path4023" />
    <path
       d="m 182.55284,37.977501 0,-0.703125 c 0.45573,1e-6 0.83008,-0.03581 1.12305,-0.107422 0.29296,-0.07161 0.43945,-0.247395 0.43945,-0.527344 l 0,-5.458984 c 0,-0.514316 -0.0993,-0.830071 -0.29785,-0.947266 -0.19857,-0.117179 -0.59082,-0.175773 -1.17676,-0.175781 l 0,-0.703125 2.88086,-0.214844 0,7.5 c 0,0.279949 0.12695,0.45573 0.38086,0.527344 0.2539,0.07162 0.59244,0.107423 1.01563,0.107422 l 0,0.703125 z m 0.84961,-12.275391 c 0,-0.292956 0.11068,-0.550117 0.33203,-0.771484 0.22135,-0.221341 0.47526,-0.332018 0.76172,-0.332031 0.1888,1.3e-5 0.37109,0.04884 0.54688,0.146484 0.17577,0.09767 0.31249,0.234388 0.41015,0.410156 0.0977,0.175794 0.14648,0.358086 0.14649,0.546875 -1e-5,0.286471 -0.11068,0.540377 -0.33204,0.761719 -0.22135,0.221365 -0.47851,0.332042 -0.77148,0.332031 -0.28646,1.1e-5 -0.54037,-0.110666 -0.76172,-0.332031 -0.22135,-0.221342 -0.33203,-0.475248 -0.33203,-0.761719 z"
       style="fill:#ffffff"
       id="path4025" />
    <path
       d="m 188.08018,37.977501 0,-0.703125 c 0.45573,1e-6 0.83008,-0.03581 1.12305,-0.107422 0.29297,-0.07161 0.43945,-0.247395 0.43945,-0.527344 l 0,-5.458984 c 0,-0.358066 -0.0537,-0.616855 -0.16113,-0.776367 -0.10742,-0.159498 -0.26204,-0.257154 -0.46387,-0.292969 -0.20182,-0.0358 -0.51432,-0.0537 -0.9375,-0.05371 l 0,-0.703125 2.9004,-0.214844 0,1.953125 c 0.26692,-0.572909 0.66243,-1.041658 1.18652,-1.40625 0.52408,-0.364574 1.09537,-0.546866 1.71387,-0.546875 0.92447,9e-6 1.61945,0.221363 2.08496,0.664063 0.46548,0.442716 0.69823,1.119799 0.69824,2.03125 l 0,4.804687 c -1e-5,0.279949 0.14647,0.45573 0.43945,0.527344 0.29296,0.07162 0.66731,0.107423 1.12305,0.107422 l 0,0.703125 -4.58008,0 0,-0.703125 c 0.45572,1e-6 0.83007,-0.03581 1.12305,-0.107422 0.29296,-0.07161 0.43944,-0.247395 0.43945,-0.527344 l 0,-4.746093 c -1e-5,-0.651035 -0.0944,-1.186517 -0.2832,-1.606446 -0.18881,-0.419914 -0.57618,-0.629874 -1.16211,-0.629883 -0.77475,9e-6 -1.41114,0.309253 -1.90918,0.927735 -0.49805,0.618496 -0.74707,1.32162 -0.74707,2.109375 l 0,3.945312 c 0,0.279949 0.14648,0.45573 0.43945,0.527344 0.29297,0.07162 0.66406,0.107423 1.11328,0.107422 l 0,0.703125 z"
       style="fill:#ffffff"
       id="path4027" />
    <path
       d="m 206.76183,35.321251 c -0.11068,3e-6 -0.20183,-0.04231 -0.27344,-0.126953 -0.0716,-0.08463 -0.10742,-0.175779 -0.10742,-0.273438 0,-0.110674 0.0358,-0.205075 0.10742,-0.283203 0.0716,-0.07812 0.16276,-0.117184 0.27344,-0.117187 l 12.55859,0 c 0.0976,3e-6 0.18228,0.03907 0.25391,0.117187 0.0716,0.07813 0.1074,0.172529 0.10742,0.283203 -2e-5,0.09766 -0.0358,0.188805 -0.10742,0.273438 -0.0716,0.08464 -0.15627,0.126956 -0.25391,0.126953 z m 0,-3.886719 c -0.11068,7e-6 -0.20183,-0.03906 -0.27344,-0.117187 -0.0716,-0.07812 -0.10742,-0.17252 -0.10742,-0.283203 0,-0.09765 0.0358,-0.188795 0.10742,-0.273438 0.0716,-0.08463 0.16276,-0.126946 0.27344,-0.126953 l 12.55859,0 c 0.0976,7e-6 0.18228,0.04232 0.25391,0.126953 0.0716,0.08464 0.1074,0.175788 0.10742,0.273438 -2e-5,0.110683 -0.0358,0.205084 -0.10742,0.283203 -0.0716,0.07813 -0.15627,0.117194 -0.25391,0.117187 z"
       style="fill:#ffffff"
       id="path4029" />
    <path
       d="m 229.33995,37.977501 0,-0.703125 c 1.66666,1e-6 2.5,-0.211588 2.5,-0.634766 l 0,-10.498047 c -0.69011,0.332043 -1.5625,0.498059 -2.61719,0.498047 l 0,-0.703125 c 1.63411,1.2e-5 2.86784,-0.42642 3.70117,-1.279297 l 0.28321,0 c 0.0456,1.4e-5 0.0895,0.01792 0.13183,0.05371 0.0423,0.03582 0.0635,0.07651 0.0635,0.122071 l 0,11.80664 c -10e-6,0.423178 0.83333,0.634767 2.5,0.634766 l 0,0.703125 z"
       style="fill:#ffffff"
       id="path4031" />
    <path
       d="m 242.48448,38.416954 c -0.82683,0 -1.51693,-0.219727 -2.07031,-0.65918 -0.55339,-0.439452 -0.98145,-1.009113 -1.28418,-1.708984 -0.30274,-0.699867 -0.5127,-1.433916 -0.62988,-2.202148 -0.11719,-0.768225 -0.17579,-1.546219 -0.17578,-2.333985 -1e-5,-1.05468 0.20507,-2.112621 0.61523,-3.173828 0.41015,-1.061187 1.01399,-1.940093 1.81152,-2.636719 0.79753,-0.696601 1.74316,-1.044908 2.83692,-1.044922 0.45572,1.4e-5 0.88052,0.08628 1.27441,0.258789 0.39387,0.172539 0.70312,0.426445 0.92774,0.761719 0.2246,0.335299 0.3369,0.740572 0.33691,1.215821 -1e-5,0.273448 -0.0928,0.50294 -0.27832,0.688476 -0.18556,0.185557 -0.41505,0.278331 -0.68848,0.27832 -0.26042,1.1e-5 -0.48503,-0.09439 -0.67383,-0.283203 -0.1888,-0.188791 -0.2832,-0.416656 -0.2832,-0.683593 0,-0.260406 0.0944,-0.485015 0.2832,-0.673829 0.1888,-0.18879 0.41341,-0.283191 0.67383,-0.283203 l 0.10742,0 c -0.16927,-0.240873 -0.40853,-0.418282 -0.71777,-0.532226 -0.30925,-0.11392 -0.62989,-0.170886 -0.96191,-0.170899 -0.40365,1.3e-5 -0.77638,0.0879 -1.11817,0.263672 -0.3418,0.175794 -0.64942,0.413424 -0.92285,0.712891 -0.27344,0.29949 -0.5013,0.629894 -0.68359,0.991211 -0.1823,0.361338 -0.3239,0.773122 -0.42481,1.235351 -0.10091,0.462249 -0.16439,0.895191 -0.19043,1.298828 -0.026,0.403654 -0.0391,0.911466 -0.0391,1.523438 0.23437,-0.546868 0.5664,-0.994459 0.99609,-1.342774 0.42969,-0.348298 0.91471,-0.522452 1.45508,-0.52246 0.59245,8e-6 1.13281,0.120451 1.6211,0.361328 0.48827,0.240893 0.90819,0.574552 1.25976,1.000976 0.35156,0.426439 0.62011,0.913092 0.80567,1.459961 0.18553,0.54688 0.27831,1.100265 0.27832,1.660156 -1e-5,0.781254 -0.17417,1.525068 -0.52246,2.231446 -0.34832,0.706381 -0.83823,1.267904 -1.46973,1.68457 -0.63152,0.416666 -1.34766,0.625 -2.14844,0.625 z m 0,-0.634766 c 0.51432,1e-6 0.92773,-0.117187 1.24024,-0.351562 0.31249,-0.234374 0.54198,-0.545246 0.68847,-0.932617 0.14648,-0.387368 0.23763,-0.777993 0.27344,-1.171875 0.0358,-0.393877 0.0537,-0.877275 0.0537,-1.450196 -1e-5,-0.755203 -0.0358,-1.399734 -0.10742,-1.933593 -0.0716,-0.533848 -0.26693,-1.004225 -0.58594,-1.411133 -0.31901,-0.406893 -0.8073,-0.610344 -1.46484,-0.610352 -0.54037,8e-6 -0.98471,0.1823 -1.33301,0.546875 -0.34831,0.364591 -0.60222,0.825202 -0.76172,1.381836 -0.15951,0.556646 -0.23926,1.092128 -0.23926,1.606446 0,0.175785 0.007,0.309249 0.0195,0.40039 0,0.01954 -0.002,0.03581 -0.005,0.04883 -0.003,0.01302 -0.008,0.0293 -0.0146,0.04883 0,0.572921 0.0586,1.152347 0.17578,1.738282 0.11719,0.585939 0.3418,1.08073 0.67383,1.484375 0.33203,0.403646 0.79427,0.605469 1.38672,0.605468 z"
       style="fill:#ffffff"
       id="path4033" />
    <path
       d="m 249.16417,36.873985 c 0,-0.299477 0.11067,-0.556639 0.33203,-0.771484 0.22135,-0.214842 0.47851,-0.322264 0.77148,-0.322266 0.18229,2e-6 0.36133,0.04883 0.53711,0.146485 0.17578,0.09766 0.3125,0.234376 0.41016,0.410156 0.0977,0.175783 0.14648,0.354819 0.14648,0.537109 0,0.29297 -0.10742,0.550131 -0.32226,0.771485 -0.21485,0.221354 -0.47201,0.332031 -0.77149,0.332031 -0.29297,0 -0.55013,-0.110677 -0.77148,-0.332031 -0.22136,-0.221354 -0.33203,-0.478515 -0.33203,-0.771485 z"
       style="fill:#ffffff"
       id="path4035" />
    <path
       d="m 253.588,34.67672 0,-0.703125 6.18164,-9.21875 c 0.0456,-0.06509 0.11392,-0.09764 0.20508,-0.09766 l 0.29296,0 c 0.14974,1.4e-5 0.22461,0.07488 0.22461,0.22461 l 0,9.091797 1.96289,0 0,0.703125 -1.96289,0 0,1.96289 c 0,0.273439 0.19531,0.447592 0.58594,0.522461 0.39062,0.07487 0.84309,0.112306 1.35742,0.112305 l 0,0.703125 -5.50781,0 0,-0.703125 c 0.51432,1e-6 0.96679,-0.03743 1.35742,-0.112305 0.39062,-0.07487 0.58593,-0.249022 0.58594,-0.522461 l 0,-1.96289 z m 0.66406,-0.703125 4.73633,0 0,-7.080078 z"
       style="fill:#ffffff"
       id="path4037" />
    <path
       d="m 274.69151,38.20211 c -0.80729,0 -1.53971,-0.209961 -2.19726,-0.629883 -0.65756,-0.419921 -1.17513,-0.979816 -1.55274,-1.679687 -0.3776,-0.699867 -0.5664,-1.443681 -0.5664,-2.231445 0,-0.787756 0.18717,-1.542963 0.56152,-2.265625 0.37435,-0.722649 0.89193,-1.300448 1.55273,-1.733399 0.66081,-0.432934 1.39486,-0.649405 2.20215,-0.649414 0.78125,9e-6 1.49251,0.153004 2.13379,0.458985 0.64127,0.305997 0.96191,0.807299 0.96192,1.503906 -10e-6,0.260423 -0.0928,0.48666 -0.27832,0.678711 -0.18556,0.192063 -0.4118,0.288092 -0.67872,0.288086 -0.26693,6e-6 -0.49317,-0.09602 -0.67871,-0.288086 -0.18555,-0.192051 -0.27832,-0.418288 -0.27832,-0.678711 0,-0.234368 0.0749,-0.437818 0.22461,-0.610352 0.14974,-0.172518 0.33528,-0.281567 0.55664,-0.327148 -0.46224,-0.292961 -1.11003,-0.439445 -1.94336,-0.439453 -0.63802,8e-6 -1.15234,0.211596 -1.54296,0.634765 -0.39063,0.423185 -0.66407,0.947273 -0.82032,1.572266 -0.15625,0.625005 -0.23437,1.243494 -0.23437,1.855469 0,0.644535 0.096,1.267906 0.28808,1.870117 0.19206,0.602215 0.5013,1.100262 0.92774,1.49414 0.42643,0.393881 0.96191,0.590821 1.60644,0.590821 0.63151,0 1.16862,-0.193685 1.61133,-0.581055 0.4427,-0.387368 0.74544,-0.893553 0.9082,-1.518555 0,-0.07812 0.0521,-0.117185 0.15625,-0.117187 l 0.24415,0 c 0.0391,2e-6 0.0749,0.01791 0.10742,0.05371 0.0325,0.03581 0.0488,0.0765 0.0488,0.12207 l 0,0.05859 c -0.20184,0.787762 -0.60223,1.412761 -1.20118,1.875 -0.59896,0.46224 -1.30534,0.693359 -2.11914,0.693359 z"
       style="fill:#ffffff"
       id="path4039" />
    <path
       d="m 279.17393,37.977501 0,-0.703125 c 0.45573,1e-6 0.83008,-0.03581 1.12305,-0.107422 0.29297,-0.07161 0.43945,-0.247395 0.43945,-0.527344 l 0,-5.458984 c 0,-0.358066 -0.0537,-0.616855 -0.16113,-0.776367 -0.10742,-0.159498 -0.26204,-0.257154 -0.46387,-0.292969 -0.20182,-0.0358 -0.51432,-0.0537 -0.9375,-0.05371 l 0,-0.703125 2.9004,-0.214844 0,1.953125 c 0.26692,-0.572909 0.66243,-1.041658 1.18652,-1.40625 0.52408,-0.364574 1.09537,-0.546866 1.71387,-0.546875 1.53645,9e-6 2.43814,0.625009 2.70507,1.875 0.26692,-0.559888 0.65755,-1.012362 1.17188,-1.357422 0.51431,-0.345043 1.07746,-0.517569 1.68945,-0.517578 0.60546,9e-6 1.1149,0.09766 1.52832,0.292969 0.4134,0.195321 0.72427,0.493172 0.93262,0.893555 0.20832,0.400398 0.31249,0.903327 0.3125,1.508789 l 0,4.804687 c -10e-6,0.279949 0.1481,0.45573 0.44434,0.527344 0.2962,0.07162 0.66893,0.107423 1.11816,0.107422 l 0,0.703125 -4.58008,0 0,-0.703125 c 0.45572,1e-6 0.83007,-0.03581 1.12305,-0.107422 0.29295,-0.07161 0.43944,-0.247395 0.43945,-0.527344 l 0,-4.746093 c -1e-5,-0.670567 -0.0944,-1.210931 -0.2832,-1.621094 -0.18882,-0.410148 -0.57619,-0.615226 -1.16211,-0.615235 -0.76824,9e-6 -1.40301,0.309253 -1.9043,0.927735 -0.50131,0.618496 -0.75196,1.32162 -0.75195,2.109375 l 0,3.945312 c -1e-5,0.279949 0.14647,0.45573 0.43945,0.527344 0.29296,0.07162 0.66731,0.107423 1.12305,0.107422 l 0,0.703125 -4.58008,0 0,-0.703125 c 0.45572,1e-6 0.83007,-0.03581 1.12305,-0.107422 0.29296,-0.07161 0.43944,-0.247395 0.43945,-0.527344 l 0,-4.746093 c -1e-5,-0.651035 -0.0944,-1.186517 -0.2832,-1.606446 -0.18881,-0.419914 -0.57618,-0.629874 -1.16211,-0.629883 -0.77475,9e-6 -1.41114,0.309253 -1.90918,0.927735 -0.49805,0.618496 -0.74707,1.32162 -0.74707,2.109375 l 0,3.945312 c 0,0.279949 0.14648,0.45573 0.43945,0.527344 0.29297,0.07162 0.66406,0.107423 1.11328,0.107422 l 0,0.703125 z"
       style="fill:#ffffff"
       id="path4041" />
    <path
       d="m 296.49573,28.974557 c 0.20313,0.296229 0.47608,0.516284 0.81886,0.660166 0.34277,0.143882 0.71094,0.215823 1.10451,0.215823 0.50358,0 0.86117,-0.214765 1.07277,-0.644296 0.21158,-0.42953 0.31738,-0.917248 0.31738,-1.463156 0,-0.245443 -0.0222,-0.490889 -0.0667,-0.736338 -0.0444,-0.245443 -0.11955,-0.473962 -0.22534,-0.685557 -0.1058,-0.211587 -0.25074,-0.38086 -0.43482,-0.507819 -0.18409,-0.126951 -0.40944,-0.190428 -0.67604,-0.190433 l -0.86329,0 c -0.0762,5e-6 -0.11426,-0.0402 -0.11426,-0.120607 l 0,-0.114259 c 0,-0.06771 0.0381,-0.101559 0.11426,-0.101564 l 0.71729,-0.05713 c 0.30469,5e-6 0.55754,-0.114254 0.75856,-0.342778 0.20101,-0.228514 0.34806,-0.506756 0.44117,-0.834729 0.0931,-0.32796 0.13964,-0.640057 0.13965,-0.936292 -1e-5,-0.414712 -0.0973,-0.755374 -0.292,-1.021987 -0.19467,-0.266597 -0.49089,-0.3999 -0.88868,-0.399908 -0.33009,8e-6 -0.64536,0.06243 -0.94582,0.187258 -0.30046,0.124847 -0.53956,0.314222 -0.71729,0.568124 0.0169,-0.0042 0.0317,-0.0074 0.0444,-0.0095 0.0127,-0.0021 0.0275,-0.0032 0.0444,-0.0032 0.19466,8e-6 0.35758,0.06772 0.48877,0.203128 0.13119,0.135426 0.19678,0.298351 0.19678,0.488776 0,0.186208 -0.0656,0.347017 -0.19678,0.482429 -0.13119,0.135425 -0.29411,0.203134 -0.48877,0.203128 -0.19044,6e-6 -0.35336,-0.0677 -0.48878,-0.203128 -0.13542,-0.135412 -0.20313,-0.296221 -0.20313,-0.482429 0,-0.372394 0.11214,-0.696128 0.33643,-0.971205 0.22429,-0.275061 0.51311,-0.483478 0.86647,-0.625253 0.35335,-0.141757 0.70777,-0.212641 1.06325,-0.212649 0.26237,8e-6 0.53955,0.03915 0.83155,0.117433 0.29199,0.0783 0.55648,0.190441 0.79347,0.336431 0.23698,0.146006 0.43058,0.333264 0.58082,0.561775 0.15022,0.228526 0.22534,0.488784 0.22534,0.780773 0,0.363944 -0.0815,0.700374 -0.24438,1.009291 -0.16294,0.30893 -0.38616,0.575535 -0.66969,0.799816 -0.28354,0.224292 -0.59458,0.391449 -0.93312,0.501472 0.37663,0.07195 0.73422,0.213712 1.07277,0.425299 0.33854,0.211596 0.61043,0.482433 0.81568,0.812512 0.20524,0.330085 0.30786,0.685559 0.30787,1.066421 -10e-6,0.478199 -0.13119,0.910903 -0.39356,1.298114 -0.26238,0.387213 -0.60727,0.689789 -1.03468,0.907728 -0.42742,0.217939 -0.87811,0.326908 -1.35207,0.326908 -0.40626,0 -0.81358,-0.07723 -1.22194,-0.231692 -0.40838,-0.154462 -0.74269,-0.386154 -1.00295,-0.695078 -0.26026,-0.308923 -0.39039,-0.679208 -0.39038,-1.110856 -1e-5,-0.215821 0.0719,-0.395674 0.21582,-0.539558 0.14388,-0.14388 0.32373,-0.215821 0.53956,-0.215824 0.13965,3e-6 0.26766,0.0328 0.38404,0.09839 0.11637,0.0656 0.20735,0.157638 0.27295,0.276127 0.0656,0.118494 0.0984,0.245448 0.0984,0.380865 0,0.211593 -0.0741,0.38933 -0.22217,0.533211 -0.14812,0.143883 -0.32585,0.215824 -0.53321,0.215823 z"
       style="font-size:65.00091553%;baseline-shift:super;fill:#ffffff"
       id="path4043" />
    <path
       d="m 302.88106,42.57711 c 0,-0.03907 0.007,-0.06511 0.0195,-0.07813 l 6.95312,-19.277343 c 0.026,-0.07811 0.0716,-0.138332 0.13672,-0.180665 0.0651,-0.0423 0.13997,-0.06346 0.22461,-0.06348 0.11718,1.5e-5 0.21321,0.03582 0.28809,0.107422 0.0749,0.07163 0.11229,0.169285 0.1123,0.292969 l 0,0.07813 -6.95312,19.277343 c -0.0781,0.162756 -0.20508,0.244136 -0.38086,0.244141 -0.11068,-5e-6 -0.20508,-0.03907 -0.2832,-0.117188 -0.0781,-0.07813 -0.11719,-0.17253 -0.11719,-0.283203 z"
       style="fill:#ffffff"
       id="path4045" />
    <path
       d="m 312.42207,38.036095 0,-3.261719 c 0,-0.104163 0.0586,-0.156247 0.17578,-0.15625 l 0.24415,0 c 0.0781,3e-6 0.1302,0.05209 0.15625,0.15625 0.37109,1.933595 1.26952,2.900391 2.69531,2.900391 0.6315,0 1.16047,-0.143229 1.58691,-0.429688 0.42643,-0.286457 0.63964,-0.729165 0.63965,-1.328125 -10e-6,-0.429685 -0.16602,-0.795896 -0.49805,-1.098633 -0.33203,-0.302731 -0.72591,-0.509436 -1.18164,-0.620117 l -1.33789,-0.263672 c -0.44922,-0.09765 -0.85775,-0.247391 -1.22558,-0.449219 -0.36784,-0.201818 -0.66895,-0.470372 -0.90332,-0.805664 -0.23438,-0.33528 -0.35157,-0.724277 -0.35157,-1.166992 0,-0.58593 0.15462,-1.066073 0.46387,-1.44043 0.30924,-0.37434 0.71126,-0.644522 1.20606,-0.810546 0.49478,-0.166007 1.02864,-0.249015 1.60156,-0.249024 0.68359,9e-6 1.27929,0.182301 1.78711,0.546875 l 0.57617,-0.498047 c -1e-5,-0.03254 0.0325,-0.04882 0.0977,-0.04883 l 0.14648,0 c 0.0391,9e-6 0.0749,0.01791 0.10742,0.05371 0.0326,0.03582 0.0488,0.07325 0.0488,0.112305 l 0,2.617187 c -10e-6,0.123704 -0.0521,0.185553 -0.15625,0.185547 l -0.24414,0 c -0.11719,6e-6 -0.17579,-0.06184 -0.17578,-0.185547 -10e-6,-0.696607 -0.19369,-1.256503 -0.58106,-1.679687 -0.38737,-0.423169 -0.92936,-0.634757 -1.62597,-0.634766 -0.59897,9e-6 -1.11817,0.110686 -1.55762,0.332031 -0.43946,0.221363 -0.65918,0.602222 -0.65918,1.142579 0,0.3711 0.15788,0.675462 0.47363,0.913085 0.31576,0.237637 0.68522,0.408535 1.1084,0.512696 l 1.35742,0.253906 c 0.45573,0.104172 0.88053,0.279953 1.27442,0.527344 0.39387,0.2474 0.70637,0.5599 0.9375,0.9375 0.23111,0.377607 0.34667,0.804039 0.34668,1.279297 -1e-5,0.481773 -0.083,0.900066 -0.24903,1.254882 -0.16602,0.354819 -0.39714,0.649415 -0.69336,0.88379 -0.29623,0.234375 -0.64616,0.406901 -1.0498,0.517578 -0.40365,0.110677 -0.82683,0.166015 -1.26953,0.166015 -0.83334,0 -1.54623,-0.279948 -2.13867,-0.839843 l -0.73243,0.791015 c 0,0.03255 -0.0358,0.04883 -0.10742,0.04883 l -0.11719,0 c -0.11718,0 -0.17578,-0.05534 -0.17578,-0.166015 z"
       style="fill:#ffffff"
       id="path4047" />
  </g>
</svg>
