<?xml version="1.0" encoding="UTF-8" standalone="no"?>
<!-- Created with Inkscape (http://www.inkscape.org/) -->

<svg
   xmlns:dc="http://purl.org/dc/elements/1.1/"
   xmlns:cc="http://creativecommons.org/ns#"
   xmlns:rdf="http://www.w3.org/1999/02/22-rdf-syntax-ns#"
   xmlns:svg="http://www.w3.org/2000/svg"
   xmlns="http://www.w3.org/2000/svg"
   xmlns:sodipodi="http://sodipodi.sourceforge.net/DTD/sodipodi-0.dtd"
   xmlns:inkscape="http://www.inkscape.org/namespaces/inkscape"
   version="1.2"
   width="320"
   height="60"
   id="svg3020"
   inkscape:version="0.48.3.1 r9886"
   sodipodi:docname="eqn_noise_05.svg">
  <sodipodi:namedview
     pagecolor="#ffffff"
     bordercolor="#666666"
     borderopacity="1"
     objecttolerance="10"
     gridtolerance="10"
     guidetolerance="10"
     inkscape:pageopacity="0"
     inkscape:pageshadow="2"
     inkscape:window-width="1366"
     inkscape:window-height="716"
     id="namedview3279"
     showgrid="false"
     inkscape:zoom="2.34"
     inkscape:cx="124.03108"
     inkscape:cy="30"
     inkscape:window-x="-8"
     inkscape:window-y="-8"
     inkscape:window-maximized="1"
     inkscape:current-layer="g3009" />
  <metadata
     id="metadata3026">
    <rdf:RDF>
      <cc:Work
         rdf:about="">
        <dc:format>image/svg+xml</dc:format>
        <dc:type
           rdf:resource="http://purl.org/dc/dcmitype/StillImage" />
        <dc:title />
      </cc:Work>
    </rdf:RDF>
  </metadata>
  <defs
     id="defs3024" />
  <text
     x="44.56657"
     y="42.23513"
     transform="scale(0.95814898,1.043679)"
     id="text3030"
     xml:space="preserve"
     style="font-size:41.02812958px;font-style:normal;font-variant:normal;font-weight:normal;font-stretch:normal;line-height:125%;letter-spacing:0px;word-spacing:0px;fill:#000000;fill-opacity:1;font-family:Cambria Math;-inkscape-font-specification:Cambria Math"
     sodipodi:linespacing="125%"><tspan
       x="44.56657"
       y="42.23513"
       id="tspan3032" /></text>
  <g
     transform="matrix(1.4688253,0,0,1.4688253,-277.70507,-0.75165246)"
     id="g3009"
     style="fill:#000000">
    <g
       transform="matrix(0.68081616,0,0,0.68081616,66.230655,78.160046)"
       id="g3569"
       style="fill:#000000" />
    <g
       transform="matrix(0.90952671,0,0,0.90952671,32.493425,6.0903865)"
       id="g4521"
       style="fill:#ffffff;stroke:none">
      <g
         style="font-size:13.80000019000000000px;font-style:normal;font-variant:normal;font-weight:normal;font-stretch:normal;text-align:start;text-anchor:start;fill:#ffffff;font-family:cmr10;-inkscape-font-specification:cmr10;stroke:none"
         id="text4523">
        <path
           d="m 183.84023,21.635342 0,-0.485157 c 0.4627,1e-6 0.91192,-0.02583 1.34766,-0.07749 0.43574,-0.05166 0.65361,-0.171825 0.65361,-0.360498 l 0,-7.580566 c 0,-0.197648 -0.055,-0.32006 -0.16508,-0.367237 -0.11007,-0.04716 -0.28863,-0.07074 -0.5357,-0.07075 l -0.57949,0 c -0.75918,9e-6 -1.29824,0.16622 -1.61719,0.498633 -0.16621,0.166219 -0.28525,0.432381 -0.35713,0.798486 -0.0719,0.366121 -0.13252,0.825447 -0.18193,1.377979 l -0.39756,0 0.26279,-3.160254 8.42959,0 0.2628,3.160254 -0.4043,0 c -0.0539,-0.592962 -0.11344,-1.063518 -0.17856,-1.41167 -0.0651,-0.348136 -0.18307,-0.603068 -0.35376,-0.764795 -0.32345,-0.332413 -0.86251,-0.498624 -1.61719,-0.498633 l -0.57949,0 c -0.16622,9e-6 -0.29537,0.0067 -0.38745,0.02022 -0.0921,0.01349 -0.16734,0.05279 -0.22574,0.11792 -0.0584,0.06515 -0.0876,0.165097 -0.0876,0.299854 l 0,7.580566 c -1e-5,0.188673 0.21786,0.308839 0.65361,0.360498 0.43573,0.05166 0.88271,0.07749 1.34092,0.07749 l 0,0.485157 z"
           style="font-size:13.80000019000000000px;font-style:normal;font-variant:normal;font-weight:normal;font-stretch:normal;text-align:start;text-anchor:start;fill:#ffffff;font-family:cmr10;-inkscape-font-specification:cmr10;stroke:none"
           id="path4025" />
        <path
           d="m 195.77373,21.790322 -2.8166,-8.658691 c -0.0719,-0.193156 -0.21114,-0.314445 -0.41777,-0.363868 -0.20665,-0.04941 -0.47618,-0.07411 -0.8086,-0.07412 l 0,-0.485156 3.69932,0 0,0.485156 c -0.77266,9e-6 -1.15899,0.123544 -1.15899,0.370606 l 0,0.06738 2.20342,6.792187 1.87998,-5.808398 -0.3167,-0.983789 c -0.0719,-0.193156 -0.21114,-0.314445 -0.41777,-0.363868 -0.20665,-0.04941 -0.47618,-0.07411 -0.80859,-0.07412 l 0,-0.485156 3.69257,0 0,0.485156 c -0.78164,9e-6 -1.17246,0.123544 -1.17246,0.370606 0,0.01349 0.004,0.0337 0.0135,0.06064 0.009,0.02696 0.0135,0.04493 0.0135,0.05391 l 2.19668,6.745019 2.06865,-6.414844 c 0.009,-0.02694 0.0135,-0.06962 0.0135,-0.128027 -1e-5,-0.24257 -0.12803,-0.417765 -0.38408,-0.525586 -0.25606,-0.107804 -0.52335,-0.16171 -0.80185,-0.161719 l 0,-0.485156 2.95136,0 0,0.485156 c -0.72774,9e-6 -1.17696,0.271786 -1.34765,0.815332 l -2.69531,8.281348 c -0.0315,0.09883 -0.0988,0.148242 -0.20215,0.148242 l -0.10108,0 c -0.10333,0 -0.17071,-0.04941 -0.20215,-0.148242 l -2.27753,-7.028027 -2.29102,7.028027 c -0.0315,0.09883 -0.10108,0.148242 -0.20889,0.148242 l -0.0943,0 c -0.10782,0 -0.17745,-0.04941 -0.20889,-0.148242 z"
           style="font-size:13.80000019000000000px;font-style:normal;font-variant:normal;font-weight:normal;font-stretch:normal;text-align:start;text-anchor:start;fill:#ffffff;font-family:cmr10;-inkscape-font-specification:cmr10;stroke:none"
           id="path4027" />
        <path
           d="m 206.10352,21.635342 0,-0.485157 c 0.82207,1e-6 1.32744,-0.271776 1.51611,-0.815332 l 2.89746,-8.42959 c 0.0269,-0.09882 0.10107,-0.148232 0.22236,-0.148242 l 0.1752,0 c 0.12128,10e-6 0.1954,0.04942 0.22236,0.148242 l 3.02549,8.806934 c 0.0853,0.193165 0.24819,0.314454 0.48853,0.363867 0.24032,0.04941 0.54017,0.07412 0.89956,0.07412 l 0,0.485157 -3.84756,0 0,-0.485157 c 0.76366,1e-6 1.1455,-0.123534 1.14551,-0.370605 l 0,-0.06738 -0.74795,-2.15625 -3.34893,0 -0.61992,1.778906 c -0.009,0.03145 -0.0135,0.07862 -0.0135,0.141504 0,0.229103 0.10894,0.398683 0.32681,0.50874 0.21787,0.11006 0.45258,0.165089 0.70415,0.165088 l 0,0.485157 z m 2.80986,-3.557813 3.02549,0 -1.51611,-4.406836 z"
           style="font-size:13.80000019000000000px;font-style:normal;font-variant:normal;font-weight:normal;font-stretch:normal;text-align:start;text-anchor:start;fill:#ffffff;font-family:cmr10;-inkscape-font-specification:cmr10;stroke:none"
           id="path4029" />
      </g>
      <g
         style="font-size:10.05000019000000000px;font-style:normal;font-variant:normal;font-weight:normal;font-stretch:normal;text-align:start;text-anchor:start;fill:#ffffff;font-family:cmr10;-inkscape-font-specification:cmr10;stroke:none"
         id="text4525">
        <path
           d="m 218.50269,24.602872 c -0.40894,0 -0.78434,-0.107141 -1.12621,-0.321424 -0.34187,-0.214281 -0.61014,-0.500536 -0.80479,-0.858764 -0.19465,-0.358226 -0.29198,-0.7369 -0.29198,-1.136023 0,-0.392576 0.0892,-0.765525 0.26745,-1.118848 0.17829,-0.353317 0.42692,-0.638753 0.74589,-0.856311 0.31897,-0.217549 0.67475,-0.326326 1.06733,-0.326331 0.30751,5e-6 0.57496,0.05153 0.80233,0.154578 0.22736,0.103056 0.41465,0.246183 0.56188,0.429382 0.14721,0.183207 0.25844,0.399125 0.33369,0.647754 0.0752,0.248636 0.11286,0.521805 0.11286,0.819507 0,0.08833 -0.0344,0.132498 -0.10305,0.132495 l -2.90998,0 0,0.107959 c -1e-5,0.556154 0.11204,1.033791 0.33614,1.43291 0.2241,0.399122 0.58968,0.598682 1.09677,0.598682 0.2061,0 0.39666,-0.0458 0.57169,-0.137402 0.17502,-0.0916 0.32714,-0.219189 0.45637,-0.382764 0.12922,-0.163573 0.21673,-0.338598 0.26254,-0.525073 0.007,-0.0229 0.0188,-0.04335 0.0368,-0.06134 0.018,-0.01799 0.0384,-0.02699 0.0613,-0.02699 l 0.0883,0 c 0.0687,10e-7 0.10305,0.04253 0.10305,0.127588 -0.0949,0.379493 -0.29934,0.691101 -0.6134,0.934826 -0.31407,0.243726 -0.66575,0.365589 -1.05505,0.365589 z m -1.33477,-2.684253 2.29167,0 c 0,-0.251902 -0.0352,-0.507077 -0.1055,-0.765528 -0.0703,-0.258443 -0.1873,-0.473543 -0.35087,-0.6453 -0.16357,-0.171749 -0.37786,-0.257625 -0.64284,-0.257629 -0.3795,4e-6 -0.67311,0.177482 -0.88085,0.532434 -0.20774,0.354959 -0.31161,0.733633 -0.31161,1.136023 z"
           style="font-size:10.05000019000000000px;font-style:normal;font-variant:normal;font-weight:normal;font-stretch:normal;text-align:start;text-anchor:start;fill:#ffffff;font-family:cmr10;-inkscape-font-specification:cmr10;stroke:none"
           id="path4032" />
        <path
           d="m 223.4688,26.438174 0,-0.348413 c 0.229,-1e-6 0.41711,-0.01963 0.56433,-0.05889 0.14721,-0.03926 0.22082,-0.12759 0.22083,-0.264991 l 0,-1.859838 c -0.15704,0.209375 -0.35496,0.377856 -0.59378,0.505444 -0.23882,0.127588 -0.48909,0.191382 -0.7508,0.191382 -0.30098,0 -0.5807,-0.06216 -0.83914,-0.186475 -0.25845,-0.124316 -0.48336,-0.292797 -0.67474,-0.505444 -0.19139,-0.212646 -0.34024,-0.458825 -0.44656,-0.738538 -0.10633,-0.27971 -0.15949,-0.563511 -0.15949,-0.851404 0,-0.399118 0.0982,-0.774521 0.29444,-1.126208 0.19629,-0.351681 0.46536,-0.630575 0.80724,-0.836682 0.34186,-0.2061 0.71072,-0.309151 1.10658,-0.309156 0.28461,5e-6 0.54797,0.08016 0.79006,0.240454 0.24209,0.160307 0.4351,0.374589 0.57905,0.642847 l 0.35823,-0.883301 0.26499,0 0,5.716919 c -1e-5,0.137401 0.0736,0.225731 0.22082,0.264991 0.14722,0.03926 0.33369,0.05888 0.55943,0.05889 l 0,0.348413 z m -0.50054,-2.100293 c 0.2977,1e-6 0.56351,-0.09896 0.79743,-0.296887 0.2339,-0.197924 0.40647,-0.447374 0.51771,-0.748352 l 0,-1.766601 c -0.0687,-0.320603 -0.21102,-0.598678 -0.42693,-0.834229 -0.21592,-0.235543 -0.47437,-0.353316 -0.77534,-0.35332 -0.22901,4e-6 -0.43348,0.06053 -0.61341,0.181567 -0.17993,0.121049 -0.3296,0.282987 -0.44901,0.485816 -0.11941,0.202835 -0.20855,0.422024 -0.26744,0.657568 -0.0589,0.235549 -0.0883,0.45801 -0.0883,0.667383 0,0.268263 0.0474,0.560243 0.14231,0.87594 0.0949,0.315699 0.24045,0.583143 0.43674,0.802331 0.19629,0.21919 0.43838,0.328785 0.72627,0.328784 z"
           style="font-size:10.05000019000000000px;font-style:normal;font-variant:normal;font-weight:normal;font-stretch:normal;text-align:start;text-anchor:start;fill:#ffffff;font-family:cmr10;-inkscape-font-specification:cmr10;stroke:none"
           id="path4034" />
      </g>
      <g
         style="font-size:13.80000019000000000px;font-style:normal;font-variant:normal;font-weight:normal;font-stretch:normal;text-align:start;text-anchor:start;fill:#ffffff;font-family:cmb10;-inkscape-font-specification:cmb10;stroke:none"
         id="text4527">
        <path
           d="m 233.22246,20.132705 c -0.10781,-0.01347 -0.20102,-0.05952 -0.27963,-0.138135 -0.0786,-0.07861 -0.11793,-0.171824 -0.11792,-0.279639 -10e-6,-0.103318 0.0371,-0.194285 0.11118,-0.2729 0.0741,-0.07861 0.16958,-0.129148 0.28637,-0.151611 l 8.38916,0 c 0.1123,0.02246 0.20551,0.073 0.27964,0.151611 0.0741,0.07861 0.11117,0.169582 0.11118,0.2729 -1e-5,0.107815 -0.0393,0.201028 -0.11792,0.279639 -0.0786,0.07861 -0.16959,0.12466 -0.2729,0.138135 z m 0,-3.079395 c -0.10781,-0.01347 -0.20102,-0.05952 -0.27963,-0.138134 -0.0786,-0.07861 -0.11793,-0.169576 -0.11792,-0.272901 -10e-6,-0.107807 0.0371,-0.20102 0.11118,-0.279639 0.0741,-0.07861 0.16958,-0.129144 0.28637,-0.151611 l 8.38916,0 c 0.1123,0.02247 0.20551,0.073 0.27964,0.151611 0.0741,0.07862 0.11117,0.171832 0.11118,0.279639 -1e-5,0.103325 -0.0393,0.194292 -0.11792,0.272901 -0.0786,0.07862 -0.16959,0.124662 -0.2729,0.138134 z"
           style="font-size:13.80000019000000000px;font-style:normal;font-variant:normal;font-weight:normal;font-stretch:normal;text-align:start;text-anchor:start;fill:#ffffff;font-family:cmb10;-inkscape-font-specification:cmb10;stroke:none"
           id="path4037" />
      </g>
      <g
         style="font-size:13.80000019000000000px;font-style:normal;font-variant:normal;font-weight:normal;font-stretch:normal;text-align:start;text-anchor:start;fill:#ffffff;font-family:cmr10;-inkscape-font-specification:cmr10;stroke:none"
         id="text4529">
        <path
           d="m 247.43027,21.635342 0,-0.485157 c 1.14999,1e-6 1.72499,-0.145995 1.725,-0.437988 l 0,-7.243652 c -0.47618,0.229109 -1.07813,0.34366 -1.80586,0.343652 l 0,-0.485156 c 1.12753,8e-6 1.9788,-0.29423 2.55381,-0.882715 l 0.19541,0 c 0.0314,9e-6 0.0618,0.01236 0.091,0.03706 0.0292,0.02472 0.0438,0.05279 0.0438,0.08423 l 0,8.146582 c 0,0.291993 0.575,0.437989 1.725,0.437988 l 0,0.485157 z"
           style="font-size:13.80000019000000000px;font-style:normal;font-variant:normal;font-weight:normal;font-stretch:normal;text-align:start;text-anchor:start;fill:#ffffff;font-family:cmr10;-inkscape-font-specification:cmr10;stroke:none"
           id="path4040" />
        <path
           d="m 256.49999,21.938564 c -0.57051,0 -1.04668,-0.151611 -1.42851,-0.454834 -0.38184,-0.303222 -0.6772,-0.696288 -0.88609,-1.179199 -0.20888,-0.482908 -0.35376,-0.989402 -0.43461,-1.519482 -0.0809,-0.530075 -0.12129,-1.066891 -0.12129,-1.61045 0,-0.727729 0.1415,-1.457709 0.42451,-2.189941 0.283,-0.732219 0.69965,-1.338664 1.24995,-1.819336 0.55029,-0.480655 1.20278,-0.720987 1.95747,-0.720996 0.31445,9e-6 0.60756,0.05953 0.87935,0.178564 0.27177,0.119052 0.48515,0.294247 0.64013,0.525586 0.15498,0.231356 0.23247,0.510995 0.23247,0.838916 0,0.18868 -0.064,0.347029 -0.19204,0.475049 -0.12803,0.128035 -0.28638,0.192048 -0.47505,0.192041 -0.17969,7e-6 -0.33467,-0.06513 -0.46494,-0.19541 -0.13028,-0.130266 -0.19541,-0.287493 -0.19541,-0.47168 0,-0.179679 0.0651,-0.33466 0.19541,-0.464941 0.13027,-0.130265 0.28525,-0.195402 0.46494,-0.19541 l 0.0741,0 c -0.1168,-0.166203 -0.28189,-0.288615 -0.49526,-0.367237 -0.21338,-0.0786 -0.43462,-0.117911 -0.66372,-0.11792 -0.27852,9e-6 -0.5357,0.06065 -0.77153,0.181934 -0.23585,0.121298 -0.4481,0.285262 -0.63677,0.491895 -0.18868,0.206648 -0.3459,0.434626 -0.47168,0.683935 -0.12578,0.249324 -0.22349,0.533454 -0.29312,0.852393 -0.0696,0.318951 -0.11343,0.617682 -0.13139,0.896191 -0.018,0.278521 -0.027,0.628912 -0.027,1.051172 0.16172,-0.377339 0.39082,-0.686176 0.68731,-0.926514 0.29648,-0.240326 0.63115,-0.360492 1.004,-0.360498 0.40879,6e-6 0.78164,0.08311 1.11856,0.249317 0.33691,0.166216 0.62665,0.396441 0.86924,0.690674 0.24257,0.294243 0.42787,0.630033 0.5559,1.007373 0.12803,0.377347 0.19204,0.759183 0.19205,1.145507 -1e-5,0.539065 -0.12018,1.052297 -0.3605,1.539698 -0.24034,0.487403 -0.57838,0.874854 -1.01411,1.162353 -0.43575,0.2875 -0.92989,0.43125 -1.48243,0.43125 z m 0,-0.437988 c 0.35488,0 0.64014,-0.08086 0.85577,-0.242578 0.21562,-0.161718 0.37397,-0.37622 0.47504,-0.643506 0.10107,-0.267284 0.16396,-0.536815 0.18868,-0.808594 0.0247,-0.271775 0.0371,-0.60532 0.0371,-1.000635 -10e-6,-0.52109 -0.0247,-0.965816 -0.0741,-1.334179 -0.0494,-0.368355 -0.18419,-0.692915 -0.4043,-0.973682 -0.22012,-0.280756 -0.55704,-0.421137 -1.01074,-0.421142 -0.37286,5e-6 -0.67945,0.125786 -0.91978,0.377343 -0.24033,0.251568 -0.41553,0.56939 -0.52558,0.953467 -0.11007,0.384086 -0.16509,0.753568 -0.16509,1.108447 0,0.121292 0.004,0.213382 0.0135,0.27627 0,0.01348 -0.001,0.02471 -0.003,0.03369 -0.002,0.009 -0.006,0.02022 -0.0101,0.03369 0,0.395315 0.0404,0.795119 0.12129,1.199414 0.0809,0.404298 0.23583,0.745704 0.46494,1.024219 0.2291,0.278515 0.54804,0.417773 0.95683,0.417773 z"
           style="font-size:13.80000019000000000px;font-style:normal;font-variant:normal;font-weight:normal;font-stretch:normal;text-align:start;text-anchor:start;fill:#ffffff;font-family:cmr10;-inkscape-font-specification:cmr10;stroke:none"
           id="path4042" />
      </g>
      <g
         style="font-size:13.80000019000000000px;font-style:normal;font-variant:normal;font-weight:normal;font-stretch:normal;text-align:start;text-anchor:start;fill:#ffffff;font-family:cmr10;-inkscape-font-specification:cmr10;stroke:none"
         id="text4531">
        <path
           d="m 262.609,20.873916 c 0,-0.20664 0.0764,-0.384081 0.2291,-0.532324 0.15273,-0.148241 0.33017,-0.222362 0.53232,-0.222364 0.12578,2e-6 0.24932,0.03369 0.37061,0.101075 0.12128,0.06738 0.21562,0.16172 0.28301,0.283007 0.0674,0.12129 0.10107,0.244825 0.10107,0.370606 0,0.202149 -0.0741,0.37959 -0.22236,0.532324 -0.14825,0.152735 -0.32569,0.229102 -0.53233,0.229102 -0.20215,0 -0.37959,-0.07637 -0.53232,-0.229102 -0.15274,-0.152734 -0.2291,-0.330175 -0.2291,-0.532324 z"
           style="font-size:13.80000019000000000px;font-style:normal;font-variant:normal;font-weight:normal;font-stretch:normal;text-align:start;text-anchor:start;fill:#ffffff;font-family:cmr10;-inkscape-font-specification:cmr10;stroke:none"
           id="path4045" />
      </g>
      <g
         style="font-size:13.80000019000000000px;font-style:normal;font-variant:normal;font-weight:normal;font-stretch:normal;text-align:start;text-anchor:start;fill:#ffffff;font-family:cmr10;-inkscape-font-specification:cmr10;stroke:none"
         id="text4533">
        <path
           d="m 269.24706,21.938564 c -0.57051,0 -1.04668,-0.151611 -1.42852,-0.454834 -0.38184,-0.303222 -0.6772,-0.696288 -0.88608,-1.179199 -0.20889,-0.482908 -0.35376,-0.989402 -0.43462,-1.519482 -0.0809,-0.530075 -0.12129,-1.066891 -0.12129,-1.61045 0,-0.727729 0.1415,-1.457709 0.42451,-2.189941 0.28301,-0.732219 0.69966,-1.338664 1.24995,-1.819336 0.55029,-0.480655 1.20278,-0.720987 1.95747,-0.720996 0.31445,9e-6 0.60757,0.05953 0.87935,0.178564 0.27177,0.119052 0.48515,0.294247 0.64014,0.525586 0.15497,0.231356 0.23246,0.510995 0.23247,0.838916 -1e-5,0.18868 -0.064,0.347029 -0.19204,0.475049 -0.12804,0.128035 -0.28639,0.192048 -0.47505,0.192041 -0.1797,7e-6 -0.33468,-0.06513 -0.46494,-0.19541 -0.13028,-0.130266 -0.19542,-0.287493 -0.19541,-0.47168 -10e-6,-0.179679 0.0651,-0.33466 0.19541,-0.464941 0.13026,-0.130265 0.28524,-0.195402 0.46494,-0.19541 l 0.0741,0 c -0.1168,-0.166203 -0.28189,-0.288615 -0.49527,-0.367237 -0.21338,-0.0786 -0.43462,-0.117911 -0.66372,-0.11792 -0.27852,9e-6 -0.53569,0.06065 -0.77153,0.181934 -0.23584,0.121298 -0.4481,0.285262 -0.63677,0.491895 -0.18867,0.206648 -0.3459,0.434626 -0.47168,0.683935 -0.12578,0.249324 -0.22348,0.533454 -0.29311,0.852393 -0.0696,0.318951 -0.11343,0.617682 -0.1314,0.896191 -0.018,0.278521 -0.0269,0.628912 -0.0269,1.051172 0.16172,-0.377339 0.39082,-0.686176 0.6873,-0.926514 0.29648,-0.240326 0.63115,-0.360492 1.00401,-0.360498 0.40878,6e-6 0.78163,0.08311 1.11855,0.249317 0.33691,0.166216 0.62666,0.396441 0.86924,0.690674 0.24257,0.294243 0.42788,0.630033 0.55591,1.007373 0.12802,0.377347 0.19203,0.759183 0.19204,1.145507 -10e-6,0.539065 -0.12017,1.052297 -0.3605,1.539698 -0.24034,0.487403 -0.57837,0.874854 -1.01411,1.162353 -0.43575,0.2875 -0.92989,0.43125 -1.48242,0.43125 z m 0,-0.437988 c 0.35488,0 0.64013,-0.08086 0.85576,-0.242578 0.21562,-0.161718 0.37397,-0.37622 0.47505,-0.643506 0.10107,-0.267284 0.16396,-0.536815 0.18867,-0.808594 0.0247,-0.271775 0.0371,-0.60532 0.0371,-1.000635 0,-0.52109 -0.0247,-0.965816 -0.0741,-1.334179 -0.0494,-0.368355 -0.18418,-0.692915 -0.4043,-0.973682 -0.22012,-0.280756 -0.55703,-0.421137 -1.01074,-0.421142 -0.37285,5e-6 -0.67945,0.125786 -0.91977,0.377343 -0.24034,0.251568 -0.41553,0.56939 -0.52559,0.953467 -0.11006,0.384086 -0.16509,0.753568 -0.16509,1.108447 0,0.121292 0.004,0.213382 0.0135,0.27627 0,0.01348 -0.001,0.02471 -0.003,0.03369 -0.002,0.009 -0.006,0.02022 -0.0101,0.03369 0,0.395315 0.0404,0.795119 0.12129,1.199414 0.0809,0.404298 0.23584,0.745704 0.46494,1.024219 0.2291,0.278515 0.54805,0.417773 0.95684,0.417773 z"
           style="font-size:13.80000019000000000px;font-style:normal;font-variant:normal;font-weight:normal;font-stretch:normal;text-align:start;text-anchor:start;fill:#ffffff;font-family:cmr10;-inkscape-font-specification:cmr10;stroke:none"
           id="path4048" />
        <path
           d="m 273.97733,21.635342 0,-0.485157 c 1.15,1e-6 1.725,-0.145995 1.725,-0.437988 l 0,-7.243652 c -0.47617,0.229109 -1.07813,0.34366 -1.80586,0.343652 l 0,-0.485156 c 1.12754,8e-6 1.97881,-0.29423 2.55381,-0.882715 l 0.19541,0 c 0.0314,9e-6 0.0618,0.01236 0.091,0.03706 0.0292,0.02472 0.0438,0.05279 0.0438,0.08423 l 0,8.146582 c -1e-5,0.291993 0.57499,0.437989 1.725,0.437988 l 0,0.485157 z"
           style="font-size:13.80000019000000000px;font-style:normal;font-variant:normal;font-weight:normal;font-stretch:normal;text-align:start;text-anchor:start;fill:#ffffff;font-family:cmr10;-inkscape-font-specification:cmr10;stroke:none"
           id="path4050" />
      </g>
      <g
         style="font-size:13.80000019000000000px;font-style:normal;font-variant:normal;font-weight:normal;font-stretch:normal;text-align:start;text-anchor:start;fill:#ffffff;font-family:cmr10;-inkscape-font-specification:cmr10;stroke:none"
         id="text4535" />
      <g
         style="font-size:13.80000019000000000px;font-style:normal;font-variant:normal;font-weight:normal;font-stretch:normal;text-align:start;text-anchor:start;fill:#ffffff;font-family:cmr10;-inkscape-font-specification:cmr10;stroke:none"
         id="text4537">
        <path
           d="m 284.52159,21.635342 0,-0.485157 c 0.31445,1e-6 0.57275,-0.02471 0.7749,-0.07412 0.20215,-0.04941 0.30322,-0.170702 0.30322,-0.363867 l 0,-7.243652 c 0,-0.247062 -0.0371,-0.425627 -0.11118,-0.535694 -0.0741,-0.110049 -0.18081,-0.177432 -0.32007,-0.202148 -0.13926,-0.0247 -0.35488,-0.03705 -0.64687,-0.03706 l 0,-0.485156 2.04844,-0.148242 0,8.651953 c -10e-6,0.193165 0.10107,0.314454 0.30322,0.363867 0.20214,0.04941 0.4582,0.07412 0.76816,0.07412 l 0,0.485157 z"
           style="font-size:13.80000019000000000px;font-style:normal;font-variant:normal;font-weight:normal;font-stretch:normal;text-align:start;text-anchor:start;fill:#ffffff;font-family:cmr10;-inkscape-font-specification:cmr10;stroke:none"
           id="path4054" />
        <path
           d="m 291.37442,21.790322 c -0.55254,0 -1.06465,-0.140381 -1.53633,-0.421142 -0.47168,-0.280762 -0.84453,-0.656982 -1.11855,-1.128663 -0.27403,-0.471677 -0.41104,-0.986032 -0.41104,-1.543066 0,-0.422262 0.0753,-0.828805 0.22573,-1.219629 0.15049,-0.390816 0.36612,-0.740083 0.64688,-1.047803 0.28076,-0.307709 0.60757,-0.548041 0.98042,-0.720996 0.37285,-0.172943 0.77714,-0.259417 1.21289,-0.259424 0.56601,7e-6 1.08149,0.149372 1.54644,0.448096 0.46493,0.298736 0.83217,0.69854 1.1017,1.199414 0.26953,0.500883 0.4043,1.03433 0.4043,1.600342 0,0.552541 -0.13702,1.065773 -0.41103,1.539697 -0.27403,0.473927 -0.64576,0.85127 -1.11519,1.132032 -0.46944,0.280761 -0.97818,0.421142 -1.52622,0.421142 z m 0,-0.404297 c 0.73671,0 1.22861,-0.267284 1.47568,-0.801855 0.24707,-0.534569 0.3706,-1.215135 0.37061,-2.041699 -10e-6,-0.462692 -0.0247,-0.845651 -0.0741,-1.148877 -0.0494,-0.303219 -0.15723,-0.578365 -0.32344,-0.82544 -0.10332,-0.152729 -0.23472,-0.286372 -0.39419,-0.400928 -0.15948,-0.114545 -0.32793,-0.202142 -0.50537,-0.262793 -0.17745,-0.06064 -0.3605,-0.09096 -0.54917,-0.09097 -0.2875,5e-6 -0.5604,0.06514 -0.8187,0.19541 -0.2583,0.130279 -0.47281,0.316704 -0.64351,0.559277 -0.1707,0.260552 -0.27964,0.546928 -0.3268,0.859131 -0.0472,0.312211 -0.0708,0.683939 -0.0708,1.115186 0,0.516604 0.0449,0.980422 0.13477,1.391455 0.0898,0.411036 0.27065,0.755811 0.54243,1.034326 0.27178,0.278516 0.66597,0.417773 1.18257,0.417773 z"
           style="font-size:13.80000019000000000px;font-style:normal;font-variant:normal;font-weight:normal;font-stretch:normal;text-align:start;text-anchor:start;fill:#ffffff;font-family:cmr10;-inkscape-font-specification:cmr10;stroke:none"
           id="path4056" />
        <path
           d="m 295.2085,22.713467 c 0,-0.327931 0.11904,-0.614307 0.35713,-0.859131 0.23809,-0.244824 0.52109,-0.418897 0.84902,-0.522217 -0.18418,-0.139257 -0.32456,-0.314453 -0.42114,-0.525586 -0.0966,-0.211132 -0.14487,-0.435741 -0.14487,-0.673828 0,-0.431248 0.13701,-0.813084 0.41103,-1.145508 -0.42226,-0.413278 -0.6334,-0.887203 -0.63339,-1.421777 -1e-5,-0.287496 0.0618,-0.557027 0.1853,-0.808594 0.12353,-0.251557 0.29536,-0.469428 0.51548,-0.653613 0.22011,-0.184174 0.46494,-0.324555 0.73447,-0.421143 0.26953,-0.09658 0.5458,-0.144867 0.82881,-0.144873 0.54804,6e-6 1.03994,0.159479 1.47568,0.478418 0.18867,-0.202143 0.41215,-0.358246 0.67046,-0.468311 0.2583,-0.110052 0.5267,-0.165081 0.80523,-0.165087 0.19765,6e-6 0.35936,0.07076 0.48515,0.212255 0.12578,0.14151 0.18867,0.31109 0.18867,0.508741 0,0.11231 -0.0427,0.211138 -0.12802,0.296484 -0.0854,0.08536 -0.18419,0.128032 -0.29649,0.128027 -0.1168,5e-6 -0.21788,-0.04267 -0.30322,-0.128027 -0.0854,-0.08535 -0.12803,-0.184174 -0.12803,-0.296484 0,-0.170698 0.0562,-0.289741 0.16846,-0.357129 -0.47618,6e-6 -0.88497,0.16397 -1.22637,0.491894 0.16621,0.166216 0.29985,0.369488 0.40093,0.609815 0.10107,0.240336 0.15161,0.479545 0.15161,0.717627 0,0.390824 -0.10782,0.742337 -0.32344,1.054541 -0.21563,0.312209 -0.49976,0.554787 -0.85239,0.727734 -0.35264,0.172951 -0.71538,0.259426 -1.08823,0.259424 -0.50313,2e-6 -0.96358,-0.13701 -1.38135,-0.411035 -0.13027,0.17969 -0.19541,0.381838 -0.19541,0.606445 0,0.24258 0.0797,0.454835 0.23921,0.636768 0.15947,0.181934 0.3605,0.272901 0.60308,0.2729 l 1.13203,0 c 0.54804,1e-6 1.04218,0.04941 1.48242,0.148242 0.44023,0.09883 0.80971,0.296485 1.10845,0.592969 0.29872,0.296484 0.44808,0.716503 0.44809,1.260059 -1e-5,0.404295 -0.17071,0.740086 -0.51211,1.007373 -0.34141,0.267283 -0.74908,0.460446 -1.223,0.579492 -0.47393,0.11904 -0.91304,0.178562 -1.31733,0.178564 -0.40879,-2e-6 -0.85127,-0.05952 -1.32744,-0.178564 -0.47617,-0.119046 -0.88496,-0.312209 -1.22637,-0.579492 -0.34141,-0.267287 -0.51211,-0.603078 -0.51211,-1.007373 z m 0.7749,0 c 0,0.309959 0.12578,0.569383 0.37735,0.778271 0.25156,0.208885 0.55478,0.363865 0.90967,0.464942 0.35488,0.101071 0.68954,0.151608 1.004,0.151611 0.30996,-3e-6 0.64238,-0.05054 0.99727,-0.151611 0.35487,-0.101077 0.65697,-0.256057 0.90629,-0.464942 0.24932,-0.208888 0.37397,-0.468312 0.37398,-0.778271 -1e-5,-0.480665 -0.22012,-0.791749 -0.66035,-0.933252 -0.44024,-0.141504 -0.97481,-0.212256 -1.60371,-0.212256 l -1.13203,0 c -0.21114,0 -0.40543,0.05054 -0.58287,0.151611 -0.17744,0.101074 -0.32007,0.242578 -0.42788,0.424512 -0.10781,0.181933 -0.16172,0.371728 -0.16172,0.569385 z m 1.90694,-3.476954 c 0.78163,3e-6 1.17245,-0.557028 1.17246,-1.671093 -10e-6,-0.48066 -0.0831,-0.877095 -0.24932,-1.189307 -0.16621,-0.312201 -0.47393,-0.468305 -0.92314,-0.46831 -0.44922,5e-6 -0.75694,0.156109 -0.92315,0.46831 -0.16621,0.312212 -0.24931,0.708647 -0.24931,1.189307 0,0.305472 0.0314,0.581741 0.0943,0.828808 0.0629,0.247074 0.17969,0.449222 0.35039,0.606446 0.1707,0.157229 0.41328,0.235842 0.72774,0.235839 z"
           style="font-size:13.80000019000000000px;font-style:normal;font-variant:normal;font-weight:normal;font-stretch:normal;text-align:start;text-anchor:start;fill:#ffffff;font-family:cmr10;-inkscape-font-specification:cmr10;stroke:none"
           id="path4058" />
      </g>
      <g
         style="font-size:29.94155693000000100px;font-style:normal;font-variant:normal;font-weight:normal;font-stretch:normal;text-align:start;text-anchor:start;fill:#ffffff;font-family:cmr10;-inkscape-font-specification:cmr10;stroke:none"
         id="text4539">
        <path
           d="m 311.3895,30.559329 c -1.11112,-0.8772 -2.06872,-1.883536 -2.87281,-3.019009 -0.8041,-1.135483 -1.46199,-2.346496 -1.97368,-3.633046 -0.51171,-1.28655 -0.89426,-2.63158 -1.14767,-4.035092 -0.25341,-1.403506 -0.38012,-2.811888 -0.38011,-4.225152 -10e-6,-1.432741 0.1267,-2.85087 0.38011,-4.254391 0.25341,-1.4034971 0.64084,-2.7534 1.16229,-4.0497123 0.52143,-1.2962808 1.18664,-2.5097314 1.99561,-3.6403553 0.80896,-1.1305851 1.75438,-2.1198641 2.83626,-2.96783991 -10e-6,-0.038964 0.0487,-0.0584572 0.1462,-0.0584796 l 0.27778,0 c 0.0585,2.245e-5 0.11208,0.0268256 0.16082,0.0804095 0.0487,0.0536286 0.0731,0.11454482 0.0731,0.18274876 -10e-6,0.0877415 -0.0195,0.1510944 -0.0585,0.1900587 -0.97467,0.9551879 -1.78607,1.97858 -2.43422,3.0701792 -0.64815,1.0916371 -1.16959,2.2539181 -1.56432,3.4868463 -0.39475,1.2329592 -0.67984,2.5097627 -0.85527,3.8304137 -0.17544,1.320675 -0.26316,2.697381 -0.26316,4.130122 0,6.345038 1.69591,11.164728 5.08773,14.459082 0.0585,0.05847 0.0877,0.141319 0.0877,0.248539 -10e-6,0.04873 -0.0268,0.104768 -0.0804,0.168128 -0.0536,0.06335 -0.10479,0.09502 -0.15351,0.09503 l -0.27778,0 c -0.0975,-8e-6 -0.14621,-0.0195 -0.1462,-0.05848 z"
           style="font-size:29.94155693000000100px;font-style:normal;font-variant:normal;font-weight:normal;font-stretch:normal;text-align:start;text-anchor:start;fill:#ffffff;font-family:cmr10;-inkscape-font-specification:cmr10;stroke:none"
           id="path4061" />
      </g>
      <g
         style="font-size:13.80000019000000000px;font-style:normal;font-variant:normal;font-weight:normal;font-stretch:normal;text-align:start;text-anchor:start;fill:#ffffff;font-family:cmb10;-inkscape-font-specification:cmb10;stroke:none"
         id="text4541">
        <path
           d="m 314.0704,11.475291 c 0,-0.06738 0.0225,-0.141504 0.0674,-0.222363 l 5.79492,-8.7867191 c -0.39981,0.1841882 -0.86026,0.2762779 -1.38135,0.2762695 -0.67832,8.4e-6 -1.33194,-0.1662024 -1.96084,-0.4986328 0.10332,0.3908288 0.15498,0.8243245 0.15498,1.3004883 0,0.4132884 -0.0528,0.8344306 -0.15835,1.2634278 -0.10557,0.4290098 -0.28638,0.7895075 -0.54243,1.0814941 -0.25606,0.2919972 -0.59297,0.4379931 -1.01074,0.4379883 -0.70528,4.8e-6 -1.23311,-0.2785105 -1.5835,-0.8355469 -0.35039,-0.557025 -0.52558,-1.2061455 -0.52558,-1.9473633 0,-0.4716716 0.073,-0.9175208 0.21899,-1.3375488 0.146,-0.4200102 0.37734,-0.7647853 0.69404,-1.0343262 0.3167,-0.26952105 0.71538,-0.40428654 1.19605,-0.40429689 0.32792,1.035e-5 0.64462,0.13252975 0.9501,0.39755859 0.35937,0.3279393 0.76142,0.5828707 1.20615,0.7647949 0.44472,0.1819426 0.89394,0.2729094 1.34765,0.2729004 0.56601,9e-6 1.08261,-0.1370026 1.54981,-0.4110351 0.16171,-0.1078031 0.28412,-0.2010159 0.36724,-0.2796387 0.0831,-0.078604 0.18754,-0.1942773 0.31333,-0.3470215 0.12577,-0.1527243 0.21112,-0.25379838 0.25605,-0.30322265 0.0629,-0.0628803 0.15497,-0.0943256 0.27627,-0.0943359 0.11679,1.035e-5 0.21449,0.0415631 0.29312,0.12465821 0.0786,0.0831156 0.11791,0.17857448 0.11792,0.28637698 -10e-6,0.058408 -0.018,0.1325293 -0.0539,0.2223633 l -6.81914,10.3095705 c -0.0899,0.121288 -0.2044,0.181933 -0.34365,0.181934 -0.1168,-10e-7 -0.21675,-0.04155 -0.29986,-0.124659 -0.0831,-0.08311 -0.12466,-0.180811 -0.12466,-0.293115 z m 0.96358,-5.7005859 c 0.38183,5.3e-6 0.64575,-0.2436956 0.79175,-0.7311036 0.14599,-0.4873958 0.21899,-0.9871511 0.21899,-1.4992676 0,-0.2964765 -0.0281,-0.6120523 -0.0842,-0.9467285 -0.0562,-0.3346591 -0.15835,-0.6311432 -0.30659,-0.8894531 -0.14825,-0.2582912 -0.35489,-0.3874414 -0.61992,-0.3874512 -0.42227,9.8e-6 -0.6334,0.7367278 -0.6334,2.2101563 l 0,0.04043 c 0,1.4689514 0.21113,2.2034233 0.6334,2.203418 z m 6.11162,6.1183599 c -0.70528,-10e-7 -1.23311,-0.278517 -1.5835,-0.835547 -0.35039,-0.557031 -0.52559,-1.2083976 -0.52558,-1.954102 -10e-6,-0.4716772 0.073,-0.9175263 0.21899,-1.3375488 0.14599,-0.4200158 0.37734,-0.7647908 0.69404,-1.0343262 0.3167,-0.2695266 0.71538,-0.4042921 1.19605,-0.4042969 0.61093,4.8e-6 1.04892,0.2897506 1.31396,0.8692383 0.26503,0.5794956 0.39755,1.2151395 0.39756,1.9069336 -1e-5,0.4177751 -0.0528,0.8411633 -0.15835,1.270166 -0.10557,0.429004 -0.28638,0.789502 -0.54243,1.081494 -0.25606,0.291992 -0.59298,0.437988 -1.01074,0.437989 z m 0,-0.55254 c 0.37733,0 0.64013,-0.244824 0.78838,-0.734472 0.14823,-0.489648 0.22235,-0.9905261 0.22236,-1.502637 -10e-6,-0.5076146 -0.073,-1.0051239 -0.21899,-1.4925293 -0.14601,-0.4873983 -0.40992,-0.7310993 -0.79175,-0.7311035 -0.42227,4.2e-6 -0.63341,0.7367223 -0.6334,2.2101563 l 0,0.04043 c -1e-5,1.4734378 0.21113,2.2101558 0.6334,2.2101558 z"
           style="font-size:13.80000019000000000px;font-style:normal;font-variant:normal;font-weight:normal;font-stretch:normal;text-align:start;text-anchor:start;fill:#ffffff;font-family:cmb10;-inkscape-font-specification:cmb10;stroke:none"
           id="path4064" />
      </g>
      <g
         style="font-size:13.80000019000000000px;font-style:normal;font-variant:normal;font-weight:normal;font-stretch:normal;text-align:start;text-anchor:start;fill:#ffffff;font-family:cmr10;-inkscape-font-specification:cmr10;stroke:none"
         id="text4543">
        <path
           d="m 324.90822,11.118162 0,-0.485156 c 0.94785,0 1.42177,-0.145996 1.42177,-0.437988 l 0,-7.5805669 c 0,-0.2919834 -0.47392,-0.4379793 -1.42177,-0.4379883 l 0,-0.4851562 5.0874,0 c 0.6289,9.4e-6 1.2039,0.1358979 1.725,0.407666 0.52108,0.2717861 0.96581,0.6345299 1.33418,1.0882324 0.36835,0.4537184 0.65248,0.9680734 0.85239,1.5430664 0.19989,0.5750059 0.29984,1.1634818 0.29985,1.7654298 -1e-5,0.5839884 -0.10108,1.1511265 -0.30322,1.701416 -0.20216,0.5502953 -0.49303,1.0466816 -0.87261,1.4891602 -0.37959,0.4424816 -0.82881,0.7917486 -1.34765,1.0478026 -0.51886,0.256055 -1.0815,0.384082 -1.68794,0.384082 z m 2.66162,-0.923144 c -10e-6,0.197657 0.0562,0.320069 0.16845,0.367236 0.1123,0.04717 0.28975,0.07075 0.53233,0.07075 l 1.36787,0 c 0.47167,0 0.91977,-0.102197 1.34429,-0.306592 0.4245,-0.204393 0.77601,-0.488524 1.05454,-0.8523925 0.29198,-0.3863261 0.48739,-0.8186987 0.58623,-1.2971192 0.0988,-0.4784145 0.14823,-1.0388143 0.14824,-1.6812011 -1e-5,-0.6693307 -0.0494,-1.2555606 -0.14824,-1.7586915 -0.0988,-0.5031181 -0.29425,-0.9523364 -0.58623,-1.3476562 -0.27403,-0.3908122 -0.62218,-0.6906655 -1.04444,-0.8995606 -0.42227,-0.2088779 -0.87373,-0.3133211 -1.35439,-0.3133301 l -1.36787,0 c -0.16622,9e-6 -0.29537,0.00675 -0.38745,0.020215 -0.0921,0.013485 -0.16734,0.052792 -0.22574,0.1179199 -0.0584,0.065145 -0.0876,0.1650965 -0.0876,0.2998535 z"
           style="font-size:13.80000019000000000px;font-style:normal;font-variant:normal;font-weight:normal;font-stretch:normal;text-align:start;text-anchor:start;fill:#ffffff;font-family:cmr10;-inkscape-font-specification:cmr10;stroke:none"
           id="path4067" />
      </g>
      <g
         style="font-size:13.80000019000000000px;font-style:normal;font-variant:normal;font-weight:normal;font-stretch:normal;text-align:start;text-anchor:start;fill:#ffffff;font-family:cmr10;-inkscape-font-specification:cmr10;stroke:none"
         id="text4545">
        <path
           d="m 313.13028,30.95056 0,-0.485157 c 1.15,1e-6 1.725,-0.145995 1.725,-0.437988 l 0,-7.243652 c -0.47617,0.229109 -1.07813,0.34366 -1.80586,0.343652 l 0,-0.485156 c 1.12754,8e-6 1.97881,-0.29423 2.55381,-0.882715 l 0.19541,0 c 0.0314,9e-6 0.0618,0.01236 0.091,0.03706 0.0292,0.02472 0.0438,0.05279 0.0438,0.08423 l 0,8.146582 c 0,0.291993 0.575,0.437989 1.725,0.437988 l 0,0.485157 z"
           style="font-size:13.80000019000000000px;font-style:normal;font-variant:normal;font-weight:normal;font-stretch:normal;text-align:start;text-anchor:start;fill:#ffffff;font-family:cmr10;-inkscape-font-specification:cmr10;stroke:none"
           id="path4070" />
        <path
           d="m 322.20001,31.253782 c -1.12755,0 -1.89459,-0.463818 -2.30113,-1.391455 -0.40654,-0.927635 -0.60981,-2.031589 -0.60981,-3.311865 0,-0.799604 0.073,-1.552045 0.21899,-2.257324 0.146,-0.705266 0.43574,-1.30385 0.86924,-1.795752 0.4335,-0.491886 1.04106,-0.737833 1.82271,-0.737842 0.60644,9e-6 1.10282,0.148251 1.48916,0.444726 0.38632,0.296493 0.68056,0.679452 0.88271,1.148877 0.20214,0.469441 0.34028,0.972566 0.41441,1.509375 0.0741,0.536822 0.11117,1.099468 0.11118,1.68794 -10e-6,0.790629 -0.073,1.530716 -0.219,2.220264 -0.146,0.689552 -0.43238,1.275782 -0.85913,1.758691 -0.42676,0.48291 -1.03321,0.724365 -1.81933,0.724365 z m 0,-0.357129 c 0.5121,0 0.89394,-0.262792 1.1455,-0.788379 0.25156,-0.525584 0.40654,-1.107322 0.46495,-1.745214 0.0584,-0.637888 0.0876,-1.316207 0.0876,-2.034961 0,-0.691792 -0.0292,-1.329682 -0.0876,-1.913672 -0.0584,-0.583978 -0.21227,-1.112932 -0.46158,-1.586866 -0.24932,-0.473917 -0.63228,-0.710879 -1.14887,-0.710888 -0.5211,9e-6 -0.90743,0.238094 -1.15899,0.714258 -0.25156,0.476179 -0.40654,1.005134 -0.46494,1.586865 -0.0584,0.581744 -0.0876,1.218511 -0.0876,1.910303 0,0.512113 0.0124,0.995023 0.0371,1.44873 0.0247,0.453714 0.091,0.922024 0.19878,1.404932 0.10781,0.482911 0.28189,0.889454 0.52222,1.219629 0.24033,0.330176 0.55815,0.495263 0.95347,0.495263 z"
           style="font-size:13.80000019000000000px;font-style:normal;font-variant:normal;font-weight:normal;font-stretch:normal;text-align:start;text-anchor:start;fill:#ffffff;font-family:cmr10;-inkscape-font-specification:cmr10;stroke:none"
           id="path4072" />
        <path
           d="m 329.10001,31.253782 c -1.12755,0 -1.89459,-0.463818 -2.30113,-1.391455 -0.40654,-0.927635 -0.60981,-2.031589 -0.60981,-3.311865 0,-0.799604 0.073,-1.552045 0.21899,-2.257324 0.146,-0.705266 0.43574,-1.30385 0.86924,-1.795752 0.4335,-0.491886 1.04106,-0.737833 1.82271,-0.737842 0.60644,9e-6 1.10282,0.148251 1.48916,0.444726 0.38632,0.296493 0.68056,0.679452 0.88271,1.148877 0.20214,0.469441 0.34028,0.972566 0.41441,1.509375 0.0741,0.536822 0.11117,1.099468 0.11118,1.68794 -1e-5,0.790629 -0.073,1.530716 -0.219,2.220264 -0.146,0.689552 -0.43238,1.275782 -0.85913,1.758691 -0.42676,0.48291 -1.03321,0.724365 -1.81933,0.724365 z m 0,-0.357129 c 0.5121,0 0.89394,-0.262792 1.1455,-0.788379 0.25156,-0.525584 0.40654,-1.107322 0.46495,-1.745214 0.0584,-0.637888 0.0876,-1.316207 0.0876,-2.034961 0,-0.691792 -0.0292,-1.329682 -0.0876,-1.913672 -0.0584,-0.583978 -0.21227,-1.112932 -0.46158,-1.586866 -0.24932,-0.473917 -0.63228,-0.710879 -1.14887,-0.710888 -0.5211,9e-6 -0.90743,0.238094 -1.15899,0.714258 -0.25156,0.476179 -0.40654,1.005134 -0.46494,1.586865 -0.0584,0.581744 -0.0876,1.218511 -0.0876,1.910303 0,0.512113 0.0123,0.995023 0.0371,1.44873 0.0247,0.453714 0.091,0.922024 0.19878,1.404932 0.10781,0.482911 0.28189,0.889454 0.52222,1.219629 0.24033,0.330176 0.55815,0.495263 0.95347,0.495263 z"
           style="font-size:13.80000019000000000px;font-style:normal;font-variant:normal;font-weight:normal;font-stretch:normal;text-align:start;text-anchor:start;fill:#ffffff;font-family:cmr10;-inkscape-font-specification:cmr10;stroke:none"
           id="path4074" />
      </g>
      <g
         style="font-size:29.94155693000000100px;font-style:normal;font-variant:normal;font-weight:normal;font-stretch:normal;text-align:start;text-anchor:start;fill:#ffffff;font-family:cmr10;-inkscape-font-specification:cmr10;stroke:none"
         id="text4547">
        <path
           d="m 333.75029,30.617809 c -0.17544,-8e-6 -0.26316,-0.08773 -0.26315,-0.263158 -1e-5,-0.08773 0.0195,-0.15108 0.0585,-0.190059 3.4113,-3.333341 5.11695,-8.172524 5.11696,-14.517562 -10e-6,-6.3450228 -1.68617,-11.1647119 -5.05849,-14.4590816 -0.078,-0.048711 -0.11696,-0.131557 -0.11695,-0.2485383 -1e-5,-0.0682039 0.0268,-0.12912013 0.0804,-0.18274876 0.0536,-0.0535839 0.11452,-0.080387 0.18274,-0.0804095 l 0.27778,0 c 0.0585,2.245e-5 0.10721,0.0195156 0.1462,0.0584796 1.43275,1.13062691 2.6267,2.50489621 3.58188,4.12281201 0.95516,1.6179524 1.65447,3.343099 2.09795,5.1754445 0.44346,1.832373 0.6652,3.703718 0.66521,5.614042 -1e-5,1.413264 -0.11941,2.804589 -0.35819,4.173982 -0.2388,1.369399 -0.61892,2.719302 -1.14035,4.049713 -0.52145,1.330408 -1.18178,2.558479 -1.981,3.684215 -0.79922,1.125726 -1.75439,2.127189 -2.8655,3.004389 -0.039,0.03898 -0.0877,0.05847 -0.1462,0.05848 z"
           style="font-size:29.94155693000000100px;font-style:normal;font-variant:normal;font-weight:normal;font-stretch:normal;text-align:start;text-anchor:start;fill:#ffffff;font-family:cmr10;-inkscape-font-specification:cmr10;stroke:none"
           id="path4077" />
      </g>
      <g
         style="font-size:13.80000019000000000px;font-style:normal;font-variant:normal;font-weight:normal;font-stretch:normal;text-align:start;text-anchor:start;fill:#ffffff;font-family:cmb10;-inkscape-font-specification:cmb10;stroke:none"
         id="text4549">
        <path
           d="m 345.72245,18.596377 c -0.11231,-0.01347 -0.20664,-0.06064 -0.28301,-0.141504 -0.0764,-0.08086 -0.11455,-0.175192 -0.11455,-0.283008 0,-0.107809 0.0382,-0.199899 0.11455,-0.27627 0.0764,-0.07636 0.1707,-0.121285 0.28301,-0.134765 l 3.7667,0 0,-3.773438 c 0.0135,-0.116789 0.0618,-0.212248 0.14487,-0.286377 0.0831,-0.07411 0.17856,-0.111173 0.28638,-0.111181 0.0674,8e-6 0.13139,0.01798 0.19204,0.05391 0.0606,0.03594 0.11118,0.08536 0.15161,0.148242 0.0404,0.0629 0.0629,0.128035 0.0674,0.19541 l 0,3.773438 3.78018,0 c 0.1078,0.01348 0.19989,0.0584 0.27627,0.134765 0.0764,0.07637 0.11454,0.168461 0.11455,0.27627 -1e-5,0.107816 -0.0382,0.202152 -0.11455,0.283008 -0.0764,0.08086 -0.16847,0.12803 -0.27627,0.141504 l -3.78018,0 0,3.773437 c -0.0135,0.112304 -0.0607,0.20664 -0.1415,0.283008 -0.0809,0.07637 -0.17071,0.11455 -0.26953,0.114551 -0.10782,-10e-7 -0.20328,-0.03818 -0.28638,-0.114551 -0.0831,-0.07637 -0.1314,-0.170704 -0.14487,-0.283008 l 0,-3.773437 z"
           style="font-size:13.80000019000000000px;font-style:normal;font-variant:normal;font-weight:normal;font-stretch:normal;text-align:start;text-anchor:start;fill:#ffffff;font-family:cmb10;-inkscape-font-specification:cmb10;stroke:none"
           id="path4080" />
      </g>
      <g
         style="font-size:13.80000019000000000px;font-style:normal;font-variant:normal;font-weight:normal;font-stretch:normal;text-align:start;text-anchor:start;fill:#ffffff;font-family:cmr10;-inkscape-font-specification:cmr10;stroke:none"
         id="text4551">
        <path
           d="m 359.45654,21.055849 c 0.25156,0.296485 0.68955,0.444727 1.31396,0.444727 0.35039,0 0.6772,-0.119043 0.98042,-0.357129 0.30322,-0.238085 0.53794,-0.530077 0.70415,-0.875976 0.19316,-0.390819 0.3167,-0.807469 0.37061,-1.249952 0.0539,-0.442477 0.0808,-0.991646 0.0809,-1.647509 -0.15723,0.372855 -0.38297,0.678323 -0.6772,0.916406 -0.29424,0.238089 -0.63228,0.357132 -1.01411,0.357129 -0.53457,3e-6 -1.01187,-0.14487 -1.43189,-0.434619 -0.42002,-0.289743 -0.74233,-0.671578 -0.96694,-1.145508 -0.22461,-0.473921 -0.33691,-0.978169 -0.33691,-1.512744 0,-0.552533 0.12578,-1.068011 0.37734,-1.546436 0.25156,-0.47841 0.59971,-0.857999 1.04443,-1.13877 0.44473,-0.280752 0.9501,-0.421133 1.51612,-0.421142 0.55702,9e-6 1.02309,0.15162 1.39819,0.454834 0.37509,0.303231 0.66147,0.694051 0.85913,1.172461 0.19765,0.478425 0.33579,0.984919 0.41441,1.519482 0.0786,0.534576 0.11791,1.062408 0.11792,1.583496 -10e-6,0.70977 -0.13028,1.434134 -0.39083,2.173096 -0.26055,0.738967 -0.65024,1.355519 -1.16909,1.849658 -0.51885,0.494141 -1.14439,0.741211 -1.87661,0.741211 -0.54356,0 -1.004,-0.128027 -1.38135,-0.384082 -0.37734,-0.256054 -0.56601,-0.642382 -0.56601,-1.158984 0,-0.188671 0.064,-0.34702 0.19204,-0.475049 0.12803,-0.128025 0.28638,-0.192039 0.47505,-0.192041 0.18418,2e-6 0.34028,0.06402 0.46831,0.192041 0.12802,0.128029 0.19204,0.286378 0.19204,0.475049 0,0.179688 -0.0651,0.334669 -0.19541,0.464941 -0.13028,0.130274 -0.28526,0.195411 -0.46494,0.19541 z m 1.81259,-2.776171 c 0.37734,3e-6 0.68618,-0.126901 0.92652,-0.380713 0.24033,-0.253805 0.4144,-0.569381 0.52222,-0.946729 0.1078,-0.377339 0.16171,-0.752436 0.16171,-1.125293 l 0,-0.262793 0,-0.05391 c 0,-0.69179 -0.10108,-1.309465 -0.30322,-1.853027 -0.20215,-0.543547 -0.58848,-0.815324 -1.15898,-0.815333 -0.36387,9e-6 -0.65923,0.07975 -0.88609,0.239209 -0.22686,0.159482 -0.39419,0.371737 -0.502,0.636768 -0.10781,0.265047 -0.17632,0.548054 -0.20552,0.849024 -0.0292,0.300983 -0.0438,0.628912 -0.0438,0.983789 0,0.521099 0.0247,0.965825 0.0741,1.334179 0.0494,0.368364 0.18417,0.692924 0.40429,0.973682 0.22012,0.280765 0.55703,0.421146 1.01074,0.421143 z"
           style="font-size:13.80000019000000000px;font-style:normal;font-variant:normal;font-weight:normal;font-stretch:normal;text-align:start;text-anchor:start;fill:#ffffff;font-family:cmr10;-inkscape-font-specification:cmr10;stroke:none"
           id="path4083" />
        <path
           d="m 368.24999,21.938564 c -1.12754,0 -1.89458,-0.463818 -2.30112,-1.391455 -0.40654,-0.927635 -0.60981,-2.031588 -0.60981,-3.311865 0,-0.799604 0.073,-1.552045 0.21899,-2.257324 0.146,-0.705266 0.43574,-1.30385 0.86924,-1.795752 0.43349,-0.491886 1.04106,-0.737833 1.8227,-0.737842 0.60645,9e-6 1.10283,0.148251 1.48916,0.444726 0.38633,0.296493 0.68057,0.679452 0.88272,1.148877 0.20214,0.469441 0.34028,0.972566 0.4144,1.509375 0.0741,0.536822 0.11118,1.099468 0.11119,1.68794 -1e-5,0.790629 -0.073,1.530716 -0.219,2.220264 -0.146,0.689552 -0.43238,1.275782 -0.85913,1.758691 -0.42676,0.48291 -1.03321,0.724365 -1.81934,0.724365 z m 0,-0.357129 c 0.51211,0 0.89395,-0.262792 1.14551,-0.788379 0.25156,-0.525584 0.40654,-1.107322 0.46494,-1.745214 0.0584,-0.637888 0.0876,-1.316207 0.0876,-2.034961 0,-0.691792 -0.0292,-1.329682 -0.0876,-1.913672 -0.0584,-0.583978 -0.21226,-1.112932 -0.46157,-1.586866 -0.24932,-0.473917 -0.63228,-0.710879 -1.14888,-0.710888 -0.52109,9e-6 -0.90742,0.238094 -1.15898,0.714258 -0.25156,0.476179 -0.40655,1.005134 -0.46494,1.586865 -0.0584,0.581744 -0.0876,1.218511 -0.0876,1.910303 0,0.512113 0.0123,0.995023 0.0371,1.44873 0.0247,0.453714 0.091,0.922024 0.19878,1.404932 0.10781,0.482911 0.28188,0.889454 0.52222,1.219629 0.24033,0.330176 0.55815,0.495263 0.95346,0.495263 z"
           style="font-size:13.80000019000000000px;font-style:normal;font-variant:normal;font-weight:normal;font-stretch:normal;text-align:start;text-anchor:start;fill:#ffffff;font-family:cmr10;-inkscape-font-specification:cmr10;stroke:none"
           id="path4085" />
      </g>
      <g
         style="font-size:13.80000019000000000px;font-style:normal;font-variant:normal;font-weight:normal;font-stretch:normal;text-align:start;text-anchor:start;fill:#ffffff;font-family:cmr10;-inkscape-font-specification:cmr10;stroke:none"
         id="text4553">
        <path
           d="m 376.56915,21.790322 c -0.54355,0 -1.03994,-0.147119 -1.48916,-0.441357 -0.44922,-0.294238 -0.79848,-0.681689 -1.0478,-1.162354 -0.24932,-0.480662 -0.37398,-0.990525 -0.37397,-1.52959 -10e-6,-0.557027 0.13588,-1.074752 0.40766,-1.553174 0.27178,-0.478413 0.64126,-0.859125 1.10845,-1.142138 0.46718,-0.283002 0.98154,-0.424506 1.54307,-0.424512 0.33691,6e-6 0.65585,0.07076 0.95683,0.212256 0.30097,0.14151 0.56152,0.338043 0.78164,0.5896 l 0,-2.870508 c 0,-0.247062 -0.0371,-0.425627 -0.11118,-0.535694 -0.0741,-0.110049 -0.17969,-0.177432 -0.3167,-0.202148 -0.13702,-0.0247 -0.35152,-0.03705 -0.64351,-0.03706 l 0,-0.485156 2.0417,-0.148242 0,8.321777 c 0,0.242579 0.0371,0.418898 0.11119,0.528955 0.0741,0.11006 0.17968,0.177442 0.3167,0.202149 0.137,0.02471 0.3515,0.03706 0.6435,0.03706 l 0,0.485157 -2.08213,0.15498 0,-0.869238 c -0.23809,0.274024 -0.5211,0.487402 -0.84902,0.640137 -0.32794,0.152734 -0.66036,0.229101 -0.99727,0.229101 z m -1.4083,-1.354394 c 0.15723,0.300977 0.36724,0.541309 0.63003,0.720996 0.26279,0.179687 0.54917,0.269531 0.85913,0.269531 0.38183,0 0.73222,-0.110058 1.05117,-0.330176 0.31894,-0.220116 0.55703,-0.50537 0.71426,-0.855762 l 0,-3.308496 c -0.10782,-0.202143 -0.2437,-0.382954 -0.40766,-0.542431 -0.16397,-0.159468 -0.34815,-0.28188 -0.55254,-0.367237 -0.2044,-0.08535 -0.42115,-0.128021 -0.65025,-0.128027 -0.48066,6e-6 -0.86699,0.135894 -1.15898,0.407666 -0.292,0.271782 -0.49639,0.618804 -0.61319,1.041064 -0.11679,0.42227 -0.17519,0.86475 -0.17519,1.327442 0,0.368362 0.0191,0.689553 0.0573,0.963574 0.0382,0.274025 0.12017,0.54131 0.24595,0.801856 z"
           style="font-size:13.80000019000000000px;font-style:normal;font-variant:normal;font-weight:normal;font-stretch:normal;text-align:start;text-anchor:start;fill:#ffffff;font-family:cmr10;-inkscape-font-specification:cmr10;stroke:none"
           id="path4088" />
        <path
           d="m 381.32638,21.635342 0,-0.485157 c 0.94785,1e-6 1.42177,-0.145995 1.42178,-0.437988 l 0,-7.580566 c -10e-6,-0.291984 -0.47393,-0.43798 -1.42178,-0.437989 l 0,-0.485156 5.07393,0 c 0.46718,9e-6 0.93886,0.09098 1.41503,0.2729 0.47617,0.181943 0.87036,0.451474 1.18257,0.808594 0.3122,0.357137 0.4683,0.778279 0.46831,1.263428 -1e-5,0.56153 -0.23023,1.032086 -0.69067,1.41167 -0.46046,0.379595 -0.9984,0.627788 -1.61382,0.74458 0.3998,5e-6 0.81083,0.110063 1.23311,0.330176 0.42225,0.220121 0.76815,0.514359 1.03769,0.882715 0.26952,0.368362 0.40429,0.759182 0.4043,1.172461 -1e-5,0.503127 -0.14938,0.947853 -0.4481,1.334179 -0.29874,0.386329 -0.68619,0.683936 -1.16235,0.892823 -0.47618,0.208886 -0.9546,0.31333 -1.43525,0.31333 z m 2.62119,-0.923145 c 0,0.197657 0.0562,0.320069 0.16846,0.367236 0.1123,0.04717 0.28974,0.07075 0.53232,0.07075 l 1.75196,0 c 0.35936,1e-6 0.69291,-0.09434 1.00063,-0.283007 0.30771,-0.188671 0.55141,-0.441357 0.7311,-0.758057 0.17968,-0.316697 0.26953,-0.654734 0.26953,-1.014111 0,-0.350388 -0.0741,-0.692917 -0.22236,-1.027588 -0.14825,-0.334664 -0.3605,-0.609811 -0.63677,-0.82544 -0.27627,-0.21562 -0.59185,-0.323433 -0.94672,-0.323437 l -2.64815,0 z m 0,-4.157519 2.06865,0 c 0.27851,5e-6 0.54018,-0.05053 0.78501,-0.151612 0.24482,-0.101069 0.46494,-0.247065 0.66035,-0.437988 0.19541,-0.190912 0.3459,-0.406537 0.45147,-0.646875 0.10556,-0.240326 0.15834,-0.495257 0.15835,-0.764795 -10e-6,-0.238079 -0.0393,-0.46718 -0.11792,-0.687305 -0.0786,-0.220109 -0.1943,-0.420011 -0.34702,-0.599707 -0.15274,-0.179679 -0.33243,-0.320059 -0.53906,-0.421142 -0.20665,-0.101066 -0.42901,-0.151603 -0.66709,-0.151612 l -1.75196,0 c -0.16621,9e-6 -0.29536,0.0067 -0.38745,0.02022 -0.0921,0.01349 -0.16734,0.05279 -0.22573,0.11792 -0.0584,0.06515 -0.0876,0.165097 -0.0876,0.299854 z"
           style="font-size:13.80000019000000000px;font-style:normal;font-variant:normal;font-weight:normal;font-stretch:normal;text-align:start;text-anchor:start;fill:#ffffff;font-family:cmr10;-inkscape-font-specification:cmr10;stroke:none"
           id="path4090" />
        <path
           d="m 391.08341,21.635342 0,-0.485157 c 0.82207,1e-6 1.32744,-0.271776 1.51611,-0.815332 l 2.89746,-8.42959 c 0.0269,-0.09882 0.10107,-0.148232 0.22237,-0.148242 l 0.17519,0 c 0.12129,10e-6 0.19541,0.04942 0.22237,0.148242 l 3.02548,8.806934 c 0.0854,0.193165 0.24819,0.314454 0.48853,0.363867 0.24032,0.04941 0.54018,0.07412 0.89956,0.07412 l 0,0.485157 -3.84756,0 0,-0.485157 c 0.76367,1e-6 1.1455,-0.123534 1.14551,-0.370605 l 0,-0.06738 -0.74795,-2.15625 -3.34893,0 -0.61992,1.778906 c -0.009,0.03145 -0.0135,0.07862 -0.0135,0.141504 -1e-5,0.229103 0.10893,0.398683 0.3268,0.50874 0.21787,0.11006 0.45259,0.165089 0.70415,0.165088 l 0,0.485157 z m 2.80986,-3.557813 3.02549,0 -1.51611,-4.406836 z"
           style="font-size:13.80000019000000000px;font-style:normal;font-variant:normal;font-weight:normal;font-stretch:normal;text-align:start;text-anchor:start;fill:#ffffff;font-family:cmr10;-inkscape-font-specification:cmr10;stroke:none"
           id="path4092" />
      </g>
      <g
         style="font-size:13.80000019000000000px;font-style:normal;font-variant:normal;font-weight:normal;font-stretch:normal;text-align:start;text-anchor:start;fill:#ffffff;font-family:cmr10;-inkscape-font-specification:cmr10;stroke:none"
         id="text4555" />
    </g>
    <g
       transform="scale(2.3325222,0.42872047)"
       style="font-size:38.11245345999999800px;font-style:normal;font-variant:normal;font-weight:normal;font-stretch:normal;text-align:center;line-height:125%;letter-spacing:0px;word-spacing:0px;text-anchor:middle;fill:#ffffff;fill-opacity:1;font-family:cmr10;-inkscape-font-specification:cmr10"
       id="text3313">
      <path
         d="m 134.6432,52.137633 0,-2.363419 10.08641,0 0,2.363419 z"
         style="fill:#ffffff"
         id="path3318" />
    </g>
  </g>
</svg>
