<?xml version="1.0" encoding="utf-8"?>
<!-- Generator: Adobe Illustrator 16.0.0, SVG Export Plug-In . SVG Version: 6.00 Build 0)  -->
<!DOCTYPE svg PUBLIC "-//W3C//DTD SVG 1.1//EN" "http://www.w3.org/Graphics/SVG/1.1/DTD/svg11.dtd">
<svg version="1.1"
	 id="svg3020" xmlns:dc="http://purl.org/dc/elements/1.1/" xmlns:cc="http://creativecommons.org/ns#" xmlns:rdf="http://www.w3.org/1999/02/22-rdf-syntax-ns#" xmlns:svg="http://www.w3.org/2000/svg" xmlns:inkscape="http://www.inkscape.org/namespaces/inkscape"
	 xmlns="http://www.w3.org/2000/svg" xmlns:xlink="http://www.w3.org/1999/xlink" x="0px" y="0px" width="320px" height="60px"
	 viewBox="0 0 320 60" enable-background="new 0 0 320 60" xml:space="preserve">
<g id="text3030" transform="scale(0.95814898,1.043679)">
</g>
<g id="g3009" transform="matrix(1.4688253,0,0,1.4688253,-277.70507,-0.75165246)">
	<g id="flowRoot3055" transform="matrix(0.68081616,0,0,0.68081616,189.0661,0.51173714)">
	</g>
	<g id="flowRoot3063" transform="matrix(0.68081616,0,0,0.68081616,189.0661,0.51173714)">
	</g>
	<g id="g3326" transform="matrix(1.3289339,0,0,1.3289339,-86.780827,8.5616411)">
		<g id="text3328">
			<path id="path43" inkscape:connector-curvature="0" d="M230.601,13.046v-0.485c0.948,0,1.422-0.146,1.422-0.438v-7.58
				c0-0.292-0.474-0.438-1.422-0.438V3.619h7.607l0.384,3.16h-0.398c-0.063-0.58-0.148-1.035-0.256-1.368
				c-0.103-0.337-0.256-0.6-0.458-0.788c-0.202-0.193-0.474-0.328-0.815-0.404c-0.337-0.076-0.802-0.115-1.395-0.115h-1.26
				c-0.166,0-0.296,0.007-0.391,0.02c-0.09,0.014-0.164,0.054-0.222,0.121c-0.058,0.063-0.088,0.162-0.088,0.296v3.551h0.977
				c0.472,0,0.817-0.041,1.038-0.121c0.22-0.085,0.371-0.238,0.452-0.458c0.085-0.22,0.128-0.566,0.128-1.038h0.397v3.712h-0.397
				c0-0.471-0.043-0.817-0.128-1.037c-0.081-0.22-0.231-0.37-0.452-0.452c-0.22-0.085-0.566-0.128-1.038-0.128h-0.977v3.551
				c0,0.292,0.588,0.438,1.765,0.438v0.485H230.601z"/>
			<path id="path45" inkscape:connector-curvature="0" d="M241.51,13.046v-0.485c0.463,0,0.912-0.025,1.348-0.074
				c0.436-0.054,0.654-0.176,0.654-0.364v-7.58c0-0.198-0.056-0.319-0.169-0.364c-0.108-0.049-0.285-0.074-0.532-0.074h-0.579
				c-0.759,0-1.298,0.166-1.617,0.499c-0.166,0.166-0.285,0.434-0.357,0.802c-0.072,0.364-0.133,0.822-0.182,1.375h-0.398
				l0.263-3.16h8.43l0.263,3.16h-0.404c-0.054-0.593-0.115-1.062-0.182-1.408c-0.063-0.35-0.18-0.606-0.35-0.768
				c-0.323-0.332-0.863-0.499-1.617-0.499h-0.58c-0.166,0-0.296,0.007-0.391,0.02c-0.09,0.014-0.164,0.054-0.222,0.121
				c-0.059,0.063-0.088,0.162-0.088,0.296v7.58c0,0.189,0.218,0.31,0.654,0.364c0.436,0.049,0.883,0.074,1.341,0.074v0.485H241.51z"
				/>
			<path id="path47" inkscape:connector-curvature="0" d="M249.609,13.046v-0.485c0.948,0,1.422-0.146,1.422-0.438v-7.58
				c0-0.292-0.474-0.438-1.422-0.438V3.619h4.912c0.503,0,1.006,0.103,1.509,0.31c0.503,0.207,0.916,0.508,1.24,0.903
				c0.328,0.395,0.492,0.856,0.492,1.381c0,0.512-0.164,0.961-0.492,1.348c-0.328,0.386-0.741,0.68-1.24,0.883
				c-0.499,0.198-1.002,0.296-1.509,0.296h-2.21v3.383c0,0.292,0.474,0.438,1.422,0.438v0.485H249.609z M252.271,8.329h1.873
				c0.508,0,0.919-0.072,1.233-0.216c0.314-0.148,0.544-0.375,0.687-0.681c0.148-0.31,0.222-0.716,0.222-1.22
				c0-0.75-0.166-1.289-0.499-1.617c-0.328-0.328-0.876-0.492-1.644-0.492h-1.172c-0.166,0-0.297,0.007-0.391,0.02
				c-0.09,0.014-0.164,0.054-0.222,0.121c-0.058,0.063-0.088,0.162-0.088,0.296V8.329z"/>
		</g>
		<g id="text3330">
			<path id="path50" inkscape:connector-curvature="0" d="M262.566,8.154V7.258h8.302v0.896H262.566z M262.566,10.95v-0.896h8.302
				v0.896H262.566z M271.151,9.104L271.151,9.104z"/>
		</g>
		<g id="text3332">
			<path id="path53" inkscape:connector-curvature="0" d="M278.931,13.046v-0.485c0.463,0,0.912-0.025,1.348-0.074
				c0.436-0.054,0.654-0.176,0.654-0.364v-7.58c0-0.198-0.056-0.319-0.168-0.364c-0.108-0.049-0.285-0.074-0.532-0.074h-0.58
				c-0.759,0-1.298,0.166-1.617,0.499c-0.166,0.166-0.285,0.434-0.357,0.802c-0.072,0.364-0.133,0.822-0.182,1.375h-0.397
				l0.263-3.16h8.43l0.263,3.16h-0.404c-0.054-0.593-0.115-1.062-0.182-1.408c-0.063-0.35-0.18-0.606-0.35-0.768
				c-0.323-0.332-0.863-0.499-1.617-0.499h-0.579c-0.166,0-0.297,0.007-0.391,0.02c-0.09,0.014-0.164,0.054-0.222,0.121
				c-0.058,0.063-0.088,0.162-0.088,0.296v7.58c0,0.189,0.218,0.31,0.654,0.364c0.436,0.049,0.883,0.074,1.341,0.074v0.485H278.931z
				"/>
			<path id="path55" inkscape:connector-curvature="0" d="M287.031,13.046v-0.485c0.948,0,1.422-0.146,1.422-0.438v-7.58
				c0-0.292-0.474-0.438-1.422-0.438V3.619h4.912c0.503,0,1.007,0.103,1.51,0.31c0.503,0.207,0.916,0.508,1.24,0.903
				c0.328,0.395,0.492,0.856,0.492,1.381c0,0.512-0.164,0.961-0.492,1.348c-0.328,0.386-0.741,0.68-1.24,0.883
				c-0.499,0.198-1.002,0.296-1.51,0.296h-2.21v3.383c0,0.292,0.474,0.438,1.422,0.438v0.485H287.031z M289.693,8.329h1.873
				c0.508,0,0.919-0.072,1.233-0.216c0.315-0.148,0.544-0.375,0.687-0.681c0.149-0.31,0.223-0.716,0.223-1.22
				c0-0.75-0.166-1.289-0.499-1.617c-0.328-0.328-0.876-0.492-1.644-0.492h-1.173c-0.166,0-0.296,0.007-0.39,0.02
				c-0.09,0.014-0.164,0.054-0.223,0.121c-0.059,0.063-0.088,0.162-0.088,0.296V8.329z"/>
		</g>
		<g id="text3334">
			<path id="path58" inkscape:connector-curvature="0" d="M296.288,16.008c-0.402,0-0.775-0.102-1.119-0.304
				c-0.344-0.206-0.615-0.481-0.814-0.824c-0.2-0.344-0.3-0.718-0.3-1.124c0-0.308,0.054-0.604,0.162-0.889
				c0.111-0.285,0.268-0.538,0.471-0.76c0.206-0.226,0.445-0.401,0.716-0.525c0.272-0.128,0.566-0.191,0.884-0.191
				c0.412,0,0.786,0.11,1.124,0.329c0.34,0.216,0.608,0.507,0.804,0.874c0.196,0.363,0.295,0.751,0.295,1.163
				c0,0.402-0.1,0.776-0.3,1.124c-0.199,0.343-0.471,0.618-0.814,0.824C297.057,15.906,296.688,16.008,296.288,16.008z
				 M296.288,15.713c0.536,0,0.895-0.195,1.075-0.584c0.18-0.389,0.27-0.885,0.27-1.487c0-0.337-0.018-0.615-0.054-0.835
				c-0.036-0.222-0.115-0.423-0.236-0.603c-0.075-0.111-0.172-0.208-0.289-0.29c-0.115-0.085-0.237-0.149-0.368-0.192
				c-0.128-0.046-0.26-0.068-0.397-0.068c-0.21,0-0.409,0.047-0.599,0.142c-0.187,0.095-0.342,0.231-0.466,0.407
				c-0.125,0.19-0.205,0.399-0.241,0.628c-0.033,0.225-0.049,0.495-0.049,0.809c0,0.376,0.033,0.714,0.098,1.016
				c0.066,0.298,0.196,0.548,0.393,0.751C295.624,15.612,295.912,15.713,296.288,15.713z"/>
			<path id="path60" inkscape:connector-curvature="0" d="M299.886,14.697v-2.218c0-0.18-0.028-0.309-0.084-0.388
				c-0.052-0.082-0.129-0.131-0.23-0.147c-0.102-0.02-0.259-0.03-0.471-0.03v-0.353l1.521-0.108v3.244
				c0,0.262,0.018,0.466,0.054,0.613c0.039,0.144,0.12,0.252,0.241,0.324c0.125,0.072,0.321,0.108,0.589,0.108
				c0.36,0,0.646-0.151,0.859-0.451c0.213-0.301,0.319-0.643,0.319-1.026v-1.787c0-0.18-0.028-0.309-0.083-0.388
				c-0.056-0.082-0.134-0.131-0.236-0.147c-0.098-0.02-0.253-0.03-0.466-0.03v-0.353l1.516-0.108v3.529
				c0,0.177,0.026,0.306,0.078,0.387c0.056,0.079,0.134,0.128,0.236,0.148c0.101,0.017,0.258,0.025,0.471,0.025v0.353l-1.487,0.113
				v-0.849c-0.125,0.252-0.298,0.456-0.52,0.613c-0.223,0.157-0.468,0.236-0.736,0.236c-0.481,0-0.864-0.102-1.148-0.304
				C300.026,15.497,299.886,15.162,299.886,14.697z"/>
			<path id="path62" inkscape:connector-curvature="0" d="M305.401,14.687v-2.773h-0.834v-0.26c0.438,0,0.76-0.205,0.967-0.614
				c0.206-0.409,0.309-0.852,0.309-1.33h0.29v1.85h1.418v0.353h-1.418v2.753c0,0.278,0.046,0.522,0.137,0.731
				c0.095,0.209,0.264,0.314,0.505,0.314c0.229,0,0.394-0.11,0.496-0.329c0.101-0.223,0.152-0.461,0.152-0.716v-0.594h0.289v0.613
				c0,0.21-0.039,0.417-0.118,0.623c-0.075,0.203-0.188,0.37-0.338,0.501c-0.151,0.131-0.334,0.196-0.549,0.196
				c-0.403,0-0.721-0.12-0.958-0.358C305.517,15.407,305.401,15.087,305.401,14.687z"/>
		</g>
		<g id="text3336">
			<path id="path65" inkscape:connector-curvature="0" d="M314.481,10.492V9.636h3.652v0.856H314.481z"/>
		</g>
		<g id="text3338">
			<path id="path68" inkscape:connector-curvature="0" d="M328.131,13.046v-0.485c0.463,0,0.912-0.025,1.348-0.074
				c0.436-0.054,0.653-0.176,0.653-0.364v-7.58c0-0.198-0.056-0.319-0.168-0.364c-0.108-0.049-0.285-0.074-0.532-0.074h-0.579
				c-0.759,0-1.299,0.166-1.617,0.499c-0.166,0.166-0.285,0.434-0.357,0.802c-0.072,0.364-0.133,0.822-0.182,1.375h-0.398
				l0.263-3.16h8.43l0.262,3.16h-0.404c-0.054-0.593-0.114-1.062-0.182-1.408c-0.063-0.35-0.18-0.606-0.351-0.768
				c-0.323-0.332-0.863-0.499-1.617-0.499h-0.579c-0.166,0-0.297,0.007-0.391,0.02c-0.09,0.014-0.164,0.054-0.222,0.121
				c-0.058,0.063-0.088,0.162-0.088,0.296v7.58c0,0.189,0.218,0.31,0.654,0.364c0.435,0.049,0.883,0.074,1.341,0.074v0.485H328.131z
				"/>
			<path id="path70" inkscape:connector-curvature="0" d="M336.231,13.046v-0.485c0.948,0,1.422-0.146,1.422-0.438v-7.58
				c0-0.292-0.474-0.438-1.422-0.438V3.619h4.912c0.503,0,1.007,0.103,1.509,0.31c0.503,0.207,0.917,0.508,1.24,0.903
				c0.328,0.395,0.491,0.856,0.491,1.381c0,0.512-0.164,0.961-0.491,1.348c-0.328,0.386-0.741,0.68-1.24,0.883
				c-0.499,0.198-1.002,0.296-1.509,0.296h-2.21v3.383c0,0.292,0.474,0.438,1.422,0.438v0.485H336.231z M338.893,8.329h1.873
				c0.507,0,0.919-0.072,1.233-0.216c0.314-0.148,0.543-0.375,0.687-0.681c0.149-0.31,0.223-0.716,0.223-1.22
				c0-0.75-0.167-1.289-0.499-1.617c-0.328-0.328-0.876-0.492-1.644-0.492h-1.173c-0.166,0-0.296,0.007-0.391,0.02
				c-0.09,0.014-0.164,0.054-0.222,0.121c-0.059,0.063-0.088,0.162-0.088,0.296V8.329z"/>
		</g>
		<g id="text3340">
			<path id="path73" inkscape:connector-curvature="0" d="M344.223,15.895v-0.353c0.229,0,0.417-0.018,0.564-0.054
				c0.147-0.036,0.221-0.124,0.221-0.265v-2.743c0-0.259-0.051-0.417-0.152-0.476c-0.099-0.059-0.295-0.089-0.589-0.089v-0.353
				l1.448-0.108v3.769c0,0.141,0.064,0.229,0.191,0.265c0.128,0.036,0.298,0.054,0.51,0.054v0.353H344.223z M344.65,9.726
				c0-0.147,0.055-0.276,0.167-0.387c0.111-0.111,0.239-0.167,0.383-0.167c0.095,0,0.186,0.025,0.275,0.074
				c0.089,0.049,0.157,0.118,0.206,0.206c0.05,0.089,0.074,0.18,0.074,0.275c0,0.144-0.056,0.272-0.167,0.383
				c-0.112,0.111-0.241,0.167-0.388,0.167c-0.144,0-0.271-0.056-0.383-0.167C344.705,9.998,344.65,9.87,344.65,9.726z"/>
			<path id="path75" inkscape:connector-curvature="0" d="M347,15.895v-0.353c0.229,0,0.417-0.018,0.564-0.054
				c0.147-0.036,0.221-0.124,0.221-0.265v-2.743c0-0.18-0.028-0.309-0.084-0.388c-0.052-0.082-0.129-0.131-0.23-0.147
				c-0.102-0.02-0.259-0.03-0.471-0.03v-0.353l1.457-0.108v0.982c0.134-0.288,0.332-0.524,0.594-0.707
				c0.265-0.183,0.553-0.275,0.864-0.275c0.464,0,0.813,0.112,1.046,0.334c0.235,0.223,0.353,0.563,0.353,1.021v2.414
				c0,0.141,0.073,0.229,0.221,0.265c0.147,0.036,0.335,0.054,0.564,0.054v0.353h-2.302v-0.353c0.229,0,0.417-0.018,0.564-0.054
				c0.148-0.036,0.221-0.124,0.221-0.265v-2.385c0-0.327-0.047-0.595-0.142-0.805c-0.095-0.212-0.29-0.319-0.584-0.319
				c-0.389,0-0.709,0.156-0.962,0.466c-0.249,0.311-0.373,0.664-0.373,1.06v1.982c0,0.141,0.074,0.229,0.221,0.265
				c0.147,0.036,0.334,0.054,0.559,0.054v0.353H347z"/>
		</g>
		<g id="text3342">
		</g>
	</g>
</g>
</svg>
