<?xml version="1.0" encoding="UTF-8" standalone="no"?>
<!-- Created with Inkscape (http://www.inkscape.org/) -->

<svg
   xmlns:dc="http://purl.org/dc/elements/1.1/"
   xmlns:cc="http://creativecommons.org/ns#"
   xmlns:rdf="http://www.w3.org/1999/02/22-rdf-syntax-ns#"
   xmlns:svg="http://www.w3.org/2000/svg"
   xmlns="http://www.w3.org/2000/svg"
   xmlns:sodipodi="http://sodipodi.sourceforge.net/DTD/sodipodi-0.dtd"
   xmlns:inkscape="http://www.inkscape.org/namespaces/inkscape"
   version="1.2"
   width="320"
   height="60"
   id="svg3020"
   inkscape:version="0.48.3.1 r9886"
   sodipodi:docname="eqn_conv_03.svg">
  <sodipodi:namedview
     pagecolor="#ffffff"
     bordercolor="#666666"
     borderopacity="1"
     objecttolerance="10"
     gridtolerance="10"
     guidetolerance="10"
     inkscape:pageopacity="0"
     inkscape:pageshadow="2"
     inkscape:window-width="640"
     inkscape:window-height="480"
     id="namedview4272"
     showgrid="false"
     inkscape:zoom="0.871875"
     inkscape:cx="160"
     inkscape:cy="30"
     inkscape:window-x="0"
     inkscape:window-y="0"
     inkscape:window-maximized="0"
     inkscape:current-layer="svg3020" />
  <metadata
     id="metadata3026">
    <rdf:RDF>
      <cc:Work
         rdf:about="">
        <dc:format>image/svg+xml</dc:format>
        <dc:type
           rdf:resource="http://purl.org/dc/dcmitype/StillImage" />
        <dc:title />
      </cc:Work>
    </rdf:RDF>
  </metadata>
  <defs
     id="defs3024" />
  <text
     x="44.56657"
     y="42.23513"
     transform="scale(0.95814898,1.043679)"
     id="text3030"
     xml:space="preserve"
     style="font-size:41.02812958px;font-style:normal;font-variant:normal;font-weight:normal;font-stretch:normal;line-height:125%;letter-spacing:0px;word-spacing:0px;fill:#000000;fill-opacity:1;stroke:none;font-family:Cambria Math;-inkscape-font-specification:Cambria Math"><tspan
       x="44.56657"
       y="42.23513"
       id="tspan3032" /></text>
  <g
     id="text6486"
     style="font-size:24px;font-style:normal;font-variant:normal;font-weight:normal;font-stretch:normal;text-align:center;line-height:125%;letter-spacing:0px;word-spacing:0px;text-anchor:middle;fill:#ffffff;fill-opacity:1;stroke:none;font-family:cmr10;-inkscape-font-specification:cmr10">
    <path
       d="m 115.81183,38.179211 0,-0.84375 c 1.64843,10e-7 2.47265,-0.253905 2.47265,-0.761719 l 0,-13.183594 c 0,-0.507797 -0.82422,-0.761703 -2.47265,-0.761719 l 0,-0.84375 8.54297,0 c 0.87499,1.7e-5 1.74999,0.179704 2.625,0.539063 0.87498,0.35939 1.59569,0.882827 2.16211,1.570312 0.56639,0.687514 0.84959,1.488294 0.84961,2.402344 -2e-5,0.890636 -0.28517,1.671885 -0.85547,2.34375 -0.57033,0.671884 -1.28908,1.181649 -2.15625,1.529297 -0.8672,0.347664 -1.7422,0.521492 -2.625,0.521484 l -3.84375,0 0,5.882813 c -1e-5,0.507814 0.82421,0.76172 2.47265,0.761719 l 0,0.84375 z m 4.6289,-8.203125 3.25782,0 c 0.8828,8e-6 1.59764,-0.126945 2.14453,-0.38086 0.54686,-0.253897 0.94725,-0.648428 1.20117,-1.183593 0.25389,-0.535146 0.38085,-1.240224 0.38086,-2.115235 -1e-5,-1.304674 -0.28712,-2.242173 -0.86133,-2.8125 -0.57423,-0.570297 -1.52931,-0.855453 -2.86523,-0.855469 l -2.03907,0 c -0.28906,1.6e-5 -0.51367,0.01173 -0.67382,0.03516 -0.16017,0.02345 -0.29102,0.09181 -0.39258,0.205078 -0.10157,0.113296 -0.15235,0.287124 -0.15235,0.521484 z"
       id="path6581"
       style="fill:#ffffff;stroke:none" />
    <path
       d="m 131.94855,38.179211 0,-0.84375 c 0.54687,10e-7 0.99609,-0.04297 1.34765,-0.128907 0.35156,-0.08594 0.52734,-0.296873 0.52735,-0.632812 l 0,-6.550781 c -1e-5,-0.429679 -0.0645,-0.740226 -0.19336,-0.931641 -0.12891,-0.191397 -0.31446,-0.308584 -0.55664,-0.351562 -0.24219,-0.04296 -0.61719,-0.06444 -1.125,-0.06445 l 0,-0.84375 3.43359,-0.257812 0,2.34375 c 0.25781,-0.695304 0.625,-1.259756 1.10156,-1.693359 0.47656,-0.433584 1.05468,-0.65038 1.73438,-0.650391 0.47655,1.1e-5 0.90233,0.140635 1.27734,0.421875 0.37499,0.28126 0.56249,0.652353 0.5625,1.113281 -1e-5,0.289071 -0.10352,0.541024 -0.31054,0.75586 -0.20704,0.214851 -0.4629,0.322273 -0.76758,0.322265 -0.29688,8e-6 -0.55079,-0.10546 -0.76172,-0.316406 -0.21095,-0.210929 -0.31641,-0.464835 -0.31641,-0.761719 0,-0.429678 0.15234,-0.734365 0.45703,-0.914062 l -0.14062,0 c -0.64845,10e-6 -1.17774,0.234384 -1.58789,0.703125 -0.41016,0.468758 -0.70118,1.050789 -0.87305,1.746093 -0.17188,0.69532 -0.25782,1.359382 -0.25781,1.992188 l 0,3.9375 c -10e-6,0.507814 0.77734,0.76172 2.33203,0.761719 l 0,0.84375 z"
       id="path6583"
       style="fill:#ffffff;stroke:none" />
    <path
       d="m 146.67902,38.448742 c -0.97657,0 -1.87305,-0.255859 -2.68946,-0.767578 -0.81641,-0.511718 -1.45703,-1.195311 -1.92187,-2.050781 -0.46485,-0.855466 -0.69727,-1.759762 -0.69727,-2.712891 0,-0.937494 0.21289,-1.828118 0.63867,-2.671875 0.42578,-0.843741 1.01953,-1.525381 1.78125,-2.044922 0.76172,-0.519521 1.61133,-0.779286 2.54883,-0.779297 0.73437,1.1e-5 1.37304,0.123058 1.91602,0.369141 0.54296,0.246104 0.99022,0.5879 1.34179,1.02539 0.35156,0.437509 0.61718,0.953134 0.79688,1.546875 0.17968,0.593758 0.26952,1.246101 0.26953,1.957032 -1e-5,0.210943 -0.082,0.316411 -0.24609,0.316406 l -6.94922,0 0,0.257812 c 0,1.328129 0.26757,2.468753 0.80273,3.421875 0.53516,0.953126 1.4082,1.429688 2.61914,1.429688 0.49218,0 0.94726,-0.109375 1.36524,-0.328125 0.41796,-0.218749 0.78124,-0.523436 1.08984,-0.914063 0.30859,-0.390623 0.51757,-0.808591 0.62695,-1.253906 0.0156,-0.05468 0.0449,-0.103512 0.0879,-0.146484 0.043,-0.04297 0.0918,-0.06445 0.14648,-0.06445 l 0.21094,0 c 0.16405,3e-6 0.24608,0.101565 0.24609,0.304687 -0.22657,0.906252 -0.71485,1.650392 -1.46484,2.232422 -0.75001,0.582031 -1.58985,0.873047 -2.51953,0.873047 z m -3.1875,-6.410156 5.47265,0 c -1e-5,-0.601556 -0.084,-1.21093 -0.25195,-1.828125 -0.16798,-0.617179 -0.44727,-1.130851 -0.83789,-1.541016 -0.39063,-0.410146 -0.90235,-0.615224 -1.53516,-0.615234 -0.90625,10e-6 -1.60742,0.423837 -2.10351,1.271484 -0.4961,0.847664 -0.74415,1.75196 -0.74414,2.712891 z"
       id="path6585"
       style="fill:#ffffff;stroke:none" />
    <path
       d="m 152.13995,38.249523 0,-3.914062 c 0,-0.124996 0.0703,-0.187496 0.21094,-0.1875 l 0.29297,0 c 0.0937,4e-6 0.15625,0.0625 0.1875,0.1875 0.44531,2.320314 1.52343,3.480469 3.23437,3.480468 0.75781,1e-6 1.39258,-0.171874 1.9043,-0.515625 0.51171,-0.343748 0.76757,-0.874998 0.76758,-1.59375 -1e-5,-0.515622 -0.19923,-0.955074 -0.59766,-1.318359 -0.39844,-0.363277 -0.8711,-0.611324 -1.41797,-0.744141 l -1.60546,-0.316406 c -0.53907,-0.117182 -1.0293,-0.29687 -1.47071,-0.539062 -0.44141,-0.242182 -0.80273,-0.564448 -1.08398,-0.966797 -0.28125,-0.402337 -0.42188,-0.869134 -0.42188,-1.400391 0,-0.703116 0.18555,-1.279288 0.55664,-1.728515 0.3711,-0.449209 0.85352,-0.773428 1.44727,-0.972657 0.59375,-0.199208 1.23437,-0.298817 1.92187,-0.298828 0.82031,1.1e-5 1.53515,0.218761 2.14454,0.65625 l 0.6914,-0.597656 c -1e-5,-0.03905 0.0391,-0.05858 0.11719,-0.05859 l 0.17578,0 c 0.0469,1.1e-5 0.0898,0.0215 0.12891,0.06445 0.039,0.04298 0.0586,0.0879 0.0586,0.134766 l 0,3.140625 c -1e-5,0.148445 -0.0625,0.222663 -0.1875,0.222656 l -0.29297,0 c -0.14063,7e-6 -0.21094,-0.07421 -0.21094,-0.222656 0,-0.835929 -0.23242,-1.507804 -0.69726,-2.015625 -0.46485,-0.507803 -1.11524,-0.761709 -1.95117,-0.761719 -0.71876,10e-6 -1.3418,0.132823 -1.86914,0.398438 -0.52735,0.265634 -0.79102,0.722665 -0.79102,1.371093 0,0.445321 0.18945,0.810555 0.56836,1.095704 0.3789,0.285163 0.82226,0.490241 1.33008,0.615234 l 1.6289,0.304687 c 0.54687,0.125007 1.05664,0.335944 1.5293,0.632813 0.47265,0.29688 0.84765,0.67188 1.125,1.125 0.27734,0.453129 0.41601,0.964847 0.41602,1.535156 -10e-6,0.578128 -0.0996,1.08008 -0.29883,1.50586 -0.19923,0.425782 -0.47657,0.779297 -0.83203,1.060546 -0.35548,0.281251 -0.7754,0.488282 -1.25977,0.621094 -0.48438,0.132812 -0.99219,0.199219 -1.52344,0.199219 -1,0 -1.85547,-0.335938 -2.5664,-1.007813 l -0.87891,0.949219 c 0,0.03906 -0.043,0.05859 -0.1289,0.05859 l -0.14063,0 c -0.14062,0 -0.21094,-0.06641 -0.21094,-0.199219 z"
       id="path6587"
       style="fill:#ffffff;stroke:none" />
    <path
       d="m 161.6087,38.249523 0,-3.914062 c 0,-0.124996 0.0703,-0.187496 0.21094,-0.1875 l 0.29297,0 c 0.0937,4e-6 0.15625,0.0625 0.1875,0.1875 0.44531,2.320314 1.52343,3.480469 3.23437,3.480468 0.75781,1e-6 1.39258,-0.171874 1.9043,-0.515625 0.51171,-0.343748 0.76757,-0.874998 0.76758,-1.59375 -1e-5,-0.515622 -0.19923,-0.955074 -0.59766,-1.318359 -0.39844,-0.363277 -0.8711,-0.611324 -1.41797,-0.744141 l -1.60546,-0.316406 c -0.53907,-0.117182 -1.0293,-0.29687 -1.47071,-0.539062 -0.44141,-0.242182 -0.80273,-0.564448 -1.08398,-0.966797 -0.28125,-0.402337 -0.42188,-0.869134 -0.42188,-1.400391 0,-0.703116 0.18555,-1.279288 0.55664,-1.728515 0.3711,-0.449209 0.85352,-0.773428 1.44727,-0.972657 0.59375,-0.199208 1.23437,-0.298817 1.92187,-0.298828 0.82031,1.1e-5 1.53515,0.218761 2.14454,0.65625 l 0.6914,-0.597656 c -1e-5,-0.03905 0.0391,-0.05858 0.11719,-0.05859 l 0.17578,0 c 0.0469,1.1e-5 0.0898,0.0215 0.12891,0.06445 0.039,0.04298 0.0586,0.0879 0.0586,0.134766 l 0,3.140625 c -1e-5,0.148445 -0.0625,0.222663 -0.1875,0.222656 l -0.29297,0 c -0.14063,7e-6 -0.21094,-0.07421 -0.21094,-0.222656 0,-0.835929 -0.23242,-1.507804 -0.69726,-2.015625 -0.46485,-0.507803 -1.11524,-0.761709 -1.95117,-0.761719 -0.71876,10e-6 -1.3418,0.132823 -1.86914,0.398438 -0.52735,0.265634 -0.79102,0.722665 -0.79102,1.371093 0,0.445321 0.18945,0.810555 0.56836,1.095704 0.3789,0.285163 0.82226,0.490241 1.33008,0.615234 l 1.6289,0.304687 c 0.54687,0.125007 1.05664,0.335944 1.5293,0.632813 0.47265,0.29688 0.84765,0.67188 1.125,1.125 0.27734,0.453129 0.41601,0.964847 0.41602,1.535156 -10e-6,0.578128 -0.0996,1.08008 -0.29883,1.50586 -0.19923,0.425782 -0.47657,0.779297 -0.83203,1.060546 -0.35548,0.281251 -0.7754,0.488282 -1.25977,0.621094 -0.48438,0.132812 -0.99219,0.199219 -1.52344,0.199219 -1,0 -1.85547,-0.335938 -2.5664,-1.007813 l -0.87891,0.949219 c 0,0.03906 -0.043,0.05859 -0.1289,0.05859 l -0.14063,0 c -0.14062,0 -0.21094,-0.06641 -0.21094,-0.199219 z"
       id="path6589"
       style="fill:#ffffff;stroke:none" />
    <path
       d="m 172.87042,35.319836 0,-5.296875 c 0,-0.429679 -0.0644,-0.740226 -0.19336,-0.931641 -0.12891,-0.191397 -0.31445,-0.308584 -0.55664,-0.351562 -0.24219,-0.04296 -0.61719,-0.06444 -1.125,-0.06445 l 0,-0.84375 3.63281,-0.257812 0,7.746094 c 0,0.625002 0.0449,1.11133 0.13477,1.458984 0.0898,0.347657 0.28125,0.607423 0.57422,0.779297 0.29296,0.171875 0.75976,0.257813 1.40039,0.257812 0.85937,10e-7 1.54296,-0.359374 2.05078,-1.078125 0.5078,-0.718747 0.76171,-1.535153 0.76172,-2.449218 l 0,-4.265625 c -1e-5,-0.429679 -0.0664,-0.740226 -0.19922,-0.931641 -0.13282,-0.191397 -0.31837,-0.308584 -0.55664,-0.351562 -0.23829,-0.04296 -0.61134,-0.06444 -1.11914,-0.06445 l 0,-0.84375 3.62109,-0.257812 0,8.425781 c -1e-5,0.421877 0.0644,0.728517 0.19336,0.919922 0.1289,0.191407 0.31444,0.308595 0.55664,0.351563 0.24218,0.04297 0.61718,0.06445 1.125,0.06445 l 0,0.84375 -3.55078,0.269531 0,-2.027344 c -0.29688,0.601564 -0.71094,1.089845 -1.24219,1.464844 -0.53125,0.375 -1.11719,0.5625 -1.75781,0.5625 -1.14844,0 -2.06055,-0.244141 -2.73633,-0.732422 -0.67578,-0.48828 -1.01367,-1.287108 -1.01367,-2.396484 z"
       id="path6591"
       style="fill:#ffffff;stroke:none" />
    <path
       d="m 184.21417,38.179211 0,-0.84375 c 0.54688,10e-7 0.99609,-0.04297 1.34766,-0.128907 0.35156,-0.08594 0.52734,-0.296873 0.52734,-0.632812 l 0,-6.550781 c 0,-0.429679 -0.0644,-0.740226 -0.19336,-0.931641 -0.12891,-0.191397 -0.31445,-0.308584 -0.55664,-0.351562 -0.24219,-0.04296 -0.61719,-0.06444 -1.125,-0.06445 l 0,-0.84375 3.4336,-0.257812 0,2.34375 c 0.2578,-0.695304 0.62499,-1.259756 1.10156,-1.693359 0.47656,-0.433584 1.05468,-0.65038 1.73437,-0.650391 0.47656,1.1e-5 0.90234,0.140635 1.27735,0.421875 0.37499,0.28126 0.56249,0.652353 0.5625,1.113281 -1e-5,0.289071 -0.10353,0.541024 -0.31055,0.75586 -0.20704,0.214851 -0.4629,0.322273 -0.76758,0.322265 -0.29688,8e-6 -0.55079,-0.10546 -0.76172,-0.316406 -0.21094,-0.210929 -0.31641,-0.464835 -0.3164,-0.761719 -1e-5,-0.429678 0.15233,-0.734365 0.45703,-0.914062 l -0.14063,0 c -0.64844,10e-6 -1.17774,0.234384 -1.58789,0.703125 -0.41016,0.468758 -0.70117,1.050789 -0.87304,1.746093 -0.17188,0.69532 -0.25782,1.359382 -0.25782,1.992188 l 0,3.9375 c 0,0.507814 0.77734,0.76172 2.33203,0.761719 l 0,0.84375 z"
       id="path6593"
       style="fill:#ffffff;stroke:none" />
    <path
       d="m 198.94464,38.448742 c -0.97657,0 -1.87305,-0.255859 -2.68945,-0.767578 -0.81641,-0.511718 -1.45704,-1.195311 -1.92188,-2.050781 -0.46484,-0.855466 -0.69726,-1.759762 -0.69726,-2.712891 0,-0.937494 0.21289,-1.828118 0.63867,-2.671875 0.42578,-0.843741 1.01953,-1.525381 1.78125,-2.044922 0.76171,-0.519521 1.61132,-0.779286 2.54883,-0.779297 0.73437,1.1e-5 1.37304,0.123058 1.91601,0.369141 0.54296,0.246104 0.99023,0.5879 1.3418,1.02539 0.35155,0.437509 0.61718,0.953134 0.79687,1.546875 0.17968,0.593758 0.26953,1.246101 0.26954,1.957032 -1e-5,0.210943 -0.0821,0.316411 -0.2461,0.316406 l -6.94922,0 0,0.257812 c 0,1.328129 0.26758,2.468753 0.80274,3.421875 0.53515,0.953126 1.4082,1.429688 2.61914,1.429688 0.49218,0 0.94726,-0.109375 1.36523,-0.328125 0.41796,-0.218749 0.78124,-0.523436 1.08985,-0.914063 0.30858,-0.390623 0.51757,-0.808591 0.62695,-1.253906 0.0156,-0.05468 0.0449,-0.103512 0.0879,-0.146484 0.043,-0.04297 0.0918,-0.06445 0.14648,-0.06445 l 0.21094,0 c 0.16405,3e-6 0.24609,0.101565 0.2461,0.304687 -0.22658,0.906252 -0.71486,1.650392 -1.46485,2.232422 -0.75001,0.582031 -1.58985,0.873047 -2.51953,0.873047 z m -3.1875,-6.410156 5.47266,0 c -1e-5,-0.601556 -0.084,-1.21093 -0.25196,-1.828125 -0.16797,-0.617179 -0.44727,-1.130851 -0.83789,-1.541016 -0.39063,-0.410146 -0.90235,-0.615224 -1.53515,-0.615234 -0.90626,10e-6 -1.60743,0.423837 -2.10352,1.271484 -0.4961,0.847664 -0.74414,1.75196 -0.74414,2.712891 z"
       id="path6595"
       style="fill:#ffffff;stroke:none" />
  </g>
</svg>
