<?xml version="1.0" encoding="UTF-8" standalone="no"?>
<!-- Created with Inkscape (http://www.inkscape.org/) -->

<svg
   xmlns:dc="http://purl.org/dc/elements/1.1/"
   xmlns:cc="http://creativecommons.org/ns#"
   xmlns:rdf="http://www.w3.org/1999/02/22-rdf-syntax-ns#"
   xmlns:svg="http://www.w3.org/2000/svg"
   xmlns="http://www.w3.org/2000/svg"
   version="1.2"
   width="320"
   height="60"
   id="svg3020">
  <metadata
     id="metadata3026">
    <rdf:RDF>
      <cc:Work
         rdf:about="">
        <dc:format>image/svg+xml</dc:format>
        <dc:type
           rdf:resource="http://purl.org/dc/dcmitype/StillImage" />
        <dc:title></dc:title>
      </cc:Work>
    </rdf:RDF>
  </metadata>
  <defs
     id="defs3024" />
  <text
     x="44.56657"
     y="42.23513"
     transform="scale(0.95814898,1.043679)"
     id="text3030"
     xml:space="preserve"
     style="font-size:41.02812958px;font-style:normal;font-variant:normal;font-weight:normal;font-stretch:normal;line-height:125%;letter-spacing:0px;word-spacing:0px;fill:#000000;fill-opacity:1;stroke:none;font-family:Cambria Math;-inkscape-font-specification:Cambria Math"><tspan
       x="44.56657"
       y="42.23513"
       id="tspan3032" /></text>
  <g
     id="text6486"
     style="font-size:24px;font-style:normal;font-variant:normal;font-weight:normal;font-stretch:normal;text-align:center;line-height:125%;letter-spacing:0px;word-spacing:0px;text-anchor:middle;fill:#ffffff;fill-opacity:1;stroke:#f9f9f9;font-family:cmr10;-inkscape-font-specification:cmr10">
    <path
       d="m 114.9212,38.179211 0,-0.84375 c 1.64844,10e-7 2.47266,-0.253905 2.47266,-0.761719 l 0,-13.183594 c 0,-0.507797 -0.82422,-0.761703 -2.47266,-0.761719 l 0,-0.84375 8.84766,0 c 1.09374,1.7e-5 2.09374,0.236345 3,0.708985 0.90624,0.472671 1.67967,1.10353 2.32031,1.892578 0.64061,0.789075 1.13475,1.683606 1.48242,2.683594 0.34764,1.00001 0.52147,2.023446 0.52149,3.070312 -2e-5,1.015632 -0.1758,2.001959 -0.52735,2.958985 -0.35157,0.957035 -0.85743,1.820315 -1.51757,2.589843 -0.66017,0.769533 -1.44142,1.376955 -2.34375,1.822266 -0.90236,0.445313 -1.88087,0.667969 -2.93555,0.667969 z m 4.62891,-1.605469 c -1e-5,0.343751 0.0977,0.556642 0.29297,0.638672 0.19531,0.08203 0.5039,0.123048 0.92578,0.123047 l 2.37891,0 c 0.8203,10e-7 1.59959,-0.177734 2.33789,-0.533203 0.73827,-0.355467 1.34959,-0.849608 1.83398,-1.482422 0.5078,-0.671872 0.84764,-1.423824 1.01953,-2.25586 0.17186,-0.832025 0.2578,-1.806633 0.25781,-2.923828 -1e-5,-1.164053 -0.0859,-2.183583 -0.25781,-3.058594 -0.17189,-0.874988 -0.51173,-1.656237 -1.01953,-2.34375 -0.47657,-0.679673 -1.08204,-1.201157 -1.81641,-1.564453 -0.73438,-0.363266 -1.51954,-0.544906 -2.35546,-0.544922 l -2.37891,0 c -0.28907,1.6e-5 -0.51368,0.01173 -0.67383,0.03516 -0.16016,0.02345 -0.29102,0.09181 -0.39258,0.205078 -0.10156,0.113296 -0.15235,0.287124 -0.15234,0.521484 z"
       id="path3004"
       style="fill:#ffffff;stroke:#f9f9f9" />
    <path
       d="m 133.19073,38.179211 0,-0.84375 c 0.54688,10e-7 0.9961,-0.04297 1.34766,-0.128907 0.35156,-0.08594 0.52734,-0.296873 0.52734,-0.632812 l 0,-6.550781 c 0,-0.617179 -0.11914,-0.996085 -0.35742,-1.136719 -0.23828,-0.140616 -0.70898,-0.210928 -1.41211,-0.210938 l 0,-0.84375 3.45703,-0.257812 0,9 c 0,0.335939 0.15234,0.546876 0.45704,0.632812 0.30468,0.08594 0.71093,0.128908 1.21875,0.128907 l 0,0.84375 z m 1.01954,-14.730469 c -1e-5,-0.351548 0.13281,-0.660141 0.39843,-0.925781 0.26563,-0.265609 0.57031,-0.398422 0.91407,-0.398438 0.22656,1.6e-5 0.44531,0.05861 0.65625,0.175781 0.21093,0.117204 0.37499,0.281266 0.49218,0.492188 0.11719,0.210953 0.17578,0.429702 0.17578,0.65625 0,0.343764 -0.13281,0.648451 -0.39843,0.914062 -0.26563,0.265639 -0.57422,0.398451 -0.92578,0.398438 -0.34376,1.3e-5 -0.64844,-0.132799 -0.91407,-0.398438 -0.26562,-0.265611 -0.39844,-0.570298 -0.39843,-0.914062 z"
       id="path3006"
       style="fill:#ffffff;stroke:#f9f9f9" />
    <path
       d="m 139.90558,38.249523 0,-3.914062 c 0,-0.124996 0.0703,-0.187496 0.21094,-0.1875 l 0.29296,0 c 0.0937,4e-6 0.15625,0.0625 0.1875,0.1875 0.44532,2.320314 1.52344,3.480469 3.23438,3.480468 0.75781,1e-6 1.39257,-0.171874 1.9043,-0.515625 0.51171,-0.343748 0.76757,-0.874998 0.76757,-1.59375 0,-0.515622 -0.19922,-0.955074 -0.59765,-1.318359 -0.39845,-0.363277 -0.8711,-0.611324 -1.41797,-0.744141 l -1.60547,-0.316406 c -0.53906,-0.117182 -1.0293,-0.29687 -1.4707,-0.539062 -0.44141,-0.242182 -0.80274,-0.564448 -1.08399,-0.966797 -0.28125,-0.402337 -0.42187,-0.869134 -0.42187,-1.400391 0,-0.703116 0.18554,-1.279288 0.55664,-1.728515 0.37109,-0.449209 0.85351,-0.773428 1.44726,-0.972657 0.59375,-0.199208 1.23438,-0.298817 1.92188,-0.298828 0.82031,1.1e-5 1.53515,0.218761 2.14453,0.65625 l 0.69141,-0.597656 c -1e-5,-0.03905 0.039,-0.05858 0.11718,-0.05859 l 0.17579,0 c 0.0469,1.1e-5 0.0898,0.0215 0.1289,0.06445 0.0391,0.04298 0.0586,0.0879 0.0586,0.134766 l 0,3.140625 c -1e-5,0.148445 -0.0625,0.222663 -0.1875,0.222656 l -0.29297,0 c -0.14064,7e-6 -0.21095,-0.07421 -0.21094,-0.222656 -1e-5,-0.835929 -0.23243,-1.507804 -0.69727,-2.015625 -0.46485,-0.507803 -1.11524,-0.761709 -1.95117,-0.761719 -0.71875,10e-6 -1.3418,0.132823 -1.86914,0.398438 -0.52734,0.265634 -0.79102,0.722665 -0.79101,1.371093 -1e-5,0.445321 0.18945,0.810555 0.56836,1.095704 0.3789,0.285163 0.82226,0.490241 1.33007,0.615234 l 1.62891,0.304687 c 0.54687,0.125007 1.05663,0.335944 1.5293,0.632813 0.47265,0.29688 0.84765,0.67188 1.125,1.125 0.27733,0.453129 0.416,0.964847 0.41601,1.535156 -1e-5,0.578128 -0.0996,1.08008 -0.29883,1.50586 -0.19922,0.425782 -0.47657,0.779297 -0.83203,1.060546 -0.35547,0.281251 -0.77539,0.488282 -1.25976,0.621094 -0.48438,0.132812 -0.9922,0.199219 -1.52344,0.199219 -1,0 -1.85547,-0.335938 -2.56641,-1.007813 l -0.8789,0.949219 c 0,0.03906 -0.043,0.05859 -0.12891,0.05859 l -0.14062,0 c -0.14063,0 -0.21094,-0.06641 -0.21094,-0.199219 z"
       id="path3008"
       style="fill:#ffffff;stroke:#f9f9f9" />
    <path
       d="m 151.02667,35.296398 0,-6.621094 -1.99219,0 0,-0.621093 c 1.04688,10e-6 1.81641,-0.488271 2.3086,-1.464844 0.49218,-0.97655 0.73828,-2.035143 0.73828,-3.175781 l 0.69141,0 0,4.417968 3.38671,0 0,0.84375 -3.38671,0 0,6.574219 c -1e-5,0.664065 0.11132,1.246096 0.33398,1.746094 0.22265,0.500001 0.62304,0.75 1.20117,0.75 0.54687,0 0.9414,-0.263671 1.1836,-0.791016 0.24218,-0.527342 0.36327,-1.095701 0.36328,-1.705078 l 0,-1.417969 0.6914,0 0,1.464844 c 0,0.500003 -0.0918,0.994143 -0.27539,1.482422 -0.1836,0.488282 -0.45508,0.888672 -0.81445,1.201172 -0.35938,0.3125 -0.79688,0.46875 -1.3125,0.46875 -0.96094,0 -1.72071,-0.287109 -2.2793,-0.861328 -0.55859,-0.574218 -0.83789,-1.337889 -0.83789,-2.291016 z"
       id="path3010"
       style="fill:#ffffff;stroke:#f9f9f9" />
    <path
       d="m 158.86652,35.823742 c 0,-0.953122 0.37499,-1.728512 1.125,-2.326172 0.74999,-0.597651 1.65038,-1.019526 2.70117,-1.265625 1.05077,-0.246088 2.04882,-0.369134 2.99414,-0.369141 l 0,-0.984375 c -10e-6,-0.460929 -0.10157,-0.908195 -0.30469,-1.341796 -0.20313,-0.433585 -0.4961,-0.789054 -0.87891,-1.066407 -0.38281,-0.277333 -0.80469,-0.416005 -1.26562,-0.416015 -1.0625,10e-6 -1.8711,0.238291 -2.42578,0.714843 0.30468,10e-6 0.55664,0.115244 0.75586,0.345704 0.19921,0.230477 0.29882,0.498055 0.29883,0.802734 -1e-5,0.32032 -0.11329,0.593758 -0.33985,0.820312 -0.22656,0.22657 -0.49609,0.339851 -0.80859,0.339844 -0.32032,7e-6 -0.59375,-0.113274 -0.82031,-0.339844 -0.22657,-0.226554 -0.33985,-0.499992 -0.33985,-0.820312 0,-0.843741 0.38281,-1.470693 1.14844,-1.880859 0.76562,-0.410146 1.60937,-0.615224 2.53125,-0.615235 0.64843,1.1e-5 1.30077,0.138683 1.95703,0.416016 0.65624,0.277354 1.19335,0.673838 1.61133,1.189453 0.41796,0.515634 0.62694,1.117195 0.62695,1.804687 l 0,5.402344 c -1e-5,0.312502 0.0664,0.599611 0.19922,0.861328 0.1328,0.26172 0.33983,0.392579 0.62109,0.392578 0.26562,1e-6 0.46288,-0.132811 0.5918,-0.398437 0.1289,-0.265624 0.19335,-0.55078 0.19336,-0.855469 l 0,-1.535156 0.70313,0 0,1.535156 c -2e-5,0.359377 -0.0938,0.701173 -0.28125,1.025391 -0.18752,0.324219 -0.43947,0.582031 -0.75586,0.773437 -0.31642,0.191406 -0.65822,0.28711 -1.02539,0.28711 -0.46876,0 -0.87306,-0.181641 -1.21289,-0.544922 -0.33986,-0.363281 -0.52931,-0.794921 -0.56836,-1.294922 -0.29689,0.601564 -0.73439,1.080079 -1.3125,1.435547 -0.57813,0.355468 -1.19532,0.533203 -1.85157,0.533203 -0.60938,0 -1.20898,-0.08984 -1.79882,-0.269531 -0.58985,-0.179688 -1.08204,-0.46289 -1.47657,-0.84961 -0.39453,-0.386717 -0.59179,-0.88867 -0.59179,-1.505859 z m 1.94531,0 c 0,0.562502 0.20703,1.035157 0.62109,1.417969 0.41406,0.382813 0.90234,0.574219 1.46485,0.574218 0.51562,1e-6 0.98437,-0.128905 1.40625,-0.386718 0.42186,-0.257812 0.7578,-0.609374 1.00781,-1.054688 0.24999,-0.44531 0.37499,-0.91406 0.375,-1.40625 l 0,-2.496094 c -0.72657,6e-6 -1.47071,0.119147 -2.23242,0.357422 -0.76173,0.238287 -1.39259,0.611333 -1.89258,1.119141 -0.5,0.507816 -0.75,1.132816 -0.75,1.875 z"
       id="path3012"
       style="fill:#ffffff;stroke:#f9f9f9" />
    <path
       d="m 170.62042,38.179211 0,-0.84375 c 0.54688,10e-7 0.99609,-0.04297 1.34766,-0.128907 0.35156,-0.08594 0.52734,-0.296873 0.52734,-0.632812 l 0,-6.550781 c 0,-0.429679 -0.0644,-0.740226 -0.19336,-0.931641 -0.12891,-0.191397 -0.31445,-0.308584 -0.55664,-0.351562 -0.24219,-0.04296 -0.61719,-0.06444 -1.125,-0.06445 l 0,-0.84375 3.48047,-0.257812 0,2.34375 c 0.32031,-0.687491 0.79492,-1.249991 1.42383,-1.6875 0.6289,-0.43749 1.31445,-0.656239 2.05664,-0.65625 1.10937,1.1e-5 1.94335,0.265635 2.50195,0.796875 0.55859,0.531259 0.83788,1.343758 0.83789,2.4375 l 0,5.765625 c -1e-5,0.335939 0.17577,0.546876 0.52735,0.632812 0.35155,0.08594 0.80077,0.128908 1.34765,0.128907 l 0,0.84375 -5.49609,0 0,-0.84375 c 0.54687,10e-7 0.99609,-0.04297 1.34766,-0.128907 0.35155,-0.08594 0.52733,-0.296873 0.52734,-0.632812 l 0,-5.695313 c -1e-5,-0.781242 -0.11329,-1.423819 -0.33984,-1.927734 -0.22658,-0.503896 -0.69142,-0.755849 -1.39454,-0.755859 -0.92969,10e-6 -1.69336,0.371103 -2.29101,1.113281 -0.59766,0.742196 -0.89649,1.585945 -0.89649,2.53125 l 0,4.734375 c 0,0.335939 0.17578,0.546876 0.52735,0.632812 0.35156,0.08594 0.79687,0.128908 1.33594,0.128907 l 0,0.84375 z"
       id="path3014"
       style="fill:#ffffff;stroke:#f9f9f9" />
    <path
       d="m 189.19464,38.448742 c -0.96875,0 -1.84766,-0.251953 -2.63672,-0.755859 -0.78906,-0.503906 -1.41016,-1.17578 -1.86328,-2.015625 -0.45312,-0.839841 -0.67969,-1.732418 -0.67969,-2.677735 0,-0.945306 0.22461,-1.851555 0.67383,-2.71875 0.44922,-0.867179 1.07031,-1.560537 1.86328,-2.080078 0.79297,-0.519521 1.67383,-0.779286 2.64258,-0.779297 0.93749,1.1e-5 1.79101,0.183604 2.56055,0.550781 0.76952,0.367198 1.15429,0.96876 1.15429,1.804688 0,0.312508 -0.11133,0.583992 -0.33398,0.814453 -0.22266,0.230476 -0.49415,0.34571 -0.81445,0.345703 -0.32032,7e-6 -0.59181,-0.115227 -0.81446,-0.345703 -0.22266,-0.230461 -0.33399,-0.501945 -0.33398,-0.814453 -1e-5,-0.281241 0.0898,-0.525382 0.26953,-0.732422 0.17968,-0.207022 0.40234,-0.337881 0.66797,-0.392578 -0.5547,-0.351553 -1.33204,-0.527334 -2.33203,-0.527344 -0.76563,10e-6 -1.38282,0.253916 -1.85156,0.761719 -0.46876,0.507821 -0.79688,1.136727 -0.98438,1.886719 -0.1875,0.750006 -0.28125,1.492193 -0.28125,2.226562 0,0.773442 0.11523,1.521488 0.3457,2.244141 0.23047,0.722658 0.60156,1.320314 1.11329,1.792969 0.51171,0.472656 1.15429,0.708984 1.92773,0.708984 0.75781,0 1.40234,-0.232421 1.93359,-0.697266 0.53124,-0.464842 0.89453,-1.072263 1.08985,-1.822265 -1e-5,-0.09375 0.0625,-0.140622 0.1875,-0.140625 l 0.29297,0 c 0.0469,3e-6 0.0898,0.02149 0.1289,0.06445 0.0391,0.04297 0.0586,0.0918 0.0586,0.146484 l 0,0.07031 c -0.2422,0.945314 -0.72267,1.695313 -1.44141,2.25 -0.71876,0.554687 -1.56641,0.832031 -2.54297,0.832031 z"
       id="path3016"
       style="fill:#ffffff;stroke:#f9f9f9" />
    <path
       d="m 199.83527,38.448742 c -0.97657,0 -1.87305,-0.255859 -2.68946,-0.767578 -0.81641,-0.511718 -1.45703,-1.195311 -1.92187,-2.050781 -0.46485,-0.855466 -0.69727,-1.759762 -0.69727,-2.712891 0,-0.937494 0.21289,-1.828118 0.63867,-2.671875 0.42578,-0.843741 1.01953,-1.525381 1.78125,-2.044922 0.76172,-0.519521 1.61133,-0.779286 2.54883,-0.779297 0.73437,1.1e-5 1.37304,0.123058 1.91602,0.369141 0.54296,0.246104 0.99022,0.5879 1.34179,1.02539 0.35156,0.437509 0.61718,0.953134 0.79688,1.546875 0.17968,0.593758 0.26952,1.246101 0.26953,1.957032 -1e-5,0.210943 -0.082,0.316411 -0.24609,0.316406 l -6.94922,0 0,0.257812 c 0,1.328129 0.26757,2.468753 0.80273,3.421875 0.53516,0.953126 1.4082,1.429688 2.61914,1.429688 0.49218,0 0.94726,-0.109375 1.36524,-0.328125 0.41796,-0.218749 0.78124,-0.523436 1.08984,-0.914063 0.30859,-0.390623 0.51757,-0.808591 0.62695,-1.253906 0.0156,-0.05468 0.0449,-0.103512 0.0879,-0.146484 0.043,-0.04297 0.0918,-0.06445 0.14648,-0.06445 l 0.21094,0 c 0.16405,3e-6 0.24608,0.101565 0.24609,0.304687 -0.22657,0.906252 -0.71485,1.650392 -1.46484,2.232422 -0.75001,0.582031 -1.58985,0.873047 -2.51953,0.873047 z m -3.1875,-6.410156 5.47265,0 c -1e-5,-0.601556 -0.084,-1.21093 -0.25195,-1.828125 -0.16798,-0.617179 -0.44727,-1.130851 -0.83789,-1.541016 -0.39063,-0.410146 -0.90235,-0.615224 -1.53516,-0.615234 -0.90625,10e-6 -1.60742,0.423837 -2.10351,1.271484 -0.4961,0.847664 -0.74415,1.75196 -0.74414,2.712891 z"
       id="path3018"
       style="fill:#ffffff;stroke:#f9f9f9" />
  </g>
</svg>
