<?xml version="1.0" encoding="UTF-8" standalone="no"?>
<!-- Created with Inkscape (http://www.inkscape.org/) -->

<svg
   xmlns:dc="http://purl.org/dc/elements/1.1/"
   xmlns:cc="http://creativecommons.org/ns#"
   xmlns:rdf="http://www.w3.org/1999/02/22-rdf-syntax-ns#"
   xmlns:svg="http://www.w3.org/2000/svg"
   xmlns="http://www.w3.org/2000/svg"
   xmlns:sodipodi="http://sodipodi.sourceforge.net/DTD/sodipodi-0.dtd"
   xmlns:inkscape="http://www.inkscape.org/namespaces/inkscape"
   version="1.2"
   width="320"
   height="60"
   id="svg3020"
   inkscape:version="0.48.3.1 r9886"
   sodipodi:docname="eqn_flow_02.svg">
  <sodipodi:namedview
     pagecolor="#ffffff"
     bordercolor="#666666"
     borderopacity="1"
     objecttolerance="10"
     gridtolerance="10"
     guidetolerance="10"
     inkscape:pageopacity="0"
     inkscape:pageshadow="2"
     inkscape:window-width="1366"
     inkscape:window-height="716"
     id="namedview4092"
     showgrid="false"
     inkscape:zoom="0.871875"
     inkscape:cx="-18.924731"
     inkscape:cy="30"
     inkscape:window-x="-8"
     inkscape:window-y="-8"
     inkscape:window-maximized="1"
     inkscape:current-layer="svg3020" />
  <metadata
     id="metadata3026">
    <rdf:RDF>
      <cc:Work
         rdf:about="">
        <dc:format>image/svg+xml</dc:format>
        <dc:type
           rdf:resource="http://purl.org/dc/dcmitype/StillImage" />
        <dc:title />
      </cc:Work>
    </rdf:RDF>
  </metadata>
  <defs
     id="defs3024" />
  <text
     x="44.56657"
     y="42.23513"
     transform="scale(0.95814898,1.043679)"
     id="text3030"
     xml:space="preserve"
     style="font-size:41.02812958px;font-style:normal;font-variant:normal;font-weight:normal;font-stretch:normal;line-height:125%;letter-spacing:0px;word-spacing:0px;fill:#000000;fill-opacity:1;stroke:none;font-family:Cambria Math;-inkscape-font-specification:Cambria Math"><tspan
       x="44.56657"
       y="42.23513"
       id="tspan3032" /></text>
  <g
     style="font-size:24px;font-style:normal;font-variant:normal;font-weight:normal;font-stretch:normal;text-align:center;line-height:125%;letter-spacing:0px;word-spacing:0px;text-anchor:middle;fill:#ffffff;fill-opacity:1;stroke:none;font-family:cmr10;-inkscape-font-specification:cmr10;opacity:0"
     id="text3015">
    <path
       d="m 55.75235,37.977501 0,-0.84375 c 1.999996,1e-6 2.999995,-0.253905 3,-0.761719 l 0,-12.597656 c -0.82813,0.398451 -1.875003,0.59767 -3.140625,0.597656 l 0,-0.84375 c 1.960933,1.5e-5 3.441401,-0.511704 4.441406,-1.535156 l 0.339844,0 c 0.05468,1.6e-5 0.107415,0.0215 0.158203,0.06445 0.05077,0.04298 0.07617,0.09181 0.07617,0.146484 l 0,14.167969 c -7e-6,0.507814 0.999992,0.76172 3,0.761719 l 0,0.84375 z"
       style="fill:#ffffff;stroke:none"
       id="path4095" />
    <path
       d="m 74.31485,37.977501 0,-0.84375 c 0.539061,1e-6 0.984373,-0.04297 1.335937,-0.128906 0.35156,-0.08594 0.527341,-0.296874 0.527344,-0.632813 l 0,-7.898437 -1.839844,0 0,-0.84375 1.839844,0 0,-2.871094 c -3e-6,-0.515611 0.107419,-0.998033 0.322266,-1.447266 0.21484,-0.449203 0.503903,-0.841781 0.867187,-1.177734 0.363277,-0.335921 0.781246,-0.599593 1.253906,-0.791016 0.472651,-0.191389 0.962885,-0.287092 1.470704,-0.287109 0.539055,1.7e-5 1.025383,0.160173 1.458984,0.480469 0.433585,0.320328 0.650382,0.746109 0.650391,1.277343 -9e-6,0.304703 -0.103525,0.560562 -0.310547,0.767579 -0.20704,0.207045 -0.462899,0.310561 -0.767578,0.310546 -0.304695,1.5e-5 -0.564461,-0.103501 -0.779297,-0.310546 -0.214851,-0.207017 -0.322272,-0.462876 -0.322266,-0.767579 -6e-6,-0.499984 0.214837,-0.835921 0.644531,-1.007812 -0.257819,-0.08592 -0.488288,-0.12889 -0.691406,-0.128906 -0.468756,1.6e-5 -0.869146,0.166031 -1.201172,0.498047 -0.332036,0.332046 -0.580083,0.736343 -0.74414,1.21289 -0.164067,0.476577 -0.246098,0.949233 -0.246094,1.417969 l 0,2.824219 2.765625,0 0,0.84375 -2.683594,0 0,7.898437 c -4e-6,0.328126 0.234371,0.537111 0.703125,0.626953 0.468745,0.08985 1.007807,0.134767 1.617188,0.134766 l 0,0.84375 z"
       style="fill:#ffffff;stroke:none"
       id="path4097" />
    <path
       d="m 83.303131,35.094688 0,-6.621093 -1.992187,0 0,-0.621094 c 1.046873,10e-6 1.816404,-0.488271 2.308593,-1.464844 0.492185,-0.97655 0.738278,-2.035142 0.738282,-3.175781 l 0.691406,0 0,4.417969 3.386719,0 0,0.84375 -3.386719,0 0,6.574218 c -4e-6,0.664065 0.111324,1.246096 0.333984,1.746094 0.222652,0.500001 0.623042,0.750001 1.201172,0.75 0.546869,1e-6 0.9414,-0.263671 1.183594,-0.791015 0.24218,-0.527342 0.363274,-1.095701 0.363281,-1.705079 l 0,-1.417968 0.691406,0 0,1.464843 c -8e-6,0.500003 -0.0918,0.994143 -0.27539,1.482422 -0.183602,0.488282 -0.455086,0.888673 -0.814453,1.201172 -0.359382,0.3125 -0.796881,0.46875 -1.3125,0.46875 -0.960943,0 -1.720707,-0.287109 -2.279297,-0.861328 -0.558597,-0.574218 -0.837893,-1.337889 -0.837891,-2.291016 z"
       style="fill:#ffffff;stroke:none"
       id="path4099" />
    <path
       d="m 91.66741,27.173968 c 0.243752,0.355475 0.571295,0.619541 0.982631,0.792199 0.411331,0.172659 0.853134,0.258988 1.325409,0.258988 0.604301,0 1.033408,-0.257718 1.287323,-0.773156 0.253904,-0.515435 0.380859,-1.100697 0.380865,-1.755786 -6e-6,-0.294533 -0.02667,-0.589068 -0.07998,-0.883606 -0.05333,-0.294532 -0.143464,-0.568754 -0.270414,-0.822668 -0.12696,-0.253905 -0.300888,-0.457033 -0.521785,-0.609384 -0.220905,-0.152341 -0.491319,-0.228513 -0.811241,-0.228519 l -1.035953,0 c -0.09141,6e-6 -0.137113,-0.04824 -0.137111,-0.144728 l 0,-0.137112 c -2e-6,-0.08124 0.0457,-0.121871 0.137111,-0.121876 l 0.860755,-0.06856 c 0.365626,6e-6 0.669048,-0.137105 0.910267,-0.411334 0.241209,-0.274216 0.417676,-0.608107 0.529402,-1.001674 0.111715,-0.393553 0.167575,-0.768069 0.16758,-1.123551 -5e-6,-0.497655 -0.116804,-0.906449 -0.350396,-1.226385 -0.233601,-0.319916 -0.589075,-0.479879 -1.066421,-0.479889 -0.396103,10e-6 -0.774428,0.07491 -1.134977,0.22471 -0.360554,0.149816 -0.647472,0.377065 -0.860754,0.681748 0.02031,-0.0051 0.03808,-0.0089 0.05332,-0.01143 0.01523,-0.0025 0.03301,-0.0038 0.05332,-0.0038 0.233595,9e-6 0.429105,0.08126 0.586532,0.243754 0.157421,0.162511 0.236133,0.358021 0.236136,0.586531 -3e-6,0.223449 -0.07872,0.41642 -0.236136,0.578915 -0.157427,0.16251 -0.352937,0.243761 -0.586532,0.243753 -0.22852,8e-6 -0.424031,-0.08124 -0.586532,-0.243753 -0.162503,-0.162495 -0.243754,-0.355466 -0.243753,-0.578915 -10e-7,-0.446872 0.134571,-0.835354 0.403717,-1.165446 0.269142,-0.330073 0.615729,-0.580174 1.03976,-0.750303 0.424027,-0.170109 0.849325,-0.255169 1.275897,-0.25518 0.314844,1.1e-5 0.647466,0.04698 0.997866,0.14092 0.35039,0.09396 0.667777,0.228529 0.952162,0.403717 0.284373,0.175207 0.5167,0.399917 0.696982,0.674131 0.180269,0.274231 0.270407,0.58654 0.270414,0.936927 -7e-6,0.436733 -0.09776,0.840449 -0.293266,1.21115 -0.195517,0.370715 -0.463391,0.690641 -0.803624,0.959779 -0.340245,0.26915 -0.713492,0.469739 -1.119743,0.601766 0.451955,0.08633 0.881062,0.256454 1.287323,0.510359 0.40625,0.253914 0.732523,0.578919 0.978822,0.975014 0.246286,0.396103 0.369432,0.822671 0.369439,1.279705 -7e-6,0.573839 -0.157431,1.093084 -0.472272,1.557737 -0.314855,0.464656 -0.728727,0.827746 -1.241619,1.089273 -0.512903,0.261527 -1.05373,0.39229 -1.622484,0.392291 -0.48751,-1e-6 -0.976286,-0.09268 -1.466329,-0.278031 -0.490048,-0.185355 -0.891225,-0.463385 -1.203533,-0.834094 -0.31231,-0.370707 -0.468464,-0.815049 -0.468463,-1.333027 -10e-7,-0.258985 0.08633,-0.474809 0.258988,-0.64747 0.172657,-0.172656 0.38848,-0.258985 0.64747,-0.258988 0.167579,3e-6 0.321194,0.03936 0.460846,0.118068 0.139648,0.07871 0.248829,0.189166 0.327544,0.331352 0.07871,0.142192 0.118065,0.294538 0.118068,0.457038 -3e-6,0.253912 -0.08887,0.467196 -0.266605,0.639853 -0.177739,0.17266 -0.391023,0.258989 -0.639853,0.258988 z"
       style="font-size:65.00091553000000000%;baseline-shift:super;fill:#ffffff;stroke:none"
       id="path4101" />
    <path
       d="m 99.329803,43.497032 c -10e-7,-0.04688 0.0078,-0.07813 0.02344,-0.09375 L 107.69699,20.27047 c 0.0312,-0.09373 0.0859,-0.165998 0.16406,-0.216797 0.0781,-0.05076 0.16796,-0.07615 0.26953,-0.07617 0.14062,1.8e-5 0.25585,0.04299 0.34571,0.128906 0.0898,0.08595 0.13475,0.203143 0.13476,0.351563 l 0,0.09375 -8.34375,23.132812 c -0.0937,0.195307 -0.24609,0.292963 -0.457028,0.292969 -0.132814,-6e-6 -0.246095,-0.04688 -0.339844,-0.140625 -0.09375,-0.09376 -0.140626,-0.207037 -0.140625,-0.339844 z"
       style="fill:#ffffff;stroke:none"
       id="path4103" />
    <path
       d="m 110.69699,37.977501 0,-0.84375 c 0.54687,1e-6 0.99609,-0.04297 1.34766,-0.128906 0.35156,-0.08594 0.52734,-0.296874 0.52734,-0.632813 l 0,-12.597656 c 0,-0.429673 -0.0644,-0.74022 -0.19336,-0.931641 -0.12891,-0.191391 -0.31445,-0.308578 -0.55664,-0.351562 -0.24219,-0.04295 -0.61719,-0.06444 -1.125,-0.06445 l 0,-0.84375 3.5625,-0.257813 0,8.25 c 0.33593,-0.664053 0.80468,-1.197256 1.40625,-1.599609 0.60156,-0.402334 1.26562,-0.603505 1.99219,-0.603516 1.10936,1.1e-5 1.94335,0.265636 2.50195,0.796875 0.55858,0.531259 0.83788,1.343759 0.83789,2.4375 l 0,5.765625 c -1e-5,0.335939 0.17577,0.546876 0.52735,0.632813 0.35155,0.08594 0.80076,0.128907 1.34765,0.128906 l 0,0.84375 -5.49609,0 0,-0.84375 c 0.54687,1e-6 0.99608,-0.04297 1.34765,-0.128906 0.35156,-0.08594 0.52734,-0.296874 0.52735,-0.632813 l 0,-5.695312 c -10e-6,-0.781242 -0.11329,-1.42382 -0.33985,-1.927735 -0.22657,-0.503896 -0.69141,-0.755849 -1.39453,-0.755859 -0.92969,10e-6 -1.69336,0.371103 -2.29101,1.113281 -0.59766,0.742196 -0.89649,1.585945 -0.89649,2.53125 l 0,4.734375 c 0,0.335939 0.17578,0.546876 0.52735,0.632813 0.35155,0.08594 0.79687,0.128907 1.33593,0.128906 l 0,0.84375 z"
       style="fill:#ffffff;stroke:none"
       id="path4105" />
    <path
       d="m 123.91574,37.977501 0,-0.84375 c 0.54687,1e-6 0.99609,-0.04297 1.34766,-0.128906 0.35156,-0.08594 0.52734,-0.296874 0.52734,-0.632813 l 0,-6.550781 c 0,-0.429679 -0.0644,-0.740226 -0.19336,-0.931641 -0.12891,-0.191397 -0.31445,-0.308584 -0.55664,-0.351562 -0.24219,-0.04296 -0.61719,-0.06444 -1.125,-0.06445 l 0,-0.84375 3.43359,-0.257813 0,2.34375 c 0.25781,-0.695303 0.625,-1.259756 1.10157,-1.693359 0.47655,-0.433584 1.05468,-0.65038 1.73437,-0.650391 0.47656,1.1e-5 0.90234,0.140636 1.27735,0.421875 0.37499,0.28126 0.56249,0.652353 0.5625,1.113281 -10e-6,0.289072 -0.10353,0.541025 -0.31055,0.75586 -0.20704,0.214852 -0.4629,0.322273 -0.76758,0.322265 -0.29688,8e-6 -0.55079,-0.10546 -0.76172,-0.316406 -0.21094,-0.210929 -0.31641,-0.464835 -0.3164,-0.761719 -10e-6,-0.429678 0.15233,-0.734365 0.45703,-0.914062 l -0.14063,0 c -0.64844,10e-6 -1.17774,0.234385 -1.58789,0.703125 -0.41016,0.468759 -0.70117,1.050789 -0.87305,1.746094 -0.17187,0.695319 -0.25781,1.359381 -0.25781,1.992187 l 0,3.9375 c 0,0.507814 0.77734,0.76172 2.33203,0.761719 l 0,0.84375 z"
       style="fill:#ffffff;stroke:none"
       id="path4107" />
    <path
       d="m 142.72433,35.36422 c -0.1875,-0.02344 -0.34961,-0.103513 -0.48632,-0.240235 -0.13672,-0.136715 -0.20508,-0.298825 -0.20508,-0.486328 0,-0.179684 0.0644,-0.337887 0.19336,-0.474609 0.1289,-0.136715 0.29492,-0.224606 0.49804,-0.263672 l 14.58985,0 c 0.19529,0.03907 0.3574,0.126957 0.48633,0.263672 0.12889,0.136722 0.19334,0.294925 0.19336,0.474609 -2e-5,0.187503 -0.0684,0.349613 -0.20508,0.486328 -0.13674,0.136722 -0.29494,0.2168 -0.47461,0.240235 z m 0,-5.355469 c -0.1875,-0.02343 -0.34961,-0.103508 -0.48632,-0.240234 -0.13672,-0.136711 -0.20508,-0.294914 -0.20508,-0.47461 0,-0.187491 0.0644,-0.3496 0.19336,-0.486328 0.1289,-0.136709 0.29492,-0.2246 0.49804,-0.263672 l 14.58985,0 c 0.19529,0.03907 0.3574,0.126963 0.48633,0.263672 0.12889,0.136728 0.19334,0.298837 0.19336,0.486328 -2e-5,0.179696 -0.0684,0.337899 -0.20508,0.47461 -0.13674,0.136726 -0.29494,0.216804 -0.47461,0.240234 z"
       style="font-style:normal;font-variant:normal;font-weight:normal;font-stretch:normal;fill:#ffffff;font-family:cmb10;-inkscape-font-specification:cmb10;stroke:none"
       id="path4109" />
    <path
       d="m 169.37277,36.653282 c 0,-0.359373 0.13281,-0.667967 0.39844,-0.925781 0.26562,-0.25781 0.57422,-0.386716 0.92578,-0.386719 0.21875,3e-6 0.43359,0.0586 0.64453,0.175781 0.21094,0.11719 0.375,0.281253 0.49219,0.492188 0.11718,0.210939 0.17578,0.425783 0.17578,0.644531 0,0.351564 -0.12891,0.660157 -0.38672,0.925781 -0.25781,0.265626 -0.56641,0.398438 -0.92578,0.398438 -0.35156,0 -0.66016,-0.132812 -0.92578,-0.398438 -0.26563,-0.265624 -0.39844,-0.574217 -0.39844,-0.925781 z"
       style="fill:#ffffff;stroke:none"
       id="path4111" />
    <path
       d="m 174.68137,34.016563 0,-0.84375 7.41796,-11.0625 c 0.0547,-0.07811 0.13672,-0.117171 0.2461,-0.117187 l 0.35156,0 c 0.17968,1.6e-5 0.26952,0.08986 0.26953,0.269531 l 0,10.910156 2.35547,0 0,0.84375 -2.35547,0 0,2.355469 c -1e-5,0.328126 0.23437,0.537111 0.70313,0.626953 0.46874,0.08985 1.01171,0.134767 1.6289,0.134766 l 0,0.84375 -6.60937,0 0,-0.84375 c 0.61718,1e-6 1.16015,-0.04492 1.6289,-0.134766 0.46875,-0.08984 0.70312,-0.298827 0.70313,-0.626953 l 0,-2.355469 z m 0.79687,-0.84375 5.68359,0 0,-8.496093 z"
       style="fill:#ffffff;stroke:none"
       id="path4113" />
    <path
       d="m 190.18527,37.356407 c 0,-0.890623 0.0781,-1.761716 0.23438,-2.613281 0.15624,-0.851558 0.38476,-1.693355 0.68554,-2.525391 0.30078,-0.832024 0.66406,-1.64843 1.08985,-2.449218 0.42577,-0.800773 0.89257,-1.552725 1.40039,-2.25586 l 2.1914,-3.046875 -2.74218,0 c -2.84376,1.4e-5 -4.3086,0.03908 -4.39453,0.117188 -0.21094,0.257825 -0.41016,0.996106 -0.59766,2.214843 l -0.69141,0 0.78516,-5.039062 0.70312,0 0,0.07031 c 0,0.289079 0.48828,0.476579 1.46485,0.5625 0.97656,0.08595 1.93359,0.128922 2.87109,0.128907 l 4.46485,0 0,0.621093 c -2e-5,0.01564 -0.002,0.02736 -0.006,0.03516 -0.004,0.0078 -0.01,0.01955 -0.0176,0.03516 l -3.30469,4.640625 c -0.81251,1.203134 -1.32032,2.53907 -1.52344,4.007812 -0.20313,1.468755 -0.30469,3.300784 -0.30468,5.496094 -10e-6,0.3125 -0.11329,0.582031 -0.33985,0.808594 -0.22657,0.226562 -0.4961,0.339843 -0.80859,0.339844 -0.32032,-1e-6 -0.59376,-0.113282 -0.82031,-0.339844 -0.22657,-0.226563 -0.33985,-0.496094 -0.33985,-0.808594 z"
       style="fill:#ffffff;stroke:none"
       id="path4115" />
    <path
       d="m 206.7673,37.977501 0,-0.84375 c 1.64844,1e-6 2.47266,-0.253905 2.47266,-0.761719 l 0,-13.183594 c 0,-0.507797 -0.82422,-0.761703 -2.47266,-0.761718 l 0,-0.84375 7.78125,0 0,0.84375 c -2.04688,1.5e-5 -3.07031,0.253921 -3.07031,0.761718 l 0,13.183594 c 0,0.343751 0.0976,0.556642 0.29297,0.638672 0.19531,0.08203 0.5039,0.123048 0.92578,0.123047 l 1.85156,0 c 1.19531,1e-6 2.11718,-0.218749 2.76563,-0.65625 0.64842,-0.437498 1.10741,-1.033201 1.37695,-1.787109 0.26952,-0.753903 0.4746,-1.755855 0.61524,-3.00586 l 0.6914,0 -0.66797,6.292969 z"
       style="fill:#ffffff;stroke:none"
       id="path4117" />
    <path
       d="m 222.37668,43.497032 c 0,-0.04688 0.008,-0.07813 0.0234,-0.09375 l 8.34375,-23.132812 c 0.0312,-0.09373 0.0859,-0.165998 0.16406,-0.216797 0.0781,-0.05076 0.16796,-0.07615 0.26953,-0.07617 0.14061,1.8e-5 0.25585,0.04299 0.3457,0.128906 0.0898,0.08595 0.13476,0.203143 0.13477,0.351563 l 0,0.09375 -8.34375,23.132812 c -0.0937,0.195307 -0.2461,0.292963 -0.45703,0.292969 -0.13282,-6e-6 -0.2461,-0.04688 -0.33985,-0.140625 -0.0937,-0.09376 -0.14062,-0.207037 -0.14062,-0.339844 z"
       style="fill:#ffffff;stroke:none"
       id="path4119" />
    <path
       d="m 233.74387,37.977501 0,-0.84375 c 0.54687,1e-6 0.99609,-0.04297 1.34765,-0.128906 0.35156,-0.08594 0.52734,-0.296874 0.52735,-0.632813 l 0,-6.550781 c -10e-6,-0.429679 -0.0645,-0.740226 -0.19336,-0.931641 -0.12891,-0.191397 -0.31446,-0.308584 -0.55664,-0.351562 -0.24219,-0.04296 -0.61719,-0.06444 -1.125,-0.06445 l 0,-0.84375 3.48046,-0.257813 0,2.34375 c 0.32031,-0.687491 0.79492,-1.24999 1.42383,-1.6875 0.6289,-0.437489 1.31445,-0.656239 2.05664,-0.65625 1.84374,1.1e-5 2.92577,0.75001 3.2461,2.25 0.3203,-0.671866 0.78905,-1.214834 1.40625,-1.628906 0.61717,-0.414052 1.29295,-0.621083 2.02734,-0.621094 0.72655,1.1e-5 1.33788,0.117198 1.83399,0.351563 0.49607,0.234385 0.86912,0.591806 1.11914,1.072265 0.24998,0.480478 0.37498,1.083993 0.375,1.810547 l 0,5.765625 c -2e-5,0.335939 0.17771,0.546876 0.5332,0.632813 0.35545,0.08594 0.80271,0.128907 1.3418,0.128906 l 0,0.84375 -5.4961,0 0,-0.84375 c 0.54686,1e-6 0.99608,-0.04297 1.34766,-0.128906 0.35155,-0.08594 0.52733,-0.296874 0.52734,-0.632813 l 0,-5.695312 c -1e-5,-0.80468 -0.11329,-1.453117 -0.33984,-1.945313 -0.22658,-0.492178 -0.69142,-0.738271 -1.39453,-0.738281 -0.92189,10e-6 -1.68361,0.371103 -2.28516,1.113281 -0.60157,0.742196 -0.90235,1.585945 -0.90234,2.53125 l 0,4.734375 c -1e-5,0.335939 0.17577,0.546876 0.52734,0.632813 0.35155,0.08594 0.80077,0.128907 1.34766,0.128906 l 0,0.84375 -5.4961,0 0,-0.84375 c 0.54687,1e-6 0.99609,-0.04297 1.34766,-0.128906 0.35155,-0.08594 0.52733,-0.296874 0.52734,-0.632813 l 0,-5.695312 c -1e-5,-0.781242 -0.11329,-1.42382 -0.33984,-1.927735 -0.22657,-0.503896 -0.69141,-0.755849 -1.39453,-0.755859 -0.9297,10e-6 -1.69337,0.371103 -2.29102,1.113281 -0.59766,0.742196 -0.89649,1.585945 -0.89648,2.53125 l 0,4.734375 c -1e-5,0.335939 0.17578,0.546876 0.52734,0.632813 0.35156,0.08594 0.79687,0.128907 1.33594,0.128906 l 0,0.84375 z"
       style="fill:#ffffff;stroke:none"
       id="path4121" />
    <path
       d="m 253.78293,37.977501 0,-0.84375 c 0.54687,1e-6 0.99609,-0.04297 1.34765,-0.128906 0.35156,-0.08594 0.52735,-0.296874 0.52735,-0.632813 l 0,-6.550781 c 0,-0.617179 -0.11914,-0.996085 -0.35742,-1.136719 -0.23829,-0.140615 -0.70899,-0.210928 -1.41211,-0.210937 l 0,-0.84375 3.45703,-0.257813 0,9 c -1e-5,0.335939 0.15234,0.546876 0.45703,0.632813 0.30468,0.08594 0.71093,0.128907 1.21875,0.128906 l 0,0.84375 z m 1.01953,-14.730469 c 0,-0.351547 0.13281,-0.660141 0.39844,-0.925781 0.26562,-0.265609 0.57031,-0.398422 0.91406,-0.398438 0.22656,1.6e-5 0.44531,0.05861 0.65625,0.175782 0.21093,0.117203 0.375,0.281265 0.49219,0.492187 0.11718,0.210953 0.17577,0.429703 0.17578,0.65625 -1e-5,0.343765 -0.13282,0.648452 -0.39844,0.914063 -0.26563,0.265638 -0.57422,0.398451 -0.92578,0.398437 -0.34375,1.4e-5 -0.64844,-0.132799 -0.91406,-0.398437 -0.26563,-0.265611 -0.39844,-0.570298 -0.39844,-0.914063 z"
       style="fill:#ffffff;stroke:none"
       id="path4123" />
    <path
       d="m 260.41574,37.977501 0,-0.84375 c 0.54687,1e-6 0.99609,-0.04297 1.34766,-0.128906 0.35156,-0.08594 0.52734,-0.296874 0.52734,-0.632813 l 0,-6.550781 c 0,-0.429679 -0.0645,-0.740226 -0.19336,-0.931641 -0.12891,-0.191397 -0.31445,-0.308584 -0.55664,-0.351562 -0.24219,-0.04296 -0.61719,-0.06444 -1.125,-0.06445 l 0,-0.84375 3.48047,-0.257813 0,2.34375 c 0.32031,-0.687491 0.79492,-1.24999 1.42383,-1.6875 0.6289,-0.437489 1.31444,-0.656239 2.05664,-0.65625 1.10936,1.1e-5 1.94335,0.265636 2.50195,0.796875 0.55858,0.531259 0.83788,1.343759 0.83789,2.4375 l 0,5.765625 c -10e-6,0.335939 0.17577,0.546876 0.52735,0.632813 0.35155,0.08594 0.80076,0.128907 1.34765,0.128906 l 0,0.84375 -5.49609,0 0,-0.84375 c 0.54687,1e-6 0.99608,-0.04297 1.34765,-0.128906 0.35156,-0.08594 0.52734,-0.296874 0.52735,-0.632813 l 0,-5.695312 c -1e-5,-0.781242 -0.11329,-1.42382 -0.33985,-1.927735 -0.22657,-0.503896 -0.69141,-0.755849 -1.39453,-0.755859 -0.92969,10e-6 -1.69336,0.371103 -2.29101,1.113281 -0.59766,0.742196 -0.89649,1.585945 -0.89649,2.53125 l 0,4.734375 c 0,0.335939 0.17578,0.546876 0.52735,0.632813 0.35155,0.08594 0.79687,0.128907 1.33593,0.128906 l 0,0.84375 z"
       style="fill:#ffffff;stroke:none"
       id="path4125" />
  </g>
</svg>
