<?xml version="1.0" encoding="utf-8"?>
<!-- Generator: Adobe Illustrator 16.0.0, SVG Export Plug-In . SVG Version: 6.00 Build 0)  -->
<!DOCTYPE svg PUBLIC "-//W3C//DTD SVG 1.1//EN" "http://www.w3.org/Graphics/SVG/1.1/DTD/svg11.dtd">
<svg version="1.1"
	 id="svg3020" xmlns:dc="http://purl.org/dc/elements/1.1/" xmlns:cc="http://creativecommons.org/ns#" xmlns:rdf="http://www.w3.org/1999/02/22-rdf-syntax-ns#" xmlns:svg="http://www.w3.org/2000/svg" xmlns:inkscape="http://www.inkscape.org/namespaces/inkscape"
	 xmlns="http://www.w3.org/2000/svg" xmlns:xlink="http://www.w3.org/1999/xlink" x="0px" y="0px" width="575px" height="60px"
	 viewBox="0 0 320 60" enable-background="new 0 0 320 60" xml:space="preserve">
<g id="text3030" transform="scale(0.95814898,1.043679)">
</g>
<g id="g3009" transform="matrix(1.4688253,0,0,1.4688253,-277.70507,-0.75165246)">
	<g id="flowRoot3055" transform="matrix(0.68081616,0,0,0.68081616,189.0661,0.51173714)">
	</g>
	<g id="flowRoot3063" transform="matrix(0.68081616,0,0,0.68081616,189.0661,0.51173714)">
	</g>
	<path id="path3142-1" inkscape:connector-curvature="0" fill="none" stroke="#000000" stroke-width="0.9126" d="M213.659,23.289
		h191.629"/>
	<g id="g3569" transform="matrix(0.68081616,0,0,0.68081616,66.230655,78.160046)">
	</g>
	<g id="g4198" transform="matrix(0.72702528,0,0,0.72702528,85.643642,7.9988864)">
		<g id="text4200">
			<path id="path58" inkscape:connector-curvature="0" d="M149.071,24.946c-0.876,0-1.664-0.231-2.365-0.694
				c-0.696-0.466-1.242-1.085-1.637-1.853c-0.395-0.773-0.593-1.584-0.593-2.433c0-0.629,0.112-1.251,0.337-1.866
				c0.229-0.615,0.546-1.161,0.95-1.637c0.409-0.476,0.898-0.854,1.469-1.132c0.57-0.278,1.183-0.417,1.84-0.417
				c0.651,0,1.262,0.141,1.833,0.424c0.575,0.278,1.067,0.658,1.476,1.139c0.409,0.481,0.723,1.02,0.943,1.617
				c0.22,0.598,0.33,1.222,0.33,1.873c0,0.849-0.198,1.66-0.593,2.433c-0.396,0.768-0.943,1.386-1.644,1.853
				C150.715,24.714,149.933,24.946,149.071,24.946z M146.779,23.153c0.27,0.423,0.602,0.76,0.997,1.011
				c0.396,0.247,0.827,0.371,1.294,0.371c0.301,0,0.595-0.06,0.882-0.182c0.292-0.122,0.555-0.288,0.789-0.498
				c0.238-0.212,0.44-0.445,0.606-0.701c0.548-0.826,0.822-1.963,0.822-3.409c0-1.325-0.274-2.374-0.822-3.147
				c-0.27-0.386-0.606-0.696-1.011-0.93c-0.4-0.234-0.822-0.35-1.267-0.35c-0.449,0-0.876,0.117-1.28,0.35s-0.741,0.544-1.011,0.93
				c-0.215,0.301-0.384,0.622-0.505,0.963c-0.117,0.337-0.2,0.687-0.249,1.051c-0.049,0.364-0.074,0.742-0.074,1.132
				c0,0.418,0.022,0.827,0.067,1.226c0.049,0.395,0.137,0.784,0.263,1.165C146.411,22.518,146.577,22.857,146.779,23.153z"/>
		</g>
		<g id="text4202">
			<path id="path61" inkscape:connector-curvature="0" d="M154.773,27.492v-0.27c0-0.016,0.007-0.034,0.02-0.054l1.561-1.727
				c0.236-0.255,0.427-0.469,0.574-0.643c0.147-0.174,0.293-0.373,0.437-0.598c0.144-0.227,0.257-0.455,0.338-0.688
				c0.085-0.236,0.128-0.484,0.128-0.746c0-0.274-0.05-0.536-0.152-0.785c-0.102-0.252-0.254-0.454-0.456-0.604
				c-0.2-0.15-0.442-0.226-0.727-0.226c-0.291,0-0.553,0.089-0.785,0.265c-0.232,0.173-0.396,0.4-0.491,0.678
				c0.026-0.007,0.062-0.011,0.108-0.011c0.15,0,0.278,0.051,0.383,0.153c0.108,0.102,0.162,0.232,0.162,0.392
				c0,0.154-0.054,0.285-0.162,0.393c-0.105,0.104-0.232,0.157-0.383,0.157c-0.157,0-0.289-0.055-0.397-0.163
				c-0.105-0.112-0.157-0.24-0.157-0.388c0-0.251,0.048-0.487,0.143-0.706c0.095-0.223,0.23-0.419,0.407-0.589
				c0.18-0.174,0.381-0.306,0.604-0.398c0.226-0.091,0.465-0.137,0.717-0.137c0.383,0,0.739,0.081,1.07,0.245
				c0.33,0.16,0.592,0.39,0.785,0.687c0.193,0.294,0.289,0.64,0.289,1.035c0,0.292-0.064,0.568-0.191,0.83
				c-0.128,0.262-0.291,0.5-0.491,0.716c-0.199,0.213-0.454,0.455-0.765,0.726c-0.311,0.272-0.515,0.453-0.613,0.544l-1.139,1.096
				h0.967c0.474,0,0.87-0.004,1.187-0.011c0.321-0.009,0.491-0.022,0.51-0.038c0.079-0.086,0.159-0.395,0.241-0.927h0.294
				l-0.284,1.791H154.773z"/>
		</g>
		<g id="text4204">
			<path id="path64" inkscape:connector-curvature="0" d="M172.242,19.374h-7.991v-1.078h7.991V19.374z M172.242,22.203h-7.991
				v-1.077h7.991V22.203z"/>
		</g>
		<g id="text4206">
			<path id="path67" inkscape:connector-curvature="0" d="M177.387,14.143v-0.37c0-0.022,0.009-0.047,0.027-0.074l2.143-2.372
				c0.323-0.35,0.586-0.644,0.788-0.883c0.202-0.238,0.402-0.512,0.6-0.822c0.198-0.31,0.353-0.625,0.465-0.943
				c0.117-0.323,0.175-0.665,0.175-1.024c0-0.377-0.069-0.737-0.209-1.078c-0.139-0.346-0.348-0.622-0.627-0.829
				c-0.274-0.206-0.606-0.31-0.997-0.31c-0.4,0-0.759,0.121-1.078,0.363c-0.319,0.238-0.544,0.548-0.674,0.93
				c0.036-0.009,0.086-0.013,0.148-0.013c0.207,0,0.382,0.069,0.526,0.209c0.148,0.139,0.222,0.319,0.222,0.539
				c0,0.211-0.074,0.391-0.222,0.539c-0.144,0.144-0.319,0.216-0.526,0.216c-0.215,0-0.397-0.074-0.546-0.222
				c-0.144-0.153-0.216-0.331-0.216-0.533c0-0.346,0.065-0.669,0.195-0.97c0.13-0.305,0.317-0.575,0.559-0.808
				c0.247-0.238,0.524-0.42,0.829-0.546c0.31-0.126,0.638-0.188,0.984-0.188c0.525,0,1.015,0.112,1.469,0.337
				c0.454,0.22,0.813,0.535,1.078,0.944c0.265,0.404,0.397,0.878,0.397,1.422c0,0.4-0.087,0.78-0.262,1.139
				c-0.175,0.359-0.4,0.687-0.674,0.984c-0.274,0.292-0.625,0.625-1.051,0.997c-0.427,0.373-0.707,0.622-0.842,0.748l-1.563,1.503
				h1.327c0.652,0,1.195-0.005,1.631-0.013c0.44-0.014,0.674-0.032,0.701-0.054c0.108-0.117,0.218-0.541,0.33-1.273h0.404
				l-0.391,2.459H177.387z"/>
			<path id="path69" inkscape:connector-curvature="0" d="M187.05,14.446c-1.128,0-1.896-0.463-2.305-1.388
				c-0.404-0.93-0.606-2.035-0.606-3.316c0-0.799,0.072-1.552,0.216-2.257c0.148-0.706,0.438-1.303,0.869-1.792
				c0.436-0.494,1.044-0.741,1.826-0.741c0.607,0,1.103,0.148,1.489,0.444c0.386,0.297,0.681,0.681,0.883,1.152
				c0.202,0.467,0.339,0.97,0.411,1.509c0.076,0.535,0.114,1.096,0.114,1.684c0,0.791-0.074,1.532-0.222,2.224
				c-0.144,0.688-0.429,1.274-0.856,1.759C188.443,14.206,187.836,14.446,187.05,14.446z M187.05,14.089
				c0.512,0,0.894-0.262,1.146-0.788c0.251-0.525,0.406-1.107,0.465-1.745c0.059-0.638,0.088-1.316,0.088-2.035
				c0-0.692-0.029-1.33-0.088-1.914c-0.058-0.584-0.213-1.112-0.465-1.583c-0.247-0.476-0.629-0.714-1.146-0.714
				c-0.521,0-0.907,0.238-1.159,0.714c-0.251,0.476-0.406,1.006-0.465,1.59c-0.059,0.579-0.088,1.215-0.088,1.907
				c0,0.512,0.011,0.995,0.034,1.449c0.027,0.454,0.094,0.923,0.202,1.408c0.108,0.481,0.281,0.888,0.519,1.22
				C186.336,13.925,186.655,14.089,187.05,14.089z"/>
		</g>
		<g id="text4208">
			<path id="path72" inkscape:connector-curvature="0" d="M192.143,13.381c0-0.207,0.076-0.384,0.229-0.532
				c0.153-0.148,0.33-0.222,0.533-0.222c0.126,0,0.249,0.033,0.37,0.101c0.121,0.067,0.216,0.161,0.283,0.283
				c0.067,0.121,0.101,0.245,0.101,0.37c0,0.202-0.074,0.38-0.222,0.532c-0.148,0.153-0.326,0.229-0.532,0.229
				c-0.203,0-0.38-0.076-0.533-0.229C192.22,13.761,192.143,13.583,192.143,13.381z"/>
		</g>
		<g id="text4210">
			<path id="path75" inkscape:connector-curvature="0" d="M196.407,13.563c0.251,0.297,0.69,0.445,1.314,0.445
				c0.35,0,0.676-0.119,0.977-0.357c0.305-0.238,0.541-0.53,0.707-0.876c0.193-0.391,0.317-0.807,0.371-1.246
				c0.054-0.445,0.081-0.995,0.08-1.651c-0.157,0.373-0.384,0.679-0.68,0.916c-0.292,0.238-0.629,0.357-1.01,0.357
				c-0.535,0-1.013-0.144-1.435-0.431c-0.418-0.292-0.739-0.674-0.964-1.145c-0.225-0.476-0.337-0.982-0.337-1.516
				c0-0.552,0.126-1.067,0.378-1.543c0.251-0.481,0.599-0.86,1.044-1.139c0.444-0.283,0.95-0.424,1.516-0.424
				c0.557,0,1.022,0.153,1.395,0.458c0.377,0.301,0.665,0.692,0.862,1.172c0.198,0.476,0.335,0.981,0.411,1.516
				c0.081,0.535,0.122,1.062,0.122,1.583c0,0.71-0.13,1.435-0.391,2.176c-0.261,0.737-0.652,1.352-1.172,1.846
				c-0.517,0.494-1.141,0.742-1.873,0.742c-0.544,0-1.004-0.128-1.381-0.384c-0.377-0.256-0.566-0.642-0.566-1.159
				c0-0.189,0.063-0.346,0.189-0.472c0.13-0.13,0.289-0.195,0.478-0.195c0.184,0,0.339,0.065,0.465,0.195
				c0.13,0.126,0.195,0.283,0.195,0.472c0,0.18-0.065,0.335-0.195,0.465c-0.13,0.13-0.285,0.195-0.465,0.195H196.407z
				 M198.219,10.787c0.378,0,0.685-0.126,0.923-0.378c0.243-0.256,0.418-0.572,0.526-0.95c0.108-0.377,0.161-0.752,0.161-1.125
				V8.072V8.018c0-0.692-0.101-1.31-0.303-1.853c-0.202-0.543-0.588-0.815-1.159-0.815c-0.364,0-0.661,0.081-0.89,0.243
				c-0.224,0.157-0.39,0.368-0.498,0.633c-0.108,0.265-0.177,0.548-0.209,0.849c-0.027,0.301-0.04,0.629-0.04,0.984
				c0,0.521,0.025,0.966,0.074,1.334c0.049,0.369,0.184,0.694,0.404,0.977C197.428,10.648,197.765,10.787,198.219,10.787
				L198.219,10.787z"/>
		</g>
		<g id="text4212">
			<path id="path78" inkscape:connector-curvature="0" d="M204.421,14.642c0-0.054,0.013-0.101,0.04-0.142l6.253-9.312
				c-0.553,0.31-1.161,0.465-1.826,0.465c-0.719,0-1.408-0.187-2.069-0.559c0.184,0.44,0.276,0.932,0.276,1.476
				c0,0.297-0.036,0.604-0.108,0.923c-0.067,0.315-0.173,0.613-0.316,0.896c-0.144,0.278-0.331,0.51-0.56,0.694
				c-0.224,0.18-0.489,0.27-0.795,0.27c-0.432,0-0.802-0.144-1.112-0.431c-0.31-0.288-0.544-0.647-0.701-1.078
				c-0.153-0.432-0.229-0.856-0.229-1.274c0-0.409,0.076-0.829,0.229-1.26c0.157-0.436,0.391-0.797,0.701-1.085
				c0.31-0.288,0.68-0.431,1.112-0.431c0.341,0,0.653,0.137,0.936,0.411c0.741,0.727,1.62,1.091,2.635,1.091
				c0.544,0,1.051-0.119,1.523-0.357c0.472-0.242,0.858-0.588,1.159-1.037c0.045-0.072,0.117-0.108,0.216-0.108
				c0.081,0,0.146,0.025,0.195,0.074c0.054,0.049,0.081,0.117,0.081,0.202c0,0.049-0.013,0.094-0.04,0.135l-7.123,10.626
				c-0.04,0.058-0.108,0.087-0.202,0.087c-0.076,0-0.142-0.029-0.195-0.087C204.448,14.772,204.421,14.709,204.421,14.642z
				 M205.317,8.995c0.454,0,0.797-0.27,1.031-0.809c0.234-0.544,0.351-1.082,0.351-1.617c0-0.301-0.05-0.642-0.149-1.024
				c-0.094-0.386-0.245-0.714-0.451-0.984c-0.207-0.274-0.467-0.411-0.781-0.411c-0.459,0-0.762,0.256-0.91,0.768
				c-0.148,0.508-0.222,1.062-0.222,1.664c0,0.579,0.076,1.128,0.229,1.644C204.567,8.739,204.867,8.995,205.317,8.995z
				 M211.428,14.918c-0.431,0-0.802-0.144-1.112-0.431c-0.31-0.288-0.544-0.647-0.701-1.078c-0.153-0.436-0.23-0.862-0.23-1.28
				c0-0.409,0.077-0.829,0.23-1.26c0.157-0.436,0.39-0.797,0.701-1.085c0.31-0.288,0.681-0.431,1.112-0.431
				c0.4,0,0.734,0.153,1.004,0.458c0.27,0.301,0.465,0.665,0.587,1.091c0.126,0.427,0.188,0.835,0.188,1.226
				c0,0.296-0.036,0.602-0.108,0.916c-0.067,0.315-0.173,0.615-0.316,0.903c-0.139,0.283-0.324,0.514-0.553,0.694
				C212.005,14.826,211.738,14.918,211.428,14.918z M211.428,14.554c0.31,0,0.57-0.137,0.781-0.411
				c0.211-0.278,0.364-0.609,0.458-0.99c0.095-0.382,0.142-0.723,0.142-1.024c0-0.53-0.117-1.064-0.351-1.604
				c-0.233-0.539-0.577-0.809-1.031-0.809c-0.458,0-0.762,0.256-0.91,0.768c-0.148,0.508-0.222,1.06-0.222,1.658
				c0,0.584,0.076,1.132,0.229,1.644S210.979,14.554,211.428,14.554z"/>
		</g>
		<g id="text4214">
			<path id="path81" inkscape:connector-curvature="0" d="M218.951,8.456c-0.103,0-0.198-0.043-0.283-0.128
				c-0.081-0.09-0.121-0.189-0.121-0.297c0-0.153,0.065-0.262,0.195-0.33l1.988-0.943l-1.988-0.923
				c-0.13-0.067-0.195-0.177-0.195-0.33c0-0.117,0.04-0.218,0.121-0.303s0.175-0.128,0.283-0.128c0.072,0,0.139,0.025,0.202,0.074
				l1.752,1.28l-0.203-2.237l-0.013-0.027c0-0.103,0.04-0.191,0.121-0.262c0.086-0.072,0.182-0.108,0.29-0.108
				c0.099,0,0.188,0.034,0.269,0.101c0.086,0.067,0.128,0.157,0.128,0.269V4.19l-0.215,2.237l1.752-1.28
				c0.063-0.049,0.13-0.074,0.202-0.074c0.112,0,0.207,0.043,0.283,0.128c0.081,0.086,0.122,0.187,0.122,0.303
				c0,0.153-0.065,0.263-0.196,0.33l-1.988,0.923l1.988,0.943c0.13,0.068,0.196,0.177,0.196,0.33c0,0.108-0.041,0.207-0.122,0.297
				c-0.076,0.085-0.171,0.128-0.283,0.128c-0.076,0-0.144-0.022-0.202-0.068l-1.752-1.28l0.215,2.23v0.027
				c0,0.108-0.043,0.198-0.128,0.27c-0.081,0.072-0.171,0.107-0.269,0.107c-0.108,0-0.204-0.036-0.29-0.107
				c-0.081-0.077-0.121-0.166-0.121-0.27l0.013-0.027l0.203-2.23l-1.752,1.28C219.099,8.433,219.032,8.456,218.951,8.456z"/>
		</g>
		<g id="text4216">
			<path id="path84" inkscape:connector-curvature="0" d="M231.679,17.116c-0.512-0.404-0.955-0.869-1.327-1.395
				c-0.369-0.521-0.672-1.078-0.91-1.671c-0.234-0.593-0.409-1.213-0.525-1.86c-0.117-0.647-0.175-1.296-0.175-1.947
				c0-0.66,0.058-1.314,0.175-1.961c0.117-0.647,0.294-1.269,0.532-1.866c0.242-0.598,0.55-1.157,0.923-1.678
				c0.373-0.521,0.808-0.977,1.307-1.368c0-0.018,0.022-0.027,0.067-0.027h0.128c0.027,0,0.052,0.013,0.074,0.04
				c0.022,0.022,0.034,0.049,0.034,0.081c0,0.04-0.009,0.069-0.027,0.088c-0.449,0.44-0.824,0.912-1.125,1.415
				c-0.297,0.503-0.537,1.04-0.721,1.61c-0.18,0.566-0.31,1.155-0.391,1.765c-0.08,0.607-0.121,1.24-0.121,1.9
				c0,2.925,0.782,5.146,2.345,6.664c0.027,0.027,0.041,0.065,0.041,0.114c0,0.022-0.014,0.047-0.041,0.074
				c-0.022,0.032-0.045,0.047-0.067,0.047h-0.128C231.701,17.143,231.679,17.134,231.679,17.116z"/>
		</g>
		<g id="text4218">
			<path id="path87" inkscape:connector-curvature="0" d="M233.457,14.143v-0.485c0.315,0,0.573-0.025,0.775-0.074
				c0.202-0.049,0.303-0.171,0.303-0.363V9.453c0-0.247-0.038-0.425-0.115-0.532c-0.072-0.112-0.177-0.18-0.316-0.203
				c-0.139-0.027-0.355-0.04-0.647-0.04V8.193l1.974-0.148v1.348c0.148-0.4,0.359-0.723,0.633-0.97
				c0.274-0.251,0.606-0.377,0.997-0.377c0.274,0,0.519,0.081,0.734,0.242c0.216,0.162,0.324,0.375,0.324,0.64
				c0,0.166-0.061,0.312-0.182,0.438c-0.117,0.121-0.263,0.182-0.438,0.182c-0.171,0-0.317-0.061-0.438-0.182
				c-0.121-0.121-0.182-0.267-0.182-0.438c0-0.247,0.088-0.422,0.263-0.525h-0.081c-0.373,0-0.678,0.135-0.916,0.404
				c-0.234,0.269-0.4,0.604-0.498,1.004c-0.099,0.4-0.149,0.781-0.149,1.145v2.264c0,0.292,0.447,0.438,1.341,0.438v0.485H233.457z"
				/>
			<path id="path89" inkscape:connector-curvature="0" d="M238.902,14.143v-0.485c0.315,0,0.573-0.025,0.775-0.074
				c0.202-0.049,0.303-0.171,0.303-0.363V9.453c0-0.247-0.038-0.425-0.114-0.532c-0.072-0.112-0.177-0.18-0.317-0.203
				c-0.139-0.027-0.355-0.04-0.647-0.04V8.193l2.001-0.148v1.348c0.184-0.396,0.456-0.719,0.815-0.97
				c0.364-0.251,0.759-0.377,1.186-0.377c1.06,0,1.682,0.431,1.866,1.294c0.184-0.386,0.454-0.698,0.808-0.936
				s0.743-0.357,1.166-0.357c0.417,0,0.768,0.067,1.051,0.202c0.287,0.134,0.503,0.341,0.647,0.62
				c0.144,0.274,0.216,0.62,0.216,1.037v3.316c0,0.193,0.101,0.314,0.303,0.363c0.207,0.049,0.465,0.074,0.775,0.074v0.485h-3.16
				v-0.485c0.315,0,0.573-0.025,0.775-0.074c0.202-0.049,0.303-0.171,0.303-0.363V9.945c0-0.463-0.065-0.836-0.195-1.119
				c-0.13-0.283-0.398-0.424-0.802-0.424c-0.53,0-0.968,0.213-1.314,0.64c-0.346,0.427-0.519,0.912-0.519,1.455v2.722
				c0,0.193,0.101,0.314,0.303,0.363c0.202,0.049,0.46,0.074,0.775,0.074v0.485h-3.16v-0.485c0.315,0,0.573-0.025,0.775-0.074
				c0.202-0.049,0.303-0.171,0.303-0.363V9.945c0-0.449-0.065-0.818-0.195-1.105c-0.13-0.292-0.398-0.438-0.802-0.438
				c-0.535,0-0.975,0.213-1.321,0.64c-0.342,0.427-0.512,0.912-0.512,1.455v2.722c0,0.193,0.101,0.314,0.303,0.363
				c0.202,0.049,0.458,0.074,0.768,0.074v0.485H238.902z"/>
			<path id="path91" inkscape:connector-curvature="0" d="M254.858,14.298l-3.255-8.658c-0.081-0.193-0.236-0.315-0.465-0.364
				c-0.229-0.049-0.521-0.074-0.876-0.074V4.716h3.794v0.485c-0.764,0-1.145,0.119-1.145,0.357c0.005,0.013,0.007,0.027,0.007,0.04
				c0.005,0.009,0.007,0.023,0.007,0.041l2.648,7.041l2.5-6.664c0.018-0.036,0.027-0.092,0.027-0.168
				c0-0.225-0.103-0.389-0.31-0.492c-0.207-0.103-0.438-0.155-0.694-0.155V4.716h2.979v0.485c-0.346,0-0.652,0.065-0.916,0.195
				c-0.261,0.126-0.447,0.332-0.56,0.62l-3.12,8.281c-0.027,0.099-0.101,0.149-0.222,0.149h-0.175
				C254.959,14.446,254.885,14.397,254.858,14.298z"/>
			<path id="path93" inkscape:connector-curvature="0" d="M263.8,14.298c-0.552,0-1.064-0.139-1.536-0.417
				c-0.471-0.283-0.845-0.66-1.118-1.132c-0.274-0.472-0.411-0.986-0.411-1.543c0-0.422,0.074-0.829,0.222-1.219
				c0.153-0.391,0.369-0.739,0.647-1.044c0.283-0.31,0.611-0.551,0.984-0.721c0.373-0.175,0.777-0.263,1.213-0.263
				c0.566,0,1.08,0.15,1.543,0.452c0.467,0.296,0.835,0.696,1.105,1.199c0.269,0.498,0.404,1.031,0.404,1.597
				c0,0.553-0.137,1.067-0.411,1.543c-0.274,0.472-0.647,0.849-1.118,1.132C264.855,14.159,264.348,14.298,263.8,14.298z
				 M263.8,13.893c0.737,0,1.229-0.267,1.476-0.802c0.247-0.535,0.371-1.215,0.371-2.042c0-0.463-0.025-0.845-0.074-1.145
				c-0.049-0.305-0.157-0.582-0.323-0.829c-0.103-0.153-0.236-0.285-0.398-0.397c-0.157-0.117-0.326-0.204-0.505-0.263
				c-0.175-0.063-0.357-0.094-0.546-0.094c-0.287,0-0.561,0.065-0.822,0.195c-0.256,0.13-0.469,0.317-0.64,0.559
				c-0.171,0.261-0.281,0.548-0.33,0.863c-0.045,0.31-0.067,0.68-0.067,1.112c0,0.517,0.045,0.982,0.135,1.395
				c0.09,0.409,0.269,0.752,0.539,1.031C262.888,13.754,263.283,13.893,263.8,13.893z"/>
			<path id="path95" inkscape:connector-curvature="0" d="M267.674,14.143v-0.485c0.314,0,0.572-0.025,0.775-0.074
				c0.203-0.049,0.304-0.171,0.304-0.363V5.976c0-0.247-0.038-0.425-0.115-0.533c-0.072-0.112-0.177-0.18-0.317-0.202
				c-0.139-0.027-0.355-0.04-0.647-0.04V4.716l2.048-0.148v8.652c0,0.193,0.101,0.314,0.303,0.363
				c0.202,0.049,0.458,0.074,0.768,0.074v0.485H267.674z"/>
		</g>
		<g id="text4220" transform="scale(1.4742771,0.67829854)">
			<path id="path98" inkscape:connector-curvature="0" d="M187.083,17.085v-1.261h5.384v1.261H187.083z"/>
		</g>
		<g id="text4222">
			<path id="path101" inkscape:connector-curvature="0" d="M291.519,14.143l-2.015-5.067c-0.085-0.171-0.218-0.278-0.398-0.323
				c-0.175-0.049-0.406-0.074-0.694-0.074V8.193h2.898v0.485c-0.517,0-0.775,0.11-0.775,0.33c0,0.036,0.005,0.063,0.014,0.081
				l1.55,3.895l1.395-3.518c0.027-0.072,0.04-0.146,0.04-0.222c0-0.175-0.067-0.312-0.201-0.411
				c-0.131-0.103-0.285-0.155-0.465-0.155V8.193h2.291v0.485c-0.283,0-0.532,0.065-0.748,0.195c-0.21,0.13-0.375,0.324-0.492,0.58
				l-1.859,4.69c-0.036,0.103-0.11,0.155-0.223,0.155h-0.101C291.623,14.298,291.551,14.246,291.519,14.143z"/>
			<path id="path103" inkscape:connector-curvature="0" d="M298.878,14.298c-0.552,0-1.064-0.139-1.536-0.417
				c-0.472-0.283-0.845-0.66-1.119-1.132c-0.273-0.472-0.411-0.986-0.411-1.543c0-0.422,0.074-0.829,0.222-1.219
				c0.153-0.391,0.369-0.739,0.647-1.044c0.283-0.31,0.611-0.551,0.984-0.721c0.372-0.175,0.776-0.263,1.213-0.263
				c0.565,0,1.08,0.15,1.543,0.452c0.467,0.296,0.835,0.696,1.106,1.199c0.269,0.498,0.404,1.031,0.404,1.597
				c0,0.553-0.137,1.067-0.412,1.543c-0.274,0.472-0.647,0.849-1.118,1.132C299.933,14.159,299.426,14.298,298.878,14.298z
				 M298.878,13.893c0.736,0,1.228-0.267,1.476-0.802c0.247-0.535,0.369-1.215,0.369-2.042c0-0.463-0.024-0.845-0.073-1.145
				c-0.049-0.305-0.157-0.582-0.324-0.829c-0.103-0.153-0.236-0.285-0.398-0.397c-0.157-0.117-0.326-0.204-0.506-0.263
				c-0.175-0.063-0.357-0.094-0.545-0.094c-0.287,0-0.561,0.065-0.823,0.195c-0.256,0.13-0.468,0.317-0.64,0.559
				c-0.17,0.261-0.28,0.548-0.329,0.863c-0.046,0.31-0.068,0.68-0.068,1.112c0,0.517,0.045,0.982,0.135,1.395
				c0.09,0.409,0.269,0.752,0.539,1.031C297.965,13.754,298.36,13.893,298.878,13.893z"/>
			<path id="path105" inkscape:connector-curvature="0" d="M302.752,14.143v-0.485c0.315,0,0.572-0.025,0.775-0.074
				c0.202-0.049,0.304-0.171,0.304-0.363V5.976c0-0.247-0.038-0.425-0.115-0.533c-0.071-0.112-0.177-0.18-0.316-0.202
				c-0.139-0.027-0.355-0.04-0.647-0.04V4.716l2.048-0.148v8.652c0,0.193,0.102,0.314,0.304,0.363
				c0.202,0.049,0.458,0.074,0.768,0.074v0.485H302.752z"/>
			<path id="path107" inkscape:connector-curvature="0" d="M306.613,14.143v-0.485c0.948,0,1.422-0.146,1.422-0.438V5.639
				c0-0.292-0.474-0.438-1.422-0.438V4.716h5.088c0.629,0,1.203,0.137,1.725,0.411c0.521,0.269,0.966,0.631,1.334,1.085
				c0.369,0.454,0.651,0.968,0.849,1.543c0.202,0.575,0.304,1.164,0.304,1.765c0,0.584-0.102,1.152-0.304,1.705
				c-0.202,0.548-0.494,1.045-0.875,1.489c-0.379,0.44-0.827,0.788-1.348,1.044c-0.518,0.256-1.079,0.384-1.684,0.384H306.613z
				 M309.275,13.22c0,0.198,0.056,0.321,0.168,0.37c0.112,0.045,0.29,0.067,0.533,0.067h1.367c0.472,0,0.919-0.101,1.342-0.303
				c0.426-0.207,0.779-0.492,1.057-0.856c0.293-0.386,0.487-0.818,0.586-1.294c0.1-0.481,0.149-1.042,0.149-1.684
				c0-0.669-0.049-1.256-0.149-1.759c-0.099-0.503-0.294-0.952-0.586-1.348c-0.274-0.391-0.622-0.69-1.044-0.896
				c-0.422-0.211-0.874-0.317-1.354-0.317h-1.367c-0.166,0-0.297,0.007-0.391,0.02c-0.09,0.013-0.165,0.054-0.223,0.121
				c-0.058,0.063-0.087,0.162-0.087,0.297V13.22z"/>
			<path id="path109" inkscape:connector-curvature="0" d="M317.118,14.143v-0.485c0.315,0,0.572-0.025,0.775-0.074
				c0.202-0.049,0.303-0.171,0.303-0.363V9.453c0-0.355-0.069-0.573-0.208-0.654c-0.134-0.081-0.404-0.121-0.808-0.121V8.193
				l1.988-0.148v5.175c0,0.193,0.088,0.314,0.262,0.363c0.175,0.049,0.409,0.074,0.701,0.074v0.485H317.118z M317.704,5.673
				c0-0.202,0.077-0.38,0.23-0.532c0.152-0.153,0.327-0.229,0.525-0.229c0.13,0,0.256,0.034,0.377,0.101
				c0.122,0.068,0.216,0.162,0.283,0.283c0.068,0.121,0.101,0.247,0.101,0.377c0,0.198-0.076,0.373-0.229,0.526
				c-0.153,0.153-0.33,0.229-0.532,0.229c-0.198,0-0.373-0.076-0.525-0.229C317.78,6.046,317.704,5.871,317.704,5.673z"/>
			<path id="path111" inkscape:connector-curvature="0" d="M320.979,14.183v-2.251c0-0.072,0.04-0.108,0.121-0.108h0.168
				c0.055,0,0.091,0.036,0.108,0.108c0.256,1.334,0.876,2.001,1.86,2.001c0.435,0,0.799-0.099,1.092-0.297
				c0.296-0.198,0.444-0.503,0.444-0.916c0-0.297-0.114-0.548-0.344-0.755c-0.229-0.211-0.501-0.355-0.815-0.431l-0.923-0.182
				c-0.311-0.067-0.594-0.171-0.85-0.31c-0.251-0.139-0.458-0.324-0.62-0.553c-0.162-0.234-0.242-0.503-0.242-0.808
				c0-0.405,0.105-0.735,0.316-0.991c0.216-0.26,0.494-0.447,0.836-0.559c0.341-0.117,0.71-0.175,1.105-0.175
				c0.472,0,0.883,0.126,1.233,0.377l0.399-0.343c0-0.022,0.022-0.034,0.067-0.034h0.102c0.027,0,0.051,0.014,0.073,0.041
				c0.023,0.022,0.035,0.047,0.035,0.074v1.806c0,0.085-0.037,0.128-0.108,0.128h-0.168c-0.081,0-0.123-0.043-0.123-0.128
				c0-0.481-0.134-0.867-0.404-1.159c-0.265-0.292-0.637-0.438-1.117-0.438c-0.413,0-0.774,0.076-1.079,0.229
				c-0.3,0.153-0.451,0.416-0.451,0.789c0,0.256,0.107,0.467,0.323,0.633c0.22,0.162,0.476,0.278,0.768,0.35l0.936,0.176
				c0.315,0.072,0.607,0.193,0.876,0.364c0.274,0.171,0.49,0.386,0.647,0.647c0.161,0.261,0.242,0.555,0.242,0.882
				c0,0.333-0.058,0.622-0.175,0.87c-0.112,0.242-0.273,0.444-0.479,0.606c-0.201,0.162-0.443,0.281-0.721,0.357
				s-0.571,0.114-0.876,0.114c-0.574,0-1.066-0.193-1.476-0.579l-0.505,0.546c0,0.022-0.025,0.033-0.074,0.033H321.1
				C321.02,14.298,320.979,14.26,320.979,14.183z"/>
			<path id="path113" inkscape:connector-curvature="0" d="M326.41,14.143v-0.485c0.823,0,1.328-0.272,1.516-0.815l2.898-8.429
				c0.027-0.099,0.102-0.149,0.222-0.149h0.176c0.121,0,0.196,0.049,0.221,0.149l3.026,8.807c0.085,0.193,0.248,0.314,0.486,0.363
				c0.242,0.049,0.543,0.074,0.903,0.074v0.485h-3.847v-0.485c0.764,0,1.145-0.123,1.145-0.37V13.22l-0.748-2.156h-3.349
				l-0.62,1.779c-0.009,0.032-0.013,0.079-0.013,0.142c0,0.229,0.108,0.4,0.324,0.512c0.219,0.108,0.455,0.161,0.707,0.161v0.485
				H326.41z M329.22,10.585h3.026l-1.516-4.407L329.22,10.585z"/>
			<path id="path115" inkscape:connector-curvature="0" d="M336.74,14.143v-0.485c0.315,0,0.572-0.025,0.775-0.074
				c0.201-0.049,0.303-0.171,0.303-0.363V9.453c0-0.355-0.069-0.573-0.208-0.654c-0.134-0.081-0.405-0.121-0.809-0.121V8.193
				l1.988-0.148v5.175c0,0.193,0.088,0.314,0.263,0.363c0.175,0.049,0.408,0.074,0.701,0.074v0.485H336.74z M337.327,5.673
				c0-0.202,0.076-0.38,0.229-0.532c0.153-0.153,0.327-0.229,0.525-0.229c0.131,0,0.256,0.034,0.378,0.101
				c0.122,0.068,0.216,0.162,0.283,0.283c0.068,0.121,0.102,0.247,0.102,0.377c0,0.198-0.076,0.373-0.23,0.526
				c-0.152,0.153-0.329,0.229-0.532,0.229c-0.198,0-0.372-0.076-0.525-0.229C337.403,6.046,337.327,5.871,337.327,5.673
				L337.327,5.673z"/>
			<path id="path117" inkscape:connector-curvature="0" d="M340.5,14.143v-0.485c0.315,0,0.572-0.025,0.775-0.074
				s0.303-0.171,0.303-0.363V9.453c0-0.247-0.038-0.425-0.113-0.532c-0.072-0.112-0.177-0.18-0.317-0.203
				c-0.139-0.027-0.355-0.04-0.647-0.04V8.193l1.973-0.148v1.348c0.149-0.4,0.36-0.723,0.635-0.97
				c0.273-0.251,0.605-0.377,0.997-0.377c0.274,0,0.519,0.081,0.734,0.242c0.215,0.162,0.323,0.375,0.323,0.64
				c0,0.166-0.06,0.312-0.181,0.438c-0.117,0.121-0.263,0.182-0.439,0.182c-0.17,0-0.316-0.061-0.437-0.182
				c-0.122-0.121-0.182-0.267-0.182-0.438c0-0.247,0.087-0.422,0.262-0.525h-0.08c-0.373,0-0.679,0.135-0.916,0.404
				c-0.234,0.269-0.401,0.604-0.499,1.004c-0.099,0.4-0.148,0.781-0.148,1.145v2.264c0,0.292,0.447,0.438,1.341,0.438v0.485H340.5z"
				/>
		</g>
		<g id="text4224">
			<path id="path120" inkscape:connector-curvature="0" d="M348.597,17.143c-0.081,0-0.123-0.04-0.123-0.121
				c0-0.04,0.009-0.07,0.027-0.087c1.573-1.536,2.358-3.767,2.358-6.691s-0.776-5.146-2.331-6.664
				c-0.037-0.022-0.055-0.06-0.055-0.114c0-0.032,0.012-0.059,0.035-0.081c0.027-0.027,0.056-0.04,0.088-0.04h0.128
				c0.027,0,0.049,0.009,0.067,0.027c0.66,0.521,1.211,1.155,1.651,1.9c0.441,0.745,0.762,1.54,0.964,2.385
				c0.207,0.845,0.31,1.707,0.31,2.588c0,0.652-0.056,1.294-0.169,1.927c-0.107,0.629-0.282,1.249-0.525,1.86
				c-0.238,0.615-0.541,1.182-0.909,1.698c-0.369,0.521-0.809,0.984-1.321,1.388c-0.017,0.018-0.04,0.027-0.067,0.027H348.597z"/>
		</g>
		<g id="text4226">
			<path id="path123" inkscape:connector-curvature="0" d="M357.551,8.456c-0.103,0-0.198-0.043-0.283-0.128
				c-0.081-0.09-0.123-0.189-0.123-0.297c0-0.153,0.066-0.262,0.196-0.33l1.988-0.943l-1.988-0.923
				c-0.13-0.067-0.196-0.177-0.196-0.33c0-0.117,0.041-0.218,0.123-0.303c0.08-0.086,0.175-0.128,0.283-0.128
				c0.072,0,0.139,0.025,0.202,0.074l1.752,1.28l-0.203-2.237l-0.013-0.027c0-0.103,0.04-0.191,0.121-0.262
				c0.086-0.072,0.183-0.108,0.291-0.108c0.099,0,0.188,0.034,0.269,0.101c0.086,0.067,0.128,0.157,0.128,0.269V4.19l-0.216,2.237
				l1.752-1.28c0.062-0.049,0.13-0.074,0.202-0.074c0.112,0,0.207,0.043,0.283,0.128c0.081,0.086,0.122,0.187,0.122,0.303
				c0,0.153-0.065,0.263-0.195,0.33l-1.988,0.923l1.988,0.943c0.13,0.068,0.195,0.177,0.195,0.33c0,0.108-0.04,0.207-0.122,0.297
				c-0.076,0.085-0.17,0.128-0.283,0.128c-0.076,0-0.144-0.022-0.202-0.068l-1.752-1.28l0.216,2.23v0.027
				c0,0.108-0.042,0.198-0.128,0.27c-0.08,0.072-0.17,0.107-0.269,0.107c-0.108,0-0.205-0.036-0.291-0.107
				c-0.08-0.077-0.121-0.166-0.121-0.27l0.013-0.027l0.203-2.23l-1.752,1.28C357.699,8.433,357.632,8.456,357.551,8.456z"/>
		</g>
		<g id="text4228">
			<path id="path126" inkscape:connector-curvature="0" d="M370.28,17.566c-0.512-0.405-0.955-0.869-1.328-1.395
				c-0.369-0.521-0.671-1.078-0.91-1.671c-0.233-0.593-0.409-1.213-0.526-1.86c-0.117-0.647-0.176-1.296-0.176-1.947
				c0-0.66,0.059-1.314,0.176-1.961c0.117-0.647,0.294-1.269,0.532-1.866c0.243-0.598,0.551-1.157,0.924-1.678
				c0.373-0.521,0.808-0.977,1.307-1.368c0-0.018,0.023-0.027,0.068-0.027h0.128c0.027,0,0.052,0.013,0.074,0.04
				c0.022,0.022,0.034,0.049,0.034,0.081c0,0.041-0.009,0.069-0.027,0.088c-0.45,0.44-0.825,0.912-1.126,1.415
				c-0.297,0.503-0.537,1.04-0.722,1.61c-0.179,0.566-0.309,1.155-0.39,1.766c-0.081,0.606-0.122,1.24-0.122,1.9
				c0,2.925,0.782,5.146,2.345,6.664c0.027,0.027,0.041,0.065,0.041,0.114c0,0.022-0.014,0.048-0.041,0.074
				c-0.022,0.032-0.044,0.048-0.067,0.048h-0.128C370.302,17.593,370.28,17.584,370.28,17.566z"/>
		</g>
		<g id="text4230">
			<path id="path129" inkscape:connector-curvature="0" d="M375.07,14.143l-2.016-5.067c-0.085-0.171-0.218-0.278-0.397-0.323
				c-0.176-0.049-0.407-0.074-0.694-0.074V8.193h2.897v0.485c-0.517,0-0.775,0.11-0.775,0.33c0,0.036,0.004,0.063,0.013,0.081
				l1.551,3.895l1.394-3.518c0.027-0.072,0.04-0.146,0.04-0.222c0-0.175-0.067-0.312-0.201-0.411
				c-0.131-0.103-0.285-0.155-0.465-0.155V8.193h2.291v0.485c-0.283,0-0.532,0.065-0.748,0.195c-0.21,0.13-0.375,0.324-0.492,0.58
				l-1.859,4.69c-0.036,0.103-0.111,0.155-0.222,0.155h-0.101C375.172,14.298,375.101,14.246,375.07,14.143z"/>
			<path id="path131" inkscape:connector-curvature="0" d="M382.428,14.298c-0.552,0-1.064-0.139-1.536-0.417
				c-0.472-0.283-0.845-0.66-1.119-1.132c-0.273-0.472-0.411-0.986-0.411-1.543c0-0.422,0.074-0.829,0.222-1.219
				c0.154-0.391,0.369-0.739,0.647-1.044c0.283-0.31,0.611-0.551,0.984-0.721c0.372-0.175,0.776-0.263,1.213-0.263
				c0.566,0,1.08,0.15,1.543,0.452c0.467,0.296,0.836,0.696,1.106,1.199c0.269,0.498,0.404,1.031,0.404,1.597
				c0,0.553-0.137,1.067-0.412,1.543c-0.274,0.472-0.647,0.849-1.118,1.132C383.483,14.159,382.975,14.298,382.428,14.298z
				 M382.428,13.893c0.737,0,1.228-0.267,1.476-0.802c0.247-0.535,0.369-1.215,0.369-2.042c0-0.463-0.024-0.845-0.073-1.145
				c-0.049-0.305-0.157-0.582-0.324-0.829c-0.103-0.153-0.236-0.285-0.398-0.397c-0.156-0.117-0.326-0.204-0.506-0.263
				c-0.175-0.063-0.357-0.094-0.545-0.094c-0.287,0-0.561,0.065-0.822,0.195c-0.256,0.13-0.469,0.317-0.64,0.559
				c-0.171,0.261-0.281,0.548-0.33,0.863c-0.046,0.31-0.068,0.68-0.068,1.112c0,0.517,0.045,0.982,0.135,1.395
				c0.09,0.409,0.269,0.752,0.539,1.031C381.515,13.754,381.911,13.893,382.428,13.893z"/>
			<path id="path133" inkscape:connector-curvature="0" d="M386.301,14.143v-0.485c0.315,0,0.573-0.025,0.776-0.074
				c0.202-0.049,0.304-0.171,0.304-0.363V5.976c0-0.247-0.038-0.425-0.115-0.533c-0.071-0.112-0.177-0.18-0.316-0.202
				c-0.139-0.027-0.355-0.04-0.647-0.04V4.716l2.048-0.148v8.652c0,0.193,0.102,0.314,0.304,0.363
				c0.202,0.049,0.458,0.074,0.768,0.074v0.485H386.301z"/>
			<path id="path135" inkscape:connector-curvature="0" d="M390.162,14.143v-0.485c0.948,0,1.423-0.146,1.423-0.438V5.639
				c0-0.292-0.475-0.438-1.423-0.438V4.716h5.088c0.629,0,1.203,0.137,1.725,0.411c0.521,0.269,0.966,0.631,1.334,1.085
				c0.369,0.454,0.651,0.968,0.85,1.543c0.201,0.575,0.303,1.164,0.303,1.765c0,0.584-0.102,1.152-0.303,1.705
				c-0.203,0.548-0.495,1.045-0.876,1.489c-0.378,0.44-0.827,0.788-1.348,1.044c-0.517,0.256-1.078,0.384-1.684,0.384H390.162z
				 M392.825,13.22c0,0.198,0.056,0.321,0.168,0.37c0.112,0.045,0.29,0.067,0.533,0.067h1.367c0.472,0,0.919-0.101,1.342-0.303
				c0.426-0.207,0.779-0.492,1.057-0.856c0.293-0.386,0.487-0.818,0.587-1.294c0.099-0.481,0.148-1.042,0.148-1.684
				c0-0.669-0.049-1.256-0.148-1.759c-0.1-0.503-0.294-0.952-0.587-1.348c-0.274-0.391-0.622-0.69-1.044-0.896
				c-0.422-0.211-0.873-0.317-1.354-0.317h-1.367c-0.166,0-0.297,0.007-0.391,0.02c-0.09,0.013-0.164,0.054-0.222,0.121
				c-0.059,0.063-0.088,0.162-0.088,0.297V13.22z"/>
			<path id="path137" inkscape:connector-curvature="0" d="M400.668,14.143v-0.485c0.315,0,0.572-0.025,0.775-0.074
				c0.202-0.049,0.304-0.171,0.304-0.363V9.453c0-0.355-0.07-0.573-0.209-0.654c-0.134-0.081-0.404-0.121-0.808-0.121V8.193
				l1.988-0.148v5.175c0,0.193,0.088,0.314,0.262,0.363c0.175,0.049,0.409,0.074,0.701,0.074v0.485H400.668z M401.254,5.673
				c0-0.202,0.076-0.38,0.23-0.532c0.152-0.153,0.327-0.229,0.525-0.229c0.13,0,0.256,0.034,0.377,0.101
				c0.123,0.068,0.216,0.162,0.284,0.283c0.068,0.121,0.101,0.247,0.101,0.377c0,0.198-0.076,0.373-0.229,0.526
				c-0.153,0.153-0.33,0.229-0.532,0.229c-0.198,0-0.373-0.076-0.525-0.229C401.33,6.046,401.254,5.871,401.254,5.673z"/>
			<path id="path139" inkscape:connector-curvature="0" d="M404.529,14.183v-2.251c0-0.072,0.04-0.108,0.121-0.108h0.168
				c0.055,0,0.091,0.036,0.108,0.108c0.256,1.334,0.876,2.001,1.86,2.001c0.436,0,0.799-0.099,1.092-0.297
				c0.296-0.198,0.444-0.503,0.444-0.916c0-0.297-0.114-0.548-0.344-0.755c-0.229-0.211-0.5-0.355-0.815-0.431l-0.923-0.182
				c-0.311-0.067-0.594-0.171-0.85-0.31c-0.251-0.139-0.458-0.324-0.62-0.553c-0.162-0.234-0.242-0.503-0.242-0.808
				c0-0.405,0.106-0.735,0.316-0.991c0.216-0.26,0.494-0.447,0.836-0.559c0.341-0.117,0.71-0.175,1.105-0.175
				c0.472,0,0.883,0.126,1.233,0.377l0.399-0.343c0-0.022,0.022-0.034,0.067-0.034h0.102c0.027,0,0.051,0.014,0.073,0.041
				c0.023,0.022,0.035,0.047,0.035,0.074v1.806c0,0.085-0.037,0.128-0.108,0.128h-0.168c-0.081,0-0.122-0.043-0.122-0.128
				c0-0.481-0.134-0.867-0.405-1.159c-0.264-0.292-0.637-0.438-1.117-0.438c-0.413,0-0.774,0.076-1.079,0.229
				c-0.3,0.153-0.451,0.416-0.451,0.789c0,0.256,0.108,0.467,0.323,0.633c0.221,0.162,0.477,0.278,0.768,0.35l0.937,0.176
				c0.314,0.072,0.606,0.193,0.875,0.364c0.274,0.171,0.49,0.386,0.647,0.647c0.162,0.261,0.242,0.555,0.242,0.882
				c0,0.333-0.058,0.622-0.175,0.87c-0.112,0.242-0.272,0.444-0.479,0.606c-0.201,0.162-0.443,0.281-0.721,0.357
				s-0.571,0.114-0.876,0.114c-0.574,0-1.066-0.193-1.476-0.579l-0.505,0.546c0,0.022-0.025,0.033-0.074,0.033h-0.081
				C404.569,14.298,404.529,14.26,404.529,14.183z"/>
			<path id="path141" inkscape:connector-curvature="0" d="M414.886,14.446c-0.876,0-1.664-0.231-2.366-0.694
				c-0.696-0.467-1.242-1.085-1.637-1.853c-0.395-0.773-0.593-1.583-0.593-2.433c0-0.629,0.112-1.251,0.337-1.866
				c0.23-0.615,0.546-1.161,0.95-1.637c0.409-0.476,0.899-0.853,1.47-1.132c0.571-0.278,1.183-0.417,1.839-0.417
				c0.651,0,1.263,0.141,1.833,0.424c0.575,0.278,1.067,0.658,1.476,1.139c0.409,0.481,0.723,1.02,0.943,1.617
				c0.22,0.598,0.331,1.222,0.331,1.873c0,0.849-0.198,1.66-0.594,2.433c-0.395,0.768-0.943,1.386-1.644,1.853
				C416.53,14.215,415.748,14.446,414.886,14.446z M412.595,12.654c0.269,0.422,0.602,0.759,0.997,1.01
				c0.395,0.247,0.827,0.371,1.294,0.371c0.301,0,0.595-0.061,0.883-0.182c0.293-0.121,0.555-0.288,0.788-0.499
				c0.239-0.211,0.441-0.444,0.607-0.701c0.548-0.827,0.821-1.963,0.821-3.41c0-1.325-0.273-2.374-0.821-3.147
				c-0.27-0.386-0.607-0.696-1.011-0.93c-0.4-0.234-0.821-0.35-1.267-0.35c-0.449,0-0.876,0.117-1.28,0.35s-0.742,0.544-1.011,0.93
				c-0.216,0.301-0.384,0.622-0.506,0.963c-0.116,0.337-0.2,0.687-0.25,1.051c-0.049,0.364-0.073,0.741-0.073,1.132
				c0,0.417,0.022,0.826,0.067,1.226c0.049,0.396,0.137,0.784,0.262,1.165C412.226,12.018,412.392,12.357,412.595,12.654z"/>
			<path id="path143" inkscape:connector-curvature="0" d="M420.411,14.143v-0.485c0.35,0,0.68-0.067,0.99-0.202
				c0.31-0.139,0.572-0.343,0.788-0.613l1.254-1.597l-1.631-2.123c-0.162-0.202-0.339-0.326-0.532-0.371
				c-0.189-0.049-0.456-0.074-0.803-0.074V8.193h2.872v0.485c-0.122,0-0.236,0.027-0.344,0.081
				c-0.103,0.054-0.155,0.133-0.155,0.236c0,0.036,0.014,0.079,0.04,0.128l1.106,1.435l0.829-1.064
				c0.112-0.135,0.169-0.269,0.169-0.404c0-0.112-0.038-0.209-0.115-0.29c-0.071-0.081-0.168-0.121-0.289-0.121V8.193h2.54v0.485
				c-0.355,0-0.69,0.069-1.003,0.209c-0.311,0.134-0.573,0.337-0.789,0.606l-1.091,1.395l1.765,2.332
				c0.176,0.202,0.357,0.326,0.546,0.37c0.188,0.045,0.458,0.067,0.808,0.067v0.485h-2.871v-0.485c0.112,0,0.22-0.027,0.324-0.081
				c0.103-0.053,0.155-0.132,0.155-0.236c0-0.041-0.015-0.081-0.041-0.121l-1.239-1.644l-0.991,1.267
				c-0.103,0.117-0.155,0.251-0.155,0.404c0,0.112,0.038,0.209,0.114,0.29s0.166,0.121,0.27,0.121v0.485H420.411z"/>
			<path id="path145" inkscape:connector-curvature="0" d="M428.471,16.407c0.175,0.139,0.368,0.209,0.579,0.209
				c0.58,0,1.053-0.438,1.422-1.314l0.472-1.159l-2.069-5.067c-0.086-0.171-0.216-0.278-0.391-0.323
				c-0.176-0.049-0.409-0.074-0.701-0.074V8.193h2.897v0.485c-0.508,0-0.761,0.11-0.761,0.33c0,0.036,0.005,0.063,0.013,0.081
				l1.536,3.773l1.382-3.396c0.027-0.072,0.04-0.15,0.04-0.236c0-0.112-0.031-0.209-0.094-0.289
				c-0.059-0.086-0.137-0.15-0.236-0.196c-0.094-0.045-0.202-0.067-0.324-0.067V8.193h2.292v0.485c-0.283,0-0.532,0.065-0.748,0.195
				c-0.211,0.13-0.375,0.324-0.492,0.58l-2.385,5.849c-0.126,0.297-0.274,0.568-0.445,0.815c-0.166,0.251-0.37,0.456-0.613,0.613
				c-0.243,0.162-0.508,0.243-0.796,0.243c-0.337,0-0.634-0.112-0.89-0.337c-0.251-0.22-0.377-0.494-0.377-0.822
				c0-0.171,0.059-0.315,0.176-0.431c0.116-0.117,0.26-0.175,0.431-0.175c0.117,0,0.22,0.025,0.31,0.074
				c0.094,0.054,0.166,0.126,0.216,0.215c0.054,0.09,0.08,0.196,0.08,0.317c0,0.148-0.049,0.281-0.148,0.397
				C428.749,16.328,428.622,16.393,428.471,16.407z"/>
		</g>
		<g id="text4232">
			<path id="path148" inkscape:connector-curvature="0" d="M436.496,17.593c-0.08,0-0.121-0.041-0.121-0.122
				c0-0.04,0.008-0.069,0.027-0.087c1.572-1.536,2.358-3.767,2.358-6.691c0-2.924-0.777-5.146-2.332-6.664
				c-0.036-0.022-0.054-0.061-0.054-0.115c0-0.032,0.012-0.059,0.034-0.081c0.027-0.027,0.057-0.04,0.088-0.04h0.128
				c0.027,0,0.049,0.009,0.068,0.027c0.66,0.521,1.211,1.155,1.651,1.9c0.44,0.745,0.762,1.54,0.964,2.385
				c0.207,0.845,0.31,1.707,0.31,2.588c0,0.652-0.057,1.294-0.169,1.927c-0.107,0.629-0.283,1.249-0.525,1.86
				c-0.239,0.615-0.541,1.182-0.91,1.698c-0.369,0.521-0.808,0.984-1.321,1.388c-0.018,0.018-0.04,0.027-0.068,0.027H436.496z"/>
		</g>
		<g id="text4234">
			<path id="path151" inkscape:connector-curvature="0" d="M290.007,34.799v-0.485c0.315,0,0.573-0.025,0.775-0.074
				c0.202-0.05,0.303-0.171,0.303-0.364V30.11c0-0.247-0.038-0.424-0.115-0.532c-0.072-0.112-0.177-0.179-0.316-0.202
				c-0.139-0.027-0.355-0.041-0.647-0.041V28.85l1.974-0.148v1.348c0.148-0.401,0.359-0.723,0.634-0.971
				c0.273-0.251,0.605-0.377,0.997-0.377c0.274,0,0.519,0.08,0.734,0.242c0.216,0.162,0.324,0.376,0.324,0.64
				c0,0.166-0.061,0.312-0.182,0.438c-0.117,0.122-0.263,0.182-0.438,0.182c-0.171,0-0.317-0.06-0.438-0.182
				c-0.121-0.121-0.182-0.267-0.182-0.438c0-0.247,0.088-0.422,0.262-0.526h-0.08c-0.373,0-0.679,0.135-0.916,0.404
				c-0.234,0.271-0.4,0.604-0.499,1.004c-0.099,0.401-0.148,0.782-0.148,1.146v2.264c0,0.292,0.447,0.438,1.341,0.438v0.485H290.007
				z"/>
			<path id="path153" inkscape:connector-curvature="0" d="M295.452,34.799v-0.485c0.315,0,0.572-0.025,0.775-0.074
				c0.202-0.05,0.303-0.171,0.303-0.364V30.11c0-0.247-0.038-0.424-0.113-0.532c-0.073-0.112-0.178-0.179-0.317-0.202
				c-0.14-0.027-0.355-0.041-0.647-0.041V28.85l2.001-0.148v1.348c0.185-0.395,0.455-0.719,0.816-0.971
				c0.364-0.251,0.759-0.377,1.185-0.377c1.061,0,1.683,0.432,1.867,1.293c0.184-0.386,0.454-0.698,0.808-0.936
				c0.355-0.238,0.743-0.357,1.165-0.357c0.418,0,0.768,0.068,1.052,0.202c0.287,0.134,0.503,0.341,0.647,0.62
				c0.144,0.273,0.216,0.62,0.216,1.038v3.315c0,0.193,0.102,0.314,0.303,0.364c0.207,0.049,0.465,0.074,0.776,0.074v0.485h-3.16
				v-0.485c0.315,0,0.572-0.025,0.775-0.074c0.201-0.05,0.303-0.171,0.303-0.364v-3.275c0-0.463-0.065-0.836-0.195-1.119
				c-0.131-0.283-0.399-0.424-0.803-0.424c-0.53,0-0.968,0.214-1.313,0.64c-0.346,0.427-0.519,0.913-0.519,1.456v2.722
				c0,0.193,0.102,0.314,0.304,0.364c0.202,0.049,0.461,0.074,0.776,0.074v0.485h-3.16v-0.485c0.315,0,0.572-0.025,0.775-0.074
				c0.202-0.05,0.303-0.171,0.303-0.364v-3.275c0-0.45-0.064-0.818-0.195-1.105c-0.131-0.293-0.398-0.439-0.802-0.439
				c-0.534,0-0.975,0.214-1.321,0.64c-0.342,0.427-0.512,0.913-0.512,1.456v2.722c0,0.193,0.101,0.314,0.304,0.364
				c0.201,0.049,0.457,0.074,0.768,0.074v0.485H295.452z"/>
			<path id="path155" inkscape:connector-curvature="0" d="M311.408,34.955l-3.255-8.658c-0.081-0.194-0.236-0.315-0.465-0.364
				c-0.229-0.049-0.521-0.075-0.876-0.075v-0.485h3.794v0.485c-0.764,0-1.146,0.119-1.146,0.358c0.005,0.014,0.007,0.027,0.007,0.04
				c0.005,0.009,0.007,0.023,0.007,0.041l2.648,7.042l2.499-6.665c0.018-0.036,0.027-0.091,0.027-0.168
				c0-0.225-0.102-0.389-0.309-0.492s-0.439-0.155-0.695-0.155v-0.485h2.979v0.485c-0.346,0-0.652,0.066-0.916,0.196
				c-0.262,0.126-0.448,0.333-0.56,0.62l-3.12,8.282c-0.027,0.099-0.101,0.148-0.222,0.148h-0.175
				C311.509,35.103,311.436,35.053,311.408,34.955z"/>
			<path id="path157" inkscape:connector-curvature="0" d="M320.35,34.955c-0.552,0-1.064-0.139-1.536-0.418
				c-0.472-0.283-0.845-0.66-1.119-1.132c-0.273-0.472-0.411-0.986-0.411-1.543c0-0.422,0.074-0.829,0.222-1.22
				c0.153-0.391,0.369-0.739,0.647-1.044c0.283-0.31,0.611-0.551,0.984-0.721c0.372-0.176,0.776-0.263,1.213-0.263
				c0.565,0,1.08,0.151,1.543,0.452c0.467,0.296,0.835,0.696,1.106,1.2c0.269,0.497,0.404,1.031,0.404,1.597
				c0,0.552-0.137,1.066-0.411,1.543c-0.274,0.472-0.647,0.85-1.118,1.132C321.405,34.816,320.898,34.955,320.35,34.955z
				 M320.35,34.55c0.736,0,1.228-0.267,1.476-0.802c0.247-0.535,0.369-1.215,0.369-2.042c0-0.463-0.024-0.844-0.073-1.145
				c-0.049-0.305-0.157-0.582-0.324-0.829c-0.103-0.154-0.236-0.285-0.398-0.399c-0.157-0.116-0.326-0.204-0.506-0.262
				c-0.175-0.063-0.357-0.094-0.545-0.094c-0.288,0-0.561,0.065-0.823,0.196c-0.256,0.13-0.468,0.316-0.64,0.56
				c-0.17,0.26-0.28,0.547-0.329,0.861c-0.046,0.311-0.068,0.68-0.068,1.112c0,0.517,0.045,0.982,0.135,1.396
				c0.09,0.408,0.269,0.752,0.539,1.031C319.437,34.411,319.832,34.55,320.35,34.55z"/>
			<path id="path159" inkscape:connector-curvature="0" d="M324.224,34.799v-0.485c0.315,0,0.572-0.025,0.775-0.074
				c0.202-0.05,0.304-0.171,0.304-0.364v-7.244c0-0.247-0.038-0.424-0.115-0.532c-0.071-0.112-0.177-0.179-0.316-0.202
				c-0.139-0.027-0.355-0.041-0.647-0.041v-0.485l2.048-0.148v8.652c0,0.193,0.102,0.314,0.304,0.364
				c0.202,0.049,0.458,0.074,0.768,0.074v0.485H324.224z"/>
		</g>
		<g id="text4236">
		</g>
		<g id="text4238">
		</g>
	</g>
</g>
</svg>
