<?xml version="1.0" encoding="utf-8"?>
<!-- Generator: Adobe Illustrator 16.0.0, SVG Export Plug-In . SVG Version: 6.00 Build 0)  -->
<!DOCTYPE svg PUBLIC "-//W3C//DTD SVG 1.1//EN" "http://www.w3.org/Graphics/SVG/1.1/DTD/svg11.dtd">
<svg version="1.1"
	 id="svg3020" xmlns:dc="http://purl.org/dc/elements/1.1/" xmlns:cc="http://creativecommons.org/ns#" xmlns:rdf="http://www.w3.org/1999/02/22-rdf-syntax-ns#" xmlns:svg="http://www.w3.org/2000/svg" xmlns:inkscape="http://www.inkscape.org/namespaces/inkscape"
	 xmlns="http://www.w3.org/2000/svg" xmlns:xlink="http://www.w3.org/1999/xlink" x="0px" y="0px" width="320px" height="60px"
	 viewBox="0 0 320 60" enable-background="new 0 0 320 60" xml:space="preserve">
<g id="text3030" transform="scale(0.95814898,1.043679)">
</g>
<g id="g3009" transform="matrix(1.4688253,0,0,1.4688253,-277.70507,-0.75165246)">
	<g id="flowRoot3055" transform="matrix(0.68081616,0,0,0.68081616,189.0661,0.51173714)">
	</g>
	<g id="flowRoot3063" transform="matrix(0.68081616,0,0,0.68081616,189.0661,0.51173714)">
	</g>
	<g id="g3569" transform="matrix(0.68081616,0,0,0.68081616,66.230655,78.160046)">
	</g>
	<g id="g4521" transform="matrix(0.90952671,0,0,0.90952671,32.493425,6.0903865)">
		<g id="text4523">
			<path id="path55" inkscape:connector-curvature="0" d="M183.84,21.636V21.15c0.463,0,0.912-0.025,1.348-0.074
				c0.436-0.054,0.654-0.175,0.654-0.364v-7.58c0-0.198-0.056-0.319-0.169-0.364c-0.108-0.049-0.285-0.074-0.532-0.074h-0.58
				c-0.759,0-1.298,0.166-1.617,0.499c-0.166,0.166-0.285,0.433-0.357,0.802c-0.072,0.364-0.132,0.822-0.182,1.375h-0.398
				l0.263-3.16h8.429l0.263,3.16h-0.404c-0.054-0.593-0.114-1.062-0.182-1.408c-0.063-0.351-0.179-0.606-0.35-0.768
				c-0.323-0.333-0.863-0.499-1.617-0.499h-0.579c-0.166,0-0.297,0.007-0.391,0.02c-0.09,0.014-0.164,0.054-0.222,0.121
				c-0.058,0.063-0.088,0.162-0.088,0.297v7.58c0,0.189,0.218,0.31,0.654,0.364c0.436,0.049,0.883,0.074,1.341,0.074v0.485H183.84z"
				/>
			<path id="path57" inkscape:connector-curvature="0" d="M195.774,21.791l-2.817-8.659c-0.072-0.193-0.211-0.315-0.418-0.364
				c-0.207-0.049-0.476-0.074-0.808-0.074v-0.485h3.699v0.485c-0.773,0-1.159,0.124-1.159,0.371v0.068l2.204,6.792l1.88-5.808
				l-0.317-0.984c-0.072-0.193-0.211-0.315-0.418-0.364c-0.206-0.049-0.476-0.074-0.808-0.074v-0.485h3.692v0.485
				c-0.781,0-1.172,0.124-1.172,0.371c0,0.014,0.004,0.034,0.014,0.061c0.009,0.027,0.014,0.045,0.014,0.054l2.197,6.745
				l2.068-6.414c0.009-0.027,0.014-0.069,0.014-0.128c0-0.243-0.128-0.418-0.384-0.526c-0.256-0.108-0.523-0.162-0.802-0.162v-0.485
				h2.951v0.485c-0.728,0-1.177,0.272-1.348,0.815l-2.695,8.281c-0.031,0.099-0.099,0.148-0.202,0.148h-0.101
				c-0.103,0-0.171-0.049-0.202-0.148l-2.277-7.028l-2.291,7.028c-0.031,0.099-0.101,0.148-0.209,0.148h-0.094
				C195.875,21.938,195.805,21.889,195.774,21.791z"/>
			<path id="path59" inkscape:connector-curvature="0" d="M206.104,21.636V21.15c0.822,0,1.327-0.272,1.516-0.815l2.897-8.43
				c0.027-0.099,0.101-0.148,0.223-0.148h0.175c0.121,0,0.196,0.049,0.222,0.148l3.026,8.807c0.086,0.193,0.247,0.314,0.485,0.364
				c0.242,0.049,0.543,0.074,0.903,0.074v0.485h-3.848V21.15c0.764,0,1.145-0.124,1.145-0.371v-0.067l-0.748-2.156h-3.349
				l-0.62,1.779c-0.009,0.031-0.014,0.078-0.014,0.141c0,0.23,0.108,0.401,0.323,0.512c0.22,0.107,0.456,0.162,0.708,0.162v0.485
				H206.104z M208.913,18.078h3.025l-1.516-4.407L208.913,18.078z"/>
		</g>
		<g id="text4525">
			<path id="path62" inkscape:connector-curvature="0" d="M218.503,24.604c-0.409,0-0.785-0.107-1.129-0.319
				c-0.34-0.216-0.609-0.502-0.805-0.859c-0.193-0.36-0.289-0.739-0.289-1.138c0-0.393,0.088-0.765,0.265-1.119
				c0.18-0.353,0.428-0.637,0.746-0.854c0.321-0.219,0.677-0.329,1.069-0.329c0.308,0,0.574,0.053,0.8,0.157
				c0.229,0.102,0.417,0.243,0.564,0.428c0.147,0.183,0.258,0.399,0.334,0.648c0.075,0.249,0.113,0.521,0.113,0.819
				c0,0.089-0.034,0.133-0.103,0.133h-2.91v0.108c0,0.556,0.111,1.034,0.334,1.433c0.226,0.399,0.592,0.598,1.099,0.598
				c0.206,0,0.395-0.045,0.569-0.137c0.177-0.091,0.329-0.219,0.457-0.382c0.131-0.163,0.219-0.338,0.265-0.525
				c0.007-0.023,0.018-0.043,0.034-0.059c0.02-0.019,0.041-0.029,0.064-0.029h0.088c0.069,0,0.103,0.042,0.103,0.127
				c-0.095,0.38-0.299,0.692-0.613,0.937C219.244,24.482,218.892,24.604,218.503,24.604z M217.168,21.919h2.292
				c0-0.252-0.036-0.507-0.108-0.766c-0.069-0.259-0.185-0.472-0.349-0.643c-0.163-0.173-0.378-0.26-0.643-0.26
				c-0.379,0-0.674,0.178-0.883,0.534C217.271,21.139,217.168,21.517,217.168,21.919z"/>
			<path id="path64" inkscape:connector-curvature="0" d="M223.469,26.438V26.09c0.229,0,0.417-0.02,0.564-0.059
				c0.147-0.039,0.221-0.128,0.221-0.265v-1.86c-0.157,0.209-0.355,0.378-0.594,0.506c-0.239,0.127-0.489,0.192-0.751,0.192
				c-0.301,0-0.581-0.063-0.839-0.187s-0.484-0.292-0.677-0.505c-0.19-0.213-0.339-0.458-0.447-0.736
				c-0.105-0.281-0.157-0.566-0.157-0.854c0-0.399,0.098-0.773,0.295-1.124c0.196-0.353,0.465-0.633,0.805-0.839
				c0.344-0.206,0.713-0.308,1.109-0.308c0.285,0,0.548,0.08,0.79,0.24c0.242,0.161,0.435,0.375,0.579,0.643l0.358-0.883h0.265
				v5.716c0,0.137,0.074,0.226,0.221,0.265c0.147,0.039,0.334,0.059,0.56,0.059v0.348H223.469z M222.968,24.338
				c0.298,0,0.563-0.099,0.795-0.295c0.235-0.2,0.409-0.45,0.52-0.751v-1.767c-0.069-0.32-0.211-0.598-0.427-0.834
				c-0.216-0.235-0.474-0.353-0.776-0.353c-0.229,0-0.433,0.06-0.613,0.181s-0.33,0.283-0.451,0.486
				c-0.118,0.202-0.206,0.422-0.265,0.657c-0.059,0.235-0.088,0.458-0.088,0.667c0,0.268,0.048,0.561,0.143,0.879
				c0.095,0.314,0.24,0.581,0.437,0.8C222.438,24.229,222.68,24.338,222.968,24.338z"/>
		</g>
		<g id="text4527">
			<path id="path67" inkscape:connector-curvature="0" d="M241.692,16.366h-7.992v-1.078h7.992V16.366z M241.692,19.196h-7.992
				v-1.078h7.992V19.196z"/>
		</g>
		<g id="text4529">
			<path id="path70" inkscape:connector-curvature="0" d="M247.43,21.636V21.15c1.15,0,1.725-0.146,1.725-0.438v-7.244
				c-0.476,0.229-1.078,0.344-1.806,0.344v-0.485c1.128,0,1.979-0.294,2.554-0.883h0.195c0.031,0,0.061,0.014,0.088,0.041
				c0.031,0.022,0.047,0.049,0.047,0.081v8.147c0,0.292,0.575,0.438,1.725,0.438v0.485H247.43z"/>
			<path id="path72" inkscape:connector-curvature="0" d="M256.5,21.938c-0.571,0-1.046-0.15-1.428-0.451
				c-0.382-0.306-0.678-0.698-0.89-1.179c-0.207-0.485-0.35-0.993-0.431-1.523c-0.081-0.529-0.121-1.067-0.121-1.61
				c0-0.728,0.141-1.458,0.424-2.19c0.283-0.732,0.698-1.339,1.247-1.819c0.553-0.481,1.206-0.721,1.961-0.721
				c0.314,0,0.606,0.061,0.876,0.182c0.274,0.117,0.488,0.292,0.64,0.526c0.157,0.229,0.236,0.508,0.236,0.836
				c0,0.189-0.065,0.348-0.196,0.478c-0.126,0.126-0.283,0.189-0.471,0.189c-0.18,0-0.335-0.065-0.465-0.195
				c-0.13-0.13-0.196-0.288-0.196-0.472c0-0.18,0.065-0.335,0.196-0.465c0.13-0.13,0.285-0.196,0.465-0.196h0.074
				c-0.117-0.166-0.283-0.287-0.499-0.364c-0.211-0.081-0.431-0.121-0.66-0.121c-0.279,0-0.537,0.061-0.775,0.182
				c-0.234,0.121-0.445,0.285-0.633,0.492c-0.189,0.207-0.346,0.436-0.472,0.688c-0.126,0.247-0.224,0.53-0.296,0.849
				c-0.068,0.319-0.11,0.618-0.128,0.896c-0.018,0.279-0.027,0.629-0.027,1.051c0.162-0.378,0.391-0.685,0.687-0.923
				c0.296-0.243,0.631-0.364,1.004-0.364c0.409,0,0.782,0.083,1.119,0.25c0.337,0.166,0.626,0.397,0.869,0.694
				c0.242,0.292,0.427,0.626,0.553,1.004c0.13,0.378,0.195,0.76,0.195,1.145c0,0.539-0.121,1.054-0.364,1.543
				c-0.238,0.485-0.575,0.872-1.011,1.159C257.547,21.795,257.052,21.938,256.5,21.938z M256.5,21.501
				c0.355,0,0.64-0.081,0.856-0.243c0.216-0.162,0.373-0.376,0.471-0.64c0.103-0.27,0.166-0.539,0.189-0.808
				c0.027-0.274,0.041-0.609,0.041-1.004c0-0.52-0.025-0.966-0.074-1.334c-0.049-0.368-0.184-0.692-0.404-0.97
				c-0.22-0.283-0.557-0.425-1.011-0.425c-0.373,0-0.681,0.126-0.923,0.377c-0.238,0.252-0.413,0.571-0.526,0.957
				c-0.108,0.382-0.162,0.75-0.162,1.105c0,0.121,0.004,0.213,0.014,0.276c0,0.013-0.003,0.025-0.007,0.034
				c0,0.009-0.002,0.02-0.007,0.034c0,0.395,0.041,0.795,0.121,1.2c0.081,0.404,0.236,0.746,0.465,1.024
				C255.772,21.362,256.091,21.501,256.5,21.501z"/>
		</g>
		<g id="text4531">
			<path id="path75" inkscape:connector-curvature="0" d="M262.609,20.874c0-0.206,0.076-0.384,0.229-0.532
				c0.153-0.148,0.33-0.222,0.533-0.222c0.126,0,0.249,0.034,0.371,0.101c0.121,0.067,0.216,0.162,0.283,0.283
				c0.067,0.121,0.101,0.245,0.101,0.371c0,0.202-0.074,0.38-0.223,0.532c-0.148,0.154-0.326,0.23-0.532,0.23
				c-0.202,0-0.38-0.076-0.532-0.23C262.685,21.254,262.609,21.076,262.609,20.874z"/>
		</g>
		<g id="text4533">
			<path id="path78" inkscape:connector-curvature="0" d="M269.247,21.938c-0.571,0-1.046-0.15-1.428-0.451
				c-0.382-0.306-0.678-0.698-0.89-1.179c-0.207-0.485-0.35-0.993-0.431-1.523c-0.081-0.529-0.121-1.067-0.121-1.61
				c0-0.728,0.141-1.458,0.424-2.19c0.283-0.732,0.698-1.339,1.247-1.819c0.552-0.481,1.206-0.721,1.961-0.721
				c0.314,0,0.606,0.061,0.876,0.182c0.274,0.117,0.488,0.292,0.64,0.526c0.157,0.229,0.236,0.508,0.236,0.836
				c0,0.189-0.065,0.348-0.196,0.478c-0.126,0.126-0.283,0.189-0.471,0.189c-0.18,0-0.335-0.065-0.465-0.195
				c-0.13-0.13-0.196-0.288-0.196-0.472c0-0.18,0.065-0.335,0.196-0.465c0.13-0.13,0.285-0.196,0.465-0.196h0.074
				c-0.117-0.166-0.283-0.287-0.499-0.364c-0.211-0.081-0.431-0.121-0.66-0.121c-0.279,0-0.537,0.061-0.775,0.182
				c-0.234,0.121-0.444,0.285-0.633,0.492c-0.189,0.207-0.346,0.436-0.471,0.688c-0.126,0.247-0.225,0.53-0.296,0.849
				c-0.068,0.319-0.11,0.618-0.128,0.896c-0.018,0.279-0.027,0.629-0.027,1.051c0.162-0.378,0.391-0.685,0.687-0.923
				c0.296-0.243,0.631-0.364,1.004-0.364c0.409,0,0.782,0.083,1.119,0.25c0.337,0.166,0.626,0.397,0.869,0.694
				c0.243,0.292,0.427,0.626,0.553,1.004c0.13,0.378,0.195,0.76,0.195,1.145c0,0.539-0.121,1.054-0.364,1.543
				c-0.238,0.485-0.575,0.872-1.011,1.159C270.294,21.795,269.799,21.938,269.247,21.938z M269.247,21.501
				c0.355,0,0.64-0.081,0.856-0.243c0.216-0.162,0.373-0.376,0.471-0.64c0.103-0.27,0.166-0.539,0.189-0.808
				c0.027-0.274,0.041-0.609,0.041-1.004c0-0.52-0.025-0.966-0.074-1.334c-0.049-0.368-0.184-0.692-0.404-0.97
				c-0.22-0.283-0.557-0.425-1.011-0.425c-0.373,0-0.681,0.126-0.923,0.377c-0.238,0.252-0.413,0.571-0.526,0.957
				c-0.108,0.382-0.162,0.75-0.162,1.105c0,0.121,0.005,0.213,0.014,0.276c0,0.013-0.002,0.025-0.007,0.034
				c0,0.009-0.002,0.02-0.007,0.034c0,0.395,0.041,0.795,0.121,1.2c0.081,0.404,0.236,0.746,0.465,1.024
				C268.519,21.362,268.838,21.501,269.247,21.501z"/>
			<path id="path80" inkscape:connector-curvature="0" d="M273.977,21.636V21.15c1.15,0,1.725-0.146,1.725-0.438v-7.244
				c-0.476,0.229-1.078,0.344-1.806,0.344v-0.485c1.128,0,1.979-0.294,2.554-0.883h0.196c0.031,0,0.061,0.014,0.088,0.041
				c0.031,0.022,0.047,0.049,0.047,0.081v8.147c0,0.292,0.575,0.438,1.725,0.438v0.485H273.977z"/>
		</g>
		<g id="text4535">
		</g>
		<g id="text4537">
			<path id="path84" inkscape:connector-curvature="0" d="M284.521,21.636V21.15c0.315,0,0.573-0.025,0.775-0.074
				c0.202-0.05,0.303-0.171,0.303-0.364v-7.244c0-0.247-0.038-0.424-0.114-0.532c-0.072-0.112-0.178-0.18-0.317-0.202
				c-0.139-0.027-0.355-0.041-0.647-0.041v-0.485l2.049-0.148v8.652c0,0.193,0.101,0.314,0.303,0.364
				c0.202,0.049,0.458,0.074,0.768,0.074v0.485H284.521z"/>
			<path id="path86" inkscape:connector-curvature="0" d="M291.374,21.791c-0.553,0-1.065-0.139-1.537-0.418
				c-0.471-0.283-0.844-0.66-1.118-1.132c-0.274-0.472-0.411-0.986-0.411-1.543c0-0.423,0.074-0.829,0.223-1.22
				c0.153-0.39,0.368-0.738,0.647-1.044c0.283-0.31,0.611-0.55,0.984-0.721c0.373-0.175,0.777-0.262,1.213-0.262
				c0.566,0,1.08,0.15,1.543,0.451c0.466,0.296,0.835,0.696,1.105,1.199c0.27,0.499,0.404,1.031,0.404,1.597
				c0,0.552-0.137,1.066-0.411,1.543c-0.274,0.471-0.647,0.849-1.118,1.132C292.43,21.652,291.922,21.791,291.374,21.791z
				 M291.374,21.386c0.736,0,1.228-0.268,1.476-0.802c0.247-0.535,0.371-1.215,0.371-2.042c0-0.463-0.025-0.844-0.075-1.145
				c-0.049-0.306-0.156-0.582-0.323-0.829c-0.103-0.153-0.235-0.285-0.398-0.398c-0.157-0.117-0.325-0.204-0.505-0.263
				c-0.175-0.063-0.357-0.094-0.546-0.094c-0.288,0-0.562,0.065-0.822,0.196c-0.256,0.13-0.47,0.316-0.64,0.559
				c-0.171,0.26-0.281,0.548-0.33,0.863c-0.045,0.31-0.068,0.681-0.068,1.112c0,0.517,0.045,0.982,0.135,1.395
				c0.09,0.409,0.269,0.752,0.539,1.031C290.462,21.247,290.858,21.386,291.374,21.386z"/>
			<path id="path88" inkscape:connector-curvature="0" d="M295.209,22.714c0-0.328,0.118-0.616,0.357-0.863
				c0.238-0.243,0.52-0.416,0.849-0.519c-0.184-0.14-0.326-0.314-0.425-0.526c-0.094-0.211-0.141-0.436-0.141-0.674
				c0-0.431,0.137-0.813,0.412-1.145c-0.423-0.413-0.634-0.887-0.634-1.422c0-0.287,0.061-0.557,0.182-0.808
				c0.126-0.251,0.298-0.469,0.519-0.654c0.219-0.184,0.465-0.323,0.734-0.418c0.27-0.099,0.546-0.148,0.829-0.148
				c0.548,0,1.039,0.16,1.476,0.478c0.189-0.202,0.411-0.357,0.667-0.465c0.26-0.112,0.529-0.168,0.808-0.168
				c0.197,0,0.359,0.072,0.485,0.216c0.126,0.139,0.189,0.308,0.189,0.505c0,0.112-0.043,0.211-0.129,0.296
				c-0.085,0.085-0.184,0.128-0.297,0.128c-0.116,0-0.218-0.043-0.303-0.128c-0.086-0.085-0.129-0.184-0.129-0.296
				c0-0.171,0.057-0.29,0.169-0.357c-0.476,0-0.885,0.164-1.226,0.492c0.166,0.166,0.298,0.371,0.397,0.613
				c0.103,0.238,0.155,0.476,0.155,0.714c0,0.391-0.107,0.743-0.323,1.058c-0.216,0.31-0.501,0.553-0.856,0.727
				c-0.35,0.17-0.712,0.256-1.085,0.256c-0.503,0-0.963-0.137-1.382-0.411c-0.13,0.18-0.195,0.382-0.195,0.606
				c0,0.243,0.078,0.456,0.236,0.64c0.162,0.18,0.364,0.27,0.606,0.27h1.132c0.548,0,1.042,0.049,1.482,0.148
				c0.44,0.099,0.808,0.297,1.105,0.593c0.3,0.296,0.451,0.716,0.451,1.26c0,0.404-0.17,0.739-0.512,1.004
				c-0.341,0.27-0.75,0.463-1.226,0.58c-0.471,0.121-0.91,0.182-1.314,0.182c-0.409,0-0.852-0.061-1.327-0.182
				c-0.477-0.117-0.885-0.31-1.227-0.58C295.379,23.453,295.209,23.118,295.209,22.714z M295.984,22.714
				c0,0.31,0.126,0.568,0.377,0.775c0.251,0.211,0.554,0.366,0.909,0.465c0.355,0.103,0.69,0.155,1.004,0.155
				c0.31,0,0.642-0.052,0.997-0.155c0.355-0.099,0.656-0.254,0.903-0.465c0.251-0.207,0.377-0.465,0.377-0.775
				c0-0.481-0.22-0.793-0.66-0.936c-0.44-0.14-0.975-0.209-1.604-0.209h-1.132c-0.212,0-0.407,0.049-0.586,0.148
				c-0.175,0.104-0.317,0.246-0.425,0.425C296.037,22.325,295.984,22.516,295.984,22.714z M297.89,19.237
				c0.782,0,1.173-0.557,1.173-1.671c0-0.481-0.083-0.876-0.249-1.186c-0.166-0.315-0.474-0.472-0.923-0.472
				c-0.449,0-0.757,0.157-0.923,0.472c-0.166,0.31-0.249,0.705-0.249,1.186c0,0.306,0.031,0.582,0.094,0.829s0.18,0.449,0.35,0.607
				C297.333,19.158,297.576,19.237,297.89,19.237z"/>
		</g>
		<g id="text4539">
			<path id="path91" inkscape:connector-curvature="0" d="M311.389,30.56c-1.111-0.877-2.071-1.886-2.88-3.026
				c-0.799-1.131-1.457-2.339-1.974-3.626c-0.507-1.287-0.887-2.632-1.14-4.035c-0.254-1.404-0.38-2.812-0.38-4.225
				c0-1.433,0.126-2.851,0.38-4.254s0.638-2.754,1.155-4.05c0.526-1.296,1.194-2.51,2.003-3.64c0.809-1.131,1.754-2.12,2.836-2.968
				c0-0.039,0.049-0.058,0.146-0.058h0.278c0.059,0,0.112,0.029,0.161,0.088c0.049,0.049,0.073,0.107,0.073,0.175
				c0,0.088-0.02,0.151-0.059,0.19c-0.974,0.955-1.789,1.978-2.442,3.07c-0.643,1.091-1.164,2.256-1.564,3.494
				c-0.39,1.228-0.673,2.505-0.848,3.83c-0.175,1.316-0.263,2.69-0.263,4.123c0,6.345,1.696,11.164,5.088,14.459
				c0.058,0.058,0.088,0.141,0.088,0.249c0,0.048-0.029,0.102-0.088,0.161c-0.049,0.068-0.097,0.102-0.146,0.102h-0.278
				C311.438,30.618,311.389,30.598,311.389,30.56z"/>
		</g>
		<g id="text4541">
			<path id="path94" inkscape:connector-curvature="0" d="M316.19,4.168c0,1.006-0.213,1.754-0.64,2.244
				c-0.423,0.489-1.034,0.734-1.833,0.734c-0.817,0-1.434-0.245-1.852-0.734c-0.418-0.49-0.627-1.235-0.627-2.237
				c0-1.006,0.213-1.754,0.64-2.244c0.427-0.49,1.039-0.734,1.839-0.734c0.814,0,1.428,0.247,1.846,0.741
				C315.981,2.432,316.19,3.176,316.19,4.168z M320.846,1.385l-5.256,10.033h-1.113l5.256-10.033H320.846z M324.08,8.636
				c0,1.006-0.213,1.754-0.64,2.244c-0.427,0.49-1.039,0.734-1.839,0.734c-0.813,0-1.428-0.247-1.846-0.741
				c-0.418-0.494-0.627-1.238-0.627-2.231c0-1.006,0.212-1.754,0.634-2.244c0.427-0.49,1.039-0.735,1.839-0.735
				c0.817,0,1.436,0.245,1.852,0.735C323.871,6.888,324.08,7.634,324.08,8.636z M314.99,4.168c0-0.773-0.101-1.312-0.303-1.617
				c-0.197-0.306-0.52-0.458-0.971-0.458c-0.458,0-0.785,0.152-0.984,0.458c-0.197,0.306-0.295,0.847-0.295,1.624
				s0.098,1.319,0.295,1.624c0.199,0.301,0.526,0.451,0.984,0.451c0.45,0,0.773-0.15,0.971-0.451
				C314.889,5.493,314.99,4.95,314.99,4.168z M322.881,8.636c0-0.773-0.102-1.312-0.304-1.617c-0.197-0.306-0.52-0.458-0.971-0.458
				c-0.458,0-0.785,0.153-0.982,0.458c-0.199,0.306-0.297,0.847-0.297,1.624s0.098,1.318,0.297,1.624
				c0.197,0.301,0.525,0.451,0.982,0.451c0.45,0,0.773-0.15,0.971-0.451C322.779,9.961,322.881,9.417,322.881,8.636z"/>
		</g>
		<g id="text4543">
			<path id="path97" inkscape:connector-curvature="0" d="M324.908,11.118v-0.485c0.948,0,1.423-0.146,1.423-0.438v-7.58
				c0-0.292-0.474-0.438-1.423-0.438V1.692h5.088c0.629,0,1.204,0.137,1.725,0.411c0.521,0.269,0.966,0.631,1.334,1.085
				c0.368,0.454,0.651,0.968,0.849,1.543c0.202,0.575,0.304,1.163,0.304,1.765c0,0.584-0.102,1.152-0.304,1.705
				c-0.202,0.548-0.494,1.045-0.876,1.489c-0.377,0.44-0.826,0.788-1.348,1.045c-0.516,0.256-1.077,0.384-1.684,0.384H324.908z
				 M327.57,10.195c0,0.198,0.056,0.321,0.168,0.371c0.113,0.045,0.289,0.067,0.532,0.067h1.368c0.471,0,0.918-0.101,1.341-0.303
				c0.427-0.207,0.779-0.492,1.058-0.856c0.292-0.386,0.488-0.817,0.586-1.293c0.099-0.481,0.148-1.042,0.148-1.685
				c0-0.67-0.05-1.256-0.148-1.759c-0.099-0.503-0.295-0.952-0.586-1.348c-0.274-0.391-0.622-0.69-1.045-0.896
				c-0.423-0.211-0.874-0.317-1.354-0.317h-1.368c-0.166,0-0.297,0.007-0.39,0.02c-0.09,0.013-0.164,0.054-0.222,0.121
				c-0.059,0.063-0.088,0.162-0.088,0.296V10.195z"/>
		</g>
		<g id="text4545">
			<path id="path100" inkscape:connector-curvature="0" d="M313.13,30.951v-0.485c1.151,0,1.725-0.146,1.725-0.439v-7.243
				c-0.477,0.229-1.078,0.344-1.806,0.344v-0.485c1.127,0,1.978-0.295,2.554-0.883h0.194c0.032,0,0.061,0.013,0.088,0.04
				c0.032,0.023,0.048,0.049,0.048,0.081v8.146c0,0.292,0.575,0.439,1.725,0.439v0.485H313.13z"/>
			<path id="path102" inkscape:connector-curvature="0" d="M322.2,31.254c-1.128,0-1.896-0.463-2.305-1.388
				c-0.404-0.93-0.606-2.035-0.606-3.315c0-0.8,0.072-1.553,0.215-2.257c0.149-0.705,0.439-1.303,0.87-1.792
				c0.436-0.494,1.044-0.741,1.826-0.741c0.606,0,1.102,0.148,1.489,0.444c0.387,0.297,0.681,0.681,0.882,1.152
				c0.202,0.468,0.339,0.971,0.411,1.509c0.077,0.534,0.115,1.096,0.115,1.685c0,0.791-0.075,1.532-0.223,2.224
				c-0.144,0.687-0.429,1.273-0.856,1.759C323.592,31.014,322.986,31.254,322.2,31.254z M322.2,30.897
				c0.512,0,0.893-0.263,1.145-0.789c0.251-0.526,0.406-1.107,0.465-1.745c0.058-0.638,0.087-1.317,0.087-2.035
				c0-0.692-0.029-1.33-0.087-1.914c-0.059-0.584-0.213-1.113-0.465-1.583c-0.247-0.477-0.629-0.715-1.145-0.715
				c-0.521,0-0.908,0.238-1.159,0.715c-0.251,0.476-0.406,1.006-0.465,1.59c-0.059,0.58-0.088,1.215-0.088,1.907
				c0,0.512,0.012,0.995,0.034,1.449c0.027,0.453,0.095,0.923,0.202,1.408c0.107,0.481,0.281,0.887,0.519,1.219
				C321.485,30.733,321.805,30.897,322.2,30.897z"/>
			<path id="path104" inkscape:connector-curvature="0" d="M329.1,31.254c-1.128,0-1.895-0.463-2.305-1.388
				c-0.404-0.93-0.607-2.035-0.607-3.315c0-0.8,0.072-1.553,0.216-2.257c0.148-0.705,0.438-1.303,0.869-1.792
				c0.436-0.494,1.045-0.741,1.826-0.741c0.606,0,1.103,0.148,1.489,0.444s0.681,0.681,0.883,1.152
				c0.202,0.468,0.339,0.971,0.411,1.509c0.076,0.534,0.114,1.096,0.114,1.685c0,0.791-0.074,1.532-0.222,2.224
				c-0.143,0.687-0.428,1.273-0.855,1.759C330.492,31.014,329.886,31.254,329.1,31.254z M329.1,30.897
				c0.512,0,0.894-0.263,1.145-0.789c0.251-0.526,0.406-1.107,0.465-1.745c0.058-0.638,0.088-1.317,0.088-2.035
				c0-0.692-0.029-1.33-0.088-1.914c-0.058-0.584-0.213-1.113-0.465-1.583c-0.247-0.477-0.629-0.715-1.145-0.715
				c-0.521,0-0.907,0.238-1.159,0.715c-0.252,0.476-0.407,1.006-0.465,1.59c-0.058,0.58-0.088,1.215-0.088,1.907
				c0,0.512,0.011,0.995,0.034,1.449c0.026,0.453,0.094,0.923,0.202,1.408c0.108,0.481,0.281,0.887,0.519,1.219
				C328.386,30.733,328.704,30.897,329.1,30.897z"/>
		</g>
		<g id="text4547">
			<path id="path107" inkscape:connector-curvature="0" d="M333.75,30.618c-0.175,0-0.263-0.088-0.263-0.263
				c0-0.088,0.02-0.151,0.058-0.19c3.412-3.333,5.117-8.173,5.117-14.518s-1.686-11.165-5.058-14.459
				c-0.077-0.049-0.117-0.132-0.117-0.249c0-0.068,0.025-0.127,0.073-0.175c0.058-0.058,0.122-0.088,0.19-0.088h0.278
				c0.058,0,0.107,0.019,0.146,0.058c1.433,1.13,2.627,2.505,3.582,4.123c0.955,1.618,1.652,3.343,2.091,5.175
				c0.449,1.832,0.673,3.704,0.673,5.614c0,1.413-0.121,2.807-0.366,4.181c-0.234,1.364-0.614,2.709-1.14,4.035
				c-0.516,1.335-1.174,2.563-1.974,3.684c-0.799,1.13-1.754,2.135-2.865,3.012c-0.039,0.039-0.088,0.058-0.146,0.058H333.75z"/>
		</g>
		<g id="text4549">
			<path id="path110" inkscape:connector-curvature="0" d="M354.428,17.781h-3.673v3.673h-1.118v-3.673h-3.673v-1.078h3.673v-3.672
				h1.118v3.672h3.673V17.781z"/>
		</g>
		<g id="text4551">
			<path id="path113" inkscape:connector-curvature="0" d="M359.456,21.056c0.251,0.296,0.69,0.445,1.314,0.445
				c0.351,0,0.676-0.12,0.977-0.357c0.306-0.238,0.542-0.53,0.708-0.876c0.194-0.39,0.317-0.806,0.371-1.246
				c0.054-0.445,0.08-0.996,0.08-1.651c-0.157,0.373-0.384,0.678-0.681,0.916c-0.292,0.238-0.629,0.357-1.011,0.357
				c-0.534,0-1.013-0.144-1.435-0.431c-0.417-0.292-0.739-0.673-0.963-1.145c-0.224-0.476-0.337-0.981-0.337-1.516
				c0-0.553,0.126-1.067,0.377-1.543c0.251-0.481,0.599-0.86,1.045-1.139c0.445-0.283,0.95-0.425,1.516-0.425
				c0.557,0,1.022,0.153,1.395,0.458c0.378,0.301,0.664,0.692,0.863,1.173c0.198,0.476,0.335,0.981,0.412,1.516
				c0.08,0.534,0.121,1.062,0.121,1.584c0,0.709-0.13,1.435-0.391,2.176c-0.26,0.737-0.651,1.352-1.173,1.846
				c-0.516,0.494-1.14,0.741-1.873,0.741c-0.544,0-1.004-0.127-1.382-0.384c-0.377-0.256-0.566-0.643-0.566-1.159
				c0-0.189,0.063-0.346,0.189-0.472c0.13-0.13,0.289-0.195,0.478-0.195c0.184,0,0.339,0.065,0.465,0.195
				c0.131,0.126,0.196,0.284,0.196,0.472c0,0.18-0.065,0.335-0.196,0.465c-0.13,0.13-0.285,0.195-0.465,0.195H359.456z
				 M361.269,18.28c0.377,0,0.686-0.126,0.923-0.378c0.243-0.256,0.417-0.572,0.526-0.95c0.108-0.378,0.162-0.753,0.162-1.126
				v-0.263v-0.054c0-0.692-0.102-1.31-0.304-1.853c-0.202-0.544-0.588-0.815-1.159-0.815c-0.363,0-0.66,0.081-0.89,0.242
				c-0.224,0.158-0.39,0.368-0.499,0.634c-0.108,0.265-0.177,0.548-0.209,0.849c-0.026,0.301-0.04,0.629-0.04,0.984
				c0,0.521,0.025,0.966,0.074,1.334c0.05,0.368,0.184,0.694,0.405,0.977C360.478,18.141,360.816,18.28,361.269,18.28z"/>
			<path id="path115" inkscape:connector-curvature="0" d="M368.25,21.938c-1.127,0-1.896-0.462-2.304-1.387
				c-0.405-0.93-0.607-2.035-0.607-3.316c0-0.799,0.072-1.552,0.216-2.257c0.148-0.705,0.438-1.303,0.869-1.792
				c0.436-0.494,1.044-0.741,1.826-0.741c0.607,0,1.102,0.148,1.489,0.445s0.681,0.681,0.882,1.152
				c0.202,0.467,0.339,0.97,0.412,1.509c0.077,0.535,0.115,1.096,0.115,1.684c0,0.791-0.075,1.532-0.222,2.224
				c-0.144,0.687-0.43,1.273-0.856,1.759C369.642,21.699,369.036,21.938,368.25,21.938z M368.25,21.582
				c0.512,0,0.894-0.263,1.145-0.788c0.251-0.526,0.406-1.107,0.465-1.746c0.059-0.637,0.088-1.316,0.088-2.035
				c0-0.691-0.029-1.329-0.088-1.913c-0.058-0.584-0.213-1.112-0.465-1.584c-0.247-0.476-0.629-0.714-1.145-0.714
				c-0.521,0-0.908,0.238-1.159,0.714c-0.251,0.476-0.406,1.007-0.465,1.59c-0.058,0.58-0.088,1.215-0.088,1.907
				c0,0.512,0.012,0.996,0.034,1.449c0.027,0.454,0.094,0.923,0.202,1.409c0.107,0.48,0.281,0.887,0.518,1.219
				C367.536,21.418,367.854,21.582,368.25,21.582z"/>
		</g>
		<g id="text4553">
			<path id="path118" inkscape:connector-curvature="0" d="M376.569,21.791c-0.543,0-1.039-0.146-1.488-0.439
				c-0.45-0.296-0.8-0.684-1.051-1.165c-0.247-0.481-0.371-0.99-0.371-1.529c0-0.557,0.135-1.074,0.405-1.55
				c0.273-0.481,0.645-0.863,1.111-1.146c0.468-0.283,0.982-0.425,1.544-0.425c0.336,0,0.655,0.072,0.956,0.216
				c0.301,0.139,0.561,0.335,0.782,0.586v-2.871c0-0.247-0.038-0.424-0.115-0.532c-0.072-0.112-0.178-0.18-0.317-0.202
				c-0.135-0.027-0.348-0.041-0.64-0.041v-0.485l2.042-0.148v8.322c0,0.242,0.036,0.42,0.107,0.532
				c0.077,0.107,0.183,0.175,0.317,0.202c0.139,0.023,0.355,0.034,0.646,0.034v0.485l-2.082,0.155v-0.869
				c-0.238,0.274-0.52,0.488-0.849,0.64C377.238,21.715,376.906,21.791,376.569,21.791z M375.161,20.436
				c0.157,0.301,0.366,0.542,0.627,0.721c0.265,0.179,0.552,0.269,0.862,0.269c0.382,0,0.732-0.11,1.051-0.33
				c0.319-0.219,0.557-0.505,0.714-0.855v-3.308c-0.107-0.202-0.244-0.382-0.411-0.539c-0.162-0.162-0.346-0.285-0.553-0.371
				c-0.202-0.086-0.418-0.128-0.647-0.128c-0.48,0-0.867,0.137-1.159,0.411c-0.292,0.269-0.497,0.615-0.613,1.038
				c-0.117,0.423-0.175,0.865-0.175,1.327c0,0.368,0.018,0.689,0.054,0.963C374.952,19.908,375.035,20.175,375.161,20.436z"/>
			<path id="path120" inkscape:connector-curvature="0" d="M381.326,21.636V21.15c0.948,0,1.423-0.146,1.423-0.438v-7.58
				c0-0.292-0.474-0.438-1.423-0.438v-0.485h5.075c0.467,0,0.939,0.092,1.415,0.276c0.476,0.179,0.868,0.449,1.178,0.808
				c0.314,0.355,0.472,0.775,0.472,1.26c0,0.561-0.231,1.033-0.694,1.415c-0.458,0.378-0.995,0.625-1.61,0.742
				c0.4,0,0.811,0.11,1.233,0.33s0.768,0.515,1.038,0.883c0.269,0.368,0.404,0.76,0.404,1.172c0,0.504-0.151,0.949-0.452,1.335
				c-0.296,0.386-0.683,0.685-1.159,0.896c-0.477,0.206-0.955,0.31-1.436,0.31H381.326z M383.947,20.712
				c0,0.198,0.056,0.321,0.168,0.371c0.113,0.045,0.29,0.067,0.533,0.067h1.752c0.359,0,0.692-0.094,0.997-0.283
				c0.31-0.189,0.554-0.44,0.734-0.755c0.18-0.319,0.27-0.658,0.27-1.018c-0.001-0.349-0.075-0.691-0.223-1.023
				c-0.148-0.338-0.362-0.613-0.64-0.829c-0.275-0.216-0.589-0.323-0.944-0.323h-2.648V20.712z M383.947,16.555h2.069
				c0.279,0,0.539-0.049,0.782-0.148c0.247-0.103,0.466-0.25,0.66-0.438c0.197-0.193,0.348-0.409,0.451-0.647
				c0.108-0.242,0.162-0.499,0.162-0.768c0-0.238-0.041-0.467-0.121-0.688c-0.076-0.22-0.192-0.42-0.344-0.6
				c-0.154-0.179-0.333-0.319-0.539-0.418c-0.206-0.103-0.428-0.155-0.667-0.155h-1.752c-0.166,0-0.296,0.007-0.391,0.02
				c-0.089,0.014-0.164,0.054-0.222,0.121c-0.059,0.063-0.088,0.162-0.088,0.297V16.555z"/>
			<path id="path122" inkscape:connector-curvature="0" d="M391.083,21.636V21.15c0.822,0,1.327-0.272,1.516-0.815l2.898-8.43
				c0.026-0.099,0.101-0.148,0.222-0.148h0.175c0.121,0,0.195,0.049,0.222,0.148l3.026,8.807c0.086,0.193,0.247,0.314,0.485,0.364
				c0.243,0.049,0.544,0.074,0.904,0.074v0.485h-3.848V21.15c0.764,0,1.145-0.124,1.145-0.371v-0.067l-0.748-2.156h-3.349
				l-0.621,1.779c-0.009,0.031-0.013,0.078-0.013,0.141c0,0.23,0.108,0.401,0.323,0.512c0.221,0.107,0.456,0.162,0.708,0.162v0.485
				H391.083z M393.893,18.078h3.026l-1.516-4.407L393.893,18.078z"/>
		</g>
		<g id="text4555">
		</g>
	</g>
</g>
</svg>
