<?xml version="1.0" encoding="utf-8"?>
<!-- Generator: Adobe Illustrator 16.0.0, SVG Export Plug-In . SVG Version: 6.00 Build 0)  -->
<!DOCTYPE svg PUBLIC "-//W3C//DTD SVG 1.1//EN" "http://www.w3.org/Graphics/SVG/1.1/DTD/svg11.dtd">
<svg version="1.1"
	 id="svg3020" xmlns:dc="http://purl.org/dc/elements/1.1/" xmlns:cc="http://creativecommons.org/ns#" xmlns:rdf="http://www.w3.org/1999/02/22-rdf-syntax-ns#" xmlns:svg="http://www.w3.org/2000/svg" xmlns:inkscape="http://www.inkscape.org/namespaces/inkscape"
	 xmlns="http://www.w3.org/2000/svg" xmlns:xlink="http://www.w3.org/1999/xlink" x="0px" y="0px" width="575px" height="60px"
	 viewBox="0 0 320 60" enable-background="new 0 0 320 60" xml:space="preserve">
<g id="text3030" transform="scale(0.95814898,1.043679)">
</g>
<g id="g3009" transform="matrix(1.4688253,0,0,1.4688253,-277.70507,-0.75165246)">
	<g id="flowRoot3055" transform="matrix(0.68081616,0,0,0.68081616,189.0661,0.51173714)">
	</g>
	<g id="flowRoot3063" transform="matrix(0.68081616,0,0,0.68081616,189.0661,0.51173714)">
	</g>
	<g id="g3282" transform="matrix(1.0783784,0,0,1.0783784,-13.77243,11.782241)">
		<g id="text3284">
			<path id="path46" inkscape:connector-curvature="0" d="M211.263,13.046V12.56c0.948,0,1.422-0.146,1.422-0.438V4.542
				c0-0.292-0.474-0.438-1.422-0.438V3.619h7.608l0.384,3.16h-0.398c-0.063-0.58-0.148-1.035-0.256-1.368
				c-0.103-0.337-0.256-0.6-0.458-0.788c-0.202-0.193-0.474-0.328-0.815-0.404c-0.337-0.076-0.802-0.115-1.395-0.115h-1.26
				c-0.166,0-0.297,0.007-0.391,0.02c-0.09,0.013-0.164,0.054-0.222,0.121c-0.059,0.063-0.088,0.162-0.088,0.297v3.551h0.977
				c0.472,0,0.818-0.04,1.038-0.121c0.22-0.085,0.371-0.238,0.452-0.458c0.085-0.22,0.128-0.566,0.128-1.038h0.398v3.713h-0.398
				c0-0.472-0.043-0.818-0.128-1.038c-0.081-0.22-0.232-0.371-0.452-0.452c-0.22-0.085-0.566-0.128-1.038-0.128h-0.977v3.551
				c0,0.292,0.588,0.438,1.765,0.438v0.485H211.263z"/>
			<path id="path48" inkscape:connector-curvature="0" d="M220.616,13.241V10.02c0-0.072,0.04-0.108,0.121-0.108h0.168
				c0.027,0,0.052,0.011,0.074,0.034c0.023,0.022,0.034,0.047,0.034,0.074c0,0.903,0.278,1.604,0.835,2.102
				c0.562,0.494,1.296,0.741,2.204,0.741c0.319,0,0.613-0.092,0.883-0.276c0.27-0.184,0.478-0.424,0.627-0.721
				c0.153-0.301,0.229-0.61,0.229-0.93c0-0.279-0.056-0.547-0.168-0.809c-0.112-0.264-0.274-0.494-0.485-0.687
				c-0.211-0.194-0.449-0.321-0.714-0.384l-1.792-0.438c-0.593-0.157-1.078-0.478-1.456-0.964c-0.373-0.49-0.559-1.038-0.559-1.644
				c0-0.476,0.121-0.923,0.364-1.341c0.243-0.418,0.568-0.748,0.977-0.99c0.413-0.243,0.858-0.364,1.334-0.364
				c0.921,0,1.653,0.312,2.197,0.937l0.566-0.896c0.027-0.027,0.058-0.041,0.094-0.041h0.094c0.027,0,0.051,0.011,0.074,0.034
				c0.027,0.018,0.04,0.045,0.04,0.081v3.201c0,0.081-0.038,0.121-0.114,0.121h-0.162c-0.085,0-0.128-0.04-0.128-0.121
				c0-0.234-0.041-0.49-0.121-0.768c-0.076-0.278-0.184-0.546-0.323-0.802c-0.139-0.256-0.29-0.465-0.452-0.627
				c-0.445-0.449-1.033-0.674-1.765-0.674c-0.315,0-0.604,0.081-0.869,0.243c-0.265,0.157-0.476,0.373-0.633,0.647
				c-0.157,0.274-0.236,0.562-0.236,0.863c0,0.396,0.121,0.755,0.364,1.078c0.247,0.319,0.568,0.53,0.964,0.633l1.792,0.438
				c0.297,0.072,0.575,0.202,0.836,0.391c0.265,0.184,0.485,0.4,0.66,0.647c0.175,0.247,0.312,0.523,0.411,0.829
				c0.099,0.301,0.148,0.613,0.148,0.937c0,0.499-0.114,0.97-0.343,1.415c-0.229,0.44-0.553,0.795-0.97,1.065
				c-0.413,0.269-0.867,0.404-1.361,0.404c-0.305,0-0.618-0.034-0.937-0.101c-0.319-0.067-0.613-0.171-0.883-0.31
				s-0.515-0.319-0.735-0.539l-0.58,0.91c-0.027,0.027-0.06,0.04-0.101,0.04h-0.081C220.656,13.349,220.616,13.313,220.616,13.241z"
				/>
			<path id="path50" inkscape:connector-curvature="0" d="M227.954,13.046V12.56c0.948,0,1.422-0.146,1.422-0.438V4.542
				c0-0.292-0.474-0.438-1.422-0.438V3.619h4.912c0.503,0,1.006,0.103,1.509,0.31c0.503,0.207,0.916,0.507,1.24,0.903
				c0.328,0.395,0.492,0.856,0.492,1.381c0,0.512-0.164,0.961-0.492,1.347c-0.328,0.386-0.741,0.681-1.24,0.883
				c-0.498,0.198-1.002,0.297-1.509,0.297h-2.21v3.383c0,0.292,0.474,0.438,1.422,0.438v0.485H227.954z M230.615,8.329h1.873
				c0.507,0,0.919-0.072,1.233-0.215c0.314-0.148,0.543-0.375,0.687-0.681c0.148-0.31,0.223-0.716,0.223-1.22
				c0-0.75-0.166-1.289-0.499-1.617c-0.328-0.328-0.876-0.492-1.644-0.492h-1.173c-0.166,0-0.296,0.007-0.391,0.02
				c-0.09,0.013-0.164,0.054-0.223,0.121c-0.058,0.063-0.088,0.162-0.088,0.297V8.329z"/>
		</g>
		<g id="text3286">
			<path id="path53" inkscape:connector-curvature="0" d="M250.276,7.776h-7.992V6.698h7.992V7.776z M250.276,10.606h-7.992V9.528
				h7.992V10.606z"/>
		</g>
		<g id="text3288">
			<path id="path56" inkscape:connector-curvature="0" d="M256.375,13.241V10.02c0-0.072,0.04-0.108,0.121-0.108h0.168
				c0.027,0,0.052,0.011,0.074,0.034c0.022,0.022,0.034,0.047,0.034,0.074c0,0.903,0.278,1.604,0.835,2.102
				c0.562,0.494,1.296,0.741,2.203,0.741c0.319,0,0.613-0.092,0.883-0.276c0.269-0.184,0.478-0.424,0.626-0.721
				c0.153-0.301,0.229-0.61,0.229-0.93c0-0.279-0.056-0.547-0.169-0.809c-0.112-0.264-0.274-0.494-0.485-0.687
				c-0.211-0.194-0.449-0.321-0.714-0.384l-1.792-0.438c-0.593-0.157-1.078-0.478-1.456-0.964c-0.373-0.49-0.559-1.038-0.559-1.644
				c0-0.476,0.121-0.923,0.364-1.341c0.242-0.418,0.568-0.748,0.977-0.99c0.413-0.243,0.858-0.364,1.334-0.364
				c0.921,0,1.653,0.312,2.197,0.937l0.566-0.896c0.027-0.027,0.058-0.041,0.094-0.041h0.094c0.027,0,0.051,0.011,0.074,0.034
				c0.027,0.018,0.04,0.045,0.04,0.081v3.201c0,0.081-0.038,0.121-0.114,0.121h-0.162c-0.085,0-0.128-0.04-0.128-0.121
				c0-0.234-0.041-0.49-0.121-0.768c-0.076-0.278-0.184-0.546-0.323-0.802c-0.139-0.256-0.29-0.465-0.451-0.627
				c-0.445-0.449-1.033-0.674-1.765-0.674c-0.314,0-0.604,0.081-0.869,0.243c-0.265,0.157-0.476,0.373-0.633,0.647
				c-0.157,0.274-0.236,0.562-0.236,0.863c0,0.396,0.121,0.755,0.364,1.078c0.247,0.319,0.568,0.53,0.963,0.633l1.793,0.438
				c0.296,0.072,0.575,0.202,0.835,0.391c0.265,0.184,0.485,0.4,0.66,0.647c0.175,0.247,0.312,0.523,0.411,0.829
				c0.099,0.301,0.148,0.613,0.148,0.937c0,0.499-0.115,0.97-0.344,1.415c-0.229,0.44-0.553,0.795-0.97,1.065
				c-0.413,0.269-0.867,0.404-1.361,0.404c-0.305,0-0.618-0.034-0.937-0.101c-0.319-0.067-0.613-0.171-0.883-0.31
				c-0.269-0.139-0.514-0.319-0.735-0.539l-0.58,0.91c-0.027,0.027-0.06,0.04-0.101,0.04h-0.081
				C256.415,13.349,256.375,13.313,256.375,13.241z"/>
			<path id="path58" inkscape:connector-curvature="0" d="M263.713,13.046V12.56c0.948,0,1.422-0.146,1.422-0.438V4.542
				c0-0.292-0.474-0.438-1.422-0.438V3.619h4.912c0.503,0,1.006,0.103,1.509,0.31c0.503,0.207,0.916,0.507,1.24,0.903
				c0.328,0.395,0.492,0.856,0.492,1.381c0,0.512-0.164,0.961-0.492,1.347c-0.328,0.386-0.741,0.681-1.24,0.883
				c-0.498,0.198-1.002,0.297-1.509,0.297h-2.21v3.383c0,0.292,0.474,0.438,1.422,0.438v0.485H263.713z M266.375,8.329h1.873
				c0.508,0,0.919-0.072,1.233-0.215c0.314-0.148,0.543-0.375,0.687-0.681c0.148-0.31,0.222-0.716,0.222-1.22
				c0-0.75-0.166-1.289-0.499-1.617c-0.328-0.328-0.876-0.492-1.644-0.492h-1.172c-0.166,0-0.297,0.007-0.391,0.02
				c-0.09,0.013-0.164,0.054-0.223,0.121c-0.058,0.063-0.088,0.162-0.088,0.297V8.329z"/>
		</g>
		<g id="text3290">
			<path id="path61" inkscape:connector-curvature="0" d="M272.513,16.007c-0.403,0-0.776-0.102-1.119-0.304
				c-0.343-0.206-0.615-0.481-0.814-0.825c-0.2-0.343-0.299-0.718-0.299-1.123c0-0.308,0.054-0.604,0.162-0.888
				c0.111-0.284,0.268-0.538,0.471-0.76c0.206-0.226,0.445-0.401,0.716-0.525c0.272-0.128,0.566-0.191,0.883-0.191
				c0.412,0,0.787,0.109,1.124,0.328c0.34,0.216,0.609,0.507,0.805,0.874c0.196,0.363,0.294,0.75,0.294,1.163
				c0,0.402-0.1,0.777-0.299,1.123c-0.2,0.344-0.471,0.619-0.815,0.825C273.281,15.906,272.912,16.007,272.513,16.007z
				 M272.513,15.713c0.536,0,0.895-0.195,1.075-0.584c0.18-0.389,0.27-0.885,0.27-1.486c0-0.337-0.018-0.615-0.054-0.834
				c-0.036-0.223-0.114-0.424-0.236-0.604c-0.075-0.111-0.172-0.207-0.289-0.289c-0.115-0.085-0.237-0.149-0.368-0.192
				c-0.128-0.046-0.26-0.068-0.398-0.068c-0.209,0-0.409,0.047-0.599,0.142c-0.187,0.095-0.342,0.231-0.466,0.407
				c-0.124,0.19-0.204,0.4-0.24,0.629c-0.033,0.226-0.049,0.496-0.049,0.81c0,0.376,0.033,0.715,0.098,1.015
				c0.065,0.298,0.196,0.548,0.393,0.751C271.848,15.612,272.136,15.713,272.513,15.713z"/>
			<path id="path63" inkscape:connector-curvature="0" d="M276.11,14.697v-2.218c0-0.18-0.028-0.309-0.084-0.387
				c-0.052-0.082-0.129-0.131-0.231-0.147c-0.101-0.02-0.258-0.03-0.471-0.03v-0.353l1.521-0.108v3.244
				c0,0.261,0.018,0.466,0.054,0.613c0.039,0.144,0.119,0.252,0.24,0.324c0.124,0.072,0.321,0.109,0.589,0.109
				c0.36,0,0.646-0.151,0.859-0.452c0.213-0.301,0.319-0.643,0.319-1.025v-1.787c0-0.18-0.028-0.309-0.084-0.387
				c-0.055-0.082-0.134-0.131-0.236-0.147c-0.098-0.02-0.254-0.03-0.466-0.03v-0.353l1.516-0.108v3.528
				c0,0.176,0.026,0.306,0.078,0.387c0.056,0.079,0.134,0.128,0.236,0.147c0.101,0.017,0.259,0.025,0.471,0.025v0.353l-1.487,0.113
				v-0.849c-0.124,0.252-0.297,0.456-0.52,0.613c-0.223,0.157-0.468,0.236-0.736,0.236c-0.481,0-0.864-0.102-1.148-0.304
				C276.25,15.498,276.11,15.162,276.11,14.697z"/>
			<path id="path65" inkscape:connector-curvature="0" d="M281.625,14.687v-2.773h-0.834v-0.26c0.438,0,0.761-0.204,0.967-0.613
				c0.206-0.409,0.309-0.852,0.309-1.329h0.289v1.85h1.418v0.353h-1.418v2.753c0,0.279,0.046,0.522,0.138,0.731
				c0.095,0.21,0.263,0.314,0.506,0.314c0.229,0,0.394-0.11,0.495-0.329c0.101-0.222,0.152-0.461,0.152-0.716v-0.594h0.289v0.613
				c0,0.21-0.039,0.417-0.118,0.623c-0.075,0.203-0.188,0.369-0.338,0.501c-0.151,0.131-0.334,0.196-0.55,0.196
				c-0.403,0-0.721-0.119-0.957-0.358C281.741,15.408,281.625,15.087,281.625,14.687z"/>
		</g>
		<g id="text3292">
			<path id="path68" inkscape:connector-curvature="0" d="M290.855,10.492V9.636h3.652v0.856H290.855z"/>
		</g>
		<g id="text3294">
			<path id="path71" inkscape:connector-curvature="0" d="M304.675,13.241V10.02c0-0.072,0.04-0.108,0.121-0.108h0.168
				c0.027,0,0.051,0.011,0.074,0.034c0.023,0.022,0.034,0.047,0.034,0.074c0,0.903,0.279,1.604,0.835,2.102
				c0.562,0.494,1.296,0.741,2.204,0.741c0.319,0,0.613-0.092,0.882-0.276c0.27-0.184,0.478-0.424,0.627-0.721
				c0.152-0.301,0.229-0.61,0.229-0.93c0-0.279-0.055-0.547-0.168-0.809c-0.113-0.264-0.274-0.494-0.486-0.687
				c-0.211-0.194-0.449-0.321-0.714-0.384l-1.792-0.438c-0.593-0.157-1.078-0.478-1.456-0.964c-0.373-0.49-0.559-1.038-0.559-1.644
				c0-0.476,0.121-0.923,0.364-1.341c0.242-0.418,0.568-0.748,0.977-0.99c0.413-0.243,0.858-0.364,1.334-0.364
				c0.921,0,1.653,0.312,2.197,0.937l0.566-0.896c0.027-0.027,0.059-0.041,0.094-0.041h0.094c0.027,0,0.052,0.011,0.075,0.034
				c0.027,0.018,0.04,0.045,0.04,0.081v3.201c0,0.081-0.038,0.121-0.115,0.121h-0.162c-0.085,0-0.128-0.04-0.128-0.121
				c0-0.234-0.04-0.49-0.121-0.768c-0.076-0.278-0.184-0.546-0.323-0.802c-0.139-0.256-0.29-0.465-0.452-0.627
				c-0.445-0.449-1.033-0.674-1.765-0.674c-0.314,0-0.604,0.081-0.869,0.243c-0.265,0.157-0.476,0.373-0.634,0.647
				c-0.157,0.274-0.236,0.562-0.236,0.863c0,0.396,0.121,0.755,0.364,1.078c0.247,0.319,0.568,0.53,0.964,0.633l1.792,0.438
				c0.297,0.072,0.575,0.202,0.836,0.391c0.264,0.184,0.485,0.4,0.66,0.647c0.175,0.247,0.313,0.523,0.411,0.829
				c0.099,0.301,0.149,0.613,0.149,0.937c0,0.499-0.115,0.97-0.344,1.415c-0.229,0.44-0.552,0.795-0.97,1.065
				c-0.413,0.269-0.867,0.404-1.361,0.404c-0.305,0-0.617-0.034-0.936-0.101c-0.319-0.067-0.613-0.171-0.883-0.31
				c-0.27-0.139-0.514-0.319-0.735-0.539l-0.58,0.91c-0.026,0.027-0.06,0.04-0.101,0.04h-0.08
				C304.715,13.349,304.675,13.313,304.675,13.241z"/>
			<path id="path73" inkscape:connector-curvature="0" d="M312.013,13.046V12.56c0.948,0,1.422-0.146,1.422-0.438V4.542
				c0-0.292-0.474-0.438-1.422-0.438V3.619h4.912c0.503,0,1.006,0.103,1.509,0.31c0.503,0.207,0.917,0.507,1.24,0.903
				c0.328,0.395,0.492,0.856,0.492,1.381c0,0.512-0.164,0.961-0.492,1.347c-0.328,0.386-0.741,0.681-1.24,0.883
				c-0.498,0.198-1.001,0.297-1.509,0.297h-2.21v3.383c0,0.292,0.474,0.438,1.422,0.438v0.485H312.013z M314.675,8.329h1.873
				c0.508,0,0.919-0.072,1.233-0.215c0.314-0.148,0.544-0.375,0.687-0.681c0.149-0.31,0.223-0.716,0.223-1.22
				c0-0.75-0.166-1.289-0.499-1.617c-0.328-0.328-0.876-0.492-1.644-0.492h-1.173c-0.166,0-0.296,0.007-0.39,0.02
				c-0.09,0.013-0.164,0.054-0.223,0.121c-0.058,0.063-0.088,0.162-0.088,0.297V8.329z"/>
		</g>
		<g id="text3296">
			<path id="path76" inkscape:connector-curvature="0" d="M318.609,15.895v-0.353c0.229,0,0.417-0.018,0.564-0.054
				c0.147-0.036,0.221-0.125,0.221-0.265v-2.744c0-0.258-0.051-0.417-0.153-0.476c-0.097-0.059-0.294-0.088-0.588-0.088v-0.353
				l1.448-0.108v3.769c0,0.141,0.064,0.229,0.191,0.265c0.128,0.036,0.297,0.054,0.51,0.054v0.353H318.609z M319.036,9.726
				c0-0.147,0.055-0.276,0.167-0.388c0.112-0.111,0.239-0.166,0.383-0.166c0.095,0,0.186,0.025,0.275,0.073
				c0.088,0.049,0.157,0.118,0.206,0.207c0.049,0.088,0.073,0.18,0.073,0.274c0,0.144-0.056,0.272-0.167,0.383
				c-0.111,0.111-0.24,0.166-0.387,0.166c-0.144,0-0.271-0.055-0.383-0.166C319.091,9.998,319.036,9.87,319.036,9.726z"/>
			<path id="path78" inkscape:connector-curvature="0" d="M321.387,15.895v-0.353c0.229,0,0.417-0.018,0.564-0.054
				c0.147-0.036,0.221-0.125,0.221-0.265v-2.744c0-0.18-0.028-0.309-0.083-0.387c-0.052-0.082-0.129-0.131-0.231-0.147
				c-0.102-0.02-0.258-0.03-0.471-0.03v-0.353l1.458-0.108v0.982c0.134-0.288,0.332-0.523,0.594-0.707
				c0.265-0.182,0.552-0.274,0.864-0.274c0.464,0,0.813,0.112,1.045,0.334c0.236,0.223,0.353,0.563,0.353,1.021v2.414
				c0,0.141,0.073,0.229,0.221,0.265c0.147,0.036,0.335,0.054,0.564,0.054v0.353h-2.301v-0.353c0.229,0,0.417-0.018,0.564-0.054
				c0.147-0.036,0.221-0.125,0.221-0.265v-2.385c0-0.327-0.047-0.596-0.142-0.805c-0.095-0.213-0.289-0.319-0.584-0.319
				c-0.389,0-0.71,0.155-0.962,0.466c-0.248,0.311-0.373,0.664-0.373,1.06v1.983c0,0.141,0.074,0.229,0.221,0.265
				c0.147,0.036,0.334,0.054,0.56,0.054v0.353H321.387z"/>
		</g>
		<g id="text3298">
			<path id="path81" inkscape:connector-curvature="0" d="M332.255,10.492V9.636h3.652v0.856H332.255z"/>
		</g>
		<g id="text3300">
			<path id="path84" inkscape:connector-curvature="0" d="M350.309,13.2l-3.255-8.658c-0.081-0.193-0.236-0.314-0.465-0.364
				c-0.229-0.049-0.522-0.074-0.876-0.074V3.619h3.794v0.485c-0.763,0-1.146,0.119-1.146,0.357c0.005,0.014,0.007,0.027,0.007,0.041
				c0.004,0.009,0.007,0.022,0.007,0.04l2.648,7.042l2.5-6.664c0.018-0.036,0.026-0.092,0.026-0.169
				c0-0.224-0.103-0.388-0.309-0.492c-0.207-0.103-0.438-0.155-0.694-0.155V3.619h2.979v0.485c-0.346,0-0.652,0.065-0.917,0.195
				c-0.26,0.126-0.446,0.332-0.559,0.62l-3.12,8.281c-0.027,0.099-0.101,0.149-0.223,0.149h-0.175
				C350.41,13.349,350.335,13.3,350.309,13.2z"/>
			<path id="path86" inkscape:connector-curvature="0" d="M356.259,13.046V12.56c0.947,0,1.422-0.146,1.422-0.438V4.542
				c0-0.292-0.475-0.438-1.422-0.438V3.619h4.912c0.503,0,1.006,0.103,1.509,0.31c0.503,0.207,0.916,0.507,1.24,0.903
				c0.328,0.395,0.492,0.856,0.492,1.381c0,0.512-0.164,0.961-0.492,1.347s-0.741,0.681-1.24,0.883
				c-0.499,0.198-1.002,0.297-1.509,0.297h-2.21v3.383c0,0.292,0.474,0.438,1.422,0.438v0.485H356.259z M358.92,8.329h1.873
				c0.508,0,0.919-0.072,1.233-0.215c0.315-0.148,0.544-0.375,0.688-0.681c0.148-0.31,0.222-0.716,0.222-1.22
				c0-0.75-0.166-1.289-0.498-1.617c-0.328-0.328-0.877-0.492-1.645-0.492h-1.172c-0.166,0-0.297,0.007-0.391,0.02
				c-0.089,0.013-0.164,0.054-0.223,0.121c-0.058,0.063-0.088,0.162-0.088,0.297V8.329z"/>
		</g>
		<g id="text3302">
			<path id="path89" inkscape:connector-curvature="0" d="M363.821,15.895v-0.353c0.229,0,0.417-0.018,0.564-0.054
				c0.148-0.036,0.221-0.125,0.221-0.265v-2.744c0-0.258-0.051-0.417-0.152-0.476c-0.098-0.059-0.295-0.088-0.589-0.088v-0.353
				l1.448-0.108v3.769c0,0.141,0.064,0.229,0.192,0.265c0.127,0.036,0.297,0.054,0.51,0.054v0.353H363.821z M364.248,9.726
				c0-0.147,0.055-0.276,0.166-0.388c0.112-0.111,0.239-0.166,0.383-0.166c0.095,0,0.187,0.025,0.275,0.073
				c0.088,0.049,0.157,0.118,0.207,0.207c0.049,0.088,0.073,0.18,0.073,0.274c0,0.144-0.055,0.272-0.166,0.383
				c-0.111,0.111-0.24,0.166-0.387,0.166c-0.144,0-0.272-0.055-0.383-0.166C364.303,9.998,364.248,9.87,364.248,9.726z"/>
			<path id="path91" inkscape:connector-curvature="0" d="M366.598,15.895v-0.353c0.229,0,0.417-0.018,0.565-0.054
				c0.147-0.036,0.221-0.125,0.221-0.265v-2.744c0-0.18-0.028-0.309-0.084-0.387c-0.052-0.082-0.129-0.131-0.231-0.147
				c-0.101-0.02-0.258-0.03-0.471-0.03v-0.353l1.457-0.108v0.982c0.134-0.288,0.332-0.523,0.594-0.707
				c0.264-0.182,0.552-0.274,0.863-0.274c0.465,0,0.813,0.112,1.046,0.334c0.236,0.223,0.353,0.563,0.353,1.021v2.414
				c0,0.141,0.074,0.229,0.221,0.265c0.147,0.036,0.335,0.054,0.564,0.054v0.353h-2.302v-0.353c0.229,0,0.417-0.018,0.564-0.054
				c0.148-0.036,0.221-0.125,0.221-0.265v-2.385c0-0.327-0.047-0.596-0.142-0.805c-0.095-0.213-0.29-0.319-0.584-0.319
				c-0.389,0-0.71,0.155-0.962,0.466c-0.248,0.311-0.373,0.664-0.373,1.06v1.983c0,0.141,0.073,0.229,0.221,0.265
				c0.147,0.036,0.334,0.054,0.56,0.054v0.353H366.598z"/>
		</g>
		<g id="text3304">
		</g>
	</g>
</g>
</svg>
