<?xml version="1.0" encoding="utf-8"?>
<!-- Generator: Adobe Illustrator 16.0.0, SVG Export Plug-In . SVG Version: 6.00 Build 0)  -->
<!DOCTYPE svg PUBLIC "-//W3C//DTD SVG 1.1//EN" "http://www.w3.org/Graphics/SVG/1.1/DTD/svg11.dtd">
<svg version="1.1"
	 id="svg3020" xmlns:dc="http://purl.org/dc/elements/1.1/" xmlns:cc="http://creativecommons.org/ns#" xmlns:rdf="http://www.w3.org/1999/02/22-rdf-syntax-ns#" xmlns:svg="http://www.w3.org/2000/svg" xmlns:inkscape="http://www.inkscape.org/namespaces/inkscape"
	 xmlns="http://www.w3.org/2000/svg" xmlns:xlink="http://www.w3.org/1999/xlink" x="0px" y="0px" width="575px" height="60px"
	 viewBox="0 0 320 60" enable-background="new 0 0 320 60" xml:space="preserve">
<g id="text3030" transform="scale(0.95814898,1.043679)">
</g>
<g id="g3009" transform="matrix(1.4688253,0,0,1.4688253,-277.70507,-0.75165246)">
	<g id="flowRoot3055" transform="matrix(0.68081616,0,0,0.68081616,189.0661,0.51173714)">
	</g>
	<g id="flowRoot3063" transform="matrix(0.68081616,0,0,0.68081616,189.0661,0.51173714)">
	</g>
	<path id="path3142" inkscape:connector-curvature="0" fill="none" stroke="#000000" stroke-width="1.5038" d="M353.6,9.014h32.15"
		/>
	<g id="g3484" transform="matrix(1.6726926,0,0,1.6726926,-188.80686,3.2240746)">
		<g id="text3486">
			<path id="path42" inkscape:connector-curvature="0" d="M249.058,15.426l-3.255-8.658c-0.081-0.193-0.236-0.315-0.465-0.364
				c-0.229-0.049-0.521-0.074-0.876-0.074V5.844h3.794v0.485c-0.764,0-1.146,0.119-1.146,0.357c0.005,0.014,0.007,0.027,0.007,0.04
				c0.005,0.009,0.007,0.022,0.007,0.041l2.648,7.042l2.5-6.664c0.018-0.036,0.027-0.092,0.027-0.168
				c0-0.225-0.103-0.389-0.31-0.492c-0.207-0.103-0.438-0.155-0.694-0.155V5.844h2.978v0.485c-0.346,0-0.651,0.065-0.916,0.195
				c-0.261,0.126-0.447,0.332-0.559,0.62l-3.12,8.281c-0.027,0.099-0.101,0.149-0.222,0.149h-0.175
				C249.159,15.574,249.085,15.525,249.058,15.426z"/>
		</g>
		<g id="text3488">
			<path id="path45" inkscape:connector-curvature="0" d="M266.742,10.001h-7.992V8.923h7.992V10.001z M266.742,12.832h-7.992
				v-1.078h7.992V12.832z"/>
		</g>
		<g id="text3490">
			<path id="path48" inkscape:connector-curvature="0" d="M271.584,12.993v-0.485l4.265-6.361c0.032-0.045,0.079-0.067,0.142-0.067
				h0.202c0.103,0,0.155,0.052,0.155,0.155v6.273h1.354v0.485h-1.354v1.355c0,0.188,0.135,0.31,0.404,0.364
				c0.269,0.049,0.582,0.074,0.936,0.074v0.485h-3.8v-0.485c0.355,0,0.667-0.025,0.937-0.074c0.27-0.054,0.404-0.176,0.404-0.364
				v-1.355H271.584z M272.042,12.508h3.268V7.623L272.042,12.508z"/>
			<path id="path50" inkscape:connector-curvature="0" d="M281.55,15.574c-1.127,0-1.896-0.463-2.305-1.388
				c-0.404-0.93-0.606-2.035-0.606-3.315c0-0.799,0.072-1.552,0.216-2.257c0.148-0.705,0.438-1.303,0.869-1.792
				c0.436-0.494,1.044-0.741,1.826-0.741c0.607,0,1.103,0.148,1.489,0.445s0.681,0.68,0.883,1.152
				c0.202,0.467,0.339,0.97,0.411,1.509c0.076,0.534,0.115,1.096,0.115,1.684c0,0.791-0.074,1.532-0.222,2.224
				c-0.144,0.687-0.429,1.274-0.856,1.759C282.943,15.333,282.336,15.574,281.55,15.574z M281.55,15.217
				c0.512,0,0.894-0.263,1.146-0.788c0.252-0.526,0.407-1.107,0.465-1.746c0.058-0.638,0.088-1.316,0.088-2.035
				c0-0.692-0.029-1.33-0.088-1.914c-0.058-0.584-0.213-1.112-0.465-1.584c-0.247-0.476-0.629-0.714-1.146-0.714
				c-0.521,0-0.907,0.238-1.159,0.714c-0.251,0.476-0.406,1.006-0.465,1.59c-0.058,0.58-0.088,1.215-0.088,1.907
				c0,0.512,0.011,0.995,0.034,1.449c0.027,0.454,0.094,0.923,0.202,1.408c0.108,0.481,0.281,0.887,0.519,1.22
				C280.836,15.053,281.155,15.217,281.55,15.217z"/>
			<path id="path52" inkscape:connector-curvature="0" d="M288.45,15.574c-1.127,0-1.896-0.463-2.305-1.388
				c-0.404-0.93-0.606-2.035-0.606-3.315c0-0.799,0.072-1.552,0.216-2.257c0.148-0.705,0.438-1.303,0.869-1.792
				c0.436-0.494,1.044-0.741,1.826-0.741c0.606,0,1.103,0.148,1.489,0.445s0.68,0.68,0.883,1.152
				c0.202,0.467,0.339,0.97,0.411,1.509c0.076,0.534,0.114,1.096,0.114,1.684c0,0.791-0.074,1.532-0.222,2.224
				c-0.144,0.687-0.429,1.274-0.856,1.759C289.843,15.333,289.236,15.574,288.45,15.574z M288.45,15.217
				c0.512,0,0.894-0.263,1.146-0.788c0.251-0.526,0.406-1.107,0.465-1.746c0.058-0.638,0.088-1.316,0.088-2.035
				c0-0.692-0.029-1.33-0.088-1.914c-0.058-0.584-0.213-1.112-0.465-1.584c-0.247-0.476-0.629-0.714-1.146-0.714
				c-0.521,0-0.907,0.238-1.159,0.714c-0.252,0.476-0.406,1.006-0.465,1.59c-0.058,0.58-0.088,1.215-0.088,1.907
				c0,0.512,0.011,0.995,0.034,1.449c0.027,0.454,0.094,0.923,0.202,1.408c0.108,0.481,0.281,0.887,0.519,1.22
				C287.736,15.053,288.055,15.217,288.45,15.217z"/>
			<path id="path54" inkscape:connector-curvature="0" d="M293.099,13.701c0.094,0.27,0.238,0.514,0.431,0.735
				c0.198,0.22,0.429,0.393,0.694,0.519c0.27,0.121,0.548,0.182,0.835,0.182c0.665,0,1.123-0.258,1.375-0.775
				c0.252-0.517,0.378-1.143,0.378-1.88c0-0.319-0.007-0.586-0.021-0.802c-0.009-0.22-0.038-0.431-0.087-0.634
				c-0.085-0.323-0.236-0.606-0.452-0.849c-0.211-0.242-0.471-0.364-0.781-0.364c-0.31,0-0.577,0.047-0.802,0.142
				c-0.22,0.094-0.399,0.204-0.539,0.33c-0.139,0.126-0.262,0.258-0.37,0.397c-0.108,0.139-0.175,0.214-0.202,0.222h-0.155
				c-0.023,0-0.052-0.014-0.088-0.041c-0.031-0.031-0.047-0.06-0.047-0.087V6.188c0-0.022,0.013-0.045,0.041-0.067
				c0.032-0.027,0.063-0.041,0.095-0.041h0.04c0.62,0.297,1.278,0.445,1.974,0.445c0.683,0,1.341-0.148,1.974-0.445h0.041
				c0.031,0,0.061,0.011,0.087,0.034c0.027,0.022,0.041,0.047,0.041,0.074v0.128c0,0.045-0.009,0.067-0.027,0.067
				c-0.314,0.418-0.71,0.743-1.186,0.977c-0.472,0.234-0.962,0.35-1.469,0.35c-0.368,0-0.746-0.051-1.132-0.155v2.608
				c0.305-0.247,0.577-0.422,0.815-0.526c0.242-0.108,0.551-0.162,0.923-0.162c0.507,0,0.961,0.146,1.361,0.438
				c0.404,0.292,0.714,0.674,0.93,1.146c0.216,0.467,0.324,0.946,0.324,1.435c0,0.553-0.137,1.064-0.411,1.536
				c-0.269,0.472-0.638,0.847-1.105,1.125c-0.467,0.279-0.975,0.418-1.522,0.418c-0.454,0-0.872-0.117-1.254-0.351
				c-0.377-0.234-0.676-0.548-0.896-0.944c-0.216-0.395-0.324-0.815-0.324-1.26c0-0.207,0.068-0.375,0.202-0.505
				c0.135-0.13,0.303-0.196,0.506-0.196c0.202,0,0.37,0.068,0.505,0.202c0.139,0.13,0.209,0.297,0.209,0.498
				c0,0.198-0.07,0.366-0.209,0.506c-0.135,0.135-0.303,0.202-0.505,0.202c-0.032,0-0.068-0.002-0.108-0.006
				C293.146,13.712,293.117,13.705,293.099,13.701z"/>
		</g>
		<g id="text3492">
			<path id="path57" inkscape:connector-curvature="0" d="M305.95,9.584c-0.103,0-0.198-0.043-0.283-0.128
				c-0.081-0.09-0.121-0.189-0.121-0.297c0-0.153,0.065-0.263,0.195-0.33l1.988-0.943l-1.988-0.923
				c-0.13-0.067-0.195-0.177-0.195-0.33c0-0.117,0.04-0.218,0.121-0.303c0.081-0.085,0.175-0.128,0.283-0.128
				c0.072,0,0.139,0.025,0.202,0.074l1.752,1.28l-0.202-2.237l-0.014-0.027c0-0.103,0.041-0.191,0.121-0.263
				c0.085-0.072,0.182-0.108,0.29-0.108c0.099,0,0.188,0.034,0.27,0.101c0.085,0.067,0.128,0.157,0.128,0.27v0.027l-0.215,2.237
				l1.752-1.28c0.063-0.049,0.13-0.074,0.202-0.074c0.112,0,0.207,0.043,0.283,0.128c0.081,0.085,0.121,0.186,0.121,0.303
				c0,0.153-0.065,0.263-0.195,0.33l-1.988,0.923l1.988,0.943c0.13,0.067,0.195,0.177,0.195,0.33c0,0.108-0.04,0.207-0.121,0.297
				c-0.076,0.085-0.171,0.128-0.283,0.128c-0.076,0-0.144-0.022-0.202-0.067l-1.752-1.28l0.215,2.23v0.027
				c0,0.108-0.043,0.198-0.128,0.269c-0.081,0.072-0.171,0.108-0.27,0.108c-0.108,0-0.204-0.036-0.29-0.108
				c-0.081-0.076-0.121-0.166-0.121-0.269l0.014-0.027l0.202-2.23l-1.752,1.28C306.099,9.561,306.031,9.584,305.95,9.584z"/>
		</g>
		<g id="text3494">
			<path id="path60" inkscape:connector-curvature="0" d="M316.846,9.285l2.378,5.229l3.328-11.502h1.719v0.896h-1.22l-3.625,12.385
				h-0.653l-2.789-5.997l-1.139,0.505l-0.209-0.505L316.846,9.285z"/>
		</g>
		<g id="text3496">
			<path id="path63" inkscape:connector-curvature="0" d="M328.258,15.426l-3.255-8.658c-0.081-0.193-0.236-0.315-0.465-0.364
				c-0.229-0.049-0.522-0.074-0.876-0.074V5.844h3.794v0.485c-0.764,0-1.146,0.119-1.146,0.357c0.005,0.014,0.007,0.027,0.007,0.04
				c0.005,0.009,0.007,0.022,0.007,0.041l2.648,7.042l2.5-6.664c0.018-0.036,0.027-0.092,0.027-0.168
				c0-0.225-0.103-0.389-0.31-0.492c-0.207-0.103-0.438-0.155-0.694-0.155V5.844h2.978v0.485c-0.346,0-0.651,0.065-0.917,0.195
				c-0.26,0.126-0.447,0.332-0.559,0.62l-3.12,8.281c-0.027,0.099-0.101,0.149-0.222,0.149h-0.175
				C328.359,15.574,328.285,15.525,328.258,15.426z"/>
			<path id="path65" inkscape:connector-curvature="0" d="M334.208,15.271v-0.485c0.948,0,1.422-0.146,1.422-0.438V6.767
				c0-0.292-0.474-0.438-1.422-0.438V5.844h4.912c0.503,0,1.006,0.103,1.509,0.31c0.503,0.207,0.917,0.508,1.24,0.903
				c0.328,0.395,0.492,0.856,0.492,1.381c0,0.512-0.164,0.961-0.492,1.348c-0.328,0.386-0.741,0.681-1.24,0.883
				c-0.498,0.198-1.002,0.297-1.509,0.297h-2.21v3.383c0,0.292,0.474,0.438,1.422,0.438v0.485H334.208z M336.87,10.554h1.873
				c0.508,0,0.919-0.072,1.233-0.216c0.314-0.148,0.544-0.375,0.687-0.68c0.148-0.31,0.222-0.716,0.222-1.22
				c0-0.75-0.166-1.289-0.498-1.617c-0.328-0.328-0.876-0.492-1.644-0.492h-1.173c-0.166,0-0.297,0.007-0.391,0.02
				c-0.09,0.014-0.164,0.054-0.222,0.121c-0.058,0.063-0.087,0.162-0.087,0.297V10.554z"/>
		</g>
		<g id="text3498">
		</g>
	</g>
</g>
</svg>
