<?xml version="1.0" encoding="UTF-8" standalone="no"?>
<!-- Created with Inkscape (http://www.inkscape.org/) -->

<svg
   xmlns:dc="http://purl.org/dc/elements/1.1/"
   xmlns:cc="http://creativecommons.org/ns#"
   xmlns:rdf="http://www.w3.org/1999/02/22-rdf-syntax-ns#"
   xmlns:svg="http://www.w3.org/2000/svg"
   xmlns="http://www.w3.org/2000/svg"
   xmlns:sodipodi="http://sodipodi.sourceforge.net/DTD/sodipodi-0.dtd"
   xmlns:inkscape="http://www.inkscape.org/namespaces/inkscape"
   version="1.2"
   width="320"
   height="60"
   id="svg3020"
   inkscape:version="0.48.3.1 r9886"
   sodipodi:docname="eqn_concen_02.svg">
  <sodipodi:namedview
     pagecolor="#ffffff"
     bordercolor="#666666"
     borderopacity="1"
     objecttolerance="10"
     gridtolerance="10"
     guidetolerance="10"
     inkscape:pageopacity="0"
     inkscape:pageshadow="2"
     inkscape:window-width="1366"
     inkscape:window-height="716"
     id="namedview3013"
     showgrid="false"
     inkscape:zoom="1.5301741"
     inkscape:cx="58.050817"
     inkscape:cy="51.139554"
     inkscape:window-x="-8"
     inkscape:window-y="-8"
     inkscape:window-maximized="1"
     inkscape:current-layer="svg3020" />
  <metadata
     id="metadata3026">
    <rdf:RDF>
      <cc:Work
         rdf:about="">
        <dc:format>image/svg+xml</dc:format>
        <dc:type
           rdf:resource="http://purl.org/dc/dcmitype/StillImage" />
        <dc:title></dc:title>
      </cc:Work>
    </rdf:RDF>
  </metadata>
  <defs
     id="defs3024" />
  <text
     x="44.56657"
     y="42.23513"
     transform="scale(0.95814898,1.043679)"
     id="text3030"
     xml:space="preserve"
     style="font-size:41.02812958px;font-style:normal;font-variant:normal;font-weight:normal;font-stretch:normal;line-height:125%;letter-spacing:0px;word-spacing:0px;fill:#000000;fill-opacity:1;font-family:Cambria Math;-inkscape-font-specification:Cambria Math"
     sodipodi:linespacing="125%"><tspan
       x="44.56657"
       y="42.23513"
       id="tspan3032" /></text>
  <g
     style="font-size:24px;font-style:normal;font-variant:normal;font-weight:normal;font-stretch:normal;text-align:center;line-height:125%;letter-spacing:0px;word-spacing:0px;text-anchor:middle;fill:#ffffff;fill-opacity:1;font-family:cmr10;-inkscape-font-specification:cmr10"
     id="text3015">
    <path
       d="m 39.732819,37.977501 0,-0.84375 c 0.546873,1e-6 0.996092,-0.04297 1.347656,-0.128906 0.35156,-0.08594 0.527341,-0.296874 0.527344,-0.632813 l 0,-6.550781 c -3e-6,-0.429679 -0.06446,-0.740226 -0.19336,-0.931641 -0.128908,-0.191397 -0.314455,-0.308584 -0.55664,-0.351562 -0.242189,-0.04296 -0.617189,-0.06444 -1.125,-0.06445 l 0,-0.84375 3.480468,-0.257813 0,2.34375 c 0.320308,-0.687491 0.794917,-1.24999 1.423828,-1.6875 0.6289,-0.437489 1.314447,-0.656239 2.056641,-0.65625 1.843741,1.1e-5 2.925771,0.75001 3.246094,2.25 0.320301,-0.671866 0.789051,-1.214834 1.40625,-1.628906 0.617174,-0.414052 1.292955,-0.621083 2.027344,-0.621094 0.726547,1.1e-5 1.337875,0.117198 1.833984,0.351563 0.496077,0.234385 0.869124,0.591806 1.119141,1.072265 0.249982,0.480478 0.374982,1.083993 0.375,1.810547 l 0,5.765625 c -1.8e-5,0.335939 0.177716,0.546876 0.533203,0.632813 0.35545,0.08594 0.802715,0.128907 1.341797,0.128906 l 0,0.84375 -5.496094,0 0,-0.84375 c 0.54686,1e-6 0.996079,-0.04297 1.347656,-0.128906 0.351547,-0.08594 0.527328,-0.296874 0.527344,-0.632813 l 0,-5.695312 c -1.6e-5,-0.80468 -0.113297,-1.453117 -0.339844,-1.945313 -0.226578,-0.492178 -0.691421,-0.738271 -1.394531,-0.738281 -0.921888,10e-6 -1.683606,0.371103 -2.285156,1.113281 -0.601574,0.742196 -0.902355,1.585945 -0.902344,2.53125 l 0,4.734375 c -1.1e-5,0.335939 0.17577,0.546876 0.527344,0.632813 0.35155,0.08594 0.800769,0.128907 1.347656,0.128906 l 0,0.84375 -5.496094,0 0,-0.84375 c 0.546867,1e-6 0.996085,-0.04297 1.347656,-0.128906 0.351554,-0.08594 0.527335,-0.296874 0.527344,-0.632813 l 0,-5.695312 c -9e-6,-0.781242 -0.11329,-1.42382 -0.339844,-1.927735 -0.226571,-0.503896 -0.691414,-0.755849 -1.394531,-0.755859 -0.929694,10e-6 -1.693365,0.371103 -2.291016,1.113281 -0.59766,0.742196 -0.896488,1.585945 -0.896484,2.53125 l 0,4.734375 c -4e-6,0.335939 0.175777,0.546876 0.527344,0.632813 0.351557,0.08594 0.796869,0.128907 1.335937,0.128906 l 0,0.84375 z"
       style=""
       id="path3824" />
    <path
       d="m 59.654694,42.629845 0,-0.832032 c 0.546873,-3e-6 0.996092,-0.04688 1.347656,-0.140625 0.35156,-0.09375 0.527341,-0.30469 0.527344,-0.632812 l 0,-11.566406 c -3e-6,-0.437491 -0.156253,-0.710929 -0.46875,-0.820313 -0.312502,-0.109365 -0.781252,-0.164053 -1.40625,-0.164062 l 0,-0.84375 3.550781,-0.257813 0,1.488281 c 0.437495,-0.484365 0.94726,-0.853505 1.529297,-1.107421 0.582025,-0.253896 1.201165,-0.380849 1.857422,-0.38086 0.945304,1.1e-5 1.796865,0.25587 2.554687,0.767578 0.757802,0.511728 1.349598,1.183603 1.775391,2.015625 0.425769,0.832039 0.638659,1.712897 0.638672,2.642578 -1.3e-5,0.968755 -0.236341,1.871097 -0.708985,2.707032 -0.472667,0.835939 -1.117198,1.501954 -1.933594,1.998047 -0.816415,0.496093 -1.712898,0.74414 -2.689453,0.74414 -1.164068,0 -2.148442,-0.472656 -2.953125,-1.417969 l 0,4.195313 c -4e-6,0.328122 0.17773,0.539059 0.533203,0.632812 0.355464,0.09375 0.802729,0.140622 1.341797,0.140625 l 0,0.832032 z m 3.621093,-6.984375 c 0.281246,0.570314 0.67187,1.041017 1.171875,1.412109 0.499994,0.371094 1.046869,0.556641 1.640625,0.556641 0.55468,0 1.044914,-0.148437 1.470703,-0.445313 0.425773,-0.296874 0.783194,-0.695311 1.072266,-1.195312 0.289053,-0.499998 0.501943,-1.025388 0.638672,-1.576172 0.136708,-0.550777 0.205068,-1.08398 0.205078,-1.59961 -10e-6,-0.640619 -0.115245,-1.333977 -0.345703,-2.080078 -0.230479,-0.746085 -0.582041,-1.374991 -1.054688,-1.886718 -0.472664,-0.51171 -1.044929,-0.767569 -1.716796,-0.767579 -0.648445,10e-6 -1.244147,0.166026 -1.78711,0.498047 -0.542974,0.332041 -0.974614,0.783212 -1.294922,1.353516 z"
       style=""
       id="path3826" />
    <path
       d="m 72.967194,42.629845 0,-0.832032 c 0.546873,-3e-6 0.996092,-0.04688 1.347656,-0.140625 0.35156,-0.09375 0.527341,-0.30469 0.527344,-0.632812 l 0,-11.566406 c -3e-6,-0.437491 -0.156253,-0.710929 -0.46875,-0.820313 -0.312502,-0.109365 -0.781252,-0.164053 -1.40625,-0.164062 l 0,-0.84375 3.550781,-0.257813 0,1.488281 c 0.437495,-0.484365 0.94726,-0.853505 1.529297,-1.107421 0.582025,-0.253896 1.201165,-0.380849 1.857422,-0.38086 0.945304,1.1e-5 1.796865,0.25587 2.554687,0.767578 0.757802,0.511728 1.349598,1.183603 1.775391,2.015625 0.425769,0.832039 0.638659,1.712897 0.638672,2.642578 -1.3e-5,0.968755 -0.236341,1.871097 -0.708985,2.707032 -0.472667,0.835939 -1.117198,1.501954 -1.933594,1.998047 -0.816415,0.496093 -1.712898,0.74414 -2.689453,0.74414 -1.164068,0 -2.148442,-0.472656 -2.953125,-1.417969 l 0,4.195313 c -4e-6,0.328122 0.17773,0.539059 0.533203,0.632812 0.355464,0.09375 0.802729,0.140622 1.341797,0.140625 l 0,0.832032 z m 3.621093,-6.984375 c 0.281246,0.570314 0.67187,1.041017 1.171875,1.412109 0.499994,0.371094 1.046869,0.556641 1.640625,0.556641 0.55468,0 1.044914,-0.148437 1.470703,-0.445313 0.425773,-0.296874 0.783194,-0.695311 1.072266,-1.195312 0.289053,-0.499998 0.501943,-1.025388 0.638672,-1.576172 0.136708,-0.550777 0.205068,-1.08398 0.205078,-1.59961 -10e-6,-0.640619 -0.115245,-1.333977 -0.345703,-2.080078 -0.230479,-0.746085 -0.582041,-1.374991 -1.054688,-1.886718 -0.472664,-0.51171 -1.044929,-0.767569 -1.716796,-0.767579 -0.648445,10e-6 -1.244147,0.166026 -1.78711,0.498047 -0.542974,0.332041 -0.974614,0.783212 -1.294922,1.353516 z"
       style=""
       id="path3828" />
    <path
       d="m 91.635162,38.247032 c -0.968755,0 -1.84766,-0.251953 -2.636718,-0.755859 -0.789065,-0.503905 -1.410159,-1.17578 -1.863282,-2.015625 -0.453126,-0.839841 -0.679688,-1.732418 -0.679687,-2.677735 -1e-6,-0.945306 0.224608,-1.851555 0.673828,-2.71875 0.449217,-0.867178 1.07031,-1.560537 1.863281,-2.080078 0.792965,-0.51952 1.673823,-0.779286 2.642578,-0.779297 0.937493,1.1e-5 1.791008,0.183605 2.560547,0.550782 0.769522,0.367197 1.154287,0.968759 1.154297,1.804687 -10e-6,0.312508 -0.111338,0.583992 -0.333984,0.814453 -0.222666,0.230476 -0.49415,0.345711 -0.814453,0.345703 -0.320321,8e-6 -0.591805,-0.115227 -0.814454,-0.345703 -0.222663,-0.230461 -0.333991,-0.501945 -0.333984,-0.814453 -7e-6,-0.281241 0.08984,-0.525382 0.269531,-0.732422 0.17968,-0.207022 0.402336,-0.337881 0.667969,-0.392578 -0.554695,-0.351552 -1.332038,-0.527334 -2.332031,-0.527344 -0.76563,10e-6 -1.382817,0.253916 -1.851563,0.761719 -0.468753,0.507821 -0.796878,1.136727 -0.984375,1.886719 -0.187503,0.750007 -0.281253,1.492193 -0.28125,2.226562 -3e-6,0.773442 0.115232,1.521488 0.345703,2.244141 0.230466,0.722659 0.601559,1.320314 1.113282,1.792969 0.511714,0.472657 1.154291,0.708985 1.927734,0.708984 0.757806,1e-6 1.402336,-0.232421 1.933594,-0.697265 0.531241,-0.464843 0.894522,-1.072264 1.089844,-1.822266 -1e-5,-0.09375 0.06249,-0.140622 0.1875,-0.140625 l 0.292968,0 c 0.04687,3e-6 0.08983,0.02149 0.128907,0.06445 0.03905,0.04297 0.05858,0.0918 0.05859,0.146484 l 0,0.07031 c -0.242197,0.945314 -0.722665,1.695314 -1.441406,2.25 -0.718758,0.554687 -1.566413,0.832031 -2.542969,0.832031 z"
       style=""
       id="path3830" />
    <path
       d="m 97.072662,37.977501 0,-0.84375 c 0.539062,1e-6 0.984374,-0.04297 1.335938,-0.128906 0.35156,-0.08594 0.527341,-0.296874 0.527344,-0.632813 l 0,-7.898437 -1.839844,0 0,-0.84375 1.839844,0 0,-2.871094 c -3e-6,-0.515611 0.107419,-0.998033 0.322265,-1.447266 0.214841,-0.449203 0.503903,-0.841781 0.867191,-1.177734 0.36327,-0.335921 0.78124,-0.599593 1.2539,-0.791016 0.47265,-0.191389 0.96289,-0.287092 1.47071,-0.287109 0.53905,1.7e-5 1.02538,0.160173 1.45898,0.480469 0.43359,0.320328 0.65038,0.746109 0.65039,1.277343 -10e-6,0.304703 -0.10352,0.560562 -0.31055,0.767579 -0.20704,0.207045 -0.46289,0.310561 -0.76757,0.310546 -0.3047,1.5e-5 -0.56446,-0.103501 -0.7793,-0.310546 -0.21485,-0.207017 -0.32227,-0.462876 -0.32227,-0.767579 0,-0.499984 0.21484,-0.835921 0.64453,-1.007812 -0.25781,-0.08592 -0.48828,-0.12889 -0.6914,-0.128906 -0.46876,1.6e-5 -0.86915,0.166031 -1.20117,0.498047 -0.33204,0.332046 -0.58009,0.736343 -0.74414,1.21289 -0.16407,0.476577 -0.2461,0.949233 -0.2461,1.417969 l 0,2.824219 2.76563,0 0,0.84375 -2.6836,0 0,7.898437 c 0,0.328126 0.23437,0.537111 0.70313,0.626953 0.46874,0.08985 1.00781,0.134767 1.61719,0.134766 l 0,0.84375 z"
       style=""
       id="path3832" />
    <path
       d="m 114.07657,35.094688 0,-6.621093 -1.99219,0 0,-0.621094 c 1.04687,10e-6 1.81641,-0.488271 2.30859,-1.464844 0.49219,-0.97655 0.73828,-2.035142 0.73829,-3.175781 l 0.6914,0 0,4.417969 3.38672,0 0,0.84375 -3.38672,0 0,6.574218 c 0,0.664065 0.11133,1.246096 0.33399,1.746094 0.22265,0.500001 0.62304,0.750001 1.20117,0.75 0.54687,1e-6 0.9414,-0.263671 1.18359,-0.791015 0.24218,-0.527342 0.36328,-1.095701 0.36328,-1.705079 l 0,-1.417968 0.69141,0 0,1.464843 c -1e-5,0.500003 -0.0918,0.994143 -0.27539,1.482422 -0.1836,0.488282 -0.45509,0.888673 -0.81445,1.201172 -0.35939,0.3125 -0.79688,0.46875 -1.3125,0.46875 -0.96095,0 -1.72071,-0.287109 -2.2793,-0.861328 -0.5586,-0.574218 -0.83789,-1.337889 -0.83789,-2.291016 z"
       style=""
       id="path3834" />
    <path
       d="m 126.95547,38.247032 c -0.96094,0 -1.85156,-0.24414 -2.67187,-0.732422 -0.82032,-0.48828 -1.46875,-1.142576 -1.94531,-1.96289 -0.47657,-0.82031 -0.71485,-1.71484 -0.71485,-2.683594 0,-0.734369 0.13086,-1.4414 0.39258,-2.121094 0.26172,-0.679679 0.63672,-1.287101 1.125,-1.822265 0.48828,-0.535147 1.05664,-0.953115 1.70508,-1.253907 0.64843,-0.30077 1.35156,-0.451161 2.10937,-0.451172 0.98437,1.1e-5 1.88086,0.259777 2.68946,0.779297 0.80858,0.519541 1.44725,1.214853 1.91601,2.085938 0.46874,0.871101 0.70312,1.798834 0.70313,2.783203 -1e-5,0.960942 -0.23829,1.853519 -0.71485,2.677734 -0.47657,0.824221 -1.12305,1.48047 -1.93945,1.96875 -0.81641,0.488282 -1.70118,0.732422 -2.6543,0.732422 z m 0,-0.703125 c 1.28125,1e-6 2.13672,-0.464843 2.56641,-1.394531 0.42968,-0.929685 0.64452,-2.113277 0.64453,-3.550781 -1e-5,-0.804682 -0.043,-1.470697 -0.1289,-1.998047 -0.0859,-0.527336 -0.27345,-1.005851 -0.5625,-1.435547 -0.1797,-0.265616 -0.40822,-0.498038 -0.68555,-0.697266 -0.27735,-0.199209 -0.57032,-0.351552 -0.87891,-0.457031 -0.3086,-0.105459 -0.62696,-0.158193 -0.95508,-0.158203 -0.5,10e-6 -0.97461,0.113291 -1.42382,0.339844 -0.44923,0.226572 -0.82227,0.55079 -1.11914,0.972656 -0.29688,0.453133 -0.48633,0.95118 -0.56836,1.494141 -0.082,0.542975 -0.12305,1.189459 -0.12305,1.939453 0,0.898442 0.0781,1.705081 0.23437,2.419922 0.15625,0.714846 0.4707,1.314454 0.94336,1.798828 0.47266,0.484375 1.1582,0.726563 2.05664,0.726562 z"
       style=""
       id="path3836" />
    <path
       d="m 141.59219,42.629845 0,-0.832032 c 0.54688,-3e-6 0.9961,-0.04688 1.34766,-0.140625 0.35156,-0.09375 0.52734,-0.30469 0.52734,-0.632812 l 0,-11.566406 c 0,-0.437491 -0.15625,-0.710929 -0.46875,-0.820313 -0.3125,-0.109365 -0.78125,-0.164053 -1.40625,-0.164062 l 0,-0.84375 3.55078,-0.257813 0,1.488281 c 0.4375,-0.484365 0.94727,-0.853505 1.5293,-1.107421 0.58203,-0.253896 1.20117,-0.380849 1.85742,-0.38086 0.94531,1.1e-5 1.79687,0.25587 2.55469,0.767578 0.7578,0.511728 1.3496,1.183603 1.77539,2.015625 0.42577,0.832039 0.63866,1.712897 0.63867,2.642578 -10e-6,0.968755 -0.23634,1.871097 -0.70898,2.707032 -0.47267,0.835939 -1.1172,1.501954 -1.93359,1.998047 -0.81642,0.496093 -1.7129,0.74414 -2.68946,0.74414 -1.16407,0 -2.14844,-0.472656 -2.95312,-1.417969 l 0,4.195313 c -1e-5,0.328122 0.17773,0.539059 0.5332,0.632812 0.35546,0.09375 0.80273,0.140622 1.3418,0.140625 l 0,0.832032 z m 3.6211,-6.984375 c 0.28124,0.570314 0.67187,1.041017 1.17187,1.412109 0.5,0.371094 1.04687,0.556641 1.64063,0.556641 0.55468,0 1.04491,-0.148437 1.4707,-0.445313 0.42577,-0.296874 0.78319,-0.695311 1.07227,-1.195312 0.28905,-0.499998 0.50194,-1.025388 0.63867,-1.576172 0.13671,-0.550777 0.20507,-1.08398 0.20508,-1.59961 -1e-5,-0.640619 -0.11525,-1.333977 -0.34571,-2.080078 -0.23048,-0.746085 -0.58204,-1.374991 -1.05468,-1.886718 -0.47267,-0.51171 -1.04493,-0.767569 -1.7168,-0.767579 -0.64845,10e-6 -1.24415,0.166026 -1.78711,0.498047 -0.54297,0.332041 -0.97461,0.783212 -1.29492,1.353516 z"
       style=""
       id="path3838" />
    <path
       d="m 155.24454,35.622032 c 0,-0.953122 0.375,-1.728511 1.125,-2.326172 0.74999,-0.597651 1.65038,-1.019525 2.70117,-1.265625 1.05077,-0.246087 2.04882,-0.369134 2.99414,-0.36914 l 0,-0.984375 c -1e-5,-0.46093 -0.10157,-0.908195 -0.30469,-1.341797 -0.20313,-0.433585 -0.4961,-0.789053 -0.8789,-1.066406 -0.38282,-0.277334 -0.8047,-0.416006 -1.26563,-0.416016 -1.0625,10e-6 -1.8711,0.238291 -2.42578,0.714844 0.30468,9e-6 0.55664,0.115243 0.75586,0.345703 0.19921,0.230477 0.29882,0.498055 0.29883,0.802734 -1e-5,0.320321 -0.11329,0.593758 -0.33985,0.820313 -0.22656,0.226569 -0.49609,0.339851 -0.80859,0.339843 -0.32032,8e-6 -0.59375,-0.113274 -0.82031,-0.339843 -0.22657,-0.226555 -0.33985,-0.499992 -0.33985,-0.820313 0,-0.843741 0.38281,-1.470693 1.14844,-1.880859 0.76562,-0.410146 1.60937,-0.615224 2.53125,-0.615235 0.64843,1.1e-5 1.30078,0.138683 1.95703,0.416016 0.65624,0.277354 1.19335,0.673838 1.61133,1.189453 0.41796,0.515634 0.62694,1.117196 0.62695,1.804688 l 0,5.402343 c -10e-6,0.312502 0.0664,0.599611 0.19922,0.861329 0.1328,0.261719 0.33984,0.392578 0.6211,0.392578 0.26561,0 0.46288,-0.132812 0.59179,-0.398438 0.1289,-0.265623 0.19335,-0.550779 0.19336,-0.855469 l 0,-1.535156 0.70313,0 0,1.535156 c -1e-5,0.359377 -0.0938,0.701174 -0.28125,1.025391 -0.18751,0.324219 -0.43947,0.582032 -0.75586,0.773438 -0.31642,0.191406 -0.65822,0.287109 -1.02539,0.287109 -0.46876,0 -0.87306,-0.181641 -1.21289,-0.544922 -0.33986,-0.36328 -0.52931,-0.794921 -0.56836,-1.294922 -0.29689,0.601564 -0.73438,1.080079 -1.3125,1.435547 -0.57813,0.355469 -1.19532,0.533203 -1.85157,0.533203 -0.60937,0 -1.20898,-0.08984 -1.79882,-0.269531 -0.58985,-0.179687 -1.08204,-0.46289 -1.47657,-0.849609 -0.39453,-0.386718 -0.59179,-0.888671 -0.59179,-1.50586 z m 1.94531,0 c 0,0.562502 0.20703,1.035158 0.62109,1.417969 0.41406,0.382813 0.90234,0.574219 1.46485,0.574219 0.51562,0 0.98437,-0.128906 1.40625,-0.386719 0.42187,-0.257812 0.7578,-0.609374 1.00781,-1.054688 0.24999,-0.44531 0.37499,-0.914059 0.375,-1.40625 l 0,-2.496093 c -0.72657,5e-6 -1.47071,0.119146 -2.23242,0.357422 -0.76173,0.238286 -1.39258,0.611332 -1.89258,1.11914 -0.5,0.507816 -0.75,1.132816 -0.75,1.875 z"
       style=""
       id="path3840" />
    <path
       d="m 166.90469,37.977501 0,-0.84375 c 0.54688,1e-6 0.9961,-0.04297 1.34766,-0.128906 0.35156,-0.08594 0.52734,-0.296874 0.52734,-0.632813 l 0,-6.550781 c 0,-0.429679 -0.0644,-0.740226 -0.19336,-0.931641 -0.1289,-0.191397 -0.31445,-0.308584 -0.55664,-0.351562 -0.24219,-0.04296 -0.61719,-0.06444 -1.125,-0.06445 l 0,-0.84375 3.4336,-0.257813 0,2.34375 c 0.25781,-0.695303 0.62499,-1.259756 1.10156,-1.693359 0.47656,-0.433584 1.05468,-0.65038 1.73437,-0.650391 0.47656,1.1e-5 0.90234,0.140636 1.27735,0.421875 0.37499,0.28126 0.56249,0.652353 0.5625,1.113281 -1e-5,0.289072 -0.10353,0.541025 -0.31055,0.75586 -0.20704,0.214852 -0.4629,0.322273 -0.76758,0.322265 -0.29688,8e-6 -0.55078,-0.10546 -0.76172,-0.316406 -0.21094,-0.210929 -0.31641,-0.464835 -0.3164,-0.761719 -1e-5,-0.429678 0.15234,-0.734365 0.45703,-0.914062 l -0.14063,0 c -0.64844,10e-6 -1.17774,0.234385 -1.58789,0.703125 -0.41016,0.468759 -0.70117,1.050789 -0.87304,1.746094 -0.17188,0.695319 -0.25782,1.359381 -0.25782,1.992187 l 0,3.9375 c 0,0.507814 0.77734,0.76172 2.33204,0.761719 l 0,0.84375 z"
       style=""
       id="path3842" />
    <path
       d="m 178.10782,35.094688 0,-6.621093 -1.99219,0 0,-0.621094 c 1.04687,10e-6 1.81641,-0.488271 2.30859,-1.464844 0.49219,-0.97655 0.73828,-2.035142 0.73829,-3.175781 l 0.6914,0 0,4.417969 3.38672,0 0,0.84375 -3.38672,0 0,6.574218 c 0,0.664065 0.11133,1.246096 0.33399,1.746094 0.22265,0.500001 0.62304,0.750001 1.20117,0.75 0.54687,1e-6 0.9414,-0.263671 1.18359,-0.791015 0.24218,-0.527342 0.36328,-1.095701 0.36328,-1.705079 l 0,-1.417968 0.69141,0 0,1.464843 c -1e-5,0.500003 -0.0918,0.994143 -0.27539,1.482422 -0.1836,0.488282 -0.45509,0.888673 -0.81445,1.201172 -0.35939,0.3125 -0.79688,0.46875 -1.3125,0.46875 -0.96095,0 -1.72071,-0.287109 -2.2793,-0.861328 -0.5586,-0.574218 -0.83789,-1.337889 -0.83789,-2.291016 z"
       style=""
       id="path3844" />
    <path
       d="m 185.72501,37.977501 0,-0.84375 c 0.54687,1e-6 0.99609,-0.04297 1.34765,-0.128906 0.35156,-0.08594 0.52734,-0.296874 0.52735,-0.632813 l 0,-6.550781 c -1e-5,-0.617179 -0.11915,-0.996085 -0.35743,-1.136719 -0.23828,-0.140615 -0.70898,-0.210928 -1.41211,-0.210937 l 0,-0.84375 3.45704,-0.257813 0,9 c -1e-5,0.335939 0.15234,0.546876 0.45703,0.632813 0.30468,0.08594 0.71093,0.128907 1.21875,0.128906 l 0,0.84375 z m 1.01953,-14.730469 c 0,-0.351547 0.13281,-0.660141 0.39843,-0.925781 0.26563,-0.265609 0.57031,-0.398422 0.91407,-0.398438 0.22656,1.6e-5 0.44531,0.05861 0.65625,0.175782 0.21093,0.117203 0.37499,0.281265 0.49218,0.492187 0.11719,0.210953 0.17578,0.429703 0.17579,0.65625 -1e-5,0.343765 -0.13282,0.648452 -0.39844,0.914063 -0.26563,0.265638 -0.57422,0.398451 -0.92578,0.398437 -0.34376,1.4e-5 -0.64844,-0.132799 -0.91407,-0.398437 -0.26562,-0.265611 -0.39843,-0.570298 -0.39843,-0.914063 z"
       style=""
       id="path3846" />
    <path
       d="m 197.61954,38.247032 c -0.96876,0 -1.84766,-0.251953 -2.63672,-0.755859 -0.78907,-0.503905 -1.41016,-1.17578 -1.86328,-2.015625 -0.45313,-0.839841 -0.67969,-1.732418 -0.67969,-2.677735 0,-0.945306 0.22461,-1.851555 0.67383,-2.71875 0.44921,-0.867178 1.07031,-1.560537 1.86328,-2.080078 0.79296,-0.51952 1.67382,-0.779286 2.64258,-0.779297 0.93749,1.1e-5 1.79101,0.183605 2.56054,0.550782 0.76953,0.367197 1.15429,0.968759 1.1543,1.804687 -1e-5,0.312508 -0.11134,0.583992 -0.33398,0.814453 -0.22267,0.230476 -0.49415,0.345711 -0.81446,0.345703 -0.32032,8e-6 -0.5918,-0.115227 -0.81445,-0.345703 -0.22266,-0.230461 -0.33399,-0.501945 -0.33398,-0.814453 -1e-5,-0.281241 0.0898,-0.525382 0.26953,-0.732422 0.17968,-0.207022 0.40233,-0.337881 0.66797,-0.392578 -0.5547,-0.351552 -1.33204,-0.527334 -2.33204,-0.527344 -0.76563,10e-6 -1.38281,0.253916 -1.85156,0.761719 -0.46875,0.507821 -0.79688,1.136727 -0.98437,1.886719 -0.18751,0.750007 -0.28126,1.492193 -0.28125,2.226562 -1e-5,0.773442 0.11523,1.521488 0.3457,2.244141 0.23047,0.722659 0.60156,1.320314 1.11328,1.792969 0.51172,0.472657 1.15429,0.708985 1.92774,0.708984 0.7578,1e-6 1.40233,-0.232421 1.93359,-0.697265 0.53124,-0.464843 0.89452,-1.072264 1.08984,-1.822266 -10e-6,-0.09375 0.0625,-0.140622 0.1875,-0.140625 l 0.29297,0 c 0.0469,3e-6 0.0898,0.02149 0.12891,0.06445 0.0391,0.04297 0.0586,0.0918 0.0586,0.146484 l 0,0.07031 c -0.24219,0.945314 -0.72266,1.695314 -1.4414,2.25 -0.71876,0.554687 -1.56642,0.832031 -2.54297,0.832031 z"
       style=""
       id="path3848" />
    <path
       d="m 203.02188,37.977501 0,-0.84375 c 0.54687,1e-6 0.99609,-0.04297 1.34766,-0.128906 0.35156,-0.08594 0.52734,-0.296874 0.52734,-0.632813 l 0,-12.597656 c 0,-0.429673 -0.0645,-0.74022 -0.19336,-0.931641 -0.12891,-0.191391 -0.31445,-0.308578 -0.55664,-0.351562 -0.24219,-0.04295 -0.61719,-0.06444 -1.125,-0.06445 l 0,-0.84375 3.5625,-0.257813 0,15.046875 c 0,0.335939 0.17578,0.546876 0.52734,0.632813 0.35156,0.08594 0.79687,0.128907 1.33594,0.128906 l 0,0.84375 z"
       style=""
       id="path3850" />
    <path
       d="m 214.91641,38.247032 c -0.97657,0 -1.87305,-0.255859 -2.68945,-0.767578 -0.81641,-0.511718 -1.45703,-1.195311 -1.92188,-2.050781 -0.46484,-0.855466 -0.69726,-1.759762 -0.69726,-2.712891 0,-0.937494 0.21289,-1.828118 0.63867,-2.671875 0.42578,-0.843741 1.01953,-1.525381 1.78125,-2.044922 0.76172,-0.51952 1.61132,-0.779286 2.54883,-0.779297 0.73437,1.1e-5 1.37304,0.123058 1.91601,0.369141 0.54296,0.246104 0.99023,0.5879 1.3418,1.025391 0.35155,0.437509 0.61718,0.953133 0.79688,1.546875 0.17967,0.593757 0.26952,1.2461 0.26953,1.957031 -1e-5,0.210943 -0.082,0.316412 -0.2461,0.316406 l -6.94922,0 0,0.257813 c 0,1.328129 0.26758,2.468752 0.80274,3.421875 0.53515,0.953126 1.4082,1.429688 2.61914,1.429687 0.49218,1e-6 0.94726,-0.109374 1.36523,-0.328125 0.41797,-0.218749 0.78125,-0.523436 1.08985,-0.914062 0.30858,-0.390623 0.51757,-0.808592 0.62695,-1.253907 0.0156,-0.05468 0.0449,-0.103512 0.0879,-0.146484 0.043,-0.04297 0.0918,-0.06445 0.14649,-0.06445 l 0.21093,0 c 0.16406,3e-6 0.24609,0.101565 0.2461,0.304687 -0.22657,0.906252 -0.71486,1.650392 -1.46485,2.232422 -0.75,0.582032 -1.58985,0.873047 -2.51953,0.873047 z m -3.1875,-6.410156 5.47266,0 c -1e-5,-0.601556 -0.084,-1.21093 -0.25195,-1.828125 -0.16798,-0.617179 -0.44728,-1.13085 -0.8379,-1.541016 -0.39063,-0.410146 -0.90235,-0.615224 -1.53515,-0.615234 -0.90626,10e-6 -1.60743,0.423838 -2.10352,1.271484 -0.49609,0.847665 -0.74414,1.751961 -0.74414,2.712891 z"
       style=""
       id="path3852" />
    <path
       d="m 220.37735,38.047813 0,-3.914062 c 0,-0.124996 0.0703,-0.187496 0.21094,-0.1875 l 0.29297,0 c 0.0937,4e-6 0.15624,0.0625 0.1875,0.1875 0.44531,2.320314 1.52343,3.480469 3.23437,3.480469 0.75781,0 1.39257,-0.171875 1.9043,-0.515625 0.51171,-0.343749 0.76757,-0.874999 0.76758,-1.59375 -1e-5,-0.515622 -0.19923,-0.955075 -0.59766,-1.31836 -0.39844,-0.363277 -0.8711,-0.611323 -1.41797,-0.74414 l -1.60547,-0.316407 c -0.53906,-0.117182 -1.0293,-0.296869 -1.4707,-0.539062 -0.44141,-0.242182 -0.80274,-0.564447 -1.08399,-0.966797 -0.28125,-0.402337 -0.42187,-0.869133 -0.42187,-1.400391 0,-0.703116 0.18555,-1.279287 0.55664,-1.728515 0.37109,-0.449209 0.85351,-0.773427 1.44727,-0.972656 0.59374,-0.199209 1.23437,-0.298818 1.92187,-0.298829 0.82031,1.1e-5 1.53515,0.218761 2.14453,0.65625 l 0.69141,-0.597656 c -1e-5,-0.03905 0.0391,-0.05858 0.11719,-0.05859 l 0.17578,0 c 0.0469,1.1e-5 0.0898,0.0215 0.1289,0.06445 0.0391,0.04298 0.0586,0.0879 0.0586,0.134765 l 0,3.140625 c -1e-5,0.148445 -0.0625,0.222664 -0.1875,0.222656 l -0.29297,0 c -0.14063,8e-6 -0.21095,-0.07421 -0.21094,-0.222656 -1e-5,-0.835929 -0.23243,-1.507803 -0.69726,-2.015625 -0.46485,-0.507802 -1.11524,-0.761708 -1.95118,-0.761719 -0.71875,1.1e-5 -1.3418,0.132823 -1.86914,0.398438 -0.52734,0.265634 -0.79101,0.722665 -0.79101,1.371094 0,0.44532 0.18945,0.810554 0.56836,1.095703 0.3789,0.285163 0.82226,0.490241 1.33007,0.615234 l 1.62891,0.304688 c 0.54687,0.125006 1.05664,0.335943 1.5293,0.632812 0.47265,0.296881 0.84765,0.67188 1.125,1.125 0.27733,0.453129 0.416,0.964848 0.41601,1.535156 -10e-6,0.578128 -0.0996,1.080081 -0.29882,1.50586 -0.19923,0.425782 -0.47657,0.779297 -0.83204,1.060547 -0.35547,0.28125 -0.77539,0.488281 -1.25976,0.621093 -0.48438,0.132813 -0.99219,0.199219 -1.52344,0.199219 -1,0 -1.85547,-0.335937 -2.56641,-1.007812 l -0.8789,0.949218 c 0,0.03906 -0.043,0.05859 -0.12891,0.05859 l -0.14062,0 c -0.14063,0 -0.21094,-0.06641 -0.21094,-0.199219 z"
       style=""
       id="path3854" />
    <path
       d="m 230.39688,43.497032 c 0,-0.04688 0.008,-0.07813 0.0234,-0.09375 l 8.34375,-23.132812 c 0.0312,-0.09373 0.0859,-0.165998 0.16406,-0.216797 0.0781,-0.05076 0.16796,-0.07615 0.26953,-0.07617 0.14062,1.8e-5 0.25585,0.04299 0.34571,0.128906 0.0898,0.08595 0.13475,0.203143 0.13476,0.351563 l 0,0.09375 -8.34375,23.132812 c -0.0937,0.195307 -0.24609,0.292963 -0.45703,0.292969 -0.13281,-6e-6 -0.2461,-0.04688 -0.33984,-0.140625 -0.0938,-0.09376 -0.14063,-0.207037 -0.14063,-0.339844 z"
       style=""
       id="path3856" />
    <path
       d="m 247.02579,38.247032 c -0.96876,0 -1.84766,-0.251953 -2.63672,-0.755859 -0.78907,-0.503905 -1.41016,-1.17578 -1.86328,-2.015625 -0.45313,-0.839841 -0.67969,-1.732418 -0.67969,-2.677735 0,-0.945306 0.22461,-1.851555 0.67383,-2.71875 0.44921,-0.867178 1.07031,-1.560537 1.86328,-2.080078 0.79296,-0.51952 1.67382,-0.779286 2.64258,-0.779297 0.93749,1.1e-5 1.79101,0.183605 2.56054,0.550782 0.76953,0.367197 1.15429,0.968759 1.1543,1.804687 -1e-5,0.312508 -0.11134,0.583992 -0.33398,0.814453 -0.22267,0.230476 -0.49415,0.345711 -0.81446,0.345703 -0.32032,8e-6 -0.5918,-0.115227 -0.81445,-0.345703 -0.22266,-0.230461 -0.33399,-0.501945 -0.33398,-0.814453 -1e-5,-0.281241 0.0898,-0.525382 0.26953,-0.732422 0.17968,-0.207022 0.40233,-0.337881 0.66797,-0.392578 -0.5547,-0.351552 -1.33204,-0.527334 -2.33204,-0.527344 -0.76563,10e-6 -1.38281,0.253916 -1.85156,0.761719 -0.46875,0.507821 -0.79688,1.136727 -0.98437,1.886719 -0.18751,0.750007 -0.28126,1.492193 -0.28125,2.226562 -1e-5,0.773442 0.11523,1.521488 0.3457,2.244141 0.23047,0.722659 0.60156,1.320314 1.11328,1.792969 0.51172,0.472657 1.15429,0.708985 1.92774,0.708984 0.7578,1e-6 1.40233,-0.232421 1.93359,-0.697265 0.53124,-0.464843 0.89452,-1.072264 1.08984,-1.822266 -10e-6,-0.09375 0.0625,-0.140622 0.1875,-0.140625 l 0.29297,0 c 0.0469,3e-6 0.0898,0.02149 0.12891,0.06445 0.0391,0.04297 0.0586,0.0918 0.0586,0.146484 l 0,0.07031 c -0.24219,0.945314 -0.72266,1.695314 -1.4414,2.25 -0.71876,0.554687 -1.56642,0.832031 -2.54297,0.832031 z"
       style=""
       id="path3858" />
    <path
       d="m 252.40469,37.977501 0,-0.84375 c 0.54688,1e-6 0.9961,-0.04297 1.34766,-0.128906 0.35156,-0.08594 0.52734,-0.296874 0.52734,-0.632813 l 0,-6.550781 c 0,-0.429679 -0.0644,-0.740226 -0.19336,-0.931641 -0.1289,-0.191397 -0.31445,-0.308584 -0.55664,-0.351562 -0.24219,-0.04296 -0.61719,-0.06444 -1.125,-0.06445 l 0,-0.84375 3.48047,-0.257813 0,2.34375 c 0.32031,-0.687491 0.79492,-1.24999 1.42383,-1.6875 0.6289,-0.437489 1.31445,-0.656239 2.05664,-0.65625 1.84374,1.1e-5 2.92577,0.75001 3.24609,2.25 0.32031,-0.671866 0.78906,-1.214834 1.40625,-1.628906 0.61718,-0.414052 1.29296,-0.621083 2.02735,-0.621094 0.72655,1.1e-5 1.33787,0.117198 1.83398,0.351563 0.49608,0.234385 0.86913,0.591806 1.11914,1.072265 0.24999,0.480478 0.37499,1.083993 0.375,1.810547 l 0,5.765625 c -1e-5,0.335939 0.17772,0.546876 0.53321,0.632813 0.35545,0.08594 0.80271,0.128907 1.34179,0.128906 l 0,0.84375 -5.49609,0 0,-0.84375 c 0.54686,1e-6 0.99608,-0.04297 1.34766,-0.128906 0.35154,-0.08594 0.52732,-0.296874 0.52734,-0.632813 l 0,-5.695312 c -2e-5,-0.80468 -0.1133,-1.453117 -0.33984,-1.945313 -0.22658,-0.492178 -0.69143,-0.738271 -1.39454,-0.738281 -0.92188,10e-6 -1.6836,0.371103 -2.28515,1.113281 -0.60158,0.742196 -0.90236,1.585945 -0.90235,2.53125 l 0,4.734375 c -10e-6,0.335939 0.17577,0.546876 0.52735,0.632813 0.35155,0.08594 0.80077,0.128907 1.34765,0.128906 l 0,0.84375 -5.49609,0 0,-0.84375 c 0.54687,1e-6 0.99609,-0.04297 1.34766,-0.128906 0.35155,-0.08594 0.52733,-0.296874 0.52734,-0.632813 l 0,-5.695312 c -1e-5,-0.781242 -0.11329,-1.42382 -0.33984,-1.927735 -0.22657,-0.503896 -0.69142,-0.755849 -1.39453,-0.755859 -0.9297,10e-6 -1.69337,0.371103 -2.29102,1.113281 -0.59766,0.742196 -0.89649,1.585945 -0.89648,2.53125 l 0,4.734375 c -10e-6,0.335939 0.17577,0.546876 0.52734,0.632813 0.35156,0.08594 0.79687,0.128907 1.33594,0.128906 l 0,0.84375 z"
       style=""
       id="path3860" />
    <path
       d="m 273.19085,27.173968 c 0.24375,0.355475 0.57129,0.619541 0.98263,0.792199 0.41133,0.172659 0.85313,0.258988 1.32541,0.258988 0.6043,0 1.03341,-0.257718 1.28732,-0.773156 0.2539,-0.515435 0.38086,-1.100697 0.38087,-1.755786 -10e-6,-0.294533 -0.0267,-0.589068 -0.08,-0.883606 -0.0533,-0.294532 -0.14346,-0.568754 -0.27041,-0.822668 -0.12696,-0.253905 -0.30089,-0.457033 -0.52179,-0.609384 -0.2209,-0.152341 -0.49131,-0.228513 -0.81124,-0.228519 l -1.03595,0 c -0.0914,6e-6 -0.13711,-0.04824 -0.13711,-0.144728 l 0,-0.137112 c 0,-0.08124 0.0457,-0.121871 0.13711,-0.121876 l 0.86076,-0.06856 c 0.36562,6e-6 0.66904,-0.137105 0.91026,-0.411334 0.24121,-0.274216 0.41768,-0.608107 0.5294,-1.001674 0.11172,-0.393553 0.16758,-0.768069 0.16758,-1.123551 0,-0.497655 -0.1168,-0.906449 -0.35039,-1.226385 -0.2336,-0.319916 -0.58908,-0.479879 -1.06642,-0.479889 -0.39611,10e-6 -0.77443,0.07491 -1.13498,0.22471 -0.36055,0.149816 -0.64747,0.377065 -0.86075,0.681748 0.0203,-0.0051 0.0381,-0.0089 0.0533,-0.01143 0.0152,-0.0025 0.033,-0.0038 0.0533,-0.0038 0.23359,9e-6 0.4291,0.08126 0.58653,0.243754 0.15742,0.162511 0.23613,0.358021 0.23614,0.586531 -1e-5,0.223449 -0.0787,0.41642 -0.23614,0.578915 -0.15743,0.16251 -0.35294,0.243761 -0.58653,0.243753 -0.22852,8e-6 -0.42403,-0.08124 -0.58653,-0.243753 -0.16251,-0.162495 -0.24376,-0.355466 -0.24376,-0.578915 0,-0.446872 0.13457,-0.835354 0.40372,-1.165446 0.26914,-0.330073 0.61573,-0.580174 1.03976,-0.750303 0.42403,-0.170109 0.84933,-0.255169 1.2759,-0.25518 0.31484,1.1e-5 0.64746,0.04698 0.99786,0.14092 0.35039,0.09396 0.66778,0.228529 0.95217,0.403717 0.28437,0.175207 0.5167,0.399917 0.69698,0.674131 0.18027,0.274231 0.2704,0.58654 0.27041,0.936927 -1e-5,0.436733 -0.0978,0.840449 -0.29326,1.21115 -0.19552,0.370715 -0.4634,0.690641 -0.80363,0.959779 -0.34024,0.26915 -0.71349,0.469739 -1.11974,0.601766 0.45195,0.08633 0.88106,0.256454 1.28732,0.510359 0.40625,0.253914 0.73252,0.578919 0.97882,0.975014 0.24629,0.396103 0.36944,0.822671 0.36944,1.279705 0,0.573839 -0.15743,1.093084 -0.47227,1.557737 -0.31485,0.464656 -0.72873,0.827746 -1.24162,1.089273 -0.5129,0.261527 -1.05373,0.39229 -1.62248,0.392291 -0.48751,-1e-6 -0.97629,-0.09268 -1.46633,-0.278031 -0.49005,-0.185355 -0.89123,-0.463385 -1.20353,-0.834094 -0.31231,-0.370707 -0.46847,-0.815049 -0.46847,-1.333027 0,-0.258985 0.0863,-0.474809 0.25899,-0.64747 0.17266,-0.172656 0.38848,-0.258985 0.64747,-0.258988 0.16758,3e-6 0.32119,0.03936 0.46085,0.118068 0.13964,0.07871 0.24883,0.189166 0.32754,0.331352 0.0787,0.142192 0.11807,0.294538 0.11807,0.457038 0,0.253912 -0.0889,0.467196 -0.26661,0.639853 -0.17774,0.17266 -0.39102,0.258989 -0.63985,0.258988 z"
       style="font-size:65.00091553%;baseline-shift:super;fill:#ffffff"
       id="path3862" />
  </g>
</svg>
