<?xml version="1.0" encoding="UTF-8" standalone="no"?>
<!-- Created with Inkscape (http://www.inkscape.org/) -->

<svg
   xmlns:dc="http://purl.org/dc/elements/1.1/"
   xmlns:cc="http://creativecommons.org/ns#"
   xmlns:rdf="http://www.w3.org/1999/02/22-rdf-syntax-ns#"
   xmlns:svg="http://www.w3.org/2000/svg"
   xmlns="http://www.w3.org/2000/svg"
   xmlns:sodipodi="http://sodipodi.sourceforge.net/DTD/sodipodi-0.dtd"
   xmlns:inkscape="http://www.inkscape.org/namespaces/inkscape"
   version="1.1"
   width="320"
   height="60"
   id="svg3020"
   inkscape:version="0.48.3.1 r9886"
   sodipodi:docname="eqn_noise_01.svg">
  <sodipodi:namedview
     pagecolor="#ffffff"
     bordercolor="#666666"
     borderopacity="1"
     objecttolerance="10"
     gridtolerance="10"
     guidetolerance="10"
     inkscape:pageopacity="0"
     inkscape:pageshadow="2"
     inkscape:window-width="1366"
     inkscape:window-height="716"
     id="namedview3080"
     showgrid="false"
     inkscape:zoom="1.5219183"
     inkscape:cx="160"
     inkscape:cy="30"
     inkscape:window-x="-8"
     inkscape:window-y="-8"
     inkscape:window-maximized="1"
     inkscape:current-layer="g3009" />
  <metadata
     id="metadata3026">
    <rdf:RDF>
      <cc:Work
         rdf:about="">
        <dc:format>image/svg+xml</dc:format>
        <dc:type
           rdf:resource="http://purl.org/dc/dcmitype/StillImage" />
        <dc:title></dc:title>
      </cc:Work>
    </rdf:RDF>
  </metadata>
  <defs
     id="defs3024" />
  <text
     x="44.56657"
     y="42.23513"
     transform="scale(0.95814898,1.043679)"
     id="text3030"
     xml:space="preserve"
     style="font-size:41.02812958px;font-style:normal;font-variant:normal;font-weight:normal;font-stretch:normal;line-height:125%;letter-spacing:0px;word-spacing:0px;fill:#000000;fill-opacity:1;font-family:Cambria Math;-inkscape-font-specification:Cambria Math"
     sodipodi:linespacing="125%"><tspan
       x="44.56657"
       y="42.23513"
       id="tspan3032" /></text>
  <g
     transform="matrix(1.4688253,0,0,1.4688253,-277.70507,-0.75165246)"
     id="g3009">
    <g
       style="font-size:13.80000019000000000px;font-style:normal;font-weight:normal;text-align:start;text-anchor:start;fill:#ffffff;font-family:Cambria Math;stroke:none"
       id="text3011">
      <path
         d="m 258.73205,24.754974 0,-0.485156 c 0.46269,10e-7 0.91191,-0.02583 1.34766,-0.07749 0.43573,-0.05166 0.6536,-0.171826 0.65361,-0.360498 l 0,-7.580567 c -10e-6,-0.197647 -0.055,-0.320059 -0.16509,-0.367236 -0.11006,-0.04716 -0.28863,-0.07074 -0.53569,-0.07075 l -0.57949,0 c -0.75919,9e-6 -1.29825,0.16622 -1.61719,0.498633 -0.16621,0.166219 -0.28526,0.432381 -0.35713,0.798486 -0.0719,0.366121 -0.13252,0.825446 -0.18193,1.377979 l -0.39756,0 0.26279,-3.160254 8.42959,0 0.26279,3.160254 -0.40429,0 c -0.0539,-0.592962 -0.11344,-1.063518 -0.17857,-1.41167 -0.0651,-0.348137 -0.18306,-0.603068 -0.35376,-0.764795 -0.32344,-0.332413 -0.86251,-0.498624 -1.61719,-0.498633 l -0.57949,0 c -0.16621,9e-6 -0.29537,0.0067 -0.38745,0.02021 -0.0921,0.01349 -0.16734,0.05279 -0.22573,0.11792 -0.0584,0.06515 -0.0876,0.165096 -0.0876,0.299853 l 0,7.580567 c 0,0.188672 0.21787,0.308838 0.65361,0.360498 0.43574,0.05166 0.88271,0.07749 1.34092,0.07749 l 0,0.485156 z"
         style="font-variant:normal;font-stretch:normal;font-family:cmr10;-inkscape-font-specification:cmr10;fill:#ffffff;stroke:none"
         id="path4167" />
    </g>
    <g
       style="font-size:13.80000019000000000px;font-style:normal;font-variant:normal;font-weight:normal;font-stretch:normal;text-align:start;text-anchor:start;fill:#ffffff;font-family:cmb10;-inkscape-font-specification:cmb10;stroke:none"
       id="text3013">
      <path
         d="m 274.19572,21.811458 c -0.10782,-0.01347 -0.20103,-0.05952 -0.27964,-0.138135 -0.0786,-0.07861 -0.11792,-0.171824 -0.11792,-0.279639 0,-0.103318 0.0371,-0.194285 0.11118,-0.2729 0.0741,-0.07861 0.16958,-0.129148 0.28638,-0.151611 l 8.38916,0 c 0.11229,0.02246 0.2055,0.073 0.27963,0.151611 0.0741,0.07861 0.11118,0.169582 0.11119,0.2729 -1e-5,0.107815 -0.0393,0.201027 -0.11792,0.279639 -0.0786,0.07861 -0.16959,0.12466 -0.2729,0.138135 z m 0,-3.079395 c -0.10782,-0.01347 -0.20103,-0.05952 -0.27964,-0.138135 -0.0786,-0.07861 -0.11792,-0.169575 -0.11792,-0.2729 0,-0.107807 0.0371,-0.20102 0.11118,-0.279639 0.0741,-0.07861 0.16958,-0.129145 0.28638,-0.151611 l 8.38916,0 c 0.11229,0.02247 0.2055,0.073 0.27963,0.151611 0.0741,0.07862 0.11118,0.171832 0.11119,0.279639 -1e-5,0.103325 -0.0393,0.194292 -0.11792,0.2729 -0.0786,0.07862 -0.16959,0.124663 -0.2729,0.138135 z"
         style="font-size:13.80000019000000000px;font-style:normal;font-variant:normal;font-weight:normal;font-stretch:normal;text-align:start;text-anchor:start;fill:#ffffff;font-family:cmb10;-inkscape-font-specification:cmb10;stroke:none"
         id="path4164" />
    </g>
    <g
       style="font-size:13.80000019000000000px;font-style:normal;font-variant:normal;font-weight:normal;font-stretch:normal;text-align:start;text-anchor:start;fill:#ffffff;font-family:cmr10;-inkscape-font-specification:cmr10;stroke:none"
       id="text3015">
      <path
         d="m 314.63418,9.9219955 c 0,-0.5525364 0.18193,-1.0410613 0.5458,-1.4655762 0.36387,-0.4245077 0.83105,-0.7782671 1.40156,-1.0612793 l -0.51211,-0.3301758 c -0.31445,-0.2066354 -0.57051,-0.4817817 -0.76816,-0.8254394 -0.19766,-0.3436463 -0.29649,-0.704144 -0.29648,-1.0814942 -1e-5,-0.4402271 0.11567,-0.8377853 0.34702,-1.1926758 0.23134,-0.3548744 0.53906,-0.6333898 0.92314,-0.8355469 0.38408,-0.2021393 0.79399,-0.3032134 1.22974,-0.3032226 0.40878,9.2e-6 0.80297,0.083114 1.18257,0.2493164 0.37958,0.1662197 0.69179,0.4043054 0.93662,0.7142578 0.24482,0.3099689 0.36723,0.6783279 0.36723,1.1050781 0,0.3099678 -0.073,0.5974675 -0.21899,0.8625 -0.146,0.2650451 -0.3459,0.5031308 -0.59971,0.7142579 -0.25381,0.2111381 -0.52447,0.3908254 -0.81196,0.5390625 l 0.78838,0.5053711 c 0.36386,0.2380902 0.65697,0.5502969 0.87934,0.9366211 0.22236,0.3863313 0.33354,0.7928739 0.33355,1.2196289 -10e-6,0.4986349 -0.13365,0.9523449 -0.40093,1.3611329 -0.26729,0.40879 -0.62105,0.725488 -1.06128,0.950098 -0.44024,0.224609 -0.90518,0.336913 -1.39482,0.336914 -0.47618,-10e-7 -0.9355,-0.09658 -1.37798,-0.289746 -0.44248,-0.193164 -0.80186,-0.472803 -1.07813,-0.838916 -0.27627,-0.366113 -0.4144,-0.789501 -0.4144,-1.2701665 z m 0.74795,0 c 0,0.3638685 0.0999,0.6962905 0.29985,0.9972655 0.1999,0.300978 0.46382,0.536817 0.79175,0.70752 0.32793,0.170703 0.67158,0.256055 1.03096,0.256054 0.53456,10e-7 1.01972,-0.156103 1.45547,-0.46831 0.43573,-0.312206 0.6536,-0.72661 0.65361,-1.243213 -10e-6,-0.1751934 -0.0348,-0.3492655 -0.10444,-0.5222169 -0.0696,-0.1729467 -0.16622,-0.3301731 -0.28975,-0.4716797 -0.12354,-0.1415009 -0.26167,-0.2571746 -0.4144,-0.3470215 l -1.85303,-1.199414 c -0.2875,0.1527386 -0.55142,0.3459024 -0.79175,0.5794922 -0.24033,0.2335973 -0.43013,0.49639 -0.56938,0.7883789 -0.13926,0.2919949 -0.20889,0.5997094 -0.20889,0.9231445 z m 0.9501,-4.2114258 1.67109,1.078125 c 0.38632,-0.2246039 0.70302,-0.496381 0.9501,-0.8153321 0.24706,-0.3189389 0.3706,-0.6783136 0.3706,-1.078125 0,-0.3099535 -0.0865,-0.5940841 -0.25942,-0.8523926 -0.17295,-0.2582925 -0.39869,-0.4593177 -0.6772,-0.6030761 -0.27852,-0.1437413 -0.57725,-0.2156162 -0.89619,-0.215625 -0.27852,8.8e-6 -0.55928,0.053915 -0.84228,0.1617187 -0.28301,0.107821 -0.51661,0.2684166 -0.70079,0.4817871 -0.18418,0.2133869 -0.27627,0.4638261 -0.27626,0.7513184 -10e-6,0.431257 0.22011,0.7951238 0.66035,1.0916016 z"
         style="font-size:13.80000019000000000px;font-style:normal;font-variant:normal;font-weight:normal;font-stretch:normal;text-align:start;text-anchor:start;fill:#ffffff;font-family:cmr10;-inkscape-font-specification:cmr10;stroke:none"
         id="path4161" />
    </g>
    <g
       style="font-size:13.80000019000000000px;font-style:normal;font-variant:normal;font-weight:normal;font-stretch:normal;text-align:start;text-anchor:start;fill:#ffffff;font-family:cmr10;-inkscape-font-specification:cmr10;stroke:none"
       id="text3017">
      <path
         d="m 288.53099,40.288261 0,-0.370605 c 0,-0.02246 0.009,-0.04717 0.027,-0.07412 l 2.14277,-2.371875 c 0.32343,-0.350388 0.58623,-0.644626 0.78838,-0.882715 0.20214,-0.238082 0.40205,-0.512105 0.59971,-0.82207 0.19765,-0.309956 0.35375,-0.625532 0.46831,-0.946729 0.11454,-0.321186 0.17182,-0.661468 0.17182,-1.02085 0,-0.377336 -0.0696,-0.737834 -0.20888,-1.081494 -0.13927,-0.343644 -0.34703,-0.61879 -0.62329,-0.825439 -0.27628,-0.206632 -0.60982,-0.309952 -1.00064,-0.309961 -0.39981,9e-6 -0.75918,0.120175 -1.07812,0.360498 -0.31895,0.24034 -0.54356,0.551424 -0.67383,0.933252 0.0359,-0.009 0.0854,-0.01347 0.14824,-0.01348 0.20664,8e-6 0.38296,0.06964 0.52895,0.208887 0.146,0.139265 0.219,0.318952 0.219,0.539063 0,0.211139 -0.073,0.389703 -0.219,0.535693 -0.14599,0.146002 -0.32231,0.219 -0.52895,0.218994 -0.21563,6e-6 -0.39644,-0.07524 -0.54243,-0.225732 -0.146,-0.150482 -0.219,-0.3268 -0.219,-0.528955 0,-0.345892 0.0651,-0.670452 0.19541,-0.973682 0.13028,-0.303215 0.31782,-0.572746 0.56265,-0.808594 0.24482,-0.235831 0.52109,-0.416641 0.82881,-0.542431 0.30771,-0.125773 0.63452,-0.188663 0.98042,-0.188672 0.52558,9e-6 1.01523,0.11119 1.46894,0.333545 0.45371,0.222372 0.81308,0.536824 1.07813,0.943359 0.26503,0.40655 0.39755,0.881599 0.39756,1.425146 -1e-5,0.399811 -0.0876,0.779401 -0.2628,1.13877 -0.1752,0.35938 -0.39981,0.686186 -0.67382,0.98042 -0.27403,0.294242 -0.62442,0.627787 -1.05118,1.000635 -0.42676,0.372854 -0.70752,0.62217 -0.84228,0.747949 l -1.56328,1.502637 1.32744,0 c 0.65136,10e-7 1.19604,-0.0056 1.63403,-0.01685 0.43799,-0.01123 0.67046,-0.02808 0.69742,-0.05054 0.1078,-0.116796 0.21786,-0.541307 0.33017,-1.273535 l 0.4043,0 -0.39082,2.459472 z"
         style="font-size:13.80000019000000000px;font-style:normal;font-variant:normal;font-weight:normal;font-stretch:normal;text-align:start;text-anchor:start;fill:#ffffff;font-family:cmr10;-inkscape-font-specification:cmr10;stroke:none"
         id="path4158" />
    </g>
    <g
       transform="scale(0.68027586,1.4699919)"
       style="font-size:14.77341843000000000px;font-style:normal;font-weight:normal;text-align:start;text-anchor:start;fill:#ffffff;font-family:Cambria Math;stroke:none"
       id="text3019">
      <path
         d="m 435.86066,17.701032 c 0,1.683171 0.27051,3.070582 0.81153,4.162237 0.54102,1.091654 1.36697,1.82263 2.47787,2.192929 l -0.17313,0.555446 c -1.40905,-0.3703 -2.48869,-1.1674 -3.2389,-2.391302 -0.75021,-1.223905 -1.12532,-2.706295 -1.12532,-4.447175 0,-1.736063 0.37631,-3.218453 1.12893,-4.447174 0.75261,-1.228704 1.83104,-2.028209 3.23529,-2.398516 l 0.19477,0.555446 c -1.12532,0.370307 -1.95849,1.092867 -2.49951,2.167682 -0.54102,1.07483 -0.81153,2.424971 -0.81153,4.050427 z"
         style="font-size:14.77341843000000000px;font-style:normal;font-weight:normal;text-align:start;text-anchor:start;fill:#ffffff;font-family:Cambria Math;stroke:none"
         id="path4155" />
    </g>
    <g
       style="font-size:10.05000019000000000px;font-style:normal;font-variant:normal;font-weight:normal;font-stretch:normal;text-align:start;text-anchor:start;fill:#ffffff;font-family:cmr10;-inkscape-font-specification:cmr10;stroke:none"
       id="text3021">
      <path
         d="m 300.2876,24.652741 0,-2.345654 c 0,-0.05234 0.0294,-0.07851 0.0883,-0.07852 l 0.12268,0 c 0.0196,2e-6 0.0376,0.0082 0.054,0.02454 0.0163,0.01636 0.0245,0.03435 0.0245,0.05398 0,0.657569 0.20365,1.167103 0.61095,1.528601 0.4073,0.361499 0.94137,0.542248 1.60221,0.542248 0.23228,0 0.44656,-0.06706 0.64285,-0.201196 0.19629,-0.134131 0.34923,-0.309973 0.45883,-0.527527 0.10959,-0.217553 0.16438,-0.442467 0.16439,-0.674744 -1e-5,-0.20283 -0.0409,-0.399937 -0.12268,-0.59132 -0.0818,-0.19138 -0.19957,-0.357408 -0.35332,-0.498084 -0.15377,-0.140671 -0.32716,-0.233908 -0.52017,-0.279712 l -1.30532,-0.31897 c -0.43184,-0.114498 -0.78434,-0.349227 -1.05751,-0.704187 -0.27317,-0.354951 -0.40975,-0.753254 -0.40975,-1.194909 0,-0.346772 0.0883,-0.672285 0.26499,-0.976538 0.17666,-0.304242 0.41466,-0.544696 0.714,-0.721363 0.29934,-0.176653 0.6224,-0.264983 0.96918,-0.26499 0.67065,7e-6 1.2039,0.227375 1.59975,0.682105 l 0.41221,-0.652662 c 0.0196,-0.01962 0.0425,-0.02944 0.0687,-0.02944 l 0.0687,0 c 0.0196,7e-6 0.0384,0.0074 0.0564,0.02208 0.018,0.01473 0.027,0.03517 0.027,0.06134 l 0,2.330933 c 0,0.05889 -0.0278,0.08833 -0.0834,0.08833 l -0.11777,0 c -0.0622,4e-6 -0.0932,-0.02944 -0.0932,-0.08833 0,-0.170113 -0.0286,-0.356587 -0.0859,-0.559424 -0.0573,-0.202827 -0.13658,-0.39748 -0.238,-0.58396 -0.10142,-0.186469 -0.21101,-0.338593 -0.32878,-0.456372 -0.32388,-0.327142 -0.75244,-0.490716 -1.28569,-0.490723 -0.22901,7e-6 -0.44002,0.05808 -0.63304,0.174207 -0.19301,0.116144 -0.34677,0.273993 -0.46127,0.473547 -0.11451,0.199566 -0.17176,0.408941 -0.17176,0.628125 0,0.287896 0.0892,0.548796 0.26745,0.782703 0.17829,0.233915 0.41138,0.388493 0.69928,0.463732 l 1.30532,0.31897 c 0.21591,0.05235 0.41956,0.146403 0.61095,0.282166 0.19138,0.13577 0.35086,0.293619 0.47845,0.473547 0.12759,0.179935 0.22737,0.380313 0.29934,0.601135 0.072,0.220828 0.10796,0.449014 0.10796,0.684558 0,0.363137 -0.0834,0.705824 -0.25027,1.028064 -0.16685,0.322242 -0.40158,0.581507 -0.70418,0.777796 -0.30262,0.196289 -0.63386,0.294433 -0.99372,0.294433 -0.22246,0 -0.44983,-0.02454 -0.6821,-0.07361 -0.23228,-0.04907 -0.44656,-0.124316 -0.64285,-0.225732 -0.19629,-0.101416 -0.37458,-0.232275 -0.53489,-0.392578 l -0.42202,0.662475 c -0.0196,0.01963 -0.0442,0.02944 -0.0736,0.02944 l -0.0589,0 c -0.0589,0 -0.0883,-0.02617 -0.0883,-0.07851 z"
         style="font-size:10.05000019000000000px;font-style:normal;font-variant:normal;font-weight:normal;font-stretch:normal;text-align:start;text-anchor:start;fill:#ffffff;font-family:cmr10;-inkscape-font-specification:cmr10;stroke:none"
         id="path4148" />
      <path
         d="m 305.63157,24.510431 0,-0.35332 c 0.69028,0 1.03542,-0.106323 1.03542,-0.31897 l 0,-5.52063 c 0,-0.21264 -0.34514,-0.318963 -1.03542,-0.318969 l 0,-0.353321 3.57737,0 c 0.3664,7e-6 0.7328,0.07525 1.09921,0.225733 0.36641,0.150494 0.6682,0.369684 0.90539,0.657568 0.23717,0.287896 0.35577,0.623223 0.35577,1.005981 0,0.372954 -0.11941,0.700102 -0.35823,0.981446 -0.23882,0.281351 -0.5398,0.494815 -0.90293,0.640393 -0.36314,0.145584 -0.72954,0.218375 -1.09921,0.218371 l -1.60957,0 0,2.463428 c -1e-5,0.212647 0.34513,0.31897 1.03542,0.31897 l 0,0.35332 z m 1.93835,-3.435058 1.36421,0 c 0.36967,3e-6 0.66902,-0.05316 0.89802,-0.159485 0.229,-0.10632 0.39667,-0.27153 0.50299,-0.49563 0.10632,-0.224092 0.15948,-0.519344 0.15949,-0.885755 -10e-6,-0.546332 -0.12023,-0.93891 -0.36068,-1.177734 -0.24046,-0.238812 -0.6404,-0.358221 -1.19982,-0.358227 l -0.85386,0 c -0.12104,6e-6 -0.2151,0.0049 -0.28216,0.01472 -0.0671,0.0098 -0.12187,0.03845 -0.16439,0.08588 -0.0425,0.04744 -0.0638,0.120233 -0.0638,0.218371 z"
         style="font-size:10.05000019000000000px;font-style:normal;font-variant:normal;font-weight:normal;font-stretch:normal;text-align:start;text-anchor:start;fill:#ffffff;font-family:cmr10;-inkscape-font-specification:cmr10;stroke:none"
         id="path4150" />
      <path
         d="m 312.43789,24.510431 0,-0.35332 c 0.69028,0 1.03542,-0.106323 1.03543,-0.31897 l 0,-5.52063 c -10e-6,-0.21264 -0.34515,-0.318963 -1.03543,-0.318969 l 0,-0.353321 3.2584,0 0,0.353321 c -0.85713,6e-6 -1.2857,0.106329 -1.28569,0.318969 l 0,5.52063 c -10e-6,0.143946 0.0409,0.233094 0.12268,0.267444 0.0818,0.03435 0.211,0.05153 0.38767,0.05153 l 0.77534,0 c 0.50053,0 0.88657,-0.0916 1.1581,-0.274805 0.27153,-0.183202 0.46373,-0.432652 0.5766,-0.748352 0.11286,-0.315696 0.19874,-0.735264 0.25763,-1.258703 l 0.28953,0 -0.27971,2.63518 z"
         style="font-size:10.05000019000000000px;font-style:normal;font-variant:normal;font-weight:normal;font-stretch:normal;text-align:start;text-anchor:start;fill:#ffffff;font-family:cmr10;-inkscape-font-specification:cmr10;stroke:none"
         id="path4152" />
    </g>
    <g
       style="font-size:10.05000019000000000px;font-style:normal;font-variant:normal;font-weight:normal;font-stretch:normal;text-align:start;text-anchor:start;fill:#ffffff;font-family:cmb10;-inkscape-font-specification:cmb10;stroke:none"
       id="text3023">
      <path
         d="m 320.51411,21.421456 0,-1.015796 2.65972,0 0,1.015796 z"
         style="font-size:10.05000019000000000px;font-style:normal;font-variant:normal;font-weight:normal;font-stretch:normal;text-align:start;text-anchor:start;fill:#ffffff;font-family:cmb10;-inkscape-font-specification:cmb10;stroke:none"
         id="path4145" />
    </g>
    <g
       style="font-size:10.05000019000000000px;font-style:normal;font-variant:normal;font-weight:normal;font-stretch:normal;text-align:start;text-anchor:start;fill:#ffffff;font-family:cmr10;-inkscape-font-specification:cmr10;stroke:none"
       id="text3025">
      <path
         d="m 326.81161,22.984284 c 0,-0.402391 0.13249,-0.758164 0.39748,-1.067322 0.26499,-0.309152 0.60523,-0.566782 1.02071,-0.772888 l -0.37295,-0.240454 c -0.22901,-0.150485 -0.41548,-0.350863 -0.55943,-0.601136 -0.14394,-0.250264 -0.21591,-0.5128 -0.21591,-0.787609 0,-0.320601 0.0842,-0.610127 0.25272,-0.86858 0.16848,-0.258441 0.39258,-0.461273 0.67229,-0.608496 0.27971,-0.14721 0.57823,-0.220818 0.89557,-0.220825 0.2977,7e-6 0.58477,0.06053 0.86122,0.181568 0.27643,0.121051 0.5038,0.294439 0.6821,0.520166 0.17829,0.225738 0.26744,0.493999 0.26744,0.804785 0,0.225737 -0.0532,0.435112 -0.15948,0.628125 -0.10633,0.193022 -0.25191,0.36641 -0.43674,0.520166 -0.18485,0.153763 -0.38195,0.284623 -0.59132,0.392578 l 0.57414,0.368042 c 0.26499,0.173392 0.47845,0.40076 0.64039,0.682104 0.16194,0.28135 0.24291,0.577419 0.24291,0.888208 0,0.363137 -0.0973,0.693556 -0.29198,0.99126 -0.19466,0.297706 -0.45229,0.528345 -0.77289,0.691919 -0.32061,0.163574 -0.6592,0.245361 -1.01579,0.245361 -0.34678,0 -0.68129,-0.07034 -1.00353,-0.21101 -0.32224,-0.140674 -0.58396,-0.344324 -0.78516,-0.61095 -0.20119,-0.266625 -0.30179,-0.574962 -0.30179,-0.925012 z m 0.5447,0 c 0,0.264991 0.0728,0.507081 0.21837,0.726269 0.14558,0.21919 0.33778,0.390943 0.5766,0.515259 0.23882,0.124317 0.48909,0.186475 0.75081,0.186475 0.3893,0 0.74262,-0.113684 1.05996,-0.341052 0.31733,-0.227368 0.476,-0.529162 0.476,-0.905384 0,-0.127586 -0.0254,-0.254356 -0.0761,-0.38031 -0.0507,-0.12595 -0.12105,-0.240452 -0.21101,-0.343506 -0.09,-0.103049 -0.19057,-0.18729 -0.3018,-0.252722 l -1.34949,-0.873486 c -0.20937,0.111233 -0.40157,0.251907 -0.57659,0.422021 -0.17503,0.17012 -0.31325,0.361502 -0.41466,0.574146 -0.10142,0.212648 -0.15213,0.436745 -0.15213,0.67229 z m 0.69192,-3.067017 1.21699,0.785156 c 0.28135,-0.16357 0.51199,-0.361494 0.69192,-0.593774 0.17993,-0.232271 0.26989,-0.493989 0.2699,-0.785156 -10e-6,-0.225727 -0.063,-0.432648 -0.18893,-0.620764 -0.12596,-0.188105 -0.29035,-0.334504 -0.49318,-0.439197 -0.20283,-0.104681 -0.42038,-0.157025 -0.65266,-0.157031 -0.20283,6e-6 -0.4073,0.03926 -0.6134,0.117773 -0.20611,0.07852 -0.37622,0.195477 -0.51035,0.350867 -0.13413,0.155401 -0.2012,0.337786 -0.2012,0.547155 0,0.314068 0.1603,0.579058 0.48091,0.794971 z"
         style="font-size:10.05000019000000000px;font-style:normal;font-variant:normal;font-weight:normal;font-stretch:normal;text-align:start;text-anchor:start;fill:#ffffff;font-family:cmr10;-inkscape-font-specification:cmr10;stroke:none"
         id="path4140" />
      <path
         d="m 332.28807,23.367047 c 0.0687,0.19629 0.17421,0.374586 0.31652,0.534888 0.14231,0.160303 0.31079,0.285438 0.50544,0.375403 0.19466,0.08997 0.39667,0.134949 0.60605,0.134949 0.48417,0 0.81786,-0.18811 1.00107,-0.564331 0.1832,-0.37622 0.2748,-0.832592 0.27481,-1.369117 -1e-5,-0.232273 -0.004,-0.427744 -0.0123,-0.586413 -0.008,-0.158664 -0.0303,-0.311606 -0.0663,-0.458826 -0.0622,-0.235543 -0.17094,-0.441647 -0.32633,-0.61831 -0.1554,-0.176657 -0.34596,-0.264987 -0.57169,-0.264991 -0.22574,4e-6 -0.41957,0.03436 -0.58151,0.103052 -0.16194,0.0687 -0.29362,0.148856 -0.39503,0.240454 -0.10142,0.09161 -0.19138,0.188114 -0.2699,0.289527 -0.0785,0.101419 -0.12759,0.155398 -0.14721,0.161938 l -0.11287,0 c -0.0164,3e-6 -0.0368,-0.01063 -0.0613,-0.0319 -0.0245,-0.02126 -0.0368,-0.04171 -0.0368,-0.06134 l 0,-3.356543 c 0,-0.01635 0.0106,-0.03353 0.0319,-0.05153 0.0213,-0.01799 0.0433,-0.02698 0.0662,-0.02699 l 0.0294,0 c 0.45147,0.215925 0.93074,0.323883 1.43782,0.323877 0.49726,6e-6 0.97653,-0.107952 1.43782,-0.323877 l 0.0294,0 c 0.0229,7e-6 0.0442,0.0082 0.0638,0.02454 0.0196,0.01636 0.0294,0.03436 0.0294,0.05398 l 0,0.09324 c -10e-6,0.03272 -0.007,0.04908 -0.0196,0.04907 -0.22901,0.304255 -0.51608,0.541437 -0.86122,0.711548 -0.34514,0.170123 -0.70255,0.255181 -1.07223,0.255176 -0.26826,5e-6 -0.54307,-0.03762 -0.82441,-0.112866 l 0,1.899096 c 0.22246,-0.179927 0.4212,-0.308333 0.59623,-0.385217 0.17502,-0.07688 0.3983,-0.115315 0.66983,-0.11532 0.36968,5e-6 0.70091,0.106328 0.99372,0.31897 0.29279,0.21265 0.5177,0.489908 0.67474,0.831775 0.15703,0.341873 0.23554,0.691103 0.23555,1.047693 -10e-6,0.402394 -0.099,0.775343 -0.29689,1.118848 -0.19793,0.343506 -0.46701,0.616675 -0.80724,0.819506 -0.34024,0.202832 -0.70991,0.304248 -1.10903,0.304248 -0.33043,0 -0.63385,-0.08506 -0.91029,-0.255175 -0.27645,-0.170117 -0.494,-0.399121 -0.65266,-0.687012 -0.15867,-0.28789 -0.23801,-0.593773 -0.23801,-0.917651 0,-0.150487 0.0491,-0.273167 0.14722,-0.368042 0.0981,-0.09487 0.22083,-0.142308 0.36804,-0.14231 0.14722,2e-6 0.27072,0.04826 0.3705,0.144763 0.0998,0.09651 0.14967,0.218374 0.14967,0.365589 0,0.143946 -0.0499,0.265809 -0.14967,0.365588 -0.0998,0.09978 -0.22328,0.149672 -0.3705,0.14967 -0.0229,2e-6 -0.0491,-0.0025 -0.0785,-0.0074 -0.0294,-0.0049 -0.0507,-0.009 -0.0638,-0.01227 z"
         style="font-size:10.05000019000000000px;font-style:normal;font-variant:normal;font-weight:normal;font-stretch:normal;text-align:start;text-anchor:start;fill:#ffffff;font-family:cmr10;-inkscape-font-specification:cmr10;stroke:none"
         id="path4142" />
    </g>
    <g
       style="font-size:10.05000019000000000px;font-style:normal;font-variant:normal;font-weight:normal;font-stretch:normal;text-align:start;text-anchor:start;fill:#ffffff;font-family:cmr10;-inkscape-font-specification:cmr10;stroke:none"
       id="text3027">
      <path
         d="m 318.14996,34.681754 c 0.15703,0.229005 0.36804,0.399122 0.63304,0.510352 0.26498,0.11123 0.5496,0.166846 0.85385,0.166846 0.38931,0 0.66575,-0.166028 0.82932,-0.498084 0.16358,-0.332055 0.24536,-0.709093 0.24537,-1.131116 -1e-5,-0.189744 -0.0172,-0.37949 -0.0515,-0.569238 -0.0344,-0.189744 -0.0924,-0.366404 -0.17421,-0.52998 -0.0818,-0.163572 -0.19384,-0.294431 -0.33614,-0.392579 -0.14231,-0.09814 -0.31652,-0.147213 -0.52262,-0.147216 l -0.66738,0 c -0.0589,3e-6 -0.0883,-0.03108 -0.0883,-0.09324 l 0,-0.08833 c -10e-6,-0.05234 0.0294,-0.07851 0.0883,-0.07851 l 0.55451,-0.04416 c 0.23555,3e-6 0.43102,-0.08833 0.58642,-0.264991 0.15539,-0.176656 0.26907,-0.391756 0.34105,-0.6453 0.072,-0.253535 0.10795,-0.494807 0.10796,-0.723816 -10e-6,-0.3206 -0.0752,-0.583954 -0.22574,-0.790063 -0.15049,-0.206098 -0.37949,-0.309149 -0.68701,-0.309156 -0.25517,7e-6 -0.4989,0.04826 -0.73117,0.144764 -0.23228,0.09651 -0.41712,0.242913 -0.55452,0.439196 0.0131,-0.0033 0.0245,-0.0057 0.0344,-0.0074 0.01,-0.0016 0.0213,-0.0024 0.0344,-0.0025 0.15049,6e-6 0.27644,0.05235 0.37786,0.157031 0.10141,0.104693 0.15212,0.230645 0.15212,0.377857 0,0.14395 -0.0507,0.268266 -0.15212,0.372949 -0.10142,0.104692 -0.22737,0.157036 -0.37786,0.157031 -0.14722,5e-6 -0.27317,-0.05234 -0.37786,-0.157031 -0.10468,-0.104683 -0.15703,-0.228999 -0.15703,-0.372949 0,-0.287886 0.0867,-0.538154 0.26009,-0.750806 0.17338,-0.21264 0.39666,-0.373761 0.66983,-0.483362 0.27317,-0.109588 0.54716,-0.164385 0.82196,-0.164392 0.20283,7e-6 0.41711,0.03027 0.64285,0.09078 0.22573,0.06053 0.4302,0.147223 0.6134,0.260083 0.1832,0.112872 0.33287,0.257635 0.44901,0.434289 0.11614,0.176666 0.17421,0.377862 0.17421,0.603589 0,0.281353 -0.063,0.541436 -0.18893,0.780249 -0.12595,0.238823 -0.29852,0.444926 -0.51771,0.618311 -0.21919,0.173392 -0.45965,0.302616 -0.72136,0.387671 0.29116,0.05562 0.5676,0.165213 0.82932,0.328784 0.26171,0.163577 0.47191,0.372952 0.63058,0.628125 0.15866,0.255178 0.23799,0.529982 0.238,0.824414 -1e-5,0.369679 -0.10142,0.704188 -0.30425,1.003528 -0.20284,0.299341 -0.46946,0.533252 -0.79988,0.701733 -0.33042,0.168481 -0.67883,0.252722 -1.04524,0.252722 -0.31406,0 -0.62894,-0.0597 -0.94464,-0.179113 -0.3157,-0.11941 -0.57414,-0.298523 -0.77534,-0.537342 -0.2012,-0.238817 -0.30179,-0.525072 -0.30179,-0.858764 0,-0.166845 0.0556,-0.305883 0.16684,-0.417115 0.11123,-0.111228 0.25027,-0.166843 0.41712,-0.166845 0.10795,2e-6 0.20692,0.02535 0.29688,0.07606 0.09,0.05071 0.1603,0.121864 0.21101,0.213464 0.0507,0.0916 0.0761,0.189747 0.0761,0.294434 -1e-5,0.163575 -0.0573,0.300977 -0.17176,0.412207 -0.1145,0.111231 -0.2519,0.166846 -0.4122,0.166845 z"
         style="font-size:10.05000019000000000px;font-style:normal;font-variant:normal;font-weight:normal;font-stretch:normal;text-align:start;text-anchor:start;fill:#ffffff;font-family:cmr10;-inkscape-font-specification:cmr10;stroke:none"
         id="path4137" />
    </g>
    <g
       transform="scale(0.69279521,1.443428)"
       style="font-size:14.50645160999999900px;font-style:normal;font-weight:normal;text-align:start;text-anchor:start;fill:#ffffff;font-family:Cambria Math;stroke:none"
       id="text3029">
      <path
         d="m 493.27732,18.278845 c 0,-1.596082 -0.26444,-2.921825 -0.79332,-3.977232 -0.52888,-1.055393 -1.34817,-1.764895 -2.45788,-2.12851 l 0.19125,-0.545409 c 1.37886,0.363616 2.43781,1.148673 3.17683,2.355173 0.73901,1.206517 1.10852,2.662119 1.10852,4.366811 0,1.709421 -0.36833,3.165023 -1.10498,4.36681 -0.73666,1.201786 -1.79678,1.984482 -3.18037,2.34809 l -0.17,-0.545408 c 1.09082,-0.363608 1.90184,-1.081375 2.43309,-2.153302 0.53124,-1.071928 0.79686,-2.434267 0.79686,-4.087023 z"
         style="font-size:14.50645160999999900px;font-style:normal;font-weight:normal;text-align:start;text-anchor:start;fill:#ffffff;font-family:Cambria Math;stroke:none"
         id="path4134" />
    </g>
    <g
       style="font-size:13.80000019000000000px;font-style:normal;font-weight:normal;text-align:start;text-anchor:start;fill:#ffffff;font-family:Calibri;stroke:none"
       id="text3031" />
    <path
       d="m 288.88313,13.903542 54.76711,0 -0.91279,0"
       id="path3051"
       style="fill:#ffffff;stroke:#ffffff;stroke-width:0.76632875000000000px;stroke-linecap:butt;stroke-linejoin:miter;stroke-opacity:1"
       inkscape:connector-curvature="0" />
    <path
       d="m 298.24885,26.871469 39.18445,0"
       id="path3053"
       style="fill:#ffffff;stroke:#ffffff;stroke-width:0.83682840999999986px;stroke-linecap:butt;stroke-linejoin:miter;stroke-opacity:1"
       inkscape:connector-curvature="0" />
  </g>
</svg>
