<?xml version="1.0" encoding="utf-8"?>
<!-- Generator: Adobe Illustrator 16.0.0, SVG Export Plug-In . SVG Version: 6.00 Build 0)  -->
<!DOCTYPE svg PUBLIC "-//W3C//DTD SVG 1.1//EN" "http://www.w3.org/Graphics/SVG/1.1/DTD/svg11.dtd">
<svg version="1.1"
	 id="svg3020" xmlns:dc="http://purl.org/dc/elements/1.1/" xmlns:cc="http://creativecommons.org/ns#" xmlns:rdf="http://www.w3.org/1999/02/22-rdf-syntax-ns#" xmlns:svg="http://www.w3.org/2000/svg" xmlns:inkscape="http://www.inkscape.org/namespaces/inkscape"
	 xmlns="http://www.w3.org/2000/svg" xmlns:xlink="http://www.w3.org/1999/xlink" x="0px" y="0px" width="575px" height="60px"
	 viewBox="0 0 320 60" enable-background="new 0 0 320 60" xml:space="preserve">
<g id="text3030" transform="scale(0.95814898,1.043679)">
</g>
<g id="g3009" transform="matrix(1.4688253,0,0,1.4688253,-277.70507,-0.75165246)">
	<g id="text3011">
		<path id="path26" inkscape:connector-curvature="0" d="M265.54,24.755V24.27c0.463,0,0.912-0.025,1.348-0.074
			c0.436-0.053,0.654-0.175,0.654-0.364v-7.58c0-0.198-0.056-0.319-0.169-0.364c-0.108-0.049-0.285-0.074-0.532-0.074h-0.579
			c-0.759,0-1.298,0.166-1.617,0.499c-0.166,0.166-0.285,0.433-0.357,0.802c-0.072,0.364-0.133,0.822-0.182,1.374h-0.398l0.263-3.16
			h8.43l0.263,3.16h-0.404c-0.054-0.593-0.115-1.062-0.182-1.408c-0.063-0.35-0.18-0.606-0.35-0.768
			c-0.323-0.332-0.863-0.499-1.617-0.499h-0.579c-0.166,0-0.297,0.007-0.391,0.02c-0.09,0.014-0.164,0.054-0.222,0.121
			c-0.058,0.063-0.087,0.162-0.087,0.297v7.58c0,0.189,0.218,0.31,0.654,0.364c0.436,0.05,0.883,0.074,1.341,0.074v0.485H265.54z"/>
	</g>
	<g id="text3013">
		<path id="path29" inkscape:connector-curvature="0" d="M289.474,18.045h-7.992v-1.078h7.992V18.045z M289.474,20.875h-7.992
			v-1.078h7.992V20.875z"/>
	</g>
	<g id="text3015">
		<path id="path32" inkscape:connector-curvature="0" d="M311.911,8.561c0-0.553,0.182-1.04,0.546-1.462
			c0.364-0.427,0.831-0.782,1.402-1.065l-0.512-0.33c-0.314-0.206-0.571-0.481-0.768-0.822c-0.198-0.346-0.297-0.707-0.297-1.085
			c0-0.44,0.114-0.838,0.343-1.193c0.234-0.355,0.541-0.633,0.923-0.835c0.386-0.202,0.797-0.303,1.233-0.303
			c0.408,0,0.802,0.083,1.179,0.249c0.382,0.166,0.694,0.405,0.937,0.714c0.247,0.31,0.371,0.678,0.371,1.105
			c0,0.31-0.074,0.598-0.223,0.863c-0.144,0.265-0.344,0.503-0.6,0.714c-0.252,0.211-0.521,0.391-0.809,0.539l0.789,0.505
			c0.364,0.238,0.656,0.551,0.876,0.937c0.225,0.386,0.337,0.793,0.337,1.22c0,0.499-0.135,0.952-0.405,1.361
			c-0.265,0.409-0.617,0.725-1.057,0.95c-0.44,0.225-0.906,0.337-1.395,0.337c-0.476,0-0.937-0.097-1.382-0.29
			c-0.44-0.193-0.8-0.472-1.078-0.836C312.048,9.465,311.911,9.041,311.911,8.561z M312.659,8.561c0,0.364,0.099,0.696,0.297,0.997
			c0.202,0.301,0.467,0.537,0.795,0.707c0.328,0.171,0.672,0.256,1.031,0.256c0.535,0,1.019-0.155,1.455-0.465
			c0.436-0.314,0.654-0.73,0.654-1.246c0-0.176-0.036-0.348-0.108-0.519c-0.068-0.175-0.164-0.332-0.29-0.472
			c-0.121-0.144-0.259-0.261-0.411-0.35l-1.854-1.199c-0.287,0.153-0.552,0.346-0.795,0.579c-0.238,0.234-0.427,0.496-0.566,0.788
			C312.729,7.929,312.659,8.237,312.659,8.561z M313.609,4.349l1.671,1.078c0.386-0.225,0.703-0.496,0.949-0.815
			c0.247-0.319,0.371-0.678,0.371-1.078c0-0.31-0.088-0.593-0.263-0.849c-0.17-0.261-0.395-0.463-0.674-0.606
			c-0.279-0.144-0.577-0.216-0.896-0.216c-0.279,0-0.56,0.054-0.843,0.162c-0.283,0.108-0.516,0.27-0.701,0.485
			c-0.184,0.211-0.276,0.46-0.276,0.748C312.949,3.688,313.169,4.052,313.609,4.349L313.609,4.349z"/>
	</g>
	<g id="text3017">
		<path id="path35" inkscape:connector-curvature="0" d="M295.339,40.288v-0.37c0-0.023,0.009-0.048,0.027-0.074l2.143-2.372
			c0.323-0.35,0.586-0.644,0.789-0.882c0.202-0.238,0.402-0.513,0.6-0.822c0.198-0.31,0.352-0.624,0.465-0.943
			c0.116-0.324,0.175-0.665,0.175-1.025c0-0.377-0.07-0.737-0.209-1.078c-0.139-0.346-0.348-0.622-0.626-0.829
			c-0.274-0.207-0.606-0.31-0.997-0.31c-0.4,0-0.759,0.122-1.078,0.364c-0.319,0.238-0.544,0.548-0.674,0.929
			c0.036-0.009,0.085-0.013,0.148-0.013c0.207,0,0.382,0.07,0.526,0.209c0.148,0.14,0.222,0.319,0.222,0.539
			c0,0.211-0.074,0.391-0.222,0.539c-0.144,0.144-0.319,0.215-0.526,0.215c-0.215,0-0.398-0.074-0.546-0.222
			c-0.144-0.153-0.215-0.33-0.215-0.533c0-0.346,0.065-0.67,0.195-0.97c0.13-0.306,0.316-0.575,0.559-0.808
			c0.247-0.238,0.523-0.42,0.829-0.546c0.31-0.126,0.638-0.189,0.984-0.189c0.525,0,1.015,0.112,1.469,0.337
			c0.453,0.22,0.812,0.535,1.078,0.943c0.265,0.404,0.398,0.879,0.398,1.422c0,0.4-0.087,0.78-0.263,1.139
			c-0.176,0.359-0.4,0.687-0.674,0.984c-0.274,0.292-0.624,0.624-1.05,0.997c-0.427,0.372-0.708,0.622-0.843,0.747l-1.563,1.503
			h1.328c0.652,0,1.195-0.004,1.63-0.013c0.44-0.013,0.674-0.031,0.701-0.054c0.108-0.116,0.218-0.541,0.33-1.273h0.404l-0.39,2.459
			H295.339z"/>
	</g>
	<g id="text3019" transform="scale(0.68027586,1.4699919)">
		<path id="path38" inkscape:connector-curvature="0" d="M445.869,17.701c0,1.683,0.269,3.071,0.808,4.162
			c0.543,1.091,1.37,1.823,2.481,2.193l-0.173,0.555c-1.409-0.37-2.489-1.169-3.239-2.395c-0.751-1.222-1.126-2.702-1.126-4.444
			c0-1.736,0.375-3.217,1.126-4.443c0.755-1.231,1.834-2.032,3.239-2.402l0.194,0.555c-1.125,0.37-1.96,1.094-2.503,2.171
			C446.137,14.726,445.869,16.076,445.869,17.701z"/>
	</g>
	<g id="text3021">
		<path id="path41" inkscape:connector-curvature="0" d="M306.841,24.511v-0.354c0.69,0,1.036-0.106,1.036-0.318v-5.521
			c0-0.212-0.346-0.319-1.036-0.319v-0.353h3.258v0.353c-0.857,0-1.286,0.106-1.286,0.319v5.521c0,0.144,0.041,0.233,0.123,0.269
			c0.081,0.033,0.211,0.049,0.387,0.049h0.775c0.501,0,0.887-0.092,1.158-0.275c0.272-0.183,0.463-0.431,0.574-0.746
			c0.114-0.317,0.201-0.737,0.261-1.261h0.289l-0.28,2.635H306.841z"/>
	</g>
	<g id="text3023">
		<path id="path44" inkscape:connector-curvature="0" d="M318.768,20.396h-3.062v-0.888h3.062V20.396z"/>
	</g>
	<g id="text3025">
		<path id="path47" inkscape:connector-curvature="0" d="M320.004,22.984c0-0.402,0.132-0.757,0.398-1.064
			c0.265-0.31,0.605-0.57,1.021-0.776l-0.373-0.24c-0.229-0.151-0.416-0.35-0.56-0.599c-0.144-0.252-0.215-0.515-0.215-0.79
			c0-0.32,0.084-0.61,0.25-0.868c0.17-0.259,0.394-0.461,0.673-0.609c0.281-0.147,0.58-0.221,0.898-0.221
			c0.298,0,0.584,0.06,0.859,0.181c0.278,0.121,0.505,0.295,0.682,0.52c0.18,0.226,0.27,0.494,0.27,0.805
			c0,0.226-0.055,0.435-0.162,0.628c-0.105,0.193-0.25,0.366-0.437,0.52c-0.183,0.154-0.38,0.285-0.588,0.393l0.574,0.368
			c0.265,0.173,0.478,0.401,0.638,0.682c0.164,0.281,0.246,0.577,0.246,0.888c0,0.363-0.098,0.693-0.295,0.991
			c-0.193,0.298-0.45,0.529-0.771,0.692c-0.32,0.164-0.66,0.245-1.016,0.245c-0.347,0-0.682-0.07-1.006-0.211
			c-0.32-0.14-0.582-0.343-0.785-0.608C320.103,23.644,320.004,23.334,320.004,22.984z M320.548,22.984
			c0,0.265,0.072,0.507,0.216,0.727c0.148,0.219,0.34,0.391,0.579,0.515c0.239,0.124,0.489,0.186,0.751,0.186
			c0.39,0,0.743-0.113,1.06-0.338c0.318-0.229,0.476-0.531,0.476-0.908c0-0.128-0.026-0.254-0.078-0.378
			c-0.049-0.127-0.12-0.242-0.211-0.344c-0.088-0.104-0.188-0.189-0.3-0.255l-1.349-0.874c-0.209,0.111-0.402,0.252-0.579,0.422
			c-0.174,0.17-0.311,0.362-0.412,0.574C320.599,22.525,320.548,22.749,320.548,22.984L320.548,22.984z M321.24,19.917l1.217,0.785
			c0.282-0.164,0.512-0.362,0.692-0.594c0.18-0.232,0.27-0.494,0.27-0.785c0-0.226-0.064-0.432-0.191-0.618
			c-0.124-0.19-0.288-0.337-0.491-0.442s-0.42-0.157-0.652-0.157c-0.203,0-0.408,0.039-0.614,0.118
			c-0.206,0.078-0.376,0.196-0.511,0.353c-0.134,0.154-0.201,0.335-0.201,0.545C320.759,19.436,320.92,19.701,321.24,19.917
			L321.24,19.917z"/>
		<path id="path49" inkscape:connector-curvature="0" d="M325.48,23.367c0.068,0.197,0.174,0.375,0.314,0.535
			c0.144,0.161,0.312,0.287,0.505,0.378c0.195,0.088,0.399,0.132,0.608,0.132c0.485,0,0.818-0.188,1.001-0.564
			c0.184-0.376,0.275-0.833,0.275-1.37c0-0.232-0.005-0.427-0.015-0.584c-0.007-0.16-0.028-0.314-0.064-0.461
			c-0.063-0.235-0.172-0.441-0.329-0.618c-0.154-0.177-0.344-0.265-0.569-0.265c-0.225,0-0.421,0.034-0.584,0.103
			c-0.16,0.069-0.291,0.149-0.392,0.24c-0.101,0.092-0.191,0.188-0.27,0.29c-0.078,0.101-0.128,0.156-0.147,0.162h-0.113
			c-0.017,0-0.038-0.01-0.064-0.029c-0.023-0.023-0.034-0.044-0.034-0.064v-3.357c0-0.016,0.009-0.033,0.029-0.049
			c0.023-0.02,0.045-0.029,0.068-0.029h0.029c0.451,0.216,0.931,0.324,1.438,0.324c0.497,0,0.976-0.108,1.437-0.324h0.029
			c0.023,0,0.045,0.008,0.064,0.025c0.02,0.016,0.029,0.034,0.029,0.054v0.093c0,0.033-0.006,0.049-0.019,0.049
			c-0.229,0.304-0.517,0.542-0.864,0.712c-0.343,0.17-0.7,0.255-1.07,0.255c-0.268,0-0.543-0.038-0.824-0.113v1.899
			c0.223-0.18,0.421-0.307,0.594-0.383c0.177-0.078,0.401-0.118,0.673-0.118c0.37,0,0.699,0.106,0.991,0.319
			c0.295,0.213,0.52,0.491,0.677,0.834c0.157,0.34,0.235,0.688,0.235,1.045c0,0.402-0.1,0.775-0.299,1.119
			c-0.196,0.343-0.465,0.617-0.805,0.819c-0.34,0.203-0.709,0.305-1.109,0.305c-0.33,0-0.634-0.085-0.912-0.255
			c-0.275-0.17-0.493-0.399-0.653-0.687c-0.157-0.288-0.235-0.594-0.235-0.917c0-0.151,0.049-0.273,0.147-0.368
			c0.098-0.095,0.221-0.142,0.368-0.142c0.148,0,0.27,0.049,0.368,0.147c0.102,0.095,0.152,0.217,0.152,0.364
			c0,0.144-0.051,0.267-0.152,0.368c-0.098,0.098-0.221,0.148-0.368,0.148c-0.023,0-0.049-0.002-0.078-0.005
			C325.514,23.375,325.493,23.37,325.48,23.367z"/>
	</g>
	<g id="text3027">
		<path id="path52" inkscape:connector-curvature="0" d="M316.788,34.682c0.157,0.229,0.368,0.399,0.633,0.511
			c0.265,0.111,0.55,0.167,0.854,0.167c0.39,0,0.666-0.166,0.83-0.495c0.164-0.334,0.245-0.712,0.245-1.134
			c0-0.189-0.018-0.379-0.054-0.569c-0.033-0.189-0.09-0.366-0.172-0.53c-0.082-0.164-0.195-0.295-0.339-0.393
			c-0.141-0.098-0.314-0.147-0.52-0.147h-0.668c-0.059,0-0.088-0.031-0.088-0.093v-0.088c0-0.052,0.03-0.078,0.088-0.078
			l0.555-0.044c0.235,0,0.43-0.088,0.584-0.265c0.157-0.176,0.271-0.391,0.344-0.643c0.072-0.255,0.108-0.497,0.108-0.726
			c0-0.32-0.076-0.584-0.226-0.79c-0.15-0.206-0.38-0.31-0.687-0.31c-0.255,0-0.499,0.049-0.731,0.148
			c-0.231,0.094-0.416,0.241-0.555,0.437c0.013-0.003,0.025-0.005,0.035-0.005c0.01-0.004,0.021-0.005,0.035-0.005
			c0.15,0,0.277,0.053,0.378,0.157c0.102,0.105,0.152,0.231,0.152,0.378c0,0.144-0.051,0.269-0.152,0.374
			c-0.101,0.104-0.227,0.157-0.378,0.157c-0.148,0-0.273-0.053-0.378-0.157c-0.105-0.105-0.157-0.229-0.157-0.374
			c0-0.287,0.086-0.538,0.259-0.75c0.174-0.213,0.396-0.374,0.668-0.481c0.275-0.111,0.55-0.167,0.824-0.167
			c0.203,0,0.418,0.031,0.644,0.094c0.225,0.059,0.43,0.145,0.613,0.259c0.184,0.112,0.332,0.255,0.447,0.432
			c0.118,0.177,0.177,0.378,0.177,0.604c0,0.281-0.064,0.541-0.191,0.781c-0.125,0.238-0.297,0.444-0.516,0.618
			c-0.219,0.173-0.459,0.302-0.721,0.387c0.291,0.056,0.567,0.166,0.829,0.329c0.261,0.164,0.471,0.373,0.628,0.628
			c0.16,0.255,0.24,0.53,0.24,0.824c0,0.37-0.102,0.705-0.304,1.006c-0.203,0.297-0.469,0.531-0.801,0.701
			c-0.33,0.167-0.678,0.25-1.045,0.25c-0.314,0-0.63-0.06-0.947-0.181c-0.314-0.118-0.572-0.297-0.775-0.535
			c-0.199-0.239-0.299-0.525-0.299-0.858c0-0.168,0.055-0.306,0.166-0.418c0.112-0.111,0.251-0.167,0.418-0.167
			c0.108,0,0.206,0.026,0.294,0.078c0.092,0.049,0.162,0.12,0.211,0.211c0.052,0.092,0.078,0.19,0.078,0.295
			c0,0.164-0.057,0.301-0.172,0.412c-0.114,0.11-0.252,0.166-0.412,0.166H316.788z"/>
	</g>
	<g id="text3029" transform="scale(0.69279521,1.443428)">
		<path id="path55" inkscape:connector-curvature="0" d="M481.486,18.279c0-1.596-0.265-2.92-0.794-3.974
			c-0.529-1.058-1.348-1.768-2.458-2.132l0.191-0.545c1.379,0.364,2.437,1.15,3.174,2.359c0.741,1.204,1.111,2.659,1.111,4.363
			c0,1.709-0.368,3.164-1.105,4.363c-0.736,1.204-1.797,1.988-3.18,2.351l-0.17-0.545c1.09-0.364,1.9-1.082,2.43-2.153
			C481.219,21.294,481.486,19.931,481.486,18.279z"/>
	</g>
	<g id="text3031">
	</g>
	<path id="path3051" inkscape:connector-curvature="0" fill="none" stroke="#000000" stroke-width="0.6808" d="M295.691,13.904
		h43.226h-0.72"/>
	<path id="path3053" inkscape:connector-curvature="0" fill="none" stroke="#000000" stroke-width="0.6808" d="M305.058,26.871
		h25.936"/>
</g>
</svg>
