<?xml version="1.0" encoding="utf-8"?>
<!-- Generator: Adobe Illustrator 16.0.0, SVG Export Plug-In . SVG Version: 6.00 Build 0)  -->
<!DOCTYPE svg PUBLIC "-//W3C//DTD SVG 1.1//EN" "http://www.w3.org/Graphics/SVG/1.1/DTD/svg11.dtd">
<svg version="1.1"
	 id="svg3020" xmlns:dc="http://purl.org/dc/elements/1.1/" xmlns:cc="http://creativecommons.org/ns#" xmlns:rdf="http://www.w3.org/1999/02/22-rdf-syntax-ns#" xmlns:svg="http://www.w3.org/2000/svg" xmlns:inkscape="http://www.inkscape.org/namespaces/inkscape"
	 xmlns="http://www.w3.org/2000/svg" xmlns:xlink="http://www.w3.org/1999/xlink" x="0px" y="0px" width="320px" height="60px"
	 viewBox="0 0 320 60" enable-background="new 0 0 320 60" xml:space="preserve">
<g id="text3030" transform="scale(0.95814898,1.043679)">
</g>
<g id="g3009" transform="matrix(1.4688253,0,0,1.4688253,-277.70507,-0.75165246)">
	<g id="flowRoot3055" transform="matrix(0.68081616,0,0,0.68081616,189.0661,0.51173714)">
	</g>
	<g id="flowRoot3063" transform="matrix(0.68081616,0,0,0.68081616,189.0661,0.51173714)">
	</g>
	<g id="g3569" transform="matrix(0.68081616,0,0,0.68081616,66.230655,78.160046)">
	</g>
	<g id="g3616" transform="matrix(1.0601124,0,0,1.0601124,-11.749177,11.811115)">
		<g id="text3618">
			<path id="path59" inkscape:connector-curvature="0" d="M196.142,13.221l-2.817-8.659c-0.072-0.193-0.211-0.314-0.418-0.364
				c-0.206-0.049-0.476-0.074-0.808-0.074V3.639h3.699v0.485c-0.773,0-1.159,0.124-1.159,0.37v0.067l2.204,6.792l1.88-5.808
				l-0.317-0.984c-0.072-0.193-0.211-0.314-0.418-0.364c-0.207-0.049-0.476-0.074-0.809-0.074V3.639h3.693v0.485
				c-0.782,0-1.172,0.124-1.172,0.37c0,0.014,0.004,0.034,0.013,0.061c0.009,0.027,0.013,0.045,0.013,0.054l2.197,6.745l2.069-6.415
				c0.009-0.027,0.013-0.07,0.013-0.128c0-0.242-0.128-0.418-0.384-0.526c-0.256-0.108-0.523-0.161-0.802-0.161V3.639h2.951v0.485
				c-0.728,0-1.177,0.272-1.348,0.815l-2.695,8.281c-0.032,0.099-0.099,0.148-0.202,0.148h-0.101c-0.103,0-0.171-0.049-0.202-0.148
				l-2.278-7.028l-2.291,7.028c-0.031,0.099-0.101,0.148-0.209,0.148h-0.094C196.243,13.369,196.174,13.32,196.142,13.221z"/>
			<path id="path61" inkscape:connector-curvature="0" d="M206.499,13.066v-0.485c0.948,0,1.422-0.146,1.422-0.438V4.562
				c0-0.292-0.474-0.438-1.422-0.438V3.639h5.074c0.467,0,0.939,0.092,1.415,0.276c0.476,0.18,0.869,0.449,1.179,0.809
				c0.315,0.355,0.472,0.775,0.472,1.26c0,0.562-0.231,1.033-0.694,1.415c-0.458,0.377-0.995,0.624-1.611,0.741
				c0.4,0,0.811,0.11,1.233,0.33c0.422,0.22,0.768,0.515,1.038,0.883c0.269,0.368,0.404,0.759,0.404,1.172
				c0,0.503-0.151,0.948-0.452,1.335c-0.296,0.386-0.683,0.685-1.159,0.896c-0.476,0.207-0.955,0.31-1.435,0.31H206.499z
				 M209.12,12.143c0,0.198,0.056,0.321,0.168,0.371c0.112,0.045,0.29,0.067,0.532,0.067h1.752c0.359,0,0.692-0.094,0.997-0.283
				c0.31-0.189,0.555-0.44,0.734-0.755c0.18-0.319,0.27-0.658,0.27-1.017c0-0.35-0.074-0.692-0.222-1.024
				c-0.148-0.337-0.362-0.613-0.64-0.829c-0.274-0.215-0.588-0.323-0.943-0.323h-2.648V12.143L209.12,12.143z M209.12,7.985h2.069
				c0.278,0,0.539-0.049,0.782-0.148c0.247-0.103,0.467-0.249,0.66-0.438c0.198-0.193,0.348-0.409,0.451-0.647
				c0.108-0.242,0.162-0.499,0.162-0.768c0-0.238-0.04-0.467-0.121-0.687c-0.076-0.22-0.191-0.42-0.344-0.6
				c-0.153-0.18-0.332-0.319-0.539-0.418c-0.207-0.103-0.429-0.155-0.667-0.155h-1.752c-0.166,0-0.297,0.007-0.391,0.02
				c-0.09,0.013-0.164,0.054-0.223,0.121c-0.058,0.063-0.087,0.162-0.087,0.296V7.985L209.12,7.985z"/>
			<path id="path63" inkscape:connector-curvature="0" d="M218.985,11.591c0.332,0.404,0.737,0.721,1.213,0.95
				c0.481,0.229,0.982,0.343,1.503,0.343c0.512,0,0.977-0.13,1.395-0.39c0.418-0.261,0.627-0.632,0.627-1.112v-1.159
				c0-0.292-0.575-0.438-1.725-0.438V9.3h3.955v0.485c-0.292,0-0.523,0.025-0.694,0.074c-0.171,0.05-0.256,0.171-0.256,0.364v2.723
				c0,0.031-0.013,0.06-0.04,0.087c-0.023,0.023-0.049,0.034-0.081,0.034c-0.085,0-0.229-0.101-0.431-0.303
				c-0.198-0.203-0.355-0.383-0.472-0.539c-0.225,0.386-0.577,0.674-1.058,0.862s-0.984,0.283-1.509,0.283
				c-0.894,0-1.709-0.229-2.446-0.687c-0.733-0.463-1.312-1.077-1.738-1.846c-0.427-0.773-0.64-1.601-0.64-2.486
				c0-0.651,0.124-1.285,0.371-1.9c0.247-0.615,0.591-1.157,1.031-1.624c0.445-0.467,0.961-0.831,1.55-1.092
				c0.589-0.265,1.213-0.398,1.873-0.398c0.476,0,0.925,0.103,1.347,0.31c0.427,0.202,0.807,0.489,1.139,0.863l0.802-1.132
				c0.054-0.027,0.085-0.041,0.094-0.041h0.101c0.027,0,0.052,0.011,0.074,0.034c0.023,0.023,0.034,0.05,0.034,0.081v3.726
				c0,0.081-0.036,0.121-0.108,0.121h-0.249c-0.085,0-0.128-0.04-0.128-0.121c0-0.265-0.054-0.562-0.162-0.89
				c-0.103-0.328-0.238-0.638-0.404-0.93c-0.162-0.296-0.351-0.557-0.566-0.782c-0.517-0.503-1.11-0.754-1.779-0.754
				c-0.512,0-1.002,0.114-1.469,0.344c-0.467,0.229-0.86,0.546-1.179,0.95c-0.337,0.431-0.57,0.923-0.701,1.476
				c-0.13,0.548-0.195,1.134-0.195,1.759C218.062,9.76,218.37,10.841,218.985,11.591z"/>
			<path id="path65" inkscape:connector-curvature="0" d="M228.978,13.066v-0.485c0.463,0,0.912-0.024,1.348-0.074
				c0.436-0.054,0.654-0.175,0.654-0.364V4.562c0-0.198-0.056-0.319-0.168-0.364c-0.108-0.049-0.285-0.074-0.532-0.074h-0.579
				c-0.759,0-1.298,0.166-1.617,0.499c-0.166,0.166-0.285,0.433-0.357,0.802c-0.072,0.364-0.132,0.822-0.182,1.375h-0.398
				l0.263-3.16h8.43L236.1,6.8h-0.404c-0.054-0.593-0.114-1.062-0.182-1.409c-0.063-0.35-0.18-0.606-0.351-0.768
				c-0.323-0.332-0.862-0.499-1.617-0.499h-0.579c-0.166,0-0.296,0.007-0.391,0.02c-0.09,0.013-0.164,0.054-0.222,0.121
				c-0.059,0.063-0.088,0.162-0.088,0.296v7.581c0,0.189,0.218,0.31,0.654,0.364c0.436,0.05,0.883,0.074,1.341,0.074v0.485H228.978z
				"/>
		</g>
		<g id="text3620">
			<path id="path68" inkscape:connector-curvature="0" d="M249.68,7.797h-7.992V6.719h7.992V7.797z M249.68,10.627h-7.992V9.549
				h7.992V10.627z"/>
		</g>
		<g id="text3622">
		</g>
		<g id="text3624">
		</g>
		<g id="text3626">
		</g>
		<g id="text3628">
			<path id="path74" inkscape:connector-curvature="0" d="M260.325,13.369c-1.128,0-1.896-0.463-2.304-1.388
				c-0.404-0.93-0.606-2.035-0.606-3.315c0-0.8,0.072-1.552,0.216-2.257c0.148-0.705,0.438-1.303,0.869-1.792
				c0.436-0.494,1.044-0.741,1.826-0.741c0.606,0,1.103,0.148,1.489,0.445c0.386,0.296,0.68,0.68,0.883,1.152
				c0.202,0.467,0.339,0.971,0.411,1.51c0.076,0.534,0.114,1.096,0.114,1.685c0,0.791-0.074,1.532-0.222,2.223
				c-0.144,0.687-0.429,1.274-0.856,1.759C261.717,13.129,261.111,13.369,260.325,13.369z M260.325,13.012
				c0.512,0,0.894-0.263,1.146-0.788s0.406-1.108,0.465-1.745c0.058-0.638,0.087-1.316,0.087-2.035c0-0.692-0.029-1.33-0.087-1.914
				c-0.059-0.584-0.214-1.112-0.465-1.584c-0.247-0.476-0.629-0.714-1.146-0.714c-0.521,0-0.908,0.238-1.159,0.714
				c-0.252,0.476-0.406,1.006-0.465,1.59c-0.058,0.579-0.087,1.215-0.087,1.907c0,0.512,0.011,0.995,0.034,1.448
				c0.027,0.454,0.094,0.923,0.202,1.409c0.108,0.48,0.281,0.887,0.519,1.219C259.61,12.849,259.929,13.012,260.325,13.012z"/>
			<path id="path76" inkscape:connector-curvature="0" d="M264.934,12.304c0-0.206,0.077-0.384,0.229-0.532s0.33-0.222,0.532-0.222
				c0.126,0,0.249,0.033,0.371,0.1c0.121,0.068,0.216,0.162,0.283,0.283c0.067,0.121,0.101,0.245,0.101,0.37
				c0,0.203-0.074,0.38-0.222,0.533c-0.148,0.152-0.326,0.229-0.532,0.229c-0.202,0-0.379-0.077-0.532-0.229
				C265.01,12.684,264.934,12.507,264.934,12.304z"/>
			<path id="path78" inkscape:connector-curvature="0" d="M270.001,12.709c0-0.512,0.045-1.013,0.135-1.503
				c0.09-0.49,0.22-0.973,0.391-1.449c0.175-0.481,0.384-0.95,0.627-1.409c0.247-0.463,0.517-0.896,0.809-1.301l1.26-1.752h-1.577
				c-1.635,0-2.477,0.022-2.527,0.067c-0.121,0.148-0.236,0.573-0.344,1.274h-0.398l0.452-2.897h0.404v0.04
				c0,0.166,0.281,0.274,0.842,0.323c0.562,0.05,1.112,0.074,1.651,0.074h2.567v0.357c0,0.009-0.002,0.016-0.007,0.02
				c0,0.004-0.003,0.011-0.007,0.02l-1.9,2.669c-0.467,0.692-0.759,1.46-0.876,2.304c-0.117,0.845-0.175,1.898-0.175,3.161
				c0,0.179-0.065,0.334-0.195,0.464c-0.13,0.13-0.285,0.196-0.465,0.196c-0.184,0-0.341-0.065-0.472-0.196
				C270.066,13.044,270.001,12.889,270.001,12.709z"/>
			<path id="path80" inkscape:connector-curvature="0" d="M275.91,11.409V7.602h-1.146V7.244c0.602,0,1.045-0.281,1.328-0.842
				c0.283-0.562,0.424-1.17,0.424-1.826h0.398v2.54h1.947v0.485h-1.947v3.78c0,0.382,0.063,0.716,0.189,1.004
				c0.13,0.287,0.362,0.431,0.694,0.431c0.315,0,0.541-0.15,0.68-0.451c0.139-0.306,0.209-0.633,0.209-0.984v-0.816h0.397v0.843
				c0,0.287-0.054,0.573-0.161,0.855c-0.104,0.278-0.258,0.508-0.465,0.687s-0.458,0.27-0.755,0.27
				c-0.553,0-0.991-0.164-1.314-0.492C276.07,12.397,275.91,11.957,275.91,11.409z"/>
			<path id="path82" inkscape:connector-curvature="0" d="M280.114,15.826v-0.294c0.19,0,0.346-0.015,0.469-0.045
				s0.183-0.103,0.183-0.22v-2.278c0-0.15-0.023-0.257-0.069-0.322c-0.044-0.068-0.107-0.109-0.192-0.122
				c-0.084-0.016-0.215-0.024-0.391-0.024v-0.294l1.211-0.09v0.815c0.111-0.239,0.276-0.435,0.493-0.587
				c0.22-0.152,0.459-0.228,0.717-0.228c0.386,0,0.675,0.092,0.868,0.277c0.196,0.185,0.293,0.467,0.293,0.848v2.006
				c0,0.117,0.061,0.19,0.183,0.22c0.122,0.03,0.278,0.045,0.469,0.045v0.294h-1.912v-0.294c0.19,0,0.346-0.015,0.469-0.045
				c0.122-0.03,0.183-0.103,0.183-0.22v-1.981c0-0.272-0.04-0.494-0.118-0.669c-0.079-0.177-0.241-0.265-0.485-0.265
				c-0.323,0-0.59,0.129-0.799,0.387c-0.207,0.258-0.31,0.552-0.31,0.881v1.647c0,0.117,0.061,0.19,0.183,0.22
				s0.277,0.045,0.465,0.045v0.294H280.114z"/>
			<path id="path84" inkscape:connector-curvature="0" d="M286.343,15.826l-1.08-3.037c-0.049-0.122-0.119-0.197-0.212-0.224
				c-0.093-0.03-0.227-0.045-0.404-0.045v-0.294h1.72v0.294c-0.329,0-0.493,0.069-0.493,0.208c0.003,0.008,0.004,0.016,0.004,0.024
				c0.003,0.009,0.004,0.021,0.004,0.037l0.803,2.25l0.693-1.961l-0.11-0.289c-0.043-0.122-0.113-0.197-0.208-0.224
				c-0.095-0.03-0.23-0.045-0.404-0.045v-0.294h1.647v0.294c-0.329,0-0.493,0.069-0.493,0.208c0,0.021,0.003,0.042,0.008,0.061
				l0.836,2.352l0.758-2.129c0.011-0.043,0.016-0.083,0.016-0.118c0-0.117-0.05-0.208-0.151-0.273
				c-0.098-0.068-0.208-0.102-0.33-0.102v-0.294h1.419v0.294c-0.168,0-0.314,0.045-0.436,0.134
				c-0.119,0.087-0.208,0.207-0.265,0.359l-0.995,2.813c-0.019,0.062-0.061,0.093-0.126,0.093h-0.065
				c-0.065,0-0.107-0.031-0.126-0.093l-0.844-2.381l-0.844,2.381c-0.027,0.062-0.071,0.093-0.13,0.093h-0.061
				C286.406,15.92,286.362,15.889,286.343,15.826z"/>
			<path id="path86" inkscape:connector-curvature="0" d="M291.398,15.826v-4.941c0-0.15-0.023-0.257-0.069-0.322
				c-0.044-0.068-0.107-0.109-0.192-0.122c-0.084-0.016-0.215-0.024-0.391-0.024v-0.294l1.235-0.09v2.613
				c0.092-0.103,0.2-0.193,0.322-0.27c0.125-0.078,0.258-0.138,0.4-0.179c0.142-0.04,0.285-0.061,0.432-0.061
				c0.25,0,0.481,0.05,0.693,0.151c0.214,0.1,0.401,0.239,0.558,0.415c0.158,0.177,0.28,0.381,0.367,0.612
				c0.089,0.228,0.134,0.464,0.134,0.709c0,0.337-0.083,0.651-0.248,0.942c-0.163,0.291-0.388,0.523-0.673,0.697
				c-0.283,0.171-0.594,0.257-0.934,0.257c-0.212,0-0.416-0.055-0.615-0.163c-0.198-0.108-0.363-0.253-0.493-0.432l-0.285,0.502
				H291.398z M292.006,15.007c0.092,0.204,0.225,0.371,0.4,0.501c0.174,0.128,0.367,0.192,0.579,0.192
				c0.289,0,0.521-0.083,0.697-0.248c0.179-0.166,0.304-0.375,0.375-0.628c0.07-0.252,0.106-0.519,0.106-0.799
				c0-0.47-0.061-0.827-0.184-1.072c-0.054-0.108-0.129-0.209-0.224-0.302c-0.092-0.092-0.198-0.164-0.314-0.216
				c-0.114-0.055-0.235-0.082-0.363-0.082c-0.223,0-0.43,0.06-0.62,0.179c-0.19,0.117-0.341,0.274-0.452,0.473V15.007
				L292.006,15.007z"/>
			<path id="path88" inkscape:connector-curvature="0" d="M296.199,9.892c-0.077,0-0.139-0.029-0.188-0.088
				c-0.05-0.058-0.075-0.121-0.075-0.188c0-0.068,0.024-0.13,0.075-0.189c0.049-0.058,0.112-0.088,0.188-0.088h4.056V5.27
				c0-0.072,0.027-0.13,0.081-0.175c0.054-0.05,0.119-0.074,0.195-0.074c0.068,0,0.13,0.024,0.189,0.074
				c0.058,0.045,0.087,0.103,0.087,0.175v4.07h4.056c0.067,0,0.126,0.029,0.175,0.088c0.05,0.058,0.074,0.121,0.074,0.189
				c0,0.067-0.024,0.13-0.074,0.188c-0.049,0.059-0.108,0.088-0.175,0.088h-4.056v4.07c0,0.071-0.029,0.13-0.087,0.175
				c-0.059,0.05-0.122,0.074-0.189,0.074c-0.076,0-0.141-0.024-0.195-0.074c-0.054-0.045-0.081-0.103-0.081-0.175v-4.07H296.199z"/>
			<path id="path90" inkscape:connector-curvature="0" d="M313.947,13.369c-1.128,0-1.895-0.463-2.304-1.388
				c-0.405-0.93-0.607-2.035-0.607-3.315c0-0.8,0.072-1.552,0.216-2.257c0.149-0.705,0.438-1.303,0.869-1.792
				c0.436-0.494,1.045-0.741,1.826-0.741c0.606,0,1.103,0.148,1.489,0.445c0.386,0.296,0.681,0.68,0.883,1.152
				c0.202,0.467,0.339,0.971,0.411,1.51c0.076,0.534,0.114,1.096,0.114,1.685c0,0.791-0.074,1.532-0.222,2.223
				c-0.144,0.687-0.429,1.274-0.856,1.759C315.339,13.129,314.734,13.369,313.947,13.369z M313.947,13.012
				c0.512,0,0.894-0.263,1.145-0.788c0.252-0.526,0.407-1.108,0.465-1.745c0.058-0.638,0.088-1.316,0.088-2.035
				c0-0.692-0.029-1.33-0.088-1.914c-0.058-0.584-0.213-1.112-0.465-1.584c-0.247-0.476-0.628-0.714-1.145-0.714
				c-0.521,0-0.908,0.238-1.159,0.714c-0.251,0.476-0.406,1.006-0.465,1.59c-0.058,0.579-0.088,1.215-0.088,1.907
				c0,0.512,0.011,0.995,0.034,1.448c0.027,0.454,0.095,0.923,0.202,1.409c0.108,0.48,0.281,0.887,0.519,1.219
				C313.233,12.849,313.552,13.012,313.947,13.012z"/>
			<path id="path92" inkscape:connector-curvature="0" d="M318.556,12.304c0-0.206,0.076-0.384,0.229-0.532
				c0.153-0.148,0.331-0.222,0.532-0.222c0.126,0,0.249,0.033,0.371,0.1c0.122,0.068,0.216,0.162,0.283,0.283
				c0.067,0.121,0.1,0.245,0.1,0.37c0,0.203-0.074,0.38-0.222,0.533c-0.148,0.152-0.326,0.229-0.532,0.229
				c-0.202,0-0.379-0.077-0.532-0.229C318.633,12.684,318.556,12.507,318.556,12.304z"/>
			<path id="path94" inkscape:connector-curvature="0" d="M321.912,13.066v-0.371c0-0.023,0.009-0.048,0.026-0.074l2.143-2.372
				c0.324-0.351,0.586-0.645,0.788-0.883c0.202-0.238,0.403-0.512,0.6-0.822c0.198-0.31,0.353-0.624,0.465-0.943
				c0.117-0.324,0.175-0.665,0.175-1.024c0-0.377-0.07-0.737-0.209-1.078c-0.139-0.346-0.348-0.622-0.627-0.829
				c-0.274-0.207-0.606-0.31-0.997-0.31c-0.4,0-0.76,0.121-1.078,0.364c-0.319,0.238-0.544,0.548-0.674,0.93
				c0.035-0.009,0.085-0.013,0.148-0.013c0.207,0,0.381,0.07,0.526,0.209c0.148,0.139,0.222,0.319,0.222,0.539
				c0,0.211-0.074,0.391-0.222,0.539c-0.144,0.144-0.319,0.215-0.526,0.215c-0.216,0-0.398-0.074-0.546-0.222
				c-0.144-0.153-0.216-0.33-0.216-0.532c0-0.346,0.065-0.669,0.195-0.971c0.13-0.305,0.317-0.575,0.559-0.808
				c0.247-0.238,0.524-0.42,0.828-0.546c0.31-0.126,0.638-0.188,0.984-0.188c0.526,0,1.015,0.112,1.469,0.337
				c0.453,0.22,0.813,0.535,1.077,0.943c0.265,0.405,0.398,0.878,0.398,1.422c0,0.4-0.088,0.78-0.263,1.139
				c-0.175,0.359-0.4,0.687-0.674,0.984c-0.274,0.292-0.625,0.624-1.051,0.997c-0.427,0.373-0.708,0.622-0.842,0.748l-1.564,1.502
				h1.328c0.651,0,1.195-0.004,1.631-0.013c0.44-0.014,0.674-0.031,0.701-0.054c0.108-0.117,0.218-0.542,0.331-1.274h0.404
				l-0.391,2.46H321.912z"/>
			<path id="path96" inkscape:connector-curvature="0" d="M329.533,11.409V7.602h-1.145V7.244c0.601,0,1.044-0.281,1.328-0.842
				c0.282-0.562,0.424-1.17,0.424-1.826h0.398v2.54h1.947v0.485h-1.947v3.78c0,0.382,0.063,0.716,0.189,1.004
				c0.13,0.287,0.362,0.431,0.694,0.431c0.314,0,0.541-0.15,0.68-0.451c0.139-0.306,0.209-0.633,0.209-0.984v-0.816h0.398v0.843
				c0,0.287-0.054,0.573-0.162,0.855c-0.103,0.278-0.258,0.508-0.465,0.687c-0.206,0.179-0.458,0.27-0.754,0.27
				c-0.553,0-0.99-0.164-1.314-0.492C329.693,12.397,329.533,11.957,329.533,11.409z"/>
			<path id="path98" inkscape:connector-curvature="0" d="M336.509,16.479c0-0.199,0.073-0.373,0.216-0.522
				c0.144-0.147,0.315-0.251,0.514-0.314c-0.112-0.084-0.197-0.19-0.257-0.318c-0.056-0.128-0.085-0.263-0.085-0.408
				c0-0.261,0.083-0.492,0.248-0.693c-0.255-0.25-0.383-0.537-0.383-0.86c0-0.174,0.036-0.337,0.11-0.489
				c0.076-0.152,0.181-0.284,0.314-0.396c0.133-0.111,0.281-0.196,0.444-0.253c0.163-0.06,0.33-0.09,0.502-0.09
				c0.331,0,0.629,0.097,0.892,0.289c0.114-0.122,0.249-0.216,0.403-0.281c0.158-0.068,0.321-0.102,0.489-0.102
				c0.12,0,0.218,0.043,0.294,0.13c0.077,0.084,0.114,0.186,0.114,0.305c0,0.068-0.025,0.128-0.077,0.179
				c-0.052,0.052-0.112,0.077-0.179,0.077c-0.072,0-0.132-0.025-0.184-0.077c-0.052-0.051-0.078-0.111-0.078-0.179
				c0-0.103,0.034-0.175,0.102-0.216c-0.289,0-0.536,0.1-0.743,0.298c0.101,0.101,0.181,0.224,0.241,0.371
				c0.063,0.144,0.094,0.288,0.094,0.433c0,0.236-0.065,0.45-0.196,0.64c-0.13,0.188-0.304,0.334-0.518,0.44
				c-0.212,0.103-0.43,0.155-0.656,0.155c-0.305,0-0.583-0.083-0.836-0.249c-0.078,0.109-0.119,0.231-0.119,0.368
				c0,0.147,0.048,0.276,0.143,0.387c0.098,0.108,0.22,0.163,0.367,0.163h0.685c0.332,0,0.63,0.03,0.897,0.09
				c0.267,0.06,0.489,0.179,0.669,0.359c0.182,0.179,0.273,0.433,0.273,0.763c0,0.245-0.103,0.447-0.31,0.607
				c-0.206,0.163-0.453,0.28-0.741,0.351c-0.286,0.073-0.551,0.11-0.795,0.11c-0.247,0-0.515-0.036-0.803-0.11
				c-0.288-0.071-0.536-0.188-0.743-0.351C336.613,16.925,336.509,16.723,336.509,16.479z M336.978,16.479
				c0,0.187,0.077,0.344,0.228,0.468c0.152,0.128,0.336,0.221,0.551,0.282c0.215,0.062,0.416,0.093,0.607,0.093
				c0.188,0,0.389-0.031,0.603-0.093c0.214-0.06,0.397-0.154,0.546-0.282c0.152-0.125,0.228-0.282,0.228-0.468
				c0-0.291-0.133-0.48-0.399-0.567c-0.266-0.084-0.59-0.127-0.97-0.127h-0.685c-0.127,0-0.246,0.03-0.354,0.09
				c-0.107,0.062-0.192,0.148-0.257,0.257C337.01,16.244,336.978,16.359,336.978,16.479z M338.132,14.375
				c0.473,0,0.709-0.337,0.709-1.011c0-0.291-0.05-0.531-0.151-0.717c-0.1-0.191-0.287-0.286-0.558-0.286
				c-0.272,0-0.458,0.095-0.559,0.286c-0.1,0.187-0.151,0.426-0.151,0.717c0,0.184,0.019,0.352,0.058,0.501
				c0.038,0.15,0.108,0.272,0.212,0.367C337.794,14.328,337.941,14.375,338.132,14.375z"/>
			<path id="path100" inkscape:connector-curvature="0" d="M344.277,9.892c-0.076,0-0.139-0.029-0.188-0.088
				c-0.05-0.058-0.074-0.121-0.074-0.188c0-0.068,0.024-0.13,0.074-0.189c0.049-0.058,0.112-0.088,0.188-0.088h4.056V5.27
				c0-0.072,0.028-0.13,0.082-0.175c0.054-0.05,0.119-0.074,0.195-0.074c0.067,0,0.13,0.024,0.189,0.074
				c0.058,0.045,0.088,0.103,0.088,0.175v4.07h4.056c0.067,0,0.125,0.029,0.175,0.088c0.05,0.058,0.074,0.121,0.074,0.189
				c0,0.067-0.024,0.13-0.074,0.188c-0.049,0.059-0.108,0.088-0.175,0.088h-4.056v4.07c0,0.071-0.029,0.13-0.088,0.175
				c-0.058,0.05-0.122,0.074-0.189,0.074c-0.076,0-0.141-0.024-0.195-0.074c-0.054-0.045-0.082-0.103-0.082-0.175v-4.07H344.277z"/>
			<path id="path102" inkscape:connector-curvature="0" d="M362.025,13.369c-1.127,0-1.895-0.463-2.304-1.388
				c-0.404-0.93-0.606-2.035-0.606-3.315c0-0.8,0.072-1.552,0.216-2.257c0.149-0.705,0.438-1.303,0.869-1.792
				c0.436-0.494,1.044-0.741,1.826-0.741c0.607,0,1.103,0.148,1.49,0.445c0.386,0.296,0.68,0.68,0.882,1.152
				c0.203,0.467,0.34,0.971,0.411,1.51c0.076,0.534,0.114,1.096,0.114,1.685c0,0.791-0.074,1.532-0.222,2.223
				c-0.144,0.687-0.429,1.274-0.855,1.759C363.418,13.129,362.812,13.369,362.025,13.369z M362.025,13.012
				c0.512,0,0.894-0.263,1.146-0.788c0.251-0.526,0.407-1.108,0.465-1.745c0.059-0.638,0.088-1.316,0.088-2.035
				c0-0.692-0.029-1.33-0.088-1.914c-0.058-0.584-0.213-1.112-0.465-1.584c-0.246-0.476-0.629-0.714-1.146-0.714
				c-0.521,0-0.907,0.238-1.158,0.714c-0.251,0.476-0.407,1.006-0.465,1.59c-0.059,0.579-0.088,1.215-0.088,1.907
				c0,0.512,0.011,0.995,0.034,1.448c0.026,0.454,0.094,0.923,0.202,1.409c0.108,0.48,0.281,0.887,0.519,1.219
				C361.311,12.849,361.63,13.012,362.025,13.012z"/>
			<path id="path104" inkscape:connector-curvature="0" d="M366.635,12.304c0-0.206,0.076-0.384,0.229-0.532
				s0.331-0.222,0.532-0.222c0.125,0,0.25,0.033,0.37,0.1c0.122,0.068,0.216,0.162,0.283,0.283c0.068,0.121,0.101,0.245,0.101,0.37
				c0,0.203-0.074,0.38-0.223,0.533c-0.148,0.152-0.326,0.229-0.532,0.229c-0.202,0-0.38-0.077-0.532-0.229
				C366.711,12.684,366.635,12.507,366.635,12.304z"/>
			<path id="path106" inkscape:connector-curvature="0" d="M370.583,13.066v-0.485c1.15,0,1.725-0.146,1.725-0.438V4.899
				c-0.476,0.229-1.078,0.344-1.806,0.344V4.758c1.127,0,1.979-0.294,2.554-0.882h0.195c0.031,0,0.061,0.013,0.088,0.04
				c0.031,0.023,0.048,0.05,0.048,0.081v8.147c0,0.292,0.574,0.438,1.725,0.438v0.485H370.583z"/>
			<path id="path108" inkscape:connector-curvature="0" d="M377.611,11.409V7.602h-1.145V7.244c0.601,0,1.044-0.281,1.327-0.842
				c0.283-0.562,0.425-1.17,0.425-1.826h0.397v2.54h1.948v0.485h-1.948v3.78c0,0.382,0.063,0.716,0.189,1.004
				c0.13,0.287,0.361,0.431,0.694,0.431c0.315,0,0.542-0.15,0.681-0.451c0.139-0.306,0.208-0.633,0.208-0.984v-0.816h0.398v0.843
				c0,0.287-0.054,0.573-0.162,0.855c-0.103,0.278-0.258,0.508-0.465,0.687c-0.206,0.179-0.458,0.27-0.754,0.27
				c-0.553,0-0.991-0.164-1.315-0.492C377.771,12.397,377.611,11.957,377.611,11.409z"/>
			<path id="path110" inkscape:connector-curvature="0" d="M383.604,15.92c-0.329,0-0.628-0.088-0.901-0.265
				c-0.272-0.179-0.484-0.414-0.636-0.705c-0.149-0.291-0.224-0.6-0.224-0.926c0-0.337,0.082-0.649,0.245-0.937
				c0.166-0.291,0.39-0.522,0.673-0.694c0.283-0.171,0.594-0.257,0.934-0.257c0.203,0,0.396,0.043,0.578,0.13
				c0.182,0.085,0.34,0.203,0.473,0.354v-1.736c0-0.15-0.023-0.257-0.069-0.322c-0.043-0.068-0.107-0.109-0.192-0.122
				c-0.082-0.016-0.21-0.024-0.387-0.024v-0.294l1.235-0.09v5.034c0.001,0.147,0.023,0.255,0.065,0.322
				c0.046,0.065,0.11,0.106,0.192,0.122c0.084,0.014,0.214,0.021,0.391,0.021v0.294l-1.259,0.093v-0.526
				c-0.144,0.166-0.315,0.295-0.514,0.388C384.01,15.874,383.809,15.92,383.604,15.92z M382.753,15.1
				c0.095,0.183,0.222,0.328,0.379,0.437c0.161,0.109,0.335,0.163,0.522,0.163c0.231,0,0.443-0.066,0.636-0.199
				c0.193-0.134,0.337-0.306,0.433-0.518V12.98c-0.065-0.122-0.148-0.231-0.249-0.326c-0.098-0.098-0.209-0.172-0.334-0.224
				c-0.122-0.051-0.253-0.077-0.391-0.077c-0.291,0-0.524,0.083-0.701,0.248c-0.177,0.163-0.3,0.373-0.371,0.628
				c-0.07,0.255-0.105,0.523-0.105,0.803c0,0.223,0.011,0.417,0.033,0.583C382.626,14.782,382.677,14.943,382.753,15.1L382.753,15.1
				z"/>
			<path id="path112" inkscape:connector-curvature="0" d="M387.066,15.826v-4.941c0-0.15-0.023-0.257-0.069-0.322
				c-0.044-0.068-0.107-0.109-0.192-0.122c-0.084-0.016-0.214-0.024-0.391-0.024v-0.294l1.236-0.09v2.613
				c0.092-0.103,0.199-0.193,0.322-0.27c0.125-0.078,0.258-0.138,0.4-0.179c0.142-0.04,0.285-0.061,0.432-0.061
				c0.25,0,0.481,0.05,0.693,0.151c0.215,0.1,0.401,0.239,0.559,0.415c0.157,0.177,0.28,0.381,0.367,0.612
				c0.09,0.228,0.134,0.464,0.134,0.709c0,0.337-0.083,0.651-0.248,0.942c-0.163,0.291-0.388,0.523-0.673,0.697
				c-0.282,0.171-0.594,0.257-0.933,0.257c-0.212,0-0.417-0.055-0.616-0.163c-0.198-0.108-0.362-0.253-0.493-0.432l-0.285,0.502
				H387.066z M387.674,15.007c0.092,0.204,0.225,0.371,0.399,0.501c0.174,0.128,0.367,0.192,0.579,0.192
				c0.288,0,0.52-0.083,0.697-0.248c0.179-0.166,0.304-0.375,0.375-0.628c0.071-0.252,0.106-0.519,0.106-0.799
				c0-0.47-0.061-0.827-0.183-1.072c-0.055-0.108-0.129-0.209-0.225-0.302c-0.092-0.092-0.197-0.164-0.314-0.216
				c-0.114-0.055-0.235-0.082-0.363-0.082c-0.223,0-0.43,0.06-0.62,0.179c-0.19,0.117-0.341,0.274-0.452,0.473V15.007z"/>
		</g>
		<g id="text3630">
		</g>
		<g id="text3632">
		</g>
		<g id="text3634">
		</g>
		<g id="text3636">
		</g>
		<g id="text3638">
		</g>
		<g id="text3640">
		</g>
		<g id="text3642">
		</g>
		<g id="text3644">
		</g>
		<g id="text3646">
		</g>
		<g id="text3648">
		</g>
		<g id="text3650">
		</g>
		<g id="text3652">
		</g>
		<g id="text3654">
		</g>
		<g id="text3656">
		</g>
	</g>
</g>
</svg>
