<?xml version="1.0" encoding="UTF-8" standalone="no"?>
<!-- Created with Inkscape (http://www.inkscape.org/) -->

<svg
   xmlns:dc="http://purl.org/dc/elements/1.1/"
   xmlns:cc="http://creativecommons.org/ns#"
   xmlns:rdf="http://www.w3.org/1999/02/22-rdf-syntax-ns#"
   xmlns:svg="http://www.w3.org/2000/svg"
   xmlns="http://www.w3.org/2000/svg"
   xmlns:sodipodi="http://sodipodi.sourceforge.net/DTD/sodipodi-0.dtd"
   xmlns:inkscape="http://www.inkscape.org/namespaces/inkscape"
   version="1.2"
   width="320"
   height="60"
   id="svg3020"
   inkscape:version="0.48.3.1 r9886"
   sodipodi:docname="eqn_conv_05.svg">
  <sodipodi:namedview
     pagecolor="#ffffff"
     bordercolor="#666666"
     borderopacity="1"
     objecttolerance="10"
     gridtolerance="10"
     guidetolerance="10"
     inkscape:pageopacity="0"
     inkscape:pageshadow="2"
     inkscape:window-width="640"
     inkscape:window-height="480"
     id="namedview4403"
     showgrid="false"
     inkscape:zoom="0.871875"
     inkscape:cx="160"
     inkscape:cy="30"
     inkscape:window-x="0"
     inkscape:window-y="0"
     inkscape:window-maximized="0"
     inkscape:current-layer="svg3020" />
  <metadata
     id="metadata3026">
    <rdf:RDF>
      <cc:Work
         rdf:about="">
        <dc:format>image/svg+xml</dc:format>
        <dc:type
           rdf:resource="http://purl.org/dc/dcmitype/StillImage" />
        <dc:title />
      </cc:Work>
    </rdf:RDF>
  </metadata>
  <defs
     id="defs3024" />
  <text
     x="44.56657"
     y="42.23513"
     transform="scale(0.95814898,1.043679)"
     id="text3030"
     xml:space="preserve"
     style="font-size:41.02812958px;font-style:normal;font-variant:normal;font-weight:normal;font-stretch:normal;line-height:125%;letter-spacing:0px;word-spacing:0px;fill:#000000;fill-opacity:1;stroke:none;font-family:Cambria Math;-inkscape-font-specification:Cambria Math"><tspan
       x="44.56657"
       y="42.23513"
       id="tspan3032" /></text>
  <g
     id="text6486"
     style="font-size:24px;font-style:normal;font-variant:normal;font-weight:normal;font-stretch:normal;text-align:center;line-height:125%;letter-spacing:0px;word-spacing:0px;text-anchor:middle;fill:#ffffff;fill-opacity:1;stroke:none;font-family:cmr10;-inkscape-font-specification:cmr10">
    <path
       d="m 95.374329,38.179211 0,-0.84375 c 0.804682,10e-7 1.585931,-0.04492 2.34375,-0.134766 0.757805,-0.08984 1.136711,-0.298827 1.136718,-0.626953 l 0,-13.183594 c -7e-6,-0.343735 -0.09571,-0.556625 -0.287109,-0.638672 -0.191413,-0.08202 -0.50196,-0.123031 -0.931641,-0.123047 l -1.007812,0 c -1.320317,1.6e-5 -2.257816,0.289078 -2.8125,0.867188 -0.289065,0.289077 -0.496096,0.751967 -0.621094,1.388672 -0.125002,0.636731 -0.23047,1.435559 -0.316406,2.396484 l -0.691406,0 0.457031,-5.496094 14.66016,0 0.45703,5.496094 -0.70313,0 c -0.0938,-1.031238 -0.19728,-1.849596 -0.31054,-2.455078 -0.1133,-0.605455 -0.31838,-1.048814 -0.61524,-1.330078 -0.56251,-0.57811 -1.50001,-0.867172 -2.8125,-0.867188 l -1.00781,0 c -0.28907,1.6e-5 -0.51368,0.01173 -0.67383,0.03516 -0.16017,0.02345 -0.29103,0.09181 -0.39258,0.205078 -0.10157,0.113296 -0.15235,0.287124 -0.15234,0.521484 l 0,13.183594 c -1e-5,0.328126 0.37889,0.53711 1.13672,0.626953 0.7578,0.08984 1.53514,0.134767 2.33203,0.134766 l 0,0.84375 z"
       id="path6509"
       style="fill:#ffffff;stroke:none" />
    <path
       d="m 114.63995,38.448742 c -0.97656,0 -1.87305,-0.255859 -2.68945,-0.767578 -0.81641,-0.511718 -1.45703,-1.195311 -1.92187,-2.050781 -0.46485,-0.855466 -0.69727,-1.759762 -0.69727,-2.712891 0,-0.937494 0.21289,-1.828118 0.63867,-2.671875 0.42578,-0.843741 1.01953,-1.525381 1.78125,-2.044922 0.76172,-0.519521 1.61133,-0.779286 2.54883,-0.779297 0.73437,1.1e-5 1.37304,0.123058 1.91602,0.369141 0.54296,0.246104 0.99022,0.5879 1.34179,1.02539 0.35156,0.437509 0.61718,0.953134 0.79688,1.546875 0.17967,0.593758 0.26952,1.246101 0.26953,1.957032 -1e-5,0.210943 -0.082,0.316411 -0.2461,0.316406 l -6.94921,0 0,0.257812 c -10e-6,1.328129 0.26757,2.468753 0.80273,3.421875 0.53515,0.953126 1.4082,1.429688 2.61914,1.429688 0.49218,0 0.94726,-0.109375 1.36524,-0.328125 0.41796,-0.218749 0.78124,-0.523436 1.08984,-0.914063 0.30858,-0.390623 0.51757,-0.808591 0.62695,-1.253906 0.0156,-0.05468 0.0449,-0.103512 0.0879,-0.146484 0.043,-0.04297 0.0918,-0.06445 0.14649,-0.06445 l 0.21093,0 c 0.16406,3e-6 0.24609,0.101565 0.2461,0.304687 -0.22657,0.906252 -0.71485,1.650392 -1.46485,2.232422 -0.75,0.582031 -1.58985,0.873047 -2.51953,0.873047 z m -3.1875,-6.410156 5.47266,0 c -1e-5,-0.601556 -0.084,-1.21093 -0.25195,-1.828125 -0.16798,-0.617179 -0.44728,-1.130851 -0.83789,-1.541016 -0.39064,-0.410146 -0.90235,-0.615224 -1.53516,-0.615234 -0.90625,10e-6 -1.60743,0.423837 -2.10352,1.271484 -0.49609,0.847664 -0.74414,1.75196 -0.74414,2.712891 z"
       id="path6511"
       style="fill:#ffffff;stroke:none" />
    <path
       d="m 120.01886,38.179211 0,-0.84375 c 0.54687,10e-7 0.99609,-0.04297 1.34766,-0.128907 0.35156,-0.08594 0.52734,-0.296873 0.52734,-0.632812 l 0,-6.550781 c 0,-0.429679 -0.0645,-0.740226 -0.19336,-0.931641 -0.12891,-0.191397 -0.31445,-0.308584 -0.55664,-0.351562 -0.24219,-0.04296 -0.61719,-0.06444 -1.125,-0.06445 l 0,-0.84375 3.48047,-0.257812 0,2.34375 c 0.32031,-0.687491 0.79492,-1.249991 1.42383,-1.6875 0.6289,-0.43749 1.31444,-0.656239 2.05664,-0.65625 1.84374,1.1e-5 2.92577,0.75001 3.24609,2.25 0.3203,-0.671866 0.78905,-1.214834 1.40625,-1.628906 0.61718,-0.414052 1.29296,-0.621083 2.02734,-0.621094 0.72655,1.1e-5 1.33788,0.117198 1.83399,0.351562 0.49608,0.234385 0.86912,0.591807 1.11914,1.072266 0.24998,0.480477 0.37498,1.083993 0.375,1.810547 l 0,5.765625 c -2e-5,0.335939 0.17772,0.546876 0.5332,0.632812 0.35545,0.08594 0.80272,0.128908 1.3418,0.128907 l 0,0.84375 -5.49609,0 0,-0.84375 c 0.54686,10e-7 0.99607,-0.04297 1.34765,-0.128907 0.35155,-0.08594 0.52733,-0.296873 0.52735,-0.632812 l 0,-5.695313 c -2e-5,-0.804679 -0.1133,-1.453116 -0.33985,-1.945312 -0.22658,-0.492178 -0.69142,-0.738271 -1.39453,-0.738281 -0.92189,10e-6 -1.68361,0.371103 -2.28516,1.113281 -0.60157,0.742196 -0.90235,1.585945 -0.90234,2.53125 l 0,4.734375 c -1e-5,0.335939 0.17577,0.546876 0.52734,0.632812 0.35156,0.08594 0.80077,0.128908 1.34766,0.128907 l 0,0.84375 -5.49609,0 0,-0.84375 c 0.54686,10e-7 0.99608,-0.04297 1.34765,-0.128907 0.35156,-0.08594 0.52734,-0.296873 0.52735,-0.632812 l 0,-5.695313 c -1e-5,-0.781242 -0.11329,-1.423819 -0.33985,-1.927734 -0.22657,-0.503896 -0.69141,-0.755849 -1.39453,-0.755859 -0.92969,10e-6 -1.69336,0.371103 -2.29101,1.113281 -0.59766,0.742196 -0.89649,1.585945 -0.89649,2.53125 l 0,4.734375 c 0,0.335939 0.17578,0.546876 0.52735,0.632812 0.35155,0.08594 0.79687,0.128908 1.33593,0.128907 l 0,0.84375 z"
       id="path6513"
       style="fill:#ffffff;stroke:none" />
    <path
       d="m 139.94073,42.831554 0,-0.832031 c 0.54688,-4e-6 0.9961,-0.04688 1.34766,-0.140625 0.35156,-0.09375 0.52734,-0.304691 0.52734,-0.632812 l 0,-11.566407 c 0,-0.437491 -0.15625,-0.710928 -0.46875,-0.820312 -0.3125,-0.109366 -0.78125,-0.164053 -1.40625,-0.164063 l 0,-0.84375 3.55079,-0.257812 0,1.488281 c 0.43749,-0.484365 0.94726,-0.853505 1.52929,-1.107422 0.58203,-0.253895 1.20117,-0.380848 1.85742,-0.380859 0.94531,1.1e-5 1.79687,0.25587 2.55469,0.767578 0.7578,0.511728 1.3496,1.183602 1.77539,2.015625 0.42577,0.832038 0.63866,1.712897 0.63867,2.642578 -1e-5,0.968754 -0.23634,1.871097 -0.70898,2.707031 -0.47267,0.83594 -1.1172,1.501955 -1.93359,1.998047 -0.81642,0.496094 -1.7129,0.744141 -2.68946,0.744141 -1.16406,0 -2.14844,-0.472656 -2.95312,-1.417969 l 0,4.195313 c -10e-6,0.328121 0.17773,0.539059 0.5332,0.632812 0.35547,0.09375 0.80273,0.140621 1.3418,0.140625 l 0,0.832031 z m 3.6211,-6.984375 c 0.28124,0.570315 0.67187,1.041017 1.17187,1.41211 0.5,0.371094 1.04687,0.556641 1.64063,0.55664 0.55468,1e-6 1.04491,-0.148437 1.4707,-0.445312 0.42577,-0.296874 0.7832,-0.695311 1.07227,-1.195313 0.28905,-0.499997 0.50194,-1.025387 0.63867,-1.576171 0.13671,-0.550778 0.20507,-1.08398 0.20508,-1.59961 -1e-5,-0.640619 -0.11525,-1.333978 -0.34571,-2.080078 -0.23047,-0.746086 -0.58204,-1.374991 -1.05468,-1.886719 -0.47267,-0.511709 -1.04493,-0.767568 -1.7168,-0.767578 -0.64844,10e-6 -1.24415,0.166026 -1.78711,0.498047 -0.54297,0.33204 -0.97461,0.783212 -1.29492,1.353516 z"
       id="path6515"
       style="fill:#ffffff;stroke:none" />
    <path
       d="m 158.6087,38.448742 c -0.97656,0 -1.87305,-0.255859 -2.68945,-0.767578 -0.81641,-0.511718 -1.45703,-1.195311 -1.92187,-2.050781 -0.46485,-0.855466 -0.69727,-1.759762 -0.69727,-2.712891 0,-0.937494 0.21289,-1.828118 0.63867,-2.671875 0.42578,-0.843741 1.01953,-1.525381 1.78125,-2.044922 0.76172,-0.519521 1.61133,-0.779286 2.54883,-0.779297 0.73437,1.1e-5 1.37304,0.123058 1.91602,0.369141 0.54296,0.246104 0.99022,0.5879 1.34179,1.02539 0.35156,0.437509 0.61718,0.953134 0.79688,1.546875 0.17967,0.593758 0.26952,1.246101 0.26953,1.957032 -10e-6,0.210943 -0.082,0.316411 -0.2461,0.316406 l -6.94921,0 0,0.257812 c -1e-5,1.328129 0.26757,2.468753 0.80273,3.421875 0.53515,0.953126 1.4082,1.429688 2.61914,1.429688 0.49218,0 0.94726,-0.109375 1.36524,-0.328125 0.41796,-0.218749 0.78124,-0.523436 1.08984,-0.914063 0.30858,-0.390623 0.51757,-0.808591 0.62695,-1.253906 0.0156,-0.05468 0.0449,-0.103512 0.0879,-0.146484 0.043,-0.04297 0.0918,-0.06445 0.14649,-0.06445 l 0.21093,0 c 0.16406,3e-6 0.24609,0.101565 0.2461,0.304687 -0.22657,0.906252 -0.71485,1.650392 -1.46485,2.232422 -0.75,0.582031 -1.58985,0.873047 -2.51953,0.873047 z m -3.1875,-6.410156 5.47266,0 c -1e-5,-0.601556 -0.084,-1.21093 -0.25195,-1.828125 -0.16798,-0.617179 -0.44728,-1.130851 -0.83789,-1.541016 -0.39064,-0.410146 -0.90235,-0.615224 -1.53516,-0.615234 -0.90625,10e-6 -1.60743,0.423837 -2.10352,1.271484 -0.49609,0.847664 -0.74414,1.75196 -0.74414,2.712891 z"
       id="path6517"
       style="fill:#ffffff;stroke:none" />
    <path
       d="m 163.89386,38.179211 0,-0.84375 c 0.54687,10e-7 0.99609,-0.04297 1.34766,-0.128907 0.35156,-0.08594 0.52734,-0.296873 0.52734,-0.632812 l 0,-6.550781 c 0,-0.429679 -0.0645,-0.740226 -0.19336,-0.931641 -0.12891,-0.191397 -0.31445,-0.308584 -0.55664,-0.351562 -0.24219,-0.04296 -0.61719,-0.06444 -1.125,-0.06445 l 0,-0.84375 3.43359,-0.257812 0,2.34375 c 0.25781,-0.695304 0.625,-1.259756 1.10157,-1.693359 0.47655,-0.433584 1.05468,-0.65038 1.73437,-0.650391 0.47656,1.1e-5 0.90234,0.140635 1.27734,0.421875 0.375,0.28126 0.5625,0.652353 0.5625,1.113281 0,0.289071 -0.10352,0.541024 -0.31054,0.75586 -0.20704,0.214851 -0.4629,0.322273 -0.76758,0.322265 -0.29688,8e-6 -0.55079,-0.10546 -0.76172,-0.316406 -0.21094,-0.210929 -0.31641,-0.464835 -0.31641,-0.761719 0,-0.429678 0.15234,-0.734365 0.45704,-0.914062 l -0.14063,0 c -0.64844,10e-6 -1.17774,0.234384 -1.58789,0.703125 -0.41016,0.468758 -0.70118,1.050789 -0.87305,1.746093 -0.17188,0.69532 -0.25781,1.359382 -0.25781,1.992188 l 0,3.9375 c 0,0.507814 0.77734,0.76172 2.33203,0.761719 l 0,0.84375 z"
       id="path6519"
       style="fill:#ffffff;stroke:none" />
    <path
       d="m 173.6087,35.823742 c 0,-0.953122 0.375,-1.728512 1.125,-2.326172 0.75,-0.597651 1.65039,-1.019526 2.70118,-1.265625 1.05077,-0.246088 2.04882,-0.369134 2.99414,-0.369141 l 0,-0.984375 c -1e-5,-0.460929 -0.10157,-0.908195 -0.30469,-1.341796 -0.20313,-0.433585 -0.4961,-0.789054 -0.87891,-1.066407 -0.38282,-0.277333 -0.80469,-0.416005 -1.26562,-0.416015 -1.06251,10e-6 -1.8711,0.238291 -2.42578,0.714843 0.30468,10e-6 0.55663,0.115244 0.75586,0.345704 0.19921,0.230477 0.29882,0.498055 0.29882,0.802734 0,0.32032 -0.11328,0.593758 -0.33984,0.820312 -0.22657,0.22657 -0.4961,0.339851 -0.80859,0.339844 -0.32032,7e-6 -0.59376,-0.113274 -0.82032,-0.339844 -0.22656,-0.226554 -0.33984,-0.499992 -0.33984,-0.820312 0,-0.843741 0.38281,-1.470693 1.14844,-1.880859 0.76562,-0.410146 1.60937,-0.615224 2.53125,-0.615235 0.64843,1.1e-5 1.30077,0.138683 1.95703,0.416016 0.65624,0.277354 1.19335,0.673838 1.61133,1.189453 0.41796,0.515634 0.62694,1.117195 0.62695,1.804687 l 0,5.402344 c -1e-5,0.312502 0.0664,0.599611 0.19922,0.861328 0.1328,0.26172 0.33983,0.392579 0.62109,0.392578 0.26562,1e-6 0.46288,-0.132811 0.5918,-0.398437 0.12889,-0.265624 0.19335,-0.55078 0.19336,-0.855469 l 0,-1.535156 0.70312,0 0,1.535156 c -1e-5,0.359377 -0.0938,0.701173 -0.28125,1.025391 -0.18751,0.324219 -0.43946,0.582031 -0.75586,0.773437 -0.31641,0.191406 -0.65821,0.28711 -1.02539,0.28711 -0.46876,0 -0.87305,-0.181641 -1.21289,-0.544922 -0.33985,-0.363281 -0.5293,-0.794921 -0.56836,-1.294922 -0.29688,0.601564 -0.73438,1.080079 -1.3125,1.435547 -0.57813,0.355468 -1.19531,0.533203 -1.85156,0.533203 -0.60938,0 -1.20899,-0.08984 -1.79883,-0.269531 -0.58984,-0.179688 -1.08203,-0.46289 -1.47656,-0.84961 -0.39453,-0.386717 -0.5918,-0.88867 -0.5918,-1.505859 z m 1.94532,0 c -1e-5,0.562502 0.20702,1.035157 0.62109,1.417969 0.41406,0.382813 0.90234,0.574219 1.46484,0.574218 0.51562,1e-6 0.98437,-0.128905 1.40625,-0.386718 0.42187,-0.257812 0.75781,-0.609374 1.00782,-1.054688 0.24999,-0.44531 0.37499,-0.91406 0.375,-1.40625 l 0,-2.496094 c -0.72657,6e-6 -1.47071,0.119147 -2.23243,0.357422 -0.76172,0.238287 -1.39258,0.611333 -1.89257,1.119141 -0.50001,0.507816 -0.75001,1.132816 -0.75,1.875 z"
       id="path6521"
       style="fill:#ffffff;stroke:none" />
    <path
       d="m 187.09698,35.296398 0,-6.621094 -1.99218,0 0,-0.621093 c 1.04687,10e-6 1.8164,-0.488271 2.30859,-1.464844 0.49219,-0.97655 0.73828,-2.035143 0.73828,-3.175781 l 0.69141,0 0,4.417968 3.38672,0 0,0.84375 -3.38672,0 0,6.574219 c -10e-6,0.664065 0.11132,1.246096 0.33398,1.746094 0.22265,0.500001 0.62304,0.75 1.20117,0.75 0.54687,0 0.9414,-0.263671 1.1836,-0.791016 0.24218,-0.527342 0.36327,-1.095701 0.36328,-1.705078 l 0,-1.417969 0.69141,0 0,1.464844 c -1e-5,0.500003 -0.0918,0.994143 -0.27539,1.482422 -0.18361,0.488282 -0.45509,0.888672 -0.81446,1.201172 -0.35938,0.3125 -0.79688,0.46875 -1.3125,0.46875 -0.96094,0 -1.7207,-0.287109 -2.27929,-0.861328 -0.5586,-0.574218 -0.8379,-1.337889 -0.8379,-2.291016 z"
       id="path6523"
       style="fill:#ffffff;stroke:none" />
    <path
       d="m 196.56573,35.319836 0,-5.296875 c 0,-0.429679 -0.0644,-0.740226 -0.19335,-0.931641 -0.12891,-0.191397 -0.31446,-0.308584 -0.55665,-0.351562 -0.24218,-0.04296 -0.61718,-0.06444 -1.125,-0.06445 l 0,-0.84375 3.63282,-0.257812 0,7.746094 c -1e-5,0.625002 0.0449,1.11133 0.13476,1.458984 0.0898,0.347657 0.28125,0.607423 0.57422,0.779297 0.29297,0.171875 0.75976,0.257813 1.40039,0.257812 0.85937,10e-7 1.54296,-0.359374 2.05078,-1.078125 0.50781,-0.718747 0.76171,-1.535153 0.76172,-2.449218 l 0,-4.265625 c -1e-5,-0.429679 -0.0664,-0.740226 -0.19922,-0.931641 -0.13282,-0.191397 -0.31836,-0.308584 -0.55664,-0.351562 -0.23829,-0.04296 -0.61133,-0.06444 -1.11914,-0.06445 l 0,-0.84375 3.6211,-0.257812 0,8.425781 c -1e-5,0.421877 0.0644,0.728517 0.19336,0.919922 0.12889,0.191407 0.31444,0.308595 0.55664,0.351563 0.24217,0.04297 0.61717,0.06445 1.125,0.06445 l 0,0.84375 -3.55079,0.269531 0,-2.027344 c -0.29688,0.601564 -0.71094,1.089845 -1.24218,1.464844 -0.53126,0.375 -1.1172,0.5625 -1.75782,0.5625 -1.14844,0 -2.06055,-0.244141 -2.73632,-0.732422 -0.67579,-0.48828 -1.01368,-1.287108 -1.01368,-2.396484 z"
       id="path6525"
       style="fill:#ffffff;stroke:none" />
    <path
       d="m 207.90948,38.179211 0,-0.84375 c 0.54688,10e-7 0.9961,-0.04297 1.34766,-0.128907 0.35156,-0.08594 0.52734,-0.296873 0.52734,-0.632812 l 0,-6.550781 c 0,-0.429679 -0.0644,-0.740226 -0.19335,-0.931641 -0.12891,-0.191397 -0.31446,-0.308584 -0.55665,-0.351562 -0.24218,-0.04296 -0.61718,-0.06444 -1.125,-0.06445 l 0,-0.84375 3.4336,-0.257812 0,2.34375 c 0.25781,-0.695304 0.62499,-1.259756 1.10156,-1.693359 0.47656,-0.433584 1.05468,-0.65038 1.73438,-0.650391 0.47655,1.1e-5 0.90233,0.140635 1.27734,0.421875 0.37499,0.28126 0.56249,0.652353 0.5625,1.113281 -1e-5,0.289071 -0.10352,0.541024 -0.31055,0.75586 -0.20704,0.214851 -0.4629,0.322273 -0.76758,0.322265 -0.29688,8e-6 -0.55078,-0.10546 -0.76171,-0.316406 -0.21095,-0.210929 -0.31642,-0.464835 -0.31641,-0.761719 -1e-5,-0.429678 0.15234,-0.734365 0.45703,-0.914062 l -0.14062,0 c -0.64845,10e-6 -1.17774,0.234384 -1.58789,0.703125 -0.41017,0.468758 -0.70118,1.050789 -0.87305,1.746093 -0.17188,0.69532 -0.25782,1.359382 -0.25781,1.992188 l 0,3.9375 c -1e-5,0.507814 0.77733,0.76172 2.33203,0.761719 l 0,0.84375 z"
       id="path6527"
       style="fill:#ffffff;stroke:none" />
    <path
       d="m 222.63995,38.448742 c -0.97656,0 -1.87305,-0.255859 -2.68945,-0.767578 -0.81641,-0.511718 -1.45703,-1.195311 -1.92187,-2.050781 -0.46485,-0.855466 -0.69727,-1.759762 -0.69727,-2.712891 0,-0.937494 0.21289,-1.828118 0.63867,-2.671875 0.42578,-0.843741 1.01953,-1.525381 1.78125,-2.044922 0.76172,-0.519521 1.61133,-0.779286 2.54883,-0.779297 0.73437,1.1e-5 1.37304,0.123058 1.91602,0.369141 0.54296,0.246104 0.99022,0.5879 1.34179,1.02539 0.35156,0.437509 0.61718,0.953134 0.79688,1.546875 0.17967,0.593758 0.26952,1.246101 0.26953,1.957032 -10e-6,0.210943 -0.082,0.316411 -0.2461,0.316406 l -6.94921,0 0,0.257812 c -1e-5,1.328129 0.26757,2.468753 0.80273,3.421875 0.53515,0.953126 1.4082,1.429688 2.61914,1.429688 0.49218,0 0.94726,-0.109375 1.36524,-0.328125 0.41796,-0.218749 0.78124,-0.523436 1.08984,-0.914063 0.30858,-0.390623 0.51757,-0.808591 0.62695,-1.253906 0.0156,-0.05468 0.0449,-0.103512 0.0879,-0.146484 0.043,-0.04297 0.0918,-0.06445 0.14649,-0.06445 l 0.21093,0 c 0.16406,3e-6 0.24609,0.101565 0.2461,0.304687 -0.22657,0.906252 -0.71485,1.650392 -1.46485,2.232422 -0.75,0.582031 -1.58985,0.873047 -2.51953,0.873047 z m -3.1875,-6.410156 5.47266,0 c -1e-5,-0.601556 -0.084,-1.21093 -0.25195,-1.828125 -0.16798,-0.617179 -0.44728,-1.130851 -0.83789,-1.541016 -0.39064,-0.410146 -0.90235,-0.615224 -1.53516,-0.615234 -0.90625,10e-6 -1.60743,0.423837 -2.10352,1.271484 -0.49609,0.847664 -0.74414,1.75196 -0.74414,2.712891 z"
       id="path6529"
       style="fill:#ffffff;stroke:none" />
  </g>
</svg>
