<?xml version="1.0" encoding="utf-8"?>
<!-- Generator: Adobe Illustrator 16.0.0, SVG Export Plug-In . SVG Version: 6.00 Build 0)  -->
<!DOCTYPE svg PUBLIC "-//W3C//DTD SVG 1.1//EN" "http://www.w3.org/Graphics/SVG/1.1/DTD/svg11.dtd">
<svg version="1.1"
	 id="svg3020" xmlns:dc="http://purl.org/dc/elements/1.1/" xmlns:cc="http://creativecommons.org/ns#" xmlns:rdf="http://www.w3.org/1999/02/22-rdf-syntax-ns#" xmlns:svg="http://www.w3.org/2000/svg" xmlns:inkscape="http://www.inkscape.org/namespaces/inkscape"
	 xmlns="http://www.w3.org/2000/svg" xmlns:xlink="http://www.w3.org/1999/xlink" x="0px" y="0px" width="320px" height="60px"
	 viewBox="0 0 320 60" enable-background="new 0 0 320 60" xml:space="preserve">
<g id="text3030" transform="scale(0.95814898,1.043679)">
</g>
<g id="g3009" transform="matrix(1.4688253,0,0,1.4688253,-277.70507,-0.75165246)">
	<g id="flowRoot3055" transform="matrix(0.68081616,0,0,0.68081616,189.0661,0.51173714)">
	</g>
	<g id="flowRoot3063" transform="matrix(0.68081616,0,0,0.68081616,189.0661,0.51173714)">
	</g>
	<g id="g3361" transform="matrix(1.4109689,0,0,1.4109689,-110.711,7.5942608)">
		<g id="text3363">
			<path id="path46" inkscape:connector-curvature="0" fill="#FFFFFF" d="M244.652,15.493h-1.038V2.953h1.038V15.493z"/>
		</g>
		<g id="text3365">
			<path id="path49" inkscape:connector-curvature="0" fill="#FFFFFF" d="M247.075,13.241v-3.22c0-0.073,0.041-0.108,0.121-0.108
				h0.168c0.027,0,0.052,0.011,0.074,0.034c0.023,0.023,0.034,0.047,0.034,0.074c0,0.903,0.278,1.603,0.836,2.102
				c0.561,0.494,1.296,0.741,2.203,0.741c0.319,0,0.613-0.092,0.883-0.276c0.27-0.184,0.479-0.425,0.627-0.721
				c0.153-0.301,0.229-0.611,0.229-0.93c0-0.278-0.056-0.548-0.168-0.809c-0.112-0.265-0.274-0.494-0.485-0.687
				c-0.211-0.193-0.449-0.321-0.714-0.384l-1.792-0.438c-0.593-0.157-1.078-0.479-1.455-0.964c-0.373-0.49-0.559-1.038-0.559-1.644
				c0-0.476,0.121-0.923,0.364-1.341c0.243-0.418,0.568-0.748,0.977-0.99c0.413-0.243,0.858-0.364,1.334-0.364
				c0.921,0,1.653,0.312,2.197,0.937l0.566-0.896c0.027-0.027,0.058-0.04,0.094-0.04h0.094c0.027,0,0.052,0.011,0.074,0.033
				c0.027,0.018,0.041,0.045,0.041,0.081v3.201c0,0.081-0.038,0.121-0.115,0.121h-0.162c-0.085,0-0.128-0.041-0.128-0.121
				c0-0.234-0.041-0.49-0.121-0.768c-0.076-0.278-0.184-0.546-0.323-0.802c-0.139-0.256-0.29-0.465-0.451-0.627
				c-0.445-0.449-1.033-0.674-1.765-0.674c-0.315,0-0.604,0.081-0.869,0.243c-0.265,0.157-0.476,0.373-0.633,0.647
				c-0.157,0.274-0.236,0.562-0.236,0.863c0,0.395,0.121,0.755,0.364,1.078c0.247,0.319,0.568,0.53,0.964,0.634l1.792,0.438
				c0.296,0.072,0.575,0.202,0.835,0.391c0.265,0.184,0.485,0.4,0.66,0.647c0.175,0.247,0.312,0.523,0.411,0.829
				c0.099,0.301,0.148,0.613,0.148,0.937c0,0.499-0.115,0.97-0.344,1.415c-0.229,0.44-0.552,0.795-0.97,1.065
				c-0.413,0.27-0.867,0.404-1.361,0.404c-0.306,0-0.618-0.034-0.937-0.101c-0.319-0.067-0.613-0.171-0.883-0.31
				c-0.27-0.139-0.515-0.319-0.735-0.539l-0.579,0.91c-0.027,0.027-0.061,0.041-0.101,0.041h-0.081
				C247.115,13.349,247.075,13.313,247.075,13.241z"/>
			<path id="path51" inkscape:connector-curvature="0" fill="#FFFFFF" d="M254.413,13.046V12.56c0.948,0,1.422-0.146,1.422-0.438
				v-7.58c0-0.292-0.474-0.438-1.422-0.438V3.619h4.912c0.503,0,1.006,0.103,1.509,0.31c0.503,0.207,0.917,0.508,1.24,0.903
				c0.328,0.395,0.492,0.856,0.492,1.382c0,0.512-0.164,0.961-0.492,1.348c-0.328,0.386-0.741,0.68-1.24,0.883
				c-0.499,0.198-1.002,0.296-1.509,0.296h-2.21v3.383c0,0.292,0.474,0.438,1.422,0.438v0.485L254.413,13.046L254.413,13.046z
				 M257.074,8.329h1.873c0.508,0,0.919-0.072,1.233-0.216c0.315-0.148,0.544-0.375,0.687-0.681c0.148-0.31,0.222-0.716,0.222-1.219
				c0-0.75-0.166-1.289-0.499-1.617c-0.328-0.328-0.876-0.492-1.644-0.492h-1.172c-0.166,0-0.297,0.007-0.391,0.02
				c-0.09,0.013-0.164,0.054-0.222,0.121c-0.058,0.063-0.088,0.162-0.088,0.297L257.074,8.329L257.074,8.329z"/>
		</g>
		<g id="text3367">
			<path id="path54" inkscape:connector-curvature="0" fill="#FFFFFF" d="M262.561,15.895v-0.353c0.229,0,0.417-0.018,0.564-0.054
				c0.147-0.036,0.221-0.124,0.221-0.265V9.947c0-0.18-0.028-0.309-0.083-0.388c-0.052-0.082-0.129-0.131-0.231-0.147
				c-0.102-0.02-0.258-0.029-0.471-0.029V9.03l1.492-0.108v3.455c0.141-0.278,0.337-0.5,0.589-0.667
				c0.252-0.17,0.53-0.255,0.834-0.255c0.465,0,0.813,0.111,1.045,0.335c0.235,0.221,0.353,0.563,0.353,1.021v2.414
				c0,0.14,0.074,0.229,0.221,0.265c0.147,0.036,0.336,0.054,0.565,0.054v0.353h-2.302v-0.353c0.229,0,0.417-0.018,0.564-0.054
				c0.147-0.036,0.221-0.124,0.221-0.265v-2.385c0-0.327-0.048-0.596-0.142-0.805c-0.095-0.213-0.29-0.319-0.584-0.319
				c-0.389,0-0.71,0.155-0.962,0.466c-0.249,0.311-0.373,0.664-0.373,1.06v1.983c0,0.14,0.073,0.229,0.221,0.265
				c0.147,0.036,0.334,0.054,0.56,0.054v0.353L262.561,15.895L262.561,15.895z"/>
		</g>
		<g id="text3369">
			<path id="path57" inkscape:connector-curvature="0" fill="#FFFFFF" d="M270.452,15.493h-1.038V2.953h1.038V15.493z"/>
		</g>
		<g id="text3371">
			<path id="path60" inkscape:connector-curvature="0" fill="#FFFFFF" d="M285.492,7.776H277.5V6.698h7.992V7.776z M285.492,10.607
				H277.5V9.528h7.992V10.607z"/>
		</g>
		<g id="text3373">
			<path id="path63" inkscape:connector-curvature="0" fill="#FFFFFF" d="M294.658,13.201l-3.255-8.659
				c-0.081-0.193-0.237-0.315-0.466-0.364c-0.229-0.049-0.521-0.074-0.876-0.074V3.619h3.794v0.485
				c-0.763,0-1.146,0.119-1.146,0.357c0.005,0.013,0.007,0.027,0.007,0.04c0.005,0.009,0.007,0.022,0.007,0.041l2.648,7.041
				l2.5-6.664c0.018-0.036,0.027-0.092,0.027-0.168c0-0.225-0.103-0.389-0.31-0.492c-0.207-0.103-0.438-0.155-0.694-0.155V3.619
				h2.979v0.485c-0.346,0-0.652,0.065-0.917,0.195c-0.261,0.126-0.447,0.332-0.559,0.62l-3.12,8.281
				c-0.027,0.098-0.101,0.148-0.222,0.148h-0.175C294.759,13.349,294.685,13.299,294.658,13.201z"/>
			<path id="path65" inkscape:connector-curvature="0" fill="#FFFFFF" d="M300.608,13.046V12.56c0.948,0,1.422-0.146,1.422-0.438
				v-7.58c0-0.292-0.474-0.438-1.422-0.438V3.619h4.913c0.503,0,1.006,0.103,1.509,0.31c0.503,0.207,0.917,0.508,1.24,0.903
				c0.328,0.395,0.492,0.856,0.492,1.382c0,0.512-0.164,0.961-0.492,1.348c-0.328,0.386-0.742,0.68-1.24,0.883
				c-0.499,0.198-1.002,0.296-1.509,0.296h-2.21v3.383c0,0.292,0.474,0.438,1.422,0.438v0.485L300.608,13.046L300.608,13.046z
				 M303.27,8.329h1.873c0.508,0,0.919-0.072,1.234-0.216c0.314-0.148,0.543-0.375,0.687-0.681c0.148-0.31,0.222-0.716,0.222-1.219
				c0-0.75-0.166-1.289-0.499-1.617c-0.328-0.328-0.876-0.492-1.645-0.492h-1.172c-0.166,0-0.296,0.007-0.391,0.02
				c-0.09,0.013-0.164,0.054-0.222,0.121c-0.058,0.063-0.088,0.162-0.088,0.297L303.27,8.329L303.27,8.329z"/>
		</g>
		<g id="text3375">
			<path id="path68" inkscape:connector-curvature="0" fill="#FFFFFF" d="M310.19,16.008c-0.396,0-0.757-0.106-1.084-0.319
				c-0.327-0.216-0.582-0.499-0.766-0.849c-0.18-0.35-0.27-0.721-0.27-1.114c0-0.406,0.098-0.782,0.295-1.129
				c0.199-0.35,0.469-0.628,0.81-0.834c0.34-0.206,0.715-0.309,1.124-0.309c0.245,0,0.478,0.052,0.696,0.156
				c0.22,0.102,0.409,0.244,0.57,0.427v-2.09c0-0.18-0.028-0.309-0.083-0.388c-0.053-0.082-0.129-0.131-0.231-0.147
				c-0.098-0.02-0.254-0.029-0.466-0.029V9.03l1.487-0.108v6.06c0,0.177,0.026,0.306,0.079,0.388
				c0.056,0.078,0.132,0.127,0.23,0.147c0.102,0.016,0.259,0.025,0.471,0.025v0.353l-1.516,0.113v-0.633
				c-0.173,0.2-0.379,0.355-0.618,0.466C310.677,15.952,310.435,16.008,310.19,16.008z M309.164,15.021
				c0.115,0.22,0.267,0.394,0.457,0.525c0.193,0.131,0.402,0.196,0.628,0.196c0.278,0,0.533-0.081,0.765-0.241
				c0.233-0.16,0.406-0.368,0.52-0.623v-2.409c-0.078-0.147-0.178-0.278-0.299-0.393c-0.118-0.118-0.252-0.208-0.402-0.27
				c-0.147-0.062-0.304-0.093-0.471-0.093c-0.351,0-0.631,0.099-0.844,0.299c-0.213,0.196-0.361,0.45-0.447,0.756
				c-0.085,0.308-0.127,0.63-0.127,0.967c0,0.269,0.013,0.502,0.039,0.702C309.012,14.636,309.073,14.832,309.164,15.021z"/>
		</g>
		<g id="text3377">
			<path id="path71" inkscape:connector-curvature="0" fill="#FFFFFF" d="M325.778,9.191h-3.672v3.672h-1.119V9.191h-3.673V8.113
				h3.673V4.441h1.119v3.672h3.672V9.191z"/>
		</g>
		<g id="text3379">
			<path id="path74" inkscape:connector-curvature="0" fill="#FFFFFF" d="M329.661,13.046V12.56c0.314,0,0.573-0.025,0.776-0.074
				c0.202-0.049,0.303-0.171,0.303-0.364V4.879c0-0.247-0.038-0.425-0.115-0.532c-0.072-0.112-0.178-0.18-0.317-0.202
				c-0.139-0.027-0.355-0.04-0.647-0.04V3.619l2.049-0.148v4.744c0.193-0.382,0.463-0.687,0.809-0.917
				c0.346-0.233,0.728-0.35,1.146-0.35c0.638,0,1.116,0.153,1.435,0.458c0.323,0.305,0.484,0.773,0.484,1.402v3.315
				c0,0.193,0.101,0.314,0.303,0.364c0.202,0.049,0.46,0.074,0.775,0.074v0.485h-3.16V12.56c0.314,0,0.573-0.025,0.775-0.074
				c0.202-0.049,0.303-0.171,0.303-0.364V8.848c0-0.449-0.065-0.818-0.196-1.105c-0.131-0.292-0.397-0.438-0.802-0.438
				c-0.535,0-0.975,0.213-1.321,0.64c-0.341,0.427-0.512,0.912-0.512,1.455v2.722c0,0.193,0.101,0.314,0.303,0.364
				c0.202,0.049,0.458,0.074,0.769,0.074v0.485L329.661,13.046L329.661,13.046z"/>
		</g>
		<g id="text3381">
			<path id="path77" inkscape:connector-curvature="0" fill="#FFFFFF" d="M341.277,16.008c-0.409,0-0.786-0.106-1.129-0.319
				c-0.34-0.216-0.608-0.502-0.805-0.859c-0.193-0.36-0.289-0.739-0.289-1.138c0-0.393,0.089-0.765,0.265-1.119
				c0.18-0.353,0.429-0.638,0.746-0.854c0.321-0.22,0.677-0.329,1.07-0.329c0.307,0,0.574,0.052,0.8,0.157
				c0.229,0.101,0.418,0.244,0.565,0.427c0.147,0.183,0.259,0.399,0.334,0.647c0.075,0.249,0.113,0.522,0.113,0.819
				c0,0.088-0.034,0.132-0.103,0.132h-2.91v0.108c0,0.556,0.111,1.034,0.334,1.432c0.226,0.4,0.592,0.598,1.099,0.598
				c0.206,0,0.396-0.046,0.57-0.137c0.177-0.092,0.328-0.22,0.456-0.383c0.131-0.164,0.22-0.339,0.265-0.525
				c0.007-0.023,0.018-0.042,0.034-0.058c0.02-0.02,0.041-0.03,0.064-0.03h0.089c0.068,0,0.103,0.043,0.103,0.128
				c-0.095,0.38-0.299,0.692-0.613,0.937C342.018,15.887,341.666,16.008,341.277,16.008z M339.942,13.323h2.292
				c0-0.252-0.036-0.507-0.108-0.766c-0.069-0.258-0.185-0.472-0.348-0.643c-0.164-0.172-0.378-0.26-0.643-0.26
				c-0.38,0-0.674,0.179-0.883,0.535C340.045,12.543,339.942,12.921,339.942,13.323z"/>
		</g>
		<g id="text3383">
		</g>
	</g>
</g>
</svg>
