<?xml version="1.0" encoding="UTF-8" standalone="no"?>
<!-- Created with Inkscape (http://www.inkscape.org/) -->

<svg
   xmlns:dc="http://purl.org/dc/elements/1.1/"
   xmlns:cc="http://creativecommons.org/ns#"
   xmlns:rdf="http://www.w3.org/1999/02/22-rdf-syntax-ns#"
   xmlns:svg="http://www.w3.org/2000/svg"
   xmlns="http://www.w3.org/2000/svg"
   xmlns:sodipodi="http://sodipodi.sourceforge.net/DTD/sodipodi-0.dtd"
   xmlns:inkscape="http://www.inkscape.org/namespaces/inkscape"
   version="1.2"
   width="320"
   height="60"
   id="svg3020"
   inkscape:version="0.48.3.1 r9886"
   sodipodi:docname="eqn_noise_03.svg">
  <sodipodi:namedview
     pagecolor="#ffffff"
     bordercolor="#666666"
     borderopacity="1"
     objecttolerance="10"
     gridtolerance="10"
     guidetolerance="10"
     inkscape:pageopacity="0"
     inkscape:pageshadow="2"
     inkscape:window-width="1366"
     inkscape:window-height="716"
     id="namedview3193"
     showgrid="false"
     inkscape:zoom="2.34"
     inkscape:cx="164.63207"
     inkscape:cy="51.326468"
     inkscape:window-x="-8"
     inkscape:window-y="-8"
     inkscape:window-maximized="1"
     inkscape:current-layer="g3009" />
  <metadata
     id="metadata3026">
    <rdf:RDF>
      <cc:Work
         rdf:about="">
        <dc:format>image/svg+xml</dc:format>
        <dc:type
           rdf:resource="http://purl.org/dc/dcmitype/StillImage" />
        <dc:title />
      </cc:Work>
    </rdf:RDF>
  </metadata>
  <defs
     id="defs3024" />
  <text
     x="44.56657"
     y="42.23513"
     transform="scale(0.95814898,1.043679)"
     id="text3030"
     xml:space="preserve"
     style="font-size:41.02812958px;font-style:normal;font-variant:normal;font-weight:normal;font-stretch:normal;line-height:125%;letter-spacing:0px;word-spacing:0px;fill:#000000;fill-opacity:1;font-family:Cambria Math;-inkscape-font-specification:Cambria Math"
     sodipodi:linespacing="125%"><tspan
       x="44.56657"
       y="42.23513"
       id="tspan3032" /></text>
  <g
     transform="matrix(1.4688253,0,0,1.4688253,-277.70507,-0.75165246)"
     id="g3009">
     <g
       transform="matrix(0.90120608,0,0,0.90120608,34.88255,-0.12424809)"
       id="g3156"
       style="fill:#ffffff;stroke:none">
      <g
         style="font-size:13.80000019000000000px;font-style:normal;font-variant:normal;font-weight:normal;font-stretch:normal;text-align:start;text-anchor:start;fill:#ffffff;font-family:cmr10;-inkscape-font-specification:cmr10;stroke:none"
         id="text3158">
        <path
           d="m 244.78591,26.150265 0,-0.485157 c 0.4627,1e-6 0.91191,-0.02583 1.34766,-0.07749 0.43574,-0.05166 0.65361,-0.171825 0.65361,-0.360498 l 0,-7.580566 c 0,-0.197648 -0.055,-0.32006 -0.16509,-0.367237 -0.11006,-0.04716 -0.28862,-0.07074 -0.53569,-0.07075 l -0.57949,0 c -0.75918,9e-6 -1.29824,0.16622 -1.61719,0.498633 -0.16621,0.166219 -0.28525,0.432381 -0.35713,0.798487 -0.0719,0.36612 -0.13252,0.825446 -0.18193,1.377978 l -0.39756,0 0.26279,-3.160254 8.42959,0 0.2628,3.160254 -0.4043,0 c -0.0539,-0.592962 -0.11344,-1.063518 -0.17856,-1.41167 -0.0652,-0.348136 -0.18307,-0.603068 -0.35376,-0.764795 -0.32345,-0.332413 -0.86251,-0.498624 -1.61719,-0.498633 l -0.57949,0 c -0.16622,9e-6 -0.29537,0.0067 -0.38746,0.02022 -0.0921,0.01349 -0.16734,0.05279 -0.22573,0.11792 -0.0584,0.06515 -0.0876,0.165097 -0.0876,0.299854 l 0,7.580566 c 0,0.188673 0.21787,0.308839 0.65362,0.360498 0.43573,0.05166 0.88271,0.07749 1.34092,0.07749 l 0,0.485157 z"
           style="font-size:13.80000019000000000px;font-style:normal;font-variant:normal;font-weight:normal;font-stretch:normal;text-align:start;text-anchor:start;fill:#ffffff;font-family:cmr10;-inkscape-font-specification:cmr10;stroke:none"
           id="path4130" />
      </g>
      <g
         style="font-size:13.80000019000000000px;font-style:normal;font-variant:normal;font-weight:normal;font-stretch:normal;text-align:start;text-anchor:start;fill:#ffffff;font-family:cmb10;-inkscape-font-specification:cmb10;stroke:none"
         id="text3160">
        <path
           d="m 257.43784,23.828214 c -0.10781,-0.01347 -0.20102,-0.05952 -0.27964,-0.138135 -0.0786,-0.07861 -0.11792,-0.171824 -0.11792,-0.279639 0,-0.103318 0.0371,-0.194285 0.11118,-0.2729 0.0741,-0.07861 0.16958,-0.129148 0.28638,-0.151611 l 8.38916,0 c 0.1123,0.02246 0.20551,0.073 0.27964,0.151611 0.0741,0.07861 0.11117,0.169582 0.11118,0.2729 -1e-5,0.107815 -0.0393,0.201028 -0.11792,0.279639 -0.0786,0.07861 -0.16959,0.12466 -0.2729,0.138135 z m 0,-3.079395 c -0.10781,-0.01347 -0.20102,-0.05952 -0.27964,-0.138134 -0.0786,-0.07861 -0.11792,-0.169576 -0.11792,-0.272901 0,-0.107807 0.0371,-0.20102 0.11118,-0.279639 0.0741,-0.07861 0.16958,-0.129145 0.28638,-0.151611 l 8.38916,0 c 0.1123,0.02247 0.20551,0.073 0.27964,0.151611 0.0741,0.07862 0.11117,0.171832 0.11118,0.279639 -1e-5,0.103325 -0.0393,0.194292 -0.11792,0.272901 -0.0786,0.07862 -0.16959,0.124662 -0.2729,0.138134 z"
           style="font-size:13.80000019000000000px;font-style:normal;font-variant:normal;font-weight:normal;font-stretch:normal;text-align:start;text-anchor:start;fill:#ffffff;font-family:cmb10;-inkscape-font-specification:cmb10;stroke:none"
           id="path4127" />
      </g>
      <g
         style="font-size:13.80000019000000000px;font-style:normal;font-variant:normal;font-weight:normal;font-stretch:normal;text-align:start;text-anchor:start;fill:#ffffff;font-family:cmr10;-inkscape-font-specification:cmr10;stroke:none"
         id="text3162">
        <path
           d="m 302.37948,9.0134205 c 0,-0.5525365 0.18193,-1.0410614 0.5458,-1.4655762 0.36387,-0.4245078 0.83105,-0.7782672 1.40156,-1.0612793 l -0.51211,-0.3301758 c -0.31445,-0.2066355 -0.57051,-0.4817817 -0.76816,-0.8254395 -0.19766,-0.3436462 -0.29649,-0.7041439 -0.29648,-1.0814942 -10e-6,-0.440227 0.11567,-0.8377852 0.34702,-1.1926757 0.23134,-0.3548745 0.53906,-0.6333898 0.92314,-0.8355469 0.38408,-0.2021394 0.79399,-0.3032135 1.22974,-0.3032227 0.40878,9.2e-6 0.80297,0.083115 1.18257,0.2493164 0.37958,0.1662197 0.69179,0.4043054 0.93662,0.7142578 0.24482,0.3099689 0.36723,0.6783279 0.36723,1.1050782 0,0.3099677 -0.073,0.5974674 -0.21899,0.8625 -0.146,0.265045 -0.3459,0.5031308 -0.59971,0.7142578 -0.25381,0.2111382 -0.52447,0.3908255 -0.81196,0.5390625 l 0.78838,0.5053711 c 0.36386,0.2380902 0.65698,0.5502969 0.87934,0.9366211 0.22236,0.3863313 0.33354,0.7928739 0.33355,1.2196289 -10e-6,0.4986347 -0.13365,0.9523452 -0.40093,1.361133 -0.26729,0.40879 -0.62105,0.725488 -1.06128,0.950098 -0.44024,0.224609 -0.90518,0.336913 -1.39482,0.336914 -0.47618,-10e-7 -0.9355,-0.09658 -1.37798,-0.289746 -0.44248,-0.193164 -0.80186,-0.472803 -1.07813,-0.838917 -0.27627,-0.3661116 -0.4144,-0.7894999 -0.4144,-1.2701655 z m 0.74795,0 c 0,0.3638689 0.0999,0.6962904 0.29985,0.9972655 0.1999,0.300977 0.46382,0.536817 0.79175,0.70752 0.32793,0.170703 0.67158,0.256054 1.03096,0.256054 0.53456,0 1.01972,-0.156103 1.45547,-0.46831 0.43573,-0.312206 0.6536,-0.7266102 0.65361,-1.2432131 -10e-6,-0.1751933 -0.0348,-0.3492654 -0.10444,-0.5222168 -0.0696,-0.1729467 -0.16622,-0.3301731 -0.28975,-0.4716797 -0.12354,-0.141501 -0.26167,-0.2571747 -0.4144,-0.3470215 l -1.85303,-1.1994141 c -0.2875,0.1527386 -0.55142,0.3459025 -0.79175,0.5794922 -0.24033,0.2335973 -0.43013,0.49639 -0.56938,0.7883789 -0.13926,0.2919949 -0.20889,0.5997095 -0.20889,0.9231446 z m 0.9501,-4.2114259 1.67109,1.078125 c 0.38632,-0.2246039 0.70302,-0.496381 0.9501,-0.815332 0.24706,-0.318939 0.3706,-0.6783136 0.3706,-1.078125 0,-0.3099535 -0.0865,-0.5940841 -0.25942,-0.8523926 -0.17295,-0.2582926 -0.39869,-0.4593178 -0.6772,-0.6030762 -0.27852,-0.1437413 -0.57725,-0.2156162 -0.89619,-0.215625 -0.27852,8.8e-6 -0.55928,0.053915 -0.84228,0.1617188 -0.28301,0.107821 -0.51661,0.2684165 -0.70079,0.4817871 -0.18418,0.2133868 -0.27627,0.463826 -0.27626,0.7513183 -10e-6,0.431257 0.22011,0.7951238 0.66035,1.0916016 z"
           style="font-size:13.80000019000000000px;font-style:normal;font-variant:normal;font-weight:normal;font-stretch:normal;text-align:start;text-anchor:start;fill:#ffffff;font-family:cmr10;-inkscape-font-specification:cmr10;stroke:none"
           id="path4124" />
      </g>
      <g
         style="font-size:13.80000019000000000px;font-style:normal;font-variant:normal;font-weight:normal;font-stretch:normal;text-align:start;text-anchor:start;fill:#ffffff;font-family:cmr10;-inkscape-font-specification:cmr10;stroke:none"
         id="text3164">
        <path
           d="m 281.62892,43.423965 0,-0.370605 c 0,-0.02246 0.009,-0.04717 0.027,-0.07412 l 2.14277,-2.371875 c 0.32344,-0.350388 0.58623,-0.644626 0.78838,-0.882715 0.20214,-0.238082 0.40205,-0.512105 0.59971,-0.82207 0.19765,-0.309956 0.35375,-0.625532 0.46831,-0.946729 0.11454,-0.321185 0.17182,-0.661468 0.17182,-1.020849 0,-0.377337 -0.0696,-0.737835 -0.20888,-1.081495 -0.13927,-0.343644 -0.34703,-0.61879 -0.62329,-0.825439 -0.27628,-0.206632 -0.60982,-0.309952 -1.00064,-0.309961 -0.39981,9e-6 -0.75918,0.120175 -1.07812,0.360498 -0.31895,0.24034 -0.54356,0.551424 -0.67383,0.933252 0.0359,-0.009 0.0853,-0.01347 0.14824,-0.01348 0.20664,8e-6 0.38296,0.06964 0.52896,0.208887 0.14599,0.139265 0.21899,0.318952 0.21899,0.539063 0,0.211139 -0.073,0.389703 -0.21899,0.535693 -0.146,0.146002 -0.32232,0.219 -0.52896,0.218994 -0.21563,6e-6 -0.39644,-0.07524 -0.54243,-0.225732 -0.146,-0.150482 -0.219,-0.3268 -0.219,-0.528955 0,-0.345892 0.0651,-0.670452 0.19541,-0.973682 0.13028,-0.303215 0.31783,-0.572746 0.56265,-0.808594 0.24482,-0.235831 0.52109,-0.416641 0.82881,-0.542431 0.30771,-0.125773 0.63452,-0.188663 0.98042,-0.188672 0.52558,9e-6 1.01523,0.11119 1.46895,0.333545 0.4537,0.222372 0.81308,0.536824 1.07812,0.943359 0.26503,0.40655 0.39755,0.881599 0.39756,1.425147 -1e-5,0.39981 -0.0876,0.7794 -0.26279,1.138769 -0.17521,0.35938 -0.39981,0.686186 -0.67383,0.98042 -0.27403,0.294242 -0.62442,0.627787 -1.05117,1.000635 -0.42677,0.372854 -0.70753,0.622171 -0.84229,0.747949 l -1.56328,1.502637 1.32744,0 c 0.65136,10e-7 1.19604,-0.0056 1.63403,-0.01685 0.43799,-0.01123 0.67046,-0.02808 0.69742,-0.05054 0.1078,-0.116796 0.21786,-0.541307 0.33017,-1.273535 l 0.4043,0 -0.39082,2.459472 z"
           style="font-size:13.80000019000000000px;font-style:normal;font-variant:normal;font-weight:normal;font-stretch:normal;text-align:start;text-anchor:start;fill:#ffffff;font-family:cmr10;-inkscape-font-specification:cmr10;stroke:none"
           id="path4121" />
      </g>
      <g
         style="font-size:17.82117270999999900px;font-style:normal;font-weight:normal;text-align:start;text-anchor:start;fill:#ffffff;font-family:Cambria Math;stroke:none"
         id="text3168">
        <path
           d="m 293.81021,35.852697 c -0.66133,-0.522108 -1.2313,-1.121078 -1.70989,-1.79691 -0.4786,-0.675838 -0.87018,-1.396631 -1.17473,-2.162384 -0.30457,-0.765753 -0.53226,-1.566313 -0.68309,-2.401681 -0.15083,-0.835365 -0.22625,-1.673632 -0.22625,-2.514804 0,-0.852766 0.0754,-1.696834 0.22625,-2.532208 0.15083,-0.83536 0.38142,-1.63882 0.69179,-2.410383 0.31036,-0.771545 0.70629,-1.493789 1.18779,-2.166735 0.48149,-0.672922 1.0442,-1.26174 1.68813,-1.766454 0,-0.02319 0.029,-0.03479 0.087,-0.03481 l 0.16534,0 c 0.0348,1.4e-5 0.0667,0.01597 0.0957,0.04786 0.029,0.03192 0.0435,0.06818 0.0435,0.108772 0,0.05222 -0.0116,0.08993 -0.0348,0.113122 -0.58013,0.568527 -1.06307,1.177648 -1.44884,1.827367 -0.38579,0.649741 -0.69615,1.341529 -0.93109,2.075366 -0.23495,0.733855 -0.40464,1.493807 -0.50905,2.279857 -0.10443,0.786064 -0.15664,1.605477 -0.15663,2.458243 -10e-6,3.776558 1.00939,6.64523 3.0282,8.606025 0.0348,0.0348 0.0522,0.08411 0.0522,0.14793 0,0.029 -0.016,0.06236 -0.0479,0.10007 -0.0319,0.0377 -0.0624,0.05656 -0.0914,0.05656 l -0.16534,0 c -0.058,-4e-6 -0.087,-0.01161 -0.087,-0.03481 z"
           style="font-variant:normal;font-stretch:normal;font-family:cmr10;-inkscape-font-specification:cmr10;fill:#ffffff;stroke:none"
           id="path4118" />
      </g>
      <g
         style="font-size:10.17324829000000000px;font-style:normal;font-variant:normal;font-weight:normal;font-stretch:normal;text-align:start;text-anchor:start;fill:#ffffff;font-family:cmr10;-inkscape-font-specification:cmr10;stroke:none"
         id="text3170">
        <path
           d="m 294.8514,25.600151 0,-2.37442 c 0,-0.05298 0.0298,-0.07948 0.0894,-0.07948 l 0.12418,0 c 0.0199,2e-6 0.0381,0.0083 0.0546,0.02484 0.0166,0.01656 0.0248,0.03477 0.0248,0.05464 0,0.665634 0.20615,1.181416 0.61844,1.547347 0.4123,0.365933 0.95291,0.548899 1.62186,0.548899 0.23512,0 0.45203,-0.06789 0.65073,-0.203664 0.19869,-0.135775 0.35351,-0.313774 0.46445,-0.533996 0.11094,-0.220221 0.16641,-0.447893 0.16641,-0.683019 0,-0.205317 -0.0414,-0.404841 -0.12418,-0.598572 -0.0828,-0.193727 -0.20202,-0.36179 -0.35766,-0.504192 -0.15565,-0.142396 -0.33116,-0.236777 -0.52654,-0.283142 l -1.32133,-0.322881 c -0.43714,-0.115903 -0.79396,-0.35351 -1.07048,-0.712823 -0.27652,-0.359305 -0.41478,-0.762492 -0.41478,-1.209564 0,-0.351024 0.0894,-0.680528 0.26824,-0.988513 0.17883,-0.307973 0.41975,-0.551376 0.72276,-0.730209 0.30301,-0.17882 0.63003,-0.268233 0.98106,-0.26824 0.67888,7e-6 1.21867,0.230163 1.61938,0.690469 l 0.41726,-0.660665 c 0.0199,-0.01986 0.043,-0.0298 0.0695,-0.0298 l 0.0695,0 c 0.0199,7e-6 0.0389,0.0075 0.0571,0.02235 0.0182,0.01491 0.0273,0.03561 0.0273,0.06209 l 0,2.359518 c 0,0.05961 -0.0282,0.08942 -0.0844,0.08941 l -0.11922,0 c -0.0629,5e-6 -0.0944,-0.0298 -0.0944,-0.08941 -1e-5,-0.172199 -0.029,-0.36096 -0.0869,-0.566285 -0.058,-0.205314 -0.13826,-0.402354 -0.24092,-0.591121 -0.10266,-0.188755 -0.2136,-0.342745 -0.33282,-0.461969 -0.32785,-0.331153 -0.76167,-0.496734 -1.30146,-0.49674 -0.23181,6e-6 -0.44541,0.05879 -0.64079,0.176343 -0.19539,0.117568 -0.35103,0.277353 -0.46694,0.479354 -0.11591,0.202014 -0.17386,0.413957 -0.17386,0.635828 0,0.291427 0.0902,0.555527 0.27073,0.792302 0.18048,0.236784 0.41643,0.393257 0.70785,0.46942 l 1.32133,0.322881 c 0.21856,0.05299 0.42471,0.148198 0.61844,0.285626 0.19373,0.137435 0.35517,0.29722 0.48433,0.479355 0.12914,0.182141 0.23015,0.384976 0.30301,0.608507 0.0728,0.223535 0.10928,0.45452 0.10928,0.692953 0,0.36759 -0.0845,0.71448 -0.25334,1.040672 -0.16889,0.326193 -0.4065,0.588638 -0.71282,0.787334 -0.30633,0.198696 -0.64163,0.298044 -1.0059,0.298044 -0.22519,0 -0.45535,-0.02484 -0.69047,-0.07451 -0.23513,-0.04967 -0.45204,-0.125841 -0.65073,-0.228501 -0.1987,-0.102659 -0.37918,-0.235123 -0.54145,-0.397392 l -0.42719,0.670599 c -0.0199,0.01987 -0.0447,0.0298 -0.0745,0.0298 l -0.0596,0 c -0.0596,0 -0.0894,-0.02649 -0.0894,-0.07948 z"
           style="font-size:10.17324829000000000px;font-style:normal;font-variant:normal;font-weight:normal;font-stretch:normal;text-align:start;text-anchor:start;fill:#ffffff;font-family:cmr10;-inkscape-font-specification:cmr10;stroke:none"
           id="path4111" />
        <path
           d="m 300.26091,25.456097 0,-0.357654 c 0.69875,1e-6 1.04812,-0.107626 1.04812,-0.322881 l 0,-5.588332 c 0,-0.215248 -0.34937,-0.322875 -1.04812,-0.322882 l 0,-0.357653 3.62124,0 c 0.37089,7e-6 0.74179,0.07617 1.1127,0.228501 0.37089,0.15234 0.67639,0.374217 0.91648,0.665632 0.24009,0.291427 0.36013,0.630866 0.36014,1.018319 -1e-5,0.377527 -0.12088,0.708687 -0.36262,0.993481 -0.24175,0.284802 -0.54642,0.500884 -0.914,0.648246 -0.3676,0.14737 -0.73849,0.221053 -1.1127,0.22105 l -1.62931,0 0,2.493638 c 0,0.215255 0.34937,0.322882 1.04812,0.322881 l 0,0.357654 z m 1.96212,-3.477185 1.38094,0 c 0.37421,4e-6 0.67722,-0.05381 0.90904,-0.161441 0.23181,-0.107623 0.40153,-0.274859 0.50916,-0.501708 0.10762,-0.22684 0.16143,-0.525712 0.16144,-0.896616 -10e-6,-0.553033 -0.12171,-0.950425 -0.36511,-1.192178 -0.2434,-0.241741 -0.64825,-0.362614 -1.21453,-0.362621 l -0.86433,0 c -0.12253,7e-6 -0.21774,0.005 -0.28562,0.0149 -0.0679,0.0099 -0.12336,0.03892 -0.16641,0.08693 -0.043,0.04802 -0.0646,0.121708 -0.0646,0.22105 z"
           style="font-size:10.17324829000000000px;font-style:normal;font-variant:normal;font-weight:normal;font-stretch:normal;text-align:start;text-anchor:start;fill:#ffffff;font-family:cmr10;-inkscape-font-specification:cmr10;stroke:none"
           id="path4113" />
        <path
           d="m 307.1507,25.456097 0,-0.357654 c 0.69875,1e-6 1.04812,-0.107626 1.04812,-0.322881 l 0,-5.588332 c 0,-0.215248 -0.34937,-0.322875 -1.04812,-0.322882 l 0,-0.357653 3.29836,0 0,0.357653 c -0.86764,7e-6 -1.30146,0.107634 -1.30146,0.322882 l 0,5.588332 c 0,0.145711 0.0414,0.235952 0.12418,0.270724 0.0828,0.03477 0.2136,0.05216 0.39243,0.05216 l 0.78485,0 c 0.50667,1e-6 0.89744,-0.09272 1.17231,-0.278174 0.27486,-0.185449 0.46941,-0.437959 0.58367,-0.75753 0.11424,-0.319568 0.20117,-0.744281 0.26079,-1.27414 l 0.29307,0 -0.28314,2.667498 z"
           style="font-size:10.17324829000000000px;font-style:normal;font-variant:normal;font-weight:normal;font-stretch:normal;text-align:start;text-anchor:start;fill:#ffffff;font-family:cmr10;-inkscape-font-specification:cmr10;stroke:none"
           id="path4115" />
      </g>
      <g
         style="font-size:10.17324829000000000px;font-style:normal;font-variant:normal;font-weight:normal;font-stretch:normal;text-align:start;text-anchor:start;fill:#ffffff;font-family:cmb10;-inkscape-font-specification:cmb10;stroke:none"
         id="text3172">
        <path
           d="m 316.08389,23.70757 0,-1.028254 2.69233,0 0,1.028254 z"
           style="font-size:10.17324829000000000px;font-style:normal;font-variant:normal;font-weight:normal;font-stretch:normal;text-align:start;text-anchor:start;fill:#ffffff;font-family:cmb10;-inkscape-font-specification:cmb10;stroke:none"
           id="path4108" />
      </g>
      <g
         style="font-size:10.17324829000000000px;font-style:normal;font-variant:normal;font-weight:normal;font-stretch:normal;text-align:start;text-anchor:start;fill:#ffffff;font-family:cmr10;-inkscape-font-specification:cmr10;stroke:none"
         id="text3174">
        <path
           d="m 324.731,25.0289 c 0.18545,0.218566 0.50833,0.327849 0.96864,0.327849 0.2583,0 0.49922,-0.08776 0.72276,-0.263273 0.22353,-0.175515 0.39656,-0.390769 0.51909,-0.645763 0.1424,-0.288108 0.23347,-0.595259 0.27321,-0.921454 0.0397,-0.32619 0.0596,-0.731034 0.0596,-1.214531 -0.11591,0.274866 -0.28232,0.500055 -0.49922,0.675568 -0.21692,0.175517 -0.46612,0.263274 -0.7476,0.263272 -0.39408,2e-6 -0.74594,-0.106797 -1.05557,-0.320398 -0.30964,-0.213595 -0.54725,-0.495081 -0.71283,-0.844459 -0.16558,-0.34937 -0.24837,-0.721097 -0.24837,-1.115182 0,-0.407323 0.0927,-0.787329 0.27818,-1.14002 0.18545,-0.35268 0.4421,-0.63251 0.76995,-0.839492 0.32784,-0.206968 0.7004,-0.310456 1.11766,-0.310463 0.41064,7e-6 0.75422,0.111774 1.03074,0.3353 0.27651,0.22354 0.48763,0.511649 0.63334,0.864329 0.14571,0.352691 0.24754,0.726074 0.3055,1.12015 0.058,0.394085 0.0869,0.783198 0.0869,1.167341 -1e-5,0.523236 -0.096,1.057232 -0.28811,1.601988 -0.19208,0.54476 -0.47936,0.999277 -0.86185,1.363553 -0.38249,0.364277 -0.84363,0.546415 -1.38342,0.546415 -0.4007,0 -0.74014,-0.09438 -1.01832,-0.283142 -0.27817,-0.188761 -0.41726,-0.473559 -0.41726,-0.854394 0,-0.139086 0.0472,-0.25582 0.14157,-0.350202 0.0944,-0.09438 0.21112,-0.14157 0.3502,-0.141571 0.13578,1e-6 0.25086,0.04719 0.34524,0.141571 0.0944,0.09438 0.14157,0.211116 0.14157,0.350202 0,0.132465 -0.048,0.246715 -0.14405,0.342751 -0.096,0.09604 -0.21029,0.144055 -0.34276,0.144055 z m 1.33623,-2.046572 c 0.27817,3e-6 0.50584,-0.09355 0.68302,-0.280658 0.17717,-0.187103 0.30549,-0.419743 0.38497,-0.697921 0.0795,-0.278171 0.11922,-0.55469 0.11922,-0.829557 l 0,-0.193729 0,-0.03974 c 0,-0.509982 -0.0745,-0.965327 -0.22353,-1.366037 -0.14903,-0.400697 -0.43383,-0.601049 -0.8544,-0.601056 -0.26824,7e-6 -0.48598,0.05879 -0.65321,0.176343 -0.16724,0.117568 -0.2906,0.274042 -0.37007,0.46942 -0.0795,0.19539 -0.12998,0.404021 -0.15151,0.625893 -0.0215,0.221883 -0.0323,0.46363 -0.0323,0.725242 0,0.38415 0.0182,0.711998 0.0546,0.983546 0.0364,0.271555 0.13578,0.510818 0.29805,0.71779 0.16227,0.206978 0.41064,0.310466 0.74511,0.310463 z"
           style="font-size:10.17324829000000000px;font-style:normal;font-variant:normal;font-weight:normal;font-stretch:normal;text-align:start;text-anchor:start;fill:#ffffff;font-family:cmr10;-inkscape-font-specification:cmr10;stroke:none"
           id="path4103" />
        <path
           d="m 331.21346,25.67963 c -0.83121,0 -1.39667,-0.341923 -1.69637,-1.025769 -0.2997,-0.683845 -0.44955,-1.497671 -0.44955,-2.441481 0,-0.589461 0.0538,-1.144155 0.16144,-1.664081 0.10763,-0.519916 0.32123,-0.961187 0.6408,-1.323814 0.31957,-0.362614 0.76746,-0.543924 1.34368,-0.543931 0.44707,7e-6 0.813,0.10929 1.0978,0.327849 0.28479,0.218572 0.5017,0.500886 0.65073,0.846943 0.14902,0.346068 0.25085,0.716967 0.3055,1.112699 0.0546,0.395741 0.082,0.810519 0.082,1.244335 -10e-6,0.582845 -0.0538,1.128432 -0.16144,1.636761 -0.10763,0.508332 -0.31875,0.940496 -0.63335,1.296493 -0.3146,0.355997 -0.76167,0.533996 -1.3412,0.533996 z m 0,-0.263273 c 0.37752,0 0.65901,-0.193728 0.84446,-0.581186 0.18545,-0.387457 0.2997,-0.816309 0.34275,-1.286558 0.043,-0.470246 0.0646,-0.970298 0.0646,-1.500157 0,-0.509983 -0.0215,-0.980231 -0.0646,-1.410744 -0.043,-0.430503 -0.15647,-0.820444 -0.34026,-1.169824 -0.1838,-0.349368 -0.46612,-0.524055 -0.84695,-0.524061 -0.38415,6e-6 -0.66894,0.175521 -0.85439,0.526545 -0.18545,0.351036 -0.2997,0.740977 -0.34275,1.169824 -0.043,0.428857 -0.0646,0.898277 -0.0646,1.40826 0,0.377526 0.009,0.733523 0.0273,1.067992 0.0182,0.334474 0.0671,0.679709 0.14654,1.035704 0.0795,0.355999 0.2078,0.655699 0.38497,0.899101 0.17717,0.243403 0.41147,0.365104 0.70289,0.365104 z"
           style="font-size:10.17324829000000000px;font-style:normal;font-variant:normal;font-weight:normal;font-stretch:normal;text-align:start;text-anchor:start;fill:#ffffff;font-family:cmr10;-inkscape-font-specification:cmr10;stroke:none"
           id="path4105" />
      </g>
      <g
         style="font-size:10.17324829000000000px;font-style:normal;font-variant:normal;font-weight:normal;font-stretch:normal;text-align:start;text-anchor:start;fill:#ffffff;font-family:cmr10;-inkscape-font-specification:cmr10;stroke:none"
         id="text3176">
        <path
           d="m 312.63579,35.476235 c 0.0695,0.198697 0.17634,0.379179 0.32039,0.541447 0.14406,0.162269 0.3146,0.288938 0.51165,0.380006 0.19703,0.09107 0.40153,0.136604 0.61347,0.136604 0.49012,0 0.8279,-0.190417 1.01335,-0.571252 0.18545,-0.380833 0.27817,-0.842801 0.27818,-1.385906 -1e-5,-0.235122 -0.004,-0.43299 -0.0124,-0.593605 -0.008,-0.16061 -0.0306,-0.315427 -0.0671,-0.464453 -0.0629,-0.238432 -0.17304,-0.447063 -0.33033,-0.625893 -0.15731,-0.178822 -0.35021,-0.268236 -0.57871,-0.26824 -0.2285,4e-6 -0.42471,0.03478 -0.58864,0.104316 -0.16392,0.06955 -0.29721,0.150682 -0.39987,0.243403 -0.10266,0.09273 -0.19373,0.19042 -0.27321,0.293077 -0.0795,0.102663 -0.12915,0.157304 -0.14902,0.163924 l -0.11425,0 c -0.0166,3e-6 -0.0373,-0.01076 -0.0621,-0.03229 -0.0248,-0.02152 -0.0373,-0.04222 -0.0373,-0.06209 l 0,-3.397706 c 0,-0.01655 0.0108,-0.03394 0.0323,-0.05216 0.0215,-0.01821 0.0439,-0.02731 0.0671,-0.02732 l 0.0298,0 c 0.457,0.218572 0.94215,0.327855 1.45545,0.327849 0.50336,6e-6 0.98851,-0.109277 1.45545,-0.327849 l 0.0298,0 c 0.0232,7e-6 0.0447,0.0083 0.0646,0.02484 0.0199,0.01656 0.0298,0.03478 0.0298,0.05464 l 0,0.09438 c -1e-5,0.03312 -0.007,0.04968 -0.0199,0.04967 -0.23182,0.307986 -0.52241,0.548077 -0.87178,0.720274 -0.34938,0.172209 -0.71117,0.258311 -1.08538,0.258305 -0.27155,6e-6 -0.54973,-0.03808 -0.83452,-0.11425 l 0,1.922386 c 0.22518,-0.182134 0.42636,-0.312114 0.60354,-0.389941 0.17716,-0.07782 0.40318,-0.11673 0.67805,-0.116734 0.37421,4e-6 0.7095,0.107631 1.0059,0.322881 0.29638,0.215258 0.52405,0.495916 0.68302,0.841976 0.15895,0.346065 0.23843,0.699578 0.23843,1.060541 0,0.407329 -0.10018,0.784851 -0.30053,1.132569 -0.20035,0.347719 -0.47273,0.624237 -0.81714,0.829556 -0.34441,0.20532 -0.71862,0.307979 -1.12263,0.30798 -0.33447,-10e-7 -0.64162,-0.0861 -0.92145,-0.258306 -0.27984,-0.172203 -0.50006,-0.404015 -0.66067,-0.695436 -0.16061,-0.291421 -0.24092,-0.601055 -0.24092,-0.928905 0,-0.152332 0.0497,-0.276517 0.14902,-0.372556 0.0993,-0.09603 0.22354,-0.144053 0.37256,-0.144055 0.14902,2e-6 0.27403,0.04885 0.37504,0.146539 0.101,0.09769 0.1515,0.221051 0.15151,0.370072 -1e-5,0.145712 -0.0505,0.269069 -0.15151,0.370071 -0.10101,0.101005 -0.22602,0.151507 -0.37504,0.151506 -0.0232,10e-7 -0.0497,-0.0025 -0.0795,-0.0075 -0.0298,-0.005 -0.0513,-0.0091 -0.0646,-0.01242 z"
           style="font-size:10.17324829000000000px;font-style:normal;font-variant:normal;font-weight:normal;font-stretch:normal;text-align:start;text-anchor:start;fill:#ffffff;font-family:cmr10;-inkscape-font-specification:cmr10;stroke:none"
           id="path4100" />
      </g>
      <g
         style="font-size:17.82117270999999900px;font-style:normal;font-variant:normal;font-weight:normal;font-stretch:normal;text-align:start;text-anchor:start;fill:#ffffff;font-family:cmr10;-inkscape-font-specification:cmr10;stroke:none"
         id="text3178">
        <path
           d="m 334.90605,35.887504 c -0.10442,-4e-6 -0.15663,-0.05221 -0.15663,-0.156631 0,-0.05222 0.0116,-0.08992 0.0348,-0.113123 2.0304,-1.984 3.0456,-4.864274 3.04561,-8.640832 -10e-6,-3.776549 -1.00361,-6.645221 -3.01081,-8.606026 -0.0464,-0.02899 -0.0696,-0.0783 -0.0696,-0.147929 0,-0.04059 0.016,-0.07685 0.0479,-0.108772 0.0319,-0.03189 0.0682,-0.04785 0.10877,-0.04786 l 0.16533,0 c 0.0348,1.4e-5 0.0638,0.01162 0.087,0.03481 0.85277,0.672948 1.56341,1.490911 2.13193,2.453892 0.56851,0.963003 0.98474,1.989808 1.2487,3.080418 0.26395,1.090625 0.39592,2.204447 0.39593,3.34147 -10e-6,0.841172 -0.0711,1.669287 -0.21319,2.484348 -0.14214,0.815064 -0.36838,1.618525 -0.67874,2.410383 -0.31037,0.791858 -0.7034,1.522803 -1.17909,2.19284 -0.4757,0.670031 -1.04421,1.2661 -1.70554,1.788208 -0.0232,0.0232 -0.0522,0.0348 -0.087,0.03481 z"
           style="font-size:17.82117270999999900px;font-style:normal;font-variant:normal;font-weight:normal;font-stretch:normal;text-align:start;text-anchor:start;fill:#ffffff;font-family:cmr10;-inkscape-font-specification:cmr10;stroke:none"
           id="path4097" />
      </g>
      <g
         style="font-size:10.17324829000000000px;font-style:normal;font-weight:normal;text-align:start;text-anchor:start;fill:#ffffff;font-family:Calibri;stroke:none"
         id="text3180" />
    </g>
    <g
       transform="scale(4.058944,0.2463695)"
       style="font-size:66.32147217000002100px;font-style:normal;font-variant:normal;font-weight:normal;font-stretch:normal;text-align:center;line-height:125%;letter-spacing:0px;word-spacing:0px;text-anchor:middle;fill:#ffffff;fill-opacity:1;stroke:none;font-family:cmr10;-inkscape-font-specification:cmr10"
       id="text3443">
      <path
         d="m 68.846778,55.794246 0,-4.112709 17.551874,0 0,4.112709 z"
         style="stroke:none;fill:#ffffff"
         id="path3452" />
    </g>
    <g
       transform="scale(2.921586,0.34227984)"
       style="font-size:47.73751068000000000px;font-style:normal;font-variant:normal;font-weight:normal;font-stretch:normal;text-align:center;line-height:125%;letter-spacing:0px;word-spacing:0px;text-anchor:middle;fill:#ffffff;fill-opacity:1;stroke:none;font-family:cmr10;-inkscape-font-specification:cmr10"
       id="text3447">
      <path
         d="m 102.41278,72.958442 0,-2.960285 12.63366,0 0,2.960285 z"
         style="stroke:none;fill:#ffffff"
         id="path3455" />
    </g>
  </g>
</svg>
