<?xml version="1.0" encoding="UTF-8" standalone="no"?>
<!-- Created with Inkscape (http://www.inkscape.org/) -->

<svg
   xmlns:dc="http://purl.org/dc/elements/1.1/"
   xmlns:cc="http://creativecommons.org/ns#"
   xmlns:rdf="http://www.w3.org/1999/02/22-rdf-syntax-ns#"
   xmlns:svg="http://www.w3.org/2000/svg"
   xmlns="http://www.w3.org/2000/svg"
   xmlns:sodipodi="http://sodipodi.sourceforge.net/DTD/sodipodi-0.dtd"
   xmlns:inkscape="http://www.inkscape.org/namespaces/inkscape"
   version="1.2"
   width="320"
   height="60"
   id="svg3020"
   inkscape:version="0.48.3.1 r9886"
   sodipodi:docname="eqn_conv_04.svg">
  <sodipodi:namedview
     pagecolor="#ffffff"
     bordercolor="#666666"
     borderopacity="1"
     objecttolerance="10"
     gridtolerance="10"
     guidetolerance="10"
     inkscape:pageopacity="0"
     inkscape:pageshadow="2"
     inkscape:window-width="640"
     inkscape:window-height="480"
     id="namedview4335"
     showgrid="false"
     inkscape:zoom="0.871875"
     inkscape:cx="160"
     inkscape:cy="30"
     inkscape:window-x="0"
     inkscape:window-y="0"
     inkscape:window-maximized="0"
     inkscape:current-layer="svg3020" />
  <metadata
     id="metadata3026">
    <rdf:RDF>
      <cc:Work
         rdf:about="">
        <dc:format>image/svg+xml</dc:format>
        <dc:type
           rdf:resource="http://purl.org/dc/dcmitype/StillImage" />
        <dc:title />
      </cc:Work>
    </rdf:RDF>
  </metadata>
  <defs
     id="defs3024" />
  <text
     x="44.56657"
     y="42.23513"
     transform="scale(0.95814898,1.043679)"
     id="text3030"
     xml:space="preserve"
     style="font-size:41.02812958px;font-style:normal;font-variant:normal;font-weight:normal;font-stretch:normal;line-height:125%;letter-spacing:0px;word-spacing:0px;fill:#000000;fill-opacity:1;stroke:none;font-family:Cambria Math;-inkscape-font-specification:Cambria Math"><tspan
       x="44.56657"
       y="42.23513"
       id="tspan3032" /></text>
  <g
     id="text6486"
     style="font-size:24px;font-style:normal;font-variant:normal;font-weight:normal;font-stretch:normal;text-align:center;line-height:125%;letter-spacing:0px;word-spacing:0px;text-anchor:middle;fill:#ffffff;fill-opacity:1;stroke:none;font-family:cmr10;-inkscape-font-specification:cmr10">
    <path
       d="m 133.69464,38.179211 0,-0.84375 c 1.64844,10e-7 2.47265,-0.472655 2.47266,-1.417969 l 0,-12.527344 c -1e-5,-0.507797 -0.82422,-0.761703 -2.47266,-0.761719 l 0,-0.84375 4.53516,0 c 0.1953,1.7e-5 0.32421,0.08986 0.38672,0.269532 l 5.22656,13.582031 5.22656,-13.582031 c 0.0625,-0.179672 0.19139,-0.269515 0.38672,-0.269532 l 4.53516,0 0,0.84375 c -1.64846,1.6e-5 -2.47268,0.253922 -2.47266,0.761719 l 0,13.183594 c -2e-5,0.507814 0.8242,0.76172 2.47266,0.761719 l 0,0.84375 -6.98438,0 0,-0.84375 c 1.64842,10e-7 2.47264,-0.253905 2.47266,-0.761719 l 0,-13.96875 -5.90625,15.304687 c -0.0703,0.179688 -0.20314,0.269532 -0.39844,0.269532 -0.20314,0 -0.33985,-0.08984 -0.41016,-0.269532 l -5.83593,-15.117187 0,13.125 c -1e-5,0.945314 0.82421,1.41797 2.47265,1.417969 l 0,0.84375 z"
       id="path6491"
       style="fill:#ffffff;stroke:none" />
    <path
       d="m 155.7962,35.823742 c 0,-0.953122 0.375,-1.728512 1.125,-2.326172 0.75,-0.597651 1.65039,-1.019526 2.70118,-1.265625 1.05077,-0.246088 2.04882,-0.369134 2.99414,-0.369141 l 0,-0.984375 c -1e-5,-0.460929 -0.10157,-0.908195 -0.30469,-1.341796 -0.20313,-0.433585 -0.4961,-0.789054 -0.87891,-1.066407 -0.38282,-0.277333 -0.80469,-0.416005 -1.26562,-0.416015 -1.06251,10e-6 -1.8711,0.238291 -2.42578,0.714843 0.30468,10e-6 0.55663,0.115244 0.75586,0.345704 0.19921,0.230477 0.29882,0.498055 0.29882,0.802734 0,0.32032 -0.11328,0.593758 -0.33984,0.820312 -0.22657,0.22657 -0.4961,0.339851 -0.80859,0.339844 -0.32032,7e-6 -0.59376,-0.113274 -0.82032,-0.339844 -0.22656,-0.226554 -0.33984,-0.499992 -0.33984,-0.820312 0,-0.843741 0.38281,-1.470693 1.14844,-1.880859 0.76562,-0.410146 1.60937,-0.615224 2.53125,-0.615235 0.64843,1.1e-5 1.30077,0.138683 1.95703,0.416016 0.65624,0.277354 1.19335,0.673838 1.61133,1.189453 0.41796,0.515634 0.62694,1.117195 0.62695,1.804687 l 0,5.402344 c -1e-5,0.312502 0.0664,0.599611 0.19922,0.861328 0.1328,0.26172 0.33983,0.392579 0.62109,0.392578 0.26562,1e-6 0.46288,-0.132811 0.5918,-0.398437 0.12889,-0.265624 0.19335,-0.55078 0.19336,-0.855469 l 0,-1.535156 0.70312,0 0,1.535156 c -1e-5,0.359377 -0.0938,0.701173 -0.28125,1.025391 -0.18751,0.324219 -0.43946,0.582031 -0.75586,0.773437 -0.31641,0.191406 -0.65821,0.28711 -1.02539,0.28711 -0.46876,0 -0.87305,-0.181641 -1.21289,-0.544922 -0.33985,-0.363281 -0.5293,-0.794921 -0.56836,-1.294922 -0.29688,0.601564 -0.73438,1.080079 -1.3125,1.435547 -0.57813,0.355468 -1.19531,0.533203 -1.85156,0.533203 -0.60938,0 -1.20899,-0.08984 -1.79883,-0.269531 -0.58984,-0.179688 -1.08203,-0.46289 -1.47656,-0.84961 -0.39453,-0.386717 -0.5918,-0.88867 -0.5918,-1.505859 z m 1.94532,0 c -1e-5,0.562502 0.20702,1.035157 0.62109,1.417969 0.41406,0.382813 0.90234,0.574219 1.46484,0.574218 0.51562,1e-6 0.98437,-0.128905 1.40625,-0.386718 0.42187,-0.257812 0.75781,-0.609374 1.00782,-1.054688 0.24999,-0.44531 0.37499,-0.91406 0.375,-1.40625 l 0,-2.496094 c -0.72657,6e-6 -1.47071,0.119147 -2.23243,0.357422 -0.76172,0.238287 -1.39258,0.611333 -1.89257,1.119141 -0.50001,0.507816 -0.75001,1.132816 -0.75,1.875 z"
       id="path6493"
       style="fill:#ffffff;stroke:none" />
    <path
       d="m 167.63214,38.249523 0,-3.914062 c 0,-0.124996 0.0703,-0.187496 0.21094,-0.1875 l 0.29297,0 c 0.0937,4e-6 0.15625,0.0625 0.1875,0.1875 0.44531,2.320314 1.52343,3.480469 3.23437,3.480468 0.75781,1e-6 1.39257,-0.171874 1.9043,-0.515625 0.51171,-0.343748 0.76757,-0.874998 0.76758,-1.59375 -1e-5,-0.515622 -0.19923,-0.955074 -0.59766,-1.318359 -0.39844,-0.363277 -0.8711,-0.611324 -1.41797,-0.744141 l -1.60547,-0.316406 c -0.53906,-0.117182 -1.0293,-0.29687 -1.4707,-0.539062 -0.44141,-0.242182 -0.80274,-0.564448 -1.08398,-0.966797 -0.28125,-0.402337 -0.42188,-0.869134 -0.42188,-1.400391 0,-0.703116 0.18555,-1.279288 0.55664,-1.728515 0.37109,-0.449209 0.85352,-0.773428 1.44727,-0.972657 0.59374,-0.199208 1.23437,-0.298817 1.92187,-0.298828 0.82031,1.1e-5 1.53515,0.218761 2.14453,0.65625 l 0.69141,-0.597656 c -1e-5,-0.03905 0.0391,-0.05858 0.11719,-0.05859 l 0.17578,0 c 0.0469,1.1e-5 0.0898,0.0215 0.1289,0.06445 0.0391,0.04298 0.0586,0.0879 0.0586,0.134766 l 0,3.140625 c -10e-6,0.148445 -0.0625,0.222663 -0.1875,0.222656 l -0.29297,0 c -0.14063,7e-6 -0.21094,-0.07421 -0.21094,-0.222656 0,-0.835929 -0.23243,-1.507804 -0.69726,-2.015625 -0.46485,-0.507803 -1.11524,-0.761709 -1.95118,-0.761719 -0.71875,10e-6 -1.3418,0.132823 -1.86914,0.398438 -0.52734,0.265634 -0.79101,0.722665 -0.79101,1.371093 0,0.445321 0.18945,0.810555 0.56836,1.095704 0.3789,0.285163 0.82226,0.490241 1.33008,0.615234 l 1.6289,0.304687 c 0.54687,0.125007 1.05664,0.335944 1.5293,0.632813 0.47265,0.29688 0.84765,0.67188 1.125,1.125 0.27733,0.453129 0.41601,0.964847 0.41601,1.535156 0,0.578128 -0.0996,1.08008 -0.29882,1.50586 -0.19923,0.425782 -0.47657,0.779297 -0.83203,1.060546 -0.35548,0.281251 -0.7754,0.488282 -1.25977,0.621094 -0.48438,0.132812 -0.99219,0.199219 -1.52344,0.199219 -1,0 -1.85547,-0.335938 -2.5664,-1.007813 l -0.87891,0.949219 c 0,0.03906 -0.043,0.05859 -0.12891,0.05859 l -0.14062,0 c -0.14063,0 -0.21094,-0.06641 -0.21094,-0.199219 z"
       id="path6495"
       style="fill:#ffffff;stroke:none" />
    <path
       d="m 177.10089,38.249523 0,-3.914062 c 0,-0.124996 0.0703,-0.187496 0.21094,-0.1875 l 0.29297,0 c 0.0937,4e-6 0.15625,0.0625 0.1875,0.1875 0.44531,2.320314 1.52343,3.480469 3.23437,3.480468 0.75781,1e-6 1.39257,-0.171874 1.9043,-0.515625 0.51171,-0.343748 0.76757,-0.874998 0.76758,-1.59375 -1e-5,-0.515622 -0.19923,-0.955074 -0.59766,-1.318359 -0.39844,-0.363277 -0.8711,-0.611324 -1.41797,-0.744141 l -1.60547,-0.316406 c -0.53906,-0.117182 -1.0293,-0.29687 -1.4707,-0.539062 -0.44141,-0.242182 -0.80274,-0.564448 -1.08398,-0.966797 -0.28125,-0.402337 -0.42188,-0.869134 -0.42188,-1.400391 0,-0.703116 0.18555,-1.279288 0.55664,-1.728515 0.37109,-0.449209 0.85352,-0.773428 1.44727,-0.972657 0.59374,-0.199208 1.23437,-0.298817 1.92187,-0.298828 0.82031,1.1e-5 1.53515,0.218761 2.14453,0.65625 l 0.69141,-0.597656 c -1e-5,-0.03905 0.0391,-0.05858 0.11719,-0.05859 l 0.17578,0 c 0.0469,1.1e-5 0.0898,0.0215 0.1289,0.06445 0.0391,0.04298 0.0586,0.0879 0.0586,0.134766 l 0,3.140625 c -10e-6,0.148445 -0.0625,0.222663 -0.1875,0.222656 l -0.29297,0 c -0.14063,7e-6 -0.21094,-0.07421 -0.21094,-0.222656 0,-0.835929 -0.23243,-1.507804 -0.69726,-2.015625 -0.46485,-0.507803 -1.11524,-0.761709 -1.95118,-0.761719 -0.71875,10e-6 -1.3418,0.132823 -1.86914,0.398438 -0.52734,0.265634 -0.79101,0.722665 -0.79101,1.371093 0,0.445321 0.18945,0.810555 0.56836,1.095704 0.3789,0.285163 0.82226,0.490241 1.33008,0.615234 l 1.6289,0.304687 c 0.54687,0.125007 1.05664,0.335944 1.5293,0.632813 0.47265,0.29688 0.84765,0.67188 1.125,1.125 0.27733,0.453129 0.41601,0.964847 0.41601,1.535156 0,0.578128 -0.0996,1.08008 -0.29882,1.50586 -0.19923,0.425782 -0.47657,0.779297 -0.83203,1.060546 -0.35548,0.281251 -0.7754,0.488282 -1.25977,0.621094 -0.48438,0.132812 -0.99219,0.199219 -1.52344,0.199219 -1,0 -1.85547,-0.335938 -2.5664,-1.007813 l -0.87891,0.949219 c 0,0.03906 -0.043,0.05859 -0.12891,0.05859 l -0.14062,0 c -0.14063,0 -0.21094,-0.06641 -0.21094,-0.199219 z"
       id="path6497"
       style="fill:#ffffff;stroke:none" />
  </g>
</svg>
