<?xml version="1.0" encoding="utf-8"?>
<!-- Generator: Adobe Illustrator 16.0.0, SVG Export Plug-In . SVG Version: 6.00 Build 0)  -->
<!DOCTYPE svg PUBLIC "-//W3C//DTD SVG 1.1//EN" "http://www.w3.org/Graphics/SVG/1.1/DTD/svg11.dtd">
<svg version="1.1"
	 id="svg3020" xmlns:dc="http://purl.org/dc/elements/1.1/" xmlns:cc="http://creativecommons.org/ns#" xmlns:rdf="http://www.w3.org/1999/02/22-rdf-syntax-ns#" xmlns:svg="http://www.w3.org/2000/svg" xmlns:inkscape="http://www.inkscape.org/namespaces/inkscape"
	 xmlns="http://www.w3.org/2000/svg" xmlns:xlink="http://www.w3.org/1999/xlink" x="0px" y="0px" width="320px" height="60px"
	 viewBox="0 0 320 60" enable-background="new 0 0 320 60" xml:space="preserve">
<g id="text3030" transform="scale(0.95814898,1.043679)">
</g>
<g id="g3009" transform="matrix(1.4688253,0,0,1.4688253,-277.70507,-0.75165246)">
	<g id="flowRoot3055" transform="matrix(0.68081616,0,0,0.68081616,189.0661,0.51173714)">
	</g>
	<g id="flowRoot3063" transform="matrix(0.68081616,0,0,0.68081616,189.0661,0.51173714)">
	</g>
	<path id="path3142" inkscape:connector-curvature="0" fill="none" stroke="#000000" stroke-width="0.4886" d="M310.927,23.387
		h18.941"/>
	<g id="g3405" transform="matrix(1.0984594,0,0,1.0984594,-19.938626,-0.02415698)">
		<g id="text3407">
			<path id="path48" inkscape:connector-curvature="0" d="M255.057,25.047v-0.485c0.993,0,1.489-0.146,1.489-0.438v-7.581
				c0-0.292-0.496-0.438-1.489-0.438V15.62h4.265v0.485c-0.993,0-1.489,0.146-1.489,0.438v7.581c0,0.292,0.496,0.438,1.489,0.438
				v0.485H255.057z"/>
		</g>
		<g id="text3409">
			<path id="path51" inkscape:connector-curvature="0" d="M259.701,27.896v-0.269c0-0.017,0.007-0.035,0.02-0.054l1.56-1.727
				c0.236-0.255,0.427-0.47,0.574-0.643c0.147-0.173,0.293-0.373,0.437-0.599c0.144-0.226,0.257-0.455,0.338-0.687
				c0.085-0.235,0.128-0.484,0.128-0.746c0-0.275-0.051-0.537-0.152-0.786c-0.101-0.252-0.253-0.453-0.456-0.603
				c-0.199-0.151-0.442-0.226-0.726-0.226c-0.291,0-0.553,0.088-0.785,0.265c-0.232,0.173-0.396,0.399-0.491,0.677
				c0.026-0.007,0.062-0.01,0.108-0.01c0.151,0,0.278,0.051,0.383,0.153c0.108,0.102,0.162,0.232,0.162,0.392
				c0,0.154-0.054,0.285-0.162,0.393c-0.105,0.105-0.232,0.157-0.383,0.157c-0.157,0-0.289-0.053-0.397-0.162
				c-0.105-0.111-0.157-0.24-0.157-0.388c0-0.252,0.048-0.487,0.142-0.706c0.095-0.222,0.231-0.418,0.407-0.589
				c0.18-0.173,0.381-0.306,0.604-0.397c0.225-0.092,0.464-0.138,0.716-0.138c0.383,0,0.739,0.082,1.07,0.246
				c0.33,0.16,0.592,0.389,0.785,0.687c0.193,0.295,0.29,0.64,0.29,1.036c0,0.291-0.064,0.568-0.191,0.829
				c-0.128,0.261-0.291,0.501-0.491,0.717c-0.199,0.212-0.455,0.455-0.765,0.726c-0.311,0.271-0.515,0.453-0.613,0.545l-1.138,1.094
				h0.967c0.474,0,0.87-0.004,1.188-0.01c0.321-0.01,0.491-0.022,0.511-0.039c0.078-0.085,0.159-0.394,0.24-0.927h0.294
				l-0.285,1.791H259.701z"/>
		</g>
		<g id="text3411">
			<path id="path54" inkscape:connector-curvature="0" d="M278.893,19.778h-7.992v-1.079h7.992V19.778z M278.893,22.607h-7.992
				v-1.078h7.992V22.607z"/>
		</g>
		<g id="text3413">
			<path id="path57" inkscape:connector-curvature="0" d="M283.707,25.047v-0.485c0.993,0,1.489-0.146,1.489-0.438v-7.581
				c0-0.292-0.496-0.438-1.489-0.438V15.62h4.265v0.485c-0.993,0-1.489,0.146-1.489,0.438v7.581c0,0.292,0.497,0.438,1.489,0.438
				v0.485H283.707z"/>
		</g>
		<g id="text3415">
			<path id="path60" inkscape:connector-curvature="0" d="M288.482,27.896v-0.353c0.837,0,1.256-0.107,1.256-0.32v-5.275
				c-0.347,0.166-0.785,0.25-1.315,0.25v-0.353c0.821,0,1.441-0.214,1.86-0.643h0.142c0.023,0,0.045,0.01,0.064,0.03
				c0.023,0.016,0.034,0.036,0.034,0.059v5.933c0,0.213,0.418,0.32,1.256,0.32v0.353H288.482z"/>
		</g>
		<g id="text3417" transform="scale(0.74825034,1.3364511)">
			<path id="path63" inkscape:connector-curvature="0" d="M402.286,28.145c-0.984-0.777-1.834-1.67-2.55-2.679
				c-0.708-1.001-1.29-2.071-1.747-3.21c-0.449-1.139-0.785-2.33-1.01-3.572c-0.225-1.242-0.336-2.489-0.336-3.74
				c0-1.268,0.112-2.524,0.336-3.766c0.224-1.242,0.565-2.437,1.022-3.585c0.466-1.148,1.056-2.222,1.773-3.223
				c0.716-1.001,1.553-1.877,2.511-2.627c0-0.034,0.043-0.052,0.129-0.052h0.246c0.052,0,0.099,0.026,0.142,0.077
				c0.043,0.043,0.065,0.095,0.065,0.155c0,0.078-0.018,0.134-0.052,0.168c-0.863,0.846-1.584,1.752-2.161,2.718
				c-0.569,0.966-1.031,1.997-1.385,3.093c-0.345,1.087-0.595,2.218-0.751,3.391c-0.155,1.165-0.233,2.381-0.233,3.65
				c0,5.617,1.501,9.884,4.504,12.8c0.052,0.052,0.078,0.125,0.078,0.22c0,0.043-0.026,0.091-0.078,0.142
				c-0.044,0.06-0.087,0.091-0.129,0.091h-0.246C402.328,28.196,402.286,28.179,402.286,28.145z"/>
		</g>
		<g id="text3419">
			<path id="path66" inkscape:connector-curvature="0" d="M306.369,14.703c-0.544,0-1.04-0.146-1.489-0.438
				c-0.449-0.296-0.8-0.685-1.051-1.166c-0.248-0.481-0.371-0.991-0.371-1.529c0-0.557,0.135-1.074,0.404-1.55
				c0.274-0.481,0.645-0.863,1.112-1.145c0.467-0.283,0.981-0.425,1.543-0.425c0.337,0,0.656,0.072,0.957,0.216
				c0.301,0.139,0.562,0.335,0.781,0.586v-2.87c0-0.247-0.038-0.425-0.114-0.532c-0.072-0.112-0.178-0.18-0.317-0.202
				c-0.134-0.027-0.347-0.041-0.64-0.041V5.121l2.042-0.148v8.322c0,0.243,0.036,0.42,0.108,0.532
				c0.076,0.108,0.182,0.175,0.317,0.202c0.139,0.022,0.355,0.034,0.646,0.034v0.485l-2.082,0.155v-0.869
				c-0.238,0.274-0.521,0.488-0.849,0.64C307.039,14.627,306.706,14.703,306.369,14.703z M304.961,13.349
				c0.157,0.301,0.366,0.541,0.626,0.721c0.265,0.179,0.553,0.269,0.863,0.269c0.381,0,0.732-0.11,1.051-0.33
				c0.319-0.22,0.557-0.505,0.714-0.856V9.845c-0.108-0.202-0.245-0.382-0.411-0.539c-0.162-0.162-0.346-0.285-0.553-0.371
				c-0.202-0.085-0.418-0.128-0.646-0.128c-0.481,0-0.867,0.137-1.159,0.411c-0.292,0.269-0.497,0.615-0.613,1.037
				c-0.117,0.422-0.176,0.865-0.176,1.328c0,0.368,0.018,0.689,0.055,0.964C304.752,12.821,304.836,13.088,304.961,13.349z"/>
		</g>
		<g id="text3421">
			<path id="path69" inkscape:connector-curvature="0" d="M311.582,17.398v-0.353c0.838,0,1.256-0.106,1.256-0.319V11.45
				c-0.346,0.167-0.784,0.25-1.315,0.25v-0.353c0.821,0,1.441-0.214,1.859-0.643h0.143c0.023,0,0.044,0.01,0.064,0.03
				c0.023,0.016,0.035,0.036,0.035,0.059v5.933c0,0.213,0.419,0.319,1.257,0.319v0.353H311.582z"/>
		</g>
		<g id="text3423">
			<path id="path72" inkscape:connector-curvature="0" d="M306.219,34.5c-0.544,0-1.04-0.146-1.489-0.438
				c-0.449-0.296-0.8-0.685-1.051-1.166c-0.247-0.481-0.37-0.99-0.37-1.529c0-0.557,0.135-1.074,0.404-1.55
				c0.275-0.481,0.645-0.863,1.112-1.146c0.467-0.283,0.982-0.424,1.543-0.424c0.337,0,0.655,0.072,0.957,0.216
				c0.301,0.139,0.562,0.334,0.781,0.586v-2.87c0-0.248-0.038-0.425-0.114-0.533c-0.072-0.113-0.177-0.18-0.317-0.202
				c-0.135-0.027-0.348-0.041-0.64-0.041v-0.485l2.042-0.149v8.322c0,0.242,0.036,0.42,0.108,0.532
				c0.076,0.108,0.182,0.175,0.317,0.202c0.139,0.022,0.355,0.033,0.646,0.033v0.485l-2.082,0.155v-0.869
				c-0.238,0.274-0.521,0.488-0.849,0.64S306.556,34.5,306.219,34.5z M304.811,33.146c0.157,0.301,0.366,0.542,0.626,0.721
				c0.265,0.179,0.553,0.269,0.863,0.269c0.381,0,0.732-0.11,1.051-0.33c0.32-0.22,0.557-0.506,0.714-0.856v-3.308
				c-0.108-0.202-0.245-0.382-0.41-0.539c-0.162-0.162-0.346-0.285-0.553-0.371c-0.202-0.085-0.418-0.128-0.646-0.128
				c-0.481,0-0.867,0.137-1.159,0.411c-0.292,0.27-0.496,0.616-0.613,1.037c-0.117,0.422-0.176,0.866-0.176,1.328
				c0,0.368,0.018,0.689,0.054,0.964C304.602,32.618,304.685,32.885,304.811,33.146z"/>
		</g>
		<g id="text3425">
			<path id="path75" inkscape:connector-curvature="0" d="M311.301,37.195v-0.27c0-0.016,0.006-0.034,0.019-0.054l1.56-1.727
				c0.235-0.255,0.427-0.47,0.574-0.643c0.148-0.173,0.293-0.373,0.437-0.599c0.144-0.226,0.257-0.455,0.339-0.687
				c0.085-0.235,0.127-0.484,0.127-0.746c0-0.275-0.051-0.536-0.152-0.784c-0.101-0.252-0.254-0.453-0.456-0.604
				c-0.2-0.15-0.441-0.225-0.726-0.225c-0.291,0-0.553,0.088-0.785,0.265c-0.232,0.174-0.396,0.399-0.491,0.677
				c0.026-0.007,0.062-0.01,0.108-0.01c0.15,0,0.278,0.051,0.383,0.152c0.108,0.101,0.162,0.232,0.162,0.393
				c0,0.154-0.054,0.284-0.162,0.392c-0.105,0.105-0.232,0.157-0.383,0.157c-0.157,0-0.29-0.054-0.398-0.162
				c-0.105-0.111-0.157-0.24-0.157-0.387c0-0.252,0.047-0.488,0.142-0.707c0.095-0.223,0.231-0.419,0.408-0.588
				c0.179-0.174,0.381-0.306,0.603-0.398c0.226-0.091,0.465-0.137,0.717-0.137c0.383,0,0.74,0.082,1.07,0.245
				c0.33,0.16,0.592,0.389,0.785,0.687c0.193,0.294,0.289,0.64,0.289,1.036c0,0.291-0.064,0.567-0.191,0.829
				c-0.128,0.262-0.291,0.501-0.491,0.716c-0.2,0.213-0.455,0.455-0.765,0.726c-0.311,0.272-0.516,0.453-0.614,0.545l-1.139,1.094
				h0.967c0.475,0,0.87-0.003,1.188-0.01c0.321-0.01,0.491-0.023,0.511-0.039c0.079-0.085,0.159-0.395,0.24-0.928h0.294
				l-0.284,1.791H311.301z"/>
		</g>
		<g id="text3427" transform="scale(0.74825034,1.3364511)">
			<path id="path78" inkscape:connector-curvature="0" d="M425.711,28.196c-0.155,0-0.233-0.078-0.233-0.233
				c0-0.078,0.017-0.134,0.052-0.168c3.02-2.951,4.53-7.235,4.53-12.852c0-5.617-1.492-9.884-4.478-12.8
				c-0.069-0.043-0.104-0.116-0.104-0.22c0-0.06,0.022-0.112,0.065-0.155c0.052-0.052,0.108-0.077,0.168-0.077h0.246
				c0.052,0,0.095,0.017,0.129,0.052c1.268,1.001,2.326,2.218,3.171,3.65c0.845,1.432,1.463,2.959,1.851,4.582
				c0.397,1.622,0.595,3.279,0.595,4.97c0,1.251-0.108,2.485-0.324,3.702c-0.207,1.207-0.544,2.398-1.009,3.572
				c-0.457,1.182-1.039,2.269-1.747,3.261c-0.708,1.001-1.553,1.89-2.537,2.667c-0.035,0.034-0.078,0.052-0.129,0.052H425.711z"/>
		</g>
		<g id="text3429">
			<path id="path81" inkscape:connector-curvature="0" d="M324.501,8.099v-0.27c0-0.016,0.007-0.034,0.019-0.054l1.56-1.727
				c0.236-0.255,0.427-0.47,0.574-0.643c0.147-0.173,0.293-0.373,0.437-0.599c0.143-0.226,0.257-0.455,0.338-0.687
				c0.085-0.235,0.128-0.484,0.128-0.746c0-0.275-0.051-0.536-0.152-0.785c-0.102-0.252-0.254-0.453-0.456-0.603
				c-0.2-0.151-0.442-0.226-0.726-0.226c-0.292,0-0.553,0.088-0.786,0.265c-0.232,0.173-0.396,0.399-0.49,0.677
				c0.026-0.007,0.062-0.01,0.108-0.01c0.151,0,0.278,0.051,0.383,0.152c0.108,0.101,0.162,0.232,0.162,0.393
				c0,0.154-0.054,0.285-0.162,0.393c-0.104,0.105-0.232,0.157-0.383,0.157c-0.157,0-0.289-0.054-0.397-0.162
				c-0.105-0.111-0.157-0.24-0.157-0.388c0-0.252,0.047-0.487,0.142-0.707c0.095-0.222,0.231-0.419,0.407-0.589
				c0.18-0.173,0.381-0.306,0.603-0.398c0.226-0.092,0.464-0.137,0.717-0.137c0.383,0,0.739,0.082,1.07,0.245
				c0.33,0.16,0.592,0.389,0.786,0.687c0.192,0.294,0.289,0.639,0.289,1.035c0,0.291-0.064,0.568-0.191,0.83
				c-0.128,0.262-0.292,0.501-0.491,0.716c-0.199,0.213-0.455,0.455-0.766,0.726c-0.311,0.271-0.515,0.453-0.613,0.545l-1.139,1.094
				h0.967c0.474,0,0.87-0.003,1.188-0.01c0.32-0.01,0.491-0.023,0.51-0.039c0.079-0.085,0.159-0.394,0.241-0.928h0.294l-0.284,1.791
				H324.501z"/>
		</g>
		<g id="text3431">
		</g>
	</g>
</g>
</svg>
