<?xml version="1.0" encoding="UTF-8" standalone="no"?>
<!-- Created with Inkscape (http://www.inkscape.org/) -->

<svg
   xmlns:dc="http://purl.org/dc/elements/1.1/"
   xmlns:cc="http://creativecommons.org/ns#"
   xmlns:rdf="http://www.w3.org/1999/02/22-rdf-syntax-ns#"
   xmlns:svg="http://www.w3.org/2000/svg"
   xmlns="http://www.w3.org/2000/svg"
   xmlns:sodipodi="http://sodipodi.sourceforge.net/DTD/sodipodi-0.dtd"
   xmlns:inkscape="http://www.inkscape.org/namespaces/inkscape"
   version="1.2"
   width="320"
   height="60"
   id="svg3020"
   inkscape:version="0.48.3.1 r9886"
   sodipodi:docname="eqn_conv_07.svg">
  <sodipodi:namedview
     pagecolor="#ffffff"
     bordercolor="#666666"
     borderopacity="1"
     objecttolerance="10"
     gridtolerance="10"
     guidetolerance="10"
     inkscape:pageopacity="0"
     inkscape:pageshadow="2"
     inkscape:window-width="640"
     inkscape:window-height="480"
     id="namedview3977"
     showgrid="false"
     inkscape:zoom="0.871875"
     inkscape:cx="160"
     inkscape:cy="30"
     inkscape:window-x="0"
     inkscape:window-y="0"
     inkscape:window-maximized="0"
     inkscape:current-layer="svg3020" />
  <metadata
     id="metadata3026">
    <rdf:RDF>
      <cc:Work
         rdf:about="">
        <dc:format>image/svg+xml</dc:format>
        <dc:type
           rdf:resource="http://purl.org/dc/dcmitype/StillImage" />
        <dc:title />
      </cc:Work>
    </rdf:RDF>
  </metadata>
  <defs
     id="defs3024" />
  <text
     x="44.56657"
     y="42.23513"
     transform="scale(0.95814898,1.043679)"
     id="text3030"
     xml:space="preserve"
     style="font-size:41.02812958px;font-style:normal;font-variant:normal;font-weight:normal;font-stretch:normal;line-height:125%;letter-spacing:0px;word-spacing:0px;fill:#000000;fill-opacity:1;font-family:Cambria Math;-inkscape-font-specification:Cambria Math"><tspan
       x="44.56657"
       y="42.23513"
       id="tspan3032" /></text>
  <g
     style="font-size:24px;font-style:normal;font-variant:normal;font-weight:normal;font-stretch:normal;text-align:center;line-height:125%;letter-spacing:0px;word-spacing:0px;text-anchor:middle;fill:#ffffff;fill-opacity:1;font-family:cmr10;-inkscape-font-specification:cmr10"
     id="text3015">
    <path
       d="m 143.61725,38.504845 c -1.52345,-1e-6 -2.89259,-0.404297 -4.10742,-1.212891 -1.21485,-0.808592 -2.16602,-1.88281 -2.85352,-3.222656 -0.6875,-1.339839 -1.03125,-2.74804 -1.03125,-4.22461 0,-1.09374 0.19727,-2.175771 0.5918,-3.246093 0.39453,-1.0703 0.94531,-2.019518 1.65234,-2.847657 0.70703,-0.82811 1.55664,-1.484359 2.54883,-1.96875 0.99218,-0.484358 2.05859,-0.726545 3.19922,-0.726562 1.1328,1.7e-5 2.19725,0.244157 3.19336,0.732422 0.99608,0.488297 1.84959,1.150405 2.56054,1.986328 0.71093,0.835951 1.2578,1.77345 1.64063,2.8125 0.3828,1.039073 0.5742,2.125009 0.57422,3.257812 -2e-5,1.47657 -0.34377,2.884771 -1.03125,4.22461 -0.68752,1.339846 -1.64064,2.414064 -2.85938,3.222656 -1.21876,0.808594 -2.57813,1.21289 -4.07812,1.212891 z m -3.98438,-3.117188 c 0.46875,0.734377 1.04687,1.318361 1.73438,1.751953 0.68749,0.433594 1.43749,0.650391 2.25,0.650391 0.52343,0 1.0371,-0.105469 1.54101,-0.316406 0.5039,-0.210937 0.96093,-0.499999 1.3711,-0.867188 0.41014,-0.367186 0.75975,-0.773435 1.04883,-1.21875 0.95311,-1.437496 1.42967,-3.414056 1.42968,-5.929687 -1e-5,-2.304677 -0.47657,-4.128894 -1.42968,-5.472657 -0.46877,-0.67186 -1.05275,-1.210922 -1.75196,-1.617187 -0.69923,-0.406234 -1.43555,-0.609359 -2.20898,-0.609375 -0.78126,1.6e-5 -1.52345,0.203141 -2.22656,0.609375 -0.70314,0.406265 -1.28907,0.945327 -1.75782,1.617187 -0.375,0.523451 -0.66602,1.080091 -0.87304,1.669922 -0.20704,0.589856 -0.35352,1.201183 -0.43946,1.833985 -0.0859,0.632822 -0.12891,1.289071 -0.1289,1.96875 -1e-5,0.72657 0.041,1.435554 0.12304,2.126953 0.082,0.691412 0.23437,1.369145 0.45704,2.033203 0.22265,0.664066 0.50976,1.253909 0.86132,1.769531 z"
       style="fill:#ffffff"
       id="path3980" />
    <path
       d="m 153.67194,37.977501 0,-0.84375 c 1.64843,1e-6 2.47265,-0.253905 2.47265,-0.761719 l 0,-13.183594 c 0,-0.507797 -0.82422,-0.761703 -2.47265,-0.761718 l 0,-0.84375 13.57031,0 0.66797,5.496093 -0.69141,0 c -0.17189,-1.3828 -0.41212,-2.386705 -0.7207,-3.011718 -0.30861,-0.624986 -0.80275,-1.054673 -1.48242,-1.289063 -0.6797,-0.234359 -1.69923,-0.351547 -3.0586,-0.351562 l -2.35547,0 c -0.28907,1.5e-5 -0.51367,0.01173 -0.67382,0.03516 -0.16017,0.02345 -0.29103,0.09181 -0.39258,0.205078 -0.10157,0.113296 -0.15235,0.287124 -0.15235,0.521484 l 0,5.859375 1.76953,0 c 0.8125,9e-6 1.41992,-0.06835 1.82227,-0.205078 0.40233,-0.136709 0.67968,-0.398428 0.83203,-0.785156 0.15234,-0.386708 0.22851,-0.990223 0.22852,-1.810547 l 0.70312,0 0,6.445313 -0.70312,0 c -1e-5,-0.812494 -0.0762,-1.414056 -0.22852,-1.804688 -0.15235,-0.390617 -0.4297,-0.654289 -0.83203,-0.791015 -0.40235,-0.136711 -1.00977,-0.20507 -1.82227,-0.205079 l -1.76953,0 0,6.480469 c 0,0.343751 0.0977,0.556642 0.29297,0.638672 0.19531,0.08203 0.5039,0.123048 0.92578,0.123047 l 2.54297,0 c 1.10937,1e-6 2.00585,-0.08789 2.68946,-0.263672 0.68358,-0.17578 1.21483,-0.468748 1.59375,-0.878906 0.37889,-0.410154 0.67186,-0.941404 0.8789,-1.59375 0.20702,-0.65234 0.40038,-1.556636 0.58008,-2.712891 l 0.69141,0 -1.00782,6.292969 z"
       style="fill:#ffffff"
       id="path3982" />
    <path
       d="m 169.98444,37.977501 0,-0.84375 c 1.64843,1e-6 2.47265,-0.253905 2.47265,-0.761719 l 0,-13.183594 c 0,-0.507797 -0.82422,-0.761703 -2.47265,-0.761718 l 0,-0.84375 7.78125,0 0,0.84375 c -2.04689,1.5e-5 -3.07032,0.253921 -3.07032,0.761718 l 0,13.183594 c 0,0.343751 0.0977,0.556642 0.29297,0.638672 0.19531,0.08203 0.5039,0.123048 0.92578,0.123047 l 1.85157,0 c 1.1953,1e-6 2.11717,-0.218749 2.76562,-0.65625 0.64843,-0.437498 1.10741,-1.033201 1.37695,-1.787109 0.26952,-0.753903 0.4746,-1.755855 0.61524,-3.00586 l 0.6914,0 -0.66796,6.292969 z"
       style="fill:#ffffff"
       id="path3984" />
  </g>
</svg>
