<?xml version="1.0" encoding="UTF-8" standalone="no"?>
<!-- Created with Inkscape (http://www.inkscape.org/) -->

<svg
   xmlns:dc="http://purl.org/dc/elements/1.1/"
   xmlns:cc="http://creativecommons.org/ns#"
   xmlns:rdf="http://www.w3.org/1999/02/22-rdf-syntax-ns#"
   xmlns:svg="http://www.w3.org/2000/svg"
   xmlns="http://www.w3.org/2000/svg"
   version="1.2"
   width="320"
   height="60"
   id="svg3020">
  <metadata
     id="metadata3026">
    <rdf:RDF>
      <cc:Work
         rdf:about="">
        <dc:format>image/svg+xml</dc:format>
        <dc:type
           rdf:resource="http://purl.org/dc/dcmitype/StillImage" />
        <dc:title></dc:title>
      </cc:Work>
    </rdf:RDF>
  </metadata>
  <defs
     id="defs3024" />
  <text
     x="44.56657"
     y="42.23513"
     transform="scale(0.95814898,1.043679)"
     id="text3030"
     xml:space="preserve"
     style="font-size:41.02812958px;font-style:normal;font-variant:normal;font-weight:normal;font-stretch:normal;line-height:125%;letter-spacing:0px;word-spacing:0px;fill:#000000;fill-opacity:1;stroke:none;font-family:Cambria Math;-inkscape-font-specification:Cambria Math"><tspan
       x="44.56657"
       y="42.23513"
       id="tspan3032" /></text>
  <g
     id="text2991"
     style="font-size:20px;font-style:normal;font-variant:normal;font-weight:normal;font-stretch:normal;text-align:center;line-height:125%;letter-spacing:0px;word-spacing:0px;text-anchor:middle;fill:#ffffff;fill-opacity:1;stroke:#f9f9f9;font-family:cmr10;-inkscape-font-specification:cmr10">
    <path
       d="m 147.53638,38.618664 c -1.26954,-1e-6 -2.41049,-0.336914 -3.42285,-1.010742 -1.01238,-0.673827 -1.80502,-1.569009 -2.37793,-2.685547 -0.57292,-1.116532 -0.85938,-2.290034 -0.85938,-3.520508 0,-0.911451 0.16439,-1.813143 0.49316,-2.705078 0.32878,-0.891917 0.78776,-1.682932 1.37696,-2.373047 0.58919,-0.690092 1.29719,-1.236966 2.12402,-1.640625 0.82682,-0.403632 1.71549,-0.605455 2.66602,-0.605469 0.944,1.4e-5 1.83104,0.203465 2.66113,0.610352 0.83007,0.406914 1.54133,0.958671 2.13379,1.655273 0.59243,0.696626 1.04816,1.477875 1.36719,2.34375 0.31899,0.865894 0.4785,1.770841 0.47851,2.714844 -1e-5,1.230474 -0.28647,2.403976 -0.85937,3.520508 -0.57293,1.116538 -1.3672,2.01172 -2.38282,2.685547 -1.01563,0.673828 -2.14844,1.010741 -3.39843,1.010742 z m -3.32032,-2.597656 c 0.39062,0.61198 0.87239,1.098633 1.44532,1.45996 0.57291,0.361329 1.19791,0.541993 1.875,0.541993 0.43619,0 0.86425,-0.08789 1.28418,-0.263672 0.41991,-0.175781 0.80077,-0.416666 1.14257,-0.722656 0.34179,-0.305989 0.63313,-0.64453 0.87403,-1.015625 0.79426,-1.197914 1.19139,-2.845048 1.1914,-4.941407 -1e-5,-1.920564 -0.39714,-3.440744 -1.1914,-4.560547 -0.39064,-0.559883 -0.87729,-1.009102 -1.45996,-1.347656 -0.58269,-0.338528 -1.1963,-0.507799 -1.84082,-0.507812 -0.65105,1.3e-5 -1.26954,0.169284 -1.85547,0.507812 -0.58594,0.338554 -1.07423,0.787773 -1.46485,1.347656 -0.3125,0.43621 -0.55501,0.900076 -0.72753,1.391602 -0.17253,0.491546 -0.2946,1.000986 -0.36622,1.52832 -0.0716,0.527352 -0.10742,1.074227 -0.10742,1.640625 0,0.605476 0.0342,1.196295 0.10254,1.772461 0.0684,0.576177 0.19531,1.140955 0.38086,1.694336 0.18554,0.553389 0.4248,1.044925 0.71777,1.47461 z"
       id="path3156"
       style="fill:#ffffff;stroke:#f9f9f9" />
    <path
       d="m 155.91528,38.179211 0,-0.703125 c 1.3737,0 2.06055,-0.211588 2.06055,-0.634766 l 0,-10.986328 c 0,-0.423164 -0.68685,-0.634753 -2.06055,-0.634766 l 0,-0.703125 11.3086,0 0.55664,4.580078 -0.57617,0 c -0.14325,-1.152333 -0.34344,-1.988921 -0.60059,-2.509765 -0.25717,-0.520821 -0.66896,-0.878894 -1.23535,-1.074219 -0.56642,-0.1953 -1.41603,-0.292956 -2.54883,-0.292969 l -1.96289,0 c -0.24089,1.3e-5 -0.42807,0.0098 -0.56152,0.0293 -0.13347,0.01954 -0.24252,0.07651 -0.32715,0.170899 -0.0846,0.09441 -0.12696,0.23927 -0.12696,0.43457 l 0,4.882812 1.47461,0 c 0.67708,8e-6 1.18326,-0.05696 1.51856,-0.170898 0.33528,-0.113925 0.5664,-0.332023 0.69336,-0.654297 0.12694,-0.322257 0.19042,-0.825186 0.19043,-1.508789 l 0.58594,0 0,5.371094 -0.58594,0 c -1e-5,-0.677078 -0.0635,-1.17838 -0.19043,-1.503906 -0.12696,-0.325515 -0.35808,-0.545241 -0.69336,-0.65918 -0.3353,-0.113926 -0.84148,-0.170892 -1.51856,-0.170899 l -1.47461,0 0,5.400391 c 0,0.286459 0.0814,0.463868 0.24415,0.532227 0.16275,0.06836 0.41991,0.102539 0.77148,0.102539 l 2.11914,0 c 0.92447,0 1.67154,-0.07324 2.24121,-0.219727 0.56965,-0.146483 1.01236,-0.390624 1.32813,-0.732422 0.31574,-0.341795 0.55988,-0.784503 0.73242,-1.328125 0.17251,-0.543616 0.33364,-1.297196 0.4834,-2.260742 l 0.57617,0 -0.83985,5.244141 z"
       id="path3158"
       style="fill:#ffffff;stroke:#f9f9f9" />
    <path
       d="m 169.50903,38.179211 0,-0.703125 c 1.3737,0 2.06055,-0.211588 2.06055,-0.634766 l 0,-10.986328 c 0,-0.423164 -0.68685,-0.634753 -2.06055,-0.634766 l 0,-0.703125 6.48438,0 0,0.703125 c -1.70574,1.3e-5 -2.5586,0.211602 -2.5586,0.634766 l 0,10.986328 c 0,0.286459 0.0814,0.463868 0.24415,0.532227 0.16275,0.06836 0.41991,0.102539 0.77148,0.102539 l 1.54297,0 c 0.99608,0 1.76431,-0.182291 2.30469,-0.546875 0.54035,-0.364582 0.92284,-0.861001 1.14746,-1.489258 0.2246,-0.628252 0.39549,-1.463212 0.51269,-2.504883 l 0.57617,0 -0.55664,5.244141 z"
       id="path3160"
       style="fill:#ffffff;stroke:#f9f9f9" />
  </g>
</svg>
