<?xml version="1.0" encoding="utf-8"?>
<!-- Generator: Adobe Illustrator 16.0.0, SVG Export Plug-In . SVG Version: 6.00 Build 0)  -->
<!DOCTYPE svg PUBLIC "-//W3C//DTD SVG 1.1//EN" "http://www.w3.org/Graphics/SVG/1.1/DTD/svg11.dtd">
<svg version="1.1"
	 id="svg3020" xmlns:dc="http://purl.org/dc/elements/1.1/" xmlns:cc="http://creativecommons.org/ns#" xmlns:rdf="http://www.w3.org/1999/02/22-rdf-syntax-ns#" xmlns:svg="http://www.w3.org/2000/svg" xmlns:inkscape="http://www.inkscape.org/namespaces/inkscape"
	 xmlns="http://www.w3.org/2000/svg" xmlns:xlink="http://www.w3.org/1999/xlink" x="0px" y="0px" width="575px" height="60px"
	 viewBox="0 0 320 60" enable-background="new 0 0 320 60" xml:space="preserve">
<g id="text3030" transform="scale(0.95814898,1.043679)">
</g>
<g id="g3009" transform="matrix(1.4688253,0,0,1.4688253,-277.70507,-0.75165246)">
	<g id="flowRoot3055" transform="matrix(0.68081616,0,0,0.68081616,189.0661,0.51173714)">
	</g>
	<g id="flowRoot3063" transform="matrix(0.68081616,0,0,0.68081616,189.0661,0.51173714)">
	</g>
	<path id="path3142" inkscape:connector-curvature="0" fill="none" stroke="#000000" stroke-width="0.797" d="M294.682,28.545
		h50.394"/>
	<g id="g3156" transform="matrix(0.90120608,0,0,0.90120608,34.88255,-0.12424809)">
		<g id="text3158">
			<path id="path48" inkscape:connector-curvature="0" d="M234.21,26.151v-0.485c0.463,0,0.912-0.025,1.347-0.074
				c0.436-0.055,0.654-0.176,0.654-0.364v-7.58c0-0.198-0.056-0.319-0.169-0.364c-0.108-0.049-0.285-0.074-0.532-0.074h-0.579
				c-0.759,0-1.298,0.166-1.617,0.498c-0.166,0.166-0.285,0.434-0.357,0.802c-0.072,0.364-0.132,0.822-0.182,1.375h-0.398
				l0.263-3.16h8.429l0.263,3.16h-0.404c-0.054-0.593-0.114-1.062-0.182-1.408c-0.063-0.35-0.18-0.606-0.35-0.768
				c-0.324-0.332-0.862-0.498-1.617-0.498h-0.579c-0.166,0-0.297,0.007-0.391,0.02c-0.09,0.013-0.164,0.054-0.222,0.121
				c-0.059,0.063-0.088,0.162-0.088,0.297v7.58c0,0.189,0.218,0.31,0.654,0.364c0.436,0.049,0.883,0.074,1.341,0.074v0.485H234.21z"
				/>
		</g>
		<g id="text3160">
			<path id="path51" inkscape:connector-curvature="0" d="M255.332,20.062h-7.992v-1.078h7.992V20.062z M255.332,22.892h-7.992
				v-1.078h7.992V22.892z"/>
		</g>
		<g id="text3162">
			<path id="path54" inkscape:connector-curvature="0" d="M302.379,9.014c0-0.553,0.182-1.04,0.546-1.462
				c0.364-0.427,0.831-0.782,1.402-1.065l-0.512-0.33c-0.314-0.207-0.571-0.481-0.769-0.822c-0.197-0.346-0.296-0.707-0.296-1.085
				c0-0.44,0.114-0.838,0.343-1.193c0.235-0.355,0.542-0.633,0.924-0.836c0.387-0.203,0.797-0.304,1.233-0.304
				c0.409,0,0.801,0.083,1.179,0.249c0.382,0.166,0.693,0.404,0.937,0.715c0.246,0.31,0.37,0.678,0.37,1.105
				c0,0.31-0.074,0.597-0.223,0.862c-0.143,0.265-0.344,0.503-0.599,0.714c-0.252,0.211-0.522,0.391-0.809,0.539l0.788,0.505
				c0.364,0.238,0.656,0.55,0.876,0.937c0.224,0.386,0.336,0.793,0.336,1.22c0,0.499-0.134,0.952-0.404,1.361
				c-0.265,0.409-0.617,0.726-1.058,0.95c-0.44,0.225-0.905,0.337-1.394,0.337c-0.477,0-0.937-0.097-1.382-0.29
				c-0.44-0.193-0.8-0.472-1.078-0.836C302.516,9.919,302.379,9.494,302.379,9.014z M303.127,9.014c0,0.364,0.099,0.696,0.297,0.997
				c0.202,0.301,0.468,0.537,0.795,0.708c0.328,0.17,0.671,0.256,1.031,0.256c0.534,0,1.02-0.155,1.455-0.465
				c0.436-0.314,0.654-0.73,0.654-1.246c0-0.175-0.035-0.348-0.108-0.519c-0.068-0.175-0.164-0.332-0.29-0.471
				c-0.121-0.144-0.258-0.261-0.411-0.35l-1.853-1.2c-0.288,0.153-0.552,0.346-0.795,0.579c-0.238,0.233-0.426,0.496-0.565,0.788
				C303.197,8.382,303.127,8.69,303.127,9.014z M304.077,4.802l1.672,1.078c0.386-0.225,0.702-0.496,0.949-0.816
				c0.247-0.319,0.371-0.678,0.371-1.078c0-0.31-0.089-0.593-0.263-0.849c-0.171-0.26-0.395-0.463-0.674-0.606
				c-0.279-0.144-0.577-0.216-0.896-0.216c-0.278,0-0.559,0.054-0.842,0.162c-0.283,0.108-0.517,0.269-0.701,0.485
				c-0.184,0.211-0.277,0.46-0.277,0.748C303.417,4.142,303.638,4.506,304.077,4.802z"/>
		</g>
		<g id="text3164">
			<path id="path57" inkscape:connector-curvature="0" d="M261.987,37.381v-0.37c0-0.023,0.009-0.047,0.027-0.075l2.143-2.372
				c0.324-0.35,0.586-0.645,0.789-0.882c0.202-0.238,0.402-0.512,0.599-0.823c0.198-0.31,0.353-0.624,0.465-0.944
				c0.117-0.323,0.175-0.664,0.175-1.024c0-0.377-0.07-0.736-0.209-1.078c-0.139-0.346-0.348-0.622-0.627-0.828
				c-0.274-0.207-0.606-0.311-0.997-0.311c-0.4,0-0.759,0.122-1.078,0.364c-0.319,0.238-0.543,0.549-0.674,0.93
				c0.036-0.009,0.086-0.014,0.148-0.014c0.207,0,0.382,0.07,0.526,0.21c0.148,0.139,0.222,0.319,0.222,0.539
				c0,0.211-0.074,0.391-0.222,0.539c-0.143,0.144-0.319,0.216-0.526,0.216c-0.215,0-0.397-0.074-0.546-0.223
				c-0.144-0.153-0.216-0.331-0.216-0.533c0-0.345,0.065-0.669,0.195-0.97c0.13-0.305,0.316-0.575,0.559-0.809
				c0.247-0.238,0.523-0.42,0.829-0.545c0.31-0.126,0.638-0.189,0.984-0.189c0.526,0,1.015,0.112,1.469,0.336
				c0.454,0.22,0.813,0.535,1.078,0.944c0.265,0.404,0.398,0.879,0.398,1.422c0,0.4-0.088,0.779-0.263,1.139
				c-0.175,0.359-0.4,0.688-0.674,0.984c-0.274,0.291-0.624,0.624-1.051,0.997s-0.707,0.622-0.842,0.748l-1.563,1.503h1.328
				c0.651,0,1.195-0.004,1.631-0.013c0.44-0.014,0.674-0.032,0.701-0.055c0.108-0.117,0.218-0.542,0.331-1.273h0.404l-0.391,2.46
				H261.987z"/>
		</g>
		<g id="text3166">
			<path id="path60" inkscape:connector-curvature="0" d="M273.25,31.693c-0.103,0-0.198-0.042-0.283-0.128
				c-0.081-0.09-0.121-0.189-0.121-0.297c0-0.153,0.065-0.263,0.195-0.331l1.988-0.943l-1.988-0.924
				c-0.13-0.067-0.195-0.177-0.195-0.331c0-0.117,0.041-0.218,0.121-0.302c0.081-0.086,0.175-0.128,0.283-0.128
				c0.072,0,0.139,0.025,0.202,0.074l1.752,1.281l-0.202-2.237l-0.014-0.027c0-0.103,0.041-0.191,0.121-0.263
				c0.085-0.072,0.182-0.108,0.29-0.108c0.099,0,0.189,0.034,0.27,0.102c0.085,0.067,0.128,0.157,0.128,0.269v0.027l-0.215,2.237
				l1.752-1.281c0.063-0.049,0.13-0.074,0.202-0.074c0.112,0,0.207,0.043,0.283,0.128c0.081,0.085,0.121,0.186,0.121,0.302
				c0,0.153-0.065,0.263-0.195,0.331l-1.987,0.924l1.987,0.943c0.13,0.068,0.195,0.177,0.195,0.331c0,0.108-0.041,0.207-0.121,0.297
				c-0.076,0.086-0.17,0.128-0.283,0.128c-0.076,0-0.144-0.023-0.202-0.067l-1.752-1.281l0.215,2.231v0.027
				c0,0.108-0.043,0.198-0.128,0.27c-0.081,0.072-0.171,0.108-0.27,0.108c-0.108,0-0.204-0.036-0.29-0.108
				c-0.081-0.077-0.121-0.167-0.121-0.27l0.014-0.027l0.202-2.231l-1.752,1.281C273.399,31.671,273.331,31.693,273.25,31.693z"/>
		</g>
		<g id="text3168">
			<path id="path63" inkscape:connector-curvature="0" d="M287.812,43.377c-0.897-0.708-1.672-1.523-2.325-2.443
				c-0.645-0.913-1.176-1.889-1.594-2.927c-0.409-1.039-0.716-2.125-0.921-3.258c-0.204-1.133-0.307-2.271-0.307-3.411
				c0-1.157,0.102-2.302,0.307-3.435c0.205-1.133,0.516-2.224,0.933-3.27c0.425-1.047,0.964-2.027,1.617-2.939
				c0.653-0.913,1.416-1.712,2.29-2.396c0-0.032,0.039-0.047,0.118-0.047h0.224c0.047,0,0.091,0.024,0.13,0.071
				c0.039,0.039,0.059,0.086,0.059,0.142c0,0.071-0.015,0.122-0.047,0.153c-0.787,0.771-1.444,1.597-1.971,2.479
				c-0.519,0.881-0.94,1.821-1.263,2.821c-0.315,0.992-0.543,2.022-0.685,3.093c-0.142,1.062-0.212,2.172-0.212,3.329
				c0,5.123,1.369,9.014,4.108,11.674c0.047,0.047,0.071,0.114,0.071,0.201c0,0.039-0.024,0.083-0.071,0.13
				c-0.039,0.055-0.079,0.083-0.118,0.083h-0.224C287.852,43.424,287.812,43.408,287.812,43.377z"/>
		</g>
		<g id="text3170">
			<path id="path66" inkscape:connector-curvature="0" d="M289.225,29.469v-3.221c0-0.072,0.041-0.108,0.121-0.108h0.169
				c0.027,0,0.052,0.012,0.074,0.034c0.022,0.022,0.034,0.047,0.034,0.074c0,0.903,0.278,1.604,0.835,2.103
				c0.561,0.494,1.296,0.741,2.204,0.741c0.319,0,0.613-0.092,0.882-0.277c0.27-0.184,0.479-0.424,0.627-0.721
				c0.152-0.301,0.229-0.611,0.229-0.93c0-0.279-0.056-0.548-0.168-0.809c-0.112-0.264-0.274-0.494-0.485-0.687
				s-0.449-0.321-0.714-0.384l-1.792-0.437c-0.593-0.157-1.078-0.479-1.456-0.964c-0.373-0.489-0.559-1.037-0.559-1.644
				c0-0.476,0.121-0.923,0.364-1.341c0.242-0.418,0.568-0.748,0.977-0.99c0.414-0.243,0.858-0.364,1.334-0.364
				c0.921,0,1.653,0.312,2.197,0.937l0.566-0.896c0.027-0.027,0.059-0.041,0.094-0.041h0.094c0.027,0,0.052,0.011,0.074,0.034
				c0.027,0.018,0.041,0.045,0.041,0.081v3.201c0,0.081-0.038,0.121-0.114,0.121h-0.162c-0.085,0-0.128-0.041-0.128-0.121
				c0-0.234-0.041-0.49-0.121-0.768c-0.076-0.279-0.184-0.546-0.324-0.802c-0.139-0.256-0.289-0.465-0.452-0.626
				c-0.444-0.449-1.033-0.674-1.765-0.674c-0.315,0-0.604,0.081-0.869,0.242c-0.265,0.158-0.476,0.373-0.633,0.647
				c-0.157,0.274-0.236,0.561-0.236,0.862c0,0.395,0.121,0.755,0.364,1.078c0.247,0.319,0.568,0.53,0.964,0.633l1.792,0.438
				c0.297,0.072,0.575,0.202,0.835,0.391c0.266,0.184,0.485,0.4,0.661,0.646c0.175,0.247,0.311,0.524,0.41,0.829
				c0.099,0.301,0.149,0.613,0.149,0.937c0,0.498-0.115,0.969-0.344,1.415c-0.229,0.44-0.553,0.795-0.971,1.064
				c-0.413,0.27-0.866,0.404-1.36,0.404c-0.305,0-0.618-0.033-0.937-0.1c-0.319-0.068-0.613-0.171-0.883-0.31
				c-0.27-0.14-0.515-0.319-0.734-0.539l-0.58,0.91c-0.027,0.027-0.061,0.04-0.101,0.04h-0.081
				C289.265,29.577,289.225,29.541,289.225,29.469z"/>
			<path id="path68" inkscape:connector-curvature="0" d="M296.563,29.274v-0.485c0.948,0,1.422-0.146,1.422-0.438v-7.58
				c0-0.292-0.474-0.438-1.422-0.438v-0.485h4.912c0.503,0,1.006,0.103,1.509,0.31c0.503,0.207,0.916,0.508,1.24,0.903
				c0.328,0.395,0.492,0.856,0.492,1.381c0,0.512-0.164,0.961-0.492,1.348c-0.328,0.386-0.741,0.681-1.24,0.883
				c-0.499,0.197-1.002,0.296-1.509,0.296h-2.21v3.383c0,0.292,0.474,0.438,1.422,0.438v0.485H296.563z M299.225,24.557h1.873
				c0.508,0,0.918-0.072,1.233-0.215c0.315-0.148,0.544-0.375,0.688-0.681c0.148-0.31,0.223-0.716,0.223-1.219
				c0-0.75-0.167-1.289-0.499-1.617c-0.328-0.328-0.876-0.492-1.644-0.492h-1.172c-0.167,0-0.297,0.007-0.391,0.02
				c-0.09,0.014-0.164,0.054-0.223,0.121c-0.058,0.063-0.087,0.162-0.087,0.297V24.557z"/>
			<path id="path70" inkscape:connector-curvature="0" d="M305.909,29.274v-0.485c0.949,0,1.422-0.146,1.422-0.438v-7.58
				c0-0.292-0.474-0.438-1.422-0.438v-0.485h4.474v0.485c-1.177,0-1.765,0.146-1.765,0.438v7.58c0,0.198,0.056,0.322,0.168,0.37
				c0.113,0.046,0.291,0.068,0.533,0.068h1.065c0.688,0,1.218-0.125,1.591-0.378c0.373-0.251,0.635-0.593,0.789-1.024
				c0.156-0.435,0.276-1.013,0.357-1.731h0.397l-0.384,3.619H305.909z"/>
		</g>
		<g id="text3172">
			<path id="path73" inkscape:connector-curvature="0" d="M323.108,25.494h-4.204v-1.22h4.204V25.494z"/>
		</g>
		<g id="text3174">
			<path id="path76" inkscape:connector-curvature="0" d="M329.757,28.694c0.251,0.297,0.689,0.445,1.313,0.445
				c0.351,0,0.677-0.119,0.978-0.357c0.305-0.238,0.542-0.53,0.707-0.876c0.193-0.391,0.317-0.807,0.37-1.247
				c0.055-0.445,0.081-0.995,0.081-1.651c-0.157,0.373-0.384,0.679-0.68,0.916c-0.292,0.238-0.629,0.357-1.011,0.357
				c-0.535,0-1.014-0.143-1.436-0.431c-0.418-0.292-0.739-0.674-0.964-1.146c-0.224-0.476-0.336-0.982-0.336-1.516
				c0-0.553,0.125-1.067,0.377-1.543c0.252-0.481,0.6-0.861,1.044-1.139c0.446-0.283,0.95-0.425,1.517-0.425
				c0.556,0,1.022,0.153,1.394,0.458c0.378,0.301,0.665,0.692,0.863,1.172c0.197,0.476,0.334,0.982,0.41,1.516
				c0.081,0.535,0.122,1.063,0.122,1.584c0,0.71-0.131,1.435-0.391,2.176c-0.26,0.737-0.651,1.352-1.172,1.847
				c-0.516,0.494-1.141,0.741-1.874,0.741c-0.543,0-1.003-0.128-1.381-0.384c-0.377-0.256-0.566-0.643-0.566-1.159
				c0-0.189,0.063-0.346,0.189-0.471c0.131-0.131,0.29-0.195,0.479-0.195c0.184,0,0.339,0.065,0.465,0.195
				c0.13,0.125,0.195,0.283,0.195,0.471c0,0.179-0.065,0.334-0.195,0.465c-0.131,0.131-0.285,0.195-0.465,0.195H329.757z
				 M331.569,25.918c0.378,0,0.685-0.126,0.924-0.377c0.242-0.257,0.418-0.573,0.525-0.95c0.108-0.378,0.162-0.753,0.162-1.125
				v-0.263v-0.054c0-0.692-0.102-1.309-0.304-1.853c-0.202-0.544-0.588-0.816-1.158-0.816c-0.364,0-0.661,0.081-0.89,0.243
				c-0.224,0.157-0.391,0.368-0.499,0.633c-0.108,0.265-0.177,0.548-0.209,0.849c-0.027,0.301-0.041,0.629-0.041,0.984
				c0,0.521,0.025,0.966,0.074,1.334c0.05,0.369,0.184,0.694,0.404,0.978C330.779,25.779,331.116,25.918,331.569,25.918z"/>
			<path id="path78" inkscape:connector-curvature="0" d="M338.55,29.577c-1.128,0-1.895-0.462-2.304-1.388
				c-0.404-0.93-0.606-2.035-0.606-3.315c0-0.8,0.071-1.553,0.215-2.258c0.148-0.705,0.438-1.303,0.869-1.792
				c0.435-0.494,1.045-0.741,1.826-0.741c0.606,0,1.103,0.148,1.49,0.444c0.386,0.297,0.68,0.681,0.882,1.152
				c0.202,0.467,0.339,0.97,0.411,1.509c0.077,0.534,0.114,1.096,0.114,1.685c0,0.79-0.074,1.532-0.222,2.224
				c-0.144,0.687-0.429,1.273-0.856,1.759C339.942,29.337,339.336,29.577,338.55,29.577z M338.55,29.22
				c0.512,0,0.894-0.263,1.146-0.788c0.252-0.525,0.406-1.107,0.465-1.746c0.058-0.637,0.087-1.316,0.087-2.035
				c0-0.692-0.029-1.33-0.087-1.914c-0.058-0.584-0.213-1.112-0.465-1.584c-0.247-0.476-0.629-0.714-1.146-0.714
				c-0.522,0-0.907,0.238-1.159,0.714c-0.252,0.476-0.406,1.006-0.465,1.59c-0.059,0.579-0.088,1.215-0.088,1.907
				c0,0.512,0.011,0.994,0.034,1.449c0.027,0.453,0.094,0.923,0.202,1.408c0.108,0.481,0.281,0.887,0.519,1.22
				C337.836,29.056,338.155,29.22,338.55,29.22z"/>
		</g>
		<g id="text3176">
			<path id="path81" inkscape:connector-curvature="0" d="M313.349,42.866c0.094,0.269,0.238,0.514,0.431,0.734
				c0.198,0.221,0.429,0.393,0.695,0.519c0.269,0.122,0.547,0.182,0.835,0.182c0.665,0,1.123-0.258,1.374-0.775
				c0.252-0.517,0.377-1.143,0.377-1.88c0-0.319-0.006-0.586-0.02-0.801c-0.009-0.221-0.038-0.432-0.088-0.634
				c-0.085-0.324-0.235-0.606-0.452-0.849c-0.211-0.242-0.471-0.364-0.781-0.364c-0.31,0-0.578,0.047-0.802,0.142
				c-0.22,0.094-0.4,0.204-0.539,0.33c-0.14,0.126-0.263,0.258-0.371,0.398c-0.108,0.139-0.175,0.213-0.202,0.222h-0.155
				c-0.023,0-0.052-0.013-0.088-0.04c-0.031-0.032-0.047-0.06-0.047-0.088v-4.609c0-0.023,0.013-0.045,0.041-0.068
				c0.032-0.027,0.063-0.04,0.094-0.04h0.041c0.62,0.297,1.278,0.444,1.974,0.444c0.683,0,1.341-0.148,1.974-0.444h0.04
				c0.032,0,0.061,0.011,0.089,0.033c0.027,0.023,0.04,0.047,0.04,0.074v0.128c0,0.045-0.009,0.067-0.027,0.067
				c-0.314,0.418-0.71,0.744-1.186,0.978c-0.471,0.234-0.961,0.35-1.469,0.35c-0.368,0-0.746-0.052-1.132-0.155v2.607
				c0.305-0.246,0.578-0.422,0.816-0.525c0.242-0.108,0.55-0.162,0.923-0.162c0.508,0,0.961,0.146,1.361,0.438
				c0.404,0.292,0.714,0.674,0.93,1.146c0.216,0.466,0.324,0.945,0.324,1.435c0,0.553-0.136,1.065-0.411,1.536
				c-0.27,0.471-0.638,0.847-1.105,1.125c-0.468,0.279-0.975,0.418-1.523,0.418c-0.454,0-0.872-0.117-1.253-0.35
				c-0.377-0.234-0.677-0.548-0.896-0.944c-0.215-0.395-0.323-0.815-0.323-1.26c0-0.207,0.067-0.375,0.202-0.505
				c0.134-0.13,0.302-0.195,0.505-0.195s0.371,0.066,0.506,0.202c0.139,0.13,0.209,0.296,0.209,0.498
				c0,0.198-0.07,0.367-0.209,0.505c-0.135,0.135-0.304,0.202-0.506,0.202c-0.031,0-0.066-0.002-0.108-0.007
				C313.397,42.878,313.367,42.871,313.349,42.866z"/>
		</g>
		<g id="text3178">
			<path id="path84" inkscape:connector-curvature="0" d="M343.559,43.424c-0.142,0-0.212-0.071-0.212-0.212
				c0-0.071,0.016-0.122,0.047-0.153c2.755-2.691,4.131-6.598,4.131-11.721s-1.36-9.014-4.084-11.674
				c-0.062-0.039-0.094-0.106-0.094-0.201c0-0.055,0.021-0.103,0.059-0.142c0.047-0.047,0.099-0.071,0.153-0.071h0.224
				c0.047,0,0.087,0.016,0.118,0.047c1.157,0.913,2.122,2.022,2.892,3.329c0.772,1.306,1.334,2.699,1.688,4.179
				c0.363,1.479,0.543,2.99,0.543,4.533c0,1.141-0.097,2.266-0.295,3.376c-0.189,1.101-0.496,2.187-0.921,3.258
				c-0.416,1.078-0.947,2.069-1.594,2.975c-0.645,0.913-1.416,1.723-2.314,2.432c-0.031,0.031-0.071,0.047-0.118,0.047H343.559z"/>
		</g>
		<g id="text3180">
		</g>
	</g>
	<path id="path3142-1" inkscape:connector-curvature="0" fill="none" stroke="#000000" stroke-width="1.0086" d="M270.431,14.564
		h80.692"/>
</g>
</svg>
