<?xml version="1.0" encoding="UTF-8" standalone="no"?>
<!-- Created with Inkscape (http://www.inkscape.org/) -->

<svg
   xmlns:dc="http://purl.org/dc/elements/1.1/"
   xmlns:cc="http://creativecommons.org/ns#"
   xmlns:rdf="http://www.w3.org/1999/02/22-rdf-syntax-ns#"
   xmlns:svg="http://www.w3.org/2000/svg"
   xmlns="http://www.w3.org/2000/svg"
   xmlns:sodipodi="http://sodipodi.sourceforge.net/DTD/sodipodi-0.dtd"
   xmlns:inkscape="http://www.inkscape.org/namespaces/inkscape"
   version="1.2"
   width="320"
   height="60"
   id="svg3020"
   inkscape:version="0.48.3.1 r9886"
   sodipodi:docname="eqn_conv_06.svg">
  <sodipodi:namedview
     pagecolor="#ffffff"
     bordercolor="#666666"
     borderopacity="1"
     objecttolerance="10"
     gridtolerance="10"
     guidetolerance="10"
     inkscape:pageopacity="0"
     inkscape:pageshadow="2"
     inkscape:window-width="640"
     inkscape:window-height="480"
     id="namedview3888"
     showgrid="false"
     inkscape:zoom="0.871875"
     inkscape:cx="160"
     inkscape:cy="30"
     inkscape:window-x="0"
     inkscape:window-y="0"
     inkscape:window-maximized="0"
     inkscape:current-layer="svg3020" />
  <metadata
     id="metadata3026">
    <rdf:RDF>
      <cc:Work
         rdf:about="">
        <dc:format>image/svg+xml</dc:format>
        <dc:type
           rdf:resource="http://purl.org/dc/dcmitype/StillImage" />
        <dc:title />
      </cc:Work>
    </rdf:RDF>
  </metadata>
  <defs
     id="defs3024" />
  <text
     x="44.56657"
     y="42.23513"
     transform="scale(0.95814898,1.043679)"
     id="text3030"
     xml:space="preserve"
     style="font-size:41.02812958px;font-style:normal;font-variant:normal;font-weight:normal;font-stretch:normal;line-height:125%;letter-spacing:0px;word-spacing:0px;fill:#000000;fill-opacity:1;font-family:Cambria Math;-inkscape-font-specification:Cambria Math"><tspan
       x="44.56657"
       y="42.23513"
       id="tspan3032" /></text>
  <g
     style="font-size:24px;font-style:normal;font-variant:normal;font-weight:normal;font-stretch:normal;text-align:center;line-height:125%;letter-spacing:0px;word-spacing:0px;text-anchor:middle;fill:#ffffff;fill-opacity:1;font-family:cmr10;-inkscape-font-specification:cmr10"
     id="text3015">
    <path
       d="m 86.69928,37.977501 0,-0.84375 c 1.429685,1e-6 2.30859,-0.472655 2.636719,-1.417969 l 5.039062,-14.660156 c 0.04687,-0.171858 0.175773,-0.257795 0.386719,-0.257813 l 0.304687,0 c 0.210928,1.8e-5 0.339835,0.08595 0.386719,0.257813 l 5.261714,15.316406 c 0.14843,0.335939 0.43163,0.546876 0.84961,0.632813 0.41796,0.08594 0.93944,0.128907 1.56446,0.128906 l 0,0.84375 -6.691409,0 0,-0.84375 c 1.328113,1e-6 1.992175,-0.214843 1.992188,-0.644531 l 0,-0.117188 -1.300782,-3.75 -5.824218,0 -1.078125,3.09375 c -0.01563,0.05469 -0.02344,0.136721 -0.02344,0.246094 -4e-6,0.398439 0.189449,0.693361 0.568359,0.884766 0.378901,0.191407 0.787104,0.28711 1.22461,0.287109 l 0,0.84375 z m 4.886719,-6.1875 5.261718,0 -2.636718,-7.664063 z"
       style="fill:#ffffff"
       id="path3891" />
    <path
       d="m 104.54694,37.977501 0,-0.84375 c 0.54687,1e-6 0.99609,-0.04297 1.34765,-0.128906 0.35156,-0.08594 0.52734,-0.296874 0.52735,-0.632813 l 0,-6.550781 c -1e-5,-0.429679 -0.0645,-0.740226 -0.19336,-0.931641 -0.12891,-0.191397 -0.31446,-0.308584 -0.55664,-0.351562 -0.24219,-0.04296 -0.61719,-0.06444 -1.125,-0.06445 l 0,-0.84375 3.43359,-0.257813 0,2.34375 c 0.25781,-0.695303 0.625,-1.259756 1.10156,-1.693359 0.47656,-0.433584 1.05468,-0.65038 1.73438,-0.650391 0.47655,1.1e-5 0.90233,0.140636 1.27734,0.421875 0.37499,0.28126 0.56249,0.652353 0.5625,1.113281 -1e-5,0.289072 -0.10352,0.541025 -0.31055,0.75586 -0.20704,0.214852 -0.46289,0.322273 -0.76757,0.322265 -0.29689,8e-6 -0.55079,-0.10546 -0.76172,-0.316406 -0.21095,-0.210929 -0.31642,-0.464835 -0.31641,-0.761719 -1e-5,-0.429678 0.15234,-0.734365 0.45703,-0.914062 l -0.14062,0 c -0.64845,10e-6 -1.17774,0.234385 -1.58789,0.703125 -0.41016,0.468759 -0.70118,1.050789 -0.87305,1.746094 -0.17188,0.695319 -0.25782,1.359381 -0.25781,1.992187 l 0,3.9375 c -10e-6,0.507814 0.77734,0.76172 2.33203,0.761719 l 0,0.84375 z"
       style="fill:#ffffff"
       id="path3893" />
    <path
       d="m 119.2774,38.247032 c -0.97656,0 -1.87305,-0.255859 -2.68945,-0.767578 -0.81641,-0.511718 -1.45703,-1.195311 -1.92187,-2.050781 -0.46485,-0.855466 -0.69727,-1.759762 -0.69727,-2.712891 0,-0.937494 0.21289,-1.828118 0.63867,-2.671875 0.42578,-0.843741 1.01953,-1.525381 1.78125,-2.044922 0.76172,-0.51952 1.61133,-0.779286 2.54883,-0.779297 0.73437,1.1e-5 1.37304,0.123058 1.91602,0.369141 0.54296,0.246104 0.99022,0.5879 1.34179,1.025391 0.35156,0.437509 0.61718,0.953133 0.79688,1.546875 0.17968,0.593757 0.26952,1.2461 0.26953,1.957031 -1e-5,0.210943 -0.082,0.316412 -0.24609,0.316406 l -6.94922,0 0,0.257813 c -10e-6,1.328129 0.26757,2.468752 0.80273,3.421875 0.53515,0.953126 1.4082,1.429688 2.61914,1.429687 0.49218,1e-6 0.94726,-0.109374 1.36524,-0.328125 0.41796,-0.218749 0.78124,-0.523436 1.08984,-0.914062 0.30859,-0.390623 0.51757,-0.808592 0.62695,-1.253907 0.0156,-0.05468 0.0449,-0.103512 0.0879,-0.146484 0.043,-0.04297 0.0918,-0.06445 0.14649,-0.06445 l 0.21094,0 c 0.16405,3e-6 0.24608,0.101565 0.24609,0.304687 -0.22657,0.906252 -0.71485,1.650392 -1.46484,2.232422 -0.75001,0.582032 -1.58985,0.873047 -2.51954,0.873047 z m -3.1875,-6.410156 5.47266,0 c -1e-5,-0.601556 -0.084,-1.21093 -0.25195,-1.828125 -0.16798,-0.617179 -0.44728,-1.13085 -0.83789,-1.541016 -0.39063,-0.410146 -0.90235,-0.615224 -1.53516,-0.615234 -0.90625,10e-6 -1.60742,0.423838 -2.10351,1.271484 -0.4961,0.847665 -0.74415,1.751961 -0.74415,2.712891 z"
       style="fill:#ffffff"
       id="path3895" />
    <path
       d="m 124.9024,35.622032 c 0,-0.953122 0.375,-1.728511 1.125,-2.326172 0.75,-0.597651 1.65039,-1.019525 2.70118,-1.265625 1.05077,-0.246087 2.04882,-0.369134 2.99414,-0.36914 l 0,-0.984375 c -1e-5,-0.46093 -0.10157,-0.908195 -0.30469,-1.341797 -0.20313,-0.433585 -0.4961,-0.789053 -0.87891,-1.066406 -0.38282,-0.277334 -0.80469,-0.416006 -1.26562,-0.416016 -1.06251,10e-6 -1.8711,0.238291 -2.42578,0.714844 0.30468,9e-6 0.55663,0.115243 0.75586,0.345703 0.19921,0.230477 0.29882,0.498055 0.29882,0.802734 0,0.320321 -0.11328,0.593758 -0.33984,0.820313 -0.22656,0.226569 -0.4961,0.339851 -0.80859,0.339843 -0.32032,8e-6 -0.59375,-0.113274 -0.82032,-0.339843 -0.22656,-0.226555 -0.33984,-0.499992 -0.33984,-0.820313 0,-0.843741 0.38281,-1.470693 1.14844,-1.880859 0.76562,-0.410146 1.60937,-0.615224 2.53125,-0.615235 0.64843,1.1e-5 1.30077,0.138683 1.95703,0.416016 0.65624,0.277354 1.19335,0.673838 1.61133,1.189453 0.41796,0.515634 0.62694,1.117196 0.62695,1.804688 l 0,5.402343 c -1e-5,0.312502 0.0664,0.599611 0.19922,0.861329 0.1328,0.261719 0.33983,0.392578 0.62109,0.392578 0.26562,0 0.46288,-0.132812 0.5918,-0.398438 0.1289,-0.265623 0.19335,-0.550779 0.19336,-0.855469 l 0,-1.535156 0.70312,0 0,1.535156 c -1e-5,0.359377 -0.0938,0.701174 -0.28125,1.025391 -0.18751,0.324219 -0.43946,0.582032 -0.75585,0.773438 -0.31642,0.191406 -0.65822,0.287109 -1.0254,0.287109 -0.46875,0 -0.87305,-0.181641 -1.21289,-0.544922 -0.33985,-0.36328 -0.5293,-0.794921 -0.56836,-1.294922 -0.29688,0.601564 -0.73438,1.080079 -1.3125,1.435547 -0.57813,0.355469 -1.19531,0.533203 -1.85156,0.533203 -0.60938,0 -1.20899,-0.08984 -1.79883,-0.269531 -0.58984,-0.179687 -1.08203,-0.46289 -1.47656,-0.849609 -0.39453,-0.386718 -0.5918,-0.888671 -0.5918,-1.50586 z m 1.94532,0 c -10e-6,0.562502 0.20703,1.035158 0.62109,1.417969 0.41406,0.382813 0.90234,0.574219 1.46484,0.574219 0.51562,0 0.98437,-0.128906 1.40625,-0.386719 0.42187,-0.257812 0.75781,-0.609374 1.00782,-1.054688 0.24999,-0.44531 0.37499,-0.914059 0.375,-1.40625 l 0,-2.496093 c -0.72657,5e-6 -1.47071,0.119146 -2.23242,0.357422 -0.76173,0.238286 -1.39259,0.611332 -1.89258,1.11914 -0.50001,0.507816 -0.75001,1.132816 -0.75,1.875 z"
       style="fill:#ffffff"
       id="path3897" />
    <path
       d="m 149.95709,38.247032 c -0.96094,0 -1.85156,-0.24414 -2.67187,-0.732422 -0.82032,-0.48828 -1.46875,-1.142576 -1.94532,-1.96289 -0.47656,-0.82031 -0.71484,-1.71484 -0.71484,-2.683594 0,-0.734369 0.13086,-1.4414 0.39258,-2.121094 0.26172,-0.679679 0.63672,-1.287101 1.125,-1.822265 0.48828,-0.535147 1.05664,-0.953115 1.70508,-1.253907 0.64843,-0.30077 1.35155,-0.451161 2.10937,-0.451172 0.98437,1.1e-5 1.88085,0.259777 2.68946,0.779297 0.80858,0.519541 1.44725,1.214853 1.91601,2.085938 0.46874,0.871101 0.70311,1.798834 0.70313,2.783203 -2e-5,0.960942 -0.2383,1.853519 -0.71485,2.677734 -0.47657,0.824221 -1.12305,1.48047 -1.93945,1.96875 -0.81641,0.488282 -1.70118,0.732422 -2.6543,0.732422 z m 0,-0.703125 c 1.28125,1e-6 2.13671,-0.464843 2.56641,-1.394531 0.42968,-0.929685 0.64452,-2.113277 0.64453,-3.550781 -10e-6,-0.804682 -0.043,-1.470697 -0.12891,-1.998047 -0.0859,-0.527336 -0.27344,-1.005851 -0.5625,-1.435547 -0.17969,-0.265616 -0.40821,-0.498038 -0.68554,-0.697266 -0.27735,-0.199209 -0.57032,-0.351552 -0.87891,-0.457031 -0.3086,-0.105459 -0.62696,-0.158193 -0.95508,-0.158203 -0.5,10e-6 -0.97461,0.113291 -1.42383,0.339844 -0.44922,0.226572 -0.82227,0.55079 -1.11914,0.972656 -0.29687,0.453133 -0.48633,0.95118 -0.56836,1.494141 -0.082,0.542975 -0.12305,1.189459 -0.12304,1.939453 -1e-5,0.898442 0.0781,1.705081 0.23437,2.419922 0.15625,0.714846 0.4707,1.314454 0.94336,1.798828 0.47265,0.484375 1.1582,0.726563 2.05664,0.726562 z"
       style="fill:#ffffff"
       id="path3899" />
    <path
       d="m 156.73053,37.977501 0,-0.84375 c 0.53906,1e-6 0.98437,-0.04297 1.33594,-0.128906 0.35156,-0.08594 0.52734,-0.296874 0.52734,-0.632813 l 0,-7.898437 -1.83984,0 0,-0.84375 1.83984,0 0,-2.871094 c 0,-0.515611 0.10742,-0.998033 0.32227,-1.447266 0.21484,-0.449203 0.5039,-0.841781 0.86718,-1.177734 0.36328,-0.335921 0.78125,-0.599593 1.25391,-0.791016 0.47265,-0.191389 0.96288,-0.287092 1.4707,-0.287109 0.53906,1.7e-5 1.02539,0.160173 1.45899,0.480469 0.43358,0.320328 0.65038,0.746109 0.65039,1.277343 -1e-5,0.304703 -0.10353,0.560562 -0.31055,0.767579 -0.20704,0.207045 -0.4629,0.310561 -0.76758,0.310546 -0.30469,1.5e-5 -0.56446,-0.103501 -0.77929,-0.310546 -0.21485,-0.207017 -0.32228,-0.462876 -0.32227,-0.767579 -1e-5,-0.499984 0.21484,-0.835921 0.64453,-1.007812 -0.25782,-0.08592 -0.48829,-0.12889 -0.6914,-0.128906 -0.46876,1.6e-5 -0.86915,0.166031 -1.20118,0.498047 -0.33203,0.332046 -0.58008,0.736343 -0.74414,1.21289 -0.16406,0.476577 -0.24609,0.949233 -0.24609,1.417969 l 0,2.824219 2.76562,0 0,0.84375 -2.68359,0 0,7.898437 c 0,0.328126 0.23437,0.537111 0.70313,0.626953 0.46874,0.08985 1.0078,0.134767 1.61718,0.134766 l 0,0.84375 z"
       style="fill:#ffffff"
       id="path3901" />
    <path
       d="m 176.75787,35.411095 c 0.54687,0.695314 1.23047,1.244142 2.05078,1.646484 0.82031,0.402344 1.67187,0.603516 2.55469,0.603516 0.74218,0 1.42968,-0.146484 2.0625,-0.439453 0.6328,-0.292968 1.18554,-0.701171 1.65821,-1.22461 0.47264,-0.523435 0.83592,-1.117184 1.08984,-1.78125 0.25389,-0.664058 0.38084,-1.363276 0.38086,-2.097656 -2e-5,-0.124994 0.0703,-0.187494 0.21094,-0.1875 l 0.29296,0 c 0.12499,6e-6 0.18749,0.07813 0.1875,0.234375 -1e-5,0.835942 -0.16017,1.642582 -0.48046,2.419922 -0.32033,0.777346 -0.77346,1.460939 -1.35938,2.050781 -0.58595,0.589845 -1.25978,1.048828 -2.02148,1.376953 -0.76173,0.328125 -1.55665,0.492187 -2.38477,0.492188 -1.14845,-1e-6 -2.23633,-0.232423 -3.26367,-0.697266 -1.02735,-0.464843 -1.92188,-1.101561 -2.68359,-1.910156 -0.76173,-0.808591 -1.35548,-1.744137 -1.78125,-2.806641 -0.42579,-1.062494 -0.63868,-2.167962 -0.63868,-3.316406 0,-1.148428 0.21289,-2.253896 0.63868,-3.316406 0.42577,-1.062488 1.01952,-1.999987 1.78125,-2.8125 0.76171,-0.812485 1.65624,-1.44725 2.68359,-1.904297 1.02734,-0.457015 2.11522,-0.68553 3.26367,-0.685547 0.8203,1.7e-5 1.60546,0.177751 2.35547,0.533203 0.74999,0.355485 1.40624,0.857437 1.96875,1.505859 l 1.39453,-1.96875 c 0.0937,-0.04686 0.14842,-0.0703 0.16406,-0.07031 l 0.17578,0 c 0.0469,1.7e-5 0.0898,0.01955 0.12891,0.05859 0.0391,0.03908 0.0586,0.08595 0.0586,0.140625 l 0,6.480468 c -1e-5,0.140636 -0.0625,0.210948 -0.1875,0.210938 l -0.43359,0 c -0.14845,10e-6 -0.22267,-0.0703 -0.22266,-0.210938 -1e-5,-0.460926 -0.0918,-0.976551 -0.27539,-1.546875 -0.1836,-0.5703 -0.41798,-1.111315 -0.70312,-1.623046 -0.28517,-0.511705 -0.61525,-0.962877 -0.99024,-1.353516 -0.89844,-0.874984 -1.92969,-1.312484 -3.09375,-1.3125 -0.88282,1.6e-5 -1.72852,0.199235 -2.5371,0.597656 -0.80861,0.398453 -1.49024,0.949233 -2.04493,1.652344 -0.58594,0.750013 -0.99219,1.603528 -1.21875,2.560547 -0.22656,0.957041 -0.33984,1.978525 -0.33984,3.064453 0,1.085945 0.11328,2.109381 0.33984,3.070312 0.22656,0.960942 0.63281,1.81641 1.21875,2.566407 z"
       style="fill:#ffffff"
       id="path3903" />
    <path
       d="m 189.36725,37.977501 0,-0.84375 c 0.54687,1e-6 0.99609,-0.04297 1.34765,-0.128906 0.35156,-0.08594 0.52735,-0.296874 0.52735,-0.632813 l 0,-6.550781 c 0,-0.617179 -0.11914,-0.996085 -0.35742,-1.136719 -0.23829,-0.140615 -0.70899,-0.210928 -1.41211,-0.210937 l 0,-0.84375 3.45703,-0.257813 0,9 c -1e-5,0.335939 0.15234,0.546876 0.45703,0.632813 0.30468,0.08594 0.71093,0.128907 1.21875,0.128906 l 0,0.84375 z m 1.01953,-14.730469 c 0,-0.351547 0.13281,-0.660141 0.39844,-0.925781 0.26562,-0.265609 0.57031,-0.398422 0.91406,-0.398438 0.22656,1.6e-5 0.44531,0.05861 0.65625,0.175782 0.21093,0.117203 0.375,0.281265 0.49219,0.492187 0.11718,0.210953 0.17577,0.429703 0.17578,0.65625 -1e-5,0.343765 -0.13282,0.648452 -0.39844,0.914063 -0.26563,0.265638 -0.57422,0.398451 -0.92578,0.398437 -0.34375,1.4e-5 -0.64844,-0.132799 -0.91406,-0.398437 -0.26563,-0.265611 -0.39844,-0.570298 -0.39844,-0.914063 z"
       style="fill:#ffffff"
       id="path3905" />
    <path
       d="m 195.90631,37.977501 0,-0.84375 c 0.54687,1e-6 0.99609,-0.04297 1.34766,-0.128906 0.35156,-0.08594 0.52734,-0.296874 0.52734,-0.632813 l 0,-6.550781 c 0,-0.429679 -0.0644,-0.740226 -0.19336,-0.931641 -0.12891,-0.191397 -0.31445,-0.308584 -0.55664,-0.351562 -0.24219,-0.04296 -0.61719,-0.06444 -1.125,-0.06445 l 0,-0.84375 3.43359,-0.257813 0,2.34375 c 0.25781,-0.695303 0.625,-1.259756 1.10157,-1.693359 0.47655,-0.433584 1.05468,-0.65038 1.73437,-0.650391 0.47656,1.1e-5 0.90234,0.140636 1.27735,0.421875 0.37499,0.28126 0.56249,0.652353 0.5625,1.113281 -1e-5,0.289072 -0.10353,0.541025 -0.31055,0.75586 -0.20704,0.214852 -0.4629,0.322273 -0.76758,0.322265 -0.29688,8e-6 -0.55079,-0.10546 -0.76172,-0.316406 -0.21094,-0.210929 -0.31641,-0.464835 -0.3164,-0.761719 -1e-5,-0.429678 0.15233,-0.734365 0.45703,-0.914062 l -0.14063,0 c -0.64844,10e-6 -1.17774,0.234385 -1.58789,0.703125 -0.41016,0.468759 -0.70117,1.050789 -0.87305,1.746094 -0.17187,0.695319 -0.25781,1.359381 -0.25781,1.992187 l 0,3.9375 c 0,0.507814 0.77734,0.76172 2.33203,0.761719 l 0,0.84375 z"
       style="fill:#ffffff"
       id="path3907" />
    <path
       d="m 210.63678,38.247032 c -0.96876,0 -1.84766,-0.251953 -2.63672,-0.755859 -0.78906,-0.503905 -1.41016,-1.17578 -1.86328,-2.015625 -0.45313,-0.839841 -0.67969,-1.732418 -0.67969,-2.677735 0,-0.945306 0.22461,-1.851555 0.67383,-2.71875 0.44922,-0.867178 1.07031,-1.560537 1.86328,-2.080078 0.79297,-0.51952 1.67382,-0.779286 2.64258,-0.779297 0.93749,1.1e-5 1.79101,0.183605 2.56055,0.550782 0.76952,0.367197 1.15428,0.968759 1.15429,1.804687 -1e-5,0.312508 -0.11133,0.583992 -0.33398,0.814453 -0.22267,0.230476 -0.49415,0.345711 -0.81445,0.345703 -0.32032,8e-6 -0.59181,-0.115227 -0.81446,-0.345703 -0.22266,-0.230461 -0.33399,-0.501945 -0.33398,-0.814453 -1e-5,-0.281241 0.0898,-0.525382 0.26953,-0.732422 0.17968,-0.207022 0.40234,-0.337881 0.66797,-0.392578 -0.5547,-0.351552 -1.33204,-0.527334 -2.33203,-0.527344 -0.76563,10e-6 -1.38282,0.253916 -1.85157,0.761719 -0.46875,0.507821 -0.79687,1.136727 -0.98437,1.886719 -0.1875,0.750007 -0.28125,1.492193 -0.28125,2.226562 0,0.773442 0.11523,1.521488 0.3457,2.244141 0.23047,0.722659 0.60156,1.320314 1.11328,1.792969 0.51172,0.472657 1.1543,0.708985 1.92774,0.708984 0.7578,1e-6 1.40233,-0.232421 1.93359,-0.697265 0.53124,-0.464843 0.89452,-1.072264 1.08985,-1.822266 -1e-5,-0.09375 0.0625,-0.140622 0.1875,-0.140625 l 0.29296,0 c 0.0469,3e-6 0.0898,0.02149 0.12891,0.06445 0.0391,0.04297 0.0586,0.0918 0.0586,0.146484 l 0,0.07031 c -0.24219,0.945314 -0.72266,1.695314 -1.4414,2.25 -0.71876,0.554687 -1.56641,0.832031 -2.54297,0.832031 z"
       style="fill:#ffffff"
       id="path3909" />
    <path
       d="m 216.03912,37.977501 0,-0.84375 c 0.54688,1e-6 0.9961,-0.04297 1.34766,-0.128906 0.35156,-0.08594 0.52734,-0.296874 0.52734,-0.632813 l 0,-12.597656 c 0,-0.429673 -0.0644,-0.74022 -0.19336,-0.931641 -0.1289,-0.191391 -0.31445,-0.308578 -0.55664,-0.351562 -0.24219,-0.04295 -0.61719,-0.06444 -1.125,-0.06445 l 0,-0.84375 3.5625,-0.257813 0,15.046875 c 0,0.335939 0.17578,0.546876 0.52735,0.632813 0.35155,0.08594 0.79687,0.128907 1.33593,0.128906 l 0,0.84375 z"
       style="fill:#ffffff"
       id="path3911" />
    <path
       d="m 227.93365,38.247032 c -0.97656,0 -1.87305,-0.255859 -2.68945,-0.767578 -0.81641,-0.511718 -1.45703,-1.195311 -1.92187,-2.050781 -0.46485,-0.855466 -0.69727,-1.759762 -0.69727,-2.712891 0,-0.937494 0.21289,-1.828118 0.63867,-2.671875 0.42578,-0.843741 1.01953,-1.525381 1.78125,-2.044922 0.76172,-0.51952 1.61133,-0.779286 2.54883,-0.779297 0.73437,1.1e-5 1.37304,0.123058 1.91602,0.369141 0.54296,0.246104 0.99022,0.5879 1.34179,1.025391 0.35156,0.437509 0.61718,0.953133 0.79688,1.546875 0.17968,0.593757 0.26952,1.2461 0.26953,1.957031 -10e-6,0.210943 -0.082,0.316412 -0.24609,0.316406 l -6.94922,0 0,0.257813 c -1e-5,1.328129 0.26757,2.468752 0.80273,3.421875 0.53515,0.953126 1.4082,1.429688 2.61914,1.429687 0.49218,1e-6 0.94726,-0.109374 1.36524,-0.328125 0.41796,-0.218749 0.78124,-0.523436 1.08984,-0.914062 0.30859,-0.390623 0.51757,-0.808592 0.62695,-1.253907 0.0156,-0.05468 0.0449,-0.103512 0.0879,-0.146484 0.043,-0.04297 0.0918,-0.06445 0.14649,-0.06445 l 0.21094,0 c 0.16405,3e-6 0.24608,0.101565 0.24609,0.304687 -0.22657,0.906252 -0.71485,1.650392 -1.46484,2.232422 -0.75001,0.582032 -1.58985,0.873047 -2.51954,0.873047 z m -3.1875,-6.410156 5.47266,0 c -1e-5,-0.601556 -0.084,-1.21093 -0.25195,-1.828125 -0.16798,-0.617179 -0.44728,-1.13085 -0.83789,-1.541016 -0.39063,-0.410146 -0.90235,-0.615224 -1.53516,-0.615234 -0.90625,10e-6 -1.60742,0.423838 -2.10351,1.271484 -0.4961,0.847665 -0.74415,1.751961 -0.74415,2.712891 z"
       style="fill:#ffffff"
       id="path3913" />
  </g>
</svg>
