<?xml version="1.0" encoding="utf-8"?>
<!-- Generator: Adobe Illustrator 16.0.0, SVG Export Plug-In . SVG Version: 6.00 Build 0)  -->
<!DOCTYPE svg PUBLIC "-//W3C//DTD SVG 1.1//EN" "http://www.w3.org/Graphics/SVG/1.1/DTD/svg11.dtd">
<svg version="1.1"
	 id="svg3020" xmlns:dc="http://purl.org/dc/elements/1.1/" xmlns:cc="http://creativecommons.org/ns#" xmlns:rdf="http://www.w3.org/1999/02/22-rdf-syntax-ns#" xmlns:svg="http://www.w3.org/2000/svg" xmlns:inkscape="http://www.inkscape.org/namespaces/inkscape"
	 xmlns="http://www.w3.org/2000/svg" xmlns:xlink="http://www.w3.org/1999/xlink" x="0px" y="0px" width="575px" height="60px"
	 viewBox="0 0 320 60" enable-background="new 0 0 320 60" xml:space="preserve">
<g id="text3030" transform="scale(0.95814898,1.043679)">
</g>
<g id="g3009" transform="matrix(1.4688253,0,0,1.4688253,-277.70507,-0.75165246)">
	<g id="flowRoot3055" transform="matrix(0.68081616,0,0,0.68081616,189.0661,0.51173714)">
	</g>
	<g id="flowRoot3063" transform="matrix(0.68081616,0,0,0.68081616,189.0661,0.51173714)">
	</g>
	<g id="g3569" transform="matrix(0.68081616,0,0,0.68081616,66.230655,78.160046)">
	</g>
	<path id="path3142-1-4-8" inkscape:connector-curvature="0" fill="none" stroke="#000000" stroke-width="0.9885" d="
		M319.771,20.827h34.326"/>
	<g id="g4386" transform="matrix(1.120065,0,0,1.120065,-27.626934,0.81699191)">
		<g id="text4388">
			<path id="path48" inkscape:connector-curvature="0" d="M242.374,21.572v-0.486c0.948,0,1.422-0.272,1.422-0.816v-7.56
				c-0.301-0.054-0.775-0.081-1.422-0.081v-0.485h2.641c0.045,0,0.076,0.018,0.094,0.054l4.885,7.19v-5.944
				c0-0.543-0.474-0.815-1.422-0.815v-0.485h3.282v0.485c-0.943,0-1.415,0.272-1.415,0.815v8.005c0,0.027-0.018,0.054-0.054,0.081
				c-0.036,0.027-0.065,0.041-0.088,0.041h-0.168c-0.045,0-0.076-0.018-0.094-0.055l-5.795-8.53v7.284
				c0,0.544,0.474,0.816,1.422,0.816v0.486H242.374z"/>
		</g>
		<g id="text4390">
		</g>
		<g id="text4392">
		</g>
		<g id="text4394">
			<path id="path53" inkscape:connector-curvature="0" d="M254.977,24.53c-0.405,0-0.773-0.104-1.104-0.313
				c-0.33-0.213-0.59-0.494-0.78-0.844c-0.19-0.354-0.285-0.728-0.285-1.124c0-0.395,0.093-0.775,0.28-1.139
				c0.19-0.363,0.45-0.652,0.78-0.868c0.334-0.219,0.703-0.329,1.109-0.329c0.393,0,0.749,0.077,1.07,0.231
				c0.324,0.154,0.486,0.405,0.486,0.756c0,0.131-0.047,0.245-0.142,0.344c-0.092,0.095-0.204,0.142-0.339,0.142
				s-0.248-0.047-0.343-0.142c-0.092-0.099-0.137-0.213-0.137-0.344c0-0.118,0.038-0.219,0.113-0.305
				c0.075-0.088,0.169-0.144,0.28-0.167c-0.232-0.147-0.558-0.221-0.977-0.221c-0.321,0-0.579,0.106-0.775,0.319
				c-0.196,0.213-0.334,0.476-0.412,0.791c-0.078,0.313-0.118,0.624-0.118,0.932c0,0.324,0.048,0.638,0.142,0.943
				c0.098,0.3,0.253,0.551,0.466,0.75c0.216,0.196,0.486,0.294,0.81,0.294c0.317,0,0.587-0.096,0.81-0.29
				c0.222-0.196,0.375-0.451,0.456-0.765c0-0.039,0.026-0.059,0.079-0.059h0.123c0.02,0,0.038,0.009,0.054,0.03
				c0.016,0.016,0.025,0.036,0.025,0.058v0.03c-0.102,0.396-0.303,0.71-0.604,0.943C255.741,24.414,255.386,24.53,254.977,24.53z"/>
			<path id="path55" inkscape:connector-curvature="0" d="M257.23,24.417v-0.353c0.229,0,0.417-0.018,0.564-0.054
				c0.147-0.036,0.221-0.125,0.221-0.265V18.47c0-0.179-0.028-0.309-0.083-0.387c-0.052-0.082-0.129-0.131-0.231-0.147
				c-0.102-0.02-0.258-0.029-0.471-0.029v-0.353l1.492-0.108v3.455c0.141-0.278,0.337-0.5,0.589-0.668
				c0.252-0.17,0.53-0.255,0.834-0.255c0.465,0,0.813,0.112,1.045,0.334c0.236,0.223,0.353,0.563,0.353,1.02v2.415
				c0,0.14,0.074,0.229,0.221,0.265c0.147,0.036,0.335,0.054,0.564,0.054v0.353h-2.301v-0.353c0.229,0,0.417-0.018,0.564-0.054
				c0.147-0.036,0.221-0.125,0.221-0.265V21.36c0-0.327-0.047-0.595-0.142-0.805c-0.095-0.212-0.29-0.319-0.584-0.319
				c-0.389,0-0.71,0.155-0.962,0.466c-0.249,0.311-0.373,0.664-0.373,1.06v1.983c0,0.14,0.074,0.229,0.221,0.265
				c0.147,0.036,0.334,0.054,0.559,0.054v0.353H257.23z"/>
			<path id="path57" inkscape:connector-curvature="0" d="M262.907,23.431c0-0.399,0.157-0.723,0.471-0.971
				c0.314-0.252,0.69-0.429,1.129-0.53c0.442-0.105,0.86-0.157,1.256-0.157V21.36c0-0.193-0.042-0.38-0.128-0.559
				c-0.085-0.183-0.208-0.332-0.368-0.447c-0.16-0.118-0.337-0.176-0.53-0.176c-0.445,0-0.784,0.1-1.016,0.299
				c0.128,0,0.232,0.049,0.314,0.147c0.085,0.095,0.128,0.206,0.128,0.334c0,0.134-0.047,0.249-0.142,0.344
				c-0.095,0.094-0.208,0.142-0.339,0.142c-0.134,0-0.249-0.047-0.344-0.142c-0.095-0.095-0.142-0.21-0.142-0.344
				c0-0.353,0.16-0.615,0.481-0.785c0.321-0.174,0.674-0.261,1.06-0.261c0.272,0,0.545,0.059,0.819,0.177
				c0.275,0.115,0.499,0.28,0.672,0.496c0.177,0.216,0.265,0.468,0.265,0.756v2.262c0,0.131,0.028,0.252,0.083,0.363
				c0.056,0.108,0.142,0.161,0.26,0.161c0.111,0,0.193-0.055,0.245-0.166c0.056-0.112,0.083-0.231,0.083-0.359V22.96h0.294v0.643
				c0,0.151-0.039,0.294-0.118,0.432c-0.078,0.134-0.185,0.242-0.319,0.324c-0.131,0.079-0.273,0.118-0.427,0.118
				c-0.196,0-0.367-0.075-0.51-0.226c-0.14-0.154-0.219-0.335-0.235-0.544c-0.124,0.252-0.307,0.453-0.55,0.603
				c-0.242,0.147-0.5,0.221-0.775,0.221c-0.255,0-0.507-0.037-0.756-0.113c-0.245-0.075-0.451-0.193-0.618-0.353
				C262.989,23.901,262.907,23.69,262.907,23.431z M263.722,23.431c0,0.236,0.087,0.434,0.26,0.594
				c0.174,0.16,0.378,0.24,0.613,0.24c0.216,0,0.412-0.054,0.589-0.162c0.177-0.107,0.317-0.255,0.422-0.442
				c0.105-0.186,0.157-0.383,0.157-0.589v-1.045c-0.304,0-0.616,0.051-0.937,0.152c-0.317,0.099-0.581,0.254-0.79,0.467
				C263.827,22.859,263.722,23.12,263.722,23.431L263.722,23.431z"/>
			<path id="path59" inkscape:connector-curvature="0" d="M267.829,24.417v-0.353c0.229,0,0.417-0.018,0.564-0.054
				c0.147-0.036,0.221-0.125,0.221-0.265v-2.744c0-0.179-0.028-0.309-0.083-0.387c-0.053-0.082-0.129-0.131-0.231-0.147
				c-0.101-0.02-0.258-0.03-0.471-0.03v-0.354l1.458-0.108v0.982c0.134-0.288,0.332-0.524,0.594-0.706
				c0.265-0.183,0.553-0.275,0.864-0.275c0.465,0,0.813,0.112,1.045,0.334c0.236,0.223,0.353,0.563,0.353,1.02v2.415
				c0,0.14,0.074,0.229,0.221,0.265c0.147,0.036,0.335,0.054,0.564,0.054v0.353h-2.301v-0.353c0.229,0,0.417-0.018,0.564-0.054
				c0.147-0.036,0.221-0.125,0.221-0.265V21.36c0-0.327-0.047-0.595-0.142-0.805c-0.095-0.212-0.29-0.319-0.584-0.319
				c-0.389,0-0.71,0.155-0.962,0.466c-0.248,0.311-0.373,0.664-0.373,1.06v1.983c0,0.14,0.074,0.229,0.221,0.265
				c0.147,0.036,0.334,0.054,0.559,0.054v0.353H267.829z"/>
			<path id="path61" inkscape:connector-curvature="0" d="M273.384,25.203c0-0.239,0.087-0.448,0.26-0.628
				c0.173-0.177,0.38-0.303,0.618-0.378c-0.134-0.101-0.237-0.229-0.309-0.382c-0.069-0.154-0.103-0.318-0.103-0.491
				c0-0.314,0.1-0.592,0.299-0.834c-0.307-0.302-0.461-0.646-0.461-1.036c0-0.21,0.044-0.405,0.132-0.589
				c0.092-0.183,0.218-0.342,0.378-0.476c0.16-0.134,0.339-0.236,0.535-0.305c0.196-0.072,0.398-0.108,0.604-0.108
				c0.399,0,0.757,0.116,1.075,0.349c0.137-0.147,0.299-0.26,0.486-0.339c0.19-0.081,0.386-0.123,0.589-0.123
				c0.144,0,0.262,0.052,0.353,0.157c0.092,0.102,0.138,0.224,0.138,0.368c0,0.082-0.031,0.154-0.093,0.216
				c-0.062,0.062-0.134,0.093-0.216,0.093c-0.085,0-0.159-0.031-0.221-0.093c-0.062-0.062-0.093-0.134-0.093-0.216
				c0-0.124,0.041-0.211,0.123-0.26c-0.347,0-0.644,0.119-0.893,0.358c0.121,0.121,0.218,0.27,0.29,0.446
				c0.075,0.174,0.113,0.347,0.113,0.521c0,0.284-0.079,0.541-0.236,0.77c-0.157,0.226-0.365,0.402-0.623,0.53
				c-0.255,0.124-0.518,0.186-0.79,0.186c-0.366,0-0.702-0.1-1.006-0.299c-0.095,0.131-0.142,0.278-0.142,0.442
				c0,0.176,0.057,0.332,0.172,0.466c0.118,0.131,0.265,0.196,0.442,0.196h0.825c0.399,0,0.759,0.036,1.079,0.108
				c0.321,0.072,0.589,0.216,0.805,0.432c0.219,0.216,0.329,0.522,0.329,0.918c0,0.294-0.124,0.538-0.373,0.731
				c-0.249,0.196-0.546,0.337-0.893,0.422c-0.343,0.088-0.662,0.132-0.957,0.132c-0.298,0-0.62-0.045-0.967-0.132
				c-0.347-0.085-0.645-0.226-0.893-0.422C273.509,25.741,273.384,25.497,273.384,25.203z M273.949,25.203
				c0,0.226,0.092,0.414,0.275,0.565c0.183,0.154,0.404,0.267,0.662,0.338c0.259,0.075,0.502,0.113,0.731,0.113
				c0.226,0,0.468-0.037,0.726-0.113c0.258-0.072,0.478-0.185,0.657-0.338c0.183-0.151,0.275-0.338,0.275-0.565
				c0-0.35-0.16-0.578-0.481-0.682c-0.321-0.102-0.71-0.152-1.168-0.152h-0.825c-0.154,0-0.296,0.036-0.427,0.108
				c-0.128,0.075-0.231,0.178-0.309,0.309C273.988,24.92,273.949,25.059,273.949,25.203z M275.337,22.671
				c0.569,0,0.854-0.405,0.854-1.217c0-0.35-0.061-0.638-0.182-0.864c-0.121-0.229-0.345-0.343-0.672-0.343
				c-0.327,0-0.551,0.114-0.672,0.343c-0.121,0.226-0.182,0.513-0.182,0.864c0,0.223,0.023,0.423,0.069,0.604
				c0.046,0.18,0.131,0.327,0.255,0.442C274.932,22.614,275.109,22.671,275.337,22.671L275.337,22.671z"/>
			<path id="path63" inkscape:connector-curvature="0" d="M280.632,24.53c-0.409,0-0.785-0.106-1.128-0.319
				c-0.34-0.215-0.609-0.502-0.805-0.859c-0.193-0.36-0.289-0.739-0.289-1.139c0-0.392,0.088-0.765,0.265-1.118
				c0.18-0.354,0.429-0.638,0.746-0.854c0.321-0.219,0.677-0.329,1.07-0.329c0.307,0,0.574,0.053,0.8,0.157
				c0.229,0.101,0.417,0.243,0.565,0.427c0.147,0.183,0.258,0.399,0.334,0.648c0.075,0.249,0.113,0.522,0.113,0.82
				c0,0.088-0.034,0.132-0.103,0.132h-2.91v0.108c0,0.556,0.111,1.034,0.334,1.433c0.226,0.399,0.592,0.598,1.099,0.598
				c0.206,0,0.396-0.046,0.569-0.137c0.177-0.092,0.329-0.219,0.456-0.383c0.131-0.164,0.219-0.338,0.265-0.525
				c0.007-0.023,0.018-0.043,0.034-0.059c0.02-0.02,0.041-0.029,0.064-0.029h0.088c0.069,0,0.103,0.042,0.103,0.128
				c-0.095,0.379-0.299,0.692-0.613,0.937C281.373,24.409,281.022,24.53,280.632,24.53z M279.298,21.846h2.292
				c0-0.252-0.036-0.507-0.108-0.766c-0.069-0.258-0.185-0.472-0.348-0.642c-0.164-0.173-0.378-0.26-0.643-0.26
				c-0.38,0-0.674,0.178-0.883,0.534C279.401,21.066,279.298,21.444,279.298,21.846z"/>
			<path id="path65" inkscape:connector-curvature="0" d="M282.919,24.447v-1.639c0-0.052,0.029-0.078,0.088-0.078h0.123
				c0.039,0,0.066,0.026,0.079,0.078c0.186,0.972,0.638,1.458,1.354,1.458c0.317,0,0.582-0.072,0.795-0.216
				c0.216-0.144,0.324-0.366,0.324-0.667c0-0.216-0.083-0.399-0.25-0.55c-0.167-0.154-0.365-0.259-0.594-0.314l-0.672-0.132
				c-0.226-0.049-0.432-0.125-0.619-0.226c-0.183-0.102-0.334-0.236-0.451-0.402c-0.118-0.17-0.177-0.367-0.177-0.589
				c0-0.294,0.077-0.535,0.231-0.722c0.157-0.19,0.36-0.325,0.608-0.407c0.249-0.085,0.517-0.128,0.805-0.128
				c0.343,0,0.643,0.092,0.898,0.275l0.289-0.251c0-0.016,0.016-0.024,0.049-0.024h0.074c0.02,0,0.038,0.01,0.054,0.03
				c0.016,0.016,0.025,0.034,0.025,0.054v1.315c0,0.062-0.026,0.093-0.079,0.093h-0.123c-0.059,0-0.088-0.031-0.088-0.093
				c0-0.35-0.098-0.631-0.294-0.843c-0.193-0.213-0.465-0.319-0.815-0.319c-0.301,0-0.563,0.056-0.785,0.167
				c-0.219,0.111-0.329,0.303-0.329,0.574c0,0.186,0.078,0.341,0.236,0.462c0.16,0.118,0.347,0.202,0.559,0.255l0.682,0.128
				c0.229,0.052,0.442,0.141,0.638,0.265c0.199,0.125,0.357,0.281,0.471,0.471c0.118,0.19,0.177,0.404,0.177,0.643
				c0,0.242-0.043,0.453-0.128,0.633c-0.082,0.177-0.198,0.324-0.348,0.442c-0.147,0.118-0.322,0.204-0.525,0.26
				c-0.203,0.056-0.415,0.083-0.638,0.083c-0.419,0-0.777-0.14-1.075-0.421l-0.368,0.397c0,0.016-0.018,0.024-0.054,0.024h-0.059
				C282.948,24.53,282.919,24.503,282.919,24.447z"/>
		</g>
		<g id="text4396">
			<path id="path68" inkscape:connector-curvature="0" d="M302.396,16.302h-7.992v-1.078h7.992V16.302z M302.396,19.132h-7.992
				v-1.078h7.992V19.132z"/>
		</g>
		<g id="text4398">
			<path id="path71" inkscape:connector-curvature="0" d="M317.7,12.604c-0.57,0-1.047-0.15-1.429-0.452
				c-0.382-0.305-0.678-0.698-0.889-1.179c-0.207-0.485-0.35-0.993-0.431-1.523c-0.081-0.53-0.122-1.067-0.122-1.61
				c0-0.728,0.142-1.458,0.424-2.19c0.283-0.732,0.699-1.339,1.247-1.819c0.553-0.481,1.206-0.721,1.961-0.721
				c0.315,0,0.606,0.061,0.876,0.182c0.274,0.117,0.487,0.292,0.64,0.526c0.157,0.229,0.236,0.508,0.236,0.836
				c0,0.188-0.065,0.348-0.195,0.478c-0.126,0.126-0.283,0.188-0.472,0.188c-0.18,0-0.334-0.065-0.465-0.195
				c-0.131-0.13-0.195-0.288-0.195-0.472c0-0.18,0.065-0.335,0.195-0.465c0.131-0.13,0.285-0.195,0.465-0.195h0.074
				c-0.116-0.167-0.283-0.288-0.499-0.364c-0.211-0.081-0.431-0.121-0.66-0.121c-0.279,0-0.537,0.061-0.775,0.182
				c-0.234,0.121-0.445,0.285-0.633,0.492c-0.189,0.207-0.346,0.436-0.472,0.687c-0.126,0.247-0.224,0.53-0.296,0.849
				c-0.067,0.319-0.11,0.618-0.128,0.896c-0.018,0.279-0.027,0.629-0.027,1.051c0.161-0.377,0.391-0.685,0.687-0.923
				c0.297-0.243,0.631-0.364,1.004-0.364c0.408,0,0.781,0.083,1.118,0.249c0.337,0.166,0.627,0.397,0.869,0.694
				c0.243,0.292,0.427,0.627,0.553,1.004c0.13,0.377,0.195,0.759,0.195,1.145c0,0.539-0.121,1.054-0.364,1.543
				c-0.238,0.485-0.575,0.871-1.011,1.159C318.747,12.46,318.253,12.604,317.7,12.604z M317.7,12.166
				c0.354,0,0.64-0.081,0.855-0.242c0.216-0.162,0.373-0.375,0.472-0.64c0.103-0.269,0.166-0.539,0.189-0.809
				c0.027-0.274,0.04-0.609,0.04-1.004c0-0.521-0.024-0.966-0.074-1.334c-0.049-0.368-0.184-0.692-0.404-0.97
				c-0.22-0.283-0.557-0.424-1.011-0.424c-0.373,0-0.68,0.126-0.923,0.377c-0.238,0.252-0.413,0.57-0.525,0.957
				c-0.108,0.382-0.161,0.75-0.161,1.105c0,0.121,0.004,0.213,0.013,0.276c0,0.013-0.002,0.025-0.007,0.034
				c0,0.009-0.002,0.02-0.007,0.034c0,0.395,0.04,0.795,0.122,1.199c0.081,0.405,0.236,0.746,0.465,1.024
				C316.972,12.027,317.291,12.166,317.7,12.166z"/>
			<path id="path73" inkscape:connector-curvature="0" d="M324.6,12.604c-1.127,0-1.895-0.463-2.305-1.388
				c-0.404-0.93-0.606-2.035-0.606-3.315c0-0.8,0.072-1.552,0.215-2.257c0.148-0.705,0.438-1.303,0.869-1.792
				c0.436-0.494,1.045-0.741,1.826-0.741c0.606,0,1.103,0.148,1.489,0.445c0.386,0.296,0.68,0.681,0.883,1.152
				c0.202,0.467,0.339,0.97,0.411,1.509c0.076,0.535,0.114,1.096,0.114,1.685c0,0.79-0.074,1.532-0.222,2.224
				c-0.144,0.687-0.429,1.274-0.856,1.758C325.993,12.364,325.387,12.604,324.6,12.604z M324.6,12.247
				c0.512,0,0.894-0.263,1.146-0.788c0.251-0.526,0.407-1.107,0.465-1.745c0.058-0.638,0.088-1.316,0.088-2.035
				c0-0.692-0.03-1.33-0.088-1.913c-0.058-0.584-0.214-1.112-0.465-1.584c-0.248-0.476-0.629-0.714-1.146-0.714
				c-0.521,0-0.908,0.238-1.159,0.714c-0.252,0.476-0.406,1.006-0.465,1.59c-0.058,0.58-0.087,1.215-0.087,1.907
				c0,0.512,0.011,0.995,0.033,1.449c0.027,0.454,0.095,0.923,0.202,1.408c0.107,0.481,0.281,0.887,0.519,1.22
				C323.886,12.083,324.205,12.247,324.6,12.247z"/>
		</g>
		<g id="text4400">
			<path id="path76" inkscape:connector-curvature="0" d="M334.921,12.604c-0.876,0-1.664-0.232-2.365-0.694
				c-0.696-0.467-1.242-1.085-1.638-1.853c-0.395-0.773-0.592-1.584-0.592-2.433c0-0.629,0.112-1.251,0.337-1.867
				c0.229-0.616,0.546-1.161,0.95-1.637c0.408-0.476,0.899-0.854,1.469-1.132c0.571-0.279,1.184-0.418,1.84-0.418
				c0.651,0,1.262,0.142,1.832,0.424c0.575,0.279,1.067,0.658,1.476,1.139c0.409,0.481,0.724,1.02,0.943,1.617
				c0.22,0.597,0.33,1.222,0.33,1.873c0,0.633-0.112,1.251-0.337,1.853c-0.22,0.602-0.543,1.141-0.971,1.617
				c-0.422,0.476-0.917,0.847-1.482,1.112c0.175,0.409,0.355,0.725,0.539,0.95c0.185,0.229,0.44,0.344,0.768,0.344
				c0.346,0,0.643-0.119,0.89-0.357c0.247-0.238,0.37-0.528,0.37-0.869c0-0.031,0.015-0.061,0.047-0.088
				c0.036-0.027,0.069-0.04,0.101-0.04c0.103,0,0.155,0.061,0.155,0.182c0,0.66-0.13,1.267-0.391,1.819
				c-0.256,0.552-0.678,0.829-1.267,0.829c-0.323,0-0.591-0.081-0.801-0.242c-0.211-0.157-0.373-0.359-0.486-0.606
				c-0.108-0.243-0.194-0.526-0.256-0.849c-0.063-0.324-0.119-0.618-0.169-0.883C335.81,12.535,335.379,12.604,334.921,12.604z
				 M334.921,12.207c0.413,0,0.813-0.106,1.199-0.317c-0.085-0.395-0.218-0.71-0.398-0.944c-0.175-0.238-0.442-0.357-0.801-0.357
				c-0.221,0-0.407,0.083-0.56,0.249c-0.153,0.162-0.229,0.351-0.229,0.566c0,0.234,0.071,0.427,0.215,0.58
				C334.496,12.132,334.687,12.207,334.921,12.207z M333.775,11.405c0-0.202,0.049-0.393,0.148-0.573
				c0.099-0.18,0.235-0.324,0.411-0.431c0.179-0.112,0.375-0.169,0.586-0.169c0.399,0,0.716,0.13,0.95,0.391
				c0.234,0.256,0.44,0.604,0.62,1.044c0.306-0.229,0.562-0.499,0.768-0.809c0.207-0.314,0.367-0.642,0.478-0.984
				c0.118-0.346,0.201-0.71,0.249-1.092c0.055-0.386,0.081-0.773,0.081-1.159c0-0.638-0.065-1.238-0.195-1.799
				c-0.126-0.562-0.342-1.067-0.647-1.516c-0.265-0.4-0.602-0.721-1.011-0.964c-0.409-0.247-0.84-0.371-1.293-0.371
				c-0.463,0-0.899,0.121-1.308,0.364c-0.404,0.238-0.741,0.562-1.011,0.971c-0.315,0.458-0.534,0.968-0.66,1.529
				c-0.121,0.562-0.182,1.157-0.182,1.786c0,0.979,0.166,1.871,0.499,2.675c0.332,0.8,0.887,1.366,1.664,1.698
				C333.824,11.809,333.775,11.612,333.775,11.405z"/>
		</g>
		<g id="text4402">
			<path id="path79" inkscape:connector-curvature="0" d="M315.358,31.014l-3.255-8.659c-0.081-0.194-0.236-0.315-0.465-0.364
				s-0.521-0.074-0.876-0.074v-0.485h3.794v0.485c-0.764,0-1.146,0.119-1.146,0.357c0.005,0.013,0.007,0.027,0.007,0.04
				c0.005,0.009,0.007,0.023,0.007,0.04l2.648,7.041l2.5-6.664c0.018-0.036,0.027-0.093,0.027-0.169c0-0.224-0.103-0.389-0.31-0.492
				c-0.207-0.103-0.437-0.155-0.693-0.155v-0.485h2.978v0.485c-0.346,0-0.651,0.065-0.917,0.196
				c-0.261,0.125-0.447,0.332-0.559,0.62l-3.12,8.281c-0.027,0.099-0.101,0.148-0.223,0.148h-0.174
				C315.459,31.162,315.385,31.113,315.358,31.014z"/>
		</g>
		<g id="text4404">
			<path id="path82" inkscape:connector-curvature="0" d="M319.807,33.705v-0.353c0.229,0,0.417-0.018,0.565-0.055
				c0.147-0.036,0.221-0.124,0.221-0.265V30.29c0-0.18-0.028-0.309-0.084-0.388c-0.052-0.082-0.129-0.131-0.23-0.147
				c-0.101-0.02-0.259-0.03-0.471-0.03v-0.353l1.438-0.108v0.981c0.108-0.291,0.262-0.527,0.462-0.706
				c0.199-0.183,0.442-0.275,0.727-0.275c0.199,0,0.378,0.059,0.534,0.177c0.157,0.118,0.236,0.273,0.236,0.466
				c0,0.121-0.044,0.227-0.132,0.319c-0.085,0.088-0.191,0.132-0.319,0.132c-0.124,0-0.23-0.044-0.318-0.132
				c-0.089-0.089-0.133-0.195-0.133-0.319c0-0.18,0.064-0.307,0.191-0.383h-0.058c-0.272,0-0.494,0.098-0.668,0.295
				c-0.17,0.196-0.291,0.439-0.363,0.731c-0.072,0.291-0.107,0.569-0.107,0.834v1.649c0,0.213,0.325,0.319,0.976,0.319v0.353
				H319.807z"/>
			<path id="path84" inkscape:connector-curvature="0" d="M325.985,33.818c-0.402,0-0.775-0.102-1.118-0.305
				c-0.344-0.206-0.615-0.481-0.814-0.824c-0.199-0.344-0.3-0.718-0.3-1.124c0-0.307,0.054-0.603,0.162-0.888
				c0.112-0.285,0.268-0.538,0.471-0.761c0.206-0.226,0.445-0.4,0.716-0.525c0.272-0.128,0.566-0.191,0.883-0.191
				c0.413,0,0.787,0.109,1.124,0.329c0.34,0.216,0.608,0.507,0.805,0.873c0.196,0.363,0.294,0.751,0.294,1.163
				c0,0.402-0.1,0.778-0.299,1.124c-0.2,0.343-0.471,0.618-0.815,0.824C326.754,33.717,326.384,33.818,325.985,33.818z
				 M325.985,33.524c0.537,0,0.895-0.195,1.075-0.584c0.18-0.389,0.27-0.885,0.27-1.487c0-0.337-0.018-0.615-0.054-0.834
				c-0.036-0.223-0.115-0.424-0.236-0.604c-0.075-0.112-0.172-0.208-0.29-0.29c-0.114-0.085-0.237-0.148-0.368-0.191
				c-0.127-0.046-0.26-0.069-0.398-0.069c-0.209,0-0.408,0.047-0.598,0.142c-0.186,0.095-0.342,0.23-0.467,0.407
				c-0.124,0.19-0.204,0.399-0.24,0.628c-0.033,0.226-0.049,0.496-0.049,0.81c0,0.376,0.033,0.715,0.098,1.016
				c0.065,0.297,0.196,0.547,0.393,0.75C325.321,33.422,325.609,33.524,325.985,33.524z"/>
			<path id="path86" inkscape:connector-curvature="0" d="M331.01,33.818c-0.402,0-0.775-0.102-1.118-0.305
				c-0.344-0.206-0.616-0.481-0.815-0.824c-0.199-0.344-0.3-0.718-0.3-1.124c0-0.307,0.055-0.603,0.163-0.888
				c0.111-0.285,0.268-0.538,0.471-0.761c0.206-0.226,0.445-0.4,0.716-0.525c0.272-0.128,0.566-0.191,0.883-0.191
				c0.412,0,0.787,0.109,1.124,0.329c0.34,0.216,0.608,0.507,0.804,0.873c0.196,0.363,0.294,0.751,0.294,1.163
				c0,0.402-0.1,0.778-0.299,1.124c-0.2,0.343-0.471,0.618-0.815,0.824C331.779,33.717,331.409,33.818,331.01,33.818z
				 M331.01,33.524c0.537,0,0.895-0.195,1.074-0.584c0.18-0.389,0.271-0.885,0.271-1.487c0-0.337-0.018-0.615-0.055-0.834
				c-0.036-0.223-0.114-0.424-0.235-0.604c-0.075-0.112-0.172-0.208-0.29-0.29c-0.115-0.085-0.237-0.148-0.368-0.191
				c-0.128-0.046-0.26-0.069-0.398-0.069c-0.209,0-0.409,0.047-0.598,0.142c-0.186,0.095-0.342,0.23-0.467,0.407
				c-0.125,0.19-0.204,0.399-0.24,0.628c-0.033,0.226-0.049,0.496-0.049,0.81c0,0.376,0.033,0.715,0.099,1.016
				c0.065,0.297,0.196,0.547,0.392,0.75C330.347,33.422,330.634,33.524,331.01,33.524z"/>
			<path id="path88" inkscape:connector-curvature="0" d="M333.822,33.705v-0.353c0.229,0,0.417-0.018,0.565-0.055
				c0.147-0.036,0.221-0.124,0.221-0.265V30.29c0-0.18-0.028-0.309-0.083-0.388c-0.053-0.082-0.129-0.131-0.231-0.147
				c-0.102-0.02-0.258-0.03-0.471-0.03v-0.353l1.457-0.108v0.981c0.134-0.287,0.332-0.524,0.594-0.706
				c0.265-0.183,0.553-0.275,0.864-0.275c0.772,0,1.225,0.314,1.359,0.942c0.134-0.281,0.33-0.508,0.589-0.682
				c0.258-0.173,0.541-0.26,0.849-0.26c0.304,0,0.559,0.049,0.766,0.147c0.209,0.098,0.366,0.249,0.471,0.452
				c0.104,0.199,0.157,0.451,0.157,0.756v2.414c0,0.141,0.074,0.229,0.221,0.265c0.151,0.036,0.338,0.055,0.564,0.055v0.353h-2.301
				v-0.353c0.229,0,0.417-0.018,0.564-0.055c0.147-0.036,0.221-0.124,0.221-0.265v-2.385c0-0.337-0.047-0.608-0.142-0.814
				c-0.095-0.206-0.29-0.309-0.584-0.309c-0.386,0-0.705,0.156-0.957,0.466c-0.252,0.311-0.378,0.665-0.378,1.06v1.983
				c0,0.141,0.074,0.229,0.221,0.265c0.147,0.036,0.335,0.055,0.564,0.055v0.353h-2.301v-0.353c0.229,0,0.417-0.018,0.564-0.055
				c0.147-0.036,0.221-0.124,0.221-0.265v-2.385c0-0.326-0.047-0.595-0.142-0.805c-0.095-0.213-0.29-0.319-0.584-0.319
				c-0.389,0-0.71,0.156-0.962,0.466c-0.248,0.311-0.373,0.665-0.373,1.06v1.983c0,0.141,0.074,0.229,0.221,0.265
				c0.147,0.036,0.334,0.055,0.559,0.055v0.353H333.822z"/>
		</g>
		<g id="text4406">
		</g>
	</g>
</g>
</svg>
