<?xml version="1.0" encoding="utf-8"?>
<!-- Generator: Adobe Illustrator 16.0.0, SVG Export Plug-In . SVG Version: 6.00 Build 0)  -->
<!DOCTYPE svg PUBLIC "-//W3C//DTD SVG 1.1//EN" "http://www.w3.org/Graphics/SVG/1.1/DTD/svg11.dtd">
<svg version="1.1"
	 id="svg3020" xmlns:dc="http://purl.org/dc/elements/1.1/" xmlns:cc="http://creativecommons.org/ns#" xmlns:rdf="http://www.w3.org/1999/02/22-rdf-syntax-ns#" xmlns:svg="http://www.w3.org/2000/svg" xmlns:inkscape="http://www.inkscape.org/namespaces/inkscape"
	 xmlns="http://www.w3.org/2000/svg" xmlns:xlink="http://www.w3.org/1999/xlink" x="0px" y="0px" width="320px" height="60px"
	 viewBox="0 0 320 60" enable-background="new 0 0 320 60" xml:space="preserve">
<g id="text3030" transform="scale(0.95814898,1.043679)">
</g>
<g id="g3009" transform="matrix(1.4688253,0,0,1.4688253,-277.70507,-0.75165246)">
	<g id="flowRoot3055" transform="matrix(0.68081616,0,0,0.68081616,189.0661,0.51173714)">
	</g>
	<g id="flowRoot3063" transform="matrix(0.68081616,0,0,0.68081616,189.0661,0.51173714)">
	</g>
	<g id="g3569" transform="matrix(0.68081616,0,0,0.68081616,66.230655,78.160046)">
	</g>
	<g id="g4080" transform="matrix(0.94765613,0,0,0.94765613,20.074004,4.6833397)">
		<g id="text4082">
			<path id="path60" inkscape:connector-curvature="0" fill="#FFFFFF" d="M185.947,21.875c-0.876,0-1.664-0.232-2.365-0.694
				c-0.696-0.467-1.242-1.085-1.637-1.854c-0.395-0.772-0.593-1.583-0.593-2.432c0-0.629,0.112-1.251,0.337-1.867
				c0.229-0.615,0.546-1.161,0.95-1.638c0.409-0.476,0.898-0.853,1.469-1.132c0.571-0.279,1.184-0.418,1.84-0.418
				c0.651,0,1.262,0.142,1.833,0.424c0.575,0.279,1.067,0.658,1.476,1.139c0.409,0.481,0.723,1.02,0.943,1.617
				s0.33,1.222,0.33,1.873c0,0.849-0.197,1.66-0.593,2.432c-0.395,0.769-0.943,1.386-1.644,1.854
				C187.591,21.644,186.809,21.875,185.947,21.875z M183.656,20.082c0.27,0.422,0.602,0.759,0.997,1.012
				c0.395,0.247,0.827,0.369,1.294,0.369c0.301,0,0.595-0.06,0.883-0.182c0.292-0.121,0.555-0.288,0.788-0.499
				c0.238-0.211,0.44-0.444,0.607-0.701c0.548-0.826,0.822-1.963,0.822-3.409c0-1.325-0.274-2.374-0.822-3.147
				c-0.27-0.386-0.607-0.696-1.011-0.93c-0.4-0.234-0.822-0.35-1.267-0.35c-0.449,0-0.876,0.117-1.28,0.35
				c-0.404,0.234-0.741,0.543-1.011,0.93c-0.215,0.301-0.384,0.622-0.505,0.964c-0.117,0.337-0.2,0.688-0.249,1.051
				c-0.049,0.363-0.074,0.741-0.074,1.132c0,0.418,0.022,0.826,0.067,1.226c0.049,0.396,0.137,0.784,0.263,1.165
				C183.287,19.446,183.454,19.786,183.656,20.082z"/>
			<path id="path62" inkscape:connector-curvature="0" fill="#FFFFFF" d="M191.728,21.572v-0.485c0.948,0,1.422-0.147,1.422-0.438
				v-7.581c0-0.292-0.474-0.438-1.422-0.438v-0.485h7.803l0.384,3.16h-0.397c-0.099-0.795-0.238-1.372-0.418-1.732
				c-0.175-0.36-0.458-0.607-0.849-0.741c-0.391-0.135-0.977-0.202-1.759-0.202h-1.354c-0.166,0-0.296,0.007-0.391,0.02
				c-0.09,0.013-0.164,0.054-0.222,0.121c-0.058,0.063-0.088,0.162-0.088,0.296v3.369h1.018c0.467,0,0.815-0.038,1.044-0.115
				c0.234-0.081,0.393-0.231,0.478-0.451c0.09-0.225,0.135-0.573,0.135-1.044h0.404v3.706h-0.404c0-0.467-0.045-0.814-0.135-1.038
				c-0.085-0.225-0.245-0.375-0.478-0.451c-0.229-0.081-0.577-0.121-1.044-0.121h-1.018v3.726c0,0.198,0.056,0.321,0.169,0.371
				c0.112,0.045,0.289,0.067,0.532,0.067h1.462c0.638,0,1.152-0.051,1.543-0.149c0.395-0.103,0.701-0.272,0.917-0.505
				c0.22-0.239,0.388-0.544,0.505-0.916c0.121-0.377,0.234-0.899,0.337-1.563h0.397l-0.58,3.617h-7.991V21.572z"/>
			<path id="path64" inkscape:connector-curvature="0" fill="#FFFFFF" d="M201.108,21.572v-0.485c0.948,0,1.422-0.147,1.422-0.438
				v-7.581c0-0.292-0.474-0.438-1.422-0.438v-0.485h4.474v0.485c-1.177,0-1.766,0.146-1.766,0.438v7.581
				c0,0.198,0.056,0.321,0.168,0.371c0.112,0.046,0.29,0.067,0.533,0.067h1.065c0.687,0,1.217-0.126,1.59-0.377
				c0.373-0.253,0.636-0.594,0.788-1.024c0.158-0.436,0.276-1.013,0.357-1.732h0.398l-0.384,3.618H201.108z"/>
		</g>
		<g id="text4084">
			<path id="path67" inkscape:connector-curvature="0" fill="#FFFFFF" d="M208.949,24.418v-0.354c0.229,0,0.417-0.018,0.564-0.054
				c0.147-0.036,0.221-0.124,0.221-0.264v-2.743c0-0.18-0.028-0.309-0.083-0.388c-0.052-0.082-0.129-0.131-0.23-0.147
				c-0.101-0.02-0.259-0.029-0.471-0.029v-0.353l1.458-0.108v0.981c0.134-0.288,0.332-0.523,0.594-0.706
				c0.265-0.184,0.553-0.275,0.864-0.275c0.772,0,1.225,0.314,1.359,0.941c0.134-0.281,0.33-0.509,0.589-0.683
				c0.259-0.173,0.541-0.26,0.849-0.26c0.304,0,0.56,0.049,0.765,0.147c0.209,0.098,0.367,0.248,0.471,0.451
				c0.105,0.2,0.157,0.451,0.157,0.756v2.416c0,0.14,0.074,0.229,0.221,0.264c0.15,0.036,0.339,0.054,0.564,0.054v0.354h-2.302
				v-0.354c0.229,0,0.417-0.018,0.564-0.054c0.147-0.036,0.221-0.124,0.221-0.264V21.36c0-0.337-0.048-0.608-0.142-0.815
				c-0.095-0.206-0.289-0.309-0.584-0.309c-0.386,0-0.705,0.156-0.957,0.467c-0.252,0.31-0.378,0.664-0.378,1.059v1.983
				c0,0.14,0.074,0.229,0.221,0.264c0.147,0.036,0.335,0.054,0.564,0.054v0.354h-2.301v-0.354c0.229,0,0.417-0.018,0.564-0.054
				c0.147-0.036,0.221-0.124,0.221-0.264V21.36c0-0.327-0.047-0.595-0.142-0.805c-0.095-0.213-0.289-0.319-0.584-0.319
				c-0.389,0-0.71,0.156-0.962,0.467c-0.249,0.31-0.373,0.664-0.373,1.059v1.983c0,0.14,0.073,0.229,0.221,0.264
				c0.147,0.036,0.334,0.054,0.56,0.054v0.354H208.949z"/>
			<path id="path69" inkscape:connector-curvature="0" fill="#FFFFFF" d="M217.341,24.418v-0.354c0.229,0,0.417-0.018,0.564-0.054
				c0.147-0.036,0.221-0.124,0.221-0.264v-2.743c0-0.259-0.051-0.417-0.152-0.476c-0.098-0.059-0.294-0.088-0.589-0.088v-0.353
				l1.448-0.108v3.769c0,0.14,0.063,0.229,0.191,0.264c0.128,0.036,0.298,0.055,0.51,0.055v0.354h-2.193V24.418z M217.768,18.25
				c0-0.147,0.056-0.276,0.167-0.388c0.111-0.112,0.239-0.166,0.383-0.166c0.095,0,0.186,0.024,0.275,0.073
				c0.088,0.049,0.157,0.118,0.206,0.206c0.049,0.088,0.073,0.18,0.073,0.275c0,0.144-0.055,0.272-0.167,0.382
				c-0.111,0.112-0.241,0.167-0.388,0.167c-0.144,0-0.272-0.055-0.383-0.167C217.823,18.52,217.768,18.393,217.768,18.25
				L217.768,18.25z"/>
			<path id="path71" inkscape:connector-curvature="0" fill="#FFFFFF" d="M219.942,24.418v-0.354c0.255,0,0.496-0.049,0.721-0.147
				c0.226-0.101,0.417-0.25,0.574-0.445l0.913-1.163l-1.187-1.546c-0.118-0.147-0.247-0.237-0.388-0.271
				c-0.137-0.035-0.332-0.053-0.584-0.053v-0.354h2.09v0.354c-0.088,0-0.172,0.02-0.25,0.059c-0.075,0.039-0.113,0.095-0.113,0.172
				c0,0.026,0.01,0.058,0.029,0.093l0.805,1.045l0.604-0.775c0.082-0.098,0.122-0.196,0.122-0.295c0-0.081-0.028-0.152-0.083-0.211
				c-0.052-0.059-0.123-0.088-0.211-0.088v-0.354h1.85v0.354c-0.259,0-0.502,0.051-0.731,0.152
				c-0.226,0.098-0.417,0.246-0.574,0.442l-0.795,1.016l1.286,1.699c0.128,0.147,0.26,0.236,0.397,0.269
				c0.138,0.033,0.334,0.049,0.589,0.049v0.354h-2.091v-0.354c0.082,0,0.16-0.02,0.236-0.059c0.075-0.039,0.113-0.097,0.113-0.171
				c0-0.029-0.01-0.059-0.029-0.088l-0.903-1.198l-0.722,0.923c-0.075,0.085-0.113,0.183-0.113,0.295
				c0,0.081,0.028,0.152,0.083,0.21c0.056,0.059,0.121,0.088,0.196,0.088v0.354H219.942z"/>
		</g>
		<g id="text4086">
			<path id="path74" inkscape:connector-curvature="0" fill="#FFFFFF" d="M241.692,16.302h-7.991v-1.078h7.991V16.302z
				 M241.692,19.132h-7.991v-1.078h7.991V19.132z"/>
		</g>
		<g id="text4088">
			<path id="path77" inkscape:connector-curvature="0" fill="#FFFFFF" d="M258.147,9.61c0.314,0.4,0.708,0.716,1.179,0.95
				c0.472,0.229,0.962,0.344,1.469,0.344c0.427,0,0.822-0.083,1.186-0.249c0.364-0.17,0.681-0.407,0.95-0.708
				c0.274-0.301,0.483-0.642,0.627-1.024c0.148-0.382,0.222-0.784,0.222-1.206c0-0.072,0.041-0.108,0.121-0.108h0.168
				c0.072,0,0.108,0.045,0.108,0.135c0,0.481-0.092,0.946-0.276,1.395c-0.184,0.445-0.445,0.838-0.782,1.179
				c-0.337,0.337-0.725,0.599-1.166,0.788c-0.436,0.189-0.892,0.283-1.368,0.283c-0.66,0-1.287-0.133-1.88-0.398
				c-0.589-0.269-1.103-0.636-1.543-1.098c-0.436-0.467-0.777-1.006-1.024-1.617c-0.242-0.611-0.364-1.246-0.364-1.907
				c0-0.66,0.121-1.296,0.364-1.907c0.247-0.611,0.589-1.15,1.024-1.617c0.44-0.467,0.955-0.831,1.543-1.092
				c0.593-0.265,1.22-0.397,1.88-0.397c0.472,0,0.923,0.103,1.354,0.31c0.431,0.202,0.809,0.489,1.132,0.862l0.802-1.132
				c0.054-0.027,0.085-0.04,0.094-0.04h0.101c0.027,0,0.052,0.011,0.074,0.034c0.022,0.022,0.034,0.049,0.034,0.081v3.726
				c0,0.081-0.036,0.121-0.108,0.121h-0.249c-0.085,0-0.128-0.04-0.128-0.121c0-0.265-0.054-0.562-0.162-0.89
				c-0.103-0.328-0.238-0.638-0.404-0.93c-0.162-0.297-0.35-0.557-0.566-0.782c-0.516-0.503-1.11-0.755-1.779-0.755
				c-0.508,0-0.995,0.115-1.462,0.344c-0.463,0.229-0.853,0.545-1.173,0.95c-0.337,0.431-0.57,0.923-0.701,1.476
				c-0.13,0.548-0.195,1.134-0.195,1.759c0,0.624,0.065,1.213,0.195,1.766C257.576,8.687,257.81,9.178,258.147,9.61z"/>
		</g>
		<g id="text4090">
			<path id="path80" inkscape:connector-curvature="0" fill="#FFFFFF" d="M266.006,13.932v-0.353c0.838,0,1.256-0.106,1.256-0.319
				V7.984c-0.347,0.167-0.785,0.25-1.315,0.25V7.881c0.821,0,1.441-0.214,1.86-0.643h0.142c0.023,0,0.044,0.01,0.064,0.029
				c0.023,0.017,0.034,0.036,0.034,0.059v5.933c0,0.213,0.419,0.319,1.256,0.319v0.353h-3.297V13.932z"/>
		</g>
		<g id="text4092">
			<path id="path83" inkscape:connector-curvature="0" fill="#FFFFFF" d="M251.52,31.162c-0.876,0-1.665-0.231-2.365-0.694
				c-0.696-0.467-1.242-1.085-1.637-1.853c-0.395-0.772-0.593-1.583-0.593-2.432c0-0.629,0.112-1.252,0.337-1.867
				c0.229-0.615,0.546-1.161,0.95-1.637c0.409-0.476,0.899-0.855,1.469-1.132c0.57-0.279,1.184-0.418,1.84-0.418
				c0.651,0,1.262,0.142,1.833,0.425c0.575,0.278,1.067,0.658,1.475,1.138c0.409,0.481,0.723,1.02,0.944,1.618
				c0.22,0.598,0.33,1.221,0.33,1.873c0,0.849-0.198,1.66-0.593,2.432c-0.395,0.768-0.944,1.386-1.644,1.853
				C253.165,30.931,252.383,31.162,251.52,31.162z M249.229,29.37c0.269,0.422,0.602,0.759,0.997,1.011
				c0.395,0.247,0.826,0.371,1.294,0.371c0.301,0,0.595-0.061,0.883-0.182c0.292-0.121,0.555-0.288,0.789-0.498
				c0.238-0.212,0.44-0.445,0.606-0.702c0.548-0.826,0.822-1.963,0.822-3.41c0-1.325-0.274-2.374-0.822-3.146
				c-0.269-0.387-0.606-0.697-1.011-0.93c-0.4-0.234-0.822-0.352-1.267-0.352c-0.449,0-0.876,0.117-1.28,0.352
				c-0.404,0.234-0.741,0.543-1.011,0.93c-0.216,0.3-0.384,0.622-0.505,0.963c-0.117,0.337-0.2,0.687-0.249,1.051
				c-0.049,0.364-0.074,0.742-0.074,1.132c0,0.418,0.022,0.827,0.067,1.226c0.049,0.396,0.137,0.784,0.263,1.166
				C248.861,28.734,249.027,29.074,249.229,29.37z"/>
			<path id="path85" inkscape:connector-curvature="0" fill="#FFFFFF" d="M257.302,30.859v-0.485c0.948,0,1.422-0.146,1.422-0.439
				v-7.581c0-0.292-0.474-0.438-1.422-0.438v-0.485h7.803l0.384,3.161h-0.398c-0.099-0.794-0.238-1.372-0.417-1.732
				c-0.175-0.359-0.458-0.606-0.849-0.741c-0.391-0.135-0.977-0.202-1.759-0.202h-1.354c-0.166,0-0.296,0.007-0.391,0.02
				c-0.09,0.013-0.164,0.054-0.222,0.121c-0.059,0.062-0.088,0.161-0.088,0.295v3.369h1.018c0.467,0,0.815-0.038,1.044-0.114
				c0.234-0.081,0.393-0.231,0.479-0.45c0.09-0.226,0.135-0.574,0.135-1.045h0.404v3.706h-0.404c0-0.467-0.045-0.814-0.135-1.038
				c-0.085-0.223-0.245-0.375-0.479-0.45c-0.229-0.081-0.577-0.121-1.044-0.121h-1.018v3.725c0,0.198,0.056,0.321,0.168,0.371
				c0.113,0.045,0.29,0.067,0.533,0.067h1.462c0.638,0,1.152-0.05,1.543-0.149c0.395-0.102,0.701-0.272,0.916-0.505
				c0.22-0.239,0.389-0.544,0.505-0.916c0.121-0.377,0.234-0.899,0.337-1.563h0.398l-0.579,3.618L257.302,30.859L257.302,30.859z"/>
			<path id="path87" inkscape:connector-curvature="0" fill="#FFFFFF" d="M266.682,30.859v-0.485c0.948,0,1.422-0.146,1.422-0.439
				v-7.581c0-0.292-0.474-0.438-1.422-0.438v-0.485h4.474v0.485c-1.177,0-1.765,0.146-1.765,0.438v7.581
				c0,0.198,0.056,0.321,0.168,0.371c0.112,0.045,0.29,0.067,0.532,0.067h1.065c0.688,0,1.218-0.126,1.59-0.377
				c0.373-0.252,0.636-0.594,0.788-1.024c0.157-0.436,0.276-1.013,0.357-1.732h0.397l-0.384,3.618L266.682,30.859L266.682,30.859z"
				/>
		</g>
		<g id="text4094">
			<path id="path90" inkscape:connector-curvature="0" fill="#FFFFFF" d="M274.856,33.705v-0.354c0.837,0,1.256-0.107,1.256-0.319
				v-5.276c-0.347,0.167-0.785,0.25-1.315,0.25v-0.353c0.821,0,1.441-0.215,1.86-0.643h0.142c0.023,0,0.044,0.011,0.064,0.029
				c0.023,0.015,0.034,0.035,0.034,0.058v5.933c0,0.212,0.419,0.319,1.256,0.319v0.354h-3.297V33.705z"/>
		</g>
		<g id="text4096">
			<path id="path93" inkscape:connector-curvature="0" fill="#FFFFFF" d="M290.378,17.718h-3.672v3.672h-1.118v-3.672h-3.672v-1.078
				h3.672v-3.672h1.118v3.672h3.672V17.718z"/>
		</g>
		<g id="text4098">
			<path id="path96" inkscape:connector-curvature="0" fill="#FFFFFF" d="M305.847,9.61c0.314,0.4,0.708,0.716,1.179,0.95
				c0.471,0.229,0.961,0.344,1.469,0.344c0.427,0,0.822-0.083,1.186-0.249c0.363-0.17,0.681-0.407,0.95-0.708
				c0.274-0.301,0.483-0.642,0.627-1.024c0.147-0.382,0.222-0.784,0.222-1.206c0-0.072,0.041-0.108,0.121-0.108h0.168
				c0.072,0,0.108,0.045,0.108,0.135c0,0.481-0.092,0.946-0.276,1.395c-0.185,0.445-0.445,0.838-0.782,1.179
				c-0.337,0.337-0.725,0.599-1.165,0.788c-0.436,0.189-0.892,0.283-1.368,0.283c-0.661,0-1.287-0.133-1.88-0.398
				c-0.588-0.269-1.103-0.636-1.543-1.098c-0.435-0.467-0.777-1.006-1.024-1.617c-0.243-0.611-0.364-1.246-0.364-1.907
				c0-0.66,0.121-1.296,0.364-1.907c0.247-0.611,0.589-1.15,1.024-1.617c0.441-0.467,0.956-0.831,1.543-1.092
				c0.594-0.265,1.219-0.397,1.88-0.397c0.471,0,0.923,0.103,1.354,0.31c0.431,0.202,0.808,0.489,1.132,0.862l0.801-1.132
				c0.055-0.027,0.087-0.04,0.095-0.04h0.101c0.027,0,0.052,0.011,0.074,0.034c0.022,0.022,0.034,0.049,0.034,0.081v3.726
				c0,0.081-0.036,0.121-0.108,0.121h-0.249c-0.086,0-0.128-0.04-0.128-0.121c0-0.265-0.054-0.562-0.161-0.89
				c-0.104-0.328-0.239-0.638-0.406-0.93c-0.161-0.297-0.35-0.557-0.565-0.782c-0.516-0.503-1.11-0.755-1.779-0.755
				c-0.508,0-0.995,0.115-1.462,0.344c-0.463,0.229-0.852,0.545-1.172,0.95c-0.337,0.431-0.57,0.923-0.7,1.476
				c-0.13,0.548-0.195,1.134-0.195,1.759c0,0.624,0.065,1.213,0.195,1.766C305.277,8.688,305.51,9.178,305.847,9.61z"/>
		</g>
		<g id="text4100">
			<path id="path99" inkscape:connector-curvature="0" fill="#FFFFFF" d="M313.574,13.932v-0.27c0-0.016,0.006-0.034,0.02-0.054
				l1.56-1.727c0.236-0.255,0.427-0.47,0.574-0.643c0.147-0.173,0.293-0.373,0.436-0.599c0.145-0.226,0.257-0.455,0.339-0.687
				c0.085-0.236,0.128-0.484,0.128-0.746c0-0.275-0.051-0.537-0.152-0.785c-0.101-0.252-0.254-0.453-0.456-0.603
				c-0.2-0.151-0.442-0.226-0.727-0.226c-0.291,0-0.554,0.088-0.785,0.265c-0.232,0.173-0.396,0.399-0.49,0.677
				c0.025-0.007,0.062-0.01,0.108-0.01c0.149,0,0.278,0.051,0.382,0.152c0.108,0.101,0.162,0.232,0.162,0.393
				c0,0.154-0.054,0.284-0.162,0.393c-0.105,0.105-0.232,0.157-0.382,0.157c-0.157,0-0.29-0.054-0.398-0.162
				c-0.105-0.111-0.157-0.24-0.157-0.388c0-0.252,0.048-0.488,0.142-0.706c0.095-0.223,0.232-0.419,0.408-0.589
				c0.18-0.173,0.382-0.306,0.604-0.397c0.224-0.092,0.464-0.138,0.716-0.138c0.383,0,0.739,0.082,1.071,0.246
				c0.33,0.16,0.592,0.389,0.784,0.687c0.194,0.294,0.289,0.639,0.289,1.036c0,0.291-0.063,0.568-0.191,0.829
				s-0.29,0.501-0.491,0.716c-0.199,0.213-0.455,0.455-0.765,0.727c-0.311,0.272-0.516,0.453-0.615,0.544l-1.139,1.094h0.967
				c0.474,0,0.87-0.003,1.188-0.01c0.321-0.01,0.49-0.023,0.51-0.039c0.079-0.085,0.159-0.394,0.241-0.927h0.294l-0.283,1.791h-3.73
				V13.932z"/>
		</g>
		<g id="text4102">
			<path id="path102" inkscape:connector-curvature="0" fill="#FFFFFF" d="M299.22,31.162c-0.876,0-1.664-0.231-2.366-0.694
				c-0.697-0.467-1.242-1.085-1.637-1.853c-0.395-0.772-0.593-1.583-0.593-2.432c0-0.629,0.112-1.252,0.337-1.867
				c0.229-0.615,0.546-1.161,0.95-1.637c0.41-0.476,0.899-0.855,1.469-1.132c0.571-0.279,1.184-0.418,1.84-0.418
				c0.651,0,1.263,0.142,1.833,0.425c0.575,0.278,1.066,0.658,1.476,1.138c0.408,0.481,0.723,1.02,0.943,1.618
				c0.22,0.598,0.33,1.221,0.33,1.873c0,0.849-0.197,1.66-0.594,2.432c-0.396,0.768-0.943,1.386-1.645,1.853
				C300.865,30.931,300.083,31.162,299.22,31.162z M296.929,29.37c0.27,0.422,0.602,0.759,0.998,1.011
				c0.396,0.247,0.826,0.371,1.294,0.371c0.301,0,0.595-0.061,0.883-0.182c0.292-0.121,0.554-0.288,0.789-0.498
				c0.239-0.212,0.441-0.445,0.606-0.702c0.549-0.826,0.822-1.963,0.822-3.41c0-1.325-0.274-2.374-0.822-3.146
				c-0.269-0.387-0.606-0.697-1.01-0.93c-0.4-0.234-0.822-0.352-1.267-0.352c-0.449,0-0.876,0.117-1.28,0.352
				c-0.406,0.234-0.742,0.543-1.012,0.93c-0.215,0.3-0.384,0.622-0.505,0.963c-0.116,0.337-0.199,0.687-0.25,1.051
				c-0.049,0.364-0.074,0.742-0.074,1.132c0,0.418,0.022,0.827,0.067,1.226c0.049,0.396,0.136,0.784,0.262,1.166
				C296.561,28.734,296.727,29.074,296.929,29.37z"/>
			<path id="path104" inkscape:connector-curvature="0" fill="#FFFFFF" d="M305.001,30.859v-0.485c0.949,0,1.421-0.146,1.421-0.439
				v-7.581c0-0.292-0.474-0.438-1.421-0.438v-0.485h7.803l0.384,3.161h-0.397c-0.1-0.794-0.239-1.372-0.418-1.732
				c-0.175-0.359-0.458-0.606-0.849-0.741s-0.977-0.202-1.759-0.202h-1.355c-0.166,0-0.296,0.007-0.39,0.02
				c-0.09,0.013-0.163,0.054-0.223,0.121c-0.058,0.062-0.087,0.161-0.087,0.295v3.369h1.017c0.467,0,0.815-0.038,1.044-0.114
				c0.234-0.081,0.394-0.231,0.478-0.45c0.09-0.226,0.135-0.574,0.135-1.045h0.406v3.706h-0.406c0-0.467-0.045-0.814-0.135-1.038
				c-0.086-0.223-0.244-0.375-0.478-0.45c-0.229-0.081-0.577-0.121-1.044-0.121h-1.017v3.725c0,0.198,0.056,0.321,0.168,0.371
				c0.112,0.045,0.29,0.067,0.532,0.067h1.462c0.638,0,1.153-0.05,1.543-0.149c0.396-0.102,0.701-0.272,0.916-0.505
				c0.22-0.239,0.389-0.544,0.505-0.916c0.122-0.377,0.234-0.899,0.337-1.563h0.397l-0.58,3.618L305.001,30.859L305.001,30.859z"/>
			<path id="path106" inkscape:connector-curvature="0" fill="#FFFFFF" d="M314.382,30.859v-0.485c0.949,0,1.421-0.146,1.421-0.439
				v-7.581c0-0.292-0.474-0.438-1.421-0.438v-0.485h4.475v0.485c-1.177,0-1.766,0.146-1.766,0.438v7.581
				c0,0.198,0.056,0.321,0.168,0.371c0.112,0.045,0.289,0.067,0.533,0.067h1.064c0.688,0,1.217-0.126,1.59-0.377
				c0.373-0.252,0.636-0.594,0.789-1.024c0.157-0.436,0.276-1.013,0.356-1.732h0.398l-0.384,3.618L314.382,30.859L314.382,30.859z"
				/>
		</g>
		<g id="text4104">
			<path id="path109" inkscape:connector-curvature="0" fill="#FFFFFF" d="M322.425,33.705v-0.27c0-0.016,0.006-0.034,0.02-0.054
				l1.56-1.727c0.236-0.255,0.428-0.469,0.575-0.643s0.293-0.373,0.436-0.599c0.145-0.225,0.257-0.455,0.34-0.687
				c0.084-0.235,0.128-0.484,0.128-0.746c0-0.275-0.051-0.536-0.152-0.786c-0.1-0.251-0.253-0.453-0.455-0.603
				c-0.201-0.15-0.442-0.225-0.728-0.225c-0.29,0-0.553,0.088-0.784,0.264c-0.233,0.174-0.396,0.4-0.491,0.678
				c0.027-0.007,0.062-0.01,0.108-0.01c0.15,0,0.278,0.051,0.383,0.152c0.107,0.102,0.161,0.232,0.161,0.392
				c0,0.154-0.054,0.285-0.161,0.393c-0.105,0.105-0.233,0.157-0.383,0.157c-0.157,0-0.29-0.054-0.397-0.162
				c-0.105-0.112-0.157-0.241-0.157-0.388c0-0.252,0.047-0.487,0.142-0.707c0.095-0.222,0.232-0.419,0.408-0.589
				c0.18-0.174,0.381-0.306,0.603-0.398c0.226-0.092,0.464-0.137,0.716-0.137c0.383,0,0.74,0.081,1.07,0.245
				c0.33,0.161,0.592,0.389,0.785,0.688c0.194,0.295,0.29,0.64,0.29,1.036c0,0.291-0.065,0.568-0.192,0.829
				c-0.128,0.262-0.291,0.501-0.491,0.717c-0.199,0.212-0.455,0.455-0.765,0.725c-0.312,0.272-0.516,0.453-0.615,0.545l-1.139,1.094
				h0.967c0.474,0,0.871-0.004,1.188-0.011c0.321-0.01,0.49-0.023,0.511-0.039c0.079-0.086,0.159-0.394,0.241-0.928h0.295
				l-0.286,1.791h-3.73V33.705z"/>
		</g>
		<g id="text4106">
			<path id="path112" inkscape:connector-curvature="0" fill="#FFFFFF" d="M338.228,17.718h-3.672v3.672h-1.12v-3.672h-3.671v-1.078
				h3.671v-3.672h1.12v3.672h3.672V17.718z"/>
		</g>
		<g id="text4110">
			<path id="path118" inkscape:connector-curvature="0" fill="#FFFFFF" d="M365.679,17.718h-3.671v3.672h-1.119v-3.672h-3.673
				v-1.078h3.673v-3.672h1.119v3.672h3.671V17.718z"/>
		</g>
		<g id="text4112">
			<path id="path121" inkscape:connector-curvature="0" fill="#FFFFFF" d="M381.147,9.61c0.314,0.4,0.707,0.716,1.179,0.95
				c0.472,0.229,0.961,0.344,1.469,0.344c0.427,0,0.822-0.083,1.186-0.249c0.365-0.17,0.682-0.407,0.951-0.708
				c0.274-0.301,0.483-0.642,0.626-1.024c0.149-0.382,0.222-0.784,0.222-1.206c0-0.072,0.04-0.108,0.121-0.108h0.168
				c0.072,0,0.108,0.045,0.108,0.135c0,0.481-0.093,0.946-0.276,1.395c-0.185,0.445-0.445,0.838-0.783,1.179
				c-0.337,0.337-0.724,0.599-1.165,0.788c-0.436,0.189-0.892,0.283-1.368,0.283c-0.66,0-1.287-0.133-1.88-0.398
				c-0.589-0.269-1.103-0.636-1.543-1.098c-0.436-0.467-0.777-1.006-1.024-1.617c-0.243-0.611-0.363-1.246-0.363-1.907
				c0-0.66,0.121-1.296,0.363-1.907c0.247-0.611,0.588-1.15,1.024-1.617c0.44-0.467,0.954-0.831,1.543-1.092
				c0.593-0.265,1.219-0.397,1.88-0.397c0.471,0,0.923,0.103,1.355,0.31c0.431,0.202,0.81,0.489,1.132,0.862l0.803-1.132
				c0.053-0.027,0.086-0.04,0.094-0.04h0.101c0.027,0,0.052,0.011,0.074,0.034c0.022,0.022,0.034,0.049,0.034,0.081v3.726
				c0,0.081-0.036,0.121-0.108,0.121h-0.25c-0.086,0-0.128-0.04-0.128-0.121c0-0.265-0.055-0.562-0.161-0.89
				c-0.104-0.328-0.239-0.638-0.406-0.93c-0.161-0.297-0.349-0.557-0.565-0.782c-0.516-0.503-1.108-0.755-1.779-0.755
				c-0.507,0-0.996,0.115-1.463,0.344c-0.462,0.229-0.853,0.545-1.172,0.95c-0.337,0.431-0.571,0.923-0.702,1.476
				c-0.13,0.548-0.195,1.134-0.195,1.759c0,0.624,0.065,1.213,0.195,1.766C380.576,8.687,380.81,9.178,381.147,9.61z"/>
		</g>
		<g id="text4114">
			<path id="path124" inkscape:connector-curvature="0" fill="#FFFFFF" d="M388.673,13.932v-0.353c0.229,0,0.417-0.018,0.565-0.054
				c0.149-0.036,0.22-0.124,0.22-0.265v-2.743c0-0.18-0.028-0.309-0.083-0.388c-0.053-0.082-0.13-0.131-0.232-0.147
				c-0.101-0.02-0.257-0.029-0.471-0.029V9.599l1.456-0.108v0.982c0.135-0.288,0.333-0.523,0.594-0.707
				c0.264-0.183,0.554-0.275,0.864-0.275c0.464,0,0.812,0.111,1.045,0.334c0.236,0.222,0.354,0.563,0.354,1.021v2.414
				c0,0.141,0.073,0.229,0.22,0.265c0.147,0.036,0.335,0.054,0.564,0.054v0.353h-2.301v-0.353c0.229,0,0.417-0.018,0.564-0.054
				c0.147-0.036,0.222-0.124,0.222-0.265v-2.385c0-0.327-0.048-0.595-0.142-0.805c-0.095-0.213-0.289-0.319-0.584-0.319
				c-0.389,0-0.71,0.156-0.961,0.466c-0.25,0.311-0.373,0.664-0.373,1.06v1.983c0,0.141,0.073,0.229,0.22,0.265
				c0.147,0.036,0.334,0.054,0.56,0.054v0.353H388.673z"/>
		</g>
		<g id="text4116">
			<path id="path127" inkscape:connector-curvature="0" fill="#FFFFFF" d="M374.52,31.162c-0.876,0-1.664-0.231-2.364-0.694
				c-0.697-0.467-1.242-1.085-1.636-1.853c-0.396-0.772-0.595-1.583-0.595-2.432c0-0.629,0.112-1.252,0.337-1.867
				c0.229-0.615,0.545-1.161,0.95-1.637c0.409-0.476,0.899-0.855,1.469-1.132c0.57-0.279,1.184-0.418,1.839-0.418
				c0.652,0,1.263,0.142,1.833,0.425c0.575,0.278,1.067,0.658,1.475,1.138c0.409,0.481,0.724,1.02,0.944,1.618
				c0.22,0.598,0.33,1.221,0.33,1.873c0,0.849-0.198,1.66-0.594,2.432c-0.394,0.768-0.943,1.386-1.644,1.853
				C376.164,30.931,375.383,31.162,374.52,31.162z M372.229,29.37c0.271,0.422,0.603,0.759,0.998,1.011
				c0.396,0.247,0.826,0.371,1.294,0.371c0.302,0,0.596-0.061,0.883-0.182c0.292-0.121,0.555-0.288,0.788-0.498
				c0.239-0.212,0.441-0.445,0.607-0.702c0.548-0.826,0.822-1.963,0.822-3.41c0-1.325-0.274-2.374-0.822-3.146
				c-0.269-0.387-0.607-0.697-1.011-0.93c-0.4-0.234-0.822-0.352-1.267-0.352c-0.449,0-0.876,0.117-1.28,0.352
				c-0.404,0.234-0.741,0.543-1.011,0.93c-0.215,0.3-0.384,0.622-0.505,0.963c-0.117,0.337-0.2,0.687-0.249,1.051
				c-0.05,0.364-0.074,0.742-0.074,1.132c0,0.418,0.022,0.827,0.067,1.226c0.049,0.396,0.138,0.784,0.262,1.166
				C371.861,28.734,372.027,29.074,372.229,29.37L372.229,29.37z"/>
			<path id="path129" inkscape:connector-curvature="0" fill="#FFFFFF" d="M380.302,30.859v-0.485c0.947,0,1.421-0.146,1.421-0.439
				v-7.581c0-0.292-0.474-0.438-1.421-0.438v-0.485h7.802l0.384,3.161h-0.397c-0.1-0.794-0.239-1.372-0.418-1.732
				c-0.175-0.359-0.457-0.606-0.849-0.741c-0.39-0.135-0.977-0.202-1.758-0.202h-1.355c-0.166,0-0.297,0.007-0.39,0.02
				c-0.091,0.013-0.164,0.054-0.222,0.121c-0.058,0.062-0.088,0.161-0.088,0.295v3.369h1.017c0.467,0,0.816-0.038,1.045-0.114
				c0.233-0.081,0.393-0.231,0.478-0.45c0.091-0.226,0.135-0.574,0.135-1.045h0.404v3.706h-0.404c0-0.467-0.045-0.814-0.135-1.038
				c-0.086-0.223-0.246-0.375-0.478-0.45c-0.229-0.081-0.578-0.121-1.045-0.121h-1.017v3.725c0,0.198,0.055,0.321,0.168,0.371
				c0.112,0.045,0.29,0.067,0.533,0.067h1.464c0.637,0,1.152-0.05,1.543-0.149c0.395-0.102,0.701-0.272,0.916-0.505
				c0.22-0.239,0.389-0.544,0.506-0.916c0.121-0.377,0.233-0.899,0.337-1.563h0.397l-0.58,3.618L380.302,30.859L380.302,30.859z"/>
			<path id="path131" inkscape:connector-curvature="0" fill="#FFFFFF" d="M389.681,30.859v-0.485c0.949,0,1.421-0.146,1.421-0.439
				v-7.581c0-0.292-0.474-0.438-1.421-0.438v-0.485h4.475v0.485c-1.177,0-1.765,0.146-1.765,0.438v7.581
				c0,0.198,0.056,0.321,0.168,0.371c0.112,0.045,0.289,0.067,0.532,0.067h1.065c0.688,0,1.217-0.126,1.59-0.377
				c0.373-0.252,0.636-0.594,0.789-1.024c0.157-0.436,0.276-1.013,0.358-1.732h0.397l-0.384,3.618L389.681,30.859L389.681,30.859z"
				/>
		</g>
		<g id="text4118">
			<path id="path134" inkscape:connector-curvature="0" fill="#FFFFFF" d="M397.523,33.705v-0.354c0.229,0,0.417-0.018,0.564-0.053
				c0.147-0.036,0.22-0.125,0.22-0.265V30.29c0-0.18-0.028-0.309-0.083-0.388c-0.053-0.082-0.129-0.131-0.231-0.147
				c-0.102-0.02-0.259-0.029-0.471-0.029v-0.354l1.456-0.108v0.981c0.134-0.288,0.332-0.523,0.594-0.706
				c0.265-0.184,0.553-0.275,0.864-0.275c0.464,0,0.813,0.111,1.045,0.334c0.236,0.222,0.354,0.563,0.354,1.02v2.415
				c0,0.14,0.074,0.229,0.22,0.265c0.147,0.035,0.335,0.053,0.565,0.053v0.354h-2.302v-0.354c0.229,0,0.417-0.018,0.565-0.053
				c0.147-0.036,0.221-0.125,0.221-0.265v-2.385c0-0.327-0.048-0.595-0.142-0.805c-0.095-0.213-0.29-0.319-0.584-0.319
				c-0.389,0-0.71,0.156-0.962,0.467c-0.248,0.312-0.373,0.664-0.373,1.06v1.983c0,0.14,0.074,0.229,0.221,0.264
				c0.147,0.035,0.333,0.053,0.559,0.053v0.354L397.523,33.705L397.523,33.705z"/>
		</g>
		<g id="text4120">
		</g>
		<g id="text4147">
			<path id="path138" inkscape:connector-curvature="0" fill="#FFFFFF" d="M343.409,19.633h-1.006v-1.2h1.006V19.633z"/>
			<path id="path140" inkscape:connector-curvature="0" fill="#FFFFFF" d="M349.572,19.633h-1.006v-1.2h1.006V19.633z"/>
			<path id="path142" inkscape:connector-curvature="0" fill="#FFFFFF" d="M355.734,19.633h-1.006v-1.2h1.006V19.633z"/>
		</g>
	</g>
	<path id="path3142-1-4" inkscape:connector-curvature="0" fill="#FFFFFF" stroke="#FFFFFF" stroke-width="0.8958" d="
		M254.222,22.043h28.19"/>
	<path id="path3142-1-4-8" inkscape:connector-curvature="0" fill="#FFFFFF" stroke="#FFFFFF" stroke-width="0.8958" d="
		M299.207,22.073h28.19"/>
	<path id="path3142-1-4-82" inkscape:connector-curvature="0" fill="#FFFFFF" stroke="#FFFFFF" stroke-width="0.8958" d="
		M370.775,22.27h28.191"/>
</g>
</svg>
