<?xml version="1.0" encoding="UTF-8" standalone="no"?>
<!-- Created with Inkscape (http://www.inkscape.org/) -->

<svg
   xmlns:dc="http://purl.org/dc/elements/1.1/"
   xmlns:cc="http://creativecommons.org/ns#"
   xmlns:rdf="http://www.w3.org/1999/02/22-rdf-syntax-ns#"
   xmlns:svg="http://www.w3.org/2000/svg"
   xmlns="http://www.w3.org/2000/svg"
   version="1.2"
   width="320"
   height="60"
   id="svg3020">
  <metadata
     id="metadata3026">
    <rdf:RDF>
      <cc:Work
         rdf:about="">
        <dc:format>image/svg+xml</dc:format>
        <dc:type
           rdf:resource="http://purl.org/dc/dcmitype/StillImage" />
        <dc:title></dc:title>
      </cc:Work>
    </rdf:RDF>
  </metadata>
  <defs
     id="defs3024" />
  <text
     x="44.56657"
     y="42.23513"
     transform="scale(0.95814898,1.043679)"
     id="text3030"
     xml:space="preserve"
     style="font-size:41.02812958px;font-style:normal;font-variant:normal;font-weight:normal;font-stretch:normal;line-height:125%;letter-spacing:0px;word-spacing:0px;fill:#000000;fill-opacity:1;font-family:Cambria Math;-inkscape-font-specification:Cambria Math"><tspan
       x="44.56657"
       y="42.23513"
       id="tspan3032" /></text>
  <g
     id="text3015"
     style="font-size:24px;font-style:normal;font-variant:normal;font-weight:normal;font-stretch:normal;text-align:center;line-height:125%;letter-spacing:0px;word-spacing:0px;text-anchor:middle;fill:#ffffff;fill-opacity:1;font-family:cmr10;-inkscape-font-specification:cmr10">
    <path
       d="m 73.055069,39.852501 c -10e-7,-0.570314 0.20703,-1.06836 0.621094,-1.494141 0.414061,-0.425781 0.906248,-0.728515 1.476562,-0.908203 -0.320315,-0.242187 -0.564455,-0.546874 -0.732422,-0.914062 -0.16797,-0.367186 -0.251955,-0.757811 -0.251953,-1.171875 -2e-6,-0.749997 0.238279,-1.414059 0.714844,-1.992188 -0.734377,-0.718745 -1.101564,-1.542962 -1.101563,-2.472656 -10e-7,-0.499993 0.107421,-0.968742 0.322266,-1.40625 0.214842,-0.437491 0.51367,-0.816397 0.896484,-1.136719 0.38281,-0.320302 0.808591,-0.564443 1.277344,-0.732422 0.468746,-0.167958 0.949214,-0.251942 1.441406,-0.251953 0.953119,1.1e-5 1.808587,0.277354 2.566407,0.832031 0.328116,-0.351552 0.716788,-0.623036 1.166015,-0.814453 0.44921,-0.191395 0.916006,-0.287098 1.400391,-0.287109 0.343739,1.1e-5 0.624989,0.123058 0.84375,0.369141 0.218738,0.246104 0.328113,0.541025 0.328125,0.884765 -1.2e-5,0.195322 -0.07423,0.367197 -0.222656,0.515625 -0.148449,0.148447 -0.320324,0.222665 -0.515625,0.222656 -0.203136,9e-6 -0.378917,-0.07421 -0.527344,-0.222656 -0.148448,-0.148428 -0.222666,-0.320303 -0.222656,-0.515625 -1e-5,-0.296865 0.09765,-0.503896 0.292968,-0.621094 -0.828134,1.1e-5 -1.539071,0.285167 -2.132812,0.855469 0.289054,0.289072 0.521476,0.642587 0.697266,1.060547 0.175772,0.417977 0.263662,0.833992 0.263671,1.248047 -9e-6,0.679694 -0.187509,1.291021 -0.5625,1.833984 -0.375008,0.542974 -0.869148,0.964848 -1.482421,1.265625 -0.613288,0.300785 -1.244147,0.451176 -1.892579,0.451172 -0.875004,4e-6 -1.675784,-0.238277 -2.402343,-0.714844 -0.226565,0.312504 -0.339847,0.664066 -0.339844,1.054688 -3e-6,0.421878 0.138669,0.791018 0.416016,1.107422 0.27734,0.316408 0.626949,0.474611 1.048828,0.474609 l 1.96875,0 c 0.953118,2e-6 1.812492,0.08594 2.578125,0.257813 0.765615,0.171876 1.408193,0.515625 1.927734,1.03125 0.51952,0.515624 0.779286,1.246092 0.779297,2.191406 -1.1e-5,0.703122 -0.296886,1.287106 -0.890625,1.751953 -0.59376,0.46484 -1.302744,0.800777 -2.126953,1.007813 -0.824226,0.207026 -1.587897,0.310541 -2.291016,0.310546 -0.710943,-5e-6 -1.480473,-0.10352 -2.308594,-0.310546 -0.828127,-0.207036 -1.539064,-0.542973 -2.132812,-1.007813 -0.593751,-0.464847 -0.890626,-1.048831 -0.890625,-1.751953 z m 1.347656,0 c -2e-6,0.53906 0.218748,0.990231 0.65625,1.353516 0.437497,0.363277 0.96484,0.632808 1.582031,0.808593 0.617183,0.175777 1.199214,0.263668 1.746094,0.263672 0.539056,-4e-6 1.117181,-0.08789 1.734375,-0.263672 0.617179,-0.175785 1.142569,-0.445316 1.576172,-0.808593 0.433584,-0.363285 0.650381,-0.814456 0.650391,-1.353516 -1e-5,-0.835939 -0.382822,-1.376954 -1.148438,-1.623047 -0.765633,-0.246094 -1.695319,-0.36914 -2.789062,-0.369141 l -1.96875,0 c -0.367191,1e-6 -0.705082,0.08789 -1.013672,0.263672 -0.308597,0.175781 -0.556643,0.421875 -0.744141,0.738282 -0.187502,0.316405 -0.281252,0.646482 -0.28125,0.990234 z m 3.316406,-6.046875 c 1.359369,4e-6 2.039056,-0.968745 2.039063,-2.90625 -7e-6,-0.83593 -0.144539,-1.525382 -0.433594,-2.068359 -0.289069,-0.54296 -0.824225,-0.814444 -1.605469,-0.814454 -0.781254,10e-6 -1.31641,0.271494 -1.605468,0.814454 -0.289066,0.542977 -0.433597,1.232429 -0.433594,2.068359 -3e-6,0.531256 0.05468,1.011725 0.164062,1.441406 0.109372,0.429693 0.312497,0.781255 0.609375,1.054688 0.296871,0.273441 0.718746,0.41016 1.265625,0.410156 z"
       id="path3887"
       style="fill:#ffffff" />
    <path
       d="m 85.008194,37.977501 0,-0.84375 c 0.546874,1e-6 0.996092,-0.04297 1.347656,-0.128906 0.35156,-0.08594 0.527341,-0.296874 0.527344,-0.632813 l 0,-6.550781 c -3e-6,-0.429679 -0.06446,-0.740226 -0.193359,-0.931641 -0.128909,-0.191397 -0.314456,-0.308584 -0.556641,-0.351562 -0.242189,-0.04296 -0.617189,-0.06444 -1.125,-0.06445 l 0,-0.84375 3.433594,-0.257813 0,2.34375 c 0.257808,-0.695303 0.624995,-1.259756 1.101562,-1.693359 0.476557,-0.433584 1.054682,-0.65038 1.734375,-0.650391 0.476555,1.1e-5 0.902336,0.140636 1.277344,0.421875 0.374991,0.28126 0.562491,0.652353 0.5625,1.113281 -9e-6,0.289072 -0.103524,0.541025 -0.310547,0.75586 -0.207039,0.214852 -0.462898,0.322273 -0.767578,0.322265 -0.296882,8e-6 -0.550788,-0.10546 -0.761719,-0.316406 -0.210944,-0.210929 -0.316413,-0.464835 -0.316406,-0.761719 -7e-6,-0.429678 0.152337,-0.734365 0.457031,-0.914062 l -0.140625,0 c -0.648444,10e-6 -1.17774,0.234385 -1.58789,0.703125 -0.410162,0.468759 -0.701177,1.050789 -0.873047,1.746094 -0.17188,0.695319 -0.257817,1.359381 -0.257813,1.992187 l 0,3.9375 c -4e-6,0.507814 0.777339,0.76172 2.332031,0.761719 l 0,0.84375 z"
       id="path3889"
       style="fill:#ffffff" />
    <path
       d="m 94.723038,35.622032 c -10e-7,-0.953122 0.374998,-1.728511 1.125,-2.326172 0.749997,-0.597651 1.650387,-1.019525 2.701172,-1.265625 1.050775,-0.246087 2.04882,-0.369134 2.99414,-0.36914 l 0,-0.984375 c -1e-5,-0.46093 -0.10157,-0.908195 -0.30469,-1.341797 -0.20313,-0.433585 -0.4961,-0.789053 -0.8789,-1.066406 -0.382822,-0.277334 -0.804697,-0.416006 -1.265629,-0.416016 -1.062504,10e-6 -1.871097,0.238291 -2.425781,0.714844 0.304685,9e-6 0.556637,0.115243 0.75586,0.345703 0.199214,0.230477 0.298824,0.498055 0.298828,0.802734 -4e-6,0.320321 -0.113285,0.593758 -0.339844,0.820313 -0.226566,0.226569 -0.496097,0.339851 -0.808594,0.339843 -0.320315,8e-6 -0.593752,-0.113274 -0.820312,-0.339843 -0.226565,-0.226555 -0.339846,-0.499992 -0.339844,-0.820313 -2e-6,-0.843741 0.38281,-1.470693 1.148437,-1.880859 0.765622,-0.410146 1.609371,-0.615224 2.53125,-0.615235 0.648432,1.1e-5 1.300779,0.138683 1.957029,0.416016 0.65624,0.277354 1.19335,0.673838 1.61133,1.189453 0.41796,0.515634 0.62694,1.117196 0.62695,1.804688 l 0,5.402343 c -1e-5,0.312502 0.0664,0.599611 0.19922,0.861329 0.13281,0.261719 0.33984,0.392578 0.6211,0.392578 0.26561,0 0.46288,-0.132812 0.59179,-0.398438 0.1289,-0.265623 0.19335,-0.550779 0.19336,-0.855469 l 0,-1.535156 0.70313,0 0,1.535156 c -1e-5,0.359377 -0.0938,0.701174 -0.28125,1.025391 -0.18751,0.324219 -0.43947,0.582032 -0.75586,0.773438 -0.31642,0.191406 -0.65821,0.287109 -1.02539,0.287109 -0.46876,0 -0.87306,-0.181641 -1.21289,-0.544922 -0.33985,-0.36328 -0.52931,-0.794921 -0.56836,-1.294922 -0.29688,0.601564 -0.73438,1.080079 -1.3125,1.435547 -0.578133,0.355469 -1.19532,0.533203 -1.851565,0.533203 -0.609379,0 -1.208988,-0.08984 -1.798828,-0.269531 -0.589846,-0.179687 -1.082033,-0.46289 -1.476562,-0.849609 -0.394533,-0.386718 -0.591798,-0.888671 -0.591797,-1.50586 z m 1.945312,0 c -3e-6,0.562502 0.207028,1.035158 0.621094,1.417969 0.414059,0.382813 0.902339,0.574219 1.464844,0.574219 0.515619,0 0.984369,-0.128906 1.406252,-0.386719 0.42187,-0.257812 0.7578,-0.609374 1.00781,-1.054688 0.24999,-0.44531 0.37499,-0.914059 0.375,-1.40625 l 0,-2.496093 c -0.72657,5e-6 -1.47071,0.119146 -2.232422,0.357422 -0.761723,0.238286 -1.392582,0.611332 -1.892578,1.11914 -0.500003,0.507816 -0.750003,1.132816 -0.75,1.875 z"
       id="path3891"
       style="fill:#ffffff" />
    <path
       d="m 106.50038,37.977501 0,-0.84375 c 0.54688,1e-6 0.99609,-0.04297 1.34766,-0.128906 0.35156,-0.08594 0.52734,-0.296874 0.52734,-0.632813 l 0,-6.550781 c 0,-0.617179 -0.11914,-0.996085 -0.35742,-1.136719 -0.23828,-0.140615 -0.70899,-0.210928 -1.41211,-0.210937 l 0,-0.84375 3.45703,-0.257813 0,9 c 0,0.335939 0.15234,0.546876 0.45703,0.632813 0.30469,0.08594 0.71093,0.128907 1.21875,0.128906 l 0,0.84375 z m 1.01953,-14.730469 c 0,-0.351547 0.13281,-0.660141 0.39844,-0.925781 0.26562,-0.265609 0.57031,-0.398422 0.91406,-0.398438 0.22656,1.6e-5 0.44531,0.05861 0.65625,0.175782 0.21094,0.117203 0.375,0.281265 0.49219,0.492187 0.11718,0.210953 0.17578,0.429703 0.17578,0.65625 0,0.343765 -0.13282,0.648452 -0.39844,0.914063 -0.26562,0.265638 -0.57422,0.398451 -0.92578,0.398437 -0.34375,1.4e-5 -0.64844,-0.132799 -0.91406,-0.398437 -0.26563,-0.265611 -0.39844,-0.570298 -0.39844,-0.914063 z"
       id="path3893"
       style="fill:#ffffff" />
    <path
       d="m 113.13319,37.977501 0,-0.84375 c 0.54688,1e-6 0.9961,-0.04297 1.34766,-0.128906 0.35156,-0.08594 0.52734,-0.296874 0.52734,-0.632813 l 0,-6.550781 c 0,-0.429679 -0.0644,-0.740226 -0.19336,-0.931641 -0.1289,-0.191397 -0.31445,-0.308584 -0.55664,-0.351562 -0.24219,-0.04296 -0.61718,-0.06444 -1.125,-0.06445 l 0,-0.84375 3.48047,-0.257813 0,2.34375 c 0.32031,-0.687491 0.79492,-1.24999 1.42383,-1.6875 0.6289,-0.437489 1.31445,-0.656239 2.05664,-0.65625 1.10937,1.1e-5 1.94335,0.265636 2.50195,0.796875 0.55859,0.531259 0.83788,1.343759 0.8379,2.4375 l 0,5.765625 c -2e-5,0.335939 0.17577,0.546876 0.52734,0.632813 0.35155,0.08594 0.80077,0.128907 1.34766,0.128906 l 0,0.84375 -5.4961,0 0,-0.84375 c 0.54687,10e-7 0.99609,-0.04297 1.34766,-0.128906 0.35155,-0.08594 0.52733,-0.296874 0.52734,-0.632813 l 0,-5.695312 c -1e-5,-0.781242 -0.11329,-1.42382 -0.33984,-1.927735 -0.22657,-0.503896 -0.69142,-0.755849 -1.39453,-0.755859 -0.9297,10e-6 -1.69337,0.371103 -2.29102,1.113281 -0.59766,0.742196 -0.89649,1.585945 -0.89648,2.53125 l 0,4.734375 c -10e-6,0.335939 0.17577,0.546876 0.52734,0.632813 0.35156,0.08594 0.79687,0.128907 1.33594,0.128906 l 0,0.84375 z"
       id="path3895"
       style="fill:#ffffff" />
    <path
       d="m 127.07851,43.497032 c 0,-0.04688 0.008,-0.07813 0.0234,-0.09375 l 8.34375,-23.132812 c 0.0312,-0.09373 0.0859,-0.165998 0.16407,-0.216797 0.0781,-0.05076 0.16796,-0.07615 0.26953,-0.07617 0.14061,1.8e-5 0.25585,0.04299 0.3457,0.128906 0.0898,0.08595 0.13476,0.203143 0.13477,0.351563 l 0,0.09375 -8.34375,23.132812 c -0.0938,0.195307 -0.2461,0.292963 -0.45703,0.292969 -0.13282,-6e-6 -0.2461,-0.04688 -0.33985,-0.140625 -0.0937,-0.09376 -0.14062,-0.207037 -0.14062,-0.339844 z"
       id="path3897"
       style="fill:#ffffff" />
    <path
       d="m 138.50429,37.977501 0,-0.84375 c 0.53906,1e-6 0.98437,-0.04297 1.33594,-0.128906 0.35156,-0.08594 0.52734,-0.296874 0.52734,-0.632813 l 0,-7.898437 -1.83984,0 0,-0.84375 1.83984,0 0,-2.871094 c 0,-0.515611 0.10742,-0.998033 0.32226,-1.447266 0.21485,-0.449203 0.50391,-0.841781 0.86719,-1.177734 0.36328,-0.335921 0.78125,-0.599593 1.25391,-0.791016 0.47265,-0.191389 0.96288,-0.287092 1.4707,-0.287109 0.53906,1.7e-5 1.02538,0.160173 1.45899,0.480469 0.43358,0.320328 0.65038,0.746109 0.65039,1.277343 -1e-5,0.304703 -0.10353,0.560562 -0.31055,0.767579 -0.20704,0.207045 -0.4629,0.310561 -0.76758,0.310546 -0.30469,1.5e-5 -0.56446,-0.103501 -0.7793,-0.310546 -0.21485,-0.207017 -0.32227,-0.462876 -0.32226,-0.767579 -1e-5,-0.499984 0.21484,-0.835921 0.64453,-1.007812 -0.25782,-0.08592 -0.48829,-0.12889 -0.69141,-0.128906 -0.46875,1.6e-5 -0.86914,0.166031 -1.20117,0.498047 -0.33203,0.332046 -0.58008,0.736343 -0.74414,1.21289 -0.16407,0.476577 -0.2461,0.949233 -0.24609,1.417969 l 0,2.824219 2.76562,0 0,0.84375 -2.68359,0 0,7.898437 c -1e-5,0.328126 0.23437,0.537111 0.70312,0.626953 0.46875,0.08985 1.00781,0.134767 1.61719,0.134766 l 0,0.84375 z"
       id="path3899"
       style="fill:#ffffff" />
    <path
       d="m 147.49257,35.094688 0,-6.621093 -1.99219,0 0,-0.621094 c 1.04687,10e-6 1.81641,-0.488271 2.3086,-1.464844 0.49218,-0.97655 0.73827,-2.035142 0.73828,-3.175781 l 0.6914,0 0,4.417969 3.38672,0 0,0.84375 -3.38672,0 0,6.574218 c 0,0.664065 0.11133,1.246096 0.33399,1.746094 0.22265,0.500001 0.62304,0.750001 1.20117,0.75 0.54687,1e-6 0.9414,-0.263671 1.18359,-0.791015 0.24218,-0.527342 0.36328,-1.095701 0.36328,-1.705079 l 0,-1.417968 0.69141,0 0,1.464843 c -1e-5,0.500003 -0.0918,0.994143 -0.27539,1.482422 -0.1836,0.488282 -0.45509,0.888673 -0.81445,1.201172 -0.35939,0.3125 -0.79688,0.46875 -1.3125,0.46875 -0.96095,0 -1.72071,-0.287109 -2.2793,-0.861328 -0.5586,-0.574218 -0.83789,-1.337889 -0.83789,-2.291016 z"
       id="path3901"
       style="fill:#ffffff" />
    <path
       d="m 155.85685,27.173968 c 0.24375,0.355475 0.57129,0.619541 0.98263,0.792199 0.41133,0.172659 0.85313,0.258988 1.32541,0.258988 0.6043,0 1.03341,-0.257718 1.28732,-0.773156 0.25391,-0.515435 0.38086,-1.100697 0.38087,-1.755786 -1e-5,-0.294533 -0.0267,-0.589068 -0.08,-0.883606 -0.0533,-0.294532 -0.14346,-0.568754 -0.27041,-0.822668 -0.12696,-0.253905 -0.30089,-0.457033 -0.52178,-0.609384 -0.22091,-0.152341 -0.49132,-0.228513 -0.81125,-0.228519 l -1.03595,0 c -0.0914,6e-6 -0.13711,-0.04824 -0.13711,-0.144728 l 0,-0.137112 c 0,-0.08124 0.0457,-0.121871 0.13711,-0.121876 l 0.86076,-0.06856 c 0.36562,6e-6 0.66904,-0.137105 0.91026,-0.411334 0.24121,-0.274216 0.41768,-0.608107 0.5294,-1.001674 0.11172,-0.393553 0.16758,-0.768069 0.16758,-1.123551 0,-0.497655 -0.1168,-0.906449 -0.35039,-1.226385 -0.2336,-0.319916 -0.58908,-0.479879 -1.06642,-0.479889 -0.3961,10e-6 -0.77443,0.07491 -1.13498,0.22471 -0.36055,0.149816 -0.64747,0.377065 -0.86075,0.681748 0.0203,-0.0051 0.0381,-0.0089 0.0533,-0.01143 0.0152,-0.0025 0.033,-0.0038 0.0533,-0.0038 0.23359,9e-6 0.4291,0.08126 0.58653,0.243754 0.15742,0.162511 0.23613,0.358021 0.23614,0.586531 -1e-5,0.223449 -0.0787,0.41642 -0.23614,0.578915 -0.15743,0.16251 -0.35294,0.243761 -0.58653,0.243753 -0.22852,8e-6 -0.42403,-0.08124 -0.58653,-0.243753 -0.16251,-0.162495 -0.24376,-0.355466 -0.24376,-0.578915 0,-0.446872 0.13457,-0.835354 0.40372,-1.165446 0.26914,-0.330073 0.61573,-0.580174 1.03976,-0.750303 0.42403,-0.170109 0.84933,-0.255169 1.2759,-0.25518 0.31484,1.1e-5 0.64746,0.04698 0.99786,0.14092 0.35039,0.09396 0.66778,0.228529 0.95217,0.403717 0.28437,0.175207 0.5167,0.399917 0.69698,0.674131 0.18027,0.274231 0.27041,0.58654 0.27041,0.936927 0,0.436733 -0.0978,0.840449 -0.29326,1.21115 -0.19552,0.370715 -0.4634,0.690641 -0.80363,0.959779 -0.34024,0.26915 -0.71349,0.469739 -1.11974,0.601766 0.45195,0.08633 0.88106,0.256454 1.28732,0.510359 0.40625,0.253914 0.73253,0.578919 0.97882,0.975014 0.24629,0.396103 0.36944,0.822671 0.36944,1.279705 0,0.573839 -0.15743,1.093084 -0.47227,1.557737 -0.31485,0.464656 -0.72873,0.827746 -1.24162,1.089273 -0.5129,0.261527 -1.05373,0.39229 -1.62248,0.392291 -0.48751,-10e-7 -0.97629,-0.09268 -1.46633,-0.278031 -0.49005,-0.185355 -0.89123,-0.463385 -1.20353,-0.834094 -0.31231,-0.370707 -0.46847,-0.815049 -0.46847,-1.333027 0,-0.258985 0.0863,-0.474809 0.25899,-0.64747 0.17266,-0.172656 0.38848,-0.258985 0.64747,-0.258988 0.16758,3e-6 0.32119,0.03936 0.46085,0.118068 0.13965,0.07871 0.24883,0.189166 0.32754,0.331352 0.0787,0.142192 0.11807,0.294538 0.11807,0.457038 0,0.253912 -0.0889,0.467196 -0.26661,0.639853 -0.17774,0.17266 -0.39102,0.258989 -0.63985,0.258988 z"
       id="path3903"
       style="font-size:65.00091553%;baseline-shift:super;fill:#ffffff" />
    <path
       d="m 172.63643,35.094688 0,-6.621093 -1.99219,0 0,-0.621094 c 1.04687,10e-6 1.81641,-0.488271 2.3086,-1.464844 0.49218,-0.97655 0.73827,-2.035142 0.73828,-3.175781 l 0.6914,0 0,4.417969 3.38672,0 0,0.84375 -3.38672,0 0,6.574218 c 0,0.664065 0.11133,1.246096 0.33399,1.746094 0.22265,0.500001 0.62304,0.750001 1.20117,0.75 0.54687,1e-6 0.9414,-0.263671 1.18359,-0.791015 0.24218,-0.527342 0.36328,-1.095701 0.36328,-1.705079 l 0,-1.417968 0.69141,0 0,1.464843 c -1e-5,0.500003 -0.0918,0.994143 -0.27539,1.482422 -0.1836,0.488282 -0.45509,0.888673 -0.81445,1.201172 -0.35939,0.3125 -0.79688,0.46875 -1.3125,0.46875 -0.96095,0 -1.72071,-0.287109 -2.2793,-0.861328 -0.5586,-0.574218 -0.83789,-1.337889 -0.83789,-2.291016 z"
       id="path3905"
       style="fill:#ffffff" />
    <path
       d="m 185.51534,38.247032 c -0.96095,0 -1.85157,-0.24414 -2.67188,-0.732422 -0.82031,-0.48828 -1.46875,-1.142576 -1.94531,-1.96289 -0.47657,-0.82031 -0.71485,-1.71484 -0.71485,-2.683594 0,-0.734369 0.13086,-1.4414 0.39258,-2.121094 0.26172,-0.679679 0.63672,-1.287101 1.125,-1.822265 0.48828,-0.535147 1.05664,-0.953115 1.70508,-1.253907 0.64843,-0.30077 1.35156,-0.451161 2.10938,-0.451172 0.98436,1.1e-5 1.88085,0.259777 2.68945,0.779297 0.80858,0.519541 1.44725,1.214853 1.91601,2.085938 0.46874,0.871101 0.70312,1.798834 0.70313,2.783203 -1e-5,0.960942 -0.23829,1.853519 -0.71484,2.677734 -0.47658,0.824221 -1.12306,1.48047 -1.93946,1.96875 -0.81641,0.488282 -1.70118,0.732422 -2.65429,0.732422 z m 0,-0.703125 c 1.28124,1e-6 2.13671,-0.464843 2.5664,-1.394531 0.42968,-0.929685 0.64452,-2.113277 0.64453,-3.550781 -1e-5,-0.804682 -0.043,-1.470697 -0.1289,-1.998047 -0.086,-0.527336 -0.27345,-1.005851 -0.5625,-1.435547 -0.1797,-0.265616 -0.40821,-0.498038 -0.68555,-0.697266 -0.27735,-0.199209 -0.57032,-0.351552 -0.87891,-0.457031 -0.3086,-0.105459 -0.62696,-0.158193 -0.95507,-0.158203 -0.50001,10e-6 -0.97462,0.113291 -1.42383,0.339844 -0.44923,0.226572 -0.82227,0.55079 -1.11914,0.972656 -0.29688,0.453133 -0.48633,0.95118 -0.56836,1.494141 -0.082,0.542975 -0.12305,1.189459 -0.12305,1.939453 0,0.898442 0.0781,1.705081 0.23438,2.419922 0.15624,0.714846 0.47069,1.314454 0.94335,1.798828 0.47266,0.484375 1.1582,0.726563 2.05665,0.726562 z"
       id="path3907"
       style="fill:#ffffff" />
    <path
       d="m 200.19893,39.852501 c 0,-0.570314 0.20703,-1.06836 0.62109,-1.494141 0.41406,-0.425781 0.90625,-0.728515 1.47657,-0.908203 -0.32032,-0.242187 -0.56446,-0.546874 -0.73243,-0.914062 -0.16797,-0.367186 -0.25195,-0.757811 -0.25195,-1.171875 0,-0.749997 0.23828,-1.414059 0.71484,-1.992188 -0.73437,-0.718745 -1.10156,-1.542962 -1.10156,-2.472656 0,-0.499993 0.10742,-0.968742 0.32227,-1.40625 0.21484,-0.437491 0.51367,-0.816397 0.89648,-1.136719 0.38281,-0.320302 0.80859,-0.564443 1.27735,-0.732422 0.46874,-0.167958 0.94921,-0.251942 1.4414,-0.251953 0.95312,1.1e-5 1.80859,0.277354 2.56641,0.832031 0.32811,-0.351552 0.71679,-0.623036 1.16601,-0.814453 0.44921,-0.191395 0.91601,-0.287098 1.40039,-0.287109 0.34374,1.1e-5 0.62499,0.123058 0.84375,0.369141 0.21874,0.246104 0.32812,0.541025 0.32813,0.884765 -1e-5,0.195322 -0.0742,0.367197 -0.22266,0.515625 -0.14845,0.148447 -0.32032,0.222665 -0.51562,0.222656 -0.20314,9e-6 -0.37892,-0.07421 -0.52735,-0.222656 -0.14844,-0.148428 -0.22266,-0.320303 -0.22265,-0.515625 -10e-6,-0.296865 0.0976,-0.503896 0.29297,-0.621094 -0.82814,1.1e-5 -1.53908,0.285167 -2.13282,0.855469 0.28906,0.289072 0.52148,0.642587 0.69727,1.060547 0.17577,0.417977 0.26366,0.833992 0.26367,1.248047 -1e-5,0.679694 -0.18751,1.291021 -0.5625,1.833984 -0.37501,0.542974 -0.86915,0.964848 -1.48242,1.265625 -0.61329,0.300785 -1.24415,0.451176 -1.89258,0.451172 -0.875,4e-6 -1.67578,-0.238277 -2.40234,-0.714844 -0.22657,0.312504 -0.33985,0.664066 -0.33985,1.054688 0,0.421878 0.13867,0.791018 0.41602,1.107422 0.27734,0.316408 0.62695,0.474611 1.04883,0.474609 l 1.96875,0 c 0.95312,2e-6 1.81249,0.08594 2.57812,0.257813 0.76562,0.171876 1.4082,0.515625 1.92774,1.03125 0.51952,0.515624 0.77928,1.246092 0.77929,2.191406 -1e-5,0.703122 -0.29688,1.287106 -0.89062,1.751953 -0.59376,0.46484 -1.30274,0.800777 -2.12695,1.007813 -0.82423,0.207026 -1.5879,0.310541 -2.29102,0.310546 -0.71094,-5e-6 -1.48047,-0.10352 -2.30859,-0.310546 -0.82813,-0.207036 -1.53907,-0.542973 -2.13282,-1.007813 -0.59375,-0.464847 -0.89062,-1.048831 -0.89062,-1.751953 z m 1.34766,0 c -1e-5,0.53906 0.21874,0.990231 0.65625,1.353516 0.43749,0.363277 0.96484,0.632808 1.58203,0.808593 0.61718,0.175777 1.19921,0.263668 1.74609,0.263672 0.53906,-4e-6 1.11718,-0.08789 1.73438,-0.263672 0.61717,-0.175785 1.14256,-0.445316 1.57617,-0.808593 0.43358,-0.363285 0.65038,-0.814456 0.65039,-1.353516 -10e-6,-0.835939 -0.38282,-1.376954 -1.14844,-1.623047 -0.76563,-0.246094 -1.69532,-0.36914 -2.78906,-0.369141 l -1.96875,0 c -0.36719,1e-6 -0.70508,0.08789 -1.01367,0.263672 -0.3086,0.175781 -0.55665,0.421875 -0.74414,0.738282 -0.18751,0.316405 -0.28126,0.646482 -0.28125,0.990234 z m 3.3164,-6.046875 c 1.35937,4e-6 2.03906,-0.968745 2.03906,-2.90625 0,-0.83593 -0.14453,-1.525382 -0.43359,-2.068359 -0.28907,-0.54296 -0.82422,-0.814444 -1.60547,-0.814454 -0.78125,10e-6 -1.31641,0.271494 -1.60547,0.814454 -0.28906,0.542977 -0.43359,1.232429 -0.43359,2.068359 0,0.531256 0.0547,1.011725 0.16406,1.441406 0.10937,0.429693 0.3125,0.781255 0.60938,1.054688 0.29687,0.273441 0.71874,0.41016 1.26562,0.410156 z"
       id="path3909"
       style="fill:#ffffff" />
    <path
       d="m 212.87862,43.497032 c -1e-5,-0.04688 0.008,-0.07813 0.0234,-0.09375 L 221.2458,20.27047 c 0.0312,-0.09373 0.0859,-0.165998 0.16407,-0.216797 0.0781,-0.05076 0.16796,-0.07615 0.26953,-0.07617 0.14061,1.8e-5 0.25585,0.04299 0.3457,0.128906 0.0898,0.08595 0.13476,0.203143 0.13477,0.351563 l 0,0.09375 -8.34375,23.132812 c -0.0938,0.195307 -0.2461,0.292963 -0.45703,0.292969 -0.13282,-6e-6 -0.2461,-0.04688 -0.33985,-0.140625 -0.0937,-0.09376 -0.14063,-0.207037 -0.14062,-0.339844 z"
       id="path3911"
       style="fill:#ffffff" />
    <path
       d="m 224.2458,37.977501 0,-0.84375 c 0.54688,1e-6 0.9961,-0.04297 1.34766,-0.128906 0.35156,-0.08594 0.52734,-0.296874 0.52734,-0.632813 l 0,-6.550781 c 0,-0.429679 -0.0644,-0.740226 -0.19336,-0.931641 -0.1289,-0.191397 -0.31445,-0.308584 -0.55664,-0.351562 -0.24219,-0.04296 -0.61718,-0.06444 -1.125,-0.06445 l 0,-0.84375 3.48047,-0.257813 0,2.34375 c 0.32031,-0.687491 0.79492,-1.24999 1.42383,-1.6875 0.6289,-0.437489 1.31445,-0.656239 2.05664,-0.65625 1.84374,1.1e-5 2.92577,0.75001 3.2461,2.25 0.3203,-0.671866 0.78905,-1.214834 1.40625,-1.628906 0.61717,-0.414052 1.29295,-0.621083 2.02734,-0.621094 0.72655,1.1e-5 1.33787,0.117198 1.83398,0.351563 0.49608,0.234385 0.86913,0.591806 1.11914,1.072265 0.24999,0.480478 0.37499,1.083993 0.375,1.810547 l 0,5.765625 c -1e-5,0.335939 0.17772,0.546876 0.53321,0.632813 0.35545,0.08594 0.80271,0.128907 1.34179,0.128906 l 0,0.84375 -5.49609,0 0,-0.84375 c 0.54686,10e-7 0.99608,-0.04297 1.34766,-0.128906 0.35154,-0.08594 0.52732,-0.296874 0.52734,-0.632813 l 0,-5.695312 c -2e-5,-0.80468 -0.1133,-1.453117 -0.33984,-1.945313 -0.22658,-0.492178 -0.69142,-0.738271 -1.39453,-0.738281 -0.92189,10e-6 -1.68361,0.371103 -2.28516,1.113281 -0.60157,0.742196 -0.90236,1.585945 -0.90234,2.53125 l 0,4.734375 c -2e-5,0.335939 0.17577,0.546876 0.52734,0.632813 0.35155,0.08594 0.80077,0.128907 1.34766,0.128906 l 0,0.84375 -5.4961,0 0,-0.84375 c 0.54687,10e-7 0.99609,-0.04297 1.34766,-0.128906 0.35155,-0.08594 0.52733,-0.296874 0.52734,-0.632813 l 0,-5.695312 c -1e-5,-0.781242 -0.11329,-1.42382 -0.33984,-1.927735 -0.22657,-0.503896 -0.69142,-0.755849 -1.39453,-0.755859 -0.9297,10e-6 -1.69337,0.371103 -2.29102,1.113281 -0.59766,0.742196 -0.89649,1.585945 -0.89648,2.53125 l 0,4.734375 c -1e-5,0.335939 0.17577,0.546876 0.52734,0.632813 0.35156,0.08594 0.79687,0.128907 1.33594,0.128906 l 0,0.84375 z"
       id="path3913"
       style="fill:#ffffff" />
    <path
       d="m 245.03196,27.173968 c 0.24375,0.355475 0.57129,0.619541 0.98263,0.792199 0.41133,0.172659 0.85313,0.258988 1.32541,0.258988 0.6043,0 1.03341,-0.257718 1.28732,-0.773156 0.25391,-0.515435 0.38086,-1.100697 0.38087,-1.755786 -1e-5,-0.294533 -0.0267,-0.589068 -0.08,-0.883606 -0.0533,-0.294532 -0.14346,-0.568754 -0.27041,-0.822668 -0.12696,-0.253905 -0.30089,-0.457033 -0.52178,-0.609384 -0.22091,-0.152341 -0.49132,-0.228513 -0.81125,-0.228519 l -1.03595,0 c -0.0914,6e-6 -0.13711,-0.04824 -0.13711,-0.144728 l 0,-0.137112 c 0,-0.08124 0.0457,-0.121871 0.13711,-0.121876 l 0.86076,-0.06856 c 0.36562,6e-6 0.66904,-0.137105 0.91026,-0.411334 0.24121,-0.274216 0.41768,-0.608107 0.5294,-1.001674 0.11172,-0.393553 0.16758,-0.768069 0.16758,-1.123551 0,-0.497655 -0.1168,-0.906449 -0.35039,-1.226385 -0.2336,-0.319916 -0.58908,-0.479879 -1.06642,-0.479889 -0.3961,10e-6 -0.77443,0.07491 -1.13498,0.22471 -0.36055,0.149816 -0.64747,0.377065 -0.86075,0.681748 0.0203,-0.0051 0.0381,-0.0089 0.0533,-0.01143 0.0152,-0.0025 0.033,-0.0038 0.0533,-0.0038 0.23359,9e-6 0.4291,0.08126 0.58653,0.243754 0.15742,0.162511 0.23613,0.358021 0.23614,0.586531 -1e-5,0.223449 -0.0787,0.41642 -0.23614,0.578915 -0.15743,0.16251 -0.35294,0.243761 -0.58653,0.243753 -0.22852,8e-6 -0.42403,-0.08124 -0.58653,-0.243753 -0.16251,-0.162495 -0.24376,-0.355466 -0.24376,-0.578915 0,-0.446872 0.13457,-0.835354 0.40372,-1.165446 0.26914,-0.330073 0.61573,-0.580174 1.03976,-0.750303 0.42403,-0.170109 0.84933,-0.255169 1.2759,-0.25518 0.31484,1.1e-5 0.64746,0.04698 0.99786,0.14092 0.35039,0.09396 0.66778,0.228529 0.95217,0.403717 0.28437,0.175207 0.5167,0.399917 0.69698,0.674131 0.18027,0.274231 0.27041,0.58654 0.27041,0.936927 0,0.436733 -0.0978,0.840449 -0.29326,1.21115 -0.19552,0.370715 -0.4634,0.690641 -0.80363,0.959779 -0.34024,0.26915 -0.71349,0.469739 -1.11974,0.601766 0.45195,0.08633 0.88106,0.256454 1.28732,0.510359 0.40625,0.253914 0.73253,0.578919 0.97882,0.975014 0.24629,0.396103 0.36944,0.822671 0.36944,1.279705 0,0.573839 -0.15743,1.093084 -0.47227,1.557737 -0.31485,0.464656 -0.72873,0.827746 -1.24162,1.089273 -0.5129,0.261527 -1.05373,0.39229 -1.62248,0.392291 -0.48751,-10e-7 -0.97629,-0.09268 -1.46633,-0.278031 -0.49005,-0.185355 -0.89123,-0.463385 -1.20353,-0.834094 -0.31231,-0.370707 -0.46847,-0.815049 -0.46847,-1.333027 0,-0.258985 0.0863,-0.474809 0.25899,-0.64747 0.17266,-0.172656 0.38848,-0.258985 0.64747,-0.258988 0.16758,3e-6 0.32119,0.03936 0.46085,0.118068 0.13965,0.07871 0.24883,0.189166 0.32754,0.331352 0.0787,0.142192 0.11807,0.294538 0.11807,0.457038 0,0.253912 -0.0889,0.467196 -0.26661,0.639853 -0.17774,0.17266 -0.39102,0.258989 -0.63985,0.258988 z"
       id="path3915"
       style="font-size:65.00091553%;baseline-shift:super;fill:#ffffff" />
  </g>
</svg>
