<?xml version="1.0" encoding="UTF-8" standalone="no"?>
<!-- Created with Inkscape (http://www.inkscape.org/) -->

<svg
   xmlns:dc="http://purl.org/dc/elements/1.1/"
   xmlns:cc="http://creativecommons.org/ns#"
   xmlns:rdf="http://www.w3.org/1999/02/22-rdf-syntax-ns#"
   xmlns:svg="http://www.w3.org/2000/svg"
   xmlns="http://www.w3.org/2000/svg"
   version="1.2"
   width="320"
   height="60"
   id="svg3020">
  <metadata
     id="metadata3026">
    <rdf:RDF>
      <cc:Work
         rdf:about="">
        <dc:format>image/svg+xml</dc:format>
        <dc:type
           rdf:resource="http://purl.org/dc/dcmitype/StillImage" />
        <dc:title></dc:title>
      </cc:Work>
    </rdf:RDF>
  </metadata>
  <defs
     id="defs3024" />
  <text
     x="44.56657"
     y="42.23513"
     transform="scale(0.95814898,1.043679)"
     id="text3030"
     xml:space="preserve"
     style="font-size:41.02812958px;font-style:normal;font-variant:normal;font-weight:normal;font-stretch:normal;line-height:125%;letter-spacing:0px;word-spacing:0px;fill:#000000;fill-opacity:1;stroke:none;font-family:Cambria Math;-inkscape-font-specification:Cambria Math"><tspan
       x="44.56657"
       y="42.23513"
       id="tspan3032" /></text>
  <g
     id="text6486"
     style="font-size:24px;font-style:normal;font-variant:normal;font-weight:normal;font-stretch:normal;text-align:center;line-height:125%;letter-spacing:0px;word-spacing:0px;text-anchor:middle;fill:#ffffff;fill-opacity:1;stroke:#f9f9f9;font-family:cmr10;-inkscape-font-specification:cmr10">
    <path
       d="m 127.44855,38.448742 -5.66016,-15.058594 c -0.14063,-0.335922 -0.41016,-0.54686 -0.80859,-0.632812 -0.39844,-0.08592 -0.90625,-0.128891 -1.52344,-0.128907 l 0,-0.84375 6.59766,0 0,0.84375 c -1.32813,1.6e-5 -1.9922,0.207047 -1.99219,0.621094 0.008,0.02345 0.0137,0.04494 0.0176,0.06445 0.004,0.01955 0.006,0.04494 0.006,0.07617 l 4.60546,12.246094 4.34766,-11.589844 c 0.0312,-0.06249 0.0469,-0.160142 0.0469,-0.292969 -2e-5,-0.39061 -0.17971,-0.675766 -0.53907,-0.855468 -0.35938,-0.179672 -0.76173,-0.269516 -1.20703,-0.269532 l 0,-0.84375 5.17969,0 0,0.84375 c -0.60158,1.6e-5 -1.13088,0.111344 -1.58789,0.333985 -0.45705,0.222671 -0.78322,0.583999 -0.97852,1.083984 l -5.42578,14.402344 c -0.0469,0.171874 -0.17579,0.257812 -0.38672,0.257812 l -0.30468,0 c -0.21095,0 -0.33986,-0.08594 -0.38672,-0.257812 z"
       id="path6550"
       style="fill:#ffffff;stroke:#f9f9f9" />
    <path
       d="m 142.99933,38.448742 c -0.96094,0 -1.85157,-0.244141 -2.67188,-0.732422 -0.82031,-0.48828 -1.46875,-1.142576 -1.94531,-1.962891 -0.47656,-0.820309 -0.71484,-1.714839 -0.71484,-2.683593 0,-0.734369 0.13086,-1.4414 0.39258,-2.121094 0.26171,-0.67968 0.63671,-1.287101 1.125,-1.822266 0.48827,-0.535146 1.05663,-0.953115 1.70507,-1.253906 0.64844,-0.300771 1.35156,-0.451161 2.10938,-0.451172 0.98437,1.1e-5 1.88085,0.259776 2.68945,0.779297 0.80859,0.519541 1.44726,1.214853 1.91602,2.085938 0.46874,0.8711 0.70311,1.798834 0.70312,2.783203 -1e-5,0.960941 -0.23829,1.853519 -0.71484,2.677734 -0.47657,0.82422 -1.12306,1.48047 -1.93945,1.96875 -0.81642,0.488281 -1.70118,0.732422 -2.6543,0.732422 z m 0,-0.703125 c 1.28124,0 2.13671,-0.464843 2.5664,-1.394531 0.42968,-0.929685 0.64453,-2.113278 0.64454,-3.550782 -1e-5,-0.804681 -0.043,-1.470696 -0.12891,-1.998046 -0.0859,-0.527336 -0.27345,-1.005851 -0.5625,-1.435547 -0.1797,-0.265616 -0.40821,-0.498038 -0.68555,-0.697266 -0.27735,-0.199209 -0.57032,-0.351553 -0.8789,-0.457031 -0.3086,-0.105459 -0.62696,-0.158193 -0.95508,-0.158203 -0.50001,10e-6 -0.97462,0.113291 -1.42383,0.339843 -0.44922,0.226572 -0.82227,0.550791 -1.11914,0.972657 -0.29688,0.453133 -0.48633,0.951179 -0.56836,1.49414 -0.082,0.542976 -0.12305,1.18946 -0.12305,1.939453 0,0.898442 0.0781,1.705082 0.23438,2.419922 0.15625,0.714846 0.4707,1.314455 0.94336,1.798828 0.47265,0.484376 1.1582,0.726563 2.05664,0.726563 z"
       id="path6552"
       style="fill:#ffffff;stroke:#f9f9f9" />
    <path
       d="m 149.73761,38.179211 0,-0.84375 c 0.54687,10e-7 0.99609,-0.04297 1.34766,-0.128907 0.35156,-0.08594 0.52734,-0.296873 0.52734,-0.632812 l 0,-12.597656 c 0,-0.429673 -0.0645,-0.74022 -0.19336,-0.931641 -0.12891,-0.191391 -0.31445,-0.308578 -0.55664,-0.351562 -0.24219,-0.04295 -0.61719,-0.06444 -1.125,-0.06445 l 0,-0.84375 3.5625,-0.257812 0,15.046875 c 0,0.335939 0.17578,0.546876 0.52734,0.632812 0.35156,0.08594 0.79687,0.128908 1.33594,0.128907 l 0,0.84375 z"
       id="path6554"
       style="fill:#ffffff;stroke:#f9f9f9" />
    <path
       d="m 158.24542,35.319836 0,-5.296875 c 0,-0.429679 -0.0644,-0.740226 -0.19336,-0.931641 -0.12891,-0.191397 -0.31445,-0.308584 -0.55664,-0.351562 -0.24219,-0.04296 -0.61719,-0.06444 -1.125,-0.06445 l 0,-0.84375 3.63281,-0.257812 0,7.746094 c 0,0.625002 0.0449,1.11133 0.13477,1.458984 0.0898,0.347657 0.28125,0.607423 0.57422,0.779297 0.29296,0.171875 0.75976,0.257813 1.40039,0.257812 0.85937,10e-7 1.54296,-0.359374 2.05078,-1.078125 0.5078,-0.718747 0.76171,-1.535153 0.76172,-2.449218 l 0,-4.265625 c -1e-5,-0.429679 -0.0664,-0.740226 -0.19922,-0.931641 -0.13282,-0.191397 -0.31837,-0.308584 -0.55664,-0.351562 -0.23829,-0.04296 -0.61134,-0.06444 -1.11914,-0.06445 l 0,-0.84375 3.62109,-0.257812 0,8.425781 c -1e-5,0.421877 0.0644,0.728517 0.19336,0.919922 0.1289,0.191407 0.31444,0.308595 0.55664,0.351563 0.24218,0.04297 0.61718,0.06445 1.125,0.06445 l 0,0.84375 -3.55078,0.269531 0,-2.027344 c -0.29688,0.601564 -0.71094,1.089845 -1.24219,1.464844 -0.53125,0.375 -1.11719,0.5625 -1.75781,0.5625 -1.14844,0 -2.06055,-0.244141 -2.73633,-0.732422 -0.67578,-0.48828 -1.01367,-1.287108 -1.01367,-2.396484 z"
       id="path6556"
       style="fill:#ffffff;stroke:#f9f9f9" />
    <path
       d="m 169.68292,38.179211 0,-0.84375 c 0.54688,10e-7 0.99609,-0.04297 1.34766,-0.128907 0.35156,-0.08594 0.52734,-0.296873 0.52734,-0.632812 l 0,-6.550781 c 0,-0.429679 -0.0644,-0.740226 -0.19336,-0.931641 -0.12891,-0.191397 -0.31445,-0.308584 -0.55664,-0.351562 -0.24219,-0.04296 -0.61719,-0.06444 -1.125,-0.06445 l 0,-0.84375 3.48047,-0.257812 0,2.34375 c 0.32031,-0.687491 0.79492,-1.249991 1.42383,-1.6875 0.6289,-0.43749 1.31445,-0.656239 2.05664,-0.65625 1.84374,1.1e-5 2.92577,0.75001 3.24609,2.25 0.3203,-0.671866 0.78905,-1.214834 1.40625,-1.628906 0.61718,-0.414052 1.29296,-0.621083 2.02735,-0.621094 0.72654,1.1e-5 1.33787,0.117198 1.83398,0.351562 0.49608,0.234385 0.86913,0.591807 1.11914,1.072266 0.24998,0.480477 0.37498,1.083993 0.375,1.810547 l 0,5.765625 c -2e-5,0.335939 0.17772,0.546876 0.53321,0.632812 0.35545,0.08594 0.80271,0.128908 1.34179,0.128907 l 0,0.84375 -5.49609,0 0,-0.84375 c 0.54686,10e-7 0.99608,-0.04297 1.34765,-0.128907 0.35155,-0.08594 0.52733,-0.296873 0.52735,-0.632812 l 0,-5.695313 c -2e-5,-0.804679 -0.1133,-1.453116 -0.33985,-1.945312 -0.22657,-0.492178 -0.69142,-0.738271 -1.39453,-0.738281 -0.92188,10e-6 -1.6836,0.371103 -2.28515,1.113281 -0.60158,0.742196 -0.90236,1.585945 -0.90235,2.53125 l 0,4.734375 c -1e-5,0.335939 0.17577,0.546876 0.52735,0.632812 0.35155,0.08594 0.80077,0.128908 1.34765,0.128907 l 0,0.84375 -5.49609,0 0,-0.84375 c 0.54687,10e-7 0.99609,-0.04297 1.34766,-0.128907 0.35155,-0.08594 0.52733,-0.296873 0.52734,-0.632812 l 0,-5.695313 c -1e-5,-0.781242 -0.11329,-1.423819 -0.33984,-1.927734 -0.22658,-0.503896 -0.69142,-0.755849 -1.39454,-0.755859 -0.92969,10e-6 -1.69336,0.371103 -2.29101,1.113281 -0.59766,0.742196 -0.89649,1.585945 -0.89649,2.53125 l 0,4.734375 c 0,0.335939 0.17578,0.546876 0.52735,0.632812 0.35156,0.08594 0.79687,0.128908 1.33594,0.128907 l 0,0.84375 z"
       id="path6558"
       style="fill:#ffffff;stroke:#f9f9f9" />
    <path
       d="m 194.96027,38.448742 c -0.97657,0 -1.87305,-0.255859 -2.68946,-0.767578 -0.81641,-0.511718 -1.45703,-1.195311 -1.92187,-2.050781 -0.46485,-0.855466 -0.69727,-1.759762 -0.69727,-2.712891 0,-0.937494 0.21289,-1.828118 0.63867,-2.671875 0.42578,-0.843741 1.01953,-1.525381 1.78125,-2.044922 0.76172,-0.519521 1.61133,-0.779286 2.54883,-0.779297 0.73437,1.1e-5 1.37304,0.123058 1.91602,0.369141 0.54296,0.246104 0.99022,0.5879 1.34179,1.02539 0.35156,0.437509 0.61718,0.953134 0.79688,1.546875 0.17968,0.593758 0.26952,1.246101 0.26953,1.957032 -1e-5,0.210943 -0.082,0.316411 -0.24609,0.316406 l -6.94922,0 0,0.257812 c 0,1.328129 0.26757,2.468753 0.80273,3.421875 0.53516,0.953126 1.4082,1.429688 2.61914,1.429688 0.49218,0 0.94726,-0.109375 1.36524,-0.328125 0.41796,-0.218749 0.78124,-0.523436 1.08984,-0.914063 0.30859,-0.390623 0.51757,-0.808591 0.62695,-1.253906 0.0156,-0.05468 0.0449,-0.103512 0.0879,-0.146484 0.043,-0.04297 0.0918,-0.06445 0.14648,-0.06445 l 0.21094,0 c 0.16405,3e-6 0.24608,0.101565 0.24609,0.304687 -0.22657,0.906252 -0.71485,1.650392 -1.46484,2.232422 -0.75001,0.582031 -1.58985,0.873047 -2.51953,0.873047 z m -3.1875,-6.410156 5.47265,0 c -1e-5,-0.601556 -0.084,-1.21093 -0.25195,-1.828125 -0.16798,-0.617179 -0.44727,-1.130851 -0.83789,-1.541016 -0.39063,-0.410146 -0.90235,-0.615224 -1.53516,-0.615234 -0.90625,10e-6 -1.60742,0.423837 -2.10351,1.271484 -0.4961,0.847664 -0.74415,1.75196 -0.74414,2.712891 z"
       id="path6560"
       style="fill:#ffffff;stroke:#f9f9f9" />
  </g>
</svg>
