<?xml version="1.0" encoding="UTF-8" standalone="no"?>
<!-- Created with Inkscape (http://www.inkscape.org/) -->

<svg
   xmlns:dc="http://purl.org/dc/elements/1.1/"
   xmlns:cc="http://creativecommons.org/ns#"
   xmlns:rdf="http://www.w3.org/1999/02/22-rdf-syntax-ns#"
   xmlns:svg="http://www.w3.org/2000/svg"
   xmlns="http://www.w3.org/2000/svg"
   version="1.2"
   width="320"
   height="60"
   id="svg3020">
  <metadata
     id="metadata3026">
    <rdf:RDF>
      <cc:Work
         rdf:about="">
        <dc:format>image/svg+xml</dc:format>
        <dc:type
           rdf:resource="http://purl.org/dc/dcmitype/StillImage" />
        <dc:title></dc:title>
      </cc:Work>
    </rdf:RDF>
  </metadata>
  <defs
     id="defs3024" />
  <text
     x="44.56657"
     y="42.23513"
     transform="scale(0.95814898,1.043679)"
     id="text3030"
     xml:space="preserve"
     style="font-size:41.02812958px;font-style:normal;font-variant:normal;font-weight:normal;font-stretch:normal;line-height:125%;letter-spacing:0px;word-spacing:0px;fill:#000000;fill-opacity:1;stroke:none;font-family:Cambria Math;-inkscape-font-specification:Cambria Math"><tspan
       x="44.56657"
       y="42.23513"
       id="tspan3032" /></text>
  <g
     id="text2991"
     style="font-size:20px;font-style:normal;font-variant:normal;font-weight:normal;font-stretch:normal;text-align:center;line-height:125%;letter-spacing:0px;word-spacing:0px;text-anchor:middle;fill:#ffffff;fill-opacity:1;stroke:#f9f9f9;font-family:cmr10;-inkscape-font-specification:cmr10">
    <path
       d="m 115.64185,38.179211 0,-0.703125 c 1.37369,0 2.06054,-0.211588 2.06054,-0.634766 l 0,-10.986328 c 0,-0.423164 -0.68685,-0.634753 -2.06054,-0.634766 l 0,-0.703125 11.02539,0 0.55664,4.580078 -0.57617,0 c -0.0912,-0.839833 -0.21323,-1.502268 -0.36622,-1.987304 -0.153,-0.485015 -0.37598,-0.865874 -0.66894,-1.142578 -0.29298,-0.276681 -0.68523,-0.470365 -1.17676,-0.581055 -0.49154,-0.110664 -1.167,-0.166003 -2.02637,-0.166016 l -1.82617,0 c -0.24089,1.3e-5 -0.42806,0.0098 -0.56152,0.0293 -0.13347,0.01954 -0.24252,0.07651 -0.32715,0.170899 -0.0846,0.09441 -0.12696,0.23927 -0.12695,0.43457 l 0,5.146484 1.41601,0 c 0.68359,7e-6 1.18489,-0.06021 1.50391,-0.180664 0.319,-0.120435 0.53873,-0.340161 0.65918,-0.659179 0.12043,-0.319003 0.18065,-0.820304 0.18066,-1.503907 l 0.57617,0 0,5.38086 -0.57617,0 c -10e-6,-0.683589 -0.0602,-1.184891 -0.18066,-1.503907 -0.12045,-0.319004 -0.34018,-0.53873 -0.65918,-0.659179 -0.31902,-0.120437 -0.82032,-0.180658 -1.50391,-0.180664 l -1.41601,0 0,5.146484 c -10e-6,0.423178 0.85286,0.634766 2.55859,0.634766 l 0,0.703125 z"
       id="path2996"
       style="fill:#ffffff;stroke:#f9f9f9" />
    <path
       d="m 128.68872,38.179211 0,-0.703125 c 0.45573,0 0.83008,-0.03581 1.12305,-0.107422 0.29296,-0.07161 0.43945,-0.247395 0.43945,-0.527344 l 0,-10.498047 c 0,-0.358061 -0.0537,-0.616849 -0.16113,-0.776367 -0.10743,-0.159492 -0.26205,-0.257149 -0.46387,-0.292969 -0.20182,-0.03579 -0.51432,-0.0537 -0.9375,-0.05371 l 0,-0.703125 2.96875,-0.214843 0,12.539062 c 0,0.279949 0.14648,0.45573 0.43945,0.527344 0.29297,0.07161 0.66406,0.107422 1.11329,0.107422 l 0,0.703125 z"
       id="path2998"
       style="fill:#ffffff;stroke:#f9f9f9" />
    <path
       d="m 138.62036,38.40382 c -0.80078,0 -1.54297,-0.203451 -2.22656,-0.610352 -0.6836,-0.4069 -1.22396,-0.952147 -1.62109,-1.635742 -0.39714,-0.683591 -0.59571,-1.429033 -0.59571,-2.236328 0,-0.611974 0.10905,-1.201166 0.32715,-1.767578 0.2181,-0.5664 0.5306,-1.072584 0.9375,-1.518555 0.4069,-0.445955 0.88053,-0.794262 1.4209,-1.044922 0.54036,-0.250642 1.1263,-0.375967 1.75781,-0.375976 0.82031,9e-6 1.56738,0.21648 2.24121,0.649414 0.67382,0.432951 1.20605,1.012377 1.59668,1.738281 0.39062,0.725918 0.58593,1.499029 0.58594,2.319336 -10e-6,0.800785 -0.19858,1.544599 -0.5957,2.231445 -0.39715,0.686851 -0.93588,1.233725 -1.61621,1.640625 -0.68035,0.406901 -1.41765,0.610352 -2.21192,0.610352 z m 0,-0.585937 c 1.0677,0 1.78059,-0.38737 2.13867,-1.16211 0.35807,-0.774737 0.5371,-1.761064 0.53711,-2.958984 -1e-5,-0.670568 -0.0358,-1.22558 -0.10742,-1.665039 -0.0716,-0.439447 -0.22787,-0.838209 -0.46875,-1.196289 -0.14975,-0.221347 -0.34018,-0.415032 -0.57129,-0.581055 -0.23112,-0.166008 -0.47526,-0.292961 -0.73242,-0.380859 -0.25717,-0.08788 -0.52247,-0.131828 -0.7959,-0.131836 -0.41667,8e-6 -0.81218,0.09441 -1.18652,0.283203 -0.37435,0.18881 -0.68523,0.458992 -0.93262,0.810547 -0.2474,0.377611 -0.40528,0.792649 -0.47363,1.245117 -0.0684,0.452479 -0.10254,0.991216 -0.10254,1.616211 0,0.748701 0.0651,1.420901 0.19531,2.016601 0.13021,0.595705 0.39225,1.095379 0.78613,1.499024 0.39388,0.403646 0.96517,0.605469 1.71387,0.605469 z"
       id="path3000"
       style="fill:#ffffff;stroke:#f9f9f9" />
    <path
       d="M 148.04419,38.179211 145.4563,30.90382 c -0.11719,-0.292961 -0.28646,-0.473625 -0.50781,-0.541992 -0.22136,-0.06835 -0.54362,-0.102531 -0.9668,-0.102539 l 0,-0.703125 4.12109,0 0,0.703125 c -0.78776,8e-6 -1.18164,0.166023 -1.18164,0.498047 0.007,0.01954 0.0114,0.03907 0.0146,0.05859 0.003,0.01954 0.005,0.04884 0.005,0.08789 l 1.92383,5.390625 1.66016,-4.697266 -0.26367,-0.693359 c -0.10418,-0.292961 -0.27019,-0.473625 -0.49805,-0.541992 -0.22787,-0.06835 -0.55014,-0.102531 -0.9668,-0.102539 l 0,-0.703125 3.94532,0 0,0.703125 c -0.78777,8e-6 -1.18165,0.166023 -1.18165,0.498047 0,0.05209 0.007,0.100918 0.0195,0.146484 l 2.00195,5.634766 1.81641,-5.097657 c 0.026,-0.104159 0.0391,-0.19856 0.0391,-0.283203 -1e-5,-0.27994 -0.11883,-0.499667 -0.35645,-0.659179 -0.23764,-0.159498 -0.50294,-0.23925 -0.7959,-0.239258 l 0,-0.703125 3.39844,0 0,0.703125 c -0.40366,8e-6 -0.75034,0.105802 -1.04004,0.317383 -0.28972,0.211596 -0.50294,0.499681 -0.63965,0.864257 l -2.38281,6.738282 c -0.0456,0.149739 -0.14649,0.224609 -0.30273,0.224609 l -0.15625,0 c -0.15626,0 -0.25717,-0.07487 -0.30274,-0.224609 l -2.02148,-5.703125 -2.02149,5.703125 c -0.0651,0.149739 -0.16927,0.224609 -0.3125,0.224609 l -0.14648,0 c -0.16277,0 -0.26693,-0.07487 -0.3125,-0.224609 z"
       id="path3002"
       style="fill:#ffffff;stroke:#f9f9f9" />
    <path
       d="m 165.41724,38.179211 0,-0.703125 c 1.37369,0 2.06054,-0.211588 2.06054,-0.634766 l 0,-10.986328 c 0,-0.423164 -0.68685,-0.634753 -2.06054,-0.634766 l 0,-0.703125 6.27929,0 c 0.74869,1.4e-5 1.53483,0.135105 2.3584,0.405274 0.82356,0.270195 1.51204,0.681978 2.06543,1.235351 0.55337,0.553397 0.83007,1.214204 0.83008,1.982422 -10e-6,0.559905 -0.16766,1.059579 -0.50293,1.499024 -0.3353,0.439461 -0.76499,0.807299 -1.28906,1.103515 -0.5241,0.296231 -1.05958,0.509447 -1.60645,0.639649 0.59895,0.20834 1.12304,0.540371 1.57227,0.996093 0.44921,0.455735 0.71939,0.976568 0.81054,1.5625 l 0.28321,1.777344 c 0.13019,0.800783 0.26691,1.398113 0.41015,1.791992 0.14322,0.393881 0.45898,0.590821 0.94727,0.590821 0.41665,0 0.72752,-0.193685 0.93262,-0.581055 0.20506,-0.387369 0.3076,-0.808918 0.30761,-1.264648 -1e-5,-0.04557 0.0211,-0.08626 0.0635,-0.122071 0.0423,-0.0358 0.0862,-0.05371 0.13184,-0.05371 l 0.18554,0 c 0.1302,2e-6 0.1953,0.08789 0.19532,0.263672 -2e-5,0.364585 -0.0716,0.72103 -0.21485,1.069336 -0.14324,0.348308 -0.34995,0.636393 -0.62012,0.864258 -0.27019,0.227864 -0.59083,0.341796 -0.96191,0.341797 -0.96355,-10e-7 -1.792,-0.239258 -2.48535,-0.717774 -0.69337,-0.478515 -1.04005,-1.180011 -1.04004,-2.104492 l 0,-1.777344 c -1e-5,-0.664057 -0.23113,-1.233718 -0.69336,-1.708984 -0.46225,-0.475254 -1.02865,-0.712884 -1.69922,-0.712891 l -2.40234,0 0,5.244141 c -1e-5,0.423178 0.68684,0.634766 2.06055,0.634766 l 0,0.703125 z m 3.85742,-7.09961 2.13867,0 c 1.10676,7e-6 1.94986,-0.222974 2.5293,-0.668945 0.57941,-0.445955 0.86913,-1.202791 0.86914,-2.270508 -1e-5,-1.061187 -0.28647,-1.813139 -0.85938,-2.255859 -0.57292,-0.442696 -1.41928,-0.66405 -2.53906,-0.664063 l -1.12305,0 c -0.24089,1.3e-5 -0.42806,0.0098 -0.56152,0.0293 -0.13347,0.01954 -0.24252,0.07651 -0.32715,0.170899 -0.0846,0.09441 -0.12696,0.23927 -0.12695,0.43457 z"
       id="path3004"
       style="fill:#ffffff;stroke:#f9f9f9" />
    <path
       d="m 180.28052,36.21632 c 0,-0.794268 0.3125,-1.440426 0.9375,-1.938477 0.625,-0.498042 1.37532,-0.849604 2.25097,-1.054687 0.87565,-0.205073 1.70736,-0.307612 2.49512,-0.307617 l 0,-0.820313 c -1e-5,-0.384108 -0.0846,-0.756829 -0.2539,-1.118164 -0.16928,-0.36132 -0.41342,-0.657544 -0.73243,-0.888672 -0.31901,-0.231111 -0.67057,-0.346671 -1.05468,-0.346679 -0.88542,8e-6 -1.55925,0.198576 -2.02149,0.595703 0.2539,8e-6 0.46387,0.09604 0.62988,0.288086 0.16602,0.192064 0.24902,0.415046 0.24903,0.668945 -1e-5,0.266934 -0.0944,0.494798 -0.28321,0.683594 -0.1888,0.188808 -0.41341,0.283209 -0.67382,0.283203 -0.26693,6e-6 -0.4948,-0.0944 -0.6836,-0.283203 -0.1888,-0.188796 -0.2832,-0.41666 -0.2832,-0.683594 0,-0.703117 0.31901,-1.225578 0.95703,-1.567383 0.63802,-0.341788 1.34114,-0.512686 2.10938,-0.512695 0.54036,9e-6 1.08397,0.115569 1.63086,0.34668 0.54686,0.231128 0.99445,0.561531 1.34277,0.991211 0.3483,0.429694 0.52245,0.930996 0.52246,1.503906 l 0,4.501953 c -10e-6,0.260418 0.0553,0.499676 0.16602,0.717773 0.11066,0.2181 0.28319,0.327149 0.51757,0.327149 0.22135,0 0.38574,-0.110677 0.49317,-0.332031 0.10741,-0.221353 0.16112,-0.458983 0.16113,-0.712891 l 0,-1.279297 0.58594,0 0,1.279297 c -1e-5,0.29948 -0.0781,0.584311 -0.23438,0.854492 -0.15626,0.270183 -0.36622,0.485026 -0.62988,0.644531 -0.26368,0.159506 -0.54851,0.239258 -0.85449,0.239258 -0.39064,0 -0.72755,-0.151367 -1.01074,-0.454101 -0.28321,-0.302734 -0.44109,-0.662434 -0.47364,-1.079102 -0.2474,0.501303 -0.61198,0.900066 -1.09375,1.196289 -0.48177,0.296224 -0.9961,0.444336 -1.54297,0.444336 -0.50781,0 -1.00749,-0.07487 -1.49902,-0.224609 -0.49154,-0.14974 -0.90169,-0.385742 -1.23047,-0.708008 -0.32878,-0.322265 -0.49316,-0.740559 -0.49316,-1.254883 z m 1.62109,0 c 0,0.468752 0.17252,0.862631 0.51758,1.181641 0.34505,0.319011 0.75195,0.478516 1.2207,0.478515 0.42969,1e-6 0.82031,-0.107421 1.17188,-0.322265 0.35155,-0.214843 0.6315,-0.507812 0.83984,-0.878907 0.20833,-0.371091 0.31249,-0.761716 0.3125,-1.171875 l 0,-2.080078 c -0.60547,5e-6 -1.22559,0.09929 -1.86035,0.297852 -0.63477,0.198572 -1.16049,0.509444 -1.57715,0.932617 -0.41667,0.42318 -0.625,0.944013 -0.625,1.5625 z"
       id="path3006"
       style="fill:#ffffff;stroke:#f9f9f9" />
    <path
       d="m 191.52075,35.776867 0,-5.517578 -1.66015,0 0,-0.517578 c 0.87239,8e-6 1.51367,-0.406893 1.92382,-1.220703 0.41016,-0.813792 0.61524,-1.695953 0.61524,-2.646485 l 0.57617,0 0,3.681641 2.82227,0 0,0.703125 -2.82227,0 0,5.478515 c 0,0.553388 0.0928,1.038413 0.27832,1.455079 0.18554,0.416667 0.5192,0.625 1.00098,0.625 0.45572,0 0.7845,-0.219726 0.98633,-0.65918 0.20181,-0.439452 0.30272,-0.913084 0.30273,-1.420899 l 0,-1.18164 0.57617,0 0,1.220703 c -1e-5,0.416669 -0.0765,0.828452 -0.22949,1.235351 -0.153,0.406902 -0.37924,0.740561 -0.67871,1.000977 -0.29949,0.260417 -0.66407,0.390625 -1.09375,0.390625 -0.80079,0 -1.43392,-0.239258 -1.89942,-0.717773 -0.46549,-0.478515 -0.69824,-1.114908 -0.69824,-1.90918 z"
       id="path3008"
       style="fill:#ffffff;stroke:#f9f9f9" />
    <path
       d="m 202.23364,38.40382 c -0.8138,0 -1.56087,-0.213216 -2.24121,-0.639648 -0.68034,-0.426432 -1.21419,-0.996093 -1.60156,-1.708985 -0.38737,-0.712888 -0.58106,-1.466468 -0.58106,-2.260742 0,-0.781245 0.17741,-1.523432 0.53223,-2.226562 0.35482,-0.703118 0.84961,-1.271151 1.48438,-1.704102 0.63476,-0.432934 1.34277,-0.649405 2.12402,-0.649414 0.61197,9e-6 1.1442,0.102548 1.59668,0.307617 0.45247,0.205087 0.82519,0.489917 1.11816,0.854492 0.29296,0.364591 0.51432,0.794278 0.66407,1.289063 0.14973,0.494797 0.2246,1.038417 0.22461,1.630859 -1e-5,0.175786 -0.0684,0.263677 -0.20508,0.263672 l -5.79102,0 0,0.214844 c 0,1.106774 0.22298,2.057294 0.66895,2.851562 0.44596,0.794272 1.1735,1.191407 2.18261,1.191407 0.41015,0 0.78939,-0.09115 1.1377,-0.273438 0.3483,-0.182291 0.65103,-0.436197 0.9082,-0.761719 0.25716,-0.325519 0.43131,-0.673826 0.52246,-1.044922 0.013,-0.04557 0.0374,-0.08626 0.0733,-0.12207 0.0358,-0.03581 0.0765,-0.05371 0.12207,-0.05371 l 0.17578,0 c 0.13671,3e-6 0.20507,0.08464 0.20508,0.253906 -0.18882,0.75521 -0.59572,1.375327 -1.22071,1.860352 -0.625,0.485026 -1.32487,0.727539 -2.09961,0.727539 z m -2.65625,-5.341797 4.56055,0 c -10e-6,-0.501296 -0.07,-1.009108 -0.20996,-1.523437 -0.13998,-0.514316 -0.37273,-0.942376 -0.69824,-1.28418 -0.32553,-0.341789 -0.75196,-0.512687 -1.2793,-0.512695 -0.75521,8e-6 -1.33952,0.353198 -1.75293,1.05957 -0.41341,0.706387 -0.62012,1.459967 -0.62012,2.260742 z"
       id="path3010"
       style="fill:#ffffff;stroke:#f9f9f9" />
  </g>
</svg>
