<?xml version="1.0" encoding="UTF-8" standalone="no"?>
<!-- Created with Inkscape (http://www.inkscape.org/) -->

<svg
   xmlns:dc="http://purl.org/dc/elements/1.1/"
   xmlns:cc="http://creativecommons.org/ns#"
   xmlns:rdf="http://www.w3.org/1999/02/22-rdf-syntax-ns#"
   xmlns:svg="http://www.w3.org/2000/svg"
   xmlns="http://www.w3.org/2000/svg"
   version="1.2"
   width="320"
   height="60"
   id="svg3020">
  <metadata
     id="metadata3026">
    <rdf:RDF>
      <cc:Work
         rdf:about="">
        <dc:format>image/svg+xml</dc:format>
        <dc:type
           rdf:resource="http://purl.org/dc/dcmitype/StillImage" />
        <dc:title></dc:title>
      </cc:Work>
    </rdf:RDF>
  </metadata>
  <defs
     id="defs3024" />
  <text
     x="44.56657"
     y="42.23513"
     transform="scale(0.95814898,1.043679)"
     id="text3030"
     xml:space="preserve"
     style="font-size:41.02812958px;font-style:normal;font-variant:normal;font-weight:normal;font-stretch:normal;line-height:125%;letter-spacing:0px;word-spacing:0px;fill:#000000;fill-opacity:1;stroke:none;font-family:Cambria Math;-inkscape-font-specification:Cambria Math"><tspan
       x="44.56657"
       y="42.23513"
       id="tspan3032" /></text>
  <g
     transform="matrix(1.4688253,0,0,1.4688253,-277.70507,-0.75165246)"
     id="g3009"
     style="fill:#ffffff;stroke:none">
    <g
       transform="matrix(0.68081616,0,0,0.68081616,189.0661,0.51173714)"
       id="flowRoot3055"
       style="font-size:40px;font-style:normal;font-variant:normal;font-weight:normal;font-stretch:normal;line-height:125%;letter-spacing:0px;word-spacing:0px;fill:#ffffff;fill-opacity:1;stroke:none;font-family:Colonna MT;-inkscape-font-specification:Colonna MT" />
    <g
       transform="matrix(0.68081616,0,0,0.68081616,189.0661,0.51173714)"
       id="flowRoot3063"
       style="font-size:40px;font-style:normal;font-variant:normal;font-weight:normal;font-stretch:normal;line-height:125%;letter-spacing:0px;word-spacing:0px;fill:#ffffff;fill-opacity:1;stroke:none;font-family:Colonna MT;-inkscape-font-specification:Colonna MT" />
    <g
       transform="matrix(0.68081616,0,0,0.68081616,66.230655,78.160046)"
       id="g3569"
       style="fill:#ffffff;stroke:none" />
    <g
       transform="matrix(0.73616057,0,0,0.73616057,81.705694,11.449048)"
       id="g4427"
       style="fill:#ffffff;stroke:none">
      <g
         id="text4441"
         style="font-size:13.80000019px;font-style:normal;font-weight:normal;text-align:start;text-anchor:start;fill:#ffffff;stroke:none;font-family:Cambria Math" />
      <g
         id="text4445"
         style="font-size:13.80000019px;font-style:normal;font-weight:normal;text-align:start;text-anchor:start;fill:#ffffff;stroke:none;font-family:Cambria Math" />
      <g
         id="text4447"
         style="font-size:13.80000019px;font-style:normal;font-weight:normal;text-align:start;text-anchor:start;fill:#ffffff;stroke:none;font-family:Cambria Math" />
      <g
         id="text4449"
         style="font-size:13.80000019px;font-style:normal;font-weight:normal;text-align:start;text-anchor:start;fill:#ffffff;stroke:none;font-family:Cambria Math" />
      <g
         id="text4455"
         style="font-size:13.80000019px;font-style:normal;font-variant:normal;font-weight:normal;font-stretch:normal;text-align:start;text-anchor:start;fill:#ffffff;stroke:none;font-family:cmr10;-inkscape-font-specification:cmr10" />
      <g
         id="text4459"
         style="font-size:13.80000019px;font-style:normal;font-variant:normal;font-weight:normal;font-stretch:normal;text-align:start;text-anchor:start;fill:#ffffff;stroke:none;font-family:cmr10;-inkscape-font-specification:cmr10" />
      <g
         transform="scale(0.99623672,1.0037775)"
         id="text4223"
         style="font-size:15.33554173px;font-style:normal;font-variant:normal;font-weight:normal;font-stretch:normal;text-align:center;line-height:125%;letter-spacing:0px;word-spacing:0px;text-anchor:middle;fill:#ffffff;fill-opacity:1;stroke:none;font-family:cmr10;-inkscape-font-specification:cmr10">
        <path
           d="m 153.27655,11.304906 c -0.97345,-1e-6 -1.8483,-0.258338 -2.62456,-0.775014 -0.77627,-0.516675 -1.38405,-1.2030798 -1.82334,-2.059216 -0.4393,-0.8561312 -0.65895,-1.7559452 -0.65895,-2.6994447 0,-0.6988795 0.12605,-1.3902761 0.37814,-2.0741919 0.2521,-0.6839013 0.60404,-1.2904334 1.05582,-1.819598 0.45178,-0.5291464 0.99466,-0.94847724 1.62865,-1.25799365 0.63399,-0.30949572 1.3154,-0.46424875 2.04424,-0.46425956 0.72384,1.081e-5 1.40401,0.15601185 2.0405,0.46800359 0.63647,0.31201243 1.18185,0.73508722 1.63614,1.26922572 0.45426,0.5341567 0.80371,1.1332007 1.04833,1.7971338 0.2446,0.6639477 0.3669,1.3578404 0.36691,2.08168 -1e-5,0.9434995 -0.21966,1.8433135 -0.65895,2.6994447 -0.43931,0.8561362 -1.04833,1.542541 -1.82708,2.059216 -0.77877,0.516676 -1.64738,0.775013 -2.60585,0.775014 z m -2.54594,-1.9918235 c 0.29952,0.4692528 0.66893,0.8424075 1.10824,1.1194645 0.43929,0.277058 0.91853,0.415587 1.4377,0.415587 0.33446,0 0.66269,-0.06739 0.98468,-0.202177 0.32198,-0.134785 0.61402,-0.31949 0.87611,-0.554117 0.26207,-0.2346242 0.48546,-0.49421 0.67018,-0.7787575 0.60902,-0.9185325 0.91353,-2.1815169 0.91354,-3.7889571 -1e-5,-1.4726444 -0.30452,-2.6382842 -0.91354,-3.4969228 -0.29953,-0.429306 -0.67269,-0.7737563 -1.11947,-1.03335198 -0.44679,-0.25957575 -0.91729,-0.38936862 -1.4115,-0.38937898 -0.49921,1.036e-5 -0.97345,0.12980323 -1.42273,0.38937898 -0.44929,0.25959568 -0.82369,0.60404598 -1.12321,1.03335198 -0.23962,0.3344751 -0.42557,0.6901575 -0.55786,1.0670481 -0.13229,0.3769064 -0.22589,0.767533 -0.2808,1.171881 -0.0549,0.4043614 -0.0824,0.8236922 -0.0824,1.2579937 0,0.4642645 0.0262,0.9172916 0.0786,1.3590824 0.0524,0.4417991 0.14976,0.874858 0.29203,1.299178 0.14227,0.4243256 0.32573,0.8012241 0.55037,1.1306967 z"
           id="path3292"
           style="fill:#ffffff;stroke:none" />
        <path
           d="m 160.09068,11.185097 0,-3.5792916 c 0,-0.079869 0.0449,-0.1198055 0.13479,-0.1198089 l 0.1872,0 c 0.03,3.4e-6 0.0574,0.012484 0.0824,0.03744 0.025,0.024964 0.0374,0.05242 0.0374,0.082369 0,1.003402 0.31075,1.7809112 0.93226,2.3325299 0.62151,0.5516206 1.43646,0.8274306 2.44485,0.8274306 0.35443,0 0.68141,-0.102337 0.98094,-0.307011 0.29952,-0.204673 0.53289,-0.4729943 0.70013,-0.8049658 0.16723,-0.3319689 0.25085,-0.6751712 0.25085,-1.0296079 0,-0.3095037 -0.0624,-0.6102737 -0.1872,-0.9023109 -0.12481,-0.2920307 -0.30452,-0.5453764 -0.53914,-0.7600379 -0.23463,-0.2146534 -0.49921,-0.3569263 -0.79373,-0.4268192 L 162.3296,6.0482895 c -0.65895,-0.1747162 -1.19684,-0.5328946 -1.61367,-1.0745362 -0.41684,-0.5416296 -0.62526,-1.1494097 -0.62526,-1.823342 0,-0.5291477 0.13479,-1.0258551 0.40436,-1.4901235 0.26957,-0.4642498 0.63274,-0.8311642 1.08951,-1.10074441 0.45677,-0.26955939 0.94973,-0.40434429 1.47889,-0.4043551 1.02337,1.081e-5 1.83707,0.34695713 2.44111,1.04084001 l 0.629,-0.99591167 c 0.0299,-0.0299414 0.0649,-0.0449175 0.10483,-0.0449283 l 0.10483,0 c 0.03,1.081e-5 0.0587,0.0112429 0.0861,0.0336962 0.0274,0.0224749 0.0412,0.0536751 0.0412,0.0936007 l 0,3.55682737 c -10e-6,0.089864 -0.0424,0.134792 -0.1273,0.134785 l -0.17971,0 c -0.0949,7e-6 -0.14228,-0.044921 -0.14227,-0.134785 -1e-5,-0.2595786 -0.0437,-0.5441245 -0.13104,-0.8536386 -0.0874,-0.3094981 -0.20843,-0.6065241 -0.36318,-0.8910788 -0.15475,-0.2845371 -0.32199,-0.5166666 -0.5017,-0.6963894 -0.49421,-0.49919376 -1.14817,-0.74879543 -1.96187,-0.74880575 -0.34944,1.032e-5 -0.67143,0.0886189 -0.96596,0.26582604 -0.29453,0.17722731 -0.52915,0.41809291 -0.70387,0.72259761 -0.17473,0.3045233 -0.26209,0.6240135 -0.26209,0.9584713 0,0.4393073 0.13604,0.837422 0.4081,1.1943452 0.27207,0.3569376 0.62775,0.5928111 1.06705,0.7076214 l 1.99183,0.4867238 c 0.32946,0.079879 0.64022,0.2233994 0.93226,0.4305633 0.29203,0.2071749 0.53539,0.4480405 0.73008,0.7225975 0.19469,0.2745667 0.34694,0.5803287 0.45678,0.9172871 0.10981,0.3369661 0.16473,0.6851604 0.16473,1.044584 0,0.5541185 -0.1273,1.077034 -0.38189,1.568748 -0.2546,0.4917167 -0.61278,0.8873347 -1.07453,1.1868567 -0.46177,0.299522 -0.96722,0.449283 -1.51634,0.449284 -0.33946,-1e-6 -0.68641,-0.03744 -1.04084,-0.112321 -0.35443,-0.07488 -0.68141,-0.189698 -0.98093,-0.344451 -0.29953,-0.154753 -0.57159,-0.354434 -0.8162,-0.599044 l -0.64397,1.010887 c -0.03,0.02995 -0.0674,0.04493 -0.11232,0.04493 l -0.0899,0 c -0.0899,-10e-7 -0.13479,-0.03994 -0.13479,-0.119809 z"
           id="path3294"
           style="fill:#ffffff;stroke:none" />
        <path
           d="m 168.20774,10.967943 0,-0.53914 c 1.05332,10e-7 1.57998,-0.16224 1.57998,-0.4867237 l 0,-8.4240647 c 0,-0.3244727 -0.52666,-0.4867138 -1.57998,-0.4867237 l 0,-0.53914013 4.59018,0 0,0.53914013 c -1.05332,9.9e-6 -1.57998,0.162251 -1.57998,0.4867237 l 0,3.7290527 4.52279,0 0,-3.7290527 c -1e-5,-0.3244727 -0.52667,-0.4867138 -1.57998,-0.4867237 l 0,-0.53914013 4.58269,0 0,0.53914013 c -1.04834,9.9e-6 -1.5725,0.162251 -1.57249,0.4867237 l 0,8.4240647 c -1e-5,0.3244837 0.52415,0.4867247 1.57249,0.4867237 l 0,0.53914 -4.58269,0 0,-0.53914 c 1.05331,10e-7 1.57997,-0.16224 1.57998,-0.4867237 l 0,-4.1558719 -4.52279,0 0,4.1558719 c 0,0.3244837 0.52666,0.4867247 1.57998,0.4867237 l 0,0.53914 z"
           id="path3296"
           style="fill:#ffffff;stroke:none" />
        <path
           d="m 179.73186,10.967943 0,-0.53914 c 0.91354,10e-7 1.47515,-0.302017 1.68481,-0.9060549 l 3.21987,-9.36755991 c 0.0299,-0.10981392 0.11231,-0.16472629 0.2471,-0.16473727 l 0.19469,0 c 0.13478,1.098e-5 0.21715,0.05492335 0.24711,0.16473727 l 3.36214,9.78689111 c 0.0948,0.2146587 0.2758,0.3494437 0.54288,0.4043547 0.26706,0.05491 0.60028,0.08237 0.99966,0.08237 l 0,0.53914 -4.27568,0 0,-0.53914 c 0.84863,1e-6 1.27296,-0.13728 1.27297,-0.411843 l 0,-0.074881 -0.83118,-2.3961784 -3.72156,0 -0.6889,1.9768472 c -0.01,0.034946 -0.015,0.087362 -0.015,0.1572492 0,0.254595 0.12105,0.443045 0.36317,0.565349 0.24211,0.122305 0.50294,0.183458 0.7825,0.183457 l 0,0.53914 z m 3.12252,-3.9536942 3.36214,0 -1.68482,-4.8971896 z"
           id="path3298"
           style="fill:#ffffff;stroke:none" />
        <path
           d="m 196.37033,10.967943 0,-0.53914 c 1.05331,10e-7 1.57997,-0.16224 1.57998,-0.4867237 l 0,-8.4240647 c -1e-5,-0.3244727 -0.52667,-0.4867138 -1.57998,-0.4867237 l 0,-0.53914013 5.45879,0 c 0.5591,1.048e-5 1.11821,0.11482725 1.67732,0.34445065 0.5591,0.22964368 1.01962,0.56410988 1.38155,1.00339968 0.36191,0.4393081 0.54288,0.9509915 0.54289,1.5350518 -1e-5,0.5690994 -0.18222,1.0683027 -0.54663,1.4976115 -0.36443,0.429321 -0.8237,0.7550511 -1.37781,0.9771915 -0.55412,0.2221506 -1.11323,0.3332233 -1.67732,0.3332186 l -2.45608,0 0,3.7590048 c -1e-5,0.3244837 0.52665,0.4867247 1.57998,0.4867237 l 0,0.53914 z m 2.95778,-5.24164 2.08168,0 c 0.56409,5.2e-6 1.02086,-0.081115 1.37031,-0.2433619 0.34944,-0.1622356 0.60528,-0.4143333 0.76753,-0.7562938 0.16223,-0.3419481 0.24335,-0.7924791 0.24336,-1.3515944 -1e-5,-0.833662 -0.18346,-1.432706 -0.55037,-1.7971338 -0.36692,-0.364409 -0.9772,-0.5466183 -1.83083,-0.5466282 l -1.30292,0 c -0.18471,9.9e-6 -0.32823,0.0075 -0.43057,0.022464 -0.10234,0.014986 -0.18595,0.058666 -0.25085,0.131041 -0.0649,0.072394 -0.0974,0.183467 -0.0973,0.3332185 z"
           id="path3300"
           style="fill:#ffffff;stroke:none" />
        <path
           d="m 206.75626,10.967943 0,-0.53914 c 1.05332,10e-7 1.57998,-0.16224 1.57998,-0.4867237 l 0,-8.4240647 c 0,-0.3244727 -0.52666,-0.4867138 -1.57998,-0.4867237 l 0,-0.53914013 8.67117,0 0.42682,3.51189893 -0.4418,0 C 215.30262,3.1204668 215.14911,2.4789905 214.95194,2.079619 214.75474,1.6802652 214.439,1.4057033 214.0047,1.2559326 213.57038,1.1061813 212.91892,1.0313008 212.05032,1.0312909 l -1.5051,0 c -0.18471,9.9e-6 -0.32823,0.0075 -0.43057,0.022464 -0.10234,0.014986 -0.18595,0.058666 -0.25085,0.131041 -0.0649,0.072394 -0.0973,0.183467 -0.0973,0.3332185 l 0,3.7440288 1.1307,0 c 0.51916,5.7e-6 0.90729,-0.043675 1.16439,-0.131041 0.25708,-0.087355 0.4343,-0.2545879 0.53165,-0.5016999 0.0973,-0.2470993 0.14601,-0.6327339 0.14602,-1.1569048 l 0.44928,0 0,4.1184316 -0.44928,0 c -1e-5,-0.5191681 -0.0487,-0.9035547 -0.14602,-1.1531609 -0.0974,-0.2495971 -0.27457,-0.4180782 -0.53165,-0.5054439 -0.2571,-0.087356 -0.64523,-0.1310358 -1.16439,-0.131041 l -1.1307,0 0,4.1408958 c 0,0.2196509 0.0624,0.3556839 0.1872,0.4080989 0.1248,0.05242 0.32198,0.07863 0.59156,0.07863 l 1.6249,0 c 0.70887,10e-7 1.2817,-0.05616 1.71851,-0.168481 0.4368,-0.11232 0.77626,-0.2995217 1.01838,-0.5616048 0.2421,-0.2620804 0.42931,-0.6015387 0.5616,-1.0183758 0.13228,-0.4168325 0.25584,-0.9946603 0.37066,-1.7334853 l 0.4418,0 -0.64397,4.0210869 z"
           id="path3302"
           style="fill:#ffffff;stroke:none" />
        <path
           d="m 217.21707,10.967943 0,-0.53914 c 1.05332,10e-7 1.57998,-0.16224 1.57998,-0.4867237 l 0,-8.4240647 c 0,-0.3244727 -0.52666,-0.4867138 -1.57998,-0.4867237 l 0,-0.53914013 4.81482,0 c 0.57408,1.048e-5 1.17687,0.10359517 1.80837,0.31075439 0.63149,0.20717954 1.15939,0.52292564 1.58372,0.94723924 0.42432,0.4243321 0.63648,0.9310235 0.63649,1.5200757 -1e-5,0.4293226 -0.12855,0.8124611 -0.38564,1.1494168 -0.25709,0.3369688 -0.58657,0.6190187 -0.98842,0.8461505 -0.40187,0.2271432 -0.81246,0.3906323 -1.23178,0.4904678 0.45926,0.1597503 0.86111,0.414344 1.20557,0.7637818 0.34445,0.3494468 0.55161,0.7488095 0.62151,1.1980892 l 0.21716,1.3628265 c 0.0998,0.614022 0.20466,1.0720413 0.31449,1.3740583 0.10982,0.302019 0.35193,0.453028 0.72635,0.453028 0.31948,0 0.55785,-0.148513 0.7151,-0.44554 0.15724,-0.297025 0.23587,-0.6202593 0.23588,-0.9697031 -1e-5,-0.034943 0.0162,-0.066143 0.0487,-0.093601 0.0324,-0.027455 0.0661,-0.041183 0.10109,-0.041184 l 0.14227,0 c 0.0998,1.6e-6 0.14975,0.067394 0.14976,0.2021776 -1e-5,0.2795553 -0.0549,0.5528685 -0.16473,0.8199425 -0.10984,0.267074 -0.26834,0.487972 -0.47549,0.662693 -0.20718,0.174721 -0.45304,0.262081 -0.73758,0.262082 -0.73883,-1e-6 -1.37407,-0.183458 -1.90571,-0.550372 -0.53166,-0.366915 -0.79748,-0.9048062 -0.79748,-1.6136767 l 0,-1.3628265 c 0,-0.5091842 -0.17722,-0.9459871 -0.53165,-1.3104101 -0.35444,-0.3644139 -0.78875,-0.5466231 -1.30292,-0.5466282 l -1.84206,0 0,4.0210869 c -1e-5,0.3244836 0.52665,0.4867246 1.57998,0.4867236 l 0,0.53914 z m 2.95779,-5.4438176 1.63988,0 c 0.84864,5.4e-6 1.49511,-0.1709717 1.93941,-0.5129319 0.44428,-0.3419484 0.66643,-0.9222722 0.66644,-1.7409734 -1e-5,-0.8136937 -0.21966,-1.3902736 -0.65895,-1.7297413 -0.43931,-0.3394488 -1.08827,-0.509178 -1.9469,-0.5091879 l -0.86113,0 c -0.1847,9.9e-6 -0.32823,0.0075 -0.43056,0.022464 -0.10234,0.014986 -0.18596,0.058666 -0.25085,0.131041 -0.0649,0.072394 -0.0974,0.183467 -0.0973,0.3332185 z"
           id="path3304"
           style="fill:#ffffff;stroke:none" />
        <path
           d="m 228.53902,10.967943 0,-0.53914 c 1.05332,10e-7 1.57998,-0.302017 1.57998,-0.9060549 l 0,-8.0047335 c 0,-0.3244727 -0.52666,-0.4867138 -1.57998,-0.4867237 l 0,-0.53914013 2.89788,0 c 0.12479,1.048e-5 0.20716,0.0574189 0.2471,0.17222532 l 3.33968,8.67865861 3.33967,-8.67865861 c 0.0399,-0.11480646 0.12229,-0.17221484 0.24711,-0.17222532 l 2.89787,0 0,0.53914013 c -1.05333,9.9e-6 -1.57999,0.162251 -1.57998,0.4867237 l 0,8.4240647 c -1e-5,0.3244837 0.52665,0.4867247 1.57998,0.4867237 l 0,0.53914 -4.46288,0 0,-0.53914 c 1.05331,10e-7 1.57997,-0.16224 1.57998,-0.4867237 l 0,-8.9257645 -3.77398,9.7794032 c -0.0449,0.114817 -0.1298,0.172225 -0.25459,0.172225 -0.1298,0 -0.21716,-0.05741 -0.26209,-0.172225 l -3.72905,-9.6595943 0,8.3866244 c 0,0.6040379 0.52666,0.9060559 1.57998,0.9060549 l 0,0.53914 z"
           id="path3306"
           style="fill:#ffffff;stroke:none" />
        <path
           d="m 242.44435,10.967943 0,-0.53914 c 1.10323,10e-7 1.65485,-0.16224 1.65486,-0.4867237 l 0,-8.4240647 c -1e-5,-0.3244727 -0.55163,-0.4867138 -1.65486,-0.4867237 l 0,-0.53914013 4.73994,0 0,0.53914013 c -1.10325,9.9e-6 -1.65487,0.162251 -1.65487,0.4867237 l 0,8.4240647 c 0,0.3244837 0.55162,0.4867247 1.65487,0.4867237 l 0,0.53914 z"
           id="path3308"
           style="fill:#ffffff;stroke:none" />
        <path
           d="m 248.44977,11.185097 0,-3.5792916 c -1e-5,-0.079869 0.0449,-0.1198055 0.13478,-0.1198089 l 0.1872,0 c 0.03,3.4e-6 0.0574,0.012484 0.0824,0.03744 0.025,0.024964 0.0374,0.05242 0.0374,0.082369 0,1.003402 0.31075,1.7809112 0.93226,2.3325299 0.62151,0.5516206 1.43646,0.8274306 2.44485,0.8274306 0.35443,0 0.68141,-0.102337 0.98094,-0.307011 0.29952,-0.204673 0.53289,-0.4729943 0.70013,-0.8049658 0.16723,-0.3319689 0.25085,-0.6751712 0.25085,-1.0296079 0,-0.3095037 -0.0624,-0.6102737 -0.1872,-0.9023109 -0.12481,-0.2920307 -0.30452,-0.5453764 -0.53914,-0.7600379 -0.23463,-0.2146534 -0.49921,-0.3569263 -0.79373,-0.4268192 l -1.99183,-0.4867238 c -0.65895,-0.1747162 -1.19684,-0.5328946 -1.61367,-1.0745362 -0.41684,-0.5416296 -0.62526,-1.1494097 -0.62525,-1.823342 -1e-5,-0.5291477 0.13478,-1.0258551 0.40435,-1.4901235 0.26957,-0.4642498 0.63274,-0.8311642 1.08951,-1.10074441 0.45677,-0.26955939 0.94973,-0.40434429 1.47889,-0.4043551 1.02337,1.081e-5 1.83707,0.34695713 2.44111,1.04084001 l 0.629,-0.99591167 c 0.0299,-0.0299414 0.0649,-0.0449175 0.10483,-0.0449283 l 0.10483,0 c 0.0299,1.081e-5 0.0587,0.0112429 0.0861,0.0336962 0.0274,0.0224749 0.0412,0.0536751 0.0412,0.0936007 l 0,3.55682737 c -1e-5,0.089864 -0.0424,0.134792 -0.1273,0.134785 l -0.17971,0 c -0.0949,7e-6 -0.14228,-0.044921 -0.14227,-0.134785 -1e-5,-0.2595786 -0.0437,-0.5441245 -0.13104,-0.8536386 -0.0874,-0.3094981 -0.20843,-0.6065241 -0.36318,-0.8910788 -0.15475,-0.2845371 -0.32199,-0.5166666 -0.50169,-0.6963894 -0.49422,-0.49919376 -1.14818,-0.74879543 -1.96188,-0.74880575 -0.34944,1.032e-5 -0.67143,0.0886189 -0.96596,0.26582604 -0.29453,0.17722731 -0.52915,0.41809291 -0.70387,0.72259761 -0.17473,0.3045233 -0.26209,0.6240135 -0.26208,0.9584713 -1e-5,0.4393073 0.13603,0.837422 0.40809,1.1943452 0.27207,0.3569376 0.62775,0.5928111 1.06705,0.7076214 l 1.99183,0.4867238 c 0.32946,0.079879 0.64022,0.2233994 0.93226,0.4305633 0.29203,0.2071749 0.53539,0.4480405 0.73008,0.7225975 0.19469,0.2745667 0.34694,0.5803287 0.45678,0.9172871 0.10981,0.3369661 0.16473,0.6851604 0.16473,1.044584 0,0.5541185 -0.1273,1.077034 -0.38189,1.568748 -0.2546,0.4917167 -0.61278,0.8873347 -1.07453,1.1868567 -0.46177,0.299522 -0.96722,0.449283 -1.51634,0.449284 -0.33946,-1e-6 -0.6864,-0.03744 -1.04084,-0.112321 -0.35443,-0.07488 -0.68141,-0.189698 -0.98093,-0.344451 -0.29953,-0.154753 -0.57159,-0.354434 -0.8162,-0.599044 l -0.64397,1.010887 c -0.03,0.02995 -0.0674,0.04493 -0.11232,0.04493 l -0.0899,0 c -0.0899,-10e-7 -0.13479,-0.03994 -0.13478,-0.119809 z"
           id="path3310"
           style="fill:#ffffff;stroke:none" />
        <path
           d="m 256.9562,11.185097 0,-3.5792916 c 0,-0.079869 0.0449,-0.1198055 0.13478,-0.1198089 l 0.1872,0 c 0.0299,3.4e-6 0.0574,0.012484 0.0824,0.03744 0.025,0.024964 0.0374,0.05242 0.0374,0.082369 0,1.003402 0.31075,1.7809112 0.93227,2.3325299 0.6215,0.5516206 1.43645,0.8274306 2.44485,0.8274306 0.35443,0 0.6814,-0.102337 0.98093,-0.307011 0.29952,-0.204673 0.5329,-0.4729943 0.70013,-0.8049658 0.16723,-0.3319689 0.25085,-0.6751712 0.25085,-1.0296079 0,-0.3095037 -0.0624,-0.6102737 -0.1872,-0.9023109 -0.1248,-0.2920307 -0.30452,-0.5453764 -0.53914,-0.7600379 -0.23463,-0.2146534 -0.49921,-0.3569263 -0.79373,-0.4268192 l -1.99182,-0.4867238 c -0.65896,-0.1747162 -1.19685,-0.5328946 -1.61368,-1.0745362 -0.41684,-0.5416296 -0.62525,-1.1494097 -0.62525,-1.823342 0,-0.5291477 0.13478,-1.0258551 0.40435,-1.4901235 0.26957,-0.4642498 0.63274,-0.8311642 1.08951,-1.10074441 0.45677,-0.26955939 0.94974,-0.40434429 1.4789,-0.4043551 1.02336,1.081e-5 1.83706,0.34695713 2.4411,1.04084001 l 0.629,-0.99591167 c 0.0299,-0.0299414 0.0649,-0.0449175 0.10483,-0.0449283 l 0.10483,0 c 0.0299,1.081e-5 0.0587,0.0112429 0.0861,0.0336962 0.0274,0.0224749 0.0412,0.0536751 0.0412,0.0936007 l 0,3.55682737 c -10e-6,0.089864 -0.0424,0.134792 -0.1273,0.134785 l -0.17971,0 c -0.0949,7e-6 -0.14228,-0.044921 -0.14227,-0.134785 -10e-6,-0.2595786 -0.0437,-0.5441245 -0.13104,-0.8536386 -0.0874,-0.3094981 -0.20843,-0.6065241 -0.36317,-0.8910788 -0.15476,-0.2845371 -0.322,-0.5166666 -0.5017,-0.6963894 -0.49422,-0.49919376 -1.14818,-0.74879543 -1.96187,-0.74880575 -0.34945,1.032e-5 -0.67144,0.0886189 -0.96596,0.26582604 -0.29454,0.17722731 -0.52916,0.41809291 -0.70388,0.72259761 -0.17472,0.3045233 -0.26209,0.6240135 -0.26208,0.9584713 -10e-6,0.4393073 0.13603,0.837422 0.4081,1.1943452 0.27206,0.3569376 0.62774,0.5928111 1.06704,0.7076214 l 1.99183,0.4867238 c 0.32947,0.079879 0.64022,0.2233994 0.93226,0.4305633 0.29203,0.2071749 0.53539,0.4480405 0.73009,0.7225975 0.19468,0.2745667 0.34694,0.5803287 0.45677,0.9172871 0.10981,0.3369661 0.16473,0.6851604 0.16473,1.044584 0,0.5541185 -0.1273,1.077034 -0.38189,1.568748 -0.2546,0.4917167 -0.61278,0.8873347 -1.07453,1.1868567 -0.46177,0.299522 -0.96721,0.449283 -1.51633,0.449284 -0.33947,-1e-6 -0.68641,-0.03744 -1.04084,-0.112321 -0.35444,-0.07488 -0.68142,-0.189698 -0.98094,-0.344451 -0.29952,-0.154753 -0.57159,-0.354434 -0.8162,-0.599044 l -0.64397,1.010887 c -0.0299,0.02995 -0.0674,0.04493 -0.11232,0.04493 l -0.0899,0 c -0.0899,-10e-7 -0.13478,-0.03994 -0.13478,-0.119809 z"
           id="path3312"
           style="fill:#ffffff;stroke:none" />
        <path
           d="m 264.99837,10.967943 0,-0.53914 c 1.10324,10e-7 1.65486,-0.16224 1.65486,-0.4867237 l 0,-8.4240647 c 0,-0.3244727 -0.55162,-0.4867138 -1.65486,-0.4867237 l 0,-0.53914013 4.73994,0 0,0.53914013 c -1.10325,9.9e-6 -1.65487,0.162251 -1.65486,0.4867237 l 0,8.4240647 c -1e-5,0.3244837 0.55161,0.4867247 1.65486,0.4867237 l 0,0.53914 z"
           id="path3314"
           style="fill:#ffffff;stroke:none" />
        <path
           d="m 270.66683,10.967943 0,-0.53914 c 1.05332,10e-7 1.57998,-0.16224 1.57998,-0.4867237 l 0,-8.4240647 c 0,-0.3244727 -0.52666,-0.4867138 -1.57998,-0.4867237 l 0,-0.53914013 5.63851,0 c 0.51917,1.048e-5 1.04333,0.10109915 1.57249,0.30326633 0.52915,0.20218752 0.9672,0.5017095 1.31416,0.8985669 0.34693,0.3968759 0.52041,0.864879 0.52042,1.4040108 -10e-6,0.624012 -0.25585,1.1469275 -0.76753,1.568748 -0.51169,0.4218331 -1.10949,0.697643 -1.79339,0.8274304 0.44429,5.4e-6 0.90106,0.1223103 1.37032,0.3669148 0.46924,0.2446147 0.85363,0.5715929 1.15316,0.9809355 0.29951,0.4093509 0.44927,0.8436578 0.44928,1.302922 -1e-5,0.5591106 -0.16599,1.0533219 -0.49796,1.4826354 -0.33197,0.4293161 -0.76254,0.7600381 -1.29169,0.9921681 -0.52916,0.232129 -1.06081,0.348194 -1.59495,0.348194 z m 2.91286,-1.0258637 c -1e-5,0.2196507 0.0624,0.3556837 0.1872,0.4080987 0.1248,0.05242 0.32198,0.07863 0.59156,0.07863 l 1.94689,0 c 0.39936,10e-7 0.77002,-0.104832 1.11198,-0.314498 0.34194,-0.2096649 0.61276,-0.4904668 0.81245,-0.8424068 0.19968,-0.3519367 0.29952,-0.7275872 0.29952,-1.1269527 0,-0.3893758 -0.0824,-0.7700183 -0.2471,-1.1419287 -0.16475,-0.3719026 -0.40062,-0.6776646 -0.70762,-0.9172871 -0.30702,-0.2396127 -0.65771,-0.3594215 -1.05208,-0.3594267 l -2.9428,0 z m 0,-4.6201315 2.29883,0 c 0.3095,5.7e-6 0.60029,-0.056155 0.87236,-0.1684812 0.27206,-0.112315 0.51667,-0.2745561 0.73383,-0.4867238 0.21715,-0.2121551 0.38438,-0.4517727 0.5017,-0.7188535 0.11731,-0.2670668 0.17596,-0.5503647 0.17597,-0.8498945 -10e-6,-0.2645699 -0.0437,-0.5191636 -0.13104,-0.7637819 -0.0874,-0.244601 -0.21591,-0.4667465 -0.38564,-0.6664371 -0.16973,-0.199672 -0.36941,-0.3556731 -0.59904,-0.4680036 -0.22964,-0.112311 -0.47675,-0.1684714 -0.74132,-0.1684813 l -1.94689,0 c -0.18471,9.9e-6 -0.32823,0.0075 -0.43057,0.022464 -0.10234,0.014986 -0.18595,0.058666 -0.25085,0.131041 -0.0649,0.072394 -0.0974,0.183467 -0.0973,0.3332185 z"
           id="path3316"
           style="fill:#ffffff;stroke:none" />
        <path
           d="m 281.48708,10.967943 0,-0.53914 c 1.05331,10e-7 1.57997,-0.16224 1.57998,-0.4867237 l 0,-8.4240647 c -1e-5,-0.3244727 -0.52667,-0.4867138 -1.57998,-0.4867237 l 0,-0.53914013 4.97207,0 0,0.53914013 c -1.30792,9.9e-6 -1.96188,0.162251 -1.96188,0.4867237 l 0,8.4240647 c 0,0.2196507 0.0624,0.3556837 0.18721,0.4080987 0.12479,0.05242 0.32198,0.07863 0.59155,0.07863 l 1.18312,0 c 0.76377,10e-7 1.35283,-0.139776 1.76718,-0.419331 0.41433,-0.2795531 0.70761,-0.6601956 0.87984,-1.1419289 0.17222,-0.4817291 0.30326,-1.1219574 0.39313,-1.9206868 l 0.44179,0 -0.42682,4.0210867 z"
           id="path3318"
           style="fill:#ffffff;stroke:none" />
        <path
           d="m 291.07179,10.967943 0,-0.53914 c 1.05332,10e-7 1.57998,-0.16224 1.57998,-0.4867237 l 0,-8.4240647 c 0,-0.3244727 -0.52666,-0.4867138 -1.57998,-0.4867237 l 0,-0.53914013 8.67117,0 0.42682,3.51189893 -0.44179,0 C 299.61815,3.1204668 299.46465,2.4789905 299.26747,2.079619 299.07028,1.6802652 298.75453,1.4057033 298.32023,1.2559326 297.88592,1.1061813 297.23446,1.0313008 296.36585,1.0312909 l -1.5051,0 c -0.18471,9.9e-6 -0.32823,0.0075 -0.43056,0.022464 -0.10234,0.014986 -0.18596,0.058666 -0.25085,0.131041 -0.0649,0.072394 -0.0974,0.183467 -0.0974,0.3332185 l 0,3.7440288 1.1307,0 c 0.51916,5.7e-6 0.9073,-0.043675 1.16439,-0.131041 0.25708,-0.087355 0.4343,-0.2545879 0.53165,-0.5016999 0.0973,-0.2470993 0.14601,-0.6327339 0.14602,-1.1569048 l 0.44928,0 0,4.1184316 -0.44928,0 c -1e-5,-0.5191681 -0.0487,-0.9035547 -0.14602,-1.1531609 -0.0974,-0.2495971 -0.27457,-0.4180782 -0.53165,-0.5054439 -0.25709,-0.087356 -0.64523,-0.1310358 -1.16439,-0.131041 l -1.1307,0 0,4.1408958 c 0,0.2196509 0.0624,0.3556839 0.1872,0.4080989 0.1248,0.05242 0.32199,0.07863 0.59156,0.07863 l 1.62491,0 c 0.70886,10e-7 1.2817,-0.05616 1.71851,-0.168481 0.43679,-0.11232 0.77625,-0.2995217 1.01837,-0.5616048 0.24211,-0.2620804 0.42931,-0.6015387 0.56161,-1.0183758 0.13228,-0.4168325 0.25583,-0.9946603 0.37066,-1.7334853 l 0.44179,0 -0.64397,4.0210869 z"
           id="path3320"
           style="fill:#ffffff;stroke:none" />
        <path
           d="m 306.61699,10.967943 0,-0.53914 c 1.05332,10e-7 1.57998,-0.16224 1.57998,-0.4867237 l 0,-8.4240647 c 0,-0.3244727 -0.52666,-0.4867138 -1.57998,-0.4867237 l 0,-0.53914013 4.59018,0 0,0.53914013 c -1.05333,9.9e-6 -1.57999,0.162251 -1.57998,0.4867237 l 0,3.7290527 4.52278,0 0,-3.7290527 c 0,-0.3244727 -0.52666,-0.4867138 -1.57998,-0.4867237 l 0,-0.53914013 4.5827,0 0,0.53914013 c -1.04834,9.9e-6 -1.57251,0.162251 -1.5725,0.4867237 l 0,8.4240647 c -1e-5,0.3244837 0.52416,0.4867247 1.5725,0.4867237 l 0,0.53914 -4.5827,0 0,-0.53914 c 1.05332,10e-7 1.57998,-0.16224 1.57998,-0.4867237 l 0,-4.1558719 -4.52278,0 0,4.1558719 c -10e-6,0.3244837 0.52665,0.4867247 1.57998,0.4867237 l 0,0.53914 z"
           id="path3322"
           style="fill:#ffffff;stroke:none" />
        <path
           d="m 318.11865,10.967943 0,-0.53914 c 1.05332,10e-7 1.57998,-0.16224 1.57998,-0.4867237 l 0,-8.4240647 c 0,-0.3244727 -0.52666,-0.4867138 -1.57998,-0.4867237 l 0,-0.53914013 8.67117,0 0.42682,3.51189893 -0.44179,0 C 326.66501,3.1204668 326.51151,2.4789905 326.31433,2.079619 326.11714,1.6802652 325.80139,1.4057033 325.36709,1.2559326 324.93278,1.1061813 324.28132,1.0313008 323.41271,1.0312909 l -1.5051,0 c -0.18471,9.9e-6 -0.32823,0.0075 -0.43056,0.022464 -0.10234,0.014986 -0.18596,0.058666 -0.25085,0.131041 -0.0649,0.072394 -0.0974,0.183467 -0.0974,0.3332185 l 0,3.7440288 1.1307,0 c 0.51916,5.7e-6 0.9073,-0.043675 1.16439,-0.131041 0.25708,-0.087355 0.4343,-0.2545879 0.53165,-0.5016999 0.0973,-0.2470993 0.14601,-0.6327339 0.14602,-1.1569048 l 0.44928,0 0,4.1184316 -0.44928,0 c -1e-5,-0.5191681 -0.0487,-0.9035547 -0.14602,-1.1531609 -0.0973,-0.2495971 -0.27457,-0.4180782 -0.53165,-0.5054439 -0.25709,-0.087356 -0.64523,-0.1310358 -1.16439,-0.131041 l -1.1307,0 0,4.1408958 c 0,0.2196509 0.0624,0.3556839 0.1872,0.4080989 0.1248,0.05242 0.32198,0.07863 0.59156,0.07863 l 1.62491,0 c 0.70886,10e-7 1.2817,-0.05616 1.71851,-0.168481 0.43679,-0.11232 0.77625,-0.2995217 1.01837,-0.5616048 0.24211,-0.2620804 0.42931,-0.6015387 0.56161,-1.0183758 0.13228,-0.4168325 0.25583,-0.9946603 0.37066,-1.7334853 l 0.44179,0 -0.64397,4.0210869 z"
           id="path3324"
           style="fill:#ffffff;stroke:none" />
        <path
           d="m 328.56449,10.967943 0,-0.53914 c 0.91354,10e-7 1.47514,-0.302017 1.68481,-0.9060549 l 3.21986,-9.36755991 c 0.0299,-0.10981392 0.11232,-0.16472629 0.24711,-0.16473727 l 0.19469,0 c 0.13478,1.098e-5 0.21715,0.05492335 0.24711,0.16473727 l 3.36213,9.78689111 c 0.0948,0.2146587 0.2758,0.3494437 0.54289,0.4043547 0.26706,0.05491 0.60028,0.08237 0.99965,0.08237 l 0,0.53914 -4.27568,0 0,-0.53914 c 0.84864,1e-6 1.27296,-0.13728 1.27297,-0.411843 l 0,-0.074881 -0.83117,-2.3961784 -3.72157,0 -0.6889,1.9768472 c -0.01,0.034946 -0.015,0.087362 -0.015,0.1572492 -10e-6,0.254595 0.12105,0.443045 0.36317,0.565349 0.24211,0.122305 0.50294,0.183458 0.7825,0.183457 l 0,0.53914 z m 3.12252,-3.9536942 3.36213,0 -1.68481,-4.8971896 z"
           id="path3326"
           style="fill:#ffffff;stroke:none" />
        <path
           d="m 342.16281,10.967943 0,-0.53914 c 0.51417,10e-7 1.01338,-0.0287 1.49761,-0.08611 0.48422,-0.05741 0.72633,-0.190944 0.72634,-0.4006107 l 0,-8.4240647 c -10e-6,-0.21964 -0.0612,-0.3556729 -0.18346,-0.4080991 -0.12231,-0.052407 -0.32074,-0.078615 -0.5953,-0.078625 l -0.64397,0 c -0.84366,9.9e-6 -1.4427,0.1847152 -1.79714,0.5541163 -0.1847,0.1847146 -0.31699,0.4804926 -0.39686,0.8873348 -0.0799,0.4068592 -0.14727,0.9172946 -0.20218,1.5313077 l -0.4418,0 0.29204,-3.51189893 9.36756,0 0.29203,3.51189893 -0.44928,0 c -0.0599,-0.6589414 -0.12606,-1.1818569 -0.19843,-1.568748 -0.0724,-0.3868741 -0.20344,-0.670172 -0.39313,-0.8498945 -0.35943,-0.3694011 -0.95848,-0.5541064 -1.79713,-0.5541163 l -0.64397,0 c -0.18472,9.9e-6 -0.32824,0.0075 -0.43057,0.022464 -0.10234,0.014986 -0.18596,0.058666 -0.25085,0.131041 -0.0649,0.072394 -0.0973,0.183467 -0.0973,0.3332185 l 0,8.4240647 c -1e-5,0.2096663 0.24211,0.3432033 0.72634,0.4006103 0.48422,0.05741 0.98093,0.08611 1.49012,0.08611 l 0,0.53914 z"
           id="path3328"
           style="fill:#ffffff;stroke:none" />
        <path
           d="m 356.24785,10.967943 0,-0.53914 c 1.05332,10e-7 1.57998,-0.16224 1.57998,-0.4867237 l 0,-8.4240647 c 0,-0.3244727 -0.52666,-0.4867138 -1.57998,-0.4867237 l 0,-0.53914013 8.67117,0 0.42682,3.51189893 -0.4418,0 C 364.79421,3.1204668 364.6407,2.4789905 364.44353,2.079619 364.24633,1.6802652 363.93059,1.4057033 363.49629,1.2559326 363.06197,1.1061813 362.41051,1.0313008 361.5419,1.0312909 l -1.50509,0 c -0.18471,9.9e-6 -0.32824,0.0075 -0.43057,0.022464 -0.10234,0.014986 -0.18596,0.058666 -0.25085,0.131041 -0.0649,0.072394 -0.0974,0.183467 -0.0973,0.3332185 l 0,3.7440288 1.13069,0 c 0.51917,5.7e-6 0.9073,-0.043675 1.1644,-0.131041 0.25708,-0.087355 0.4343,-0.2545879 0.53165,-0.5016999 0.0973,-0.2470993 0.14601,-0.6327339 0.14602,-1.1569048 l 0.44928,0 0,4.1184316 -0.44928,0 c -10e-6,-0.5191681 -0.0487,-0.9035547 -0.14602,-1.1531609 -0.0974,-0.2495971 -0.27457,-0.4180782 -0.53165,-0.5054439 -0.2571,-0.087356 -0.64523,-0.1310358 -1.1644,-0.131041 l -1.13069,0 0,4.1408958 c -10e-6,0.2196509 0.0624,0.3556839 0.1872,0.4080989 0.1248,0.05242 0.32198,0.07863 0.59156,0.07863 l 1.6249,0 c 0.70887,10e-7 1.2817,-0.05616 1.71851,-0.168481 0.4368,-0.11232 0.77626,-0.2995217 1.01838,-0.5616048 0.2421,-0.2620804 0.4293,-0.6015387 0.5616,-1.0183758 0.13228,-0.4168325 0.25584,-0.9946603 0.37066,-1.7334853 l 0.4418,0 -0.64398,4.0210869 z"
           id="path3330"
           style="fill:#ffffff;stroke:none" />
        <path
           d="m 366.55141,10.967943 0,-0.53914 c 1.03834,10e-7 1.76468,-0.289537 2.17902,-0.8686146 l 2.54594,-3.7889571 -2.82299,-4.298145 c -0.15975,-0.1896878 -0.37566,-0.3107446 -0.64772,-0.3631708 -0.27207,-0.052407 -0.61777,-0.078615 -1.0371,-0.078625 l 0,-0.53914013 4.29066,0 0,0.53914013 c -0.18471,9.9e-6 -0.39687,0.036202 -0.63648,0.1085768 -0.23963,0.072394 -0.35944,0.173483 -0.35943,0.3032664 -10e-6,0.019978 0.005,0.039946 0.015,0.059904 l 2.0068,3.0551275 1.76719,-2.6357962 c 0.0399,-0.089848 0.0599,-0.1622321 0.0599,-0.2171537 -10e-6,-0.2096562 -0.10359,-0.3743933 -0.31075,-0.4942118 C 373.39427,1.0912044 373.17587,1.0313 372.94624,1.0312901 l 0,-0.53914013 3.74403,0 0,0.53914013 c -1.03835,9.9e-6 -1.76469,0.2920439 -2.17903,0.8761027 l -2.10414,3.1374961 3.24233,4.942118 c 0.17471,0.1946901 0.39561,0.3169951 0.66269,0.3669141 0.26707,0.04992 0.60777,0.07488 1.02212,0.07488 l 0,0.53914 -4.29814,0 0,-0.53914 c 0.16473,10e-7 0.37314,-0.03619 0.62525,-0.108577 0.25209,-0.07238 0.37814,-0.173472 0.37815,-0.303266 -10e-6,-0.029951 -0.007,-0.049919 -0.0225,-0.059905 l -2.41864,-3.6991004 -2.20898,3.2872573 c -0.03,0.059906 -0.0449,0.1297943 -0.0449,0.2096656 0,0.2096666 0.10234,0.3744043 0.30702,0.4942123 0.20467,0.119809 0.41932,0.179714 0.64397,0.179713 l 0,0.53914 z"
           id="path3332"
           style="fill:#ffffff;stroke:none" />
        <path
           d="m 378.21031,10.967943 0,-0.53914 c 1.05332,10e-7 1.57997,-0.16224 1.57998,-0.4867237 l 0,-8.4240647 c -1e-5,-0.3244727 -0.52666,-0.4867138 -1.57998,-0.4867237 l 0,-0.53914013 5.45879,0 c 0.5591,1.048e-5 1.11821,0.11482725 1.67733,0.34445065 0.5591,0.22964368 1.01961,0.56410988 1.38154,1.00339968 0.36192,0.4393081 0.54288,0.9509915 0.54289,1.5350518 -1e-5,0.5690994 -0.18222,1.0683027 -0.54663,1.4976115 -0.36443,0.429321 -0.8237,0.7550511 -1.3778,0.9771915 -0.55413,0.2221506 -1.11324,0.3332233 -1.67733,0.3332186 l -2.45608,0 0,3.7590048 c -10e-6,0.3244837 0.52665,0.4867247 1.57998,0.4867237 l 0,0.53914 z m 2.95778,-5.24164 2.08168,0 c 0.56409,5.2e-6 1.02086,-0.081115 1.37031,-0.2433619 0.34944,-0.1622356 0.60528,-0.4143333 0.76753,-0.7562938 0.16223,-0.3419481 0.24335,-0.7924791 0.24336,-1.3515944 -10e-6,-0.833662 -0.18346,-1.432706 -0.55037,-1.7971338 -0.36692,-0.364409 -0.9772,-0.5466183 -1.83083,-0.5466282 l -1.30292,0 c -0.18471,9.9e-6 -0.32823,0.0075 -0.43057,0.022464 -0.10234,0.014986 -0.18595,0.058666 -0.25085,0.131041 -0.0649,0.072394 -0.0973,0.183467 -0.0973,0.3332185 z"
           id="path3334"
           style="fill:#ffffff;stroke:none" />
        <path
           d="m 394.09249,11.304906 c -0.97346,-1e-6 -1.84831,-0.258338 -2.62457,-0.775014 -0.77626,-0.516675 -1.38404,-1.2030798 -1.82334,-2.059216 -0.4393,-0.8561312 -0.65895,-1.7559452 -0.65895,-2.6994447 0,-0.6988795 0.12605,-1.3902761 0.37815,-2.0741919 0.25209,-0.6839013 0.60403,-1.2904334 1.05581,-1.819598 0.45178,-0.5291464 0.99466,-0.94847724 1.62866,-1.25799365 0.63398,-0.30949572 1.31539,-0.46424875 2.04424,-0.46425956 0.72384,1.081e-5 1.404,0.15601185 2.04049,0.46800359 0.63648,0.31201243 1.18186,0.73508722 1.63614,1.26922572 0.45427,0.5341567 0.80371,1.1332007 1.04833,1.7971338 0.2446,0.6639477 0.3669,1.3578404 0.36692,2.08168 -2e-5,0.9434995 -0.21967,1.8433135 -0.65895,2.6994447 -0.43931,0.8561362 -1.04834,1.542541 -1.82709,2.059216 -0.77877,0.516676 -1.64738,0.775013 -2.60584,0.775014 z m -2.54594,-1.9918235 c 0.29952,0.4692528 0.66893,0.8424075 1.10823,1.1194645 0.43929,0.277058 0.91853,0.415587 1.43771,0.415587 0.33446,0 0.66268,-0.06739 0.98468,-0.202177 0.32197,-0.134785 0.61401,-0.31949 0.8761,-0.554117 0.26207,-0.2346242 0.48547,-0.49421 0.67018,-0.7787575 0.60902,-0.9185325 0.91353,-2.1815169 0.91354,-3.7889571 -10e-6,-1.4726444 -0.30452,-2.6382842 -0.91354,-3.4969228 -0.29953,-0.429306 -0.67269,-0.7737563 -1.11947,-1.03335198 -0.44679,-0.25957575 -0.91729,-0.38936862 -1.41149,-0.38937898 -0.49921,1.036e-5 -0.97346,0.12980323 -1.42273,0.38937898 -0.44929,0.25959568 -0.82369,0.60404598 -1.12321,1.03335198 -0.23962,0.3344751 -0.42558,0.6901575 -0.55786,1.0670481 -0.1323,0.3769064 -0.2259,0.767533 -0.28081,1.171881 -0.0549,0.4043614 -0.0824,0.8236922 -0.0824,1.2579937 -10e-6,0.4642645 0.0262,0.9172916 0.0786,1.3590824 0.0524,0.4417991 0.14976,0.874858 0.29203,1.299178 0.14227,0.4243256 0.32573,0.8012241 0.55038,1.1306967 z"
           id="path3336"
           style="fill:#ffffff;stroke:none" />
        <path
           d="m 400.90662,11.185097 0,-3.5792916 c 0,-0.079869 0.0449,-0.1198055 0.13479,-0.1198089 l 0.1872,0 c 0.0299,3.4e-6 0.0574,0.012484 0.0824,0.03744 0.025,0.024964 0.0374,0.05242 0.0374,0.082369 0,1.003402 0.31075,1.7809112 0.93226,2.3325299 0.62151,0.5516206 1.43645,0.8274306 2.44485,0.8274306 0.35443,0 0.68141,-0.102337 0.98094,-0.307011 0.29951,-0.204673 0.53289,-0.4729943 0.70013,-0.8049658 0.16723,-0.3319689 0.25084,-0.6751712 0.25085,-1.0296079 -1e-5,-0.3095037 -0.0624,-0.6102737 -0.1872,-0.9023109 -0.12481,-0.2920307 -0.30452,-0.5453764 -0.53914,-0.7600379 -0.23463,-0.2146534 -0.49921,-0.3569263 -0.79374,-0.4268192 l -1.99182,-0.4867238 c -0.65895,-0.1747162 -1.19684,-0.5328946 -1.61368,-1.0745362 -0.41683,-0.5416296 -0.62525,-1.1494097 -0.62525,-1.823342 0,-0.5291477 0.13478,-1.0258551 0.40436,-1.4901235 0.26956,-0.4642498 0.63273,-0.8311642 1.08951,-1.10074441 0.45677,-0.26955939 0.94973,-0.40434429 1.47889,-0.4043551 1.02336,1.081e-5 1.83706,0.34695713 2.44111,1.04084001 l 0.62899,-0.99591167 c 0.0299,-0.0299414 0.0649,-0.0449175 0.10484,-0.0449283 l 0.10483,0 c 0.0299,1.081e-5 0.0587,0.0112429 0.0861,0.0336962 0.0275,0.0224749 0.0412,0.0536751 0.0412,0.0936007 l 0,3.55682737 c -1e-5,0.089864 -0.0424,0.134792 -0.1273,0.134785 l -0.17971,0 c -0.0949,7e-6 -0.14228,-0.044921 -0.14228,-0.134785 0,-0.2595786 -0.0437,-0.5441245 -0.13104,-0.8536386 -0.0874,-0.3094981 -0.20842,-0.6065241 -0.36317,-0.8910788 -0.15476,-0.2845371 -0.32199,-0.5166666 -0.5017,-0.6963894 -0.49422,-0.49919376 -1.14817,-0.74879543 -1.96187,-0.74880575 -0.34945,1.032e-5 -0.67143,0.0886189 -0.96596,0.26582604 -0.29453,0.17722731 -0.52916,0.41809291 -0.70388,0.72259761 -0.17472,0.3045233 -0.26208,0.6240135 -0.26208,0.9584713 0,0.4393073 0.13603,0.837422 0.4081,1.1943452 0.27206,0.3569376 0.62775,0.5928111 1.06705,0.7076214 l 1.99182,0.4867238 c 0.32947,0.079879 0.64022,0.2233994 0.93226,0.4305633 0.29203,0.2071749 0.53539,0.4480405 0.73009,0.7225975 0.19468,0.2745667 0.34694,0.5803287 0.45677,0.9172871 0.10982,0.3369661 0.16473,0.6851604 0.16474,1.044584 -1e-5,0.5541185 -0.12731,1.077034 -0.38189,1.568748 -0.2546,0.4917167 -0.61278,0.8873347 -1.07454,1.1868567 -0.46177,0.299522 -0.96721,0.449283 -1.51633,0.449284 -0.33946,-1e-6 -0.68641,-0.03744 -1.04084,-0.112321 -0.35444,-0.07488 -0.68142,-0.189698 -0.98094,-0.344451 -0.29952,-0.154753 -0.57159,-0.354434 -0.81619,-0.599044 l -0.64398,1.010887 c -0.0299,0.02995 -0.0674,0.04493 -0.11232,0.04493 l -0.0899,0 c -0.0899,-10e-7 -0.13479,-0.03994 -0.13479,-0.119809 z"
           id="path3338"
           style="fill:#ffffff;stroke:none" />
        <path
           d="m 410.60365,7.5009726 0,-5.982958 c -1e-5,-0.3244727 -0.52667,-0.4867138 -1.57998,-0.4867237 l 0,-0.53914013 4.59018,0 0,0.53914013 c -1.05333,9.9e-6 -1.57999,0.162251 -1.57999,0.4867237 l 0,5.9230535 c 0,0.5690953 0.0786,1.1069869 0.23588,1.6136764 0.15724,0.5066933 0.42182,0.9185361 0.79373,1.2355295 0.3719,0.316995 0.85738,0.475492 1.45643,0.475492 0.58406,0 1.09824,-0.153505 1.54254,-0.460516 0.44428,-0.3070093 0.78624,-0.715108 1.02586,-1.2242973 0.23961,-0.5091855 0.35942,-1.0558132 0.35943,-1.6398846 l 0,-5.5037222 c -10e-6,-0.604027 -0.52667,-0.9060451 -1.57998,-0.906055 l 0,-0.53914013 3.69161,0 0,0.53914013 c -1.04834,9.9e-6 -1.5725,0.302028 -1.57249,0.906055 l 0,5.5636267 c -1e-5,0.4742466 -0.0836,0.9385057 -0.25085,1.3927787 -0.16724,0.4542771 -0.40936,0.8648718 -0.72634,1.2317857 -0.317,0.366915 -0.69016,0.655205 -1.11947,0.86487 -0.42932,0.209666 -0.88609,0.314498 -1.37031,0.314499 -0.67892,-1e-6 -1.32165,-0.16973 -1.92817,-0.509188 -0.60654,-0.339458 -1.08952,-0.8012213 -1.44894,-1.3852908 -0.35943,-0.5840663 -0.53915,-1.2205506 -0.53914,-1.9094546 z"
           id="path3340"
           style="fill:#ffffff;stroke:none" />
        <path
           d="m 420.56275,10.967943 0,-0.53914 c 1.05332,10e-7 1.57998,-0.16224 1.57998,-0.4867237 l 0,-8.4240647 c 0,-0.3244727 -0.52666,-0.4867138 -1.57998,-0.4867237 l 0,-0.53914013 4.81483,0 c 0.57407,1.048e-5 1.17686,0.10359517 1.80836,0.31075439 0.63149,0.20717954 1.15939,0.52292564 1.58373,0.94723924 0.42431,0.4243321 0.63647,0.9310235 0.63648,1.5200757 -1e-5,0.4293226 -0.12855,0.8124611 -0.38563,1.1494168 -0.2571,0.3369688 -0.58658,0.6190187 -0.98843,0.8461505 -0.40187,0.2271432 -0.81246,0.3906323 -1.23178,0.4904678 0.45926,0.1597503 0.86112,0.414344 1.20557,0.7637818 0.34445,0.3494468 0.55161,0.7488095 0.62151,1.1980892 l 0.21716,1.3628265 c 0.0998,0.614022 0.20466,1.0720413 0.31449,1.3740583 0.10982,0.302019 0.35193,0.453028 0.72635,0.453028 0.31948,0 0.55785,-0.148513 0.71511,-0.44554 0.15723,-0.297025 0.23586,-0.6202593 0.23587,-0.9697031 -10e-6,-0.034943 0.0162,-0.066143 0.0487,-0.093601 0.0324,-0.027455 0.0661,-0.041183 0.10109,-0.041184 l 0.14227,0 c 0.0998,1.6e-6 0.14975,0.067394 0.14976,0.2021776 -10e-6,0.2795553 -0.0549,0.5528685 -0.16473,0.8199425 -0.10984,0.267074 -0.26834,0.487972 -0.47549,0.662693 -0.20718,0.174721 -0.45304,0.262081 -0.73758,0.262082 -0.73883,-1e-6 -1.37407,-0.183458 -1.90571,-0.550372 -0.53166,-0.366915 -0.79748,-0.9048062 -0.79748,-1.6136767 l 0,-1.3628265 c 0,-0.5091842 -0.17722,-0.9459871 -0.53165,-1.3104101 -0.35444,-0.3644139 -0.78875,-0.5466231 -1.30292,-0.5466282 l -1.84206,0 0,4.0210869 c -1e-5,0.3244836 0.52665,0.4867246 1.57998,0.4867236 l 0,0.53914 z m 2.95779,-5.4438176 1.63988,0 c 0.84864,5.4e-6 1.49511,-0.1709717 1.93941,-0.5129319 0.44428,-0.3419484 0.66643,-0.9222722 0.66644,-1.7409734 -1e-5,-0.8136937 -0.21966,-1.3902736 -0.65895,-1.7297413 -0.43931,-0.3394488 -1.08827,-0.509178 -1.9469,-0.5091879 l -0.86113,0 c -0.1847,9.9e-6 -0.32823,0.0075 -0.43056,0.022464 -0.10234,0.014986 -0.18596,0.058666 -0.25085,0.131041 -0.0649,0.072394 -0.0974,0.183467 -0.0973,0.3332185 z"
           id="path3342"
           style="fill:#ffffff;stroke:none" />
        <path
           d="m 431.81731,10.967943 0,-0.53914 c 1.05331,10e-7 1.57997,-0.16224 1.57998,-0.4867237 l 0,-8.4240647 c -10e-6,-0.3244727 -0.52667,-0.4867138 -1.57998,-0.4867237 l 0,-0.53914013 8.67117,0 0.42682,3.51189893 -0.4418,0 C 440.36367,3.1204668 440.21016,2.4789905 440.01298,2.079619 439.81579,1.6802652 439.50004,1.4057033 439.06575,1.2559326 438.63143,1.1061813 437.97997,1.0313008 437.11136,1.0312909 l -1.5051,0 c -0.18471,9.9e-6 -0.32823,0.0075 -0.43056,0.022464 -0.10234,0.014986 -0.18596,0.058666 -0.25085,0.131041 -0.0649,0.072394 -0.0974,0.183467 -0.0973,0.3332185 l 0,3.7440288 1.13069,0 c 0.51917,5.7e-6 0.9073,-0.043675 1.16439,-0.131041 0.25709,-0.087355 0.43431,-0.2545879 0.53166,-0.5016999 0.0973,-0.2470993 0.14601,-0.6327339 0.14601,-1.1569048 l 0.44929,0 0,4.1184316 -0.44929,0 c 0,-0.5191681 -0.0487,-0.9035547 -0.14601,-1.1531609 -0.0974,-0.2495971 -0.27457,-0.4180782 -0.53166,-0.5054439 -0.25709,-0.087356 -0.64522,-0.1310358 -1.16439,-0.131041 l -1.13069,0 0,4.1408958 c -10e-6,0.2196509 0.0624,0.3556839 0.1872,0.4080989 0.12479,0.05242 0.32198,0.07863 0.59155,0.07863 l 1.62491,0 c 0.70886,10e-7 1.2817,-0.05616 1.71851,-0.168481 0.4368,-0.11232 0.77625,-0.2995217 1.01838,-0.5616048 0.2421,-0.2620804 0.4293,-0.6015387 0.5616,-1.0183758 0.13228,-0.4168325 0.25583,-0.9946603 0.37066,-1.7334853 l 0.4418,0 -0.64398,4.0210869 z"
           id="path3344"
           style="fill:#ffffff;stroke:none" />
        <path
           d="m 163.79727,30.137371 0,-0.53914 c 0.51418,0 1.01338,-0.0287 1.49762,-0.08611 0.48422,-0.05741 0.72633,-0.190944 0.72634,-0.400611 l 0,-8.424064 c -1e-5,-0.21964 -0.0612,-0.355673 -0.18346,-0.4081 -0.12231,-0.05241 -0.32074,-0.07861 -0.5953,-0.07862 l -0.64397,0 c -0.84366,10e-6 -1.44271,0.184715 -1.79714,0.554116 -0.1847,0.184715 -0.31699,0.480493 -0.39687,0.887335 -0.0799,0.406859 -0.14726,0.917294 -0.20217,1.531308 l -0.4418,0 0.29204,-3.511899 9.36756,0 0.29203,3.511899 -0.44928,0 c -0.0599,-0.658942 -0.12606,-1.181857 -0.19844,-1.568748 -0.0724,-0.386874 -0.20343,-0.670172 -0.39312,-0.849895 -0.35944,-0.369401 -0.95848,-0.554106 -1.79713,-0.554116 l -0.64398,0 c -0.18471,10e-6 -0.32823,0.0075 -0.43056,0.02246 -0.10234,0.01499 -0.18596,0.05867 -0.25085,0.131041 -0.0649,0.07239 -0.0974,0.183467 -0.0973,0.333219 l 0,8.424064 c -1e-5,0.209667 0.2421,0.343204 0.72634,0.400611 0.48422,0.05741 0.98092,0.08611 1.49012,0.08611 l 0,0.53914 z"
           id="path3346"
           style="fill:#ffffff;stroke:none" />
        <path
           d="m 172.76048,30.137371 0,-0.53914 c 1.05332,0 1.57998,-0.162241 1.57998,-0.486724 l 0,-8.424064 c 0,-0.324473 -0.52666,-0.486714 -1.57998,-0.486724 l 0,-0.53914 4.59018,0 0,0.53914 c -1.05333,10e-6 -1.57999,0.162251 -1.57998,0.486724 l 0,3.729052 4.52278,0 0,-3.729052 c 0,-0.324473 -0.52666,-0.486714 -1.57998,-0.486724 l 0,-0.53914 4.5827,0 0,0.53914 c -1.04834,10e-6 -1.57251,0.162251 -1.5725,0.486724 l 0,8.424064 c -1e-5,0.324483 0.52416,0.486724 1.5725,0.486724 l 0,0.53914 -4.5827,0 0,-0.53914 c 1.05332,0 1.57998,-0.162241 1.57998,-0.486724 l 0,-4.155872 -4.52278,0 0,4.155872 c -1e-5,0.324483 0.52665,0.486724 1.57998,0.486724 l 0,0.53914 z"
           id="path3348"
           style="fill:#ffffff;stroke:none" />
        <path
           d="m 184.29957,30.137371 0,-0.53914 c 1.05332,0 1.57998,-0.162241 1.57998,-0.486724 l 0,-8.424064 c 0,-0.324473 -0.52666,-0.486714 -1.57998,-0.486724 l 0,-0.53914 4.81483,0 c 0.57407,10e-6 1.17686,0.103595 1.80836,0.310754 0.63149,0.20718 1.15939,0.522926 1.58373,0.947239 0.42431,0.424332 0.63647,0.931024 0.63648,1.520076 -1e-5,0.429323 -0.12855,0.812461 -0.38563,1.149417 -0.2571,0.336969 -0.58658,0.619018 -0.98843,0.84615 -0.40187,0.227144 -0.81246,0.390633 -1.23178,0.490468 0.45926,0.15975 0.86112,0.414344 1.20557,0.763782 0.34445,0.349447 0.55162,0.748809 0.62151,1.198089 l 0.21716,1.362827 c 0.0998,0.614022 0.20466,1.072041 0.31449,1.374058 0.10982,0.302019 0.35193,0.453028 0.72635,0.453028 0.31948,0 0.55785,-0.148513 0.71511,-0.44554 0.15723,-0.297025 0.23586,-0.620259 0.23587,-0.969703 -1e-5,-0.03494 0.0162,-0.06614 0.0487,-0.0936 0.0324,-0.02745 0.0661,-0.04118 0.10109,-0.04118 l 0.14227,0 c 0.0998,1e-6 0.14975,0.06739 0.14976,0.202177 -1e-5,0.279556 -0.0549,0.552869 -0.16473,0.819943 -0.10984,0.267074 -0.26834,0.487971 -0.47549,0.662693 -0.20718,0.174721 -0.45304,0.262081 -0.73758,0.262082 -0.73883,-1e-6 -1.37407,-0.183458 -1.90571,-0.550373 -0.53166,-0.366914 -0.79748,-0.904805 -0.79748,-1.613676 l 0,-1.362826 c 0,-0.509185 -0.17722,-0.945988 -0.53165,-1.31041 -0.35444,-0.364414 -0.78875,-0.546624 -1.30292,-0.546629 l -1.84206,0 0,4.021087 c -10e-6,0.324483 0.52665,0.486724 1.57998,0.486724 l 0,0.53914 z m 2.95779,-5.443818 1.63988,0 c 0.84864,6e-6 1.49511,-0.170971 1.93941,-0.512932 0.44428,-0.341948 0.66643,-0.922272 0.66644,-1.740973 -10e-6,-0.813694 -0.21966,-1.390274 -0.65895,-1.729741 -0.43931,-0.339449 -1.08827,-0.509178 -1.9469,-0.509188 l -0.86113,0 c -0.1847,10e-6 -0.32823,0.0075 -0.43056,0.02246 -0.10234,0.01499 -0.18596,0.05867 -0.25085,0.131041 -0.0649,0.07239 -0.0974,0.183467 -0.0973,0.333219 z"
           id="path3350"
           style="fill:#ffffff;stroke:none" />
        <path
           d="m 195.55413,30.137371 0,-0.53914 c 1.05331,0 1.57997,-0.162241 1.57998,-0.486724 l 0,-8.424064 c -1e-5,-0.324473 -0.52667,-0.486714 -1.57998,-0.486724 l 0,-0.53914 8.67117,0 0.42682,3.511899 -0.4418,0 c -0.10983,-0.883583 -0.26334,-1.52506 -0.46051,-1.924431 -0.1972,-0.399354 -0.51295,-0.673916 -0.94724,-0.823686 -0.43432,-0.149752 -1.08578,-0.224632 -1.95439,-0.224642 l -1.5051,0 c -0.18471,10e-6 -0.32823,0.0075 -0.43056,0.02246 -0.10234,0.01499 -0.18596,0.05867 -0.25085,0.131041 -0.0649,0.07239 -0.0973,0.183467 -0.0973,0.333219 l 0,3.744028 1.13069,0 c 0.51917,6e-6 0.9073,-0.04367 1.16439,-0.131041 0.25709,-0.08735 0.43431,-0.254588 0.53166,-0.5017 0.0973,-0.247099 0.14601,-0.632733 0.14601,-1.156904 l 0.44929,0 0,4.118431 -0.44929,0 c 0,-0.519168 -0.0487,-0.903555 -0.14601,-1.153161 -0.0974,-0.249597 -0.27457,-0.418078 -0.53166,-0.505444 -0.25709,-0.08736 -0.64522,-0.131035 -1.16439,-0.131041 l -1.13069,0 0,4.140896 c -1e-5,0.219651 0.0624,0.355684 0.1872,0.408099 0.12479,0.05242 0.32198,0.07862 0.59155,0.07862 l 1.62491,0 c 0.70886,0 1.2817,-0.05616 1.71851,-0.168481 0.4368,-0.11232 0.77625,-0.299522 1.01838,-0.561605 0.2421,-0.26208 0.4293,-0.601538 0.5616,-1.018375 0.13228,-0.416833 0.25583,-0.994661 0.37066,-1.733486 l 0.4418,0 -0.64398,4.021087 z"
           id="path3352"
           style="fill:#ffffff;stroke:none" />
        <path
           d="m 206.36688,30.354525 0,-3.579292 c 0,-0.07987 0.0449,-0.119805 0.13478,-0.119809 l 0.18721,0 c 0.0299,4e-6 0.0574,0.01248 0.0824,0.03744 0.025,0.02496 0.0374,0.05242 0.0374,0.08237 0,1.003402 0.31076,1.780912 0.93227,2.33253 0.6215,0.551621 1.43645,0.827431 2.44485,0.827431 0.35443,0 0.68141,-0.102337 0.98093,-0.307011 0.29952,-0.204673 0.5329,-0.472994 0.70014,-0.804966 0.16722,-0.331969 0.25084,-0.675171 0.25085,-1.029608 -10e-6,-0.309504 -0.0624,-0.610274 -0.1872,-0.902311 -0.12481,-0.292031 -0.30452,-0.545376 -0.53914,-0.760038 -0.23464,-0.214653 -0.49921,-0.356926 -0.79374,-0.426819 l -1.99182,-0.486724 c -0.65895,-0.174716 -1.19684,-0.532894 -1.61368,-1.074536 -0.41683,-0.54163 -0.62525,-1.14941 -0.62525,-1.823342 0,-0.529148 0.13478,-1.025855 0.40435,-1.490123 0.26957,-0.46425 0.63274,-0.831165 1.08952,-1.100745 0.45677,-0.269559 0.94973,-0.404344 1.47889,-0.404355 1.02336,1.1e-5 1.83706,0.346957 2.4411,1.04084 l 0.629,-0.995912 c 0.03,-0.02994 0.0649,-0.04492 0.10483,-0.04493 l 0.10484,0 c 0.0299,1.1e-5 0.0587,0.01124 0.0861,0.0337 0.0274,0.02248 0.0412,0.05367 0.0412,0.0936 l 0,3.556827 c 0,0.08986 -0.0424,0.134792 -0.12729,0.134785 l -0.17972,0 c -0.0949,7e-6 -0.14228,-0.04492 -0.14227,-0.134785 -1e-5,-0.259578 -0.0437,-0.544124 -0.13104,-0.853638 -0.0874,-0.309498 -0.20842,-0.606524 -0.36317,-0.891079 -0.15476,-0.284537 -0.32199,-0.516667 -0.5017,-0.696389 -0.49422,-0.499194 -1.14817,-0.748796 -1.96187,-0.748806 -0.34945,1e-5 -0.67143,0.08862 -0.96596,0.265826 -0.29453,0.177227 -0.52916,0.418093 -0.70388,0.722597 -0.17472,0.304524 -0.26208,0.624014 -0.26208,0.958472 0,0.439307 0.13603,0.837422 0.4081,1.194345 0.27206,0.356938 0.62774,0.592811 1.06705,0.707621 l 1.99182,0.486724 c 0.32947,0.07988 0.64022,0.2234 0.93226,0.430563 0.29203,0.207175 0.53539,0.448041 0.73009,0.722598 0.19468,0.274567 0.34694,0.580329 0.45677,0.917287 0.10982,0.336966 0.16473,0.685161 0.16474,1.044584 -1e-5,0.554119 -0.12731,1.077034 -0.38189,1.568748 -0.2546,0.491717 -0.61278,0.887335 -1.07454,1.186857 -0.46177,0.299522 -0.96721,0.449283 -1.51633,0.449284 -0.33946,-1e-6 -0.68641,-0.03744 -1.04084,-0.112321 -0.35444,-0.07488 -0.68142,-0.189698 -0.98094,-0.344451 -0.29952,-0.154753 -0.57159,-0.354434 -0.8162,-0.599044 l -0.64397,1.010887 c -0.03,0.02995 -0.0674,0.04493 -0.11232,0.04493 l -0.0899,0 c -0.0898,-10e-7 -0.13478,-0.03994 -0.13478,-0.119809 z"
           id="path3354"
           style="fill:#ffffff;stroke:none" />
        <path
           d="m 214.48394,30.137371 0,-0.53914 c 1.05331,0 1.57997,-0.162241 1.57998,-0.486724 l 0,-8.424064 c -1e-5,-0.324473 -0.52667,-0.486714 -1.57998,-0.486724 l 0,-0.53914 4.59017,0 0,0.53914 c -1.05332,10e-6 -1.57998,0.162251 -1.57998,0.486724 l 0,3.729052 4.52279,0 0,-3.729052 c -1e-5,-0.324473 -0.52667,-0.486714 -1.57998,-0.486724 l 0,-0.53914 4.58269,0 0,0.53914 c -1.04834,10e-6 -1.5725,0.162251 -1.57249,0.486724 l 0,8.424064 c -1e-5,0.324483 0.52415,0.486724 1.57249,0.486724 l 0,0.53914 -4.58269,0 0,-0.53914 c 1.05331,0 1.57997,-0.162241 1.57998,-0.486724 l 0,-4.155872 -4.52279,0 0,4.155872 c 0,0.324483 0.52666,0.486724 1.57998,0.486724 l 0,0.53914 z"
           id="path3356"
           style="fill:#ffffff;stroke:none" />
        <path
           d="m 231.48182,30.474334 c -0.97345,-10e-7 -1.8483,-0.258338 -2.62456,-0.775014 -0.77627,-0.516675 -1.38405,-1.20308 -1.82334,-2.059216 -0.4393,-0.856131 -0.65895,-1.755945 -0.65895,-2.699445 0,-0.698879 0.12604,-1.390276 0.37814,-2.074192 0.2521,-0.683901 0.60404,-1.290433 1.05582,-1.819598 0.45178,-0.529146 0.99466,-0.948477 1.62865,-1.257993 0.63399,-0.309496 1.3154,-0.464249 2.04424,-0.46426 0.72384,1.1e-5 1.40401,0.156012 2.0405,0.468004 0.63647,0.312012 1.18185,0.735087 1.63614,1.269225 0.45426,0.534157 0.80371,1.133201 1.04833,1.797134 0.24459,0.663948 0.3669,1.357841 0.36691,2.08168 -1e-5,0.9435 -0.21966,1.843314 -0.65895,2.699445 -0.43931,0.856136 -1.04834,1.542541 -1.82708,2.059216 -0.77877,0.516676 -1.64738,0.775013 -2.60585,0.775014 z m -2.54594,-1.991824 c 0.29952,0.469253 0.66893,0.842408 1.10823,1.119465 0.4393,0.277058 0.91853,0.415587 1.43771,0.415587 0.33446,0 0.66269,-0.06739 0.98468,-0.202177 0.32198,-0.134785 0.61401,-0.31949 0.8761,-0.554117 0.26208,-0.234624 0.48547,-0.49421 0.67019,-0.778758 0.60901,-0.918532 0.91353,-2.181517 0.91354,-3.788957 -1e-5,-1.472644 -0.30453,-2.638284 -0.91354,-3.496923 -0.29954,-0.429305 -0.67269,-0.773756 -1.11947,-1.033352 -0.44679,-0.259575 -0.91729,-0.389368 -1.4115,-0.389378 -0.49921,10e-6 -0.97345,0.129803 -1.42273,0.389378 -0.44929,0.259596 -0.82369,0.604047 -1.12321,1.033352 -0.23962,0.334476 -0.42557,0.690158 -0.55786,1.067049 -0.13229,0.376906 -0.22589,0.767533 -0.2808,1.171881 -0.0549,0.404361 -0.0824,0.823692 -0.0824,1.257993 0,0.464265 0.0262,0.917292 0.0786,1.359083 0.0524,0.441799 0.14975,0.874858 0.29203,1.299178 0.14227,0.424325 0.32573,0.801224 0.55037,1.130696 z"
           id="path3358"
           style="fill:#ffffff;stroke:none" />
        <path
           d="m 237.90658,30.137371 0,-0.53914 c 1.05332,0 1.57998,-0.162241 1.57998,-0.486724 l 0,-8.424064 c 0,-0.324473 -0.52666,-0.486714 -1.57998,-0.486724 l 0,-0.53914 4.97207,0 0,0.53914 c -1.30792,10e-6 -1.96188,0.162251 -1.96187,0.486724 l 0,8.424064 c -10e-6,0.219651 0.0624,0.355684 0.1872,0.408099 0.1248,0.05242 0.32198,0.07862 0.59155,0.07862 l 1.18312,0 c 0.76377,0 1.35283,-0.139776 1.76718,-0.419331 0.41433,-0.279553 0.70761,-0.660196 0.87985,-1.141929 0.17221,-0.481729 0.30325,-1.121957 0.39312,-1.920687 l 0.44179,0 -0.42681,4.021087 z"
           id="path3360"
           style="fill:#ffffff;stroke:none" />
        <path
           d="m 247.52873,30.137371 0,-0.53914 c 1.05332,0 1.57998,-0.162241 1.57998,-0.486724 l 0,-8.424064 c 0,-0.324473 -0.52666,-0.486714 -1.57998,-0.486724 l 0,-0.53914 5.65349,0 c 0.69888,10e-6 1.33786,0.151019 1.91694,0.453027 0.57907,0.302028 1.07328,0.705135 1.48264,1.209321 0.40933,0.504205 0.72508,1.075792 0.94724,1.714766 0.22213,0.638987 0.3332,1.292943 0.33321,1.961871 -1e-5,0.648969 -0.11233,1.279213 -0.33696,1.890734 -0.22465,0.611527 -0.54788,1.163147 -0.9697,1.654861 -0.42184,0.491717 -0.92104,0.879847 -1.49761,1.164393 -0.57659,0.284546 -1.20184,0.426819 -1.87576,0.426819 z m 2.95779,-1.025864 c -1e-5,0.219651 0.0624,0.355684 0.1872,0.408099 0.1248,0.05242 0.32198,0.07862 0.59156,0.07862 l 1.52007,0 c 0.52416,0 1.02211,-0.113568 1.49387,-0.340707 0.47174,-0.227136 0.86236,-0.542882 1.17188,-0.947239 0.32447,-0.429313 0.54163,-0.909796 0.65146,-1.441451 0.10982,-0.531648 0.16473,-1.154404 0.16474,-1.86827 -10e-6,-0.743808 -0.0549,-1.395269 -0.16474,-1.954383 -0.10983,-0.559101 -0.32699,-1.058304 -0.65146,-1.497612 -0.30452,-0.434298 -0.69141,-0.767516 -1.16065,-0.999656 -0.46926,-0.23212 -0.97096,-0.348184 -1.5051,-0.348194 l -1.52007,0 c -0.18471,10e-6 -0.32824,0.0075 -0.43057,0.02246 -0.10234,0.01499 -0.18596,0.05867 -0.25085,0.131041 -0.0649,0.07239 -0.0973,0.183467 -0.0973,0.333219 z"
           id="path3362"
           style="fill:#ffffff;stroke:none" />
        <path
           d="m 264.32445,30.137371 0,-0.53914 c 1.05332,0 1.57998,-0.162241 1.57998,-0.486724 l 0,-8.424064 c 0,-0.324473 -0.52666,-0.486714 -1.57998,-0.486724 l 0,-0.53914 4.97207,0 0,0.53914 c -1.30792,10e-6 -1.96188,0.162251 -1.96187,0.486724 l 0,8.424064 c -1e-5,0.219651 0.0624,0.355684 0.1872,0.408099 0.12479,0.05242 0.32198,0.07862 0.59155,0.07862 l 1.18312,0 c 0.76377,0 1.35283,-0.139776 1.76718,-0.419331 0.41433,-0.279553 0.70761,-0.660196 0.87985,-1.141929 0.17221,-0.481729 0.30325,-1.121957 0.39312,-1.920687 l 0.44179,0 -0.42682,4.021087 z"
           id="path3364"
           style="fill:#ffffff;stroke:none" />
        <path
           d="m 273.83428,30.137371 0,-0.53914 c 1.10323,0 1.65485,-0.162241 1.65486,-0.486724 l 0,-8.424064 c -1e-5,-0.324473 -0.55163,-0.486714 -1.65486,-0.486724 l 0,-0.53914 4.73994,0 0,0.53914 c -1.10325,10e-6 -1.65487,0.162251 -1.65486,0.486724 l 0,8.424064 c -10e-6,0.324483 0.55161,0.486724 1.65486,0.486724 l 0,0.53914 z"
           id="path3366"
           style="fill:#ffffff;stroke:none" />
        <path
           d="m 279.51772,30.137371 0,-0.53914 c 1.05332,0 1.57997,-0.302018 1.57998,-0.906055 l 0,-8.004733 c -10e-6,-0.324473 -0.52666,-0.486714 -1.57998,-0.486724 l 0,-0.53914 2.89788,0 c 0.12479,10e-6 0.20716,0.05742 0.2471,0.172225 l 3.33967,8.678659 3.33968,-8.678659 c 0.0399,-0.114806 0.12229,-0.172215 0.2471,-0.172225 l 2.89788,0 0,0.53914 c -1.05333,10e-6 -1.57999,0.162251 -1.57998,0.486724 l 0,8.424064 c -1e-5,0.324483 0.52665,0.486724 1.57998,0.486724 l 0,0.53914 -4.46288,0 0,-0.53914 c 1.05331,0 1.57997,-0.162241 1.57998,-0.486724 l 0,-8.925764 -3.77398,9.779403 c -0.0449,0.114817 -0.1298,0.172225 -0.25459,0.172225 -0.1298,0 -0.21716,-0.05741 -0.26209,-0.172225 l -3.72905,-9.659594 0,8.386624 c 0,0.604037 0.52666,0.906055 1.57998,0.906055 l 0,0.53914 z"
           id="path3368"
           style="fill:#ffffff;stroke:none" />
        <path
           d="m 293.42304,30.137371 0,-0.53914 c 1.10323,0 1.65485,-0.162241 1.65486,-0.486724 l 0,-8.424064 c -10e-6,-0.324473 -0.55163,-0.486714 -1.65486,-0.486724 l 0,-0.53914 4.73994,0 0,0.53914 c -1.10325,10e-6 -1.65487,0.162251 -1.65486,0.486724 l 0,8.424064 c -1e-5,0.324483 0.55161,0.486724 1.65486,0.486724 l 0,0.53914 z"
           id="path3370"
           style="fill:#ffffff;stroke:none" />
        <path
           d="m 301.15821,30.137371 0,-0.53914 c 0.51417,0 1.01338,-0.0287 1.49761,-0.08611 0.48422,-0.05741 0.72633,-0.190944 0.72634,-0.400611 l 0,-8.424064 c -10e-6,-0.21964 -0.0612,-0.355673 -0.18346,-0.4081 -0.12231,-0.05241 -0.32074,-0.07861 -0.5953,-0.07862 l -0.64397,0 c -0.84366,10e-6 -1.4427,0.184715 -1.79714,0.554116 -0.1847,0.184715 -0.31699,0.480493 -0.39686,0.887335 -0.0799,0.406859 -0.14727,0.917294 -0.20218,1.531308 l -0.4418,0 0.29204,-3.511899 9.36756,0 0.29203,3.511899 -0.44928,0 c -0.0599,-0.658942 -0.12606,-1.181857 -0.19844,-1.568748 -0.0724,-0.386874 -0.20343,-0.670172 -0.39312,-0.849895 -0.35943,-0.369401 -0.95848,-0.554106 -1.79713,-0.554116 l -0.64397,0 c -0.18472,10e-6 -0.32824,0.0075 -0.43057,0.02246 -0.10234,0.01499 -0.18596,0.05867 -0.25085,0.131041 -0.0649,0.07239 -0.0974,0.183467 -0.0973,0.333219 l 0,8.424064 c -10e-6,0.209667 0.2421,0.343204 0.72634,0.400611 0.48422,0.05741 0.98093,0.08611 1.49012,0.08611 l 0,0.53914 z"
           id="path3372"
           style="fill:#ffffff;stroke:none" />
        <path
           d="m 320.17037,30.309596 -3.61673,-9.622153 c -0.0899,-0.214648 -0.26208,-0.349433 -0.51667,-0.404356 -0.2546,-0.0549 -0.57908,-0.08236 -0.97345,-0.08237 l 0,-0.53914 4.21578,0 0,0.53914 c -0.84866,10e-6 -1.27298,0.132299 -1.27297,0.396867 0.005,0.01498 0.009,0.02871 0.0112,0.04118 0.002,0.01249 0.004,0.02871 0.004,0.04867 l 2.94281,7.82502 2.77807,-7.405689 c 0.02,-0.03993 0.0299,-0.102328 0.0299,-0.187202 -1e-5,-0.249592 -0.11483,-0.431801 -0.34445,-0.546628 -0.22964,-0.114807 -0.48673,-0.172215 -0.77127,-0.172225 l 0,-0.53914 3.30972,0 0,0.53914 c -0.3844,10e-6 -0.72261,0.07115 -1.01463,0.213409 -0.29205,0.142283 -0.50046,0.373165 -0.62525,0.692646 l -3.46697,9.202822 c -0.03,0.109825 -0.11233,0.164737 -0.24711,0.164738 l -0.19469,0 c -0.13479,-1e-6 -0.21716,-0.05491 -0.24711,-0.164738 z"
           id="path3374"
           style="fill:#ffffff;stroke:none" />
        <path
           d="m 326.76736,30.137371 0,-0.53914 c 0.91354,0 1.47514,-0.302018 1.68481,-0.906055 l 3.21987,-9.36756 c 0.0299,-0.109814 0.11231,-0.164726 0.2471,-0.164737 l 0.19469,0 c 0.13478,1.1e-5 0.21715,0.05492 0.24711,0.164737 l 3.36214,9.786891 c 0.0948,0.214659 0.2758,0.349444 0.54288,0.404355 0.26706,0.05491 0.60028,0.08237 0.99966,0.08237 l 0,0.53914 -4.27568,0 0,-0.53914 c 0.84863,0 1.27296,-0.13728 1.27297,-0.411843 l 0,-0.07488 -0.83118,-2.396178 -3.72156,0 -0.68891,1.976847 c -0.01,0.03495 -0.015,0.08736 -0.015,0.157249 0,0.254595 0.12105,0.443044 0.36317,0.565349 0.24211,0.122305 0.50294,0.183457 0.7825,0.183457 l 0,0.53914 z m 3.12252,-3.953694 3.36214,0 -1.68482,-4.89719 z"
           id="path3376"
           style="fill:#ffffff;stroke:none" />
        <path
           d="m 338.24654,30.137371 0,-0.53914 c 1.05332,0 1.57998,-0.162241 1.57998,-0.486724 l 0,-8.424064 c 0,-0.324473 -0.52666,-0.486714 -1.57998,-0.486724 l 0,-0.53914 4.97207,0 0,0.53914 c -1.30791,10e-6 -1.96187,0.162251 -1.96187,0.486724 l 0,8.424064 c 0,0.219651 0.0624,0.355684 0.1872,0.408099 0.1248,0.05242 0.32199,0.07862 0.59156,0.07862 l 1.18311,0 c 0.76378,0 1.35284,-0.139776 1.76719,-0.419331 0.41433,-0.279553 0.70761,-0.660196 0.87984,-1.141929 0.17222,-0.481729 0.30326,-1.121957 0.39312,-1.920687 l 0.4418,0 -0.42682,4.021087 z"
           id="path3378"
           style="fill:#ffffff;stroke:none" />
        <path
           d="m 349.41124,26.6704 0,-5.982957 c 0,-0.324473 -0.52666,-0.486714 -1.57998,-0.486724 l 0,-0.53914 4.59018,0 0,0.53914 c -1.05332,10e-6 -1.57998,0.162251 -1.57998,0.486724 l 0,5.923053 c 0,0.569095 0.0786,1.106987 0.23587,1.613676 0.15725,0.506694 0.42183,0.918536 0.79374,1.23553 0.3719,0.316995 0.85737,0.475492 1.45642,0.475492 0.58407,0 1.09825,-0.153505 1.54254,-0.460516 0.44429,-0.307009 0.78624,-0.715108 1.02587,-1.224297 0.23961,-0.509186 0.35942,-1.055814 0.35942,-1.639885 l 0,-5.503722 c 0,-0.604027 -0.52666,-0.906045 -1.57998,-0.906055 l 0,-0.53914 3.69162,0 0,0.53914 c -1.04834,10e-6 -1.5725,0.302028 -1.5725,0.906055 l 0,5.563626 c 0,0.474247 -0.0836,0.938506 -0.25085,1.392779 -0.16724,0.454277 -0.40935,0.864872 -0.72634,1.231786 -0.317,0.366915 -0.69015,0.655205 -1.11946,0.86487 -0.42932,0.209666 -0.88609,0.314498 -1.37032,0.314499 -0.67892,-10e-7 -1.32164,-0.16973 -1.92817,-0.509188 -0.60654,-0.339458 -1.08952,-0.801221 -1.44894,-1.385291 -0.35943,-0.584066 -0.53914,-1.22055 -0.53914,-1.909455 z"
           id="path3380"
           style="fill:#ffffff;stroke:none" />
        <path
           d="m 359.33292,30.137371 0,-0.53914 c 1.05332,0 1.57998,-0.162241 1.57998,-0.486724 l 0,-8.424064 c 0,-0.324473 -0.52666,-0.486714 -1.57998,-0.486724 l 0,-0.53914 8.67117,0 0.42682,3.511899 -0.44179,0 c -0.10984,-0.883583 -0.26334,-1.52506 -0.46052,-1.924431 -0.19719,-0.399354 -0.51294,-0.673916 -0.94724,-0.823686 -0.43431,-0.149752 -1.08577,-0.224632 -1.95438,-0.224642 l -1.5051,0 c -0.18471,10e-6 -0.32823,0.0075 -0.43056,0.02246 -0.10234,0.01499 -0.18596,0.05867 -0.25085,0.131041 -0.0649,0.07239 -0.0974,0.183467 -0.0974,0.333219 l 0,3.744028 1.1307,0 c 0.51917,6e-6 0.9073,-0.04367 1.16439,-0.131041 0.25709,-0.08735 0.4343,-0.254588 0.53165,-0.5017 0.0973,-0.247099 0.14601,-0.632733 0.14602,-1.156904 l 0.44928,0 0,4.118431 -0.44928,0 c -1e-5,-0.519168 -0.0487,-0.903555 -0.14602,-1.153161 -0.0974,-0.249597 -0.27456,-0.418078 -0.53165,-0.505444 -0.25709,-0.08736 -0.64522,-0.131035 -1.16439,-0.131041 l -1.1307,0 0,4.140896 c 0,0.219651 0.0624,0.355684 0.1872,0.408099 0.1248,0.05242 0.32199,0.07862 0.59156,0.07862 l 1.62491,0 c 0.70886,0 1.2817,-0.05616 1.71851,-0.168481 0.43679,-0.11232 0.77625,-0.299522 1.01837,-0.561605 0.24211,-0.26208 0.42931,-0.601538 0.56161,-1.018375 0.13228,-0.416833 0.25583,-0.994661 0.37066,-1.733486 l 0.44179,0 -0.64397,4.021087 z"
           id="path3382"
           style="fill:#ffffff;stroke:none" />
        <path
           d="m 376.99726,30.137371 0,-0.53914 c 0.51417,0 1.01338,-0.0287 1.49761,-0.08611 0.48422,-0.05741 0.72633,-0.190944 0.72634,-0.400611 l 0,-8.424064 c -10e-6,-0.21964 -0.0612,-0.355673 -0.18346,-0.4081 -0.12231,-0.05241 -0.32074,-0.07861 -0.5953,-0.07862 l -0.64397,0 c -0.84366,10e-6 -1.4427,0.184715 -1.79714,0.554116 -0.1847,0.184715 -0.31699,0.480493 -0.39686,0.887335 -0.0799,0.406859 -0.14727,0.917294 -0.20218,1.531308 l -0.4418,0 0.29204,-3.511899 9.36756,0 0.29203,3.511899 -0.44928,0 c -0.0599,-0.658942 -0.12606,-1.181857 -0.19843,-1.568748 -0.0724,-0.386874 -0.20344,-0.670172 -0.39313,-0.849895 -0.35943,-0.369401 -0.95848,-0.554106 -1.79713,-0.554116 l -0.64397,0 c -0.18472,10e-6 -0.32824,0.0075 -0.43057,0.02246 -0.10234,0.01499 -0.18596,0.05867 -0.25085,0.131041 -0.0649,0.07239 -0.0974,0.183467 -0.0973,0.333219 l 0,8.424064 c -1e-5,0.209667 0.2421,0.343204 0.72634,0.400611 0.48422,0.05741 0.98093,0.08611 1.49012,0.08611 l 0,0.53914 z"
           id="path3384"
           style="fill:#ffffff;stroke:none" />
        <path
           d="m 385.98292,30.137371 0,-0.53914 c 0.91354,0 1.47515,-0.302018 1.68481,-0.906055 l 3.21987,-9.36756 c 0.0299,-0.109814 0.11231,-0.164726 0.2471,-0.164737 l 0.19469,0 c 0.13478,1.1e-5 0.21715,0.05492 0.24711,0.164737 l 3.36214,9.786891 c 0.0948,0.214659 0.2758,0.349444 0.54288,0.404355 0.26707,0.05491 0.60028,0.08237 0.99966,0.08237 l 0,0.53914 -4.27568,0 0,-0.53914 c 0.84864,0 1.27296,-0.13728 1.27297,-0.411843 l 0,-0.07488 -0.83118,-2.396178 -3.72156,0 -0.6889,1.976847 c -0.01,0.03495 -0.015,0.08736 -0.015,0.157249 0,0.254595 0.12105,0.443044 0.36317,0.565349 0.24211,0.122305 0.50294,0.183457 0.7825,0.183457 l 0,0.53914 z m 3.12252,-3.953694 3.36214,0 -1.68481,-4.89719 z"
           id="path3386"
           style="fill:#ffffff;stroke:none" />
        <path
           d="m 397.51452,30.137371 0,-0.53914 c 1.05332,0 1.57998,-0.162241 1.57998,-0.486724 l 0,-8.424064 c 0,-0.324473 -0.52666,-0.486714 -1.57998,-0.486724 l 0,-0.53914 5.63851,0 c 0.51916,10e-6 1.04333,0.101099 1.57249,0.303266 0.52915,0.202187 0.9672,0.501709 1.31415,0.898567 0.34694,0.396876 0.52041,0.864879 0.52042,1.404011 -10e-6,0.624012 -0.25585,1.146927 -0.76752,1.568748 -0.51169,0.421833 -1.10949,0.697643 -1.79339,0.82743 0.44428,6e-6 0.90105,0.12231 1.37031,0.366915 0.46925,0.244615 0.85363,0.571593 1.15316,0.980935 0.29952,0.409351 0.44928,0.843658 0.44929,1.302922 -1e-5,0.559111 -0.166,1.053322 -0.49796,1.482636 -0.33198,0.429316 -0.76254,0.760038 -1.29169,0.992167 -0.52916,0.23213 -1.06081,0.348195 -1.59495,0.348195 z m 2.91285,-1.025864 c 0,0.219651 0.0624,0.355684 0.18721,0.408099 0.12479,0.05242 0.32198,0.07862 0.59155,0.07862 l 1.9469,0 c 0.39935,0 0.77001,-0.104832 1.11197,-0.314498 0.34195,-0.209665 0.61277,-0.490467 0.81246,-0.842407 0.19967,-0.351937 0.29951,-0.727587 0.29952,-1.126953 -1e-5,-0.389375 -0.0824,-0.770018 -0.2471,-1.141928 -0.16475,-0.371903 -0.40062,-0.677665 -0.70763,-0.917287 -0.30701,-0.239613 -0.6577,-0.359422 -1.05207,-0.359427 l -2.94281,0 z m 0,-4.620131 2.29884,0 c 0.3095,5e-6 0.60028,-0.05616 0.87236,-0.168482 0.27206,-0.112315 0.51667,-0.274556 0.73383,-0.486723 0.21714,-0.212155 0.38438,-0.451773 0.5017,-0.718854 0.1173,-0.267067 0.17596,-0.550364 0.17597,-0.849894 -10e-6,-0.26457 -0.0437,-0.519164 -0.13104,-0.763782 -0.0874,-0.244601 -0.21592,-0.466747 -0.38564,-0.666437 -0.16974,-0.199672 -0.36942,-0.355673 -0.59904,-0.468004 -0.22964,-0.112311 -0.47675,-0.168471 -0.74132,-0.168481 l -1.9469,0 c -0.18471,10e-6 -0.32823,0.0075 -0.43056,0.02246 -0.10234,0.01499 -0.18596,0.05867 -0.25085,0.131041 -0.0649,0.07239 -0.0974,0.183467 -0.0974,0.333219 z"
           id="path3388"
           style="fill:#ffffff;stroke:none" />
        <path
           d="m 408.33477,30.137371 0,-0.53914 c 1.05332,0 1.57998,-0.162241 1.57998,-0.486724 l 0,-8.424064 c 0,-0.324473 -0.52666,-0.486714 -1.57998,-0.486724 l 0,-0.53914 4.97207,0 0,0.53914 c -1.30792,10e-6 -1.96187,0.162251 -1.96187,0.486724 l 0,8.424064 c 0,0.219651 0.0624,0.355684 0.1872,0.408099 0.1248,0.05242 0.32198,0.07862 0.59156,0.07862 l 1.18311,0 c 0.76378,0 1.35284,-0.139776 1.76718,-0.419331 0.41433,-0.279553 0.70761,-0.660196 0.87985,-1.141929 0.17222,-0.481729 0.30326,-1.121957 0.39312,-1.920687 l 0.4418,0 -0.42682,4.021087 z"
           id="path3390"
           style="fill:#ffffff;stroke:none" />
        <path
           d="m 417.91949,30.137371 0,-0.53914 c 1.05331,0 1.57997,-0.162241 1.57998,-0.486724 l 0,-8.424064 c -10e-6,-0.324473 -0.52667,-0.486714 -1.57998,-0.486724 l 0,-0.53914 8.67117,0 0.42682,3.511899 -0.4418,0 c -0.10983,-0.883583 -0.26334,-1.52506 -0.46051,-1.924431 -0.1972,-0.399354 -0.51294,-0.673916 -0.94724,-0.823686 -0.43432,-0.149752 -1.08578,-0.224632 -1.95439,-0.224642 l -1.5051,0 c -0.18471,10e-6 -0.32823,0.0075 -0.43056,0.02246 -0.10234,0.01499 -0.18596,0.05867 -0.25085,0.131041 -0.0649,0.07239 -0.0974,0.183467 -0.0973,0.333219 l 0,3.744028 1.13069,0 c 0.51917,6e-6 0.9073,-0.04367 1.1644,-0.131041 0.25708,-0.08735 0.4343,-0.254588 0.53165,-0.5017 0.0973,-0.247099 0.14601,-0.632733 0.14601,-1.156904 l 0.44929,0 0,4.118431 -0.44929,0 c 0,-0.519168 -0.0487,-0.903555 -0.14601,-1.153161 -0.0974,-0.249597 -0.27457,-0.418078 -0.53165,-0.505444 -0.2571,-0.08736 -0.64523,-0.131035 -1.1644,-0.131041 l -1.13069,0 0,4.140896 c -1e-5,0.219651 0.0624,0.355684 0.1872,0.408099 0.12479,0.05242 0.32198,0.07862 0.59155,0.07862 l 1.62491,0 c 0.70886,0 1.2817,-0.05616 1.71851,-0.168481 0.4368,-0.11232 0.77625,-0.299522 1.01838,-0.561605 0.2421,-0.26208 0.4293,-0.601538 0.5616,-1.018375 0.13228,-0.416833 0.25583,-0.994661 0.37066,-1.733486 l 0.4418,0 -0.64398,4.021087 z"
           id="path3392"
           style="fill:#ffffff;stroke:none" />
      </g>
    </g>
  </g>
</svg>
