<?xml version="1.0" encoding="utf-8"?>
<!-- Generator: Adobe Illustrator 16.0.0, SVG Export Plug-In . SVG Version: 6.00 Build 0)  -->
<!DOCTYPE svg PUBLIC "-//W3C//DTD SVG 1.1//EN" "http://www.w3.org/Graphics/SVG/1.1/DTD/svg11.dtd">
<svg version="1.1"
	 id="svg3020" xmlns:dc="http://purl.org/dc/elements/1.1/" xmlns:cc="http://creativecommons.org/ns#" xmlns:rdf="http://www.w3.org/1999/02/22-rdf-syntax-ns#" xmlns:svg="http://www.w3.org/2000/svg" xmlns:inkscape="http://www.inkscape.org/namespaces/inkscape"
	 xmlns="http://www.w3.org/2000/svg" xmlns:xlink="http://www.w3.org/1999/xlink" x="0px" y="0px" width="320px" height="60px"
	 viewBox="0 0 320 60" enable-background="new 0 0 320 60" xml:space="preserve">
<g id="text3030" transform="scale(0.95814898,1.043679)">
</g>
<g id="g3009" transform="matrix(1.4688253,0,0,1.4688253,-277.70507,-0.75165246)">
	<g id="flowRoot3055" transform="matrix(0.68081616,0,0,0.68081616,189.0661,0.51173714)">
	</g>
	<g id="flowRoot3063" transform="matrix(0.68081616,0,0,0.68081616,189.0661,0.51173714)">
	</g>
	<g id="g3075" transform="matrix(0.88618865,0,0,0.88618865,39.520441,-0.33159557)">
		<g id="text3077">
			<path id="path47" inkscape:connector-curvature="0" d="M202.865,28.822v-3.221c0-0.072,0.04-0.108,0.121-0.108h0.168
				c0.027,0,0.052,0.011,0.074,0.034c0.023,0.022,0.034,0.047,0.034,0.074c0,0.903,0.279,1.603,0.836,2.102
				c0.562,0.494,1.296,0.741,2.203,0.741c0.319,0,0.613-0.092,0.883-0.277c0.269-0.184,0.478-0.424,0.626-0.72
				c0.153-0.302,0.229-0.611,0.229-0.93c0-0.278-0.056-0.548-0.168-0.809c-0.112-0.265-0.274-0.494-0.485-0.687
				c-0.211-0.193-0.449-0.321-0.714-0.384l-1.793-0.438c-0.593-0.157-1.078-0.478-1.455-0.964c-0.372-0.49-0.559-1.038-0.559-1.644
				c0-0.476,0.121-0.923,0.364-1.341c0.242-0.418,0.568-0.748,0.977-0.991c0.413-0.242,0.858-0.364,1.334-0.364
				c0.921,0,1.653,0.312,2.197,0.937l0.566-0.896c0.027-0.027,0.058-0.04,0.094-0.04h0.094c0.027,0,0.052,0.011,0.074,0.034
				c0.027,0.018,0.041,0.045,0.041,0.081v3.201c0,0.081-0.038,0.122-0.115,0.122h-0.162c-0.085,0-0.128-0.04-0.128-0.122
				c0-0.233-0.041-0.49-0.121-0.768c-0.077-0.278-0.184-0.546-0.324-0.802c-0.139-0.256-0.29-0.465-0.451-0.627
				c-0.445-0.449-1.033-0.674-1.765-0.674c-0.315,0-0.604,0.081-0.87,0.243c-0.265,0.157-0.476,0.373-0.633,0.647
				c-0.157,0.274-0.236,0.562-0.236,0.862c0,0.395,0.121,0.755,0.364,1.078c0.247,0.319,0.568,0.53,0.964,0.634l1.792,0.438
				c0.296,0.072,0.575,0.202,0.835,0.391c0.265,0.184,0.485,0.4,0.661,0.647c0.175,0.247,0.312,0.523,0.411,0.829
				c0.099,0.301,0.148,0.613,0.149,0.937c0,0.498-0.115,0.97-0.344,1.415c-0.229,0.44-0.552,0.795-0.97,1.064
				c-0.413,0.27-0.867,0.405-1.361,0.405c-0.305,0-0.617-0.035-0.937-0.101c-0.319-0.068-0.613-0.17-0.883-0.31
				c-0.269-0.14-0.514-0.32-0.734-0.539l-0.579,0.91c-0.027,0.027-0.061,0.041-0.101,0.041h-0.081
				C202.906,28.93,202.865,28.894,202.865,28.822z"/>
			<path id="path49" inkscape:connector-curvature="0" d="M210.203,28.627v-0.485c0.948,0,1.422-0.146,1.422-0.438v-7.58
				c0-0.292-0.474-0.438-1.422-0.438V19.2h4.912c0.503,0,1.006,0.103,1.509,0.31c0.503,0.207,0.916,0.508,1.24,0.903
				c0.328,0.395,0.492,0.856,0.492,1.381c0,0.512-0.164,0.961-0.492,1.348c-0.328,0.386-0.741,0.68-1.24,0.883
				c-0.499,0.198-1.002,0.297-1.509,0.297h-2.21v3.382c0,0.292,0.474,0.438,1.422,0.438v0.485H210.203z M212.865,23.91h1.873
				c0.508,0,0.919-0.072,1.233-0.216c0.315-0.148,0.544-0.375,0.688-0.68c0.148-0.31,0.222-0.716,0.222-1.22
				c0-0.75-0.166-1.289-0.499-1.617c-0.328-0.328-0.876-0.492-1.644-0.492h-1.172c-0.167,0-0.297,0.007-0.391,0.02
				c-0.09,0.014-0.164,0.054-0.222,0.121c-0.059,0.063-0.088,0.162-0.088,0.297V23.91z"/>
			<path id="path51" inkscape:connector-curvature="0" d="M219.549,28.627v-0.485c0.948,0,1.422-0.146,1.422-0.438v-7.58
				c0-0.292-0.474-0.438-1.422-0.438V19.2h4.474v0.485c-1.177,0-1.765,0.146-1.765,0.438v7.58c0,0.197,0.056,0.321,0.168,0.371
				c0.112,0.045,0.29,0.068,0.532,0.068h1.065c0.687,0,1.217-0.126,1.59-0.377c0.373-0.252,0.636-0.593,0.789-1.025
				c0.157-0.435,0.276-1.013,0.357-1.732h0.398l-0.384,3.619H219.549z"/>
		</g>
		<g id="text3079">
			<path id="path54" inkscape:connector-curvature="0" d="M229.374,31.474v-0.353c0.225,0,0.412-0.018,0.559-0.054
				s0.221-0.125,0.221-0.265v-3.308h-0.771v-0.353h0.771v-1.203c0-0.216,0.044-0.417,0.132-0.604
				c0.092-0.189,0.213-0.354,0.363-0.495c0.154-0.141,0.329-0.251,0.525-0.329c0.2-0.083,0.406-0.123,0.618-0.123
				c0.226,0,0.428,0.068,0.608,0.201c0.183,0.134,0.275,0.312,0.275,0.535c0,0.128-0.044,0.236-0.133,0.324
				c-0.085,0.085-0.191,0.128-0.319,0.128c-0.128,0-0.237-0.043-0.329-0.128c-0.089-0.089-0.132-0.197-0.133-0.324
				c0-0.209,0.09-0.35,0.27-0.422c-0.108-0.035-0.204-0.053-0.29-0.053c-0.196,0-0.365,0.07-0.505,0.211
				c-0.138,0.137-0.24,0.306-0.309,0.506c-0.069,0.2-0.103,0.398-0.103,0.593v1.183h1.158v0.353h-1.124v3.308
				c0,0.137,0.098,0.226,0.294,0.265c0.197,0.036,0.422,0.054,0.677,0.054v0.353H229.374z"/>
		</g>
		<g id="text3081">
			<path id="path57" inkscape:connector-curvature="0" d="M240.554,23.735v-0.896h8.301v0.896H240.554z M240.554,26.531v-0.896
				h8.301v0.896H240.554z M249.138,24.685L249.138,24.685z"/>
		</g>
		<g id="text3083">
			<path id="path60" inkscape:connector-curvature="0" d="M254.93,28.627v-0.485c1.15,0,1.725-0.146,1.725-0.438V20.46
				c-0.476,0.229-1.078,0.344-1.806,0.344v-0.485c1.128,0,1.979-0.294,2.554-0.883h0.195c0.031,0,0.061,0.013,0.088,0.04
				c0.031,0.022,0.047,0.049,0.047,0.081v8.147c0,0.292,0.575,0.438,1.725,0.438v0.485H254.93z"/>
			<path id="path62" inkscape:connector-curvature="0" d="M264,28.93c-1.128,0-1.896-0.463-2.305-1.388
				c-0.404-0.93-0.606-2.035-0.606-3.316c0-0.799,0.072-1.552,0.216-2.257c0.148-0.706,0.438-1.303,0.869-1.793
				c0.436-0.494,1.044-0.741,1.826-0.741c0.606,0,1.103,0.148,1.489,0.445c0.386,0.296,0.681,0.68,0.883,1.152
				c0.202,0.467,0.339,0.97,0.411,1.509c0.077,0.535,0.115,1.096,0.115,1.685c0,0.79-0.074,1.532-0.222,2.223
				c-0.144,0.687-0.429,1.274-0.856,1.759C265.392,28.689,264.786,28.93,264,28.93z M264,28.573c0.512,0,0.894-0.263,1.145-0.789
				c0.252-0.526,0.407-1.107,0.465-1.746c0.058-0.638,0.087-1.316,0.087-2.035c0-0.692-0.029-1.329-0.087-1.914
				c-0.059-0.584-0.213-1.112-0.465-1.583c-0.247-0.476-0.629-0.714-1.145-0.714c-0.521,0-0.907,0.238-1.159,0.714
				c-0.251,0.476-0.407,1.006-0.465,1.59c-0.059,0.58-0.088,1.215-0.088,1.907c0,0.512,0.011,0.995,0.034,1.449
				c0.027,0.454,0.095,0.924,0.202,1.408c0.108,0.481,0.281,0.888,0.519,1.22C263.286,28.409,263.605,28.573,264,28.573z"/>
		</g>
		<g id="text3085">
		</g>
		<g id="text3087">
			<path id="path66" inkscape:connector-curvature="0" d="M272.374,28.627v-0.485c0.315,0,0.573-0.025,0.775-0.074
				c0.202-0.049,0.303-0.171,0.303-0.364V20.46c0-0.247-0.038-0.425-0.115-0.532c-0.072-0.113-0.177-0.18-0.317-0.202
				c-0.139-0.027-0.355-0.04-0.647-0.04V19.2l2.049-0.148v8.652c0,0.193,0.101,0.314,0.303,0.364
				c0.202,0.05,0.458,0.074,0.768,0.074v0.485H272.374z"/>
			<path id="path68" inkscape:connector-curvature="0" d="M279.227,28.781c-0.553,0-1.065-0.14-1.536-0.418
				c-0.472-0.283-0.844-0.66-1.119-1.132c-0.274-0.471-0.411-0.986-0.411-1.543c0-0.423,0.074-0.829,0.222-1.22
				c0.153-0.391,0.368-0.739,0.647-1.044c0.283-0.31,0.611-0.551,0.984-0.721c0.373-0.176,0.777-0.263,1.213-0.263
				c0.566,0,1.08,0.15,1.543,0.451c0.467,0.297,0.836,0.697,1.105,1.2c0.27,0.499,0.404,1.031,0.404,1.597
				c0,0.552-0.137,1.067-0.411,1.543c-0.274,0.472-0.647,0.849-1.119,1.132C280.283,28.642,279.775,28.781,279.227,28.781z
				 M279.227,28.377c0.737,0,1.229-0.267,1.476-0.802c0.247-0.534,0.371-1.215,0.371-2.041c0-0.463-0.025-0.845-0.074-1.146
				c-0.05-0.305-0.157-0.582-0.323-0.829c-0.104-0.153-0.236-0.285-0.398-0.398c-0.157-0.117-0.326-0.204-0.505-0.263
				c-0.175-0.063-0.357-0.094-0.546-0.094c-0.288,0-0.562,0.065-0.822,0.195c-0.256,0.13-0.469,0.317-0.64,0.559
				c-0.171,0.26-0.281,0.548-0.33,0.862c-0.045,0.31-0.068,0.68-0.068,1.112c0,0.517,0.045,0.981,0.135,1.395
				c0.09,0.409,0.27,0.752,0.539,1.031C278.315,28.238,278.71,28.377,279.227,28.377z"/>
			<path id="path70" inkscape:connector-curvature="0" d="M283.061,29.704c0-0.327,0.119-0.615,0.357-0.862
				c0.238-0.242,0.521-0.416,0.849-0.519c-0.184-0.139-0.326-0.314-0.425-0.526c-0.094-0.21-0.141-0.435-0.141-0.674
				c0-0.431,0.137-0.813,0.411-1.145c-0.422-0.413-0.634-0.888-0.634-1.422c0-0.287,0.061-0.557,0.182-0.808
				c0.126-0.252,0.299-0.47,0.519-0.654c0.22-0.184,0.465-0.323,0.734-0.418c0.27-0.099,0.546-0.149,0.829-0.149
				c0.548,0,1.04,0.16,1.476,0.479c0.189-0.202,0.411-0.357,0.667-0.465c0.26-0.112,0.53-0.168,0.808-0.168
				c0.198,0,0.359,0.072,0.485,0.216c0.126,0.139,0.189,0.308,0.189,0.505c0,0.113-0.043,0.211-0.128,0.297
				c-0.085,0.085-0.184,0.128-0.296,0.128c-0.117,0-0.218-0.043-0.303-0.128c-0.086-0.086-0.128-0.184-0.128-0.297
				c0-0.171,0.056-0.29,0.169-0.357c-0.476,0-0.885,0.164-1.227,0.492c0.166,0.166,0.299,0.37,0.398,0.613
				c0.104,0.238,0.155,0.476,0.155,0.714c0,0.392-0.108,0.744-0.323,1.059c-0.216,0.31-0.501,0.552-0.856,0.728
				c-0.35,0.17-0.712,0.256-1.085,0.256c-0.503,0-0.964-0.137-1.382-0.411c-0.13,0.18-0.195,0.382-0.195,0.606
				c0,0.243,0.079,0.456,0.236,0.641c0.162,0.179,0.364,0.269,0.607,0.269h1.132c0.548,0,1.042,0.049,1.482,0.148
				c0.44,0.099,0.809,0.297,1.105,0.593c0.301,0.296,0.452,0.716,0.452,1.26c0,0.405-0.171,0.74-0.512,1.004
				c-0.341,0.27-0.75,0.464-1.227,0.58c-0.472,0.122-0.91,0.182-1.314,0.182c-0.409,0-0.852-0.061-1.328-0.182
				c-0.476-0.116-0.885-0.31-1.226-0.58C283.232,30.444,283.061,30.109,283.061,29.704z M283.836,29.704
				c0,0.311,0.126,0.569,0.377,0.776c0.252,0.211,0.555,0.366,0.91,0.464c0.355,0.104,0.689,0.155,1.004,0.155
				c0.31,0,0.642-0.052,0.997-0.155c0.355-0.098,0.656-0.254,0.903-0.464c0.252-0.207,0.377-0.465,0.377-0.776
				c0-0.48-0.22-0.792-0.66-0.936c-0.44-0.14-0.975-0.209-1.604-0.209h-1.132c-0.211,0-0.407,0.05-0.586,0.148
				c-0.175,0.104-0.317,0.245-0.425,0.425C283.89,29.316,283.836,29.507,283.836,29.704z M285.743,26.228
				c0.781,0,1.172-0.557,1.172-1.672c0-0.48-0.083-0.876-0.249-1.185c-0.166-0.314-0.474-0.472-0.923-0.472
				c-0.449,0-0.757,0.158-0.923,0.472c-0.166,0.31-0.249,0.705-0.249,1.185c0,0.306,0.031,0.582,0.095,0.83
				c0.063,0.246,0.179,0.449,0.35,0.606C285.186,26.149,285.429,26.228,285.743,26.228z"/>
		</g>
		<g id="text3091" transform="scale(0.91249328,1.0958985)">
			<path id="path73" inkscape:connector-curvature="0" d="M330.91,33.013c-0.22,0-0.329-0.126-0.329-0.378
				c0-0.088,0.033-0.164,0.099-0.23l8.288-9.423L330.68,11.06c-0.066-0.066-0.099-0.126-0.099-0.181V10.32
				c0-0.066,0.033-0.131,0.099-0.197c0.076-0.077,0.153-0.115,0.23-0.115h19.239l0.937,7.712h-0.97
				c-0.197-1.601-0.521-2.839-0.97-3.716c-0.439-0.888-1.026-1.535-1.759-1.94c-0.724-0.406-1.552-0.652-2.483-0.74
				c-0.921-0.088-2.276-0.132-4.062-0.132h-6.265l7.038,10.064c0.054,0.164,0.082,0.246,0.082,0.246c0,0.131-0.028,0.208-0.082,0.23
				l-8.551,9.735h7.679c1.787,0,3.146-0.044,4.078-0.131c0.942-0.088,1.787-0.329,2.532-0.724c0.745-0.406,1.343-1.058,1.792-1.957
				c0.46-0.91,0.783-2.154,0.97-3.733h0.97l-0.937,8.091H330.91z"/>
		</g>
		<g id="text3093">
			<path id="path76" inkscape:connector-curvature="0" d="M324.68,28.627v-0.485c1.15,0,1.725-0.146,1.725-0.438V20.46
				c-0.476,0.229-1.078,0.344-1.806,0.344v-0.485c1.128,0,1.978-0.294,2.554-0.883h0.196c0.032,0,0.06,0.013,0.087,0.04
				c0.032,0.022,0.047,0.049,0.047,0.081v8.147c0,0.292,0.575,0.438,1.725,0.438v0.485H324.68z"/>
			<path id="path78" inkscape:connector-curvature="0" d="M333.75,28.93c-1.128,0-1.896-0.463-2.305-1.388
				c-0.404-0.93-0.606-2.035-0.606-3.316c0-0.799,0.072-1.552,0.215-2.257c0.149-0.706,0.438-1.303,0.87-1.793
				c0.435-0.494,1.044-0.741,1.826-0.741c0.606,0,1.103,0.148,1.488,0.445c0.387,0.296,0.681,0.68,0.884,1.152
				c0.202,0.467,0.339,0.97,0.41,1.509c0.077,0.535,0.115,1.096,0.115,1.685c0,0.79-0.074,1.532-0.222,2.223
				c-0.144,0.687-0.429,1.274-0.856,1.759C335.142,28.689,334.536,28.93,333.75,28.93z M333.75,28.573
				c0.512,0,0.894-0.263,1.145-0.789c0.252-0.526,0.407-1.107,0.465-1.746c0.059-0.638,0.088-1.316,0.088-2.035
				c0-0.692-0.029-1.329-0.088-1.914c-0.059-0.584-0.213-1.112-0.465-1.583c-0.246-0.476-0.629-0.714-1.145-0.714
				c-0.521,0-0.908,0.238-1.159,0.714c-0.251,0.476-0.407,1.006-0.464,1.59c-0.059,0.58-0.089,1.215-0.089,1.907
				c0,0.512,0.012,0.995,0.035,1.449c0.027,0.454,0.094,0.924,0.202,1.408c0.107,0.481,0.281,0.888,0.518,1.22
				C333.036,28.409,333.355,28.573,333.75,28.573z"/>
		</g>
		<g id="text3095" transform="scale(0.74439245,1.3433774)">
			<path id="path81" inkscape:connector-curvature="0" d="M460.544,18.695c-0.501-0.395-0.933-0.851-1.298-1.365
				c-0.361-0.51-0.657-1.055-0.891-1.635c-0.228-0.58-0.399-1.186-0.514-1.82c-0.114-0.633-0.171-1.268-0.171-1.905
				c0-0.646,0.057-1.286,0.171-1.918c0.115-0.633,0.288-1.241,0.521-1.826c0.237-0.584,0.539-1.131,0.903-1.641
				c0.365-0.51,0.791-0.956,1.279-1.338c0-0.018,0.022-0.027,0.067-0.027h0.125c0.026,0,0.05,0.013,0.073,0.04
				c0.022,0.022,0.032,0.048,0.032,0.079c0,0.04-0.008,0.068-0.026,0.086c-0.439,0.431-0.806,0.892-1.101,1.384
				c-0.29,0.492-0.525,1.017-0.706,1.575c-0.175,0.554-0.303,1.13-0.383,1.727c-0.079,0.593-0.118,1.213-0.118,1.859
				c0,2.861,0.765,5.034,2.294,6.52c0.027,0.026,0.039,0.064,0.039,0.112c0,0.022-0.012,0.047-0.039,0.073
				c-0.021,0.031-0.043,0.046-0.066,0.046h-0.125C460.566,18.721,460.544,18.713,460.544,18.695z"/>
		</g>
		<g id="text3097">
			<path id="path84" inkscape:connector-curvature="0" d="M344.168,14.286v-2.152c0-0.048,0.027-0.072,0.081-0.072h0.113
				c0.018,0,0.035,0.008,0.05,0.023c0.015,0.015,0.022,0.031,0.022,0.049c0,0.603,0.186,1.071,0.558,1.404
				c0.375,0.33,0.866,0.495,1.472,0.495c0.213,0,0.41-0.062,0.59-0.185c0.18-0.123,0.32-0.284,0.419-0.482
				c0.102-0.201,0.153-0.408,0.153-0.621c0-0.186-0.038-0.366-0.113-0.54c-0.075-0.177-0.183-0.33-0.324-0.459
				c-0.141-0.129-0.3-0.215-0.477-0.257l-1.197-0.293c-0.396-0.105-0.72-0.32-0.972-0.644c-0.249-0.327-0.374-0.693-0.374-1.098
				c0-0.318,0.081-0.617,0.243-0.896c0.162-0.279,0.38-0.5,0.653-0.662c0.276-0.162,0.573-0.243,0.891-0.243
				c0.615,0,1.104,0.209,1.467,0.626l0.378-0.599c0.018-0.018,0.039-0.027,0.063-0.027h0.063c0.018,0,0.035,0.008,0.05,0.022
				c0.018,0.012,0.027,0.03,0.027,0.054V9.87c0,0.054-0.026,0.081-0.077,0.081h-0.108c-0.057,0-0.086-0.027-0.086-0.081
				c0-0.156-0.027-0.327-0.081-0.513c-0.051-0.186-0.123-0.365-0.216-0.536c-0.093-0.171-0.194-0.311-0.302-0.419
				c-0.297-0.3-0.69-0.45-1.179-0.45c-0.21,0-0.404,0.054-0.581,0.162c-0.177,0.105-0.318,0.249-0.423,0.432
				c-0.105,0.183-0.158,0.375-0.158,0.576c0,0.264,0.081,0.504,0.243,0.72c0.165,0.213,0.38,0.354,0.644,0.423l1.197,0.293
				c0.198,0.048,0.384,0.135,0.558,0.261c0.177,0.123,0.324,0.267,0.441,0.432c0.117,0.165,0.209,0.35,0.275,0.554
				c0.066,0.201,0.099,0.41,0.099,0.626c0,0.333-0.077,0.648-0.23,0.945c-0.153,0.294-0.369,0.531-0.648,0.711
				c-0.276,0.18-0.579,0.27-0.909,0.27c-0.204,0-0.413-0.023-0.626-0.068c-0.213-0.045-0.41-0.114-0.59-0.207
				c-0.18-0.093-0.344-0.213-0.491-0.36l-0.387,0.608c-0.018,0.018-0.04,0.027-0.068,0.027h-0.054
				C344.195,14.358,344.168,14.334,344.168,14.286z"/>
			<path id="path86" inkscape:connector-curvature="0" d="M349.07,14.155v-0.324c0.633,0,0.95-0.098,0.95-0.293V8.474
				c0-0.195-0.317-0.293-0.95-0.293V7.857h3.282c0.336,0,0.672,0.069,1.008,0.207c0.336,0.138,0.612,0.339,0.828,0.603
				c0.219,0.264,0.329,0.572,0.329,0.923c0,0.342-0.11,0.642-0.329,0.9c-0.219,0.258-0.495,0.455-0.828,0.59
				c-0.333,0.132-0.669,0.198-1.008,0.198h-1.476v2.26c0,0.195,0.317,0.293,0.95,0.293v0.324H349.07z M350.848,11.004h1.251
				c0.339,0,0.614-0.048,0.824-0.144c0.21-0.099,0.363-0.251,0.459-0.455c0.099-0.207,0.149-0.479,0.149-0.815
				c0-0.501-0.111-0.861-0.333-1.08c-0.219-0.219-0.585-0.329-1.098-0.329h-0.783c-0.111,0-0.198,0.004-0.261,0.013
				c-0.06,0.009-0.11,0.036-0.149,0.081c-0.039,0.042-0.059,0.108-0.059,0.198V11.004z"/>
			<path id="path88" inkscape:connector-curvature="0" d="M355.314,14.155v-0.324c0.633,0,0.95-0.098,0.95-0.293V8.474
				c0-0.195-0.317-0.293-0.95-0.293V7.857h2.989v0.324c-0.786,0-1.179,0.098-1.179,0.293v5.064c0,0.132,0.038,0.215,0.113,0.248
				c0.075,0.03,0.194,0.045,0.356,0.045h0.711c0.459,0,0.813-0.084,1.062-0.252s0.425-0.396,0.527-0.684
				c0.105-0.291,0.185-0.677,0.239-1.157h0.266l-0.257,2.417H355.314z"/>
		</g>
		<g id="text3099">
			<path id="path91" inkscape:connector-curvature="0" d="M362.246,16.078v-0.243c0.158,0,0.287-0.012,0.389-0.037
				c0.101-0.025,0.152-0.086,0.152-0.182v-1.887c0-0.178-0.035-0.287-0.105-0.327c-0.068-0.04-0.203-0.061-0.405-0.061v-0.243
				l0.996-0.074v2.593c0,0.097,0.043,0.158,0.132,0.182c0.087,0.025,0.204,0.037,0.351,0.037v0.243H362.246z M362.54,11.834
				c0-0.101,0.038-0.19,0.114-0.267c0.077-0.077,0.165-0.115,0.264-0.115c0.065,0,0.128,0.017,0.189,0.051
				c0.06,0.034,0.108,0.081,0.141,0.142c0.035,0.061,0.051,0.124,0.051,0.189c0,0.099-0.038,0.187-0.115,0.263
				c-0.077,0.077-0.166,0.115-0.266,0.115c-0.099,0-0.188-0.038-0.264-0.115C362.577,12.021,362.54,11.933,362.54,11.834
				L362.54,11.834z"/>
		</g>
		<g id="text3101">
			<path id="path94" inkscape:connector-curvature="0" d="M349.156,25.096v-0.324c0.768,0,1.152-0.098,1.152-0.293V19.64
				c-0.318,0.153-0.72,0.23-1.206,0.23v-0.324c0.753,0,1.322-0.197,1.706-0.59h0.131c0.021,0,0.04,0.009,0.059,0.027
				c0.021,0.015,0.032,0.033,0.032,0.054v5.443c0,0.195,0.384,0.293,1.152,0.293v0.324H349.156z"/>
			<path id="path96" inkscape:connector-curvature="0" d="M355.215,25.299c-0.753,0-1.266-0.309-1.54-0.928
				c-0.27-0.621-0.405-1.359-0.405-2.215c0-0.534,0.048-1.037,0.144-1.508c0.099-0.471,0.293-0.87,0.581-1.197
				c0.291-0.33,0.698-0.495,1.22-0.495c0.405,0,0.737,0.099,0.995,0.297c0.258,0.198,0.455,0.455,0.59,0.77
				c0.135,0.312,0.227,0.648,0.275,1.008c0.051,0.357,0.077,0.732,0.077,1.125c0,0.528-0.05,1.023-0.149,1.485
				c-0.096,0.459-0.287,0.851-0.572,1.175C356.145,25.138,355.74,25.299,355.215,25.299z M355.215,25.06
				c0.342,0,0.597-0.176,0.765-0.527c0.168-0.351,0.272-0.74,0.311-1.166c0.039-0.426,0.059-0.879,0.059-1.359
				c0-0.462-0.02-0.888-0.059-1.278c-0.039-0.39-0.143-0.743-0.311-1.058c-0.165-0.318-0.42-0.477-0.765-0.477
				c-0.348,0-0.606,0.159-0.774,0.477c-0.168,0.318-0.272,0.672-0.311,1.062c-0.039,0.387-0.059,0.812-0.059,1.274
				c0,0.342,0.008,0.665,0.022,0.968c0.018,0.303,0.063,0.617,0.135,0.941c0.072,0.321,0.188,0.593,0.347,0.815
				C354.737,24.951,354.95,25.06,355.215,25.06z"/>
		</g>
		<g id="text3103" transform="scale(0.7517145,1.3302923)">
			<path id="path99" inkscape:connector-curvature="0" d="M485.258,18.905c-0.079,0-0.118-0.039-0.118-0.117
				c0-0.039,0.008-0.068,0.026-0.085c1.523-1.488,2.285-3.649,2.285-6.482c0-2.833-0.754-4.985-2.259-6.456
				c-0.035-0.022-0.052-0.059-0.052-0.111c0-0.03,0.01-0.057,0.032-0.078c0.026-0.026,0.055-0.039,0.086-0.039h0.124
				c0.026,0,0.048,0.009,0.065,0.026c0.64,0.505,1.173,1.119,1.6,1.841c0.426,0.722,0.737,1.493,0.933,2.311
				c0.201,0.818,0.3,1.654,0.3,2.507c0,0.631-0.055,1.253-0.164,1.867c-0.104,0.609-0.273,1.21-0.509,1.802
				c-0.231,0.596-0.525,1.145-0.881,1.645c-0.356,0.505-0.783,0.953-1.279,1.345c-0.017,0.017-0.039,0.026-0.065,0.026H485.258z"/>
		</g>
		<g id="text3105">
			<path id="path102" inkscape:connector-curvature="0" d="M308.559,9.298V8.945c0.69,0,1.035-0.198,1.035-0.594V2.845
				c-0.219-0.039-0.564-0.059-1.035-0.059V2.433h1.924c0.032,0,0.056,0.013,0.068,0.039l3.558,5.236V3.38
				c0-0.396-0.345-0.594-1.036-0.594V2.433h2.39v0.353c-0.687,0-1.031,0.198-1.031,0.594v5.83c0,0.02-0.013,0.039-0.039,0.059
				c-0.026,0.02-0.047,0.03-0.064,0.03h-0.122c-0.033,0-0.056-0.013-0.069-0.039l-4.22-6.212v5.305c0,0.396,0.345,0.594,1.035,0.594
				v0.353H308.559z"/>
		</g>
		<g id="text3107">
			<path id="path105" inkscape:connector-curvature="0" d="M303.909,44.554v-0.353c0.229,0,0.417-0.018,0.565-0.054
				c0.147-0.036,0.221-0.125,0.221-0.265v-2.744c0-0.258-0.051-0.417-0.152-0.476c-0.098-0.059-0.295-0.089-0.589-0.089v-0.353
				l1.448-0.108v3.768c0,0.14,0.063,0.229,0.191,0.265s0.299,0.054,0.511,0.054v0.353H303.909z M304.336,38.385
				c0-0.147,0.056-0.277,0.167-0.388c0.112-0.111,0.239-0.167,0.383-0.167c0.095,0,0.187,0.024,0.275,0.074
				c0.089,0.05,0.157,0.118,0.206,0.206c0.049,0.088,0.074,0.179,0.074,0.275c0,0.144-0.056,0.272-0.167,0.383
				c-0.112,0.112-0.241,0.167-0.388,0.167c-0.144,0-0.272-0.056-0.383-0.167C304.391,38.657,304.336,38.529,304.336,38.385z"/>
		</g>
		<g id="text3109" transform="scale(0.85846828,1.1648654)">
			<path id="path108" inkscape:connector-curvature="0" d="M359.579,37.102c-0.048,0-0.087-0.018-0.119-0.055
				c-0.03-0.037-0.045-0.076-0.045-0.118c0-0.048,0.016-0.089,0.045-0.122c0.031-0.033,0.071-0.05,0.119-0.05h5.417
				c0.043,0,0.079,0.017,0.11,0.05c0.031,0.033,0.046,0.075,0.046,0.122c0,0.042-0.016,0.081-0.046,0.118
				c-0.031,0.037-0.067,0.055-0.11,0.055H359.579z M359.579,35.425c-0.048,0-0.087-0.017-0.119-0.05
				c-0.03-0.033-0.045-0.075-0.045-0.122c0-0.042,0.016-0.081,0.045-0.118c0.031-0.037,0.071-0.055,0.119-0.055h5.417
				c0.043,0,0.079,0.018,0.11,0.055c0.031,0.037,0.046,0.076,0.046,0.118c0,0.048-0.016,0.089-0.046,0.122
				c-0.031,0.033-0.067,0.05-0.11,0.05H359.579z"/>
		</g>
		<g id="text3111">
			<path id="path111" inkscape:connector-curvature="0" d="M315.782,44.554v-0.353c0.837,0,1.257-0.107,1.257-0.319v-5.275
				c-0.347,0.167-0.785,0.25-1.316,0.25v-0.353c0.822,0,1.441-0.215,1.861-0.643h0.142c0.023,0,0.044,0.01,0.064,0.029
				c0.023,0.017,0.035,0.036,0.035,0.059v5.933c0,0.212,0.419,0.319,1.256,0.319v0.353H315.782z"/>
		</g>
		<g id="text3113" transform="scale(0.4914479,2.0348037)">
		</g>
		<g id="text3115">
		</g>
	</g>
	<path id="path3142" inkscape:connector-curvature="0" fill="none" stroke="#000000" stroke-width="0.4816" d="M343.913,15.147
		h18.403"/>
	<g id="text3144" transform="scale(0.77420518,1.2916473)">
		<path id="path116" inkscape:connector-curvature="0" d="M393.307,30.242c-1.051-0.83-1.959-1.784-2.724-2.863
			c-0.756-1.069-1.378-2.212-1.867-3.429c-0.479-1.217-0.838-2.489-1.079-3.816c-0.24-1.328-0.359-2.66-0.359-3.997
			c0-1.355,0.119-2.696,0.359-4.024c0.24-1.328,0.605-2.604,1.092-3.83c0.498-1.226,1.13-2.374,1.894-3.443
			c0.766-1.069,1.659-2.005,2.683-2.807c0-0.037,0.046-0.055,0.139-0.055h0.262c0.056,0,0.106,0.028,0.152,0.083
			c0.046,0.046,0.07,0.101,0.07,0.166c0,0.083-0.018,0.143-0.056,0.18c-0.921,0.903-1.692,1.871-2.308,2.904
			c-0.609,1.033-1.103,2.134-1.48,3.305c-0.368,1.161-0.635,2.369-0.802,3.623c-0.166,1.245-0.249,2.544-0.249,3.9
			c0,6.002,1.604,10.561,4.813,13.676c0.055,0.055,0.083,0.133,0.083,0.235c0,0.046-0.028,0.097-0.083,0.152
			c-0.046,0.064-0.092,0.097-0.138,0.097h-0.263C393.354,30.297,393.307,30.279,393.307,30.242z"/>
	</g>
	<g id="text3148" transform="scale(0.77420503,1.2916475)">
		<path id="path119" inkscape:connector-curvature="0" d="M473.418,30.261c-0.165,0-0.249-0.083-0.249-0.249
			c0-0.083,0.019-0.143,0.056-0.18c3.226-3.153,4.84-7.73,4.84-13.732c0-6.002-1.595-10.56-4.784-13.676
			c-0.074-0.046-0.112-0.124-0.112-0.235c0-0.065,0.024-0.12,0.07-0.166c0.056-0.055,0.116-0.083,0.18-0.083h0.263
			c0.056,0,0.101,0.018,0.139,0.055c1.355,1.069,2.484,2.369,3.387,3.9c0.903,1.53,1.563,3.162,1.978,4.895
			c0.424,1.733,0.636,3.503,0.636,5.31c0,1.337-0.115,2.655-0.345,3.955c-0.222,1.291-0.581,2.563-1.079,3.817
			c-0.49,1.263-1.111,2.425-1.867,3.485c-0.757,1.07-1.66,2.019-2.71,2.849c-0.038,0.037-0.083,0.055-0.139,0.055H473.418z"/>
	</g>
</g>
</svg>
