<?xml version="1.0" encoding="utf-8"?>
<!-- Generator: Adobe Illustrator 16.0.0, SVG Export Plug-In . SVG Version: 6.00 Build 0)  -->
<!DOCTYPE svg PUBLIC "-//W3C//DTD SVG 1.1//EN" "http://www.w3.org/Graphics/SVG/1.1/DTD/svg11.dtd">
<svg version="1.1"
	 id="svg3020" xmlns:svg="http://www.w3.org/2000/svg" xmlns:inkscape="http://www.inkscape.org/namespaces/inkscape" xmlns:rdf="http://www.w3.org/1999/02/22-rdf-syntax-ns#" xmlns:dc="http://purl.org/dc/elements/1.1/" xmlns:cc="http://creativecommons.org/ns#"
	 xmlns="http://www.w3.org/2000/svg" xmlns:xlink="http://www.w3.org/1999/xlink" x="0px" y="0px" width="320px" height="60px"
	 viewBox="-1 0 320 60" enable-background="new -1 0 320 60" xml:space="preserve">
<g id="text3030" transform="scale(0.95814898,1.043679)">
</g>
<g>
	<path fill="#FFFFFF" d="M52.646,35.262v-0.738c1.449,0,2.174-0.223,2.174-0.667V22.321c0-0.444-0.725-0.667-2.174-0.667v-0.738
		h6.289v0.738c-1.445,0-2.167,0.222-2.167,0.667v5.106h6.204v-5.106c0-0.444-0.723-0.667-2.167-0.667v-0.738h6.269v0.738
		c-1.436,0-2.153,0.222-2.153,0.667v11.536c0,0.444,0.718,0.667,2.153,0.667v0.738h-6.269v-0.738c1.444,0,2.167-0.223,2.167-0.667
		v-5.691h-6.204v5.691c0,0.444,0.722,0.667,2.167,0.667v0.738H52.646z"/>
	<path fill="#FFFFFF" d="M68.396,35.262v-0.738c1.449,0,2.174-0.223,2.174-0.667V22.321c0-0.444-0.725-0.667-2.174-0.667v-0.738
		H80.27l0.584,4.809H80.25c-0.15-1.21-0.361-2.088-0.63-2.635c-0.271-0.547-0.703-0.923-1.297-1.128s-1.487-0.308-2.676-0.308
		h-2.061c-0.253,0-0.45,0.01-0.589,0.031c-0.141,0.021-0.255,0.081-0.344,0.18s-0.133,0.251-0.133,0.456v5.127h1.552
		c0.712,0,1.246-0.06,1.599-0.18c0.353-0.119,0.596-0.349,0.73-0.687c0.133-0.339,0.2-0.867,0.2-1.584h0.605v5.64h-0.605
		c0-0.711-0.067-1.237-0.2-1.579c-0.134-0.342-0.377-0.572-0.73-0.692c-0.353-0.12-0.886-0.18-1.599-0.18h-1.552v5.67
		c0,0.301,0.085,0.487,0.256,0.56c0.171,0.07,0.441,0.107,0.81,0.107h2.225c0.971,0,1.755-0.078,2.354-0.23
		c0.598-0.154,1.063-0.41,1.395-0.77c0.331-0.359,0.587-0.824,0.769-1.395s0.351-1.362,0.508-2.374h0.605l-0.882,5.507H68.396z"/>
	<path fill="#FFFFFF" d="M82.7,35.262v-0.738c1.252,0,2.021-0.414,2.309-1.241l4.413-12.828c0.041-0.15,0.154-0.226,0.338-0.226
		h0.267c0.185,0,0.297,0.075,0.338,0.226l4.607,13.402c0.13,0.294,0.378,0.479,0.744,0.554c0.366,0.075,0.823,0.113,1.37,0.113
		v0.738h-5.859v-0.738c1.163,0,1.745-0.188,1.745-0.563v-0.103l-1.139-3.272h-5.1l-0.944,2.699
		c-0.014,0.048-0.021,0.119-0.021,0.215c0,0.348,0.166,0.605,0.498,0.772c0.332,0.167,0.689,0.251,1.072,0.251v0.738H82.7z
		 M86.979,29.847h4.607l-2.309-6.706L86.979,29.847z"/>
	<path fill="#FFFFFF" d="M101.332,35.262v-0.738c0.707,0,1.392-0.039,2.058-0.119c0.665-0.078,0.998-0.261,0.998-0.548V22.321
		c0-0.301-0.084-0.487-0.251-0.559c-0.168-0.072-0.44-0.108-0.817-0.108h-0.883c-1.157,0-1.979,0.253-2.465,0.759
		c-0.253,0.253-0.435,0.658-0.544,1.215s-0.202,1.256-0.277,2.097h-0.606l0.4-4.809h12.828l0.4,4.809h-0.615
		c-0.082-0.902-0.173-1.618-0.272-2.148c-0.099-0.529-0.278-0.917-0.538-1.164c-0.492-0.506-1.313-0.759-2.461-0.759h-0.882
		c-0.253,0-0.45,0.01-0.59,0.031s-0.254,0.081-0.343,0.18s-0.133,0.251-0.133,0.456v11.536c0,0.287,0.332,0.47,0.995,0.548
		c0.663,0.08,1.343,0.119,2.041,0.119v0.738H101.332z"/>
	<path fill="#FFFFFF" d="M121.122,35.559v-4.901c0-0.109,0.062-0.164,0.185-0.164h0.256c0.041,0,0.079,0.017,0.113,0.052
		c0.034,0.033,0.051,0.071,0.051,0.112c0,1.374,0.426,2.438,1.276,3.194c0.852,0.756,1.967,1.133,3.348,1.133
		c0.485,0,0.933-0.141,1.343-0.42c0.41-0.281,0.729-0.648,0.959-1.104c0.229-0.453,0.343-0.924,0.343-1.409
		c0-0.424-0.085-0.835-0.256-1.235c-0.171-0.4-0.417-0.747-0.738-1.041s-0.684-0.489-1.087-0.584l-2.728-0.667
		c-0.902-0.239-1.639-0.729-2.21-1.471s-0.856-1.574-0.856-2.497c0-0.725,0.185-1.405,0.554-2.041s0.867-1.138,1.492-1.507
		c0.626-0.369,1.301-0.554,2.025-0.554c1.401,0,2.516,0.475,3.343,1.425l0.861-1.364c0.041-0.041,0.089-0.062,0.144-0.062h0.144
		c0.041,0,0.08,0.016,0.118,0.046c0.037,0.031,0.056,0.074,0.056,0.128V25.5c0,0.123-0.058,0.185-0.174,0.185h-0.246
		c-0.13,0-0.195-0.062-0.195-0.185c0-0.355-0.06-0.745-0.179-1.169c-0.12-0.424-0.286-0.831-0.498-1.22s-0.441-0.708-0.687-0.954
		c-0.677-0.684-1.572-1.025-2.687-1.025c-0.479,0-0.919,0.122-1.323,0.364s-0.725,0.572-0.964,0.989s-0.359,0.854-0.359,1.313
		c0,0.602,0.186,1.147,0.559,1.636s0.86,0.812,1.461,0.969l2.728,0.667c0.451,0.109,0.876,0.306,1.277,0.589
		c0.399,0.284,0.733,0.614,1,0.99s0.475,0.794,0.625,1.256c0.15,0.461,0.226,0.938,0.226,1.43c0,0.759-0.174,1.475-0.523,2.148
		s-0.839,1.215-1.471,1.625c-0.633,0.41-1.325,0.615-2.077,0.615c-0.465,0-0.94-0.051-1.425-0.154
		c-0.485-0.102-0.933-0.26-1.343-0.471c-0.41-0.213-0.783-0.486-1.118-0.82l-0.882,1.384c-0.041,0.041-0.092,0.062-0.154,0.062
		h-0.123C121.183,35.723,121.122,35.668,121.122,35.559z"/>
	<path fill="#FFFFFF" d="M135.149,35.262v-0.738c0.707,0,1.392-0.039,2.058-0.119c0.665-0.078,0.998-0.261,0.998-0.548V22.321
		c0-0.301-0.084-0.487-0.251-0.559c-0.168-0.072-0.44-0.108-0.817-0.108h-0.883c-1.157,0-1.979,0.253-2.465,0.759
		c-0.253,0.253-0.435,0.658-0.544,1.215s-0.202,1.256-0.277,2.097h-0.606l0.4-4.809h12.828l0.4,4.809h-0.615
		c-0.082-0.902-0.173-1.618-0.272-2.148c-0.099-0.529-0.278-0.917-0.538-1.164c-0.492-0.506-1.313-0.759-2.461-0.759h-0.882
		c-0.253,0-0.45,0.01-0.59,0.031s-0.254,0.081-0.343,0.18s-0.133,0.251-0.133,0.456v11.536c0,0.287,0.332,0.47,0.995,0.548
		c0.663,0.08,1.343,0.119,2.041,0.119v0.738H135.149z"/>
	<path fill="#FFFFFF" d="M147.464,35.262v-0.738c1.442,0,2.164-0.223,2.164-0.667V22.321c0-0.444-0.721-0.667-2.164-0.667v-0.738
		h6.593c0.786,0,1.611,0.142,2.476,0.425c0.865,0.284,1.588,0.716,2.169,1.297s0.872,1.275,0.872,2.082
		c0,0.588-0.176,1.112-0.528,1.574c-0.353,0.461-0.804,0.848-1.354,1.158c-0.551,0.312-1.113,0.535-1.687,0.672
		c0.629,0.219,1.179,0.567,1.651,1.046s0.755,1.025,0.851,1.64l0.297,1.867c0.137,0.84,0.28,1.468,0.431,1.881
		c0.15,0.414,0.482,0.621,0.995,0.621c0.438,0,0.764-0.203,0.979-0.611c0.216-0.406,0.323-0.849,0.323-1.327
		c0-0.048,0.022-0.091,0.066-0.128s0.091-0.057,0.139-0.057h0.194c0.137,0,0.205,0.092,0.205,0.277c0,0.383-0.074,0.757-0.225,1.123
		c-0.15,0.365-0.368,0.668-0.651,0.906c-0.284,0.24-0.62,0.359-1.01,0.359c-1.012,0-1.881-0.252-2.61-0.754
		c-0.728-0.502-1.092-1.238-1.092-2.209v-1.867c0-0.697-0.243-1.295-0.728-1.794s-1.08-0.749-1.784-0.749h-2.522v5.506
		c0,0.444,0.721,0.667,2.164,0.667v0.738H147.464z M151.514,27.807h2.246c1.162,0,2.047-0.234,2.656-0.703
		c0.608-0.468,0.913-1.263,0.913-2.384c0-1.114-0.301-1.904-0.902-2.369s-1.49-0.697-2.666-0.697h-1.179
		c-0.253,0-0.45,0.01-0.589,0.031c-0.141,0.021-0.255,0.081-0.344,0.18s-0.133,0.251-0.133,0.456V27.807z"/>
	<path fill="#FFFFFF" d="M162.865,35.262v-0.738c1.449,0,2.174-0.223,2.174-0.667V22.321c0-0.444-0.725-0.667-2.174-0.667v-0.738
		h11.874l0.585,4.809h-0.605c-0.15-1.21-0.361-2.088-0.631-2.635s-0.702-0.923-1.297-1.128s-1.486-0.308-2.676-0.308h-2.062
		c-0.253,0-0.45,0.01-0.589,0.031c-0.141,0.021-0.256,0.081-0.344,0.18c-0.09,0.099-0.134,0.251-0.134,0.456v5.127h1.552
		c0.713,0,1.246-0.06,1.6-0.18c0.352-0.119,0.596-0.349,0.729-0.687c0.134-0.339,0.2-0.867,0.2-1.584h0.605v5.64h-0.605
		c0-0.711-0.066-1.237-0.2-1.579s-0.378-0.572-0.729-0.692c-0.354-0.12-0.887-0.18-1.6-0.18h-1.552v5.67
		c0,0.301,0.085,0.487,0.257,0.56c0.17,0.07,0.44,0.107,0.81,0.107h2.226c0.971,0,1.754-0.078,2.354-0.23
		c0.598-0.154,1.063-0.41,1.395-0.77c0.33-0.359,0.587-0.824,0.768-1.395c0.182-0.57,0.352-1.362,0.508-2.374h0.605l-0.882,5.507
		H162.865z"/>
	<path fill="#FFFFFF" d="M177.682,35.559v-4.901c0-0.109,0.063-0.164,0.186-0.164h0.256c0.041,0,0.078,0.017,0.113,0.052
		c0.033,0.033,0.051,0.071,0.051,0.112c0,1.374,0.426,2.438,1.276,3.194c0.852,0.756,1.968,1.133,3.349,1.133
		c0.484,0,0.933-0.141,1.343-0.42c0.41-0.281,0.729-0.648,0.959-1.104c0.229-0.453,0.343-0.924,0.343-1.409
		c0-0.424-0.085-0.835-0.256-1.235c-0.171-0.4-0.417-0.747-0.738-1.041s-0.684-0.489-1.087-0.584l-2.728-0.667
		c-0.902-0.239-1.639-0.729-2.21-1.471s-0.856-1.574-0.856-2.497c0-0.725,0.186-1.405,0.555-2.041s0.866-1.138,1.491-1.507
		c0.626-0.369,1.301-0.554,2.025-0.554c1.401,0,2.516,0.475,3.343,1.425l0.861-1.364c0.041-0.041,0.089-0.062,0.144-0.062h0.144
		c0.041,0,0.08,0.016,0.118,0.046c0.037,0.031,0.056,0.074,0.056,0.128V25.5c0,0.123-0.058,0.185-0.174,0.185h-0.246
		c-0.13,0-0.195-0.062-0.195-0.185c0-0.355-0.06-0.745-0.179-1.169c-0.12-0.424-0.286-0.831-0.497-1.22
		c-0.213-0.39-0.441-0.708-0.688-0.954c-0.677-0.684-1.572-1.025-2.687-1.025c-0.479,0-0.919,0.122-1.323,0.364
		c-0.402,0.243-0.725,0.572-0.963,0.989c-0.24,0.417-0.359,0.854-0.359,1.313c0,0.602,0.186,1.147,0.559,1.636
		s0.859,0.812,1.461,0.969l2.729,0.667c0.451,0.109,0.876,0.306,1.276,0.589c0.399,0.284,0.733,0.614,0.999,0.99
		c0.268,0.376,0.476,0.794,0.626,1.256c0.15,0.461,0.226,0.938,0.226,1.43c0,0.759-0.174,1.475-0.523,2.148
		c-0.348,0.674-0.839,1.215-1.471,1.625c-0.633,0.41-1.324,0.615-2.076,0.615c-0.465,0-0.94-0.051-1.426-0.154
		c-0.485-0.102-0.934-0.26-1.344-0.471c-0.41-0.213-0.782-0.486-1.117-0.82l-0.882,1.384c-0.041,0.041-0.093,0.062-0.153,0.062
		h-0.123C177.744,35.723,177.682,35.668,177.682,35.559z"/>
	<path fill="#FFFFFF" d="M189.341,35.559v-4.901c0-0.109,0.062-0.164,0.185-0.164h0.256c0.041,0,0.079,0.017,0.113,0.052
		c0.034,0.033,0.051,0.071,0.051,0.112c0,1.374,0.426,2.438,1.277,3.194s1.967,1.133,3.348,1.133c0.485,0,0.933-0.141,1.343-0.42
		c0.41-0.281,0.73-0.648,0.959-1.104c0.229-0.453,0.344-0.924,0.344-1.409c0-0.424-0.086-0.835-0.256-1.235
		c-0.172-0.4-0.418-0.747-0.738-1.041c-0.322-0.294-0.684-0.489-1.088-0.584l-2.728-0.667c-0.902-0.239-1.639-0.729-2.209-1.471
		c-0.571-0.742-0.856-1.574-0.856-2.497c0-0.725,0.185-1.405,0.554-2.041s0.867-1.138,1.492-1.507s1.301-0.554,2.025-0.554
		c1.401,0,2.515,0.475,3.343,1.425l0.861-1.364c0.041-0.041,0.088-0.062,0.143-0.062h0.145c0.041,0,0.08,0.016,0.117,0.046
		c0.037,0.031,0.057,0.074,0.057,0.128V25.5c0,0.123-0.059,0.185-0.174,0.185h-0.246c-0.131,0-0.195-0.062-0.195-0.185
		c0-0.355-0.061-0.745-0.18-1.169s-0.285-0.831-0.498-1.22c-0.211-0.39-0.439-0.708-0.686-0.954
		c-0.678-0.684-1.572-1.025-2.687-1.025c-0.479,0-0.92,0.122-1.323,0.364s-0.725,0.572-0.964,0.989s-0.359,0.854-0.359,1.313
		c0,0.602,0.187,1.147,0.559,1.636c0.373,0.489,0.86,0.812,1.462,0.969l2.727,0.667c0.451,0.109,0.877,0.306,1.277,0.589
		c0.4,0.284,0.732,0.614,1,0.99c0.266,0.376,0.475,0.794,0.625,1.256c0.15,0.461,0.227,0.938,0.227,1.43
		c0,0.759-0.176,1.475-0.523,2.148c-0.35,0.674-0.84,1.215-1.471,1.625c-0.633,0.41-1.326,0.615-2.077,0.615
		c-0.465,0-0.939-0.051-1.426-0.154c-0.484-0.102-0.933-0.26-1.343-0.471c-0.41-0.213-0.782-0.486-1.118-0.82l-0.881,1.384
		c-0.041,0.041-0.093,0.062-0.154,0.062h-0.123C189.402,35.723,189.341,35.668,189.341,35.559z"/>
	<path fill="#FFFFFF" d="M210.361,35.262v-0.738c0.706,0,1.393-0.039,2.058-0.119c0.665-0.078,0.998-0.261,0.998-0.548V22.321
		c0-0.301-0.084-0.487-0.252-0.559c-0.168-0.072-0.439-0.108-0.816-0.108h-0.883c-1.158,0-1.979,0.253-2.466,0.759
		c-0.253,0.253-0.435,0.658-0.545,1.215c-0.109,0.557-0.201,1.256-0.276,2.097h-0.606l0.399-4.809H220.8l0.4,4.809h-0.615
		c-0.082-0.902-0.173-1.618-0.272-2.148c-0.099-0.529-0.278-0.917-0.538-1.164c-0.492-0.506-1.313-0.759-2.461-0.759h-0.882
		c-0.253,0-0.449,0.01-0.59,0.031c-0.14,0.021-0.255,0.081-0.343,0.18c-0.09,0.099-0.134,0.251-0.134,0.456v11.536
		c0,0.287,0.331,0.47,0.995,0.548c0.662,0.08,1.343,0.119,2.04,0.119v0.738H210.361z"/>
	<path fill="#FFFFFF" d="M222.646,35.262v-0.738c1.252,0,2.021-0.414,2.31-1.241l4.412-12.828c0.041-0.15,0.153-0.226,0.339-0.226
		h0.267c0.185,0,0.298,0.075,0.339,0.226l4.607,13.402c0.129,0.294,0.377,0.479,0.743,0.554s0.823,0.113,1.37,0.113v0.738h-5.859
		v-0.738c1.163,0,1.745-0.188,1.745-0.563v-0.103l-1.14-3.272h-5.1l-0.944,2.699c-0.014,0.048-0.021,0.119-0.021,0.215
		c0,0.348,0.166,0.605,0.498,0.772c0.331,0.167,0.689,0.251,1.072,0.251v0.738H222.646z M226.925,29.847h4.607l-2.309-6.706
		L226.925,29.847z"/>
	<path fill="#FFFFFF" d="M238.447,35.262v-0.738c1.442,0,2.163-0.223,2.163-0.667V22.321c0-0.444-0.721-0.667-2.163-0.667v-0.738
		h7.722c0.71,0,1.428,0.139,2.152,0.416s1.325,0.688,1.8,1.231c0.476,0.543,0.713,1.185,0.713,1.924
		c0,0.855-0.351,1.571-1.051,2.149c-0.701,0.578-1.52,0.956-2.456,1.134c0.608,0,1.233,0.167,1.877,0.502
		c0.642,0.335,1.168,0.782,1.578,1.343c0.41,0.56,0.615,1.155,0.615,1.784c0,0.765-0.227,1.441-0.682,2.028
		c-0.454,0.588-1.044,1.04-1.769,1.358c-0.725,0.317-1.453,0.477-2.185,0.477H238.447z M242.437,27.53h3.147
		c0.424,0,0.822-0.077,1.194-0.23c0.373-0.154,0.708-0.376,1.005-0.667c0.298-0.29,0.526-0.618,0.688-0.984
		c0.16-0.365,0.241-0.753,0.241-1.164c0-0.362-0.061-0.711-0.18-1.046c-0.12-0.335-0.296-0.639-0.528-0.913s-0.506-0.487-0.82-0.641
		c-0.314-0.154-0.653-0.231-1.015-0.231h-2.666c-0.254,0-0.45,0.01-0.59,0.031c-0.141,0.021-0.255,0.081-0.344,0.18
		s-0.133,0.251-0.133,0.456V27.53z M242.437,33.857c0,0.301,0.085,0.486,0.256,0.559c0.171,0.071,0.441,0.107,0.811,0.107h2.666
		c0.546,0,1.054-0.144,1.522-0.43c0.468-0.287,0.839-0.672,1.112-1.152c0.273-0.481,0.41-0.995,0.41-1.541
		c0-0.532-0.113-1.053-0.338-1.561c-0.227-0.509-0.549-0.927-0.97-1.254c-0.42-0.327-0.9-0.491-1.44-0.491h-4.029V33.857z"/>
	<path fill="#FFFFFF" d="M253.244,35.262v-0.738c1.448,0,2.174-0.223,2.174-0.667V22.321c0-0.444-0.726-0.667-2.174-0.667v-0.738
		h6.809v0.738c-1.792,0-2.688,0.222-2.688,0.667v11.536c0,0.301,0.086,0.487,0.257,0.56c0.171,0.07,0.44,0.107,0.81,0.107h1.621
		c1.045,0,1.852-0.191,2.42-0.574c0.566-0.383,0.969-0.904,1.204-1.564c0.236-0.659,0.415-1.536,0.538-2.63h0.605l-0.584,5.507
		H253.244z"/>
	<path fill="#FFFFFF" d="M266.369,35.262v-0.738c1.448,0,2.174-0.223,2.174-0.667V22.321c0-0.444-0.726-0.667-2.174-0.667v-0.738
		h11.873l0.585,4.809h-0.604c-0.151-1.21-0.361-2.088-0.631-2.635c-0.271-0.547-0.703-0.923-1.297-1.128
		c-0.596-0.205-1.487-0.308-2.677-0.308h-2.062c-0.253,0-0.449,0.01-0.589,0.031c-0.141,0.021-0.255,0.081-0.344,0.18
		s-0.134,0.251-0.134,0.456v5.127h1.553c0.713,0,1.245-0.06,1.599-0.18c0.353-0.119,0.596-0.349,0.729-0.687
		c0.134-0.339,0.201-0.867,0.201-1.584h0.604v5.64h-0.604c0-0.711-0.067-1.237-0.201-1.579s-0.377-0.572-0.729-0.692
		c-0.354-0.12-0.886-0.18-1.599-0.18h-1.553v5.67c0,0.301,0.086,0.487,0.257,0.56c0.171,0.07,0.44,0.107,0.81,0.107h2.226
		c0.971,0,1.755-0.078,2.354-0.23c0.598-0.154,1.063-0.41,1.395-0.77c0.331-0.359,0.588-0.824,0.769-1.395
		c0.182-0.57,0.351-1.362,0.508-2.374h0.605l-0.883,5.507H266.369z"/>
</g>
</svg>
