<?xml version="1.0" encoding="utf-8"?>
<!-- Generator: Adobe Illustrator 16.0.0, SVG Export Plug-In . SVG Version: 6.00 Build 0)  -->
<!DOCTYPE svg PUBLIC "-//W3C//DTD SVG 1.1//EN" "http://www.w3.org/Graphics/SVG/1.1/DTD/svg11.dtd">
<svg version="1.1"
	 id="svg3020" xmlns:dc="http://purl.org/dc/elements/1.1/" xmlns:cc="http://creativecommons.org/ns#" xmlns:rdf="http://www.w3.org/1999/02/22-rdf-syntax-ns#" xmlns:svg="http://www.w3.org/2000/svg" xmlns:inkscape="http://www.inkscape.org/namespaces/inkscape"
	 xmlns="http://www.w3.org/2000/svg" xmlns:xlink="http://www.w3.org/1999/xlink" x="0px" y="0px" width="575px" height="60px"
	 viewBox="0 0 320 60" enable-background="new 0 0 320 60" xml:space="preserve">
<g id="text3030" transform="scale(0.95814898,1.043679)">
</g>
<g id="g3009" transform="matrix(1.4688253,0,0,1.4688253,-277.70507,-0.75165246)">
	<g id="flowRoot3055" transform="matrix(0.68081616,0,0,0.68081616,189.0661,0.51173714)">
	</g>
	<g id="flowRoot3063" transform="matrix(0.68081616,0,0,0.68081616,189.0661,0.51173714)">
	</g>
	<g id="g3455" transform="matrix(1.693344,0,0,1.693344,-192.06746,6.9360959)">
		<g id="text3457">
			<path id="path41" inkscape:connector-curvature="0" d="M252.381,13.045V12.56c0.463,0,0.912-0.025,1.348-0.074
				c0.436-0.054,0.654-0.175,0.654-0.364V4.542c0-0.198-0.056-0.319-0.168-0.364c-0.108-0.049-0.285-0.074-0.532-0.074h-0.58
				c-0.759,0-1.298,0.166-1.617,0.499c-0.166,0.166-0.285,0.433-0.357,0.802c-0.072,0.364-0.133,0.822-0.182,1.375h-0.398
				l0.263-3.16h8.43l0.263,3.16H259.1c-0.054-0.593-0.114-1.062-0.182-1.408c-0.063-0.35-0.18-0.606-0.35-0.768
				c-0.323-0.333-0.862-0.499-1.617-0.499h-0.58c-0.166,0-0.296,0.007-0.391,0.02c-0.09,0.013-0.164,0.054-0.222,0.121
				c-0.058,0.063-0.088,0.162-0.088,0.296v7.581c0,0.188,0.218,0.31,0.654,0.364c0.436,0.049,0.883,0.074,1.341,0.074v0.485H252.381
				z"/>
			<path id="path43" inkscape:connector-curvature="0" d="M260.481,13.045V12.56c0.948,0,1.422-0.146,1.422-0.438V4.542
				c0-0.292-0.474-0.438-1.422-0.438V3.619h4.912c0.503,0,1.006,0.103,1.509,0.31c0.503,0.207,0.916,0.508,1.24,0.903
				c0.328,0.395,0.492,0.856,0.492,1.381c0,0.512-0.164,0.961-0.492,1.348c-0.328,0.386-0.741,0.68-1.24,0.883
				c-0.499,0.197-1.002,0.296-1.509,0.296h-2.21v3.383c0,0.292,0.474,0.438,1.422,0.438v0.485H260.481z M263.142,8.329h1.873
				c0.508,0,0.919-0.072,1.233-0.216c0.314-0.148,0.544-0.375,0.688-0.68c0.148-0.31,0.222-0.717,0.222-1.22
				c0-0.75-0.166-1.289-0.499-1.617c-0.328-0.328-0.876-0.492-1.644-0.492h-1.172c-0.166,0-0.296,0.007-0.391,0.02
				c-0.09,0.013-0.164,0.054-0.222,0.121c-0.059,0.063-0.088,0.162-0.088,0.296L263.142,8.329z"/>
		</g>
		<g id="text3459">
			<path id="path46" inkscape:connector-curvature="0" d="M280.542,7.776h-7.992V6.698h7.992V7.776z M280.542,10.606h-7.992V9.528
				h7.992V10.606z"/>
		</g>
		<g id="text3461">
			<path id="path49" inkscape:connector-curvature="0" d="M289.858,13.201l-3.255-8.659c-0.081-0.193-0.236-0.314-0.465-0.364
				c-0.229-0.049-0.521-0.074-0.876-0.074V3.619h3.794v0.485c-0.764,0-1.146,0.119-1.146,0.357c0.005,0.014,0.007,0.027,0.007,0.04
				c0.005,0.009,0.007,0.022,0.007,0.04l2.648,7.041l2.5-6.664c0.018-0.036,0.027-0.092,0.027-0.168c0-0.225-0.104-0.389-0.31-0.492
				c-0.207-0.103-0.438-0.155-0.694-0.155V3.619h2.979v0.485c-0.346,0-0.651,0.065-0.916,0.195c-0.261,0.126-0.447,0.332-0.559,0.62
				l-3.12,8.282c-0.027,0.099-0.101,0.148-0.222,0.148h-0.176C289.96,13.349,289.885,13.299,289.858,13.201z"/>
			<path id="path51" inkscape:connector-curvature="0" d="M295.808,13.045V12.56c0.948,0,1.421-0.146,1.421-0.438V4.542
				c0-0.292-0.474-0.438-1.421-0.438V3.619h4.912c0.503,0,1.007,0.103,1.51,0.31c0.503,0.207,0.916,0.508,1.24,0.903
				c0.328,0.395,0.492,0.856,0.492,1.381c0,0.512-0.164,0.961-0.492,1.348c-0.327,0.386-0.741,0.68-1.24,0.883
				c-0.499,0.197-1.002,0.296-1.51,0.296h-2.21v3.383c0,0.292,0.474,0.438,1.421,0.438v0.485H295.808z M298.47,8.329h1.874
				c0.507,0,0.918-0.072,1.233-0.216c0.315-0.148,0.543-0.375,0.687-0.68c0.148-0.31,0.223-0.717,0.223-1.22
				c0-0.75-0.166-1.289-0.499-1.617c-0.328-0.328-0.876-0.492-1.644-0.492h-1.172c-0.166,0-0.297,0.007-0.391,0.02
				c-0.09,0.013-0.164,0.054-0.222,0.121c-0.059,0.063-0.088,0.162-0.088,0.296V8.329z"/>
		</g>
		<g id="text3463">
			<path id="path54" inkscape:connector-curvature="0" d="M315.428,9.191h-3.672v3.673h-1.119V9.191h-3.672V8.113h3.672V4.441h1.119
				v3.672h3.672V9.191z"/>
		</g>
		<g id="text3465">
			<path id="path57" inkscape:connector-curvature="0" d="M319.675,13.241V10.02c0-0.072,0.04-0.108,0.121-0.108h0.168
				c0.027,0,0.052,0.011,0.074,0.034c0.022,0.023,0.033,0.047,0.033,0.074c0,0.903,0.279,1.604,0.836,2.103
				c0.562,0.494,1.296,0.741,2.203,0.741c0.319,0,0.613-0.092,0.883-0.276c0.269-0.185,0.479-0.425,0.627-0.721
				c0.153-0.301,0.229-0.611,0.229-0.93c0-0.278-0.056-0.548-0.168-0.808c-0.112-0.265-0.274-0.494-0.485-0.687
				c-0.211-0.193-0.449-0.321-0.715-0.384l-1.792-0.438c-0.593-0.157-1.078-0.479-1.456-0.964c-0.373-0.49-0.559-1.038-0.559-1.644
				c0-0.476,0.121-0.923,0.364-1.341c0.243-0.418,0.569-0.748,0.977-0.991c0.413-0.242,0.858-0.364,1.334-0.364
				c0.921,0,1.653,0.312,2.197,0.937l0.566-0.896c0.027-0.027,0.058-0.04,0.094-0.04h0.094c0.027,0,0.052,0.011,0.074,0.034
				c0.027,0.018,0.041,0.045,0.041,0.081v3.201c0,0.081-0.039,0.121-0.115,0.121h-0.162c-0.086,0-0.128-0.04-0.128-0.121
				c0-0.234-0.04-0.49-0.121-0.768c-0.077-0.278-0.184-0.546-0.324-0.802s-0.29-0.465-0.451-0.627
				c-0.445-0.449-1.033-0.674-1.766-0.674c-0.314,0-0.604,0.081-0.869,0.243c-0.265,0.157-0.476,0.373-0.633,0.647
				c-0.157,0.274-0.236,0.561-0.236,0.862c0,0.395,0.121,0.755,0.364,1.078c0.247,0.319,0.568,0.53,0.964,0.634l1.792,0.438
				c0.296,0.072,0.575,0.202,0.836,0.391c0.265,0.184,0.485,0.4,0.66,0.647s0.312,0.523,0.411,0.829
				c0.099,0.301,0.148,0.613,0.148,0.937c0,0.499-0.115,0.97-0.344,1.415c-0.229,0.44-0.552,0.795-0.97,1.064
				c-0.413,0.27-0.867,0.404-1.361,0.404c-0.305,0-0.618-0.034-0.937-0.101c-0.319-0.068-0.613-0.171-0.883-0.31
				c-0.269-0.139-0.514-0.319-0.734-0.539l-0.58,0.91c-0.027,0.027-0.06,0.04-0.101,0.04h-0.081
				C319.715,13.349,319.675,13.313,319.675,13.241z"/>
			<path id="path59" inkscape:connector-curvature="0" d="M327.013,13.045V12.56c0.948,0,1.421-0.146,1.421-0.438V4.542
				c0-0.292-0.474-0.438-1.421-0.438V3.619h4.912c0.503,0,1.006,0.103,1.509,0.31c0.503,0.207,0.916,0.508,1.24,0.903
				c0.328,0.395,0.492,0.856,0.492,1.381c0,0.512-0.164,0.961-0.492,1.348c-0.328,0.386-0.741,0.68-1.24,0.883
				c-0.499,0.197-1.002,0.296-1.509,0.296h-2.21v3.383c0,0.292,0.474,0.438,1.421,0.438v0.485H327.013z M329.674,8.329h1.873
				c0.508,0,0.919-0.072,1.233-0.216c0.314-0.148,0.543-0.375,0.687-0.68c0.148-0.31,0.222-0.717,0.222-1.22
				c0-0.75-0.166-1.289-0.498-1.617c-0.328-0.328-0.876-0.492-1.644-0.492h-1.172c-0.166,0-0.296,0.007-0.391,0.02
				c-0.09,0.013-0.164,0.054-0.222,0.121c-0.059,0.063-0.088,0.162-0.088,0.296V8.329z"/>
		</g>
		<g id="text3467">
		</g>
	</g>
</g>
</svg>
