<?xml version="1.0" encoding="utf-8"?>
<!-- Generator: Adobe Illustrator 16.0.0, SVG Export Plug-In . SVG Version: 6.00 Build 0)  -->
<!DOCTYPE svg PUBLIC "-//W3C//DTD SVG 1.1//EN" "http://www.w3.org/Graphics/SVG/1.1/DTD/svg11.dtd">
<svg version="1.1"
	 id="svg3020" xmlns:dc="http://purl.org/dc/elements/1.1/" xmlns:cc="http://creativecommons.org/ns#" xmlns:rdf="http://www.w3.org/1999/02/22-rdf-syntax-ns#" xmlns:svg="http://www.w3.org/2000/svg" xmlns:inkscape="http://www.inkscape.org/namespaces/inkscape"
	 xmlns="http://www.w3.org/2000/svg" xmlns:xlink="http://www.w3.org/1999/xlink" x="0px" y="0px" width="320px" height="60px"
	 viewBox="0 0 320 60" enable-background="new 0 0 320 60" xml:space="preserve">
<g id="text3030" transform="scale(0.95814898,1.043679)">
</g>
<g id="g3009" transform="matrix(1.4688253,0,0,1.4688253,-277.70507,-0.75165246)">
	<g id="flowRoot3055" transform="matrix(0.68081616,0,0,0.68081616,189.0661,0.51173714)">
	</g>
	<g id="flowRoot3063" transform="matrix(0.68081616,0,0,0.68081616,189.0661,0.51173714)">
	</g>
	<path id="path3142-1" inkscape:connector-curvature="0" fill="#FFFFFF" stroke="#FFFFFF" stroke-width="0.9213" d="M253.542,21.108
		h125.813"/>
	<g id="g3569" transform="matrix(0.68081616,0,0,0.68081616,66.230655,78.160046)">
	</g>
	<g id="g3981" transform="matrix(0.88838865,0,0,0.88838865,37.515787,4.6835519)">
		<g id="text3983">
			<path id="path67" inkscape:connector-curvature="0" fill="#FFFFFF" d="M197.023,22.615c-0.876,0-1.664-0.231-2.365-0.694
				c-0.696-0.467-1.242-1.085-1.637-1.853c-0.395-0.772-0.593-1.584-0.593-2.433c0-0.629,0.112-1.251,0.337-1.866
				c0.229-0.616,0.546-1.161,0.95-1.637c0.409-0.476,0.898-0.854,1.469-1.132c0.57-0.278,1.184-0.418,1.84-0.418
				c0.651,0,1.262,0.142,1.833,0.425c0.575,0.278,1.067,0.658,1.475,1.139c0.409,0.481,0.723,1.02,0.943,1.617
				c0.22,0.598,0.33,1.222,0.33,1.873c0,0.849-0.198,1.66-0.593,2.433c-0.395,0.768-0.943,1.386-1.644,1.853
				C198.667,22.384,197.886,22.615,197.023,22.615z M194.732,20.823c0.269,0.422,0.602,0.76,0.997,1.012
				c0.396,0.247,0.827,0.37,1.294,0.37c0.301,0,0.595-0.061,0.883-0.183c0.292-0.12,0.555-0.287,0.788-0.498
				c0.238-0.211,0.44-0.445,0.607-0.701c0.548-0.825,0.822-1.963,0.822-3.409c0-1.325-0.274-2.374-0.822-3.147
				c-0.269-0.386-0.606-0.696-1.011-0.93c-0.4-0.233-0.822-0.35-1.267-0.35c-0.449,0-0.876,0.117-1.28,0.35
				c-0.404,0.233-0.741,0.544-1.011,0.93c-0.216,0.301-0.384,0.622-0.505,0.964c-0.117,0.337-0.2,0.687-0.25,1.051
				c-0.049,0.364-0.074,0.741-0.074,1.132c0,0.418,0.022,0.827,0.067,1.226c0.049,0.395,0.137,0.784,0.263,1.165
				C194.364,20.187,194.53,20.526,194.732,20.823z"/>
			<path id="path69" inkscape:connector-curvature="0" fill="#FFFFFF" d="M202.804,22.312v-0.485c0.948,0,1.422-0.147,1.422-0.439
				v-7.58c0-0.292-0.474-0.438-1.422-0.438v-0.485h7.803l0.384,3.16h-0.397c-0.099-0.795-0.238-1.372-0.418-1.732
				c-0.175-0.359-0.458-0.606-0.849-0.741c-0.391-0.135-0.977-0.202-1.759-0.202h-1.354c-0.166,0-0.296,0.007-0.391,0.02
				c-0.09,0.013-0.164,0.054-0.222,0.121c-0.058,0.063-0.088,0.162-0.088,0.297v3.369h1.017c0.467,0,0.815-0.038,1.044-0.115
				c0.234-0.081,0.393-0.231,0.479-0.451c0.09-0.225,0.135-0.573,0.135-1.044h0.405v3.706h-0.405c0-0.468-0.045-0.813-0.135-1.038
				c-0.085-0.225-0.245-0.375-0.479-0.452c-0.229-0.081-0.577-0.121-1.044-0.121h-1.017v3.726c0,0.198,0.056,0.322,0.168,0.37
				c0.112,0.046,0.29,0.067,0.532,0.067h1.462c0.638,0,1.153-0.049,1.543-0.148c0.396-0.103,0.701-0.272,0.916-0.506
				c0.22-0.238,0.389-0.543,0.506-0.916c0.121-0.377,0.234-0.898,0.337-1.563h0.398l-0.58,3.618L202.804,22.312L202.804,22.312z"/>
			<path id="path71" inkscape:connector-curvature="0" fill="#FFFFFF" d="M212.184,22.312v-0.485c0.948,0,1.422-0.147,1.422-0.439
				v-7.58c0-0.292-0.474-0.438-1.422-0.438v-0.485h4.474v0.485c-1.177,0-1.765,0.146-1.765,0.438v7.58
				c0,0.198,0.056,0.322,0.169,0.37c0.112,0.046,0.29,0.067,0.532,0.067h1.065c0.687,0,1.218-0.126,1.59-0.377
				c0.373-0.251,0.636-0.593,0.788-1.025c0.157-0.436,0.276-1.013,0.357-1.733h0.398l-0.384,3.618h-7.224V22.312z"/>
		</g>
		<g id="text3985">
			<path id="path74" inkscape:connector-curvature="0" fill="#FFFFFF" d="M234.942,17.043h-7.992v-1.078h7.992V17.043z
				 M234.942,19.873h-7.992v-1.078h7.992V19.873z"/>
		</g>
		<g id="text3987">
		</g>
		<g id="text3989">
		</g>
		<g id="text3991">
		</g>
		<g id="text3993">
			<path id="path80" inkscape:connector-curvature="0" fill="#FFFFFF" d="M249.177,11.805v-0.37c0-0.022,0.009-0.047,0.027-0.074
				l2.143-2.372c0.323-0.35,0.586-0.645,0.788-0.883c0.202-0.238,0.402-0.512,0.6-0.822c0.198-0.31,0.352-0.625,0.465-0.943
				c0.117-0.323,0.175-0.665,0.175-1.024c0-0.377-0.07-0.737-0.209-1.078c-0.14-0.346-0.348-0.622-0.627-0.829
				c-0.274-0.207-0.607-0.31-0.997-0.31c-0.4,0-0.759,0.121-1.078,0.364c-0.319,0.238-0.544,0.548-0.674,0.93
				c0.036-0.009,0.085-0.013,0.148-0.013c0.207,0,0.382,0.07,0.526,0.209c0.148,0.139,0.222,0.319,0.222,0.539
				c0,0.211-0.074,0.391-0.222,0.539c-0.144,0.144-0.319,0.216-0.526,0.216c-0.216,0-0.397-0.074-0.546-0.222
				c-0.144-0.153-0.216-0.33-0.216-0.532c0-0.346,0.065-0.669,0.195-0.97c0.13-0.305,0.317-0.575,0.559-0.809
				c0.247-0.238,0.523-0.42,0.829-0.546c0.31-0.126,0.638-0.189,0.984-0.189c0.526,0,1.015,0.112,1.469,0.337
				c0.454,0.22,0.813,0.535,1.078,0.944c0.265,0.404,0.397,0.878,0.397,1.422c0,0.4-0.088,0.779-0.263,1.139
				c-0.175,0.36-0.4,0.687-0.674,0.984c-0.274,0.292-0.624,0.625-1.051,0.997c-0.427,0.373-0.708,0.622-0.842,0.748l-1.563,1.503
				h1.328c0.651,0,1.195-0.004,1.631-0.013c0.44-0.013,0.674-0.031,0.7-0.054c0.108-0.117,0.218-0.541,0.33-1.273h0.404
				l-0.391,2.459h-5.119V11.805z"/>
			<path id="path82" inkscape:connector-curvature="0" fill="#FFFFFF" d="M255.775,9.528V9.043l4.265-6.361
				c0.031-0.045,0.079-0.067,0.142-0.067h0.202c0.103,0,0.155,0.052,0.155,0.155v6.273h1.354v0.485h-1.354v1.354
				c0,0.189,0.135,0.31,0.404,0.364c0.27,0.049,0.582,0.074,0.937,0.074v0.485h-3.8V11.32c0.355,0,0.667-0.025,0.937-0.074
				c0.269-0.054,0.405-0.176,0.405-0.364V9.528H255.775z M256.233,9.043h3.268V4.158L256.233,9.043z"/>
			<path id="path84" inkscape:connector-curvature="0" fill="#FFFFFF" d="M263.449,11.044c0-0.207,0.076-0.384,0.229-0.532
				c0.153-0.148,0.33-0.222,0.532-0.222c0.126,0,0.249,0.034,0.37,0.101c0.121,0.067,0.216,0.162,0.283,0.283
				c0.067,0.121,0.101,0.245,0.101,0.37c0,0.202-0.074,0.38-0.222,0.532c-0.149,0.153-0.326,0.229-0.532,0.229
				c-0.202,0-0.379-0.076-0.532-0.229C263.526,11.424,263.449,11.246,263.449,11.044z"/>
			<path id="path86" inkscape:connector-curvature="0" fill="#FFFFFF" d="M266.502,9.528V9.043l4.265-6.361
				c0.031-0.045,0.079-0.067,0.141-0.067h0.202c0.103,0,0.155,0.052,0.155,0.155v6.273h1.354v0.485h-1.354v1.354
				c0,0.189,0.135,0.31,0.404,0.364c0.269,0.049,0.582,0.074,0.937,0.074v0.485h-3.8V11.32c0.355,0,0.667-0.025,0.937-0.074
				c0.269-0.054,0.404-0.176,0.404-0.364V9.528H266.502z M266.96,9.043h3.268V4.158L266.96,9.043z"/>
			<path id="path88" inkscape:connector-curvature="0" fill="#FFFFFF" d="M274.217,10.235c0.094,0.27,0.238,0.515,0.431,0.735
				c0.198,0.22,0.429,0.393,0.694,0.519c0.27,0.121,0.548,0.182,0.836,0.182c0.665,0,1.123-0.258,1.375-0.775
				c0.251-0.516,0.377-1.143,0.377-1.88c0-0.319-0.007-0.586-0.02-0.802c-0.009-0.22-0.038-0.431-0.088-0.633
				c-0.085-0.324-0.236-0.607-0.451-0.849c-0.211-0.243-0.472-0.364-0.782-0.364c-0.31,0-0.577,0.047-0.802,0.141
				c-0.22,0.094-0.4,0.205-0.539,0.33c-0.139,0.125-0.263,0.258-0.37,0.397s-0.175,0.213-0.202,0.222h-0.155
				c-0.022,0-0.052-0.013-0.088-0.04c-0.031-0.031-0.047-0.061-0.047-0.088V2.722c0-0.022,0.013-0.045,0.04-0.067
				c0.031-0.027,0.063-0.04,0.094-0.04h0.04c0.62,0.296,1.278,0.445,1.974,0.445c0.683,0,1.341-0.149,1.975-0.445h0.04
				c0.031,0,0.061,0.011,0.088,0.034c0.027,0.023,0.04,0.047,0.04,0.074V2.85c0,0.045-0.009,0.067-0.027,0.067
				c-0.315,0.418-0.71,0.744-1.186,0.977c-0.471,0.233-0.961,0.35-1.469,0.35c-0.369,0-0.746-0.052-1.132-0.155v2.608
				c0.305-0.247,0.577-0.422,0.815-0.526c0.242-0.108,0.55-0.162,0.923-0.162c0.507,0,0.961,0.146,1.361,0.438
				c0.405,0.292,0.714,0.674,0.93,1.146c0.216,0.467,0.323,0.946,0.323,1.435c0,0.553-0.137,1.065-0.411,1.536
				c-0.269,0.471-0.638,0.847-1.105,1.125c-0.467,0.278-0.975,0.418-1.523,0.418c-0.454,0-0.871-0.117-1.253-0.351
				c-0.378-0.234-0.676-0.548-0.896-0.943c-0.216-0.395-0.324-0.815-0.324-1.26c0-0.207,0.068-0.375,0.202-0.506
				c0.135-0.13,0.303-0.195,0.505-0.195c0.202,0,0.371,0.067,0.506,0.202c0.139,0.13,0.209,0.297,0.209,0.499
				c0,0.198-0.07,0.366-0.209,0.505c-0.135,0.135-0.303,0.202-0.506,0.202c-0.031,0-0.067-0.002-0.108-0.006
				C274.264,10.247,274.235,10.24,274.217,10.235z"/>
		</g>
		<g id="text3995">
		</g>
		<g id="text3997">
			<path id="path92" inkscape:connector-curvature="0" fill="#FFFFFF" d="M287.929,15.229c-0.512-0.404-0.955-0.869-1.327-1.395
				c-0.369-0.521-0.672-1.078-0.91-1.671c-0.234-0.593-0.409-1.213-0.526-1.86c-0.117-0.647-0.175-1.296-0.175-1.948
				c0-0.66,0.058-1.314,0.175-1.961c0.117-0.647,0.294-1.269,0.532-1.866c0.242-0.597,0.55-1.157,0.923-1.678
				c0.373-0.521,0.809-0.977,1.307-1.368c0-0.018,0.022-0.027,0.067-0.027h0.128c0.027,0,0.052,0.013,0.074,0.04
				c0.022,0.022,0.034,0.049,0.034,0.081c0,0.04-0.009,0.07-0.027,0.088c-0.449,0.44-0.824,0.912-1.125,1.415
				c-0.296,0.503-0.537,1.04-0.721,1.61c-0.18,0.566-0.31,1.155-0.391,1.765c-0.081,0.607-0.121,1.24-0.121,1.9
				c0,2.925,0.782,5.146,2.345,6.664c0.027,0.027,0.04,0.065,0.04,0.115c0,0.022-0.013,0.047-0.04,0.074
				c-0.022,0.031-0.045,0.047-0.067,0.047h-0.128C287.951,15.256,287.929,15.247,287.929,15.229z"/>
		</g>
		<g id="text3999">
			<path id="path95" inkscape:connector-curvature="0" fill="#FFFFFF" d="M294.721,12.109c-0.876,0-1.665-0.232-2.365-0.694
				c-0.696-0.467-1.242-1.085-1.637-1.853c-0.396-0.773-0.593-1.584-0.593-2.433c0-0.629,0.112-1.251,0.337-1.866
				c0.229-0.616,0.546-1.161,0.95-1.637c0.409-0.476,0.898-0.854,1.469-1.132c0.571-0.278,1.184-0.418,1.84-0.418
				c0.651,0,1.262,0.141,1.832,0.424c0.576,0.278,1.067,0.658,1.476,1.139c0.409,0.481,0.724,1.02,0.944,1.617
				c0.22,0.598,0.329,1.222,0.329,1.873c0,0.849-0.198,1.66-0.593,2.433c-0.395,0.768-0.943,1.386-1.644,1.853
				C296.364,11.877,295.583,12.109,294.721,12.109z M292.429,10.317c0.269,0.422,0.602,0.759,0.997,1.011
				c0.395,0.247,0.827,0.37,1.294,0.37c0.301,0,0.595-0.061,0.882-0.182c0.293-0.121,0.555-0.287,0.787-0.499
				c0.238-0.211,0.442-0.445,0.608-0.7c0.548-0.827,0.822-1.963,0.822-3.41c0-1.325-0.275-2.374-0.822-3.147
				c-0.27-0.386-0.608-0.696-1.012-0.93c-0.4-0.233-0.822-0.35-1.266-0.35c-0.449,0-0.876,0.117-1.28,0.35
				c-0.404,0.234-0.741,0.544-1.011,0.93c-0.216,0.301-0.384,0.622-0.506,0.964c-0.117,0.337-0.2,0.687-0.249,1.051
				c-0.049,0.364-0.074,0.741-0.074,1.132c0,0.418,0.022,0.827,0.067,1.226c0.049,0.396,0.137,0.784,0.263,1.166
				C292.061,9.681,292.227,10.02,292.429,10.317z"/>
			<path id="path97" inkscape:connector-curvature="0" fill="#FFFFFF" d="M300.502,11.805V11.32c0.948,0,1.421-0.146,1.421-0.438
				v-7.58c0-0.292-0.473-0.438-1.421-0.438V2.379h7.803l0.383,3.16h-0.397c-0.099-0.795-0.238-1.372-0.418-1.732
				c-0.177-0.359-0.46-0.606-0.849-0.741c-0.391-0.135-0.977-0.202-1.759-0.202h-1.355c-0.166,0-0.296,0.007-0.391,0.02
				c-0.09,0.013-0.163,0.054-0.222,0.121c-0.058,0.063-0.088,0.162-0.088,0.297v3.369h1.018c0.467,0,0.816-0.038,1.045-0.115
				c0.233-0.081,0.392-0.231,0.477-0.451c0.091-0.225,0.135-0.573,0.135-1.044h0.404v3.706h-0.404c0-0.467-0.045-0.813-0.135-1.038
				c-0.085-0.225-0.244-0.375-0.477-0.452c-0.229-0.081-0.578-0.121-1.045-0.121h-1.018v3.726c0,0.198,0.057,0.321,0.168,0.371
				c0.112,0.045,0.29,0.067,0.531,0.067h1.462c0.638,0,1.153-0.049,1.543-0.148c0.395-0.104,0.701-0.272,0.918-0.506
				c0.22-0.238,0.388-0.544,0.504-0.916c0.121-0.377,0.233-0.898,0.337-1.563h0.398l-0.579,3.618H300.502z"/>
			<path id="path99" inkscape:connector-curvature="0" fill="#FFFFFF" d="M309.881,11.805V11.32c0.947,0,1.423-0.146,1.423-0.438
				v-7.58c0-0.292-0.474-0.438-1.423-0.438V2.379h4.475v0.485c-1.176,0-1.765,0.146-1.765,0.438v7.58
				c0,0.198,0.055,0.321,0.168,0.371c0.112,0.045,0.29,0.067,0.533,0.067h1.064c0.687,0,1.218-0.126,1.591-0.378
				c0.373-0.251,0.635-0.593,0.787-1.024c0.158-0.436,0.277-1.013,0.358-1.732h0.397l-0.385,3.618L309.881,11.805L309.881,11.805z"
				/>
		</g>
		<g id="text4001">
		</g>
		<g id="text4003">
			<path id="path103" inkscape:connector-curvature="0" fill="#FFFFFF" d="M321.892,11.805V11.32c0.314,0,0.573-0.025,0.775-0.074
				c0.202-0.049,0.303-0.171,0.303-0.364V7.116c0-0.355-0.07-0.573-0.209-0.654c-0.135-0.081-0.404-0.121-0.81-0.121V5.856
				l1.988-0.148v5.175c0,0.193,0.088,0.315,0.263,0.364c0.175,0.049,0.409,0.074,0.7,0.074v0.485h-3.012V11.805z M322.478,3.336
				c0-0.202,0.076-0.38,0.229-0.533c0.153-0.153,0.328-0.229,0.525-0.229c0.13,0,0.256,0.034,0.377,0.101
				c0.121,0.067,0.216,0.162,0.283,0.283c0.067,0.122,0.1,0.247,0.1,0.378c0,0.198-0.076,0.373-0.229,0.526
				c-0.153,0.153-0.329,0.229-0.531,0.229c-0.198,0-0.373-0.076-0.525-0.229C322.554,3.708,322.478,3.533,322.478,3.336z"/>
			<path id="path105" inkscape:connector-curvature="0" fill="#FFFFFF" d="M325.705,11.805V11.32c0.314,0,0.573-0.025,0.775-0.074
				c0.202-0.049,0.303-0.171,0.303-0.364V7.116c0-0.247-0.038-0.424-0.115-0.532c-0.072-0.112-0.177-0.18-0.317-0.202
				c-0.138-0.027-0.355-0.04-0.647-0.04V5.856l2.001-0.148v1.347c0.184-0.396,0.456-0.719,0.815-0.97
				c0.364-0.251,0.76-0.377,1.186-0.377c0.638,0,1.117,0.153,1.435,0.458c0.323,0.305,0.485,0.773,0.485,1.402v3.315
				c0,0.193,0.101,0.315,0.303,0.364c0.202,0.049,0.46,0.074,0.775,0.074v0.485h-3.16v-0.485c0.314,0,0.573-0.025,0.775-0.074
				c0.204-0.049,0.304-0.171,0.304-0.364V7.608c0-0.449-0.064-0.818-0.195-1.105c-0.13-0.292-0.397-0.438-0.802-0.438
				c-0.534,0-0.974,0.213-1.321,0.64c-0.341,0.427-0.512,0.912-0.512,1.455v2.722c0,0.193,0.101,0.315,0.303,0.364
				c0.202,0.049,0.458,0.074,0.768,0.074v0.485H325.705z"/>
		</g>
		<g id="text4005">
			<path id="path108" inkscape:connector-curvature="0" fill="#FFFFFF" d="M337.558,11.805V11.32c0.314,0,0.573-0.025,0.775-0.074
				c0.202-0.049,0.304-0.171,0.304-0.364V7.116c0-0.247-0.039-0.424-0.115-0.532c-0.073-0.112-0.177-0.18-0.317-0.202
				c-0.138-0.027-0.355-0.04-0.647-0.04V5.856l2.001-0.148v1.347c0.184-0.396,0.457-0.719,0.816-0.97
				c0.364-0.251,0.76-0.377,1.185-0.377c1.06,0,1.682,0.431,1.866,1.294c0.184-0.387,0.454-0.699,0.808-0.937
				c0.355-0.238,0.744-0.357,1.165-0.357c0.418,0,0.769,0.067,1.052,0.202c0.287,0.135,0.503,0.341,0.647,0.62
				c0.144,0.274,0.216,0.62,0.216,1.038v3.315c0,0.193,0.103,0.315,0.305,0.364c0.207,0.049,0.464,0.074,0.775,0.074v0.485h-3.16
				v-0.485c0.314,0,0.573-0.025,0.775-0.074c0.202-0.049,0.302-0.171,0.302-0.364V7.608c0-0.463-0.064-0.836-0.195-1.119
				c-0.129-0.283-0.398-0.424-0.802-0.424c-0.531,0-0.968,0.213-1.314,0.64c-0.346,0.427-0.519,0.912-0.519,1.455v2.722
				c0,0.193,0.1,0.315,0.302,0.364c0.202,0.049,0.461,0.074,0.775,0.074v0.485h-3.16V11.32c0.314,0,0.573-0.025,0.775-0.074
				c0.202-0.049,0.305-0.171,0.305-0.364V7.608c0-0.449-0.067-0.818-0.196-1.105c-0.13-0.292-0.397-0.438-0.802-0.438
				c-0.534,0-0.975,0.213-1.322,0.64c-0.341,0.427-0.512,0.912-0.512,1.455v2.722c0,0.193,0.102,0.315,0.304,0.364
				c0.202,0.049,0.459,0.074,0.769,0.074v0.485H337.558z"/>
			<path id="path110" inkscape:connector-curvature="0" fill="#FFFFFF" d="M349.041,12.884c0-0.328,0.119-0.615,0.357-0.863
				c0.238-0.242,0.521-0.415,0.849-0.519c-0.185-0.139-0.326-0.314-0.424-0.526c-0.094-0.211-0.142-0.436-0.142-0.674
				c0-0.431,0.138-0.813,0.412-1.146c-0.421-0.413-0.632-0.887-0.632-1.422c0-0.288,0.06-0.557,0.18-0.809
				c0.126-0.251,0.299-0.47,0.519-0.654c0.22-0.184,0.466-0.323,0.734-0.418c0.27-0.099,0.546-0.148,0.828-0.148
				c0.549,0,1.039,0.159,1.476,0.478c0.189-0.202,0.412-0.357,0.668-0.465c0.26-0.113,0.53-0.169,0.808-0.169
				c0.198,0,0.359,0.072,0.485,0.216c0.126,0.139,0.189,0.308,0.189,0.505c0,0.112-0.042,0.211-0.127,0.296
				c-0.085,0.085-0.183,0.128-0.296,0.128c-0.117,0-0.219-0.043-0.304-0.128c-0.085-0.085-0.128-0.184-0.128-0.296
				c0-0.171,0.056-0.29,0.168-0.357c-0.476,0-0.885,0.164-1.226,0.492c0.166,0.166,0.298,0.371,0.397,0.613
				c0.103,0.238,0.155,0.476,0.155,0.714c0,0.391-0.108,0.743-0.323,1.058c-0.216,0.31-0.501,0.553-0.856,0.728
				c-0.349,0.171-0.712,0.256-1.085,0.256c-0.503,0-0.962-0.137-1.38-0.411c-0.13,0.18-0.195,0.382-0.195,0.606
				c0,0.242,0.078,0.456,0.236,0.64c0.162,0.18,0.364,0.269,0.606,0.269h1.132c0.548,0,1.043,0.049,1.482,0.148
				c0.442,0.099,0.81,0.297,1.105,0.593c0.302,0.296,0.451,0.717,0.451,1.26c0,0.405-0.171,0.739-0.512,1.004
				c-0.341,0.27-0.75,0.463-1.226,0.58c-0.471,0.121-0.91,0.182-1.314,0.182c-0.409,0-0.852-0.061-1.328-0.182
				c-0.477-0.117-0.886-0.31-1.227-0.58C349.211,13.623,349.041,13.288,349.041,12.884z M349.815,12.884
				c0,0.31,0.126,0.568,0.378,0.775c0.251,0.211,0.555,0.366,0.909,0.465c0.355,0.103,0.69,0.155,1.004,0.155
				c0.31,0,0.642-0.052,0.997-0.155c0.355-0.099,0.656-0.254,0.904-0.465c0.25-0.207,0.376-0.465,0.376-0.775
				c0-0.48-0.22-0.793-0.661-0.937c-0.44-0.139-0.974-0.209-1.603-0.209h-1.132c-0.211,0-0.406,0.049-0.587,0.148
				c-0.175,0.103-0.317,0.245-0.425,0.425C349.869,12.495,349.815,12.686,349.815,12.884z M351.722,9.407
				c0.781,0,1.172-0.557,1.172-1.671c0-0.481-0.082-0.876-0.248-1.186c-0.166-0.314-0.474-0.471-0.923-0.471
				s-0.757,0.157-0.922,0.471c-0.166,0.31-0.25,0.705-0.25,1.186c0,0.305,0.031,0.581,0.094,0.829
				c0.063,0.247,0.18,0.449,0.35,0.606C351.165,9.328,351.408,9.407,351.722,9.407z"/>
		</g>
		<g id="text4007">
			<path id="path113" inkscape:connector-curvature="0" fill="#FFFFFF" d="M360.861,11.805V11.32c0.314,0,0.573-0.025,0.775-0.074
				c0.202-0.049,0.304-0.171,0.304-0.364V7.116c0-0.247-0.039-0.424-0.115-0.532c-0.072-0.112-0.177-0.18-0.316-0.202
				c-0.139-0.027-0.355-0.04-0.647-0.04V5.856l2.001-0.148v1.347c0.184-0.396,0.457-0.719,0.815-0.97
				c0.364-0.251,0.76-0.377,1.186-0.377c1.06,0,1.682,0.431,1.866,1.294c0.185-0.387,0.454-0.699,0.809-0.937
				s0.743-0.357,1.166-0.357c0.418,0,0.768,0.067,1.051,0.202c0.287,0.135,0.503,0.341,0.647,0.62
				c0.144,0.274,0.216,0.62,0.216,1.038v3.315c0,0.193,0.102,0.315,0.304,0.364c0.207,0.049,0.465,0.074,0.775,0.074v0.485h-3.16
				v-0.485c0.314,0,0.573-0.025,0.775-0.074c0.202-0.049,0.304-0.171,0.304-0.364V7.608c0-0.463-0.066-0.836-0.195-1.119
				c-0.13-0.283-0.398-0.424-0.802-0.424c-0.53,0-0.968,0.213-1.313,0.64c-0.346,0.427-0.519,0.912-0.519,1.455v2.722
				c0,0.193,0.1,0.315,0.302,0.364c0.201,0.049,0.461,0.074,0.775,0.074v0.485h-3.16V11.32c0.315,0,0.573-0.025,0.775-0.074
				c0.202-0.049,0.304-0.171,0.304-0.364V7.608c0-0.449-0.066-0.818-0.196-1.105c-0.13-0.292-0.397-0.438-0.801-0.438
				c-0.536,0-0.976,0.213-1.322,0.64c-0.341,0.427-0.512,0.912-0.512,1.455v2.722c0,0.193,0.102,0.315,0.304,0.364
				c0.202,0.049,0.458,0.074,0.768,0.074v0.485H360.861z"/>
		</g>
		<g id="text4009">
			<path id="path116" inkscape:connector-curvature="0" fill="#FFFFFF" d="M373.256,5.927c0.157,0.229,0.368,0.399,0.633,0.51
				c0.265,0.112,0.549,0.167,0.854,0.167c0.391,0,0.666-0.165,0.83-0.495c0.163-0.334,0.245-0.712,0.245-1.134
				c0-0.19-0.018-0.379-0.054-0.569c-0.033-0.19-0.09-0.366-0.171-0.53c-0.082-0.164-0.195-0.294-0.339-0.393
				c-0.141-0.098-0.314-0.147-0.52-0.147h-0.668c-0.058,0-0.088-0.031-0.088-0.093V3.154c0-0.052,0.03-0.079,0.088-0.079
				l0.555-0.044c0.236,0,0.43-0.088,0.585-0.265c0.156-0.177,0.271-0.391,0.343-0.643c0.073-0.255,0.109-0.497,0.109-0.726
				c0-0.321-0.076-0.584-0.226-0.79c-0.15-0.206-0.379-0.309-0.687-0.309c-0.255,0-0.499,0.049-0.731,0.147
				c-0.232,0.095-0.417,0.24-0.555,0.437c0.013-0.003,0.025-0.005,0.034-0.005c0.01-0.003,0.022-0.005,0.034-0.005
				c0.15,0,0.275,0.052,0.377,0.157c0.102,0.105,0.153,0.231,0.153,0.378c0,0.144-0.051,0.268-0.153,0.373
				c-0.102,0.105-0.228,0.157-0.377,0.157c-0.147,0-0.274-0.052-0.379-0.157c-0.105-0.105-0.157-0.229-0.157-0.373
				c0-0.288,0.087-0.538,0.26-0.751c0.174-0.213,0.396-0.373,0.668-0.481c0.275-0.112,0.549-0.167,0.825-0.167
				c0.203,0,0.416,0.031,0.642,0.093c0.226,0.059,0.43,0.146,0.614,0.26c0.183,0.111,0.332,0.255,0.446,0.432
				c0.118,0.177,0.177,0.378,0.177,0.604c0,0.281-0.063,0.541-0.192,0.78c-0.124,0.239-0.296,0.445-0.516,0.619
				c-0.219,0.173-0.46,0.302-0.721,0.388c0.292,0.055,0.567,0.165,0.828,0.329c0.263,0.164,0.471,0.373,0.629,0.628
				c0.16,0.255,0.24,0.53,0.24,0.824c0,0.37-0.1,0.705-0.305,1.006c-0.202,0.298-0.468,0.532-0.799,0.702
				c-0.331,0.167-0.679,0.25-1.046,0.25c-0.314,0-0.629-0.06-0.947-0.181c-0.314-0.118-0.573-0.296-0.775-0.535
				c-0.199-0.239-0.299-0.525-0.299-0.859c0-0.167,0.055-0.306,0.166-0.417s0.251-0.167,0.418-0.167
				c0.108,0,0.207,0.026,0.295,0.079c0.091,0.049,0.162,0.119,0.211,0.211c0.052,0.092,0.078,0.19,0.078,0.294
				c0,0.164-0.057,0.301-0.172,0.412c-0.114,0.112-0.251,0.167-0.412,0.167H373.256z"/>
		</g>
		<g id="text4011">
			<path id="path119" inkscape:connector-curvature="0" fill="#FFFFFF" d="M360.959,0.87l-4.832,12.533h-1.166l4.811-12.533H360.959
				z"/>
		</g>
		<g id="text4013">
			<path id="path122" inkscape:connector-curvature="0" fill="#FFFFFF" d="M379.496,15.256c-0.081,0-0.12-0.04-0.12-0.121
				c0-0.04,0.009-0.07,0.025-0.088c1.572-1.536,2.358-3.767,2.358-6.691s-0.778-5.146-2.331-6.664
				c-0.036-0.022-0.054-0.061-0.054-0.115c0-0.031,0.011-0.058,0.034-0.081c0.027-0.027,0.057-0.04,0.088-0.04h0.127
				c0.027,0,0.049,0.009,0.067,0.027c0.662,0.521,1.211,1.154,1.651,1.9c0.44,0.746,0.762,1.541,0.964,2.385
				c0.207,0.844,0.311,1.707,0.311,2.587c0,0.651-0.056,1.294-0.168,1.927c-0.108,0.629-0.283,1.249-0.525,1.86
				c-0.238,0.615-0.54,1.181-0.909,1.698c-0.368,0.521-0.809,0.984-1.321,1.388c-0.018,0.018-0.04,0.027-0.067,0.027h-0.128V15.256z
				"/>
		</g>
		<g id="text4015">
			<path id="path125" inkscape:connector-curvature="0" fill="#FFFFFF" d="M244.317,32.697c0-0.329,0.119-0.615,0.357-0.864
				c0.238-0.242,0.521-0.415,0.849-0.518c-0.184-0.139-0.326-0.315-0.424-0.526c-0.094-0.211-0.141-0.436-0.141-0.674
				c0-0.431,0.137-0.813,0.411-1.146c-0.422-0.412-0.633-0.888-0.633-1.422c0-0.287,0.061-0.557,0.182-0.808
				c0.126-0.251,0.299-0.47,0.519-0.654c0.22-0.184,0.465-0.323,0.735-0.418c0.269-0.099,0.546-0.147,0.829-0.147
				c0.548,0,1.04,0.159,1.475,0.479c0.189-0.202,0.411-0.358,0.667-0.465c0.26-0.112,0.53-0.168,0.809-0.168
				c0.198,0,0.359,0.072,0.485,0.216c0.126,0.14,0.189,0.308,0.189,0.505c0,0.112-0.043,0.211-0.128,0.296
				c-0.085,0.087-0.184,0.129-0.297,0.129c-0.117,0-0.218-0.043-0.303-0.129c-0.085-0.085-0.128-0.184-0.128-0.296
				c0-0.171,0.056-0.289,0.168-0.355c-0.476,0-0.885,0.162-1.226,0.491c0.166,0.165,0.299,0.37,0.397,0.614
				c0.103,0.238,0.155,0.476,0.155,0.714c0,0.391-0.108,0.744-0.323,1.058c-0.216,0.31-0.501,0.552-0.856,0.727
				c-0.35,0.171-0.712,0.256-1.085,0.256c-0.503,0-0.964-0.135-1.382-0.411c-0.13,0.18-0.195,0.382-0.195,0.607
				c0,0.242,0.079,0.456,0.236,0.64c0.162,0.18,0.364,0.269,0.607,0.269h1.132c0.548,0,1.042,0.049,1.483,0.148
				c0.44,0.099,0.809,0.296,1.105,0.593c0.301,0.296,0.452,0.715,0.452,1.26c0,0.404-0.171,0.739-0.512,1.004
				c-0.341,0.269-0.75,0.463-1.226,0.579c-0.472,0.121-0.91,0.183-1.314,0.183c-0.409,0-0.851-0.061-1.327-0.183
				c-0.476-0.117-0.885-0.31-1.226-0.579C244.487,33.435,244.317,33.101,244.317,32.697z M245.092,32.697
				c0,0.311,0.126,0.567,0.377,0.775c0.251,0.211,0.555,0.367,0.91,0.465c0.355,0.103,0.69,0.156,1.004,0.156
				c0.31,0,0.642-0.052,0.997-0.156c0.355-0.099,0.656-0.254,0.903-0.465c0.252-0.207,0.378-0.464,0.378-0.775
				c0-0.48-0.22-0.793-0.66-0.937c-0.44-0.138-0.975-0.21-1.604-0.21h-1.132c-0.211,0-0.406,0.049-0.586,0.148
				c-0.175,0.103-0.317,0.245-0.424,0.425C245.146,32.308,245.092,32.498,245.092,32.697z M246.999,29.22
				c0.782,0,1.172-0.558,1.172-1.672c0-0.48-0.083-0.876-0.249-1.185c-0.166-0.314-0.474-0.471-0.923-0.471
				s-0.757,0.157-0.923,0.471c-0.166,0.311-0.249,0.705-0.249,1.185c0,0.305,0.031,0.582,0.094,0.829
				c0.063,0.247,0.18,0.449,0.35,0.606C246.441,29.14,246.684,29.22,246.999,29.22z"/>
			<path id="path127" inkscape:connector-curvature="0" fill="#FFFFFF" d="M251.19,31.618v-0.485c0.314,0,0.573-0.024,0.775-0.074
				c0.202-0.049,0.303-0.171,0.303-0.364v-3.767c0-0.247-0.038-0.424-0.115-0.533c-0.072-0.112-0.178-0.18-0.317-0.202
				c-0.139-0.027-0.355-0.04-0.647-0.04v-0.485l1.974-0.148v1.349c0.148-0.4,0.359-0.724,0.633-0.971
				c0.274-0.251,0.607-0.377,0.997-0.377c0.274,0,0.519,0.082,0.735,0.242c0.216,0.162,0.324,0.376,0.324,0.641
				c0,0.166-0.061,0.313-0.182,0.439c-0.117,0.121-0.263,0.182-0.438,0.182c-0.171,0-0.317-0.061-0.438-0.182
				c-0.121-0.121-0.182-0.267-0.182-0.439c0-0.247,0.088-0.422,0.263-0.525h-0.081c-0.373,0-0.678,0.135-0.916,0.404
				c-0.234,0.269-0.4,0.604-0.498,1.004c-0.099,0.4-0.148,0.783-0.148,1.147v2.264c0,0.292,0.447,0.438,1.341,0.438v0.485
				L251.19,31.618L251.19,31.618z"/>
			<path id="path129" inkscape:connector-curvature="0" fill="#FFFFFF" d="M256.776,30.264c0-0.549,0.216-0.993,0.647-1.334
				c0.431-0.346,0.948-0.587,1.55-0.727c0.607-0.144,1.181-0.216,1.725-0.216v-0.567c0-0.265-0.058-0.521-0.175-0.768
				c-0.117-0.253-0.285-0.457-0.506-0.614c-0.22-0.162-0.462-0.242-0.728-0.242c-0.611,0-1.076,0.135-1.395,0.409
				c0.175,0,0.319,0.067,0.431,0.202c0.117,0.132,0.176,0.284,0.176,0.46c0,0.184-0.065,0.341-0.196,0.471
				c-0.131,0.13-0.285,0.195-0.465,0.195c-0.184,0-0.341-0.065-0.472-0.195c-0.13-0.129-0.195-0.287-0.195-0.471
				c0-0.486,0.22-0.845,0.66-1.078c0.44-0.238,0.925-0.358,1.455-0.358c0.373,0,0.748,0.081,1.126,0.243
				c0.377,0.157,0.685,0.383,0.923,0.68c0.242,0.296,0.364,0.643,0.364,1.038v3.107c0,0.18,0.038,0.346,0.115,0.498
				c0.076,0.148,0.195,0.223,0.357,0.223c0.153,0,0.265-0.076,0.337-0.23c0.076-0.153,0.115-0.317,0.115-0.492v-0.883h0.405V30.5
				c0,0.207-0.054,0.404-0.162,0.593c-0.108,0.183-0.254,0.332-0.438,0.445c-0.18,0.108-0.375,0.162-0.586,0.162
				c-0.269,0-0.503-0.103-0.701-0.31c-0.193-0.211-0.301-0.46-0.324-0.748c-0.171,0.346-0.422,0.622-0.755,0.828
				c-0.332,0.202-0.687,0.305-1.065,0.305c-0.35,0-0.696-0.052-1.038-0.156c-0.337-0.103-0.62-0.265-0.849-0.485
				C256.888,30.908,256.776,30.618,256.776,30.264z M257.894,30.264c0,0.323,0.119,0.594,0.357,0.814s0.519,0.332,0.842,0.332
				c0.297,0,0.566-0.075,0.809-0.223c0.242-0.148,0.436-0.35,0.58-0.606c0.144-0.256,0.216-0.525,0.216-0.808v-1.435
				c-0.418,0-0.847,0.07-1.287,0.21c-0.436,0.135-0.797,0.347-1.085,0.639C258.038,29.477,257.894,29.836,257.894,30.264z"/>
			<path id="path131" inkscape:connector-curvature="0" fill="#FFFFFF" d="M263.534,31.618v-0.485c0.315,0,0.573-0.024,0.775-0.074
				c0.202-0.049,0.303-0.171,0.303-0.364v-3.767c0-0.247-0.038-0.424-0.115-0.533c-0.072-0.112-0.177-0.18-0.317-0.202
				c-0.139-0.027-0.355-0.04-0.647-0.04v-0.485l2.001-0.148v1.349c0.184-0.395,0.456-0.719,0.815-0.971
				c0.364-0.251,0.759-0.377,1.186-0.377c1.06,0,1.682,0.431,1.866,1.295c0.184-0.388,0.454-0.698,0.809-0.936
				c0.355-0.239,0.743-0.358,1.166-0.358c0.418,0,0.768,0.067,1.051,0.202c0.287,0.135,0.503,0.341,0.647,0.62
				c0.144,0.275,0.216,0.62,0.216,1.038v3.315c0,0.193,0.101,0.314,0.303,0.364c0.207,0.05,0.465,0.074,0.775,0.074v0.485h-3.16
				v-0.485c0.314,0,0.573-0.024,0.775-0.074c0.202-0.049,0.303-0.171,0.303-0.364v-3.275c0-0.462-0.065-0.835-0.195-1.12
				c-0.131-0.283-0.398-0.424-0.802-0.424c-0.53,0-0.968,0.213-1.314,0.64c-0.346,0.427-0.519,0.912-0.519,1.456v2.723
				c0,0.193,0.101,0.314,0.303,0.364c0.202,0.05,0.461,0.074,0.775,0.074v0.485h-3.16v-0.485c0.315,0,0.573-0.024,0.775-0.074
				c0.202-0.049,0.303-0.171,0.303-0.364v-3.275c0-0.449-0.065-0.817-0.196-1.105c-0.13-0.292-0.397-0.437-0.802-0.437
				c-0.535,0-0.975,0.213-1.321,0.64c-0.341,0.427-0.512,0.912-0.512,1.456v2.722c0,0.193,0.101,0.314,0.303,0.364
				c0.202,0.05,0.458,0.074,0.768,0.074v0.485L263.534,31.618L263.534,31.618z"/>
		</g>
		<g id="text4017">
		</g>
		<g id="text4019">
			<path id="path135" inkscape:connector-curvature="0" fill="#FFFFFF" d="M281.693,31.618v-0.485c0.315,0,0.573-0.024,0.775-0.074
				c0.202-0.049,0.303-0.171,0.303-0.364v-3.767c0-0.247-0.038-0.424-0.115-0.533c-0.072-0.112-0.177-0.18-0.317-0.202
				c-0.139-0.027-0.355-0.04-0.647-0.04v-0.485l2.002-0.148v1.349c0.184-0.395,0.456-0.719,0.815-0.971
				c0.364-0.251,0.759-0.377,1.186-0.377c1.06,0,1.682,0.431,1.866,1.295c0.184-0.388,0.454-0.698,0.809-0.936
				c0.355-0.239,0.744-0.358,1.166-0.358c0.418,0,0.768,0.067,1.051,0.202c0.288,0.135,0.503,0.341,0.647,0.62
				c0.144,0.275,0.216,0.62,0.216,1.038v3.315c0,0.193,0.101,0.314,0.303,0.364c0.207,0.05,0.465,0.074,0.775,0.074v0.485h-3.16
				v-0.485c0.314,0,0.573-0.024,0.775-0.074c0.202-0.049,0.303-0.171,0.303-0.364v-3.275c0-0.462-0.065-0.835-0.195-1.12
				c-0.13-0.283-0.398-0.424-0.802-0.424c-0.53,0-0.968,0.213-1.314,0.64c-0.346,0.427-0.519,0.912-0.519,1.456v2.723
				c0,0.193,0.101,0.314,0.303,0.364c0.202,0.05,0.461,0.074,0.775,0.074v0.485h-3.16v-0.485c0.314,0,0.573-0.024,0.775-0.074
				c0.202-0.049,0.303-0.171,0.303-0.364v-3.275c0-0.449-0.065-0.817-0.195-1.105c-0.131-0.292-0.398-0.437-0.802-0.437
				c-0.535,0-0.975,0.213-1.321,0.64c-0.341,0.427-0.512,0.912-0.512,1.456v2.722c0,0.193,0.101,0.314,0.303,0.364
				c0.202,0.05,0.458,0.074,0.768,0.074v0.485L281.693,31.618L281.693,31.618z"/>
			<path id="path137" inkscape:connector-curvature="0" fill="#FFFFFF" d="M296.241,31.773c-0.552,0-1.064-0.139-1.536-0.418
				c-0.472-0.284-0.845-0.662-1.119-1.132c-0.274-0.472-0.411-0.986-0.411-1.543c0-0.423,0.074-0.828,0.222-1.22
				c0.153-0.391,0.369-0.739,0.647-1.044c0.283-0.31,0.611-0.551,0.983-0.721c0.373-0.175,0.778-0.263,1.212-0.263
				c0.566,0,1.081,0.15,1.543,0.451c0.467,0.296,0.835,0.697,1.105,1.2c0.27,0.499,0.406,1.031,0.406,1.597
				c0,0.552-0.138,1.066-0.412,1.543c-0.274,0.471-0.647,0.849-1.119,1.132C297.297,31.634,296.789,31.773,296.241,31.773z
				 M296.241,31.369c0.736,0,1.229-0.268,1.476-0.802c0.247-0.534,0.371-1.215,0.371-2.042c0-0.463-0.025-0.844-0.076-1.147
				c-0.049-0.305-0.156-0.581-0.323-0.828c-0.103-0.153-0.236-0.286-0.397-0.398c-0.156-0.117-0.326-0.204-0.505-0.262
				c-0.175-0.063-0.358-0.094-0.546-0.094c-0.287,0-0.561,0.064-0.822,0.195c-0.256,0.129-0.47,0.317-0.641,0.56
				c-0.171,0.26-0.28,0.548-0.329,0.862c-0.045,0.31-0.067,0.681-0.067,1.112c0,0.516,0.046,0.982,0.135,1.395
				c0.09,0.409,0.269,0.751,0.539,1.031C295.33,31.23,295.725,31.369,296.241,31.369z"/>
			<path id="path139" inkscape:connector-curvature="0" fill="#FFFFFF" d="M300.116,31.618v-0.485c0.314,0,0.573-0.024,0.775-0.074
				c0.202-0.049,0.304-0.171,0.304-0.364v-7.244c0-0.247-0.038-0.424-0.115-0.532c-0.072-0.113-0.177-0.18-0.317-0.203
				c-0.139-0.027-0.355-0.04-0.647-0.04v-0.485l2.048-0.148v8.653c0,0.193,0.102,0.314,0.304,0.364s0.458,0.074,0.769,0.074v0.485
				H300.116z"/>
			<path id="path141" inkscape:connector-curvature="0" fill="#FFFFFF" d="M306.955,31.773c-0.561,0-1.078-0.147-1.549-0.439
				c-0.468-0.296-0.837-0.689-1.106-1.179c-0.265-0.495-0.397-1.016-0.397-1.563c0-0.539,0.12-1.051,0.364-1.536
				c0.247-0.485,0.588-0.876,1.024-1.173c0.44-0.301,0.929-0.451,1.469-0.451c0.423,0,0.788,0.073,1.098,0.216
				c0.315,0.14,0.573,0.335,0.775,0.586c0.202,0.252,0.355,0.549,0.458,0.89c0.103,0.341,0.156,0.715,0.156,1.125
				c0,0.122-0.048,0.183-0.142,0.183h-3.996v0.148c0,0.763,0.153,1.419,0.459,1.968c0.31,0.549,0.813,0.822,1.509,0.822
				c0.283,0,0.543-0.063,0.781-0.189c0.243-0.126,0.452-0.302,0.627-0.526c0.18-0.225,0.301-0.465,0.364-0.721
				c0.009-0.03,0.025-0.058,0.048-0.081c0.027-0.027,0.055-0.04,0.087-0.04h0.121c0.094,0,0.142,0.058,0.142,0.175
				c-0.13,0.521-0.412,0.95-0.843,1.286C307.973,31.607,307.49,31.773,306.955,31.773z M305.122,28.087h3.148
				c0-0.347-0.049-0.696-0.148-1.051c-0.094-0.355-0.254-0.65-0.479-0.883c-0.225-0.238-0.518-0.355-0.882-0.355
				c-0.521,0-0.926,0.244-1.213,0.734C305.264,27.016,305.122,27.534,305.122,28.087z"/>
			<path id="path143" inkscape:connector-curvature="0" fill="#FFFFFF" d="M313.074,31.773c-0.557,0-1.063-0.144-1.516-0.431
				c-0.454-0.293-0.811-0.679-1.072-1.159c-0.26-0.486-0.391-1.001-0.391-1.543c0-0.544,0.128-1.066,0.384-1.563
				c0.261-0.498,0.617-0.897,1.072-1.193c0.458-0.301,0.967-0.451,1.524-0.451c0.539,0,1.028,0.106,1.468,0.317
				c0.445,0.211,0.668,0.557,0.668,1.038c0,0.18-0.066,0.338-0.196,0.471c-0.126,0.13-0.28,0.195-0.464,0.195
				c-0.184,0-0.341-0.065-0.471-0.195c-0.126-0.135-0.189-0.292-0.189-0.471c0-0.162,0.052-0.301,0.155-0.418
				c0.103-0.12,0.232-0.198,0.385-0.229c-0.32-0.202-0.766-0.302-1.341-0.302c-0.44,0-0.796,0.144-1.064,0.437
				c-0.269,0.293-0.458,0.654-0.567,1.084c-0.109,0.431-0.162,0.858-0.162,1.28c0,0.445,0.067,0.876,0.196,1.294
				c0.135,0.413,0.349,0.757,0.641,1.031c0.296,0.269,0.667,0.405,1.112,0.405c0.436,0,0.805-0.133,1.111-0.398
				c0.305-0.269,0.515-0.62,0.627-1.051c0-0.054,0.036-0.081,0.108-0.081h0.168c0.027,0,0.052,0.013,0.074,0.04
				c0.022,0.022,0.034,0.049,0.034,0.081v0.04c-0.138,0.543-0.415,0.974-0.828,1.293C314.123,31.613,313.635,31.773,313.074,31.773z
				"/>
			<path id="path145" inkscape:connector-curvature="0" fill="#FFFFFF" d="M317.245,29.974v-3.046c0-0.247-0.038-0.424-0.115-0.533
				c-0.073-0.112-0.178-0.18-0.317-0.202c-0.139-0.027-0.355-0.04-0.647-0.04v-0.485l2.09-0.148v4.454
				c0,0.359,0.024,0.641,0.073,0.842c0.054,0.198,0.165,0.346,0.331,0.445c0.171,0.099,0.44,0.148,0.808,0.148
				c0.494,0,0.888-0.207,1.179-0.62c0.292-0.412,0.438-0.882,0.438-1.408v-2.453c0-0.247-0.037-0.424-0.115-0.533
				c-0.076-0.112-0.184-0.18-0.323-0.202c-0.135-0.027-0.349-0.04-0.641-0.04v-0.485l2.082-0.148v4.845
				c0,0.242,0.036,0.421,0.108,0.533c0.076,0.108,0.184,0.175,0.323,0.203c0.141,0.022,0.355,0.033,0.647,0.033v0.485l-2.042,0.156
				v-1.166c-0.171,0.346-0.409,0.626-0.715,0.843c-0.305,0.216-0.642,0.323-1.01,0.323c-0.659,0-1.185-0.139-1.577-0.418
				C317.438,31.073,317.245,30.612,317.245,29.974z"/>
			<path id="path147" inkscape:connector-curvature="0" fill="#FFFFFF" d="M323.834,31.618v-0.485c0.314,0,0.573-0.024,0.775-0.074
				c0.202-0.049,0.303-0.171,0.303-0.364v-7.244c0-0.247-0.038-0.424-0.115-0.532c-0.072-0.113-0.177-0.18-0.317-0.203
				c-0.138-0.027-0.355-0.04-0.647-0.04v-0.485l2.049-0.148v8.653c0,0.193,0.1,0.314,0.303,0.364
				c0.201,0.05,0.458,0.074,0.768,0.074v0.485H323.834z"/>
			<path id="path149" inkscape:connector-curvature="0" fill="#FFFFFF" d="M327.79,30.264c0-0.549,0.216-0.993,0.647-1.334
				c0.431-0.346,0.947-0.587,1.55-0.727c0.607-0.144,1.182-0.216,1.725-0.216v-0.567c0-0.265-0.058-0.521-0.175-0.768
				c-0.117-0.253-0.286-0.457-0.506-0.614c-0.22-0.162-0.462-0.242-0.727-0.242c-0.611,0-1.075,0.135-1.395,0.409
				c0.175,0,0.32,0.067,0.431,0.202c0.117,0.132,0.175,0.284,0.175,0.46c0,0.184-0.064,0.341-0.195,0.471
				c-0.132,0.13-0.286,0.195-0.465,0.195c-0.184,0-0.341-0.065-0.471-0.195c-0.129-0.129-0.195-0.287-0.195-0.471
				c0-0.486,0.22-0.845,0.662-1.078c0.44-0.238,0.925-0.358,1.455-0.358c0.373,0,0.748,0.081,1.126,0.243
				c0.377,0.157,0.686,0.383,0.924,0.68c0.242,0.296,0.364,0.643,0.364,1.038v3.107c0,0.18,0.037,0.346,0.114,0.498
				c0.076,0.148,0.196,0.223,0.358,0.223c0.153,0,0.265-0.076,0.337-0.23c0.076-0.153,0.115-0.317,0.115-0.492v-0.883h0.406V30.5
				c0,0.207-0.055,0.404-0.162,0.593c-0.109,0.183-0.254,0.332-0.438,0.445c-0.18,0.108-0.376,0.162-0.587,0.162
				c-0.269,0-0.504-0.103-0.702-0.31c-0.193-0.211-0.301-0.46-0.323-0.748c-0.171,0.346-0.422,0.622-0.754,0.828
				c-0.332,0.202-0.687,0.305-1.066,0.305c-0.35,0-0.697-0.052-1.037-0.156c-0.338-0.103-0.62-0.265-0.849-0.485
				C327.903,30.908,327.79,30.618,327.79,30.264z M328.908,30.264c0,0.323,0.12,0.594,0.358,0.814
				c0.238,0.22,0.519,0.332,0.841,0.332c0.296,0,0.567-0.075,0.81-0.223c0.242-0.148,0.436-0.35,0.579-0.606
				c0.144-0.256,0.216-0.525,0.216-0.808v-1.435c-0.418,0-0.847,0.07-1.287,0.21c-0.436,0.135-0.798,0.347-1.085,0.639
				C329.053,29.479,328.908,29.836,328.908,30.264z"/>
			<path id="path151" inkscape:connector-curvature="0" fill="#FFFFFF" d="M334.494,31.618v-0.485c0.314,0,0.573-0.024,0.775-0.074
				c0.201-0.049,0.303-0.171,0.303-0.364v-3.767c0-0.247-0.038-0.424-0.115-0.533c-0.072-0.112-0.177-0.18-0.317-0.202
				c-0.139-0.027-0.355-0.04-0.647-0.04v-0.485l1.974-0.148v1.349c0.148-0.4,0.359-0.724,0.633-0.971
				c0.275-0.251,0.606-0.377,0.998-0.377c0.274,0,0.518,0.082,0.734,0.242c0.216,0.162,0.323,0.376,0.323,0.641
				c0,0.166-0.061,0.313-0.181,0.439c-0.117,0.121-0.263,0.182-0.439,0.182c-0.171,0-0.317-0.061-0.437-0.182
				c-0.121-0.121-0.183-0.267-0.183-0.439c0-0.247,0.088-0.422,0.263-0.525H338.1c-0.373,0-0.68,0.135-0.918,0.404
				c-0.234,0.269-0.4,0.604-0.498,1.004c-0.099,0.4-0.148,0.783-0.148,1.147v2.264c0,0.292,0.448,0.438,1.341,0.438v0.485
				L334.494,31.618L334.494,31.618z"/>
		</g>
		<g id="text4021">
		</g>
		<g id="text4023">
			<path id="path155" inkscape:connector-curvature="0" fill="#FFFFFF" d="M347.419,31.618l-1.786-5.019
				c-0.081-0.203-0.198-0.326-0.35-0.37c-0.153-0.049-0.374-0.075-0.668-0.075v-0.485h2.843v0.485c-0.543,0-0.815,0.115-0.815,0.344
				c0.005,0.013,0.008,0.027,0.008,0.04c0.004,0.013,0.007,0.034,0.007,0.061l1.328,3.719l1.144-3.241l-0.182-0.478
				c-0.072-0.203-0.186-0.326-0.344-0.37c-0.157-0.049-0.38-0.075-0.668-0.075v-0.485h2.723v0.485c-0.543,0-0.816,0.115-0.816,0.344
				c0,0.036,0.004,0.07,0.013,0.1l1.382,3.889l1.254-3.517c0.018-0.072,0.027-0.137,0.027-0.195c0-0.193-0.084-0.344-0.249-0.451
				c-0.162-0.112-0.344-0.169-0.546-0.169V25.67h2.344v0.485c-0.278,0-0.519,0.076-0.72,0.223c-0.199,0.144-0.344,0.341-0.437,0.593
				l-1.645,4.649c-0.031,0.103-0.1,0.156-0.21,0.156h-0.108c-0.108,0-0.177-0.052-0.21-0.156l-1.395-3.935l-1.395,3.935
				c-0.045,0.103-0.117,0.156-0.216,0.156h-0.1C347.522,31.773,347.451,31.721,347.419,31.618z"/>
			<path id="path157" inkscape:connector-curvature="0" fill="#FFFFFF" d="M357.777,31.773c-0.562,0-1.078-0.147-1.551-0.439
				c-0.467-0.296-0.835-0.689-1.105-1.179c-0.265-0.495-0.397-1.016-0.397-1.563c0-0.539,0.121-1.051,0.364-1.536
				c0.247-0.485,0.588-0.876,1.025-1.173c0.439-0.301,0.928-0.451,1.468-0.451c0.421,0,0.789,0.073,1.099,0.216
				c0.314,0.14,0.573,0.335,0.775,0.586c0.202,0.252,0.355,0.549,0.458,0.89c0.103,0.341,0.153,0.715,0.153,1.125
				c0,0.122-0.046,0.183-0.141,0.183h-3.996v0.148c0,0.763,0.153,1.419,0.458,1.968c0.311,0.549,0.813,0.822,1.509,0.822
				c0.283,0,0.543-0.063,0.781-0.189c0.242-0.126,0.451-0.302,0.626-0.526c0.18-0.225,0.302-0.465,0.364-0.721
				c0.009-0.03,0.024-0.058,0.046-0.081c0.027-0.027,0.057-0.04,0.088-0.04h0.121c0.094,0,0.141,0.058,0.141,0.175
				c-0.13,0.521-0.41,0.95-0.842,1.286C358.794,31.607,358.311,31.773,357.777,31.773z M355.943,28.087h3.146
				c0-0.347-0.049-0.696-0.148-1.051c-0.094-0.355-0.253-0.65-0.477-0.883c-0.225-0.238-0.519-0.355-0.883-0.355
				c-0.521,0-0.925,0.244-1.212,0.734C356.085,27.016,355.943,27.534,355.943,28.087L355.943,28.087z"/>
			<path id="path159" inkscape:connector-curvature="0" fill="#FFFFFF" d="M360.883,31.618v-0.485c0.314,0,0.573-0.024,0.775-0.074
				c0.202-0.049,0.302-0.171,0.302-0.364v-3.767c0-0.355-0.07-0.573-0.208-0.654c-0.135-0.081-0.404-0.121-0.81-0.121v-0.485
				l1.988-0.148v5.176c0,0.193,0.087,0.314,0.262,0.364c0.175,0.05,0.409,0.074,0.701,0.074v0.485H360.883z M361.469,23.148
				c0-0.201,0.076-0.379,0.229-0.532c0.153-0.153,0.328-0.229,0.525-0.229c0.129,0,0.256,0.033,0.376,0.1
				c0.121,0.067,0.216,0.162,0.283,0.283c0.067,0.122,0.103,0.248,0.103,0.378c0,0.198-0.076,0.373-0.23,0.525
				c-0.153,0.153-0.331,0.23-0.532,0.23c-0.198,0-0.373-0.077-0.525-0.23C361.546,23.521,361.469,23.346,361.469,23.148
				L361.469,23.148z"/>
			<path id="path161" inkscape:connector-curvature="0" fill="#FFFFFF" d="M364.669,32.697c0-0.329,0.12-0.615,0.358-0.864
				c0.238-0.242,0.521-0.415,0.849-0.518c-0.184-0.139-0.326-0.315-0.425-0.526c-0.094-0.211-0.141-0.436-0.141-0.674
				c0-0.431,0.136-0.813,0.411-1.146c-0.423-0.412-0.634-0.888-0.634-1.422c0-0.287,0.061-0.557,0.183-0.808
				c0.126-0.251,0.298-0.47,0.519-0.654c0.22-0.184,0.465-0.323,0.733-0.418c0.269-0.099,0.546-0.147,0.829-0.147
				c0.548,0,1.04,0.159,1.476,0.479c0.189-0.202,0.412-0.358,0.668-0.465c0.26-0.112,0.53-0.168,0.809-0.168
				c0.198,0,0.358,0.072,0.485,0.216c0.126,0.14,0.189,0.308,0.189,0.505c0,0.112-0.043,0.211-0.129,0.296
				c-0.085,0.087-0.184,0.129-0.296,0.129c-0.118,0-0.217-0.043-0.302-0.129c-0.086-0.085-0.129-0.184-0.129-0.296
				c0-0.171,0.055-0.289,0.169-0.355c-0.477,0-0.885,0.162-1.227,0.491c0.167,0.165,0.299,0.37,0.398,0.614
				c0.103,0.238,0.155,0.476,0.155,0.714c0,0.391-0.109,0.744-0.323,1.058c-0.217,0.31-0.501,0.552-0.856,0.727
				c-0.35,0.171-0.712,0.256-1.084,0.256c-0.503,0-0.964-0.135-1.382-0.411c-0.13,0.18-0.195,0.382-0.195,0.607
				c0,0.242,0.079,0.456,0.236,0.64c0.162,0.18,0.364,0.269,0.606,0.269h1.132c0.548,0,1.043,0.049,1.483,0.148
				c0.44,0.099,0.808,0.296,1.105,0.593c0.301,0.296,0.452,0.715,0.452,1.26c0,0.404-0.171,0.739-0.513,1.004
				c-0.341,0.269-0.75,0.463-1.227,0.579c-0.471,0.121-0.909,0.183-1.313,0.183c-0.409,0-0.851-0.061-1.328-0.183
				c-0.476-0.117-0.885-0.31-1.227-0.579C364.84,33.435,364.669,33.101,364.669,32.697z M365.445,32.697
				c0,0.311,0.126,0.567,0.377,0.775c0.251,0.211,0.555,0.367,0.91,0.465c0.355,0.103,0.689,0.156,1.004,0.156
				c0.31,0,0.641-0.052,0.998-0.156c0.355-0.099,0.656-0.254,0.903-0.465c0.251-0.207,0.376-0.464,0.376-0.775
				c0-0.48-0.219-0.793-0.659-0.937c-0.44-0.138-0.974-0.21-1.605-0.21h-1.132c-0.211,0-0.406,0.049-0.587,0.148
				c-0.175,0.103-0.317,0.245-0.424,0.425C365.499,32.308,365.445,32.498,365.445,32.697z M367.352,29.22
				c0.781,0,1.172-0.558,1.172-1.672c0-0.48-0.082-0.876-0.248-1.185c-0.166-0.314-0.474-0.471-0.924-0.471
				c-0.449,0-0.757,0.157-0.923,0.471c-0.166,0.311-0.249,0.705-0.249,1.185c0,0.305,0.031,0.582,0.094,0.829
				s0.18,0.449,0.351,0.606C366.795,29.14,367.037,29.22,367.352,29.22z"/>
			<path id="path163" inkscape:connector-curvature="0" fill="#FFFFFF" d="M371.596,31.618v-0.485c0.314,0,0.573-0.024,0.775-0.074
				c0.202-0.049,0.302-0.171,0.302-0.364v-7.244c0-0.247-0.037-0.424-0.114-0.532c-0.072-0.113-0.178-0.18-0.317-0.203
				c-0.139-0.027-0.355-0.04-0.647-0.04v-0.485l2.048-0.148v4.745c0.193-0.382,0.463-0.689,0.81-0.918
				c0.346-0.233,0.726-0.35,1.144-0.35c0.638,0,1.117,0.153,1.435,0.458c0.323,0.305,0.486,0.774,0.486,1.402v3.315
				c0,0.193,0.102,0.314,0.304,0.364s0.46,0.074,0.775,0.074v0.485h-3.16v-0.485c0.314,0,0.573-0.024,0.775-0.074
				c0.202-0.049,0.302-0.171,0.302-0.364v-3.275c0-0.449-0.064-0.817-0.195-1.105c-0.13-0.292-0.398-0.437-0.802-0.437
				c-0.534,0-0.974,0.213-1.32,0.64c-0.341,0.427-0.513,0.912-0.513,1.456v2.722c0,0.193,0.101,0.314,0.303,0.364
				s0.458,0.074,0.769,0.074v0.485L371.596,31.618L371.596,31.618z"/>
			<path id="path165" inkscape:connector-curvature="0" fill="#FFFFFF" d="M380.249,29.961v-3.809h-1.146v-0.355
				c0.602,0,1.045-0.281,1.328-0.843c0.283-0.561,0.424-1.17,0.424-1.826h0.397v2.54h1.947v0.485h-1.947v3.781
				c0,0.382,0.063,0.717,0.189,1.004c0.13,0.288,0.362,0.433,0.694,0.433c0.314,0,0.54-0.151,0.68-0.452
				c0.14-0.305,0.209-0.633,0.209-0.983v-0.816h0.398v0.843c0,0.287-0.054,0.573-0.162,0.855c-0.103,0.278-0.259,0.509-0.464,0.689
				c-0.207,0.18-0.458,0.269-0.754,0.269c-0.552,0-0.991-0.165-1.314-0.492C380.408,30.948,380.249,30.508,380.249,29.961z"/>
		</g>
		<g id="text4025">
		</g>
		<g id="text4027">
		</g>
		<g id="text4029">
		</g>
		<g id="text4060">
			<path id="path171" inkscape:connector-curvature="0" fill="#FFFFFF" d="M193.046,30.423V30.1c0.21,0,0.382-0.016,0.516-0.049
				c0.135-0.033,0.202-0.114,0.202-0.242v-2.51c0-0.237-0.046-0.382-0.139-0.436c-0.09-0.054-0.269-0.081-0.539-0.081V26.46
				l1.325-0.1v3.449c0,0.129,0.058,0.21,0.175,0.242c0.117,0.032,0.272,0.049,0.467,0.049v0.323H193.046z M193.437,24.779
				c0-0.135,0.051-0.253,0.153-0.355c0.102-0.102,0.219-0.153,0.35-0.153c0.087,0,0.171,0.022,0.251,0.067
				c0.08,0.045,0.144,0.108,0.189,0.189c0.045,0.081,0.067,0.165,0.067,0.251c0,0.132-0.051,0.248-0.153,0.35
				c-0.102,0.102-0.22,0.153-0.355,0.153c-0.132,0-0.248-0.052-0.35-0.153C193.488,25.027,193.437,24.91,193.437,24.779
				L193.437,24.779z"/>
			<path id="path173" inkscape:connector-curvature="0" fill="#FFFFFF" d="M195.588,30.423V30.1c0.21,0,0.382-0.016,0.516-0.049
				s0.202-0.114,0.202-0.242v-2.51c0-0.165-0.025-0.283-0.076-0.355c-0.048-0.076-0.118-0.121-0.211-0.135
				c-0.093-0.018-0.236-0.027-0.431-0.027V26.46l1.334-0.1v0.898c0.123-0.263,0.304-0.479,0.543-0.647
				c0.242-0.168,0.506-0.251,0.79-0.251c0.425,0,0.744,0.103,0.956,0.305c0.216,0.204,0.323,0.516,0.323,0.934v2.209
				c0,0.129,0.067,0.21,0.202,0.242c0.135,0.033,0.307,0.049,0.516,0.049v0.323h-2.106V30.1c0.21,0,0.382-0.016,0.516-0.049
				c0.135-0.033,0.202-0.114,0.202-0.242v-2.182c0-0.299-0.043-0.545-0.13-0.736c-0.087-0.195-0.265-0.292-0.534-0.292
				c-0.356,0-0.65,0.142-0.88,0.427c-0.228,0.284-0.341,0.608-0.341,0.97v1.814c0,0.129,0.067,0.21,0.202,0.242
				c0.135,0.033,0.305,0.049,0.512,0.049v0.323h-2.105V30.423z"/>
			<path id="path175" inkscape:connector-curvature="0" fill="#FFFFFF" d="M203.724,32.206v-0.319c0.21,0,0.382-0.018,0.516-0.054
				c0.135-0.036,0.202-0.117,0.202-0.242v-4.432c0-0.168-0.06-0.272-0.18-0.314c-0.12-0.042-0.299-0.063-0.539-0.063V26.46
				l1.361-0.1v0.57c0.168-0.186,0.362-0.326,0.584-0.422c0.225-0.1,0.463-0.148,0.714-0.148c0.362,0,0.689,0.1,0.979,0.296
				c0.29,0.195,0.516,0.452,0.678,0.772c0.165,0.317,0.247,0.654,0.247,1.01c0,0.371-0.091,0.717-0.274,1.037
				c-0.18,0.32-0.427,0.576-0.741,0.768c-0.311,0.189-0.654,0.283-1.028,0.283c-0.446,0-0.823-0.181-1.132-0.543v1.608
				c0,0.126,0.067,0.207,0.202,0.242c0.138,0.036,0.31,0.054,0.516,0.054v0.319H203.724z M205.112,29.53
				c0.108,0.219,0.257,0.4,0.449,0.543c0.192,0.141,0.401,0.211,0.629,0.211c0.213,0,0.4-0.057,0.561-0.171
				c0.165-0.114,0.302-0.266,0.413-0.458c0.111-0.192,0.192-0.392,0.242-0.602c0.054-0.213,0.081-0.418,0.081-0.615
				c0-0.245-0.045-0.51-0.135-0.795c-0.087-0.287-0.222-0.528-0.404-0.723c-0.18-0.198-0.398-0.296-0.656-0.296
				c-0.248,0-0.477,0.064-0.687,0.193c-0.207,0.126-0.371,0.298-0.494,0.516v2.197H205.112z"/>
			<path id="path177" inkscape:connector-curvature="0" fill="#FFFFFF" d="M208.825,32.206v-0.319c0.21,0,0.382-0.018,0.516-0.054
				c0.135-0.036,0.202-0.117,0.202-0.242v-4.432c0-0.168-0.06-0.272-0.18-0.314c-0.12-0.042-0.299-0.063-0.539-0.063V26.46
				l1.361-0.1v0.57c0.168-0.186,0.362-0.326,0.584-0.422c0.225-0.1,0.462-0.148,0.714-0.148c0.362,0,0.689,0.1,0.979,0.296
				c0.29,0.195,0.516,0.452,0.678,0.772c0.165,0.317,0.247,0.654,0.247,1.01c0,0.371-0.091,0.717-0.274,1.037
				c-0.18,0.32-0.427,0.576-0.741,0.768c-0.311,0.189-0.654,0.283-1.028,0.283c-0.446,0-0.823-0.181-1.132-0.543v1.608
				c0,0.126,0.067,0.207,0.202,0.242c0.138,0.036,0.31,0.054,0.516,0.054v0.319H208.825z M210.213,29.53
				c0.108,0.219,0.257,0.4,0.449,0.543c0.192,0.141,0.401,0.211,0.629,0.211c0.213,0,0.4-0.057,0.561-0.171
				c0.165-0.114,0.302-0.266,0.413-0.458c0.111-0.192,0.192-0.392,0.242-0.602c0.054-0.213,0.081-0.418,0.081-0.615
				c0-0.245-0.045-0.51-0.135-0.795c-0.087-0.287-0.222-0.528-0.404-0.723c-0.18-0.198-0.398-0.296-0.656-0.296
				c-0.248,0-0.477,0.064-0.687,0.193c-0.207,0.126-0.371,0.298-0.494,0.516v2.197H210.213z"/>
			<path id="path179" inkscape:connector-curvature="0" fill="#FFFFFF" d="M213.962,30.423V30.1c0.21,0,0.382-0.016,0.516-0.049
				c0.135-0.033,0.202-0.114,0.202-0.242v-2.51c0-0.165-0.025-0.283-0.076-0.355c-0.048-0.076-0.118-0.121-0.211-0.135
				c-0.093-0.018-0.236-0.027-0.431-0.027V26.46l1.334-0.1v0.898c0.123-0.263,0.304-0.479,0.543-0.647
				c0.242-0.168,0.506-0.251,0.79-0.251c0.706,0,1.121,0.287,1.244,0.862c0.123-0.257,0.302-0.465,0.539-0.624
				c0.237-0.159,0.495-0.238,0.777-0.238c0.278,0,0.512,0.045,0.7,0.135c0.192,0.09,0.335,0.228,0.431,0.413
				c0.096,0.183,0.144,0.412,0.144,0.69v2.209c0,0.129,0.067,0.21,0.202,0.242c0.138,0.033,0.31,0.049,0.516,0.049v0.323h-2.106
				V30.1c0.21,0,0.382-0.016,0.516-0.049c0.134-0.033,0.202-0.114,0.202-0.242v-2.182c0-0.308-0.043-0.557-0.13-0.745
				c-0.087-0.189-0.265-0.283-0.534-0.283c-0.353,0-0.645,0.142-0.876,0.427c-0.23,0.284-0.346,0.608-0.346,0.97v1.814
				c0,0.129,0.067,0.21,0.202,0.242c0.135,0.033,0.307,0.049,0.516,0.049v0.323h-2.106V30.1c0.21,0,0.382-0.016,0.516-0.049
				c0.134-0.033,0.202-0.114,0.202-0.242v-2.182c0-0.299-0.043-0.545-0.13-0.736c-0.087-0.195-0.265-0.292-0.534-0.292
				c-0.356,0-0.65,0.142-0.88,0.427c-0.228,0.284-0.341,0.608-0.341,0.97v1.814c0,0.129,0.067,0.21,0.202,0.242
				c0.135,0.033,0.305,0.049,0.512,0.049v0.323h-2.105V30.423z"/>
		</g>
		<g id="flowRoot4064" transform="matrix(0.76634946,0,0,0.76634946,170.5901,-4.6959343)">
		</g>
		<g id="text4072">
			<path id="path183" inkscape:connector-curvature="0" fill="#FFFFFF" d="M336.421,39.193c-0.368,0-0.709-0.093-1.024-0.278
				c-0.314-0.189-0.563-0.44-0.745-0.754c-0.182-0.314-0.274-0.657-0.274-1.028c0-0.281,0.049-0.552,0.15-0.813
				c0.102-0.26,0.244-0.492,0.43-0.696c0.189-0.207,0.408-0.367,0.656-0.48c0.248-0.117,0.518-0.175,0.808-0.175
				c0.377,0,0.721,0.1,1.028,0.301c0.311,0.198,0.557,0.464,0.736,0.799c0.18,0.332,0.269,0.687,0.269,1.064
				c0,0.368-0.091,0.711-0.274,1.028c-0.181,0.314-0.43,0.566-0.745,0.754C337.124,39.1,336.787,39.193,336.421,39.193z
				 M336.421,38.923c0.492,0,0.819-0.178,0.984-0.534c0.165-0.356,0.247-0.81,0.247-1.361c0-0.308-0.017-0.563-0.05-0.763
				c-0.033-0.204-0.104-0.388-0.215-0.552c-0.07-0.102-0.157-0.189-0.265-0.265c-0.106-0.078-0.217-0.135-0.338-0.175
				c-0.117-0.042-0.238-0.063-0.364-0.063c-0.192,0-0.374,0.043-0.548,0.13c-0.171,0.087-0.313,0.211-0.427,0.373
				c-0.115,0.174-0.187,0.365-0.22,0.576c-0.031,0.207-0.046,0.454-0.046,0.741c0,0.344,0.03,0.654,0.091,0.93
				c0.06,0.272,0.18,0.501,0.358,0.687C335.814,38.83,336.077,38.923,336.421,38.923z"/>
			<path id="path185" inkscape:connector-curvature="0" fill="#FFFFFF" d="M339.017,39.089v-0.323c0.207,0,0.376-0.016,0.512-0.049
				c0.135-0.033,0.201-0.114,0.201-0.242v-3.026h-0.705v-0.323h0.705v-1.1c0-0.198,0.04-0.382,0.121-0.552
				c0.085-0.174,0.195-0.326,0.332-0.454c0.141-0.129,0.302-0.229,0.481-0.301c0.182-0.075,0.37-0.112,0.565-0.112
				c0.207,0,0.393,0.061,0.557,0.184c0.168,0.123,0.252,0.286,0.251,0.489c0.001,0.117-0.04,0.216-0.121,0.296
				c-0.078,0.079-0.175,0.117-0.292,0.117c-0.117,0-0.217-0.039-0.301-0.117c-0.081-0.081-0.121-0.18-0.121-0.296
				c0-0.192,0.082-0.32,0.247-0.386c-0.099-0.033-0.187-0.049-0.265-0.049c-0.18,0-0.334,0.064-0.462,0.193
				c-0.126,0.126-0.22,0.28-0.283,0.462c-0.063,0.182-0.094,0.364-0.094,0.543v1.082h1.06v0.323h-1.028v3.026
				c0,0.126,0.09,0.207,0.269,0.242c0.18,0.034,0.385,0.049,0.62,0.049v0.323h-2.25V39.089z"/>
			<path id="path187" inkscape:connector-curvature="0" fill="#FFFFFF" d="M344.899,39.116v-1.5
				c0.001-0.048,0.028-0.073,0.081-0.073h0.112c0.037,0,0.061,0.025,0.072,0.073c0.171,0.889,0.585,1.334,1.239,1.334
				c0.29,0,0.533-0.066,0.727-0.198c0.198-0.132,0.296-0.335,0.296-0.611c0-0.198-0.076-0.365-0.229-0.503
				c-0.153-0.141-0.335-0.236-0.543-0.287l-0.615-0.121c-0.207-0.045-0.395-0.114-0.566-0.207c-0.168-0.093-0.305-0.216-0.413-0.367
				c-0.109-0.156-0.162-0.335-0.162-0.54c0-0.269,0.07-0.489,0.211-0.66c0.144-0.174,0.329-0.298,0.558-0.373
				c0.228-0.079,0.473-0.117,0.735-0.117c0.314,0,0.588,0.085,0.822,0.251l0.265-0.229c0-0.015,0.015-0.022,0.046-0.022h0.067
				c0.018,0,0.034,0.009,0.049,0.027c0.015,0.015,0.022,0.031,0.022,0.049v1.203c0,0.057-0.024,0.085-0.072,0.085h-0.112
				c-0.054,0-0.081-0.028-0.081-0.085c0-0.32-0.09-0.578-0.269-0.772c-0.177-0.195-0.425-0.292-0.745-0.292
				c-0.274,0-0.515,0.051-0.717,0.153c-0.201,0.102-0.302,0.277-0.302,0.525c0,0.171,0.073,0.311,0.216,0.422
				c0.147,0.108,0.317,0.186,0.512,0.233l0.624,0.117c0.21,0.048,0.404,0.129,0.584,0.241c0.183,0.115,0.326,0.257,0.431,0.431
				c0.108,0.174,0.162,0.37,0.162,0.588c0,0.222-0.039,0.415-0.117,0.579c-0.075,0.162-0.181,0.296-0.319,0.404
				c-0.135,0.108-0.295,0.187-0.48,0.238c-0.186,0.051-0.38,0.076-0.584,0.076c-0.383,0-0.711-0.129-0.983-0.386l-0.337,0.364
				c0,0.015-0.016,0.022-0.049,0.022h-0.055C344.925,39.193,344.899,39.167,344.899,39.116z"/>
			<path id="path189" inkscape:connector-curvature="0" fill="#FFFFFF" d="M349.214,37.994v-2.03
				c0.001-0.165-0.025-0.283-0.076-0.355c-0.048-0.075-0.117-0.12-0.211-0.135c-0.094-0.019-0.235-0.028-0.43-0.028v-0.323
				l1.392-0.099v2.967c0,0.239,0.016,0.427,0.049,0.561c0.036,0.132,0.109,0.231,0.22,0.296c0.114,0.066,0.293,0.099,0.539,0.099
				c0.329,0,0.591-0.138,0.786-0.412c0.196-0.275,0.293-0.588,0.293-0.938v-1.634c0-0.165-0.025-0.283-0.076-0.355
				c-0.052-0.075-0.124-0.12-0.217-0.135c-0.09-0.019-0.232-0.028-0.427-0.028v-0.323l1.388-0.099v3.229
				c0,0.162,0.024,0.28,0.072,0.355c0.051,0.072,0.124,0.117,0.216,0.135c0.093,0.016,0.236,0.022,0.431,0.022v0.323l-1.361,0.103
				v-0.778c-0.115,0.23-0.272,0.418-0.476,0.561c-0.204,0.144-0.428,0.217-0.674,0.217c-0.44,0-0.79-0.094-1.051-0.278
				C349.342,38.726,349.214,38.419,349.214,37.994z"/>
			<path id="path191" inkscape:connector-curvature="0" fill="#FFFFFF" d="M354.279,39.089v-5.442c0-0.165-0.025-0.283-0.076-0.355
				c-0.048-0.075-0.117-0.12-0.211-0.135c-0.093-0.019-0.236-0.028-0.431-0.028v-0.323l1.361-0.099v2.878
				c0.103-0.115,0.22-0.213,0.355-0.296c0.138-0.088,0.284-0.153,0.44-0.198c0.154-0.045,0.314-0.067,0.476-0.067
				c0.275,0,0.53,0.055,0.763,0.165c0.236,0.112,0.442,0.263,0.615,0.458c0.173,0.195,0.308,0.419,0.403,0.674
				c0.1,0.251,0.148,0.512,0.148,0.781c0,0.37-0.091,0.717-0.274,1.036c-0.18,0.32-0.427,0.576-0.741,0.768
				c-0.311,0.189-0.654,0.284-1.028,0.284c-0.233,0-0.46-0.061-0.678-0.18c-0.219-0.12-0.4-0.278-0.543-0.476l-0.314,0.552h-0.266
				V39.089z M354.948,38.187c0.103,0.225,0.248,0.409,0.44,0.552c0.192,0.141,0.404,0.211,0.638,0.211
				c0.317,0,0.573-0.091,0.768-0.274c0.198-0.183,0.335-0.413,0.413-0.691c0.078-0.278,0.117-0.572,0.117-0.88
				c0-0.518-0.067-0.912-0.202-1.181c-0.061-0.12-0.142-0.23-0.247-0.332c-0.103-0.103-0.217-0.181-0.346-0.238
				c-0.126-0.06-0.259-0.091-0.4-0.091c-0.245,0-0.473,0.067-0.683,0.198c-0.21,0.129-0.376,0.302-0.498,0.522V38.187z"/>
			<path id="path193" inkscape:connector-curvature="0" fill="#FFFFFF" d="M358.729,39.116v-1.5c0-0.048,0.027-0.073,0.081-0.073
				h0.112c0.036,0,0.06,0.025,0.072,0.073c0.171,0.889,0.584,1.334,1.239,1.334c0.29,0,0.533-0.066,0.727-0.198
				c0.198-0.132,0.296-0.335,0.296-0.611c0-0.198-0.076-0.365-0.229-0.503c-0.153-0.141-0.334-0.236-0.543-0.287l-0.614-0.121
				c-0.207-0.045-0.395-0.114-0.567-0.207c-0.168-0.093-0.305-0.216-0.412-0.367c-0.109-0.156-0.162-0.335-0.162-0.54
				c0-0.269,0.07-0.489,0.21-0.66c0.144-0.174,0.329-0.298,0.558-0.373c0.228-0.079,0.473-0.117,0.736-0.117
				c0.314,0,0.588,0.085,0.822,0.251l0.265-0.229c0-0.015,0.015-0.022,0.045-0.022h0.067c0.018,0,0.034,0.009,0.049,0.027
				c0.015,0.015,0.022,0.031,0.022,0.049v1.203c0,0.057-0.024,0.085-0.072,0.085h-0.112c-0.054,0-0.081-0.028-0.081-0.085
				c0-0.32-0.091-0.578-0.269-0.772c-0.177-0.195-0.425-0.292-0.745-0.292c-0.275,0-0.515,0.051-0.718,0.153
				c-0.201,0.102-0.301,0.277-0.301,0.525c0,0.171,0.072,0.311,0.216,0.422c0.147,0.108,0.317,0.186,0.512,0.233l0.624,0.117
				c0.21,0.048,0.404,0.129,0.584,0.241c0.183,0.115,0.326,0.257,0.431,0.431c0.108,0.174,0.162,0.37,0.162,0.588
				c0,0.222-0.039,0.415-0.117,0.579c-0.075,0.162-0.181,0.296-0.319,0.404c-0.135,0.108-0.295,0.187-0.48,0.238
				c-0.186,0.051-0.38,0.076-0.584,0.076c-0.383,0-0.711-0.129-0.983-0.386l-0.337,0.364c0,0.015-0.016,0.022-0.049,0.022h-0.054
				C358.756,39.193,358.729,39.167,358.729,39.116z"/>
			<path id="path195" inkscape:connector-curvature="0" fill="#FFFFFF" d="M362.99,37.985v-2.537h-0.763V35.21
				c0.401,0,0.696-0.187,0.885-0.561c0.189-0.374,0.283-0.781,0.283-1.217h0.265v1.693h1.298v0.323h-1.298v2.519
				c0,0.254,0.043,0.477,0.126,0.669c0.087,0.192,0.241,0.287,0.462,0.287c0.21,0,0.361-0.1,0.454-0.301
				c0.093-0.204,0.139-0.422,0.139-0.656v-0.543h0.265v0.561c0,0.192-0.036,0.382-0.108,0.57c-0.069,0.186-0.172,0.338-0.31,0.458
				c-0.138,0.12-0.305,0.18-0.504,0.18c-0.367,0-0.659-0.109-0.876-0.329C363.096,38.643,362.99,38.35,362.99,37.985z"/>
			<path id="path197" inkscape:connector-curvature="0" fill="#FFFFFF" d="M365.994,38.187c0-0.365,0.144-0.662,0.431-0.889
				c0.287-0.23,0.632-0.391,1.033-0.485c0.405-0.096,0.788-0.144,1.15-0.144v-0.377c0-0.177-0.039-0.347-0.117-0.512
				c-0.078-0.168-0.19-0.304-0.337-0.409c-0.147-0.108-0.308-0.162-0.485-0.162c-0.407,0-0.717,0.091-0.93,0.275
				c0.117,0,0.213,0.045,0.287,0.135c0.079,0.087,0.117,0.189,0.117,0.305c0,0.124-0.043,0.228-0.13,0.314
				c-0.087,0.087-0.189,0.129-0.31,0.129c-0.124,0-0.228-0.043-0.314-0.129c-0.088-0.088-0.13-0.192-0.13-0.314
				c0-0.323,0.147-0.563,0.44-0.718c0.293-0.159,0.617-0.238,0.97-0.238c0.248,0,0.498,0.054,0.75,0.162
				c0.251,0.105,0.457,0.256,0.615,0.454c0.162,0.198,0.242,0.428,0.242,0.692v2.07c0,0.12,0.025,0.23,0.076,0.332
				c0.052,0.1,0.13,0.148,0.238,0.148c0.103,0,0.177-0.051,0.226-0.153c0.051-0.102,0.076-0.211,0.076-0.328v-0.588h0.269v0.588
				c0,0.138-0.036,0.269-0.108,0.395c-0.072,0.123-0.169,0.222-0.292,0.296c-0.12,0.072-0.25,0.108-0.391,0.108
				c-0.18,0-0.335-0.069-0.467-0.207c-0.129-0.141-0.201-0.307-0.217-0.498c-0.114,0.23-0.281,0.415-0.503,0.552
				c-0.222,0.135-0.458,0.202-0.709,0.202c-0.233,0-0.464-0.034-0.691-0.103c-0.225-0.069-0.413-0.177-0.566-0.323
				C366.069,38.616,365.994,38.423,365.994,38.187z M366.739,38.187c0,0.216,0.079,0.397,0.238,0.543
				c0.159,0.147,0.346,0.22,0.562,0.22c0.198,0,0.376-0.049,0.538-0.148c0.162-0.099,0.29-0.233,0.386-0.404
				c0.096-0.171,0.144-0.35,0.144-0.539v-0.956c-0.278,0-0.564,0.046-0.858,0.138c-0.29,0.091-0.531,0.232-0.722,0.427
				C366.836,37.664,366.739,37.902,366.739,38.187L366.739,38.187z"/>
			<path id="path199" inkscape:connector-curvature="0" fill="#FFFFFF" d="M370.499,39.089v-0.323c0.21,0,0.382-0.016,0.516-0.049
				c0.134-0.033,0.201-0.114,0.201-0.242v-2.509c0-0.165-0.025-0.284-0.076-0.355c-0.048-0.075-0.117-0.12-0.211-0.135
				c-0.093-0.018-0.237-0.027-0.431-0.027v-0.323l1.334-0.1v0.898c0.123-0.263,0.304-0.479,0.543-0.647
				c0.242-0.168,0.506-0.251,0.79-0.251c0.425,0,0.744,0.103,0.956,0.305c0.216,0.204,0.323,0.515,0.323,0.934v2.209
				c0,0.129,0.067,0.21,0.202,0.242c0.135,0.034,0.307,0.049,0.516,0.049v0.323h-2.106v-0.323c0.21,0,0.382-0.016,0.516-0.049
				c0.135-0.033,0.201-0.114,0.201-0.242v-2.182c0-0.299-0.043-0.545-0.129-0.736c-0.088-0.195-0.265-0.293-0.534-0.293
				c-0.356,0-0.65,0.142-0.88,0.427c-0.228,0.284-0.341,0.608-0.341,0.971v1.813c0,0.129,0.067,0.21,0.202,0.242
				c0.135,0.033,0.305,0.049,0.512,0.049v0.323H370.499z"/>
			<path id="path201" inkscape:connector-curvature="0" fill="#FFFFFF" d="M377.616,39.193c-0.372,0-0.708-0.096-1.01-0.287
				c-0.302-0.195-0.54-0.452-0.714-0.772c-0.174-0.323-0.262-0.666-0.26-1.028c-0.001-0.362,0.085-0.709,0.256-1.042
				c0.174-0.332,0.412-0.597,0.714-0.795c0.305-0.201,0.644-0.302,1.015-0.302c0.359,0,0.686,0.07,0.978,0.211
				c0.296,0.141,0.445,0.371,0.445,0.691c0,0.121-0.044,0.225-0.13,0.314c-0.084,0.087-0.188,0.13-0.311,0.13
				c-0.121,0-0.228-0.043-0.314-0.13c-0.084-0.09-0.126-0.195-0.126-0.314c0-0.108,0.034-0.201,0.103-0.278
				c0.069-0.081,0.154-0.132,0.256-0.153c-0.213-0.135-0.51-0.202-0.894-0.202c-0.293,0-0.53,0.097-0.709,0.293
				c-0.18,0.195-0.305,0.436-0.377,0.723c-0.072,0.287-0.108,0.572-0.108,0.852c0,0.296,0.043,0.584,0.13,0.862
				c0.09,0.275,0.232,0.504,0.427,0.687c0.198,0.18,0.445,0.269,0.741,0.269c0.29,0,0.537-0.088,0.742-0.265
				c0.204-0.18,0.343-0.413,0.418-0.701c0-0.036,0.024-0.054,0.072-0.054h0.112c0.018,0,0.034,0.009,0.049,0.027
				c0.016,0.015,0.022,0.033,0.022,0.054v0.027c-0.093,0.362-0.277,0.65-0.552,0.862C378.314,39.086,377.99,39.193,377.616,39.193z"
				/>
			<path id="path203" inkscape:connector-curvature="0" fill="#FFFFFF" d="M381.693,39.193c-0.374,0-0.718-0.097-1.034-0.292
				c-0.311-0.198-0.557-0.46-0.736-0.786c-0.177-0.329-0.266-0.677-0.265-1.042c-0.001-0.359,0.081-0.701,0.242-1.024
				c0.165-0.323,0.392-0.585,0.683-0.781c0.293-0.201,0.62-0.301,0.979-0.301c0.281,0,0.525,0.048,0.732,0.144
				c0.21,0.093,0.382,0.223,0.516,0.391c0.135,0.168,0.238,0.365,0.305,0.593c0.068,0.228,0.103,0.477,0.103,0.75
				c0,0.082-0.031,0.121-0.094,0.121h-2.663v0.099c0,0.51,0.102,0.946,0.305,1.311c0.207,0.364,0.542,0.548,1.006,0.548
				c0.189,0,0.362-0.042,0.521-0.126c0.162-0.085,0.301-0.201,0.418-0.35c0.12-0.15,0.201-0.31,0.242-0.48
				c0.006-0.021,0.016-0.039,0.031-0.054c0.018-0.018,0.037-0.027,0.059-0.027h0.081c0.063,0,0.094,0.039,0.094,0.117
				c-0.087,0.347-0.274,0.633-0.561,0.858C382.37,39.082,382.048,39.193,381.693,39.193z M380.472,36.736h2.097
				c0-0.23-0.033-0.464-0.099-0.701c-0.063-0.236-0.169-0.433-0.32-0.588c-0.15-0.159-0.346-0.238-0.587-0.238
				c-0.347,0-0.617,0.163-0.808,0.489C380.566,36.023,380.471,36.368,380.472,36.736z"/>
		</g>
	</g>
</g>
</svg>
