<?xml version="1.0" encoding="UTF-8" standalone="no"?>
<!-- Created with Inkscape (http://www.inkscape.org/) -->

<svg
   xmlns:dc="http://purl.org/dc/elements/1.1/"
   xmlns:cc="http://creativecommons.org/ns#"
   xmlns:rdf="http://www.w3.org/1999/02/22-rdf-syntax-ns#"
   xmlns:svg="http://www.w3.org/2000/svg"
   xmlns="http://www.w3.org/2000/svg"
   version="1.2"
   width="320"
   height="60"
   id="svg3020">
  <metadata
     id="metadata3026">
    <rdf:RDF>
      <cc:Work
         rdf:about="">
        <dc:format>image/svg+xml</dc:format>
        <dc:type
           rdf:resource="http://purl.org/dc/dcmitype/StillImage" />
        <dc:title></dc:title>
      </cc:Work>
    </rdf:RDF>
  </metadata>
  <defs
     id="defs3024" />
  <text
     x="44.56657"
     y="42.23513"
     transform="scale(0.95814898,1.043679)"
     id="text3030"
     xml:space="preserve"
     style="font-size:41.02812958px;font-style:normal;font-variant:normal;font-weight:normal;font-stretch:normal;line-height:125%;letter-spacing:0px;word-spacing:0px;fill:#000000;fill-opacity:1;stroke:none;font-family:Cambria Math;-inkscape-font-specification:Cambria Math"><tspan
       x="44.56657"
       y="42.23513"
       id="tspan3032" /></text>
  <path
     d="m 96.121119,31.182744 204.614841,0"
     id="path3142-1"
     style="fill:#ffffff;stroke:#ffffff;stroke-width:1.12619078px;stroke-linecap:butt;stroke-linejoin:miter;stroke-opacity:1" />
  <g
     id="text4431"
     style="font-size:14.92181969px;font-style:normal;font-variant:normal;font-weight:normal;font-stretch:normal;text-align:start;text-anchor:start;fill:#ffffff;stroke:none;font-family:cmb10;-inkscape-font-specification:cmb10">
    <path
       d="m 70.545062,33.750418 c -0.116578,-0.01457 -0.217368,-0.06436 -0.302371,-0.149364 -0.085,-0.085 -0.127506,-0.185792 -0.127506,-0.302371 0,-0.111717 0.04007,-0.210078 0.12022,-0.295085 0.08015,-0.085 0.183365,-0.139646 0.309657,-0.163936 l 9.071126,0 c 0.121423,0.02429 0.222214,0.07894 0.302371,0.163936 0.08014,0.08501 0.120209,0.183368 0.120219,0.295085 -10e-6,0.116579 -0.04251,0.217369 -0.127505,0.302371 -0.08501,0.08501 -0.183376,0.134794 -0.295085,0.149364 z m 0,-3.329722 c -0.116578,-0.01457 -0.217368,-0.06435 -0.302371,-0.149364 -0.085,-0.085 -0.127506,-0.183361 -0.127506,-0.295085 0,-0.116571 0.04007,-0.217362 0.12022,-0.302371 0.08015,-0.085 0.183365,-0.139643 0.309657,-0.163936 l 9.071126,0 c 0.121423,0.02429 0.222214,0.07894 0.302371,0.163936 0.08014,0.08501 0.120209,0.1858 0.120219,0.302371 -10e-6,0.111724 -0.04251,0.210086 -0.127505,0.295085 -0.08501,0.08501 -0.183376,0.134796 -0.295085,0.149364 z"
       id="path3813"
       style="font-size:14.92181969px;font-style:normal;font-variant:normal;font-weight:normal;font-stretch:normal;text-align:start;text-anchor:start;fill:#ffffff;stroke:none;font-family:cmb10;-inkscape-font-specification:cmb10" />
  </g>
  <g
     id="text4433"
     style="font-size:14.92181969px;font-style:normal;font-variant:normal;font-weight:normal;font-stretch:normal;text-align:start;text-anchor:start;fill:#ffffff;stroke:none;font-family:cmr10;-inkscape-font-specification:cmr10" />
  <g
     id="text4437"
     style="font-size:14.92181969px;font-style:normal;font-variant:normal;font-weight:normal;font-stretch:normal;text-align:start;text-anchor:start;fill:#ffffff;stroke:none;font-family:cmr10;-inkscape-font-specification:cmr10">
    <path
       d="m 121.14232,45.357028 c 0,-0.354588 0.12872,-0.664244 0.38616,-0.92897 0.25744,-0.264727 0.56345,-0.452949 0.91804,-0.564669 -0.19915,-0.150578 -0.35095,-0.340014 -0.45538,-0.568311 -0.10443,-0.228295 -0.15665,-0.471163 -0.15665,-0.728605 0,-0.466304 0.14815,-0.87918 0.44445,-1.238627 -0.45659,-0.446874 -0.68489,-0.959326 -0.68489,-1.537356 0,-0.310866 0.0668,-0.602308 0.20037,-0.874325 0.13357,-0.272007 0.31937,-0.507589 0.55738,-0.706746 0.23801,-0.199146 0.50274,-0.350939 0.79418,-0.455378 0.29144,-0.104427 0.59017,-0.156644 0.89618,-0.15665 0.5926,6e-6 1.12448,0.172443 1.59565,0.517309 0.204,-0.218575 0.44565,-0.387368 0.72496,-0.50638 0.27929,-0.118999 0.56952,-0.178501 0.87068,-0.178508 0.21372,7e-6 0.38858,0.07651 0.5246,0.22951 0.13599,0.153013 0.204,0.336379 0.20401,0.550097 -10e-6,0.121439 -0.0462,0.228301 -0.13844,0.320586 -0.0923,0.0923 -0.19916,0.13844 -0.32059,0.138434 -0.12629,6e-6 -0.23558,-0.04614 -0.32787,-0.138434 -0.0923,-0.09229 -0.13844,-0.199147 -0.13843,-0.320586 -1e-5,-0.184574 0.0607,-0.313294 0.18215,-0.386161 -0.51489,7e-6 -0.95691,0.1773 -1.32606,0.531881 0.17972,0.179729 0.32422,0.399524 0.43352,0.659387 0.10928,0.259874 0.16393,0.518529 0.16393,0.775964 0,0.422595 -0.11658,0.802683 -0.34973,1.140266 -0.23315,0.33759 -0.54038,0.599887 -0.92168,0.786893 -0.38131,0.187011 -0.77354,0.280515 -1.1767,0.280513 -0.54402,2e-6 -1.0419,-0.148147 -1.49364,-0.444449 -0.14086,0.194297 -0.21129,0.412878 -0.21129,0.655744 0,0.262299 0.0862,0.49181 0.25865,0.688531 0.17244,0.196725 0.3898,0.295086 0.6521,0.295085 l 1.22406,0 c 0.59259,1e-6 1.1269,0.05343 1.60293,0.160293 0.47602,0.106863 0.87553,0.320587 1.19855,0.641172 0.32301,0.320586 0.48452,0.774749 0.48453,1.36249 -1e-5,0.437162 -0.18459,0.800249 -0.55374,1.089264 -0.36917,0.289011 -0.80997,0.497877 -1.32242,0.6266 -0.51246,0.128717 -0.98726,0.193077 -1.42442,0.19308 -0.44203,-3e-6 -0.92048,-0.06436 -1.43535,-0.19308 -0.51489,-0.128723 -0.95691,-0.337589 -1.32606,-0.6266 -0.36916,-0.289015 -0.55374,-0.652102 -0.55374,-1.089264 z m 0.83789,0 c 0,0.335157 0.13601,0.615669 0.40802,0.841539 0.27201,0.225865 0.59988,0.393444 0.98362,0.502737 0.38373,0.109288 0.7456,0.163933 1.08562,0.163936 0.33515,-3e-6 0.6946,-0.05465 1.07833,-0.163936 0.38373,-0.109293 0.71039,-0.276872 0.97998,-0.502737 0.26957,-0.22587 0.40436,-0.506382 0.40437,-0.841539 -1e-5,-0.519738 -0.23802,-0.85611 -0.71403,-1.009117 -0.47603,-0.153007 -1.05405,-0.22951 -1.73408,-0.22951 l -1.22406,0 c -0.22829,0 -0.43837,0.05465 -0.63024,0.163936 -0.19187,0.10929 -0.34609,0.262297 -0.46266,0.459021 -0.11658,0.196722 -0.17487,0.401946 -0.17487,0.61567 z m 2.06195,-3.759599 c 0.84518,3e-6 1.26777,-0.602309 1.26777,-1.806939 0,-0.519733 -0.0899,-0.948395 -0.26958,-1.285987 -0.17973,-0.33758 -0.51245,-0.506374 -0.99819,-0.50638 -0.48574,6e-6 -0.81847,0.1688 -0.99819,0.50638 -0.17972,0.337592 -0.26958,0.766254 -0.26958,1.285987 0,0.330305 0.034,0.629033 0.10201,0.896184 0.068,0.267158 0.19429,0.485739 0.37887,0.655744 0.18458,0.17001 0.44687,0.255014 0.78689,0.255011 z"
       id="path3773"
       style="font-size:14.92181969px;font-style:normal;font-variant:normal;font-weight:normal;font-stretch:normal;text-align:start;text-anchor:start;fill:#ffffff;stroke:none;font-family:cmr10;-inkscape-font-specification:cmr10" />
    <path
       d="m 128.57408,44.191261 0,-0.524595 c 0.34002,10e-7 0.61932,-0.02671 0.8379,-0.08015 0.21858,-0.05343 0.32787,-0.184579 0.32787,-0.393447 l 0,-4.072899 c 0,-0.26715 -0.0401,-0.460229 -0.12022,-0.57924 -0.0802,-0.119 -0.19551,-0.19186 -0.34609,-0.218582 -0.15058,-0.02671 -0.38373,-0.04007 -0.69946,-0.04007 l 0,-0.524595 2.13481,-0.160293 0,1.457209 c 0.16029,-0.4323 0.38859,-0.783244 0.68489,-1.052834 0.2963,-0.269577 0.65574,-0.404369 1.07834,-0.404375 0.29629,6e-6 0.56102,0.08744 0.79418,0.262297 0.23314,0.174872 0.34972,0.405596 0.34973,0.692175 -1e-5,0.179728 -0.0644,0.336377 -0.19308,0.46995 -0.12873,0.133582 -0.28781,0.200371 -0.47724,0.200366 -0.18458,5e-6 -0.34245,-0.06557 -0.47359,-0.196723 -0.13116,-0.131144 -0.19673,-0.289008 -0.19673,-0.473593 0,-0.267149 0.0947,-0.456586 0.28416,-0.568312 l -0.0874,0 c -0.40317,6e-6 -0.73225,0.145727 -0.98726,0.437163 -0.25502,0.291447 -0.43595,0.65332 -0.54281,1.085621 -0.10687,0.432309 -0.1603,0.845185 -0.1603,1.238627 l 0,2.448111 c 0,0.315729 0.48331,0.473594 1.44993,0.473593 l 0,0.524595 z"
       id="path3775"
       style="font-size:14.92181969px;font-style:normal;font-variant:normal;font-weight:normal;font-stretch:normal;text-align:start;text-anchor:start;fill:#ffffff;stroke:none;font-family:cmr10;-inkscape-font-specification:cmr10" />
    <path
       d="m 134.61421,42.726766 c 0,-0.592596 0.23316,-1.074689 0.69946,-1.44628 0.46631,-0.371585 1.02612,-0.633882 1.67944,-0.786892 0.65331,-0.153004 1.27384,-0.229507 1.86158,-0.229511 l 0,-0.612028 c 0,-0.286579 -0.0632,-0.564663 -0.18944,-0.834252 -0.12629,-0.269578 -0.30844,-0.490588 -0.54645,-0.66303 -0.23801,-0.17243 -0.50031,-0.258648 -0.78689,-0.258654 -0.66061,6e-6 -1.16334,0.148155 -1.50821,0.444448 0.18943,6e-6 0.34608,0.07165 0.46995,0.214939 0.12386,0.143297 0.18579,0.309662 0.18579,0.499094 0,0.199157 -0.0704,0.369164 -0.21129,0.510023 -0.14087,0.140868 -0.30845,0.2113 -0.50274,0.211295 -0.19915,5e-6 -0.36916,-0.07043 -0.51002,-0.211295 -0.14087,-0.140859 -0.2113,-0.310866 -0.2113,-0.510023 0,-0.52459 0.23801,-0.914393 0.71403,-1.16941 0.47602,-0.255005 1.00062,-0.382511 1.57379,-0.382518 0.40316,7e-6 0.80875,0.08623 1.21677,0.258655 0.40801,0.172442 0.74195,0.418953 1.00183,0.739533 0.25986,0.320592 0.3898,0.694608 0.3898,1.122051 l 0,3.358867 c 0,0.194295 0.0413,0.372803 0.12387,0.535524 0.0826,0.162722 0.21128,0.244083 0.38616,0.244083 0.16514,0 0.28779,-0.08257 0.36794,-0.247726 0.0801,-0.165149 0.12021,-0.342443 0.12022,-0.531881 l 0,-0.954472 0.43716,0 0,0.954472 c 0,0.22344 -0.0583,0.435949 -0.17486,0.637529 -0.11659,0.201581 -0.27324,0.361874 -0.46995,0.480879 -0.19673,0.119005 -0.40924,0.178508 -0.63753,0.178508 -0.29145,0 -0.54282,-0.112934 -0.75411,-0.338801 -0.2113,-0.225867 -0.32909,-0.494236 -0.35337,-0.805108 -0.18458,0.374017 -0.4566,0.671531 -0.81604,0.89254 -0.35945,0.22101 -0.74318,0.331515 -1.15119,0.331515 -0.37888,0 -0.75168,-0.05586 -1.11841,-0.167579 -0.36673,-0.111719 -0.67275,-0.287798 -0.91804,-0.528238 -0.2453,-0.240439 -0.36795,-0.552524 -0.36795,-0.936257 z m 1.20949,0 c 0,0.349732 0.12872,0.643602 0.38616,0.881612 0.25744,0.238011 0.56102,0.357016 0.91075,0.357016 0.32059,0 0.61203,-0.08015 0.87433,-0.24044 0.26229,-0.160292 0.47116,-0.378873 0.6266,-0.655744 0.15543,-0.276868 0.23315,-0.568309 0.23315,-0.874325 l 0,-1.551928 c -0.45174,4e-6 -0.9144,0.07408 -1.38799,0.222225 -0.4736,0.148153 -0.86583,0.380091 -1.1767,0.695817 -0.31087,0.315731 -0.4663,0.70432 -0.4663,1.165767 z"
       id="path3777"
       style="font-size:14.92181969px;font-style:normal;font-variant:normal;font-weight:normal;font-stretch:normal;text-align:start;text-anchor:start;fill:#ffffff;stroke:none;font-family:cmr10;-inkscape-font-specification:cmr10" />
    <path
       d="m 141.92212,44.191261 0,-0.524595 c 0.34001,10e-7 0.61931,-0.02671 0.83789,-0.08015 0.21858,-0.05343 0.32787,-0.184579 0.32787,-0.393447 l 0,-4.072899 c 0,-0.26715 -0.0401,-0.460229 -0.12022,-0.57924 -0.0801,-0.119 -0.19551,-0.19186 -0.34608,-0.218582 -0.15058,-0.02671 -0.38373,-0.04007 -0.69946,-0.04007 l 0,-0.524595 2.16395,-0.160293 0,1.457209 c 0.19915,-0.427443 0.49424,-0.777172 0.88526,-1.049191 0.39101,-0.272006 0.81724,-0.408012 1.2787,-0.408018 1.14633,6e-6 1.81907,0.466313 2.01823,1.39892 0.19915,-0.417727 0.49059,-0.755314 0.87433,-1.01276 0.38372,-0.257434 0.80388,-0.386154 1.26048,-0.38616 0.45173,6e-6 0.83182,0.07287 1.14027,0.218581 0.30843,0.145727 0.54037,0.367951 0.69582,0.666673 0.15542,0.298733 0.23314,0.673964 0.23315,1.125694 l 0,3.584734 c -1e-5,0.208868 0.11049,0.340016 0.33152,0.393447 0.22099,0.05343 0.49908,0.08015 0.83425,0.08015 l 0,0.524595 -3.41716,0 0,-0.524595 c 0.34001,1e-6 0.61931,-0.02671 0.8379,-0.08015 0.21857,-0.05343 0.32786,-0.184579 0.32787,-0.393447 l 0,-3.541018 c -10e-6,-0.500303 -0.0704,-0.903464 -0.2113,-1.209483 -0.14087,-0.306008 -0.42988,-0.459015 -0.86703,-0.459021 -0.57318,6e-6 -1.04677,0.230731 -1.42078,0.692174 -0.37403,0.461455 -0.56104,0.98605 -0.56103,1.573786 l 0,2.943562 c -1e-5,0.208868 0.10928,0.340016 0.32787,0.393447 0.21858,0.05343 0.49787,0.08015 0.8379,0.08015 l 0,0.524595 -3.41716,0 0,-0.524595 c 0.34001,1e-6 0.61931,-0.02671 0.8379,-0.08015 0.21857,-0.05343 0.32786,-0.184579 0.32787,-0.393447 l 0,-3.541018 c -1e-5,-0.485731 -0.0704,-0.885249 -0.2113,-1.198554 -0.14086,-0.313294 -0.42988,-0.469944 -0.86703,-0.46995 -0.57803,6e-6 -1.05284,0.230731 -1.42443,0.692174 -0.37159,0.461455 -0.55738,0.98605 -0.55738,1.573786 l 0,2.943562 c 0,0.208868 0.10929,0.340016 0.32787,0.393447 0.21858,0.05343 0.49545,0.08015 0.83061,0.08015 l 0,0.524595 z"
       id="path3779"
       style="font-size:14.92181969px;font-style:normal;font-variant:normal;font-weight:normal;font-stretch:normal;text-align:start;text-anchor:start;fill:#ffffff;stroke:none;font-family:cmr10;-inkscape-font-specification:cmr10" />
    <path
       d="m 159.35034,44.191261 0,-0.524595 c 0.34001,10e-7 0.61931,-0.02671 0.83789,-0.08015 0.21858,-0.05343 0.32787,-0.184579 0.32787,-0.393447 l 0,-4.072899 c 0,-0.26715 -0.0401,-0.460229 -0.12022,-0.57924 -0.0801,-0.119 -0.19551,-0.19186 -0.34608,-0.218582 -0.15058,-0.02671 -0.38374,-0.04007 -0.69946,-0.04007 l 0,-0.524595 2.16395,-0.160293 0,1.457209 c 0.19915,-0.427443 0.49424,-0.777172 0.88526,-1.049191 0.39101,-0.272006 0.81724,-0.408012 1.2787,-0.408018 1.14633,6e-6 1.81907,0.466313 2.01823,1.39892 0.19915,-0.417727 0.49059,-0.755314 0.87433,-1.01276 0.38372,-0.257434 0.80388,-0.386154 1.26048,-0.38616 0.45173,6e-6 0.83182,0.07287 1.14027,0.218581 0.30843,0.145727 0.54037,0.367951 0.69582,0.666673 0.15542,0.298733 0.23314,0.673964 0.23315,1.125694 l 0,3.584734 c -1e-5,0.208868 0.11049,0.340016 0.33151,0.393447 0.221,0.05343 0.49909,0.08015 0.83426,0.08015 l 0,0.524595 -3.41716,0 0,-0.524595 c 0.34001,1e-6 0.61931,-0.02671 0.8379,-0.08015 0.21857,-0.05343 0.32786,-0.184579 0.32787,-0.393447 l 0,-3.541018 c -1e-5,-0.500303 -0.0704,-0.903464 -0.2113,-1.209483 -0.14087,-0.306008 -0.42988,-0.459015 -0.86704,-0.459021 -0.57317,6e-6 -1.04677,0.230731 -1.42077,0.692174 -0.37403,0.461455 -0.56104,0.98605 -0.56103,1.573786 l 0,2.943562 c -1e-5,0.208868 0.10928,0.340016 0.32787,0.393447 0.21858,0.05343 0.49787,0.08015 0.8379,0.08015 l 0,0.524595 -3.41716,0 0,-0.524595 c 0.34001,1e-6 0.61931,-0.02671 0.8379,-0.08015 0.21857,-0.05343 0.32786,-0.184579 0.32787,-0.393447 l 0,-3.541018 c -1e-5,-0.485731 -0.0704,-0.885249 -0.2113,-1.198554 -0.14087,-0.313294 -0.42988,-0.469944 -0.86704,-0.46995 -0.57803,6e-6 -1.05283,0.230731 -1.42442,0.692174 -0.37159,0.461455 -0.55738,0.98605 -0.55738,1.573786 l 0,2.943562 c 0,0.208868 0.10929,0.340016 0.32787,0.393447 0.21858,0.05343 0.49545,0.08015 0.83061,0.08015 l 0,0.524595 z"
       id="path3781"
       style="font-size:14.92181969px;font-style:normal;font-variant:normal;font-weight:normal;font-stretch:normal;text-align:start;text-anchor:start;fill:#ffffff;stroke:none;font-family:cmr10;-inkscape-font-specification:cmr10" />
    <path
       d="m 175.08091,44.35884 c -0.59746,0 -1.1512,-0.151792 -1.66122,-0.455377 -0.51003,-0.303585 -0.91319,-0.710389 -1.20948,-1.220413 -0.2963,-0.510021 -0.44445,-1.066189 -0.44445,-1.668504 0,-0.456589 0.0814,-0.89618 0.24408,-1.318774 0.16272,-0.422586 0.39587,-0.800246 0.69946,-1.13298 0.30358,-0.332724 0.65696,-0.592592 1.06012,-0.779607 0.40316,-0.187002 0.84032,-0.280506 1.31149,-0.280513 0.61202,7e-6 1.1694,0.161514 1.67214,0.484522 0.50274,0.323021 0.89982,0.755326 1.19127,1.296916 0.29144,0.5416 0.43716,1.118412 0.43717,1.730436 -1e-5,0.597458 -0.14816,1.152411 -0.44445,1.664861 -0.29631,0.512453 -0.69825,0.920471 -1.20584,1.224056 -0.5076,0.303585 -1.0577,0.455377 -1.65029,0.455377 z m 0,-0.437162 c 0.7966,0 1.32848,-0.289013 1.59564,-0.86704 0.26715,-0.578024 0.40073,-1.313914 0.40073,-2.207671 0,-0.500305 -0.0267,-0.914395 -0.0801,-1.242271 -0.0534,-0.327867 -0.17002,-0.62538 -0.34973,-0.89254 -0.11173,-0.165145 -0.25381,-0.309651 -0.42624,-0.43352 -0.17244,-0.123857 -0.35459,-0.218575 -0.54645,-0.284156 -0.19187,-0.06557 -0.38981,-0.09836 -0.59381,-0.09836 -0.31088,6e-6 -0.60596,0.07044 -0.88526,0.211295 -0.2793,0.140869 -0.51124,0.34245 -0.69581,0.604742 -0.18459,0.281732 -0.30238,0.591388 -0.35338,0.92897 -0.051,0.337591 -0.0765,0.739538 -0.0765,1.205841 0,0.558599 0.0486,1.060122 0.14572,1.504568 0.0971,0.44445 0.29265,0.817252 0.58653,1.118408 0.29386,0.301157 0.7201,0.451735 1.2787,0.451735 z"
       id="path3783"
       style="font-size:14.92181969px;font-style:normal;font-variant:normal;font-weight:normal;font-stretch:normal;text-align:start;text-anchor:start;fill:#ffffff;stroke:none;font-family:cmr10;-inkscape-font-specification:cmr10" />
    <path
       d="m 179.27038,44.191261 0,-0.524595 c 0.34002,10e-7 0.61932,-0.02671 0.8379,-0.08015 0.21858,-0.05343 0.32787,-0.184579 0.32787,-0.393447 l 0,-7.832498 c 0,-0.267146 -0.0401,-0.460226 -0.12022,-0.579241 -0.0802,-0.118995 -0.19551,-0.191856 -0.34609,-0.218581 -0.15057,-0.02671 -0.38373,-0.04006 -0.69946,-0.04007 l 0,-0.524595 2.21496,-0.160293 0,9.355281 c 0,0.208868 0.10929,0.340016 0.32787,0.393447 0.21858,0.05343 0.49545,0.08015 0.83061,0.08015 l 0,0.524595 z"
       id="path3785"
       style="font-size:14.92181969px;font-style:normal;font-variant:normal;font-weight:normal;font-stretch:normal;text-align:start;text-anchor:start;fill:#ffffff;stroke:none;font-family:cmr10;-inkscape-font-specification:cmr10" />
    <path
       d="m 186.66572,44.35884 c -0.60717,0 -1.16456,-0.159078 -1.67215,-0.477236 -0.50759,-0.318156 -0.9059,-0.743175 -1.19491,-1.275057 -0.28901,-0.53188 -0.43352,-1.094119 -0.43352,-1.68672 0,-0.58288 0.13236,-1.136618 0.39709,-1.661218 0.26473,-0.52459 0.63389,-0.948394 1.10748,-1.271415 0.47359,-0.323008 1.00183,-0.484515 1.58471,-0.484522 0.45659,7e-6 0.85368,0.07651 1.19127,0.229511 0.33758,0.153013 0.61567,0.365522 0.83425,0.637529 0.21858,0.272017 0.38373,0.592603 0.49546,0.961757 0.11171,0.369165 0.16757,0.774754 0.16757,1.21677 0,0.131152 -0.051,0.196727 -0.153,0.196723 l -4.32063,0 0,0.160293 c 0,0.825754 0.16637,1.534929 0.4991,2.127525 0.33272,0.592599 0.87553,0.888898 1.62843,0.888898 0.30601,0 0.58895,-0.068 0.84882,-0.20401 0.25987,-0.136005 0.48573,-0.325442 0.6776,-0.568311 0.19187,-0.242867 0.3218,-0.502736 0.38981,-0.779607 0.01,-0.034 0.0279,-0.06436 0.0546,-0.09108 0.0267,-0.02671 0.0571,-0.04007 0.0911,-0.04007 l 0.13115,0 c 0.102,2e-6 0.153,0.06315 0.153,0.189437 -0.14086,0.563456 -0.44445,1.026119 -0.91075,1.387992 -0.46631,0.361874 -0.98848,0.54281 -1.5665,0.54281 z m -1.9818,-3.985466 3.40258,0 c -1e-5,-0.374013 -0.0522,-0.752887 -0.15665,-1.136623 -0.10444,-0.383727 -0.27809,-0.703098 -0.52095,-0.958115 -0.24288,-0.255005 -0.56103,-0.382511 -0.95448,-0.382517 -0.56345,6e-6 -0.9994,0.263518 -1.30784,0.790535 -0.30845,0.527029 -0.46267,1.089269 -0.46266,1.68672 z"
       id="path3787"
       style="font-size:14.92181969px;font-style:normal;font-variant:normal;font-weight:normal;font-stretch:normal;text-align:start;text-anchor:start;fill:#ffffff;stroke:none;font-family:cmr10;-inkscape-font-specification:cmr10" />
    <path
       d="m 193.28145,44.35884 c -0.60232,0 -1.14877,-0.15665 -1.63936,-0.46995 -0.4906,-0.313299 -0.87676,-0.731032 -1.15848,-1.253199 -0.28173,-0.522165 -0.42259,-1.077118 -0.42259,-1.664861 0,-0.587738 0.13965,-1.151191 0.41895,-1.690363 0.27929,-0.539162 0.66545,-0.970252 1.15848,-1.293273 0.49302,-0.323008 1.04068,-0.484515 1.643,-0.484522 0.58288,7e-6 1.11355,0.114155 1.592,0.342444 0.47845,0.228302 0.71767,0.602319 0.71768,1.122051 -1e-5,0.1943 -0.0692,0.363093 -0.20766,0.50638 -0.13844,0.143297 -0.30723,0.214943 -0.50638,0.214939 -0.19915,4e-6 -0.36795,-0.07164 -0.50638,-0.214939 -0.13844,-0.143287 -0.20765,-0.31208 -0.20765,-0.50638 0,-0.174859 0.0559,-0.326652 0.16758,-0.455378 0.11171,-0.128714 0.25015,-0.210075 0.4153,-0.244082 -0.34487,-0.218575 -0.82818,-0.327866 -1.44992,-0.327872 -0.47602,6e-6 -0.85975,0.15787 -1.15119,0.473593 -0.29145,0.315734 -0.49546,0.706751 -0.61203,1.173053 -0.11658,0.466311 -0.17487,0.92776 -0.17487,1.384349 0,0.480881 0.0716,0.945973 0.21494,1.395277 0.14329,0.449308 0.37402,0.820895 0.69218,1.114765 0.31815,0.293871 0.71767,0.440806 1.19855,0.440806 0.47116,0 0.87189,-0.144507 1.2022,-0.43352 0.33029,-0.289012 0.55616,-0.666672 0.6776,-1.13298 -1e-5,-0.05829 0.0388,-0.08743 0.11658,-0.08743 l 0.18215,0 c 0.0291,2e-6 0.0558,0.01336 0.0801,0.04007 0.0243,0.02672 0.0364,0.05708 0.0364,0.09107 l 0,0.04372 c -0.15059,0.587742 -0.44932,1.054048 -0.89619,1.39892 -0.44688,0.344873 -0.9739,0.517309 -1.58107,0.517309 z"
       id="path3789"
       style="font-size:14.92181969px;font-style:normal;font-variant:normal;font-weight:normal;font-stretch:normal;text-align:start;text-anchor:start;fill:#ffffff;stroke:none;font-family:cmr10;-inkscape-font-specification:cmr10" />
    <path
       d="m 197.79151,42.413466 0,-3.293292 c 0,-0.26715 -0.0401,-0.460229 -0.12022,-0.57924 -0.0801,-0.119 -0.19551,-0.19186 -0.34608,-0.218582 -0.15058,-0.02671 -0.38374,-0.04007 -0.69946,-0.04007 l 0,-0.524595 2.25867,-0.160293 0,4.816075 c 0,0.388591 0.0279,0.690961 0.0838,0.907113 0.0559,0.216153 0.17486,0.37766 0.35702,0.484522 0.18214,0.106862 0.47237,0.160293 0.87068,0.160293 0.5343,0 0.95932,-0.223438 1.27506,-0.670316 0.31572,-0.446876 0.47358,-0.95447 0.47359,-1.522784 l 0,-2.65212 c -1e-5,-0.26715 -0.0413,-0.460229 -0.12386,-0.57924 -0.0826,-0.119 -0.19795,-0.19186 -0.34609,-0.218582 -0.14816,-0.02671 -0.38009,-0.04007 -0.69582,-0.04007 l 0,-0.524595 2.25139,-0.160293 0,5.238666 c -1e-5,0.262299 0.0401,0.45295 0.12022,0.571954 0.0801,0.119007 0.1955,0.191867 0.34609,0.218582 0.15057,0.02672 0.38372,0.04007 0.69946,0.04007 l 0,0.524595 -2.20768,0.167579 0,-1.260485 c -0.18458,0.374017 -0.44202,0.677602 -0.77232,0.910755 -0.3303,0.233154 -0.6946,0.34973 -1.0929,0.34973 -0.71404,0 -1.28113,-0.151792 -1.70129,-0.455377 -0.42017,-0.303585 -0.63025,-0.80025 -0.63025,-1.489997 z"
       id="path3791"
       style="font-size:14.92181969px;font-style:normal;font-variant:normal;font-weight:normal;font-stretch:normal;text-align:start;text-anchor:start;fill:#ffffff;stroke:none;font-family:cmr10;-inkscape-font-specification:cmr10" />
    <path
       d="m 204.91727,44.191261 0,-0.524595 c 0.34001,10e-7 0.61931,-0.02671 0.83789,-0.08015 0.21858,-0.05343 0.32787,-0.184579 0.32787,-0.393447 l 0,-7.832498 c 0,-0.267146 -0.0401,-0.460226 -0.12022,-0.579241 -0.0802,-0.118995 -0.19551,-0.191856 -0.34608,-0.218581 -0.15058,-0.02671 -0.38374,-0.04006 -0.69946,-0.04007 l 0,-0.524595 2.21495,-0.160293 0,9.355281 c 0,0.208868 0.10929,0.340016 0.32787,0.393447 0.21858,0.05343 0.49545,0.08015 0.83061,0.08015 l 0,0.524595 z"
       id="path3793"
       style="font-size:14.92181969px;font-style:normal;font-variant:normal;font-weight:normal;font-stretch:normal;text-align:start;text-anchor:start;fill:#ffffff;stroke:none;font-family:cmr10;-inkscape-font-specification:cmr10" />
    <path
       d="m 209.19417,42.726766 c 0,-0.592596 0.23316,-1.074689 0.69946,-1.44628 0.46631,-0.371585 1.02612,-0.633882 1.67944,-0.786892 0.65331,-0.153004 1.27384,-0.229507 1.86158,-0.229511 l 0,-0.612028 c 0,-0.286579 -0.0632,-0.564663 -0.18944,-0.834252 -0.12629,-0.269578 -0.30844,-0.490588 -0.54645,-0.66303 -0.23801,-0.17243 -0.50031,-0.258648 -0.78689,-0.258654 -0.66061,6e-6 -1.16334,0.148155 -1.50821,0.444448 0.18943,6e-6 0.34608,0.07165 0.46995,0.214939 0.12386,0.143297 0.18579,0.309662 0.18579,0.499094 0,0.199157 -0.0704,0.369164 -0.21129,0.510023 -0.14087,0.140868 -0.30845,0.2113 -0.50274,0.211295 -0.19915,5e-6 -0.36916,-0.07043 -0.51002,-0.211295 -0.14087,-0.140859 -0.2113,-0.310866 -0.2113,-0.510023 0,-0.52459 0.23801,-0.914393 0.71403,-1.16941 0.47602,-0.255005 1.00062,-0.382511 1.57379,-0.382518 0.40316,7e-6 0.80875,0.08623 1.21677,0.258655 0.40801,0.172442 0.74195,0.418953 1.00183,0.739533 0.25986,0.320592 0.3898,0.694608 0.3898,1.122051 l 0,3.358867 c 0,0.194295 0.0413,0.372803 0.12386,0.535524 0.0826,0.162722 0.21129,0.244083 0.38617,0.244083 0.16514,0 0.28779,-0.08257 0.36794,-0.247726 0.0801,-0.165149 0.12021,-0.342443 0.12022,-0.531881 l 0,-0.954472 0.43716,0 0,0.954472 c 0,0.22344 -0.0583,0.435949 -0.17486,0.637529 -0.11659,0.201581 -0.27324,0.361874 -0.46995,0.480879 -0.19673,0.119005 -0.40924,0.178508 -0.63753,0.178508 -0.29145,0 -0.54282,-0.112934 -0.75411,-0.338801 -0.2113,-0.225867 -0.32909,-0.494236 -0.35337,-0.805108 -0.18458,0.374017 -0.4566,0.671531 -0.81604,0.89254 -0.35945,0.22101 -0.74318,0.331515 -1.15119,0.331515 -0.37888,0 -0.75168,-0.05586 -1.11841,-0.167579 -0.36673,-0.111719 -0.67275,-0.287798 -0.91804,-0.528238 -0.2453,-0.240439 -0.36795,-0.552524 -0.36795,-0.936257 z m 1.20949,0 c 0,0.349732 0.12872,0.643602 0.38616,0.881612 0.25744,0.238011 0.56102,0.357016 0.91075,0.357016 0.32059,0 0.61203,-0.08015 0.87433,-0.24044 0.26229,-0.160292 0.47116,-0.378873 0.6266,-0.655744 0.15543,-0.276868 0.23315,-0.568309 0.23315,-0.874325 l 0,-1.551928 c -0.45174,4e-6 -0.9144,0.07408 -1.38799,0.222225 -0.4736,0.148153 -0.86583,0.380091 -1.1767,0.695817 -0.31087,0.315731 -0.4663,0.70432 -0.4663,1.165767 z"
       id="path3795"
       style="font-size:14.92181969px;font-style:normal;font-variant:normal;font-weight:normal;font-stretch:normal;text-align:start;text-anchor:start;fill:#ffffff;stroke:none;font-family:cmr10;-inkscape-font-specification:cmr10" />
    <path
       d="m 216.44379,44.191261 0,-0.524595 c 0.34001,10e-7 0.61931,-0.02671 0.83789,-0.08015 0.21858,-0.05343 0.32787,-0.184579 0.32787,-0.393447 l 0,-4.072899 c 0,-0.26715 -0.0401,-0.460229 -0.12022,-0.57924 -0.0802,-0.119 -0.19551,-0.19186 -0.34608,-0.218582 -0.15058,-0.02671 -0.38374,-0.04007 -0.69946,-0.04007 l 0,-0.524595 2.13481,-0.160293 0,1.457209 c 0.16029,-0.4323 0.38858,-0.783244 0.68488,-1.052834 0.2963,-0.269577 0.65574,-0.404369 1.07834,-0.404375 0.29629,6e-6 0.56102,0.08744 0.79418,0.262297 0.23315,0.174872 0.34972,0.405596 0.34973,0.692175 -1e-5,0.179728 -0.0644,0.336377 -0.19308,0.46995 -0.12873,0.133582 -0.28781,0.200371 -0.47724,0.200366 -0.18458,5e-6 -0.34245,-0.06557 -0.47359,-0.196723 -0.13115,-0.131144 -0.19673,-0.289008 -0.19672,-0.473593 -1e-5,-0.267149 0.0947,-0.456586 0.28415,-0.568312 l -0.0874,0 c -0.40317,6e-6 -0.73225,0.145727 -0.98726,0.437163 -0.25501,0.291447 -0.43595,0.65332 -0.54281,1.085621 -0.10686,0.432309 -0.1603,0.845185 -0.16029,1.238627 l 0,2.448111 c -1e-5,0.315729 0.4833,0.473594 1.44992,0.473593 l 0,0.524595 z"
       id="path3797"
       style="font-size:14.92181969px;font-style:normal;font-variant:normal;font-weight:normal;font-stretch:normal;text-align:start;text-anchor:start;fill:#ffffff;stroke:none;font-family:cmr10;-inkscape-font-specification:cmr10" />
    <path
       d="m 230.1707,44.191261 -1.93081,-5.428103 c -0.0874,-0.218576 -0.21372,-0.353367 -0.37887,-0.404376 -0.16515,-0.051 -0.40559,-0.0765 -0.72132,-0.0765 l 0,-0.524595 3.07471,0 0,0.524595 c -0.58774,6e-6 -0.88161,0.123869 -0.88161,0.371588 0.005,0.01458 0.008,0.02915 0.0109,0.04372 0.002,0.01458 0.004,0.03644 0.004,0.06557 l 1.43535,4.021897 1.23863,-3.504588 -0.19672,-0.517309 c -0.0777,-0.218576 -0.20159,-0.353367 -0.37159,-0.404376 -0.17001,-0.051 -0.41045,-0.0765 -0.72132,-0.0765 l 0,-0.524595 2.94356,0 0,0.524595 c -0.58774,6e-6 -0.88161,0.123869 -0.88161,0.371588 0,0.03887 0.005,0.0753 0.0146,0.109291 l 1.49364,4.204048 1.35521,-3.803316 c 0.0194,-0.07771 0.0291,-0.148144 0.0291,-0.211295 -1e-5,-0.208861 -0.0887,-0.372797 -0.26594,-0.491808 -0.1773,-0.118999 -0.37524,-0.178502 -0.59381,-0.178508 l 0,-0.524595 2.53554,0 0,0.524595 c -0.30117,6e-6 -0.55982,0.07894 -0.77596,0.236796 -0.21616,0.15787 -0.37524,0.372808 -0.47724,0.644815 l -1.77779,5.027371 c -0.034,0.11172 -0.1093,0.167579 -0.22587,0.167579 l -0.11658,0 c -0.11658,0 -0.19187,-0.05586 -0.22586,-0.167579 l -1.50822,-4.25505 -1.50821,4.25505 c -0.0486,0.11172 -0.12629,0.167579 -0.23315,0.167579 l -0.10929,0 c -0.12144,0 -0.19916,-0.05586 -0.23315,-0.167579 z"
       id="path3799"
       style="font-size:14.92181969px;font-style:normal;font-variant:normal;font-weight:normal;font-stretch:normal;text-align:start;text-anchor:start;fill:#ffffff;stroke:none;font-family:cmr10;-inkscape-font-specification:cmr10" />
    <path
       d="m 241.36934,44.35884 c -0.60717,0 -1.16455,-0.159078 -1.67215,-0.477236 -0.50759,-0.318156 -0.9059,-0.743175 -1.19491,-1.275057 -0.28901,-0.53188 -0.43352,-1.094119 -0.43352,-1.68672 0,-0.58288 0.13236,-1.136618 0.39709,-1.661218 0.26473,-0.52459 0.63389,-0.948394 1.10748,-1.271415 0.47359,-0.323008 1.00183,-0.484515 1.58472,-0.484522 0.45658,7e-6 0.85367,0.07651 1.19126,0.229511 0.33759,0.153013 0.61567,0.365522 0.83426,0.637529 0.21857,0.272017 0.38372,0.592603 0.49545,0.961757 0.11171,0.369165 0.16757,0.774754 0.16758,1.21677 -1e-5,0.131152 -0.051,0.196727 -0.15301,0.196723 l -4.32063,0 0,0.160293 c 0,0.825754 0.16637,1.534929 0.4991,2.127525 0.33273,0.592599 0.87553,0.888898 1.62843,0.888898 0.30601,0 0.58895,-0.068 0.84882,-0.20401 0.25987,-0.136005 0.48573,-0.325442 0.67761,-0.568311 0.19186,-0.242867 0.32179,-0.502736 0.3898,-0.779607 0.01,-0.034 0.0279,-0.06436 0.0546,-0.09108 0.0267,-0.02671 0.0571,-0.04007 0.0911,-0.04007 l 0.13115,0 c 0.102,2e-6 0.153,0.06315 0.15301,0.189437 -0.14087,0.563456 -0.44446,1.026119 -0.91076,1.387992 -0.46631,0.361874 -0.98848,0.54281 -1.5665,0.54281 z m -1.9818,-3.985466 3.40258,0 c -1e-5,-0.374013 -0.0522,-0.752887 -0.15665,-1.136623 -0.10444,-0.383727 -0.27809,-0.703098 -0.52095,-0.958115 -0.24288,-0.255005 -0.56103,-0.382511 -0.95447,-0.382517 -0.56346,6e-6 -0.99941,0.263518 -1.30785,0.790535 -0.30844,0.527029 -0.46267,1.089269 -0.46266,1.68672 z"
       id="path3801"
       style="font-size:14.92181969px;font-style:normal;font-variant:normal;font-weight:normal;font-stretch:normal;text-align:start;text-anchor:start;fill:#ffffff;stroke:none;font-family:cmr10;-inkscape-font-specification:cmr10" />
    <path
       d="m 244.72821,44.191261 0,-0.524595 c 0.34001,10e-7 0.61931,-0.02671 0.83789,-0.08015 0.21858,-0.05343 0.32787,-0.184579 0.32788,-0.393447 l 0,-4.072899 c -1e-5,-0.383726 -0.0741,-0.619308 -0.22223,-0.706746 -0.14815,-0.08743 -0.44081,-0.131143 -0.87797,-0.131149 l 0,-0.524595 2.14939,-0.160293 0,5.595682 c -1e-5,0.208868 0.0947,0.340016 0.28415,0.393447 0.18944,0.05343 0.44202,0.08015 0.75775,0.08015 l 0,0.524595 z m 0.63388,-9.158558 c 0,-0.218572 0.0826,-0.410438 0.24773,-0.575598 0.16515,-0.16514 0.35459,-0.247715 0.56831,-0.247725 0.14086,10e-6 0.27687,0.03644 0.40802,0.109291 0.13115,0.07287 0.23315,0.174874 0.30601,0.306014 0.0729,0.131158 0.10929,0.267164 0.10929,0.408018 0,0.213733 -0.0826,0.40317 -0.24772,0.568312 -0.16515,0.165158 -0.35702,0.247733 -0.5756,0.247725 -0.21372,8e-6 -0.40316,-0.08257 -0.56831,-0.247725 -0.16515,-0.165142 -0.24773,-0.354579 -0.24773,-0.568312 z"
       id="path3803"
       style="font-size:14.92181969px;font-style:normal;font-variant:normal;font-weight:normal;font-stretch:normal;text-align:start;text-anchor:start;fill:#ffffff;stroke:none;font-family:cmr10;-inkscape-font-specification:cmr10" />
    <path
       d="m 248.82297,45.357028 c 0,-0.354588 0.12872,-0.664244 0.38616,-0.92897 0.25744,-0.264727 0.56345,-0.452949 0.91804,-0.564669 -0.19916,-0.150578 -0.35095,-0.340014 -0.45538,-0.568311 -0.10443,-0.228295 -0.15665,-0.471163 -0.15665,-0.728605 0,-0.466304 0.14815,-0.87918 0.44445,-1.238627 -0.45659,-0.446874 -0.68489,-0.959326 -0.68489,-1.537356 0,-0.310866 0.0668,-0.602308 0.20037,-0.874325 0.13357,-0.272007 0.31937,-0.507589 0.55738,-0.706746 0.23801,-0.199146 0.50273,-0.350939 0.79418,-0.455378 0.29144,-0.104427 0.59016,-0.156644 0.89618,-0.15665 0.5926,6e-6 1.12448,0.172443 1.59565,0.517309 0.204,-0.218575 0.44565,-0.387368 0.72496,-0.50638 0.27929,-0.118999 0.56952,-0.178501 0.87068,-0.178508 0.21372,7e-6 0.38858,0.07651 0.52459,0.22951 0.136,0.153013 0.20401,0.336379 0.20401,0.550097 0,0.121439 -0.0461,0.228301 -0.13843,0.320586 -0.0923,0.0923 -0.19916,0.13844 -0.32059,0.138434 -0.1263,6e-6 -0.23559,-0.04614 -0.32787,-0.138434 -0.0923,-0.09229 -0.13844,-0.199147 -0.13843,-0.320586 -1e-5,-0.184574 0.0607,-0.313294 0.18215,-0.386161 -0.51489,7e-6 -0.95691,0.1773 -1.32606,0.531881 0.17971,0.179729 0.32422,0.399524 0.43352,0.659387 0.10928,0.259874 0.16393,0.518529 0.16393,0.775964 0,0.422595 -0.11658,0.802683 -0.34973,1.140266 -0.23316,0.33759 -0.54038,0.599887 -0.92168,0.786893 -0.38131,0.187011 -0.77354,0.280515 -1.1767,0.280513 -0.54403,2e-6 -1.0419,-0.148147 -1.49364,-0.444449 -0.14086,0.194297 -0.21129,0.412878 -0.21129,0.655744 0,0.262299 0.0862,0.49181 0.25865,0.688531 0.17244,0.196725 0.3898,0.295086 0.6521,0.295085 l 1.22406,0 c 0.59259,1e-6 1.1269,0.05343 1.60293,0.160293 0.47601,0.106863 0.87553,0.320587 1.19855,0.641172 0.32301,0.320586 0.48452,0.774749 0.48452,1.36249 0,0.437162 -0.18458,0.800249 -0.55373,1.089264 -0.36917,0.289011 -0.80998,0.497877 -1.32242,0.6266 -0.51246,0.128717 -0.98727,0.193077 -1.42442,0.19308 -0.44203,-3e-6 -0.92048,-0.06436 -1.43535,-0.19308 -0.51489,-0.128723 -0.95691,-0.337589 -1.32606,-0.6266 -0.36916,-0.289015 -0.55374,-0.652102 -0.55374,-1.089264 z m 0.83789,0 c 0,0.335157 0.13601,0.615669 0.40802,0.841539 0.27201,0.225865 0.59988,0.393444 0.98362,0.502737 0.38372,0.109288 0.7456,0.163933 1.08562,0.163936 0.33515,-3e-6 0.69459,-0.05465 1.07833,-0.163936 0.38373,-0.109293 0.71038,-0.276872 0.97997,-0.502737 0.26958,-0.22587 0.40437,-0.506382 0.40438,-0.841539 -1e-5,-0.519738 -0.23802,-0.85611 -0.71403,-1.009117 -0.47603,-0.153007 -1.05406,-0.22951 -1.73408,-0.22951 l -1.22406,0 c -0.2283,0 -0.43838,0.05465 -0.63024,0.163936 -0.19187,0.10929 -0.34609,0.262297 -0.46266,0.459021 -0.11658,0.196722 -0.17487,0.401946 -0.17487,0.61567 z m 2.06195,-3.759599 c 0.84518,3e-6 1.26777,-0.602309 1.26777,-1.806939 0,-0.519733 -0.0899,-0.948395 -0.26958,-1.285987 -0.17973,-0.33758 -0.51246,-0.506374 -0.99819,-0.50638 -0.48574,6e-6 -0.81847,0.1688 -0.99819,0.50638 -0.17972,0.337592 -0.26958,0.766254 -0.26958,1.285987 0,0.330305 0.034,0.629033 0.102,0.896184 0.068,0.267158 0.1943,0.485739 0.37888,0.655744 0.18458,0.17001 0.44687,0.255014 0.78689,0.255011 z"
       id="path3805"
       style="font-size:14.92181969px;font-style:normal;font-variant:normal;font-weight:normal;font-stretch:normal;text-align:start;text-anchor:start;fill:#ffffff;stroke:none;font-family:cmr10;-inkscape-font-specification:cmr10" />
    <path
       d="m 256.31302,44.191261 0,-0.524595 c 0.34001,10e-7 0.61931,-0.02671 0.83789,-0.08015 0.21858,-0.05343 0.32787,-0.184579 0.32787,-0.393447 l 0,-7.832498 c 0,-0.267146 -0.0401,-0.460226 -0.12022,-0.579241 -0.0801,-0.118995 -0.19551,-0.191856 -0.34608,-0.218581 -0.15058,-0.02671 -0.38374,-0.04006 -0.69946,-0.04007 l 0,-0.524595 2.21495,-0.160293 0,5.129375 c 0.20887,-0.41287 0.50031,-0.744385 0.87433,-0.994545 0.37401,-0.250148 0.78689,-0.375225 1.23863,-0.375231 0.68974,6e-6 1.20826,0.165157 1.55557,0.495451 0.34729,0.330306 0.52094,0.835472 0.52095,1.515497 l 0,3.584734 c -10e-6,0.208868 0.10928,0.340016 0.32787,0.393447 0.21858,0.05343 0.49787,0.08015 0.8379,0.08015 l 0,0.524595 -3.41716,0 0,-0.524595 c 0.34001,1e-6 0.61931,-0.02671 0.8379,-0.08015 0.21857,-0.05343 0.32786,-0.184579 0.32787,-0.393447 l 0,-3.541018 c -10e-6,-0.485731 -0.0704,-0.885249 -0.2113,-1.198554 -0.14086,-0.313294 -0.42988,-0.469944 -0.86703,-0.46995 -0.57804,6e-6 -1.05284,0.230731 -1.42443,0.692174 -0.37159,0.461455 -0.55738,0.98605 -0.55738,1.573786 l 0,2.943562 c 0,0.208868 0.10929,0.340016 0.32787,0.393447 0.21858,0.05343 0.49545,0.08015 0.83061,0.08015 l 0,0.524595 z"
       id="path3807"
       style="font-size:14.92181969px;font-style:normal;font-variant:normal;font-weight:normal;font-stretch:normal;text-align:start;text-anchor:start;fill:#ffffff;stroke:none;font-family:cmr10;-inkscape-font-specification:cmr10" />
    <path
       d="m 265.6683,42.398894 0,-4.116615 -1.23863,0 0,-0.38616 c 0.65089,6e-6 1.12934,-0.303579 1.43535,-0.910756 0.30601,-0.607163 0.45902,-1.265335 0.45902,-1.974518 l 0.42988,0 0,2.746839 2.10567,0 0,0.524595 -2.10567,0 0,4.087471 c 0,0.412877 0.0692,0.774751 0.20765,1.085621 0.13843,0.310871 0.38737,0.466307 0.74682,0.466307 0.34001,0 0.58531,-0.163936 0.73589,-0.491808 0.15058,-0.327871 0.22586,-0.681244 0.22587,-1.06012 l 0,-0.881611 0.42988,0 0,0.910755 c -1e-5,0.310873 -0.0571,0.618101 -0.17123,0.921685 -0.11415,0.303586 -0.28294,0.552525 -0.50638,0.74682 -0.22344,0.194294 -0.49545,0.291441 -0.81603,0.291441 -0.59746,0 -1.06984,-0.178508 -1.41714,-0.535524 -0.3473,-0.357015 -0.52095,-0.831822 -0.52095,-1.424422 z"
       id="path3809"
       style="font-size:14.92181969px;font-style:normal;font-variant:normal;font-weight:normal;font-stretch:normal;text-align:start;text-anchor:start;fill:#ffffff;stroke:none;font-family:cmr10;-inkscape-font-specification:cmr10" />
  </g>
  <g
     id="text4439"
     style="font-size:14.92181969px;font-style:normal;font-variant:normal;font-weight:normal;font-stretch:normal;text-align:start;text-anchor:start;fill:#ffffff;stroke:none;font-family:cmr10;-inkscape-font-specification:cmr10" />
  <g
     id="text4443"
     style="font-size:14.92181969px;font-style:normal;font-variant:normal;font-weight:normal;font-stretch:normal;text-align:start;text-anchor:start;fill:#ffffff;stroke:none;font-family:cmr10;-inkscape-font-specification:cmr10" />
  <g
     transform="scale(0.9163531,1.0912824)"
     id="text4453"
     style="font-size:16.28391838px;font-style:normal;font-variant:normal;font-weight:normal;font-stretch:normal;text-align:start;text-anchor:start;fill:#ffffff;stroke:none;font-family:cmb10;-inkscape-font-specification:cmb10">
    <path
       d="m 209.45208,26.192779 c -0.58308,-0.477071 -1.08931,-1.024373 -1.51866,-1.641908 -0.42937,-0.61754 -0.78054,-1.28676 -1.05353,-2.007661 -0.27299,-0.720902 -0.47177,-1.456381 -0.59633,-2.206439 -0.12457,-0.750055 -0.18686,-1.490834 -0.18685,-2.222342 -1e-5,-0.731499 0.0623,-1.473604 0.18685,-2.226317 0.12456,-0.7527 0.32069,-1.482878 0.58838,-2.190537 0.26769,-0.707641 0.61489,-1.370235 1.0416,-1.987783 0.42671,-0.617526 0.93955,-1.17013 1.53854,-1.657811 0.0477,-0.03179 0.0981,-0.052995 0.15108,-0.063609 l 0.23853,0 c 0.13251,0.037118 0.19877,0.113979 0.19878,0.230583 -1e-5,0.06362 -0.0159,0.111328 -0.0477,0.143121 -0.57779,0.652004 -1.03498,1.403385 -1.37157,2.254145 -0.3366,0.85078 -0.56718,1.724079 -0.69175,2.619898 -0.12457,0.895834 -0.18685,1.85527 -0.18685,2.87831 0,1.02835 0.0623,1.991761 0.18685,2.890237 0.12457,0.898478 0.35515,1.773102 0.69175,2.623873 0.33659,0.850769 0.79378,1.60215 1.37157,2.254146 0.0318,0.0477 0.0477,0.09541 0.0477,0.143121 -1e-5,0.116612 -0.0663,0.193473 -0.19878,0.230582 l -0.23853,0 c -0.053,-0.01061 -0.10337,-0.03181 -0.15108,-0.06361 z"
       id="path3768"
       style="font-size:16.28391838px;font-style:normal;font-variant:normal;font-weight:normal;font-stretch:normal;text-align:start;text-anchor:start;fill:#ffffff;stroke:none;font-family:cmb10;-inkscape-font-specification:cmb10" />
  </g>
  <g
     id="text4457"
     style="font-size:14.92181969px;font-style:normal;font-variant:normal;font-weight:normal;font-stretch:normal;text-align:start;text-anchor:start;fill:#ffffff;stroke:none;font-family:cmr10;-inkscape-font-specification:cmr10" />
  <g
     id="text4461"
     style="font-size:14.92181969px;font-style:normal;font-variant:normal;font-weight:normal;font-stretch:normal;text-align:start;text-anchor:start;fill:#ffffff;stroke:none;font-family:cmr10;-inkscape-font-specification:cmr10" />
  <g
     transform="scale(0.96650369,1.0346572)"
     id="text4463"
     style="font-size:19.24385643px;font-style:normal;font-variant:normal;font-weight:normal;font-stretch:normal;text-align:start;text-anchor:start;fill:#ffffff;stroke:none;font-family:cmr10;-inkscape-font-specification:cmr10">
    <path
       d="m 22.679231,37.071655 0,-0.667146 c 0.438498,-3e-6 0.798694,-0.03759 1.080588,-0.112757 0.28189,-0.07517 0.422836,-0.244309 0.422838,-0.507406 l 0,-9.274261 c -2e-6,-0.350792 -0.125287,-0.570042 -0.375856,-0.657749 -0.250573,-0.08769 -0.626429,-0.131542 -1.12757,-0.13155 l 0,-0.676542 2.847113,-0.206721 0,1.193345 c 0.350796,-0.388378 0.75954,-0.684364 1.226233,-0.887961 0.466683,-0.203581 0.963126,-0.305375 1.489331,-0.305384 0.757971,9e-6 1.440776,0.205164 2.048419,0.615465 0.607626,0.410318 1.082144,0.949045 1.423556,1.616184 0.341393,0.667151 0.512095,1.373447 0.512105,2.118891 -1e-5,0.776774 -0.189504,1.500297 -0.568483,2.170572 -0.378998,0.670279 -0.8958,1.204308 -1.550409,1.602088 -0.654624,0.397782 -1.373449,0.596672 -2.156477,0.596673 -0.933382,-10e-7 -1.72268,-0.378989 -2.367896,-1.136967 l 0,3.363917 c -3e-6,0.263097 0.142509,0.432232 0.427537,0.507406 0.28502,0.07517 0.64365,0.112754 1.075889,0.112757 l 0,0.667146 z m 2.903492,-5.600263 c 0.22551,0.457293 0.538724,0.834715 0.939641,1.132268 0.400909,0.297553 0.839408,0.44633 1.315498,0.446329 0.444758,1e-6 0.837841,-0.119021 1.17925,-0.357064 0.341396,-0.238041 0.627987,-0.557519 0.859772,-0.958434 0.231771,-0.400911 0.402472,-0.822184 0.512105,-1.263817 0.109616,-0.441629 0.164429,-0.869165 0.164437,-1.282611 -8e-6,-0.513666 -0.09241,-1.06962 -0.277194,-1.667864 -0.184804,-0.598232 -0.466696,-1.102505 -0.845677,-1.512822 -0.378996,-0.410303 -0.837854,-0.615457 -1.376575,-0.615465 -0.51994,8e-6 -0.997591,0.133123 -1.432953,0.399347 -0.435371,0.266239 -0.781472,0.628001 -1.038304,1.085286 z"
       id="path3759"
       style="font-size:19.24385643px;font-style:normal;font-variant:normal;font-weight:normal;font-stretch:normal;text-align:start;text-anchor:start;fill:#ffffff;stroke:none;font-family:cmr10;-inkscape-font-specification:cmr10" />
    <path
       d="m 33.353558,37.071655 0,-0.667146 c 0.438498,-3e-6 0.798694,-0.03759 1.080588,-0.112757 0.28189,-0.07517 0.422836,-0.244309 0.422838,-0.507406 l 0,-9.274261 c -2e-6,-0.350792 -0.125287,-0.570042 -0.375856,-0.657749 -0.250573,-0.08769 -0.626429,-0.131542 -1.12757,-0.13155 l 0,-0.676542 2.847113,-0.206721 0,1.193345 c 0.350796,-0.388378 0.75954,-0.684364 1.226232,-0.887961 0.466684,-0.203581 0.963127,-0.305375 1.489332,-0.305384 0.757971,9e-6 1.440776,0.205164 2.048418,0.615465 0.607626,0.410318 1.082145,0.949045 1.423557,1.616184 0.341393,0.667151 0.512095,1.373447 0.512105,2.118891 -10e-6,0.776774 -0.189504,1.500297 -0.568483,2.170572 -0.378998,0.670279 -0.8958,1.204308 -1.550409,1.602088 -0.654624,0.397782 -1.373449,0.596672 -2.156477,0.596673 -0.933382,-10e-7 -1.72268,-0.378989 -2.367896,-1.136967 l 0,3.363917 c -4e-6,0.263097 0.142509,0.432232 0.427537,0.507406 0.28502,0.07517 0.64365,0.112754 1.075889,0.112757 l 0,0.667146 z m 2.903492,-5.600263 c 0.22551,0.457293 0.538724,0.834715 0.939641,1.132268 0.400909,0.297553 0.839408,0.44633 1.315498,0.446329 0.444758,1e-6 0.837841,-0.119021 1.17925,-0.357064 0.341396,-0.238041 0.627987,-0.557519 0.859772,-0.958434 0.23177,-0.400911 0.402472,-0.822184 0.512105,-1.263817 0.109616,-0.441629 0.164429,-0.869165 0.164437,-1.282611 -8e-6,-0.513666 -0.09241,-1.06962 -0.277194,-1.667864 -0.184804,-0.598232 -0.466696,-1.102505 -0.845677,-1.512822 -0.378996,-0.410303 -0.837854,-0.615457 -1.376575,-0.615465 -0.51994,8e-6 -0.997591,0.133123 -1.432953,0.399347 -0.435372,0.266239 -0.781472,0.628001 -1.038304,1.085286 z"
       id="path3761"
       style="font-size:19.24385643px;font-style:normal;font-variant:normal;font-weight:normal;font-stretch:normal;text-align:start;text-anchor:start;fill:#ffffff;stroke:none;font-family:cmr10;-inkscape-font-specification:cmr10" />
    <path
       d="m 44.103056,33.341278 0,-0.676542 c 0.438498,1e-6 0.798694,-0.03445 1.080588,-0.10336 0.28189,-0.06891 0.422836,-0.238042 0.422838,-0.507407 l 0,-5.252595 c -2e-6,-0.344529 -0.05168,-0.593533 -0.15504,-0.747015 -0.103363,-0.153468 -0.252139,-0.247432 -0.44633,-0.281893 -0.194194,-0.03445 -0.494879,-0.05167 -0.902056,-0.05168 l 0,-0.676542 2.790735,-0.206721 0,1.879283 c 0.256832,-0.551249 0.637386,-1.002277 1.141664,-1.353084 0.50427,-0.350791 1.053959,-0.52619 1.649071,-0.526199 1.478362,9e-6 2.345963,0.601379 2.602807,1.804112 0.256826,-0.538721 0.632682,-0.974088 1.12757,-1.306102 0.494867,-0.331998 1.036726,-0.498001 1.625579,-0.49801 0.582566,9e-6 1.072745,0.09397 1.470539,0.281893 0.397768,0.187936 0.696887,0.474526 0.897358,0.859771 0.200442,0.38526 0.300671,0.869175 0.300685,1.451746 l 0,4.623036 c -1.4e-5,0.269365 0.142498,0.438501 0.427537,0.507407 0.285009,0.06891 0.643639,0.103361 1.075889,0.10336 l 0,0.676542 -4.406918,0 0,-0.676542 c 0.438488,1e-6 0.798683,-0.03445 1.080588,-0.10336 0.281879,-0.06891 0.422825,-0.238042 0.422838,-0.507407 l 0,-4.566657 c -1.3e-5,-0.645214 -0.09084,-1.165148 -0.272496,-1.559805 -0.181676,-0.394641 -0.5544,-0.591966 -1.118173,-0.591974 -0.739195,8e-6 -1.349962,0.297561 -1.832301,0.892659 -0.482358,0.595113 -0.723533,1.271654 -0.723524,2.029626 l 0,3.796151 c -9e-6,0.269365 0.140937,0.438501 0.422839,0.507407 0.281883,0.06891 0.642078,0.103361 1.080588,0.10336 l 0,0.676542 -4.406919,0 0,-0.676542 c 0.438493,1e-6 0.798689,-0.03445 1.080588,-0.10336 0.281885,-0.06891 0.422831,-0.238042 0.422838,-0.507407 l 0,-4.566657 c -7e-6,-0.626421 -0.09084,-1.141657 -0.272496,-1.54571 -0.181671,-0.404038 -0.554395,-0.606061 -1.118173,-0.606069 -0.745454,8e-6 -1.357786,0.297561 -1.836999,0.892659 -0.479221,0.595113 -0.718829,1.271654 -0.718826,2.029626 l 0,3.796151 c -3e-6,0.269365 0.140943,0.438501 0.422839,0.507407 0.281888,0.06891 0.638952,0.103361 1.071191,0.10336 l 0,0.676542 z"
       id="path3763"
       style="font-size:19.24385643px;font-style:normal;font-variant:normal;font-weight:normal;font-stretch:normal;text-align:start;text-anchor:start;fill:#ffffff;stroke:none;font-family:cmr10;-inkscape-font-specification:cmr10" />
  </g>
  <g
     transform="scale(0.9163531,1.0912824)"
     id="text4465"
     style="font-size:16.28391838px;font-style:normal;font-variant:normal;font-weight:normal;font-stretch:normal;text-align:start;text-anchor:start;fill:#ffffff;stroke:none;font-family:cmb10;-inkscape-font-specification:cmb10">
    <path
       d="m 255.22475,26.256388 c -0.13782,-0.03181 -0.20673,-0.108669 -0.20673,-0.230582 0,-0.06891 0.0212,-0.116621 0.0636,-0.143121 0.45056,-0.519477 0.82294,-1.085332 1.11713,-1.697566 0.29419,-0.612239 0.5208,-1.244353 0.67982,-1.896345 0.15902,-0.651993 0.27034,-1.325188 0.33395,-2.019588 0.0636,-0.694396 0.0954,-1.412648 0.0954,-2.154757 0,-1.579619 -0.16035,-3.024073 -0.48104,-4.333367 -0.3207,-1.309276 -0.90245,-2.448937 -1.74527,-3.418986 -0.0424,-0.0424 -0.0636,-0.0901 -0.0636,-0.143121 0,-0.116604 0.0689,-0.193465 0.20673,-0.2305827 l 0.24648,0 c 0.0212,0.00531 0.0689,0.026516 0.14312,0.063609 0.76331,0.6202 1.39542,1.366281 1.89635,2.238244 0.50092,0.871983 0.86667,1.804915 1.09725,2.798799 0.23058,0.993897 0.34587,2.002365 0.34588,3.025405 -1e-5,0.779214 -0.0636,1.542522 -0.19083,2.289926 -0.12722,0.747408 -0.32467,1.474936 -0.59236,2.182586 -0.26769,0.70765 -0.61489,1.368918 -1.0416,1.983807 -0.42671,0.614885 -0.93161,1.155561 -1.51469,1.622031 -0.0742,0.0371 -0.12192,0.0583 -0.14312,0.06361 z"
       id="path3756"
       style="font-size:16.28391838px;font-style:normal;font-variant:normal;font-weight:normal;font-stretch:normal;text-align:start;text-anchor:start;fill:#ffffff;stroke:none;font-family:cmb10;-inkscape-font-specification:cmb10" />
  </g>
  <g
     id="text4467"
     style="font-size:14.92181969px;font-style:normal;font-variant:normal;font-weight:normal;font-stretch:normal;text-align:start;text-anchor:start;fill:#ffffff;stroke:none;font-family:cmr10;-inkscape-font-specification:cmr10">
    <path
       d="m 147.3827,24.803963 0,-0.400733 c 0,-0.02429 0.01,-0.051 0.0291,-0.08015 l 2.31696,-2.564688 c 0.34973,-0.378871 0.63388,-0.697028 0.85247,-0.954472 0.21857,-0.257436 0.43473,-0.553735 0.64845,-0.888897 0.21372,-0.335153 0.38252,-0.676383 0.50638,-1.02369 0.12386,-0.347295 0.18579,-0.71524 0.1858,-1.103835 -1e-5,-0.408011 -0.0753,-0.797814 -0.22587,-1.169411 -0.15058,-0.371579 -0.37523,-0.669093 -0.67396,-0.89254 -0.29873,-0.223429 -0.65939,-0.335149 -1.08198,-0.335158 -0.4323,9e-6 -0.82089,0.129944 -1.16576,0.389803 -0.34488,0.259878 -0.58775,0.59625 -0.72861,1.009117 0.0389,-0.0097 0.0923,-0.01456 0.1603,-0.01457 0.22343,8e-6 0.41408,0.0753 0.57195,0.225868 0.15786,0.150586 0.23679,0.34488 0.2368,0.582883 -10e-6,0.228303 -0.0789,0.421383 -0.2368,0.579241 -0.15787,0.157871 -0.34852,0.236803 -0.57195,0.236796 -0.23316,7e-6 -0.42867,-0.08135 -0.58653,-0.244082 -0.15787,-0.162715 -0.2368,-0.353366 -0.2368,-0.571955 0,-0.374009 0.0704,-0.724953 0.2113,-1.052833 0.14086,-0.327864 0.34366,-0.619305 0.60838,-0.874325 0.26473,-0.255003 0.56345,-0.450511 0.89619,-0.586527 0.33272,-0.135996 0.6861,-0.203999 1.06012,-0.204009 0.5683,10e-6 1.09776,0.120229 1.58835,0.360659 0.49059,0.240449 0.87918,0.580464 1.16577,1.020046 0.28658,0.4396 0.42987,0.953265 0.42988,1.540999 -10e-6,0.432312 -0.0947,0.842758 -0.28416,1.231341 -0.18944,0.388595 -0.43231,0.741967 -0.7286,1.06012 -0.29631,0.318161 -0.67518,0.67882 -1.13663,1.081977 -0.46145,0.403165 -0.76503,0.672748 -0.91075,0.808751 l -1.69036,1.624788 1.43535,0 c 0.70431,10e-7 1.29327,-0.0061 1.76686,-0.01822 0.47359,-0.01214 0.72496,-0.03036 0.75411,-0.05464 0.11657,-0.12629 0.23557,-0.585311 0.35701,-1.377063 l 0.43717,0 -0.42259,2.659407 z"
       id="path3751"
       style="font-size:14.92181969px;font-style:normal;font-variant:normal;font-weight:normal;font-stretch:normal;text-align:start;text-anchor:start;fill:#ffffff;stroke:none;font-family:cmr10;-inkscape-font-specification:cmr10" />
    <path
       d="m 154.51574,22.34128 0,-0.524596 4.61207,-6.878026 c 0.034,-0.04856 0.085,-0.07285 0.153,-0.07286 l 0.21859,0 c 0.11171,10e-6 0.16757,0.05587 0.16757,0.167579 l 0,6.783307 1.4645,0 0,0.524596 -1.4645,0 0,1.464495 c 0,0.20401 0.14572,0.333944 0.43717,0.389803 0.29143,0.05586 0.62902,0.08379 1.01276,0.08379 l 0,0.524596 -4.10933,0 0,-0.524596 c 0.38373,10e-7 0.72131,-0.02793 1.01276,-0.08379 0.29144,-0.05586 0.43716,-0.185793 0.43716,-0.389803 l 0,-1.464495 z m 0.49545,-0.524596 3.53373,0 0,-5.282382 z"
       id="path3753"
       style="font-size:14.92181969px;font-style:normal;font-variant:normal;font-weight:normal;font-stretch:normal;text-align:start;text-anchor:start;fill:#ffffff;stroke:none;font-family:cmr10;-inkscape-font-specification:cmr10" />
  </g>
  <g
     id="text4469"
     style="font-size:14.92181969px;font-style:normal;font-variant:normal;font-weight:normal;font-stretch:normal;text-align:start;text-anchor:start;fill:#ffffff;stroke:none;font-family:cmr10;-inkscape-font-specification:cmr10">
    <path
       d="m 164.43647,23.98064 c 0,-0.223438 0.0826,-0.415304 0.24773,-0.575598 0.16515,-0.160291 0.35701,-0.240438 0.5756,-0.240439 0.136,1e-6 0.26958,0.03643 0.40073,0.10929 0.13114,0.07286 0.23315,0.174867 0.30601,0.306014 0.0729,0.13115 0.10929,0.264727 0.10929,0.400733 0,0.218582 -0.0802,0.410447 -0.24044,0.575597 -0.16029,0.165151 -0.35216,0.247726 -0.57559,0.247726 -0.21859,0 -0.41045,-0.08257 -0.5756,-0.247726 -0.16515,-0.16515 -0.24773,-0.357015 -0.24773,-0.575597 z"
       id="path3748"
       style="font-size:14.92181969px;font-style:normal;font-variant:normal;font-weight:normal;font-stretch:normal;text-align:start;text-anchor:start;fill:#ffffff;stroke:none;font-family:cmr10;-inkscape-font-specification:cmr10" />
  </g>
  <g
     id="text4471"
     style="font-size:14.92181969px;font-style:normal;font-variant:normal;font-weight:normal;font-stretch:normal;text-align:start;text-anchor:start;fill:#ffffff;stroke:none;font-family:cmr10;-inkscape-font-specification:cmr10">
    <path
       d="m 166.68026,22.34128 0,-0.524596 4.61206,-6.878026 c 0.034,-0.04856 0.085,-0.07285 0.15301,-0.07286 l 0.21858,0 c 0.11172,10e-6 0.16758,0.05587 0.16758,0.167579 l 0,6.783307 1.4645,0 0,0.524596 -1.4645,0 0,1.464495 c 0,0.20401 0.14572,0.333944 0.43716,0.389803 0.29144,0.05586 0.62903,0.08379 1.01276,0.08379 l 0,0.524596 -4.10932,0 0,-0.524596 c 0.38372,10e-7 0.72131,-0.02793 1.01276,-0.08379 0.29143,-0.05586 0.43715,-0.185793 0.43716,-0.389803 l 0,-1.464495 z m 0.49545,-0.524596 3.53373,0 0,-5.282382 z"
       id="path3743"
       style="font-size:14.92181969px;font-style:normal;font-variant:normal;font-weight:normal;font-stretch:normal;text-align:start;text-anchor:start;fill:#ffffff;stroke:none;font-family:cmr10;-inkscape-font-specification:cmr10" />
    <path
       d="m 175.02278,23.106314 c 0.102,0.291443 0.25865,0.55617 0.46995,0.794179 0.21129,0.238012 0.46145,0.423806 0.75046,0.557383 0.28901,0.133577 0.58895,0.200366 0.89983,0.200366 0.71888,0 1.21433,-0.279298 1.48635,-0.837895 0.27201,-0.558596 0.40801,-1.236197 0.40802,-2.032807 -10e-6,-0.344869 -0.006,-0.635096 -0.0182,-0.870682 -0.0121,-0.235578 -0.0449,-0.46266 -0.0984,-0.681245 -0.0923,-0.349726 -0.2538,-0.655739 -0.48452,-0.918042 -0.23073,-0.262292 -0.51367,-0.393441 -0.84882,-0.393446 -0.33516,5e-6 -0.62296,0.05101 -0.8634,0.153007 -0.24044,0.10201 -0.43595,0.221015 -0.58653,0.357016 -0.15058,0.136011 -0.28415,0.279303 -0.40073,0.429876 -0.11658,0.150583 -0.18944,0.23073 -0.21858,0.24044 l -0.16758,0 c -0.0243,5e-6 -0.0547,-0.01578 -0.0911,-0.04736 -0.0364,-0.03157 -0.0547,-0.06193 -0.0547,-0.09108 l 0,-4.983655 c 0,-0.02428 0.0158,-0.04978 0.0474,-0.0765 0.0316,-0.02671 0.0644,-0.04006 0.0984,-0.04007 l 0.0437,0 c 0.67031,0.320595 1.38191,0.480888 2.13481,0.480879 0.73831,9e-6 1.44992,-0.160284 2.13481,-0.480879 l 0.0437,0 c 0.034,10e-6 0.0656,0.01215 0.0947,0.03643 0.0291,0.0243 0.0437,0.05101 0.0437,0.08015 l 0,0.138435 c -1e-5,0.04858 -0.01,0.07287 -0.0291,0.07286 -0.34002,0.451744 -0.76626,0.803902 -1.2787,1.056476 -0.51246,0.252591 -1.04313,0.378883 -1.592,0.378874 -0.39831,9e-6 -0.80633,-0.05585 -1.22406,-0.167579 l 0,2.8197 c 0.3303,-0.267149 0.62538,-0.457801 0.88525,-0.571955 0.25987,-0.114142 0.59138,-0.171216 0.99455,-0.171222 0.54888,6e-6 1.04068,0.157871 1.47542,0.473593 0.43473,0.315734 0.76867,0.727395 1.00183,1.234985 0.23315,0.507598 0.34973,1.026121 0.34973,1.55557 0,0.597458 -0.14694,1.151197 -0.4408,1.661218 -0.29388,0.510024 -0.6934,0.915614 -1.19856,1.21677 -0.50517,0.301156 -1.05405,0.451734 -1.64664,0.451735 -0.4906,-1e-6 -0.94112,-0.126292 -1.35156,-0.378875 -0.41045,-0.252582 -0.73347,-0.592597 -0.96905,-1.020046 -0.23558,-0.427446 -0.35337,-0.881609 -0.35337,-1.36249 0,-0.223436 0.0729,-0.405587 0.21858,-0.546454 0.14572,-0.14086 0.32787,-0.211292 0.54645,-0.211295 0.21858,3e-6 0.40195,0.07165 0.5501,0.214938 0.14815,0.143295 0.22222,0.324232 0.22223,0.542811 -1e-5,0.213726 -0.0741,0.394663 -0.22223,0.54281 -0.14815,0.148151 -0.33152,0.222226 -0.5501,0.222224 -0.034,2e-6 -0.0729,-0.0036 -0.11657,-0.01093 -0.0437,-0.0073 -0.0753,-0.01336 -0.0947,-0.01821 z"
       id="path3745"
       style="font-size:14.92181969px;font-style:normal;font-variant:normal;font-weight:normal;font-stretch:normal;text-align:start;text-anchor:start;fill:#ffffff;stroke:none;font-family:cmr10;-inkscape-font-specification:cmr10" />
  </g>
  <g
     id="text4473"
     style="font-size:14.92181969px;font-style:normal;font-variant:normal;font-weight:normal;font-stretch:normal;text-align:start;text-anchor:start;fill:#ffffff;stroke:none;font-family:cmr10;-inkscape-font-specification:cmr10" />
  <g
     transform="scale(0.98854279,1.01159)"
     id="text4509"
     style="font-size:13.01829433px;font-style:normal;font-variant:normal;font-weight:normal;font-stretch:normal;line-height:125%;letter-spacing:0px;word-spacing:0px;fill:#ffffff;fill-opacity:1;stroke:none;font-family:cmr10;-inkscape-font-specification:cmr10">
    <path
       d="m 196.80297,24.700182 0,-0.457674 c 0.29664,0 0.54031,-0.02331 0.73101,-0.06992 0.1907,-0.04661 0.28605,-0.161033 0.28605,-0.343256 l 0,-3.553333 c 0,-0.23307 -0.035,-0.40152 -0.10489,-0.505349 -0.0699,-0.103819 -0.17056,-0.167385 -0.30193,-0.190698 -0.13137,-0.0233 -0.33478,-0.03496 -0.61024,-0.03496 l 0,-0.457674 1.88791,-0.139845 0,1.271318 c 0.17375,-0.372915 0.43119,-0.678031 0.77233,-0.915349 0.34113,-0.237307 0.71299,-0.355963 1.11558,-0.355969 1.0001,6e-6 1.58702,0.406827 1.76077,1.220465 0.17374,-0.36444 0.42801,-0.658961 0.76279,-0.883566 0.33478,-0.224594 0.70134,-0.336893 1.09969,-0.336899 0.3941,6e-6 0.72571,0.06357 0.99481,0.190698 0.26909,0.127137 0.47144,0.321013 0.60705,0.581627 0.1356,0.260625 0.20341,0.587989 0.20342,0.982093 l 0,3.127442 c -1e-5,0.182223 0.0964,0.296642 0.28922,0.343256 0.19281,0.04662 0.43542,0.06992 0.72783,0.06992 l 0,0.457674 -2.98124,0 0,-0.457674 c 0.29663,0 0.5403,-0.02331 0.73101,-0.06992 0.19069,-0.04661 0.28603,-0.161033 0.28604,-0.343256 l 0,-3.089302 c -1e-5,-0.436481 -0.0615,-0.788212 -0.18434,-1.055194 -0.1229,-0.266971 -0.37504,-0.400459 -0.75643,-0.400465 -0.50006,6e-6 -0.91324,0.201297 -1.23954,0.603876 -0.32631,0.402588 -0.48946,0.860262 -0.48945,1.373023 l 0,2.568062 c -1e-5,0.182223 0.0953,0.296642 0.28604,0.343256 0.19069,0.04662 0.43436,0.06992 0.73101,0.06992 l 0,0.457674 -2.98124,0 0,-0.457674 c 0.29664,0 0.54031,-0.02331 0.73101,-0.06992 0.19069,-0.04661 0.28604,-0.161033 0.28604,-0.343256 l 0,-3.089302 c 0,-0.423768 -0.0614,-0.772321 -0.18434,-1.045659 -0.1229,-0.273328 -0.37504,-0.409994 -0.75643,-0.41 -0.50429,6e-6 -0.91853,0.201297 -1.24271,0.603876 -0.32419,0.402588 -0.48629,0.860262 -0.48628,1.373023 l 0,2.568062 c -1e-5,0.182223 0.0953,0.296642 0.28604,0.343256 0.1907,0.04662 0.43225,0.06992 0.72465,0.06992 l 0,0.457674 z"
       id="path3733"
       style="fill:#ffffff;stroke:none" />
    <path
       d="m 207.6346,25.717236 c 0,-0.309355 0.1123,-0.579509 0.3369,-0.810465 0.2246,-0.230956 0.49158,-0.395168 0.80093,-0.492636 -0.17375,-0.131369 -0.30618,-0.29664 -0.39729,-0.495813 -0.0911,-0.199173 -0.13666,-0.411059 -0.13666,-0.635659 0,-0.40682 0.12925,-0.767027 0.38775,-1.080621 -0.39835,-0.389867 -0.59752,-0.836947 -0.59752,-1.34124 0,-0.27121 0.0583,-0.525473 0.17481,-0.76279 0.11653,-0.237308 0.27863,-0.442838 0.48628,-0.61659 0.20764,-0.173741 0.4386,-0.30617 0.69286,-0.397286 0.25426,-0.09111 0.51488,-0.136661 0.78186,-0.136667 0.517,6e-6 0.98103,0.150445 1.3921,0.451318 0.17798,-0.190692 0.3888,-0.337953 0.63248,-0.441783 0.24366,-0.103819 0.49687,-0.155731 0.75961,-0.155737 0.18645,6e-6 0.33901,0.06675 0.45767,0.200233 0.11865,0.133494 0.17798,0.293468 0.17799,0.479922 -1e-5,0.105949 -0.0403,0.199179 -0.12078,0.27969 -0.0805,0.08052 -0.17375,0.12078 -0.27969,0.120775 -0.11018,5e-6 -0.20553,-0.04025 -0.28604,-0.120775 -0.0805,-0.08051 -0.12078,-0.173741 -0.12078,-0.27969 0,-0.161028 0.053,-0.273327 0.15892,-0.336899 -0.44921,6e-6 -0.83484,0.154683 -1.1569,0.464031 0.15679,0.156801 0.28286,0.348558 0.37821,0.575271 0.0953,0.226723 0.14302,0.452382 0.14303,0.676977 -1e-5,0.368686 -0.10171,0.700288 -0.30512,0.994806 -0.20341,0.294525 -0.47145,0.523362 -0.80411,0.686512 -0.33266,0.163154 -0.67486,0.244731 -1.02659,0.244729 -0.47462,2e-6 -0.90899,-0.129249 -1.3031,-0.387752 -0.12289,0.169511 -0.18434,0.360208 -0.18434,0.572093 0,0.228838 0.0752,0.429071 0.22566,0.600697 0.15044,0.171629 0.34008,0.257443 0.56892,0.257442 l 1.0679,0 c 0.517,10e-7 0.98315,0.04662 1.39845,0.139845 0.41529,0.09323 0.76385,0.279691 1.04566,0.55938 0.2818,0.27969 0.42271,0.675917 0.42271,1.188682 0,0.381394 -0.16104,0.698164 -0.4831,0.95031 -0.32207,0.252143 -0.70664,0.434365 -1.15372,0.546667 -0.44708,0.112297 -0.86132,0.168447 -1.24271,0.16845 -0.38564,-3e-6 -0.80305,-0.05615 -1.25225,-0.16845 -0.4492,-0.112302 -0.83483,-0.294524 -1.1569,-0.546667 -0.32207,-0.252146 -0.4831,-0.568916 -0.4831,-0.95031 z m 0.73101,0 c 0,0.292402 0.11865,0.53713 0.35597,0.734186 0.23731,0.197053 0.52336,0.343254 0.85814,0.438605 0.33478,0.09535 0.65049,0.143021 0.94713,0.143023 0.2924,-2e-6 0.60599,-0.04768 0.94077,-0.143023 0.33478,-0.09535 0.61977,-0.241552 0.85497,-0.438605 0.23518,-0.197056 0.35278,-0.441784 0.35279,-0.734186 -1e-5,-0.453437 -0.20766,-0.746899 -0.62295,-0.880387 -0.4153,-0.133489 -0.91959,-0.200233 -1.51287,-0.200233 l -1.0679,0 c -0.19918,0 -0.38246,0.04768 -0.54985,0.143023 -0.16739,0.09535 -0.30194,0.228837 -0.40364,0.400465 -0.10171,0.171628 -0.15256,0.350671 -0.15256,0.537132 z m 1.79891,-3.28 c 0.73736,3e-6 1.10605,-0.525475 1.10605,-1.576434 0,-0.453432 -0.0784,-0.827411 -0.23519,-1.121938 -0.1568,-0.294516 -0.44709,-0.441777 -0.87086,-0.441783 -0.42377,6e-6 -0.71406,0.147267 -0.87085,0.441783 -0.1568,0.294527 -0.23519,0.668506 -0.23519,1.121938 0,0.288169 0.0297,0.548789 0.089,0.781861 0.0593,0.233077 0.16951,0.423775 0.33054,0.572093 0.16103,0.148322 0.38987,0.222483 0.68651,0.22248 z"
       id="path3735"
       style="fill:#ffffff;stroke:none" />
    <path
       d="m 214.51243,27.694135 c 0,-0.02543 0.004,-0.04238 0.0127,-0.05085 l 4.5259,-12.547907 c 0.0169,-0.05084 0.0466,-0.09004 0.089,-0.117597 0.0424,-0.02754 0.0911,-0.04131 0.1462,-0.04132 0.0763,10e-6 0.13878,0.02332 0.18752,0.06992 0.0487,0.04662 0.0731,0.11019 0.0731,0.190697 l 0,0.05085 -4.52589,12.547907 c -0.0509,0.10594 -0.13349,0.158911 -0.24791,0.158915 -0.072,-4e-6 -0.13349,-0.02543 -0.18434,-0.07628 -0.0508,-0.05085 -0.0763,-0.112302 -0.0763,-0.184341 z"
       id="path3737"
       style="fill:#ffffff;stroke:none" />
    <path
       d="m 220.67832,24.700182 0,-0.457674 c 0.29664,0 0.54031,-0.02331 0.73101,-0.06992 0.1907,-0.04661 0.28604,-0.161033 0.28605,-0.343256 l 0,-3.553333 c -1e-5,-0.23307 -0.035,-0.40152 -0.10489,-0.505349 -0.0699,-0.103819 -0.17057,-0.167385 -0.30194,-0.190698 -0.13137,-0.0233 -0.33478,-0.03496 -0.61023,-0.03496 l 0,-0.457674 1.88791,-0.139845 0,1.271318 c 0.17374,-0.372915 0.43118,-0.678031 0.77232,-0.915349 0.34114,-0.237307 0.713,-0.355963 1.11559,-0.355969 1.00009,6e-6 1.58702,0.406827 1.76077,1.220465 0.17374,-0.36444 0.428,-0.658961 0.76279,-0.883566 0.33477,-0.224594 0.70134,-0.336893 1.09969,-0.336899 0.3941,6e-6 0.7257,0.06357 0.99481,0.190698 0.26908,0.127137 0.47143,0.321013 0.60705,0.581627 0.1356,0.260625 0.2034,0.587989 0.20341,0.982093 l 0,3.127442 c -10e-6,0.182223 0.0964,0.296642 0.28923,0.343256 0.1928,0.04662 0.43541,0.06992 0.72783,0.06992 l 0,0.457674 -2.98124,0 0,-0.457674 c 0.29663,0 0.5403,-0.02331 0.731,-0.06992 0.19069,-0.04661 0.28604,-0.161033 0.28605,-0.343256 l 0,-3.089302 c -1e-5,-0.436481 -0.0615,-0.788212 -0.18434,-1.055194 -0.1229,-0.266971 -0.37505,-0.400459 -0.75643,-0.400465 -0.50006,6e-6 -0.91324,0.201297 -1.23954,0.603876 -0.32631,0.402588 -0.48946,0.860262 -0.48946,1.373023 l 0,2.568062 c 0,0.182223 0.0953,0.296642 0.28605,0.343256 0.19069,0.04662 0.43436,0.06992 0.73101,0.06992 l 0,0.457674 -2.98124,0 0,-0.457674 c 0.29663,0 0.5403,-0.02331 0.731,-0.06992 0.1907,-0.04661 0.28605,-0.161033 0.28605,-0.343256 l 0,-3.089302 c 0,-0.423768 -0.0615,-0.772321 -0.18434,-1.045659 -0.1229,-0.273328 -0.37504,-0.409994 -0.75643,-0.41 -0.5043,6e-6 -0.91853,0.201297 -1.24272,0.603876 -0.32419,0.402588 -0.48628,0.860262 -0.48628,1.373023 l 0,2.568062 c 0,0.182223 0.0953,0.296642 0.28605,0.343256 0.1907,0.04662 0.43225,0.06992 0.72465,0.06992 l 0,0.457674 z"
       id="path3739"
       style="fill:#ffffff;stroke:none" />
  </g>
  <g
     transform="scale(0.98854279,1.01159)"
     id="text4513"
     style="font-size:8.67886353px;font-style:normal;font-variant:normal;font-weight:normal;font-stretch:normal;line-height:125%;letter-spacing:0px;word-spacing:0px;fill:#ffffff;fill-opacity:1;stroke:none;font-family:cmr10;-inkscape-font-specification:cmr10">
    <path
       d="m 232.36388,19.507489 c 0.1356,0.197761 0.31783,0.344669 0.54666,0.440723 0.22884,0.09606 0.47463,0.144083 0.73737,0.144083 0.33619,0 0.57491,-0.143376 0.71617,-0.430129 0.14126,-0.286752 0.21189,-0.61235 0.21189,-0.976796 0,-0.163857 -0.0148,-0.327716 -0.0445,-0.491576 -0.0297,-0.163857 -0.0798,-0.316415 -0.15044,-0.457675 -0.0706,-0.141255 -0.1674,-0.254261 -0.29029,-0.339018 -0.1229,-0.08475 -0.27333,-0.127129 -0.45132,-0.127132 l -0.57633,0 c -0.0508,3e-6 -0.0763,-0.02684 -0.0763,-0.08052 l 0,-0.07628 c 0,-0.0452 0.0254,-0.0678 0.0763,-0.0678 l 0.47887,-0.03814 c 0.2034,4e-6 0.37221,-0.07627 0.5064,-0.228837 0.1342,-0.152554 0.23237,-0.338308 0.29453,-0.557261 0.0622,-0.218945 0.0932,-0.4273 0.0932,-0.625065 -1e-5,-0.276859 -0.065,-0.504284 -0.19494,-0.682273 -0.12996,-0.17798 -0.32772,-0.266972 -0.59328,-0.266977 -0.22036,5e-6 -0.43084,0.04168 -0.63142,0.125013 -0.20059,0.08335 -0.36021,0.209772 -0.47887,0.379276 0.0113,-0.0028 0.0212,-0.0049 0.0297,-0.0064 0.008,-0.0014 0.0184,-0.0021 0.0297,-0.0021 0.12996,5e-6 0.23873,0.04521 0.32631,0.135607 0.0876,0.09041 0.13137,0.199178 0.13137,0.326305 0,0.124311 -0.0438,0.231667 -0.13137,0.322067 -0.0876,0.09041 -0.19635,0.135611 -0.32631,0.135607 -0.12713,4e-6 -0.2359,-0.0452 -0.3263,-0.135607 -0.0904,-0.0904 -0.13561,-0.197756 -0.13561,-0.322067 0,-0.248609 0.0749,-0.464732 0.2246,-0.648372 0.14973,-0.18363 0.34255,-0.322768 0.57845,-0.417416 0.2359,-0.09464 0.4725,-0.141958 0.70982,-0.141964 0.17516,6e-6 0.3602,0.02614 0.55514,0.0784 0.19493,0.05227 0.37151,0.127137 0.52972,0.224599 0.1582,0.09747 0.28745,0.222486 0.38775,0.375039 0.10029,0.152563 0.15043,0.32631 0.15044,0.52124 -1e-5,0.242968 -0.0544,0.467567 -0.16315,0.673799 -0.10878,0.20624 -0.2578,0.384224 -0.44708,0.533953 -0.18929,0.149737 -0.39694,0.26133 -0.62295,0.334781 0.25144,0.04803 0.49016,0.142673 0.71618,0.283928 0.226,0.14126 0.40752,0.322069 0.54454,0.542428 0.13702,0.220364 0.20553,0.457677 0.20553,0.711939 0,0.319243 -0.0876,0.608114 -0.26274,0.866615 -0.17516,0.258501 -0.40541,0.460499 -0.69075,0.605994 -0.28534,0.145496 -0.58622,0.218243 -0.90263,0.218243 -0.27122,0 -0.54314,-0.05156 -0.81576,-0.154677 -0.27263,-0.103118 -0.49582,-0.257794 -0.66956,-0.464031 -0.17375,-0.206235 -0.26062,-0.453436 -0.26062,-0.741602 0,-0.144081 0.048,-0.26415 0.14408,-0.360207 0.096,-0.09605 0.21612,-0.144081 0.36021,-0.144082 0.0932,1e-6 0.17869,0.0219 0.25638,0.06568 0.0777,0.04379 0.13843,0.105239 0.18222,0.184342 0.0438,0.0791 0.0657,0.16386 0.0657,0.254263 0,0.141259 -0.0494,0.259915 -0.14832,0.355969 -0.0989,0.09606 -0.21753,0.144084 -0.35596,0.144083 z"
       id="path3730"
       style="fill:#ffffff;stroke:none" />
  </g>
  <g
     id="text4505"
     style="font-size:12px;font-style:normal;font-variant:normal;font-weight:normal;font-stretch:normal;line-height:125%;letter-spacing:0px;word-spacing:0px;fill:#ffffff;fill-opacity:1;stroke:none;font-family:cmr10;-inkscape-font-specification:cmr10">
    <path
       d="m 208.66963,53.848747 c -0.48047,0 -0.92578,-0.12207 -1.33594,-0.366211 -0.41015,-0.24414 -0.73437,-0.571288 -0.97265,-0.981445 -0.23828,-0.410155 -0.35742,-0.85742 -0.35742,-1.341797 0,-0.367184 0.0654,-0.7207 0.19629,-1.060547 0.13085,-0.33984 0.31835,-0.64355 0.5625,-0.911133 0.24413,-0.267573 0.52831,-0.476557 0.85253,-0.626953 0.32422,-0.150385 0.67578,-0.22558 1.05469,-0.225586 0.49219,6e-6 0.94043,0.129888 1.34473,0.389649 0.40429,0.25977 0.72363,0.607426 0.95801,1.042969 0.23437,0.43555 0.35155,0.899417 0.35156,1.391601 -1e-5,0.480471 -0.11915,0.92676 -0.35742,1.338867 -0.23829,0.41211 -0.56153,0.740235 -0.96973,0.984375 -0.40821,0.244141 -0.85059,0.366211 -1.32715,0.366211 z m 0,-0.351562 c 0.64062,0 1.06836,-0.232422 1.28321,-0.697266 0.21483,-0.464842 0.32226,-1.056639 0.32226,-1.77539 0,-0.402341 -0.0215,-0.735349 -0.0645,-0.999024 -0.043,-0.263668 -0.13673,-0.502925 -0.28125,-0.717773 -0.0898,-0.132808 -0.20411,-0.249019 -0.34278,-0.348633 -0.13867,-0.09961 -0.28516,-0.175777 -0.43945,-0.228516 -0.1543,-0.05273 -0.31348,-0.0791 -0.47754,-0.0791 -0.25,5e-6 -0.48731,0.05664 -0.71191,0.169922 -0.22461,0.113286 -0.41114,0.275395 -0.55957,0.486328 -0.14844,0.226566 -0.24317,0.475589 -0.28418,0.74707 -0.041,0.271488 -0.0615,0.59473 -0.0615,0.969727 0,0.44922 0.0391,0.85254 0.11719,1.20996 0.0781,0.357423 0.23535,0.657228 0.47168,0.899415 0.23633,0.242187 0.5791,0.363281 1.02832,0.363281 z"
       id="path3707"
       style="fill:#ffffff;stroke:none" />
    <path
       d="m 212.05635,53.713982 0,-0.421875 c 0.26953,0 0.49219,-0.02148 0.66797,-0.06445 0.17578,-0.04297 0.26367,-0.148437 0.26367,-0.316407 l 0,-3.949218 -0.91992,0 0,-0.421875 0.91992,0 0,-1.435547 c 0,-0.257806 0.0537,-0.499017 0.16113,-0.723633 0.10742,-0.224602 0.25196,-0.420891 0.4336,-0.588867 0.18164,-0.167961 0.39062,-0.299797 0.62695,-0.395508 0.23633,-0.09569 0.48144,-0.143546 0.73535,-0.143555 0.26953,9e-6 0.51269,0.08009 0.72949,0.240235 0.2168,0.160164 0.3252,0.373054 0.3252,0.638671 0,0.152352 -0.0518,0.280281 -0.15527,0.383789 -0.10352,0.103523 -0.23145,0.155281 -0.38379,0.155274 -0.15235,7e-6 -0.28223,-0.05175 -0.38965,-0.155274 -0.10743,-0.103508 -0.16114,-0.231437 -0.16113,-0.383789 -1e-5,-0.249992 0.10741,-0.41796 0.32226,-0.503906 -0.12891,-0.04296 -0.24414,-0.06444 -0.3457,-0.06445 -0.23438,8e-6 -0.43457,0.08302 -0.60059,0.249023 -0.16602,0.166024 -0.29004,0.368172 -0.37207,0.606446 -0.082,0.238288 -0.12305,0.474616 -0.12304,0.708984 l 0,1.41211 1.38281,0 0,0.421875 -1.3418,0 0,3.949218 c 0,0.164063 0.11719,0.268555 0.35156,0.313477 0.23438,0.04492 0.50391,0.06738 0.8086,0.06738 l 0,0.421875 z"
       id="path3709"
       style="fill:#ffffff;stroke:none" />
    <path
       d="m 219.73213,53.749138 0,-1.957031 c 0,-0.0625 0.0352,-0.09375 0.10547,-0.09375 l 0.14649,0 c 0.0469,2e-6 0.0781,0.03125 0.0937,0.09375 0.22265,1.160157 0.76171,1.740234 1.61718,1.740234 0.37891,0 0.69629,-0.08594 0.95215,-0.257812 0.25586,-0.171875 0.38379,-0.4375 0.38379,-0.796875 0,-0.257812 -0.0996,-0.477538 -0.29883,-0.65918 -0.19922,-0.181639 -0.43555,-0.305662 -0.70898,-0.37207 L 221.22041,51.2882 c -0.26953,-0.05859 -0.51465,-0.148435 -0.73535,-0.269531 -0.2207,-0.121091 -0.40137,-0.282223 -0.54199,-0.483398 -0.14063,-0.201169 -0.21094,-0.434567 -0.21094,-0.700196 0,-0.351558 0.0928,-0.639644 0.27832,-0.864257 0.18555,-0.224605 0.42676,-0.386714 0.72364,-0.486329 0.29687,-0.0996 0.61718,-0.149408 0.96093,-0.149414 0.41016,6e-6 0.76758,0.109381 1.07227,0.328125 l 0.3457,-0.298828 c 0,-0.01953 0.0195,-0.02929 0.0586,-0.0293 l 0.0879,0 c 0.0234,6e-6 0.0449,0.01075 0.0644,0.03223 0.0195,0.02149 0.0293,0.04395 0.0293,0.06738 l 0,1.570312 c -1e-5,0.07422 -0.0313,0.111332 -0.0937,0.111328 l -0.14649,0 c -0.0703,4e-6 -0.10547,-0.03711 -0.10547,-0.111328 0,-0.417964 -0.11621,-0.753902 -0.34863,-1.007812 -0.23243,-0.253902 -0.55762,-0.380855 -0.97559,-0.38086 -0.35937,5e-6 -0.6709,0.06641 -0.93457,0.199219 -0.26367,0.132817 -0.39551,0.361333 -0.3955,0.685547 -1e-5,0.22266 0.0947,0.405277 0.28418,0.547852 0.18945,0.142581 0.41113,0.24512 0.66503,0.307617 l 0.81446,0.152344 c 0.27343,0.0625 0.52831,0.167971 0.76465,0.316406 0.23632,0.14844 0.42382,0.33594 0.5625,0.5625 0.13866,0.226564 0.208,0.482423 0.208,0.767578 0,0.289064 -0.0498,0.54004 -0.14941,0.75293 -0.0996,0.212891 -0.23829,0.389648 -0.41602,0.530273 -0.17773,0.140625 -0.38769,0.244141 -0.62988,0.310547 -0.24219,0.06641 -0.4961,0.09961 -0.76172,0.09961 -0.5,0 -0.92773,-0.167968 -1.2832,-0.503906 l -0.43945,0.474609 c 0,0.01953 -0.0215,0.0293 -0.0645,0.0293 l -0.0703,0 c -0.0703,0 -0.10547,-0.0332 -0.10547,-0.09961 z"
       id="path3711"
       style="fill:#ffffff;stroke:none" />
    <path
       d="m 225.36299,52.284294 0,-2.648437 c 0,-0.21484 -0.0322,-0.370113 -0.0967,-0.465821 -0.0644,-0.0957 -0.15723,-0.154292 -0.27832,-0.175781 -0.12109,-0.02148 -0.30859,-0.03222 -0.5625,-0.03223 l 0,-0.421875 1.81641,-0.128907 0,3.873047 c 0,0.312501 0.0225,0.555665 0.0674,0.729492 0.0449,0.173829 0.14062,0.303712 0.28711,0.389649 0.14648,0.08594 0.37988,0.128906 0.7002,0.128906 0.42968,0 0.77148,-0.179687 1.02539,-0.539062 0.2539,-0.359374 0.38085,-0.767577 0.38086,-1.22461 l 0,-2.132812 c -1e-5,-0.21484 -0.0332,-0.370113 -0.0996,-0.465821 -0.0664,-0.0957 -0.15919,-0.154292 -0.27832,-0.175781 -0.11915,-0.02148 -0.30567,-0.03222 -0.55957,-0.03223 l 0,-0.421875 1.81054,-0.128907 0,4.212891 c 0,0.210938 0.0322,0.364258 0.0967,0.459961 0.0644,0.0957 0.15722,0.154297 0.27832,0.175781 0.12109,0.02148 0.30859,0.03223 0.5625,0.03223 l 0,0.421875 -1.77539,0.134765 0,-1.013672 c -0.14844,0.300782 -0.35547,0.544923 -0.62109,0.732422 -0.26563,0.1875 -0.5586,0.28125 -0.87891,0.28125 -0.57422,0 -1.03027,-0.12207 -1.36816,-0.366211 -0.33789,-0.24414 -0.50684,-0.643553 -0.50684,-1.198242 z"
       id="path3713"
       style="fill:#ffffff;stroke:none" />
    <path
       d="m 231.97237,53.713982 0,-7.101563 c 0,-0.214836 -0.0322,-0.37011 -0.0967,-0.46582 -0.0645,-0.0957 -0.15723,-0.154289 -0.27832,-0.175781 -0.1211,-0.02148 -0.3086,-0.03222 -0.5625,-0.03223 l 0,-0.421875 1.77539,-0.128906 0,3.755859 c 0.13281,-0.148433 0.28808,-0.278315 0.46582,-0.389648 0.17773,-0.111323 0.36816,-0.196284 0.57129,-0.254883 0.20312,-0.05859 0.41015,-0.08788 0.62109,-0.08789 0.35937,6e-6 0.69238,0.07227 0.99902,0.216797 0.30664,0.144536 0.57324,0.343755 0.79981,0.597656 0.22655,0.253911 0.40331,0.545903 0.53027,0.875977 0.12695,0.330081 0.19043,0.670901 0.19043,1.022461 0,0.484377 -0.11817,0.935548 -0.35449,1.353516 -0.23633,0.417969 -0.5586,0.750977 -0.9668,0.999023 -0.40821,0.248047 -0.85645,0.37207 -1.34472,0.37207 -0.3047,0 -0.59962,-0.07813 -0.88477,-0.234375 -0.28516,-0.156249 -0.52149,-0.363281 -0.70898,-0.621093 l -0.41016,0.720703 z m 0.87304,-1.177735 c 0.13281,0.29297 0.32422,0.532227 0.57422,0.717774 0.25,0.185547 0.52734,0.27832 0.83203,0.27832 0.41406,0 0.74902,-0.11914 1.00489,-0.357422 0.25585,-0.23828 0.43456,-0.539061 0.53613,-0.902344 0.10156,-0.363279 0.15234,-0.746091 0.15234,-1.148437 0,-0.675778 -0.0879,-1.189449 -0.26367,-1.541016 -0.0781,-0.156245 -0.18457,-0.300777 -0.31934,-0.433593 -0.13477,-0.132808 -0.28516,-0.2373 -0.45117,-0.313477 -0.16602,-0.07617 -0.34082,-0.114253 -0.52441,-0.114258 -0.32032,5e-6 -0.61719,0.08497 -0.89063,0.254883 -0.27344,0.169926 -0.49023,0.397465 -0.65039,0.682617 z"
       id="path3715"
       style="fill:#ffffff;stroke:none" />
    <path
       d="m 237.77901,53.749138 0,-1.957031 c 0,-0.0625 0.0351,-0.09375 0.10547,-0.09375 l 0.14648,0 c 0.0469,2e-6 0.0781,0.03125 0.0937,0.09375 0.22266,1.160157 0.76172,1.740234 1.61719,1.740234 0.3789,0 0.69628,-0.08594 0.95215,-0.257812 0.25585,-0.171875 0.38378,-0.4375 0.38379,-0.796875 -1e-5,-0.257812 -0.0996,-0.477538 -0.29883,-0.65918 -0.19922,-0.181639 -0.43555,-0.305662 -0.70899,-0.37207 L 239.26729,51.2882 c -0.26953,-0.05859 -0.51465,-0.148435 -0.73535,-0.269531 -0.22071,-0.121091 -0.40137,-0.282223 -0.542,-0.483398 -0.14062,-0.201169 -0.21093,-0.434567 -0.21093,-0.700196 0,-0.351558 0.0928,-0.639644 0.27832,-0.864257 0.18554,-0.224605 0.42675,-0.386714 0.72363,-0.486329 0.29687,-0.0996 0.61719,-0.149408 0.96094,-0.149414 0.41015,6e-6 0.76757,0.109381 1.07226,0.328125 l 0.34571,-0.298828 c -1e-5,-0.01953 0.0195,-0.02929 0.0586,-0.0293 l 0.0879,0 c 0.0234,6e-6 0.0449,0.01075 0.0644,0.03223 0.0195,0.02149 0.0293,0.04395 0.0293,0.06738 l 0,1.570312 c 0,0.07422 -0.0312,0.111332 -0.0937,0.111328 l -0.14648,0 c -0.0703,4e-6 -0.10548,-0.03711 -0.10547,-0.111328 -1e-5,-0.417964 -0.11622,-0.753902 -0.34864,-1.007812 -0.23242,-0.253902 -0.55762,-0.380855 -0.97558,-0.38086 -0.35938,5e-6 -0.6709,0.06641 -0.93457,0.199219 -0.26367,0.132817 -0.39551,0.361333 -0.39551,0.685547 0,0.22266 0.0947,0.405277 0.28418,0.547852 0.18945,0.142581 0.41113,0.24512 0.66504,0.307617 l 0.81445,0.152344 c 0.27344,0.0625 0.52832,0.167971 0.76465,0.316406 0.23633,0.14844 0.42383,0.33594 0.5625,0.5625 0.13867,0.226564 0.208,0.482423 0.20801,0.767578 -1e-5,0.289064 -0.0498,0.54004 -0.14942,0.75293 -0.0996,0.212891 -0.23828,0.389648 -0.41601,0.530273 -0.17774,0.140625 -0.3877,0.244141 -0.62988,0.310547 -0.24219,0.06641 -0.4961,0.09961 -0.76172,0.09961 -0.5,0 -0.92774,-0.167968 -1.28321,-0.503906 l -0.43945,0.474609 c 0,0.01953 -0.0215,0.0293 -0.0644,0.0293 l -0.0703,0 c -0.0703,0 -0.10547,-0.0332 -0.10547,-0.09961 z"
       id="path3717"
       style="fill:#ffffff;stroke:none" />
    <path
       d="m 243.33955,52.272575 0,-3.310546 -0.99609,0 0,-0.310547 c 0.52344,5e-6 0.9082,-0.244136 1.1543,-0.732422 0.24609,-0.488275 0.36914,-1.017572 0.36914,-1.587891 l 0.3457,0 0,2.208985 1.69336,0 0,0.421875 -1.69336,0 0,3.287109 c 0,0.332032 0.0557,0.623048 0.16699,0.873047 0.11133,0.25 0.31152,0.375 0.60059,0.375 0.27343,0 0.4707,-0.131836 0.5918,-0.395508 0.12109,-0.263671 0.18163,-0.54785 0.18164,-0.852539 l 0,-0.708984 0.3457,0 0,0.732421 c 0,0.250002 -0.0459,0.497072 -0.1377,0.741211 -0.0918,0.244141 -0.22754,0.444337 -0.40722,0.600586 -0.17969,0.15625 -0.39844,0.234375 -0.65625,0.234375 -0.48047,0 -0.86036,-0.143554 -1.13965,-0.430664 -0.2793,-0.287109 -0.41895,-0.668944 -0.41895,-1.145508 z"
       id="path3719"
       style="fill:#ffffff;stroke:none" />
    <path
       d="m 247.25948,52.536247 c 0,-0.476561 0.1875,-0.864256 0.5625,-1.163086 0.37499,-0.298825 0.82519,-0.509762 1.35058,-0.632812 0.52539,-0.123044 1.02441,-0.184567 1.49707,-0.18457 l 0,-0.492188 c 0,-0.230465 -0.0508,-0.454097 -0.15234,-0.670898 -0.10157,-0.216793 -0.24805,-0.394527 -0.43945,-0.533204 -0.19141,-0.138666 -0.40235,-0.208002 -0.63282,-0.208007 -0.53125,5e-6 -0.93555,0.119145 -1.21289,0.357422 0.15234,4e-6 0.27832,0.05762 0.37793,0.172851 0.0996,0.115239 0.14941,0.249028 0.14942,0.401367 -1e-5,0.16016 -0.0566,0.296879 -0.16993,0.410157 -0.11328,0.113284 -0.24804,0.169925 -0.40429,0.169921 -0.16016,4e-6 -0.29688,-0.05664 -0.41016,-0.169921 -0.11328,-0.113278 -0.16992,-0.249997 -0.16992,-0.410157 0,-0.42187 0.1914,-0.735346 0.57422,-0.940429 0.38281,-0.205073 0.80468,-0.307612 1.26562,-0.307618 0.32422,6e-6 0.65039,0.06934 0.97852,0.208008 0.32812,0.138677 0.59667,0.336919 0.80566,0.594727 0.20898,0.257817 0.31347,0.558598 0.31348,0.902344 l 0,2.701171 c -1e-5,0.156251 0.0332,0.299806 0.0996,0.430664 0.0664,0.13086 0.16992,0.19629 0.31055,0.19629 0.1328,0 0.23143,-0.06641 0.29589,-0.199219 0.0644,-0.132812 0.0967,-0.27539 0.0967,-0.427735 l 0,-0.767578 0.35157,0 0,0.767578 c -1e-5,0.179689 -0.0469,0.350587 -0.14063,0.512696 -0.0937,0.162109 -0.21973,0.291015 -0.37793,0.386718 -0.15821,0.0957 -0.32911,0.143555 -0.51269,0.143555 -0.23438,0 -0.43653,-0.09082 -0.60645,-0.272461 -0.16993,-0.18164 -0.26465,-0.39746 -0.28418,-0.647461 -0.14844,0.300782 -0.36719,0.54004 -0.65625,0.717774 -0.28906,0.177734 -0.59766,0.266601 -0.92578,0.266601 -0.30469,0 -0.60449,-0.04492 -0.89941,-0.134765 -0.29493,-0.08984 -0.54102,-0.231445 -0.73829,-0.424805 -0.19726,-0.193359 -0.29589,-0.444335 -0.29589,-0.75293 z m 0.97265,0 c 0,0.281251 0.10352,0.517579 0.31055,0.708985 0.20703,0.191406 0.45117,0.287109 0.73242,0.287109 0.25781,0 0.49219,-0.06445 0.70313,-0.193359 0.21093,-0.128906 0.3789,-0.304687 0.5039,-0.527344 0.125,-0.222655 0.1875,-0.45703 0.1875,-0.703125 l 0,-1.248047 c -0.36328,3e-6 -0.73535,0.05957 -1.11621,0.178711 -0.38086,0.119143 -0.69629,0.305666 -0.94629,0.55957 -0.25,0.253908 -0.375,0.566408 -0.375,0.9375 z"
       id="path3721"
       style="fill:#ffffff;stroke:none" />
    <path
       d="m 253.13643,53.713982 0,-0.421875 c 0.27344,0 0.49804,-0.02148 0.67383,-0.06445 0.17578,-0.04297 0.26367,-0.148437 0.26367,-0.316407 l 0,-3.27539 c 0,-0.21484 -0.0322,-0.370113 -0.0967,-0.465821 -0.0645,-0.0957 -0.15723,-0.154292 -0.27832,-0.175781 -0.1211,-0.02148 -0.3086,-0.03222 -0.5625,-0.03223 l 0,-0.421875 1.74023,-0.128907 0,1.171875 c 0.16016,-0.343745 0.39746,-0.624995 0.71192,-0.84375 0.31445,-0.218745 0.65722,-0.328119 1.02832,-0.328125 0.55468,6e-6 0.97167,0.132818 1.25097,0.398438 0.2793,0.265629 0.41894,0.671879 0.41895,1.21875 l 0,2.882812 c -1e-5,0.16797 0.0879,0.273438 0.26367,0.316407 0.17578,0.04297 0.40039,0.06445 0.67383,0.06445 l 0,0.421875 -2.74805,0 0,-0.421875 c 0.27344,0 0.49805,-0.02148 0.67383,-0.06445 0.17578,-0.04297 0.26367,-0.148437 0.26367,-0.316407 l 0,-2.847656 c 0,-0.390621 -0.0566,-0.71191 -0.16992,-0.963867 -0.11328,-0.251948 -0.34571,-0.377925 -0.69726,-0.37793 -0.46485,5e-6 -0.84669,0.185552 -1.14551,0.556641 -0.29883,0.371098 -0.44825,0.792972 -0.44824,1.265625 l 0,2.367187 c -1e-5,0.16797 0.0879,0.273438 0.26367,0.316407 0.17578,0.04297 0.39843,0.06445 0.66797,0.06445 l 0,0.421875 z"
       id="path3723"
       style="fill:#ffffff;stroke:none" />
    <path
       d="m 262.42354,53.848747 c -0.48438,0 -0.92383,-0.125976 -1.31836,-0.377929 -0.39453,-0.251953 -0.70508,-0.58789 -0.93164,-1.007813 -0.22656,-0.41992 -0.33985,-0.866209 -0.33985,-1.338867 0,-0.472653 0.11231,-0.925778 0.33692,-1.359375 0.22461,-0.433589 0.53515,-0.780269 0.93164,-1.040039 0.39648,-0.259761 0.83691,-0.389643 1.32129,-0.389649 0.46874,6e-6 0.8955,0.0918 1.28027,0.275391 0.38476,0.183599 0.57715,0.48438 0.57715,0.902344 0,0.156254 -0.0557,0.291996 -0.16699,0.407226 -0.11133,0.115238 -0.24708,0.172855 -0.40723,0.172852 -0.16016,3e-6 -0.2959,-0.05761 -0.40723,-0.172852 -0.11133,-0.11523 -0.16699,-0.250972 -0.16699,-0.407226 0,-0.140621 0.0449,-0.262691 0.13477,-0.366211 0.0898,-0.103511 0.20117,-0.168941 0.33398,-0.196289 -0.27735,-0.175777 -0.66602,-0.263667 -1.16601,-0.263672 -0.38282,5e-6 -0.69141,0.126958 -0.92578,0.380859 -0.23438,0.253911 -0.39844,0.568364 -0.49219,0.94336 -0.0937,0.375003 -0.14063,0.746096 -0.14063,1.113281 0,0.386721 0.0576,0.760744 0.17285,1.12207 0.11524,0.361329 0.30078,0.660157 0.55665,0.896485 0.25585,0.236328 0.57714,0.354492 0.96386,0.354492 0.37891,0 0.70117,-0.116211 0.9668,-0.348633 0.26562,-0.232421 0.44726,-0.536132 0.54492,-0.911133 0,-0.04687 0.0312,-0.07031 0.0937,-0.07031 l 0.14649,0 c 0.0234,10e-7 0.0449,0.01074 0.0645,0.03223 0.0195,0.02149 0.0293,0.0459 0.0293,0.07324 l 0,0.03516 c -0.1211,0.472657 -0.36134,0.847656 -0.72071,1.125 -0.35938,0.277343 -0.7832,0.416015 -1.27148,0.416015 z"
       id="path3725"
       style="fill:#ffffff;stroke:none" />
    <path
       d="m 267.74385,53.848747 c -0.48828,0 -0.93652,-0.127929 -1.34473,-0.383789 -0.4082,-0.255859 -0.72851,-0.597655 -0.96093,-1.02539 -0.23243,-0.427733 -0.34864,-0.879881 -0.34864,-1.356446 0,-0.468747 0.10645,-0.914059 0.31934,-1.335937 0.21289,-0.421871 0.50976,-0.762691 0.89062,-1.022461 0.38086,-0.259761 0.80567,-0.389643 1.27442,-0.389649 0.36718,6e-6 0.68652,0.06153 0.95801,0.184571 0.27148,0.123052 0.49511,0.29395 0.6709,0.512695 0.17577,0.218754 0.30858,0.476567 0.39843,0.773438 0.0898,0.296878 0.13476,0.62305 0.13477,0.978515 -10e-6,0.105472 -0.041,0.158206 -0.12305,0.158203 l -3.47461,0 0,0.128907 c 0,0.664064 0.13379,1.234376 0.40137,1.710937 0.26758,0.476563 0.7041,0.714844 1.30957,0.714844 0.24609,0 0.47363,-0.05469 0.68262,-0.164063 0.20898,-0.109374 0.39062,-0.261718 0.54492,-0.457031 0.15429,-0.195311 0.25878,-0.404296 0.31348,-0.626953 0.008,-0.02734 0.0224,-0.05176 0.0439,-0.07324 0.0215,-0.02148 0.0459,-0.03223 0.0732,-0.03223 l 0.10547,0 c 0.082,2e-6 0.12304,0.05078 0.12305,0.152344 -0.11329,0.453126 -0.35743,0.825196 -0.73242,1.116211 -0.37501,0.291015 -0.79493,0.436523 -1.25977,0.436523 z m -1.59375,-3.205078 2.73633,0 c -1e-5,-0.300778 -0.042,-0.605465 -0.12598,-0.914062 -0.084,-0.30859 -0.22363,-0.565426 -0.41894,-0.770508 -0.19532,-0.205073 -0.45118,-0.307612 -0.76758,-0.307617 -0.45313,5e-6 -0.80371,0.211919 -1.05176,0.635742 -0.24805,0.423832 -0.37207,0.87598 -0.37207,1.356445 z"
       id="path3727"
       style="fill:#ffffff;stroke:none" />
  </g>
</svg>
