<?xml version="1.0" encoding="utf-8"?>
<!-- Generator: Adobe Illustrator 16.0.0, SVG Export Plug-In . SVG Version: 6.00 Build 0)  -->
<!DOCTYPE svg PUBLIC "-//W3C//DTD SVG 1.1//EN" "http://www.w3.org/Graphics/SVG/1.1/DTD/svg11.dtd">
<svg version="1.1"
	 id="svg3020" xmlns:dc="http://purl.org/dc/elements/1.1/" xmlns:cc="http://creativecommons.org/ns#" xmlns:rdf="http://www.w3.org/1999/02/22-rdf-syntax-ns#" xmlns:svg="http://www.w3.org/2000/svg" xmlns:inkscape="http://www.inkscape.org/namespaces/inkscape"
	 xmlns="http://www.w3.org/2000/svg" xmlns:xlink="http://www.w3.org/1999/xlink" x="0px" y="0px" width="320px" height="60px"
	 viewBox="0 0 320 60" enable-background="new 0 0 320 60" xml:space="preserve">
<g id="text3030" transform="scale(0.95814898,1.043679)">
</g>
<g id="g3009" transform="matrix(1.4688253,0,0,1.4688253,-277.70507,-0.75165246)">
	<g id="flowRoot3055" transform="matrix(0.68081616,0,0,0.68081616,189.0661,0.51173714)">
	</g>
	<g id="flowRoot3063" transform="matrix(0.68081616,0,0,0.68081616,189.0661,0.51173714)">
	</g>
	<path id="path3142-1" inkscape:connector-curvature="0" fill="none" stroke="#000000" stroke-width="0.7866" d="M248.743,20.565
		h146.602"/>
	<g id="g3569" transform="matrix(0.68081616,0,0,0.68081616,66.230655,78.160046)">
	</g>
	<g id="g4521" transform="matrix(0.90952671,0,0,0.90952671,32.493425,6.0903865)">
		<g id="g4583" transform="matrix(1.1042779,0,0,1.1042779,-30.817083,-3.1202082)">
			<g id="text4585">
				<path id="path69" inkscape:connector-curvature="0" d="M193.264,21.572v-0.485c0.463,0,0.912-0.025,1.348-0.074
					c0.436-0.054,0.654-0.175,0.654-0.364v-7.58c0-0.198-0.056-0.319-0.168-0.364c-0.108-0.049-0.285-0.074-0.532-0.074h-0.58
					c-0.759,0-1.298,0.166-1.617,0.499c-0.166,0.166-0.285,0.433-0.357,0.802c-0.072,0.364-0.133,0.822-0.182,1.375h-0.398
					l0.263-3.16h8.429l0.263,3.16h-0.404c-0.054-0.593-0.115-1.062-0.182-1.408c-0.063-0.35-0.18-0.607-0.351-0.768
					c-0.323-0.333-0.862-0.499-1.617-0.499h-0.579c-0.166,0-0.297,0.007-0.391,0.02c-0.09,0.014-0.164,0.054-0.222,0.121
					c-0.059,0.063-0.088,0.162-0.088,0.297v7.58c0,0.189,0.218,0.31,0.654,0.364c0.436,0.049,0.883,0.074,1.341,0.074v0.485H193.264
					z"/>
				<path id="path71" inkscape:connector-curvature="0" d="M205.198,21.726l-2.817-8.659c-0.072-0.193-0.211-0.315-0.418-0.364
					c-0.207-0.049-0.476-0.074-0.809-0.074v-0.485h3.699v0.485c-0.773,0-1.159,0.124-1.159,0.371v0.068l2.203,6.792l1.88-5.809
					l-0.317-0.984c-0.072-0.193-0.211-0.315-0.418-0.364c-0.207-0.049-0.476-0.074-0.809-0.074v-0.485h3.693v0.485
					c-0.782,0-1.173,0.124-1.173,0.371c0,0.014,0.005,0.034,0.014,0.061c0.009,0.027,0.014,0.045,0.014,0.054l2.197,6.745
					l2.069-6.415c0.009-0.027,0.013-0.07,0.013-0.128c0-0.243-0.128-0.418-0.384-0.526c-0.256-0.108-0.523-0.162-0.802-0.162v-0.485
					h2.951v0.485c-0.728,0-1.177,0.272-1.347,0.816l-2.696,8.281c-0.031,0.099-0.099,0.148-0.202,0.148h-0.101
					c-0.103,0-0.17-0.05-0.202-0.148l-2.277-7.028l-2.291,7.028c-0.032,0.099-0.101,0.148-0.209,0.148h-0.094
					C205.299,21.875,205.229,21.825,205.198,21.726z"/>
				<path id="path73" inkscape:connector-curvature="0" d="M215.527,21.572v-0.485c0.822,0,1.328-0.271,1.516-0.816l2.897-8.429
					c0.027-0.099,0.101-0.148,0.222-0.148h0.175c0.121,0,0.196,0.05,0.222,0.148l3.026,8.807c0.085,0.193,0.247,0.315,0.485,0.364
					c0.243,0.049,0.543,0.074,0.903,0.074v0.485h-3.848v-0.485c0.764,0,1.146-0.123,1.146-0.371v-0.068l-0.748-2.156h-3.349
					l-0.62,1.779c-0.009,0.032-0.014,0.079-0.014,0.142c0,0.229,0.108,0.4,0.324,0.512c0.22,0.107,0.456,0.162,0.707,0.162v0.485
					H215.527z M218.337,18.013h3.026l-1.516-4.407L218.337,18.013z"/>
			</g>
			<g id="text4587">
				<path id="path76" inkscape:connector-curvature="0" d="M238.542,16.302h-7.992v-1.078h7.992V16.302z M238.542,19.132h-7.992
					v-1.078h7.992V19.132z"/>
			</g>
			<g id="text4589">
			</g>
			<g id="text4591">
				<path id="path80" inkscape:connector-curvature="0" d="M247.791,9.61c0.314,0.4,0.708,0.717,1.179,0.95
					c0.472,0.229,0.961,0.344,1.469,0.344c0.427,0,0.822-0.083,1.186-0.249c0.364-0.171,0.681-0.407,0.95-0.708
					c0.274-0.301,0.483-0.642,0.627-1.024c0.148-0.382,0.222-0.784,0.222-1.206c0-0.072,0.04-0.108,0.121-0.108h0.168
					c0.072,0,0.108,0.045,0.108,0.135c0,0.481-0.092,0.946-0.276,1.395c-0.184,0.445-0.445,0.838-0.781,1.179
					c-0.337,0.337-0.726,0.599-1.166,0.788c-0.436,0.189-0.892,0.283-1.368,0.283c-0.66,0-1.287-0.132-1.88-0.398
					c-0.588-0.269-1.103-0.635-1.543-1.098c-0.436-0.467-0.777-1.006-1.024-1.617c-0.243-0.611-0.364-1.246-0.364-1.907
					c0-0.661,0.121-1.296,0.364-1.907c0.247-0.611,0.589-1.15,1.024-1.617c0.44-0.467,0.955-0.831,1.543-1.092
					c0.593-0.265,1.22-0.397,1.88-0.397c0.472,0,0.923,0.103,1.354,0.31c0.431,0.202,0.809,0.49,1.132,0.863l0.802-1.132
					c0.054-0.027,0.085-0.04,0.094-0.04h0.101c0.027,0,0.052,0.011,0.074,0.034c0.023,0.022,0.034,0.049,0.034,0.081v3.726
					c0,0.081-0.036,0.121-0.108,0.121h-0.249c-0.085,0-0.128-0.04-0.128-0.121c0-0.265-0.054-0.561-0.162-0.889
					c-0.103-0.328-0.238-0.638-0.404-0.93c-0.162-0.296-0.351-0.557-0.566-0.781c-0.517-0.503-1.11-0.755-1.779-0.755
					c-0.508,0-0.995,0.115-1.462,0.344c-0.463,0.229-0.854,0.546-1.172,0.95c-0.337,0.431-0.571,0.923-0.701,1.476
					c-0.13,0.548-0.196,1.134-0.196,1.759c0,0.624,0.065,1.213,0.196,1.765C247.22,8.687,247.454,9.179,247.791,9.61z"/>
			</g>
			<g id="text4593">
				<path id="path83" inkscape:connector-curvature="0" d="M253.902,12.945c0-0.399,0.157-0.723,0.471-0.972
					c0.314-0.252,0.69-0.429,1.129-0.53c0.442-0.105,0.86-0.157,1.256-0.157v-0.412c0-0.193-0.042-0.38-0.127-0.559
					c-0.085-0.183-0.208-0.332-0.368-0.446c-0.161-0.118-0.337-0.177-0.53-0.177c-0.445,0-0.783,0.1-1.016,0.299
					c0.128,0,0.232,0.049,0.314,0.147c0.085,0.095,0.128,0.206,0.128,0.334c0,0.134-0.048,0.249-0.142,0.344
					c-0.095,0.095-0.208,0.142-0.339,0.142c-0.134,0-0.249-0.047-0.344-0.142c-0.095-0.095-0.142-0.21-0.142-0.344
					c0-0.353,0.16-0.615,0.481-0.785c0.321-0.173,0.674-0.26,1.06-0.26c0.272,0,0.545,0.059,0.819,0.177
					c0.275,0.115,0.499,0.28,0.673,0.495c0.176,0.216,0.265,0.468,0.265,0.756v2.262c0,0.131,0.028,0.252,0.083,0.363
					c0.056,0.108,0.142,0.162,0.26,0.162c0.111,0,0.193-0.056,0.245-0.167c0.056-0.111,0.083-0.231,0.083-0.358v-0.643h0.295v0.643
					c0,0.151-0.039,0.295-0.118,0.432c-0.078,0.134-0.185,0.242-0.319,0.324c-0.131,0.078-0.273,0.118-0.427,0.118
					c-0.196,0-0.366-0.075-0.51-0.226c-0.141-0.154-0.219-0.336-0.236-0.545c-0.124,0.252-0.307,0.453-0.55,0.603
					c-0.242,0.147-0.5,0.221-0.775,0.221c-0.255,0-0.507-0.038-0.756-0.113c-0.245-0.075-0.451-0.193-0.618-0.353
					C253.984,13.415,253.902,13.204,253.902,12.945z M254.717,12.945c0,0.235,0.087,0.433,0.26,0.594
					c0.173,0.16,0.378,0.24,0.614,0.24c0.216,0,0.412-0.054,0.589-0.162c0.176-0.108,0.317-0.255,0.422-0.442
					c0.105-0.186,0.157-0.383,0.157-0.589v-1.045c-0.304,0-0.617,0.051-0.937,0.152c-0.317,0.098-0.581,0.254-0.79,0.466
					C254.822,12.373,254.717,12.634,254.717,12.945z"/>
			</g>
			<g id="text4595">
				<path id="path86" inkscape:connector-curvature="0" d="M261.676,11.085V10.6c0.463,0,0.912-0.025,1.348-0.074
					c0.436-0.054,0.653-0.175,0.653-0.364V2.582c0-0.198-0.056-0.319-0.168-0.364c-0.108-0.049-0.285-0.074-0.532-0.074h-0.58
					c-0.759,0-1.298,0.166-1.617,0.498c-0.166,0.166-0.285,0.434-0.357,0.802c-0.072,0.364-0.132,0.822-0.182,1.375h-0.397
					l0.262-3.16h8.43l0.263,3.16h-0.404c-0.054-0.593-0.115-1.062-0.182-1.408c-0.063-0.35-0.18-0.606-0.35-0.768
					c-0.323-0.332-0.863-0.498-1.617-0.498h-0.58c-0.166,0-0.297,0.007-0.391,0.02c-0.09,0.014-0.164,0.054-0.222,0.121
					c-0.058,0.063-0.087,0.162-0.087,0.297v7.581c0,0.189,0.218,0.31,0.654,0.364c0.436,0.049,0.882,0.074,1.341,0.074v0.485
					H261.676z"/>
			</g>
			<g id="text4597">
				<path id="path89" inkscape:connector-curvature="0" d="M267.252,12.945c0-0.399,0.157-0.723,0.471-0.972
					c0.314-0.252,0.69-0.429,1.129-0.53c0.442-0.105,0.86-0.157,1.256-0.157v-0.412c0-0.193-0.043-0.38-0.128-0.559
					c-0.085-0.183-0.208-0.332-0.368-0.446c-0.16-0.118-0.337-0.177-0.53-0.177c-0.445,0-0.783,0.1-1.016,0.299
					c0.127,0,0.232,0.049,0.314,0.147c0.085,0.095,0.127,0.206,0.127,0.334c0,0.134-0.047,0.249-0.142,0.344
					c-0.095,0.095-0.208,0.142-0.339,0.142c-0.134,0-0.249-0.047-0.344-0.142c-0.095-0.095-0.142-0.21-0.142-0.344
					c0-0.353,0.16-0.615,0.481-0.785c0.32-0.173,0.674-0.26,1.06-0.26c0.271,0,0.545,0.059,0.82,0.177
					c0.275,0.115,0.499,0.28,0.672,0.495c0.177,0.216,0.265,0.468,0.265,0.756v2.262c0,0.131,0.028,0.252,0.083,0.363
					c0.056,0.108,0.142,0.162,0.26,0.162c0.111,0,0.193-0.056,0.245-0.167c0.056-0.111,0.083-0.231,0.083-0.358v-0.643h0.295v0.643
					c0,0.151-0.039,0.295-0.118,0.432c-0.078,0.134-0.185,0.242-0.319,0.324c-0.131,0.078-0.273,0.118-0.427,0.118
					c-0.196,0-0.366-0.075-0.51-0.226c-0.141-0.154-0.219-0.336-0.235-0.545c-0.124,0.252-0.308,0.453-0.55,0.603
					c-0.242,0.147-0.5,0.221-0.776,0.221c-0.255,0-0.507-0.038-0.756-0.113c-0.245-0.075-0.451-0.193-0.618-0.353
					C267.334,13.415,267.252,13.204,267.252,12.945z M268.067,12.945c0,0.235,0.087,0.433,0.26,0.594
					c0.173,0.16,0.378,0.24,0.613,0.24c0.216,0,0.412-0.054,0.589-0.162c0.177-0.108,0.317-0.255,0.422-0.442
					c0.105-0.186,0.157-0.383,0.157-0.589v-1.045c-0.305,0-0.617,0.051-0.937,0.152c-0.317,0.098-0.581,0.254-0.79,0.466
					C268.172,12.373,268.067,12.634,268.067,12.945L268.067,12.945z"/>
			</g>
			<g id="text4599">
				<path id="path92" inkscape:connector-curvature="0" d="M285.422,7.231h-3.672v3.673h-1.119V7.231h-3.672V6.153h3.672V2.481
					h1.119v3.672h3.672V7.231z"/>
			</g>
			<g id="text4601">
				<path id="path95" inkscape:connector-curvature="0" d="M292.041,9.61c0.314,0.4,0.708,0.717,1.179,0.95
					c0.471,0.229,0.961,0.344,1.469,0.344c0.427,0,0.822-0.083,1.186-0.249c0.363-0.171,0.681-0.407,0.95-0.708
					c0.274-0.301,0.483-0.642,0.626-1.024c0.148-0.382,0.222-0.784,0.222-1.206c0-0.072,0.041-0.108,0.122-0.108h0.168
					c0.072,0,0.108,0.045,0.108,0.135c0,0.481-0.092,0.946-0.276,1.395c-0.184,0.445-0.445,0.838-0.782,1.179
					c-0.337,0.337-0.726,0.599-1.166,0.788c-0.436,0.189-0.892,0.283-1.368,0.283c-0.661,0-1.287-0.132-1.88-0.398
					c-0.589-0.269-1.103-0.635-1.543-1.098c-0.436-0.467-0.777-1.006-1.024-1.617c-0.243-0.611-0.364-1.246-0.364-1.907
					c0-0.661,0.121-1.296,0.364-1.907c0.247-0.611,0.589-1.15,1.024-1.617c0.44-0.467,0.955-0.831,1.543-1.092
					c0.593-0.265,1.219-0.397,1.88-0.397c0.471,0,0.923,0.103,1.354,0.31c0.431,0.202,0.808,0.49,1.132,0.863l0.802-1.132
					c0.054-0.027,0.085-0.04,0.095-0.04h0.101c0.027,0,0.052,0.011,0.074,0.034c0.023,0.022,0.034,0.049,0.034,0.081v3.726
					c0,0.081-0.036,0.121-0.108,0.121h-0.249c-0.086,0-0.128-0.04-0.128-0.121c0-0.265-0.054-0.561-0.162-0.889
					c-0.103-0.328-0.238-0.638-0.404-0.93c-0.162-0.296-0.35-0.557-0.566-0.781c-0.516-0.503-1.109-0.755-1.779-0.755
					c-0.508,0-0.995,0.115-1.462,0.344c-0.463,0.229-0.854,0.546-1.172,0.95c-0.337,0.431-0.571,0.923-0.701,1.476
					c-0.13,0.548-0.195,1.134-0.195,1.759c0,0.624,0.065,1.213,0.195,1.765C291.47,8.687,291.704,9.179,292.041,9.61z"/>
			</g>
			<g id="text4603">
				<path id="path98" inkscape:connector-curvature="0" d="M298.795,13.932V7.984c0-0.18-0.028-0.309-0.083-0.388
					c-0.052-0.082-0.129-0.131-0.23-0.147c-0.102-0.02-0.259-0.029-0.471-0.029V7.066l1.487-0.108v3.145
					c0.111-0.124,0.241-0.232,0.388-0.324c0.15-0.095,0.31-0.167,0.481-0.216s0.344-0.073,0.52-0.073
					c0.301,0,0.579,0.061,0.834,0.181c0.258,0.121,0.483,0.288,0.673,0.501c0.189,0.212,0.337,0.458,0.442,0.736
					c0.108,0.275,0.162,0.559,0.162,0.854c0,0.406-0.1,0.784-0.299,1.134c-0.197,0.35-0.467,0.63-0.81,0.839
					c-0.34,0.206-0.715,0.309-1.124,0.309c-0.255,0-0.502-0.066-0.741-0.196c-0.239-0.131-0.436-0.305-0.594-0.52l-0.343,0.604
					H298.795z M299.526,12.945c0.111,0.245,0.272,0.447,0.481,0.603c0.21,0.154,0.442,0.231,0.697,0.231
					c0.347,0,0.626-0.1,0.839-0.299c0.216-0.2,0.366-0.451,0.451-0.756c0.085-0.304,0.127-0.625,0.127-0.962
					c0-0.566-0.073-0.996-0.221-1.291c-0.065-0.131-0.155-0.252-0.269-0.363c-0.112-0.111-0.238-0.198-0.378-0.26
					c-0.138-0.066-0.283-0.098-0.437-0.098c-0.268,0-0.516,0.072-0.745,0.216c-0.229,0.141-0.411,0.33-0.545,0.569V12.945
					L299.526,12.945z"/>
			</g>
			<g id="text4605">
				<path id="path101" inkscape:connector-curvature="0" d="M305.625,11.085V10.6c0.463,0,0.912-0.025,1.348-0.074
					c0.436-0.054,0.654-0.175,0.654-0.364V2.582c0-0.198-0.056-0.319-0.169-0.364c-0.108-0.049-0.285-0.074-0.532-0.074h-0.579
					c-0.759,0-1.299,0.166-1.618,0.498c-0.165,0.166-0.285,0.434-0.357,0.802c-0.072,0.364-0.132,0.822-0.182,1.375h-0.397
					l0.263-3.16h8.429l0.263,3.16h-0.404c-0.054-0.593-0.115-1.062-0.182-1.408c-0.062-0.35-0.179-0.606-0.35-0.768
					c-0.324-0.332-0.863-0.498-1.617-0.498h-0.58c-0.165,0-0.297,0.007-0.391,0.02c-0.09,0.014-0.164,0.054-0.222,0.121
					c-0.058,0.063-0.087,0.162-0.087,0.297v7.581c0,0.189,0.218,0.31,0.654,0.364c0.436,0.049,0.882,0.074,1.34,0.074v0.485H305.625
					z"/>
			</g>
			<g id="text4607">
				<path id="path104" inkscape:connector-curvature="0" d="M312.295,13.932V7.984c0-0.18-0.028-0.309-0.083-0.388
					c-0.052-0.082-0.13-0.131-0.23-0.147c-0.102-0.02-0.259-0.029-0.471-0.029V7.066l1.487-0.108v3.145
					c0.111-0.124,0.24-0.232,0.388-0.324c0.15-0.095,0.31-0.167,0.481-0.216c0.17-0.049,0.344-0.073,0.52-0.073
					c0.301,0,0.579,0.061,0.834,0.181c0.258,0.121,0.483,0.288,0.673,0.501c0.189,0.212,0.336,0.458,0.442,0.736
					c0.108,0.275,0.162,0.559,0.162,0.854c0,0.406-0.101,0.784-0.3,1.134c-0.197,0.35-0.466,0.63-0.81,0.839
					c-0.34,0.206-0.715,0.309-1.124,0.309c-0.255,0-0.502-0.066-0.741-0.196c-0.239-0.131-0.437-0.305-0.594-0.52l-0.344,0.604
					H312.295z M313.026,12.945c0.111,0.245,0.271,0.447,0.481,0.603c0.209,0.154,0.442,0.231,0.697,0.231
					c0.347,0,0.626-0.1,0.839-0.299c0.216-0.2,0.366-0.451,0.451-0.756c0.085-0.304,0.128-0.625,0.128-0.962
					c0-0.566-0.074-0.996-0.221-1.291c-0.065-0.131-0.155-0.252-0.27-0.363c-0.111-0.111-0.237-0.198-0.377-0.26
					c-0.138-0.066-0.283-0.098-0.437-0.098c-0.269,0-0.517,0.072-0.746,0.216c-0.229,0.141-0.41,0.33-0.545,0.569V12.945
					L313.026,12.945z"/>
			</g>
			<g id="text4609">
				<path id="path107" inkscape:connector-curvature="0" d="M330.878,7.231h-3.673v3.673h-1.118V7.231h-3.672V6.153h3.672V2.481
					h1.118v3.672h3.673V7.231z"/>
			</g>
			<g id="text4611">
				<path id="path110" inkscape:connector-curvature="0" d="M335.934,7.923c0-0.207,0.076-0.384,0.229-0.532
					c0.152-0.148,0.33-0.222,0.532-0.222c0.126,0,0.249,0.034,0.371,0.101c0.121,0.068,0.216,0.162,0.283,0.283
					c0.067,0.121,0.101,0.245,0.101,0.37c0,0.202-0.074,0.38-0.222,0.533c-0.148,0.153-0.326,0.229-0.532,0.229
					c-0.203,0-0.38-0.076-0.532-0.229C336.01,8.302,335.934,8.125,335.934,7.923z"/>
				<path id="path112" inkscape:connector-curvature="0" d="M339.762,7.923c0-0.207,0.076-0.384,0.229-0.532
					c0.152-0.148,0.33-0.222,0.532-0.222c0.126,0,0.249,0.034,0.371,0.101c0.121,0.068,0.216,0.162,0.283,0.283
					c0.068,0.121,0.101,0.245,0.101,0.37c0,0.202-0.074,0.38-0.222,0.533c-0.148,0.153-0.326,0.229-0.532,0.229
					c-0.203,0-0.38-0.076-0.532-0.229C339.838,8.302,339.762,8.125,339.762,7.923z"/>
				<path id="path114" inkscape:connector-curvature="0" d="M343.588,7.923c0.001-0.207,0.076-0.384,0.23-0.532
					c0.152-0.148,0.33-0.222,0.532-0.222c0.126,0,0.249,0.034,0.371,0.101c0.12,0.068,0.215,0.162,0.283,0.283
					c0.067,0.121,0.101,0.245,0.101,0.37c0,0.202-0.074,0.38-0.222,0.533c-0.148,0.153-0.326,0.229-0.532,0.229
					c-0.203,0-0.38-0.076-0.532-0.229C343.664,8.302,343.589,8.125,343.588,7.923z"/>
			</g>
			<g id="text4613">
				<path id="path117" inkscape:connector-curvature="0" d="M358.328,7.231h-3.673v3.673h-1.119V7.231h-3.673V6.153h3.673V2.481
					h1.119v3.672h3.673V7.231z"/>
			</g>
			<g id="text4615">
				<path id="path120" inkscape:connector-curvature="0" d="M363.591,9.61c0.314,0.4,0.707,0.717,1.179,0.95
					c0.472,0.229,0.962,0.344,1.469,0.344c0.427,0,0.822-0.083,1.186-0.249c0.364-0.171,0.681-0.407,0.95-0.708
					c0.274-0.301,0.483-0.642,0.627-1.024c0.148-0.382,0.222-0.784,0.222-1.206c0-0.072,0.04-0.108,0.121-0.108h0.169
					c0.072,0,0.107,0.045,0.107,0.135c0,0.481-0.092,0.946-0.276,1.395c-0.185,0.445-0.445,0.838-0.782,1.179
					c-0.337,0.337-0.725,0.599-1.166,0.788c-0.436,0.189-0.892,0.283-1.368,0.283c-0.661,0-1.288-0.132-1.88-0.398
					c-0.588-0.269-1.103-0.635-1.543-1.098c-0.436-0.467-0.777-1.006-1.025-1.617c-0.242-0.611-0.363-1.246-0.363-1.907
					c0-0.661,0.121-1.296,0.363-1.907c0.248-0.611,0.589-1.15,1.025-1.617c0.44-0.467,0.955-0.831,1.543-1.092
					c0.592-0.265,1.219-0.397,1.88-0.397c0.472,0,0.923,0.103,1.354,0.31c0.431,0.202,0.808,0.49,1.132,0.863l0.802-1.132
					c0.054-0.027,0.085-0.04,0.094-0.04h0.102c0.026,0,0.052,0.011,0.074,0.034c0.023,0.022,0.033,0.049,0.033,0.081v3.726
					c0,0.081-0.036,0.121-0.107,0.121h-0.25c-0.085,0-0.127-0.04-0.127-0.121c0-0.265-0.054-0.561-0.162-0.889
					c-0.103-0.328-0.238-0.638-0.404-0.93c-0.161-0.296-0.35-0.557-0.565-0.781c-0.517-0.503-1.11-0.755-1.779-0.755
					c-0.508,0-0.995,0.115-1.462,0.344c-0.463,0.229-0.853,0.546-1.172,0.95c-0.337,0.431-0.571,0.923-0.7,1.476
					c-0.131,0.548-0.196,1.134-0.196,1.759c0,0.624,0.065,1.213,0.196,1.765C363.02,8.687,363.254,9.179,363.591,9.61z"/>
			</g>
			<g id="text4617">
				<path id="path123" inkscape:connector-curvature="0" d="M369.599,13.932v-0.353c0.229,0,0.417-0.018,0.564-0.054
					c0.148-0.036,0.221-0.124,0.221-0.265v-2.743c0-0.18-0.028-0.309-0.083-0.388c-0.052-0.082-0.129-0.131-0.23-0.147
					c-0.102-0.02-0.258-0.029-0.471-0.029V9.599l1.458-0.108v0.981c0.134-0.288,0.332-0.523,0.594-0.707
					c0.265-0.183,0.553-0.275,0.864-0.275c0.465,0,0.813,0.111,1.045,0.334c0.236,0.222,0.353,0.563,0.353,1.021v2.414
					c0,0.141,0.074,0.229,0.221,0.265c0.147,0.036,0.335,0.054,0.564,0.054v0.353h-2.301v-0.353c0.229,0,0.417-0.018,0.564-0.054
					c0.147-0.036,0.221-0.124,0.221-0.265v-2.385c0-0.327-0.048-0.595-0.142-0.805c-0.095-0.212-0.289-0.319-0.585-0.319
					c-0.389,0-0.71,0.155-0.961,0.466c-0.249,0.311-0.373,0.664-0.373,1.06v1.982c0,0.141,0.074,0.229,0.221,0.265
					s0.334,0.054,0.559,0.054v0.353H369.599z"/>
			</g>
			<g id="text4619">
				<path id="path126" inkscape:connector-curvature="0" d="M377.626,11.085V10.6c0.462,0,0.912-0.025,1.347-0.074
					c0.436-0.054,0.653-0.175,0.653-0.364V2.582c0-0.198-0.056-0.319-0.168-0.364c-0.108-0.049-0.285-0.074-0.532-0.074h-0.58
					c-0.759,0-1.297,0.166-1.617,0.498c-0.167,0.166-0.286,0.434-0.357,0.802c-0.072,0.364-0.132,0.822-0.182,1.375h-0.398
					l0.263-3.16h8.43l0.262,3.16h-0.404c-0.054-0.593-0.115-1.062-0.182-1.408c-0.063-0.35-0.179-0.606-0.35-0.768
					c-0.324-0.332-0.863-0.498-1.617-0.498h-0.579c-0.167,0-0.297,0.007-0.391,0.02c-0.089,0.014-0.163,0.054-0.222,0.121
					c-0.058,0.063-0.087,0.162-0.087,0.297v7.581c0,0.189,0.218,0.31,0.653,0.364c0.436,0.049,0.883,0.074,1.341,0.074v0.485
					H377.626z"/>
			</g>
			<g id="text4621">
				<path id="path129" inkscape:connector-curvature="0" d="M383.099,13.932v-0.353c0.229,0,0.417-0.018,0.564-0.054
					c0.148-0.036,0.221-0.124,0.221-0.265v-2.743c0-0.18-0.028-0.309-0.083-0.388c-0.052-0.082-0.129-0.131-0.23-0.147
					c-0.102-0.02-0.258-0.029-0.471-0.029V9.599l1.458-0.108v0.981c0.134-0.288,0.332-0.523,0.593-0.707
					c0.265-0.183,0.553-0.275,0.865-0.275c0.464,0,0.813,0.111,1.045,0.334c0.236,0.222,0.353,0.563,0.353,1.021v2.414
					c0,0.141,0.074,0.229,0.221,0.265c0.147,0.036,0.335,0.054,0.564,0.054v0.353h-2.301v-0.353c0.229,0,0.417-0.018,0.564-0.054
					c0.147-0.036,0.221-0.124,0.221-0.265v-2.385c0-0.327-0.048-0.595-0.143-0.805c-0.094-0.212-0.289-0.319-0.584-0.319
					c-0.389,0-0.71,0.155-0.961,0.466c-0.249,0.311-0.373,0.664-0.373,1.06v1.982c0,0.141,0.074,0.229,0.221,0.265
					c0.147,0.036,0.334,0.054,0.559,0.054v0.353H383.099z"/>
			</g>
			<g id="text4623">
				<path id="path132" inkscape:connector-curvature="0" d="M268.726,30.859v-0.485c0.463,0,0.912-0.025,1.348-0.074
					c0.436-0.054,0.653-0.175,0.653-0.364v-7.58c0-0.198-0.056-0.319-0.168-0.363c-0.108-0.05-0.285-0.074-0.532-0.074h-0.58
					c-0.759,0-1.298,0.165-1.617,0.498c-0.166,0.167-0.285,0.434-0.357,0.802c-0.072,0.364-0.132,0.822-0.182,1.374h-0.398
					l0.263-3.16h8.429l0.263,3.16h-0.404c-0.054-0.592-0.115-1.062-0.182-1.408c-0.063-0.35-0.18-0.606-0.35-0.769
					c-0.323-0.332-0.863-0.498-1.617-0.498h-0.58c-0.166,0-0.297,0.007-0.391,0.02c-0.09,0.013-0.164,0.054-0.222,0.121
					c-0.059,0.063-0.088,0.162-0.088,0.297v7.58c0,0.189,0.218,0.31,0.654,0.364c0.436,0.05,0.883,0.074,1.341,0.074v0.485H268.726z
					"/>
			</g>
			<g id="text4625">
				<path id="path135" inkscape:connector-curvature="0" d="M274.452,32.719c0-0.399,0.157-0.724,0.471-0.972
					c0.314-0.252,0.69-0.428,1.129-0.53c0.442-0.105,0.861-0.157,1.256-0.157v-0.412c0-0.193-0.043-0.379-0.128-0.559
					c-0.085-0.184-0.208-0.332-0.368-0.447c-0.16-0.118-0.337-0.177-0.53-0.177c-0.445,0-0.783,0.099-1.016,0.299
					c0.128,0,0.232,0.049,0.314,0.147c0.085,0.095,0.127,0.207,0.127,0.334c0,0.134-0.047,0.249-0.142,0.344
					c-0.095,0.095-0.208,0.142-0.339,0.142c-0.134,0-0.249-0.047-0.344-0.142c-0.095-0.095-0.142-0.21-0.142-0.344
					c0-0.353,0.16-0.614,0.481-0.785c0.32-0.173,0.674-0.259,1.06-0.259c0.272,0,0.545,0.058,0.82,0.176
					c0.275,0.115,0.499,0.28,0.672,0.496c0.177,0.216,0.265,0.468,0.265,0.756v2.262c0,0.131,0.028,0.252,0.083,0.363
					c0.056,0.108,0.142,0.162,0.26,0.162c0.111,0,0.193-0.056,0.245-0.167c0.056-0.111,0.083-0.231,0.083-0.359v-0.643h0.295v0.643
					c0,0.151-0.039,0.295-0.118,0.432c-0.079,0.134-0.185,0.242-0.319,0.324c-0.131,0.078-0.273,0.118-0.427,0.118
					c-0.196,0-0.366-0.075-0.51-0.226c-0.141-0.154-0.219-0.336-0.235-0.545c-0.124,0.252-0.308,0.453-0.55,0.604
					c-0.242,0.147-0.5,0.221-0.775,0.221c-0.256,0-0.507-0.038-0.756-0.113c-0.245-0.075-0.451-0.193-0.618-0.354
					C274.534,33.188,274.452,32.977,274.452,32.719z M275.267,32.719c0,0.235,0.087,0.434,0.26,0.594
					c0.173,0.16,0.378,0.24,0.613,0.24c0.216,0,0.412-0.054,0.589-0.162c0.177-0.107,0.317-0.255,0.422-0.442
					c0.105-0.186,0.157-0.383,0.157-0.588v-1.046c-0.304,0-0.617,0.051-0.937,0.152c-0.317,0.098-0.581,0.254-0.79,0.466
					C275.371,32.146,275.267,32.409,275.267,32.719L275.267,32.719z"/>
			</g>
			<g id="text4627">
				<path id="path138" inkscape:connector-curvature="0" d="M292.623,27.004h-3.673v3.673h-1.118v-3.673h-3.672v-1.078h3.672v-3.673
					h1.118v3.673h3.673V27.004z"/>
			</g>
			<g id="text4629">
				<path id="path141" inkscape:connector-curvature="0" d="M298.426,30.859v-0.485c0.463,0,0.912-0.025,1.348-0.074
					c0.436-0.054,0.653-0.175,0.653-0.364v-7.58c0-0.198-0.056-0.319-0.169-0.363c-0.107-0.05-0.285-0.074-0.532-0.074h-0.579
					c-0.759,0-1.298,0.165-1.617,0.498c-0.166,0.167-0.285,0.434-0.357,0.802c-0.072,0.364-0.132,0.822-0.181,1.374h-0.398
					l0.263-3.16h8.429l0.263,3.16h-0.404c-0.054-0.592-0.114-1.062-0.181-1.408c-0.063-0.35-0.18-0.606-0.351-0.769
					c-0.323-0.332-0.862-0.498-1.617-0.498h-0.58c-0.166,0-0.297,0.007-0.391,0.02c-0.09,0.013-0.164,0.054-0.222,0.121
					c-0.058,0.063-0.087,0.162-0.087,0.297v7.58c0,0.189,0.217,0.31,0.653,0.364c0.436,0.05,0.883,0.074,1.341,0.074v0.485H298.426z
					"/>
			</g>
			<g id="text4631">
				<path id="path144" inkscape:connector-curvature="0" d="M305.245,33.705v-5.948c0-0.18-0.028-0.309-0.083-0.388
					c-0.053-0.081-0.13-0.13-0.23-0.147c-0.102-0.02-0.259-0.029-0.471-0.029V26.84l1.487-0.108v3.145
					c0.111-0.124,0.24-0.232,0.388-0.323c0.15-0.095,0.31-0.167,0.481-0.216c0.17-0.049,0.344-0.073,0.52-0.073
					c0.301,0,0.579,0.061,0.834,0.181c0.258,0.121,0.483,0.288,0.673,0.5c0.189,0.213,0.336,0.458,0.441,0.736
					c0.109,0.275,0.163,0.56,0.163,0.854c0,0.406-0.101,0.784-0.3,1.133c-0.197,0.351-0.466,0.63-0.81,0.839
					c-0.34,0.207-0.715,0.31-1.124,0.31c-0.255,0-0.502-0.066-0.741-0.197c-0.239-0.131-0.437-0.305-0.594-0.52l-0.344,0.604
					H305.245z M305.976,32.719c0.111,0.246,0.271,0.447,0.481,0.603c0.21,0.154,0.442,0.231,0.698,0.231
					c0.346,0,0.626-0.1,0.839-0.299c0.216-0.199,0.366-0.451,0.451-0.756c0.085-0.304,0.128-0.625,0.128-0.962
					c0-0.566-0.074-0.996-0.221-1.291c-0.066-0.13-0.155-0.252-0.27-0.363c-0.111-0.111-0.237-0.198-0.377-0.26
					c-0.138-0.066-0.283-0.098-0.437-0.098c-0.269,0-0.517,0.072-0.746,0.216c-0.229,0.141-0.41,0.33-0.545,0.569V32.719
					L305.976,32.719z"/>
			</g>
			<g id="text4633">
				<path id="path147" inkscape:connector-curvature="0" d="M323.978,27.004h-3.673v3.673h-1.118v-3.673h-3.673v-1.078h3.673v-3.673
					h1.118v3.673h3.673V27.004z"/>
			</g>
			<g id="text4635">
				<path id="path150" inkscape:connector-curvature="0" d="M328.609,27.697c0-0.207,0.077-0.384,0.229-0.532
					c0.153-0.148,0.33-0.222,0.532-0.222c0.126,0,0.25,0.033,0.371,0.101c0.122,0.068,0.216,0.162,0.283,0.283
					c0.068,0.121,0.101,0.245,0.101,0.371c0,0.202-0.074,0.379-0.222,0.532c-0.148,0.152-0.326,0.229-0.532,0.229
					c-0.202,0-0.379-0.077-0.532-0.229C328.685,28.076,328.609,27.899,328.609,27.697z"/>
				<path id="path152" inkscape:connector-curvature="0" d="M332.436,27.697c0-0.207,0.077-0.384,0.229-0.532
					s0.33-0.222,0.532-0.222c0.126,0,0.25,0.033,0.371,0.101c0.122,0.068,0.216,0.162,0.283,0.283
					c0.068,0.121,0.101,0.245,0.101,0.371c0,0.202-0.074,0.379-0.222,0.532c-0.148,0.152-0.326,0.229-0.532,0.229
					c-0.202,0-0.379-0.077-0.532-0.229C332.513,28.076,332.436,27.899,332.436,27.697z"/>
				<path id="path154" inkscape:connector-curvature="0" d="M336.264,27.697c0-0.207,0.076-0.384,0.229-0.532
					c0.152-0.148,0.33-0.222,0.532-0.222c0.126,0,0.249,0.033,0.371,0.101c0.121,0.068,0.216,0.162,0.283,0.283
					c0.067,0.121,0.101,0.245,0.101,0.371c0,0.202-0.074,0.379-0.222,0.532c-0.148,0.152-0.326,0.229-0.532,0.229
					c-0.203,0-0.38-0.077-0.532-0.229C336.34,28.076,336.264,27.899,336.264,27.697z"/>
			</g>
			<g id="text4637">
				<path id="path157" inkscape:connector-curvature="0" d="M351.278,27.004h-3.673v3.673h-1.119v-3.673h-3.673v-1.078h3.673v-3.673
					h1.119v3.673h3.673V27.004z"/>
			</g>
			<g id="text4639">
				<path id="path160" inkscape:connector-curvature="0" d="M355.725,30.859v-0.485c0.463,0,0.912-0.025,1.348-0.074
					c0.436-0.054,0.653-0.175,0.654-0.364v-7.58c-0.001-0.198-0.057-0.319-0.169-0.363c-0.108-0.05-0.285-0.074-0.533-0.074h-0.579
					c-0.759,0-1.298,0.165-1.617,0.498c-0.166,0.167-0.285,0.434-0.357,0.802c-0.072,0.364-0.133,0.822-0.182,1.374h-0.397
					l0.262-3.16h8.429l0.263,3.16h-0.404c-0.054-0.592-0.115-1.062-0.182-1.408c-0.063-0.35-0.18-0.606-0.351-0.769
					c-0.323-0.332-0.862-0.498-1.617-0.498h-0.58c-0.166,0-0.297,0.007-0.391,0.02c-0.09,0.013-0.164,0.054-0.222,0.121
					c-0.058,0.063-0.087,0.162-0.087,0.297v7.58c0,0.189,0.217,0.31,0.653,0.364c0.436,0.05,0.882,0.074,1.34,0.074v0.485H355.725z"
					/>
			</g>
			<g id="text4641">
				<path id="path163" inkscape:connector-curvature="0" d="M361.35,33.705v-0.354c0.229,0,0.417-0.018,0.564-0.054
					c0.147-0.036,0.221-0.124,0.221-0.265V30.29c0-0.18-0.028-0.31-0.083-0.388c-0.053-0.082-0.13-0.131-0.231-0.148
					c-0.101-0.019-0.259-0.029-0.471-0.029v-0.353l1.457-0.108v0.981c0.134-0.287,0.332-0.523,0.594-0.706
					c0.265-0.183,0.553-0.275,0.863-0.275c0.465,0,0.814,0.111,1.046,0.334c0.236,0.222,0.353,0.563,0.353,1.021v2.414
					c0,0.141,0.073,0.229,0.22,0.265c0.148,0.036,0.336,0.054,0.565,0.054v0.354h-2.302v-0.354c0.229,0,0.417-0.018,0.565-0.054
					c0.147-0.036,0.22-0.124,0.22-0.265v-2.385c0-0.327-0.047-0.595-0.142-0.805c-0.095-0.212-0.29-0.318-0.584-0.318
					c-0.389,0-0.71,0.156-0.962,0.466c-0.249,0.31-0.373,0.664-0.373,1.06v1.983c0,0.141,0.073,0.229,0.22,0.265
					c0.148,0.036,0.334,0.054,0.559,0.054v0.354H361.35z"/>
			</g>
			<g id="text4643">
			</g>
		</g>
	</g>
</g>
</svg>
