<?xml version="1.0" encoding="utf-8"?>
<!-- Generator: Adobe Illustrator 16.0.0, SVG Export Plug-In . SVG Version: 6.00 Build 0)  -->
<!DOCTYPE svg PUBLIC "-//W3C//DTD SVG 1.1//EN" "http://www.w3.org/Graphics/SVG/1.1/DTD/svg11.dtd">
<svg version="1.1"
	 id="svg3020" xmlns:dc="http://purl.org/dc/elements/1.1/" xmlns:cc="http://creativecommons.org/ns#" xmlns:rdf="http://www.w3.org/1999/02/22-rdf-syntax-ns#" xmlns:svg="http://www.w3.org/2000/svg" xmlns:inkscape="http://www.inkscape.org/namespaces/inkscape"
	 xmlns="http://www.w3.org/2000/svg" xmlns:xlink="http://www.w3.org/1999/xlink" x="0px" y="0px" width="320px" height="60px"
	 viewBox="0 0 320 60" enable-background="new 0 0 320 60" xml:space="preserve">
<g id="text3030" transform="scale(0.95814898,1.043679)">
</g>
<g id="g3009" transform="matrix(1.4688253,0,0,1.4688253,-277.70507,-0.75165246)">
	<g id="flowRoot3055" transform="matrix(0.68081616,0,0,0.68081616,189.0661,0.51173714)">
	</g>
	<g id="flowRoot3063" transform="matrix(0.68081616,0,0,0.68081616,189.0661,0.51173714)">
	</g>
	<path id="path3142-1" inkscape:connector-curvature="0" fill="none" stroke="#000000" stroke-width="0.8599" d="M228.801,22.435
		H404"/>
	<g id="g3569" transform="matrix(0.68081616,0,0,0.68081616,66.230655,78.160046)">
	</g>
	<g id="g4427" transform="matrix(0.73616057,0,0,0.73616057,81.705694,11.449048)">
		<g id="text4429">
			<path id="path67" inkscape:connector-curvature="0" d="M154.321,19.103c-0.876,0-1.664-0.231-2.365-0.694
				c-0.696-0.467-1.242-1.085-1.637-1.853c-0.395-0.772-0.593-1.583-0.593-2.432c0-0.629,0.112-1.251,0.337-1.866
				c0.229-0.615,0.546-1.161,0.95-1.637c0.409-0.476,0.898-0.853,1.469-1.132c0.57-0.279,1.184-0.418,1.84-0.418
				c0.651,0,1.262,0.141,1.832,0.424c0.575,0.279,1.067,0.658,1.476,1.138c0.409,0.481,0.723,1.02,0.943,1.618
				c0.22,0.597,0.33,1.222,0.33,1.873c0,0.849-0.197,1.66-0.593,2.432c-0.395,0.769-0.943,1.386-1.644,1.853
				C155.964,18.872,155.183,19.103,154.321,19.103z M152.029,17.311c0.27,0.423,0.602,0.759,0.997,1.011
				c0.395,0.247,0.826,0.371,1.294,0.371c0.301,0,0.595-0.061,0.882-0.182c0.292-0.121,0.555-0.287,0.788-0.499
				c0.238-0.211,0.44-0.444,0.606-0.701c0.548-0.826,0.822-1.963,0.822-3.409c0-1.325-0.274-2.374-0.822-3.147
				c-0.27-0.386-0.606-0.696-1.011-0.93c-0.4-0.233-0.822-0.35-1.267-0.35c-0.449,0-0.876,0.117-1.28,0.35
				c-0.404,0.233-0.741,0.544-1.011,0.93c-0.215,0.301-0.384,0.622-0.505,0.964c-0.117,0.337-0.2,0.687-0.249,1.051
				c-0.05,0.364-0.074,0.741-0.074,1.132c0,0.418,0.022,0.826,0.067,1.226c0.049,0.396,0.137,0.784,0.263,1.167
				C151.661,16.675,151.827,17.015,152.029,17.311z"/>
			<path id="path69" inkscape:connector-curvature="0" d="M160.102,18.8v-0.485c0.948,0,1.422-0.146,1.422-0.438v-7.581
				c0-0.292-0.474-0.438-1.422-0.438V9.373h7.803l0.384,3.16h-0.397c-0.099-0.795-0.238-1.372-0.418-1.731
				c-0.175-0.359-0.458-0.606-0.849-0.741c-0.391-0.135-0.977-0.202-1.759-0.202h-1.354c-0.166,0-0.297,0.007-0.391,0.02
				c-0.09,0.014-0.164,0.054-0.222,0.121c-0.058,0.063-0.088,0.162-0.088,0.296v3.37h1.017c0.467,0,0.816-0.038,1.044-0.115
				c0.233-0.08,0.393-0.232,0.478-0.452c0.09-0.225,0.135-0.573,0.135-1.044h0.404v3.706h-0.404c0-0.467-0.045-0.813-0.135-1.038
				c-0.085-0.225-0.245-0.375-0.478-0.452c-0.229-0.08-0.577-0.121-1.044-0.121h-1.017v3.726c0,0.198,0.056,0.321,0.168,0.37
				c0.112,0.045,0.29,0.068,0.532,0.068h1.462c0.638,0,1.152-0.05,1.543-0.148c0.395-0.104,0.701-0.273,0.916-0.506
				c0.22-0.238,0.389-0.544,0.505-0.916c0.121-0.378,0.234-0.9,0.337-1.564h0.397l-0.579,3.619H160.102z"/>
			<path id="path71" inkscape:connector-curvature="0" d="M169.482,18.8v-0.485c0.948,0,1.422-0.146,1.422-0.438v-7.581
				c0-0.292-0.474-0.438-1.422-0.438V9.373h4.474v0.485c-1.177,0-1.766,0.146-1.766,0.438v7.581c0,0.198,0.056,0.321,0.168,0.37
				c0.112,0.045,0.29,0.068,0.532,0.068h1.065c0.687,0,1.217-0.126,1.59-0.378c0.373-0.251,0.636-0.592,0.788-1.024
				c0.157-0.435,0.276-1.013,0.357-1.732h0.397l-0.384,3.619H169.482z"/>
		</g>
		<g id="text4431">
			<path id="path74" inkscape:connector-curvature="0" d="M190.955,13.531h-7.991v-1.078h7.991V13.531z M190.955,16.361h-7.991
				v-1.078h7.991V16.361z"/>
		</g>
		<g id="text4433">
		</g>
		<g id="text4435" transform="scale(0.9163531,1.0912824)">
			<path id="path78" inkscape:connector-curvature="0" d="M219.049,10.786h-1.684c-0.868-0.995-1.542-2.081-2.022-3.257
				c-0.48-1.176-0.721-2.503-0.721-3.978c0-1.476,0.24-2.801,0.721-3.978c0.48-1.176,1.154-2.262,2.022-3.257h1.684v0.074
				c-0.397,0.358-0.777,0.772-1.14,1.243c-0.358,0.466-0.691,1.01-1,1.632c-0.294,0.603-0.534,1.267-0.72,1.993
				c-0.182,0.725-0.273,1.49-0.273,2.294c0,0.838,0.088,1.606,0.265,2.302c0.181,0.696,0.424,1.358,0.728,1.985
				c0.294,0.603,0.63,1.147,1.007,1.632c0.377,0.49,0.755,0.905,1.132,1.243V10.786z"/>
		</g>
		<g id="text4437">
			<path id="path81" inkscape:connector-curvature="0" d="M201.534,3.986c0-0.328,0.119-0.615,0.357-0.862
				c0.238-0.243,0.521-0.416,0.849-0.519c-0.184-0.14-0.326-0.315-0.424-0.526c-0.094-0.211-0.141-0.436-0.141-0.674
				c0-0.432,0.137-0.813,0.411-1.146c-0.422-0.413-0.633-0.887-0.633-1.422c0-0.287,0.061-0.557,0.182-0.808
				c0.126-0.252,0.299-0.47,0.519-0.654c0.22-0.184,0.465-0.323,0.735-0.418c0.27-0.099,0.546-0.148,0.829-0.148
				c0.548,0,1.04,0.159,1.476,0.478c0.189-0.202,0.411-0.357,0.667-0.465c0.261-0.112,0.53-0.168,0.809-0.168
				c0.198,0,0.359,0.072,0.485,0.215c0.126,0.14,0.189,0.308,0.189,0.505c0,0.112-0.042,0.211-0.128,0.297s-0.184,0.128-0.297,0.128
				c-0.117,0-0.218-0.042-0.303-0.128s-0.128-0.184-0.128-0.297c0-0.171,0.056-0.289,0.168-0.357c-0.476,0-0.885,0.164-1.226,0.492
				c0.166,0.166,0.299,0.37,0.398,0.613c0.103,0.238,0.155,0.476,0.155,0.714c0,0.391-0.108,0.744-0.323,1.058
				c-0.216,0.31-0.501,0.553-0.856,0.728c-0.35,0.171-0.712,0.256-1.085,0.256c-0.503,0-0.964-0.137-1.381-0.411
				c-0.13,0.18-0.195,0.382-0.195,0.606c0,0.243,0.079,0.456,0.236,0.64c0.162,0.18,0.364,0.27,0.606,0.27h1.132
				c0.548,0,1.042,0.049,1.483,0.148c0.44,0.099,0.808,0.297,1.105,0.593c0.301,0.297,0.451,0.717,0.451,1.26
				c0,0.405-0.171,0.739-0.512,1.004c-0.341,0.27-0.75,0.462-1.226,0.579c-0.472,0.121-0.91,0.182-1.314,0.182
				c-0.409,0-0.851-0.061-1.328-0.182c-0.476-0.117-0.885-0.31-1.226-0.579C201.704,4.725,201.534,4.391,201.534,3.986z
				 M202.309,3.986c0,0.31,0.126,0.569,0.378,0.775c0.252,0.211,0.555,0.366,0.91,0.465c0.354,0.103,0.689,0.155,1.004,0.155
				c0.31,0,0.642-0.051,0.997-0.155c0.355-0.099,0.656-0.254,0.903-0.465c0.252-0.207,0.377-0.465,0.377-0.775
				c0-0.48-0.22-0.793-0.66-0.937c-0.44-0.139-0.975-0.209-1.604-0.209h-1.132c-0.211,0-0.406,0.049-0.586,0.148
				c-0.175,0.103-0.317,0.245-0.424,0.424C202.363,3.598,202.309,3.789,202.309,3.986z M204.216,0.51
				c0.782,0,1.173-0.557,1.173-1.671c0-0.48-0.083-0.876-0.249-1.186c-0.166-0.314-0.474-0.471-0.923-0.471
				c-0.449,0-0.757,0.157-0.923,0.471c-0.166,0.31-0.249,0.705-0.249,1.186c0,0.306,0.032,0.582,0.094,0.829
				c0.063,0.247,0.18,0.449,0.35,0.606C203.659,0.431,203.901,0.51,204.216,0.51z"/>
			<path id="path83" inkscape:connector-curvature="0" d="M208.407,2.908V2.423c0.314,0,0.573-0.025,0.775-0.074
				c0.202-0.049,0.303-0.171,0.303-0.364v-3.767c0-0.247-0.038-0.425-0.114-0.532c-0.072-0.112-0.177-0.18-0.317-0.202
				c-0.139-0.027-0.355-0.04-0.647-0.04v-0.485l1.974-0.148v1.348c0.148-0.4,0.359-0.723,0.633-0.97
				c0.274-0.252,0.606-0.377,0.998-0.377c0.274,0,0.519,0.081,0.734,0.242c0.216,0.162,0.324,0.375,0.324,0.64
				c0,0.166-0.061,0.312-0.182,0.438c-0.117,0.121-0.263,0.182-0.438,0.182c-0.171,0-0.317-0.06-0.438-0.182
				c-0.121-0.121-0.182-0.267-0.182-0.438c0-0.247,0.088-0.423,0.263-0.526h-0.081c-0.373,0-0.678,0.135-0.917,0.404
				c-0.233,0.27-0.4,0.604-0.499,1.004c-0.099,0.4-0.148,0.782-0.148,1.146v2.264c0,0.292,0.447,0.438,1.341,0.438v0.485H208.407z"
				/>
			<path id="path85" inkscape:connector-curvature="0" d="M213.993,1.554c0-0.548,0.215-0.993,0.647-1.334
				c0.431-0.346,0.948-0.588,1.55-0.728c0.606-0.144,1.182-0.216,1.725-0.216v-0.566c0-0.265-0.058-0.521-0.175-0.768
				c-0.117-0.252-0.285-0.456-0.505-0.613c-0.22-0.162-0.462-0.242-0.727-0.242c-0.611,0-1.076,0.137-1.395,0.411
				c0.175,0,0.319,0.067,0.431,0.202c0.117,0.13,0.175,0.283,0.175,0.458c0,0.184-0.065,0.341-0.196,0.472
				c-0.13,0.13-0.285,0.195-0.465,0.195c-0.184,0-0.342-0.065-0.472-0.195c-0.13-0.13-0.196-0.288-0.196-0.472
				c0-0.485,0.22-0.844,0.661-1.078c0.44-0.238,0.925-0.357,1.455-0.357c0.373,0,0.748,0.081,1.125,0.242
				c0.377,0.157,0.685,0.384,0.923,0.681c0.242,0.297,0.364,0.643,0.364,1.038V1.79c0,0.18,0.038,0.346,0.114,0.499
				c0.077,0.148,0.196,0.223,0.357,0.223c0.153,0,0.265-0.076,0.337-0.229c0.077-0.153,0.115-0.317,0.115-0.492V0.907h0.404V1.79
				c0,0.207-0.054,0.404-0.162,0.593c-0.108,0.184-0.254,0.332-0.438,0.445c-0.18,0.108-0.375,0.162-0.586,0.162
				c-0.27,0-0.503-0.103-0.701-0.31c-0.193-0.211-0.301-0.461-0.323-0.748c-0.171,0.346-0.422,0.622-0.755,0.829
				c-0.332,0.202-0.687,0.303-1.065,0.303c-0.35,0-0.696-0.051-1.038-0.155c-0.337-0.103-0.62-0.265-0.849-0.485
				C214.106,2.198,213.993,1.909,213.993,1.554z M215.112,1.554c0,0.323,0.119,0.595,0.357,0.815c0.238,0.22,0.519,0.33,0.842,0.33
				c0.297,0,0.566-0.074,0.809-0.222c0.242-0.148,0.436-0.35,0.579-0.606s0.215-0.526,0.215-0.809v-1.435
				c-0.418,0-0.847,0.07-1.287,0.209c-0.436,0.135-0.797,0.348-1.085,0.64C215.255,0.768,215.112,1.127,215.112,1.554z"/>
			<path id="path87" inkscape:connector-curvature="0" d="M220.751,2.908V2.423c0.315,0,0.573-0.025,0.775-0.074
				c0.202-0.049,0.303-0.171,0.303-0.364v-3.767c0-0.247-0.038-0.425-0.115-0.532c-0.072-0.112-0.177-0.18-0.317-0.202
				c-0.139-0.027-0.355-0.04-0.647-0.04v-0.485l2.001-0.148v1.348c0.184-0.395,0.456-0.718,0.816-0.97
				c0.364-0.252,0.759-0.377,1.186-0.377c1.06,0,1.683,0.431,1.866,1.294c0.184-0.387,0.454-0.699,0.809-0.937
				c0.355-0.238,0.743-0.357,1.166-0.357c0.418,0,0.768,0.067,1.051,0.202c0.288,0.135,0.503,0.341,0.647,0.62
				c0.144,0.274,0.215,0.62,0.215,1.038v3.315c0,0.193,0.101,0.314,0.303,0.364c0.206,0.05,0.465,0.074,0.775,0.074v0.485h-3.161
				V2.423c0.315,0,0.573-0.025,0.775-0.074c0.202-0.049,0.303-0.171,0.303-0.364v-3.275c0-0.463-0.065-0.836-0.196-1.119
				c-0.13-0.283-0.397-0.424-0.802-0.424c-0.53,0-0.968,0.213-1.314,0.64c-0.346,0.427-0.519,0.912-0.519,1.455v2.723
				c0,0.193,0.101,0.314,0.303,0.364c0.202,0.05,0.461,0.074,0.775,0.074v0.485h-3.16V2.423c0.314,0,0.573-0.025,0.775-0.074
				c0.202-0.049,0.303-0.171,0.303-0.364v-3.275c0-0.449-0.065-0.818-0.195-1.105c-0.131-0.292-0.398-0.438-0.802-0.438
				c-0.535,0-0.975,0.213-1.321,0.64c-0.341,0.427-0.512,0.912-0.512,1.455v2.723c0,0.193,0.101,0.314,0.303,0.364
				c0.202,0.05,0.458,0.074,0.768,0.074v0.485H220.751z"/>
			<path id="path89" inkscape:connector-curvature="0" d="M236.869,2.908V2.423c0.315,0,0.573-0.025,0.775-0.074
				c0.202-0.049,0.303-0.171,0.303-0.364v-3.767c0-0.247-0.038-0.425-0.115-0.532c-0.072-0.112-0.177-0.18-0.317-0.202
				c-0.139-0.027-0.355-0.04-0.647-0.04v-0.485l2.001-0.148v1.348c0.184-0.395,0.456-0.718,0.816-0.97
				c0.364-0.252,0.759-0.377,1.186-0.377c1.06,0,1.683,0.431,1.866,1.294c0.184-0.387,0.454-0.699,0.809-0.937
				c0.355-0.238,0.743-0.357,1.166-0.357c0.418,0,0.768,0.067,1.051,0.202c0.288,0.135,0.503,0.341,0.647,0.62
				c0.144,0.274,0.215,0.62,0.215,1.038v3.315c0,0.193,0.101,0.314,0.303,0.364c0.206,0.05,0.465,0.074,0.775,0.074v0.485h-3.161
				V2.423c0.315,0,0.573-0.025,0.775-0.074c0.202-0.049,0.303-0.171,0.303-0.364v-3.275c0-0.463-0.065-0.836-0.196-1.119
				c-0.13-0.283-0.397-0.424-0.802-0.424c-0.53,0-0.968,0.213-1.314,0.64c-0.346,0.427-0.519,0.912-0.519,1.455v2.723
				c0,0.193,0.101,0.314,0.303,0.364c0.202,0.05,0.461,0.074,0.775,0.074v0.485h-3.16V2.423c0.314,0,0.573-0.025,0.775-0.074
				c0.202-0.049,0.303-0.171,0.303-0.364v-3.275c0-0.449-0.065-0.818-0.195-1.105c-0.131-0.292-0.398-0.438-0.802-0.438
				c-0.535,0-0.975,0.213-1.321,0.64c-0.341,0.427-0.512,0.912-0.512,1.455v2.723c0,0.193,0.101,0.314,0.303,0.364
				c0.202,0.05,0.458,0.074,0.768,0.074v0.485H236.869z"/>
			<path id="path91" inkscape:connector-curvature="0" d="M251.418,3.063c-0.553,0-1.065-0.139-1.536-0.418
				c-0.472-0.283-0.845-0.66-1.119-1.132c-0.274-0.471-0.411-0.986-0.411-1.543c0-0.422,0.074-0.829,0.223-1.22
				c0.153-0.391,0.368-0.739,0.647-1.044c0.283-0.31,0.611-0.55,0.984-0.721c0.373-0.175,0.777-0.263,1.213-0.263
				c0.566,0,1.08,0.15,1.543,0.452c0.467,0.296,0.835,0.696,1.105,1.199c0.27,0.499,0.404,1.031,0.404,1.597
				c0,0.553-0.137,1.067-0.411,1.543c-0.274,0.472-0.647,0.849-1.119,1.132C252.473,2.924,251.965,3.063,251.418,3.063z
				 M251.418,2.659c0.737,0,1.228-0.267,1.476-0.802c0.247-0.534,0.37-1.215,0.37-2.042c0-0.463-0.024-0.844-0.074-1.146
				c-0.049-0.305-0.157-0.582-0.323-0.829c-0.103-0.153-0.236-0.285-0.397-0.397c-0.158-0.117-0.326-0.205-0.506-0.263
				c-0.175-0.063-0.357-0.094-0.545-0.094c-0.288,0-0.562,0.065-0.822,0.195c-0.256,0.13-0.469,0.317-0.64,0.559
				c-0.171,0.261-0.281,0.548-0.33,0.863c-0.045,0.31-0.068,0.681-0.068,1.112c0,0.517,0.045,0.982,0.135,1.395
				c0.09,0.409,0.27,0.752,0.539,1.031C250.505,2.52,250.901,2.659,251.418,2.659z"/>
			<path id="path93" inkscape:connector-curvature="0" d="M255.292,2.908V2.423c0.314,0,0.573-0.025,0.775-0.074
				c0.202-0.049,0.303-0.171,0.303-0.364v-7.244c0-0.247-0.038-0.424-0.114-0.532c-0.072-0.112-0.177-0.18-0.317-0.202
				c-0.139-0.027-0.355-0.04-0.647-0.04v-0.485l2.048-0.149v8.652c0,0.193,0.101,0.314,0.303,0.364
				c0.202,0.05,0.458,0.074,0.769,0.074v0.485H255.292z"/>
			<path id="path95" inkscape:connector-curvature="0" d="M262.131,3.063c-0.561,0-1.078-0.146-1.55-0.438
				c-0.467-0.296-0.835-0.69-1.105-1.179c-0.265-0.494-0.397-1.015-0.397-1.563c0-0.539,0.121-1.051,0.364-1.536
				c0.247-0.485,0.588-0.876,1.024-1.172c0.44-0.301,0.93-0.452,1.469-0.452c0.422,0,0.788,0.072,1.098,0.215
				c0.314,0.14,0.573,0.335,0.775,0.586c0.202,0.252,0.355,0.548,0.458,0.89c0.103,0.341,0.155,0.717,0.155,1.125
				c0,0.121-0.047,0.182-0.142,0.182h-3.996v0.148c0,0.764,0.153,1.42,0.458,1.967c0.31,0.548,0.813,0.822,1.51,0.822
				c0.283,0,0.544-0.063,0.782-0.189c0.242-0.126,0.452-0.301,0.627-0.526c0.179-0.224,0.301-0.465,0.364-0.721
				c0.009-0.032,0.025-0.059,0.047-0.081c0.027-0.027,0.056-0.041,0.088-0.041h0.121c0.094,0,0.142,0.058,0.142,0.175
				c-0.13,0.521-0.411,0.95-0.842,1.287C263.149,2.897,262.666,3.063,262.131,3.063z M260.299-0.623h3.147
				c0-0.346-0.049-0.696-0.148-1.051c-0.094-0.355-0.254-0.649-0.479-0.882c-0.224-0.238-0.519-0.357-0.882-0.357
				c-0.521,0-0.926,0.245-1.213,0.734C260.44-1.694,260.299-1.175,260.299-0.623L260.299-0.623z"/>
			<path id="path97" inkscape:connector-curvature="0" d="M268.249,3.063c-0.557,0-1.062-0.144-1.516-0.431
				c-0.454-0.292-0.811-0.678-1.072-1.159c-0.261-0.485-0.391-1-0.391-1.543c0-0.544,0.128-1.065,0.384-1.563
				c0.26-0.499,0.617-0.896,1.071-1.193c0.458-0.301,0.966-0.452,1.523-0.452c0.539,0,1.029,0.106,1.469,0.317
				c0.445,0.211,0.667,0.557,0.667,1.038c0,0.18-0.065,0.337-0.196,0.472c-0.126,0.13-0.281,0.195-0.465,0.195
				s-0.341-0.065-0.471-0.195c-0.126-0.135-0.189-0.292-0.189-0.472c0-0.162,0.051-0.301,0.155-0.418
				c0.103-0.121,0.231-0.198,0.384-0.229c-0.319-0.202-0.766-0.303-1.341-0.303c-0.44,0-0.795,0.146-1.064,0.438
				c-0.27,0.292-0.458,0.654-0.566,1.085c-0.107,0.432-0.162,0.858-0.162,1.281c0,0.444,0.065,0.876,0.196,1.294
				c0.135,0.413,0.348,0.757,0.64,1.031c0.297,0.269,0.667,0.404,1.112,0.404c0.435,0,0.806-0.132,1.112-0.397
				c0.305-0.27,0.514-0.62,0.626-1.051c0-0.054,0.036-0.081,0.108-0.081h0.168c0.027,0,0.052,0.014,0.074,0.04
				c0.023,0.023,0.034,0.05,0.034,0.081v0.041c-0.14,0.544-0.415,0.974-0.829,1.294C269.298,2.904,268.811,3.063,268.249,3.063z"/>
			<path id="path99" inkscape:connector-curvature="0" d="M272.421,1.264v-3.045c0-0.247-0.038-0.425-0.115-0.532
				c-0.072-0.112-0.177-0.18-0.317-0.202c-0.139-0.027-0.355-0.04-0.647-0.04v-0.485l2.089-0.148v4.454
				c0,0.359,0.025,0.64,0.074,0.842c0.054,0.198,0.164,0.346,0.33,0.445c0.171,0.099,0.44,0.148,0.809,0.148
				c0.494,0,0.887-0.206,1.179-0.62c0.292-0.414,0.438-0.883,0.438-1.408v-2.452c0-0.247-0.038-0.425-0.114-0.532
				c-0.077-0.112-0.184-0.18-0.324-0.202c-0.135-0.027-0.348-0.04-0.64-0.04v-0.485l2.082-0.148v4.845
				c0,0.242,0.036,0.42,0.107,0.532c0.077,0.108,0.184,0.175,0.324,0.202c0.139,0.023,0.354,0.034,0.647,0.034v0.485l-2.042,0.155
				V1.898c-0.171,0.346-0.409,0.626-0.714,0.842c-0.305,0.216-0.642,0.323-1.011,0.323c-0.661,0-1.186-0.139-1.577-0.418
				C272.614,2.362,272.421,1.902,272.421,1.264z"/>
			<path id="path101" inkscape:connector-curvature="0" d="M279.011,2.908V2.423c0.314,0,0.573-0.025,0.775-0.074
				c0.202-0.049,0.303-0.171,0.303-0.364v-7.244c0-0.247-0.038-0.424-0.115-0.532c-0.072-0.112-0.177-0.18-0.317-0.202
				c-0.139-0.027-0.355-0.04-0.647-0.04v-0.485l2.049-0.149v8.652c0,0.193,0.101,0.314,0.303,0.364
				c0.202,0.05,0.458,0.074,0.768,0.074v0.485H279.011z"/>
			<path id="path103" inkscape:connector-curvature="0" d="M282.966,1.554c0-0.548,0.215-0.993,0.647-1.334
				c0.431-0.346,0.948-0.588,1.55-0.728c0.606-0.144,1.181-0.216,1.725-0.216v-0.566c0-0.265-0.058-0.521-0.175-0.768
				c-0.117-0.252-0.285-0.456-0.505-0.613c-0.22-0.162-0.463-0.242-0.728-0.242c-0.611,0-1.076,0.137-1.394,0.411
				c0.175,0,0.319,0.067,0.431,0.202c0.117,0.13,0.175,0.283,0.175,0.458c0,0.184-0.065,0.341-0.196,0.472
				c-0.131,0.13-0.285,0.195-0.465,0.195c-0.184,0-0.341-0.065-0.471-0.195c-0.13-0.13-0.196-0.288-0.196-0.472
				c0-0.485,0.22-0.844,0.66-1.078c0.44-0.238,0.926-0.357,1.456-0.357c0.373,0,0.748,0.081,1.125,0.242
				c0.377,0.157,0.685,0.384,0.923,0.681c0.242,0.297,0.364,0.643,0.364,1.038V1.79c0,0.18,0.038,0.346,0.114,0.499
				c0.076,0.148,0.196,0.223,0.357,0.223c0.153,0,0.265-0.076,0.337-0.229c0.076-0.153,0.115-0.317,0.115-0.492V0.907h0.404V1.79
				c0,0.207-0.054,0.404-0.162,0.593c-0.108,0.184-0.254,0.332-0.438,0.445c-0.18,0.108-0.375,0.162-0.586,0.162
				c-0.27,0-0.503-0.103-0.701-0.31c-0.193-0.211-0.301-0.461-0.323-0.748c-0.171,0.346-0.422,0.622-0.755,0.829
				c-0.333,0.202-0.687,0.303-1.065,0.303c-0.35,0-0.696-0.051-1.038-0.155c-0.337-0.103-0.62-0.265-0.849-0.485
				C283.078,2.198,282.966,1.909,282.966,1.554z M284.085,1.554c0,0.323,0.119,0.595,0.357,0.815c0.238,0.22,0.519,0.33,0.843,0.33
				c0.296,0,0.566-0.074,0.808-0.222c0.243-0.148,0.436-0.35,0.58-0.606c0.144-0.256,0.215-0.526,0.215-0.809v-1.435
				c-0.418,0-0.847,0.07-1.287,0.209c-0.436,0.135-0.797,0.348-1.085,0.64C284.228,0.768,284.085,1.127,284.085,1.554z"/>
			<path id="path105" inkscape:connector-curvature="0" d="M289.671,2.908V2.423c0.314,0,0.573-0.025,0.775-0.074
				c0.202-0.049,0.303-0.171,0.303-0.364v-3.767c0-0.247-0.038-0.425-0.114-0.532c-0.072-0.112-0.177-0.18-0.317-0.202
				c-0.139-0.027-0.355-0.04-0.647-0.04v-0.485l1.974-0.148v1.348c0.148-0.4,0.359-0.723,0.634-0.97
				c0.274-0.252,0.606-0.377,0.997-0.377c0.274,0,0.519,0.081,0.734,0.242c0.216,0.162,0.323,0.375,0.323,0.64
				c0,0.166-0.061,0.312-0.182,0.438c-0.117,0.121-0.263,0.182-0.438,0.182c-0.171,0-0.317-0.06-0.438-0.182
				c-0.121-0.121-0.182-0.267-0.182-0.438c0-0.247,0.088-0.423,0.263-0.526h-0.081c-0.373,0-0.678,0.135-0.917,0.404
				c-0.233,0.27-0.4,0.604-0.499,1.004c-0.099,0.4-0.148,0.782-0.148,1.146v2.264c0,0.292,0.447,0.438,1.341,0.438v0.485H289.671z"
				/>
			<path id="path107" inkscape:connector-curvature="0" d="M302.366,2.908l-1.786-5.02c-0.08-0.202-0.197-0.326-0.35-0.37
				c-0.152-0.05-0.374-0.074-0.667-0.074v-0.485h2.843v0.485c-0.544,0-0.815,0.114-0.815,0.343c0.005,0.014,0.007,0.027,0.007,0.041
				c0.004,0.014,0.007,0.034,0.007,0.061l1.327,3.72l1.146-3.241l-0.182-0.479c-0.072-0.202-0.186-0.326-0.343-0.37
				c-0.157-0.05-0.38-0.074-0.667-0.074v-0.485h2.722v0.485c-0.544,0-0.816,0.114-0.816,0.343c0,0.036,0.005,0.07,0.014,0.101
				l1.381,3.888l1.254-3.517c0.018-0.072,0.027-0.137,0.027-0.196c0-0.193-0.083-0.344-0.249-0.452
				c-0.162-0.112-0.343-0.168-0.546-0.168v-0.485h2.345v0.485c-0.278,0-0.518,0.074-0.721,0.222
				c-0.198,0.144-0.343,0.341-0.438,0.593l-1.645,4.649c-0.031,0.103-0.101,0.155-0.208,0.155h-0.108
				c-0.108,0-0.177-0.051-0.21-0.155l-1.394-3.935l-1.394,3.935c-0.045,0.103-0.117,0.155-0.216,0.155h-0.101
				C302.469,3.063,302.396,3.012,302.366,2.908z"/>
			<path id="path109" inkscape:connector-curvature="0" d="M312.722,3.063c-0.561,0-1.077-0.146-1.55-0.438
				c-0.467-0.296-0.835-0.69-1.105-1.179c-0.266-0.494-0.397-1.015-0.397-1.563c0-0.539,0.121-1.051,0.363-1.536
				c0.247-0.485,0.589-0.876,1.024-1.172c0.441-0.301,0.93-0.452,1.469-0.452c0.422,0,0.788,0.072,1.098,0.215
				c0.314,0.14,0.573,0.335,0.775,0.586c0.202,0.252,0.355,0.548,0.458,0.89s0.155,0.717,0.155,1.125
				c0,0.121-0.047,0.182-0.142,0.182h-3.996v0.148c0,0.764,0.153,1.42,0.458,1.967c0.311,0.548,0.813,0.822,1.51,0.822
				c0.283,0,0.544-0.063,0.781-0.189c0.243-0.126,0.452-0.301,0.627-0.526c0.18-0.224,0.301-0.465,0.364-0.721
				c0.009-0.032,0.024-0.059,0.047-0.081c0.027-0.027,0.056-0.041,0.088-0.041h0.121c0.095,0,0.142,0.058,0.142,0.175
				c-0.13,0.521-0.411,0.95-0.842,1.287C313.74,2.897,313.257,3.063,312.722,3.063z M310.89-0.623h3.147
				c0-0.346-0.049-0.696-0.148-1.051c-0.094-0.355-0.254-0.649-0.479-0.882c-0.224-0.238-0.518-0.357-0.882-0.357
				c-0.521,0-0.926,0.245-1.213,0.734C311.031-1.694,310.89-1.175,310.89-0.623z"/>
			<path id="path111" inkscape:connector-curvature="0" d="M315.828,2.908V2.423c0.315,0,0.573-0.025,0.775-0.074
				c0.202-0.049,0.303-0.171,0.303-0.364v-3.767c0-0.355-0.069-0.573-0.209-0.654c-0.135-0.081-0.404-0.121-0.808-0.121v-0.485
				l1.988-0.148v5.175c0,0.193,0.088,0.314,0.263,0.364c0.175,0.05,0.408,0.074,0.701,0.074v0.485H315.828z M316.415-5.562
				c0-0.202,0.076-0.379,0.229-0.532c0.152-0.153,0.327-0.229,0.526-0.229c0.13,0,0.256,0.034,0.377,0.101
				c0.122,0.067,0.216,0.162,0.283,0.283c0.068,0.121,0.101,0.247,0.101,0.377c0,0.198-0.076,0.373-0.228,0.526
				c-0.153,0.153-0.33,0.229-0.532,0.229c-0.199,0-0.374-0.077-0.526-0.229C316.491-5.189,316.415-5.364,316.415-5.562z"/>
			<path id="path113" inkscape:connector-curvature="0" d="M319.616,3.986c0-0.328,0.119-0.615,0.357-0.862
				c0.238-0.243,0.521-0.416,0.849-0.519c-0.183-0.14-0.326-0.315-0.424-0.526c-0.095-0.211-0.142-0.436-0.142-0.674
				c0-0.432,0.137-0.813,0.412-1.146c-0.423-0.413-0.634-0.887-0.634-1.422c0-0.287,0.061-0.557,0.182-0.808
				c0.126-0.252,0.298-0.47,0.518-0.654s0.465-0.323,0.735-0.418c0.269-0.099,0.546-0.148,0.828-0.148
				c0.548,0,1.04,0.159,1.476,0.478c0.189-0.202,0.411-0.357,0.667-0.465c0.26-0.112,0.529-0.168,0.808-0.168
				c0.198,0,0.359,0.072,0.485,0.215c0.126,0.14,0.189,0.308,0.189,0.505c0,0.112-0.042,0.211-0.127,0.297
				c-0.086,0.085-0.184,0.128-0.297,0.128c-0.116,0-0.218-0.042-0.303-0.128c-0.086-0.085-0.128-0.184-0.128-0.297
				c0-0.171,0.056-0.289,0.168-0.357c-0.476,0-0.885,0.164-1.226,0.492c0.166,0.166,0.299,0.37,0.397,0.613
				c0.104,0.238,0.155,0.476,0.155,0.714c0,0.391-0.108,0.744-0.323,1.058c-0.216,0.31-0.5,0.553-0.856,0.728
				c-0.35,0.171-0.712,0.256-1.085,0.256c-0.503,0-0.964-0.137-1.381-0.411c-0.13,0.18-0.195,0.382-0.195,0.606
				c0,0.243,0.078,0.456,0.235,0.64c0.163,0.18,0.365,0.27,0.607,0.27h1.133c0.547,0,1.042,0.049,1.481,0.148
				c0.441,0.099,0.809,0.297,1.105,0.593c0.302,0.297,0.452,0.717,0.452,1.26c0,0.405-0.171,0.739-0.512,1.004
				c-0.341,0.27-0.751,0.462-1.226,0.579c-0.472,0.121-0.91,0.182-1.315,0.182c-0.408,0-0.851-0.061-1.328-0.182
				c-0.475-0.117-0.884-0.31-1.226-0.579C319.786,4.725,319.616,4.391,319.616,3.986z M320.391,3.986
				c0,0.31,0.126,0.569,0.378,0.775c0.251,0.211,0.555,0.366,0.909,0.465c0.355,0.103,0.689,0.155,1.003,0.155
				c0.311,0,0.643-0.051,0.997-0.155c0.356-0.099,0.657-0.254,0.903-0.465c0.252-0.207,0.378-0.465,0.378-0.775
				c0-0.48-0.22-0.793-0.66-0.937c-0.44-0.139-0.974-0.209-1.603-0.209h-1.133c-0.211,0-0.406,0.049-0.586,0.148
				c-0.175,0.103-0.317,0.245-0.424,0.424C320.445,3.598,320.391,3.789,320.391,3.986z M322.297,0.51
				c0.781,0,1.173-0.557,1.173-1.671c0-0.48-0.083-0.876-0.249-1.186c-0.167-0.314-0.475-0.471-0.924-0.471
				c-0.449,0-0.757,0.157-0.923,0.471c-0.166,0.31-0.249,0.705-0.249,1.186c0,0.306,0.032,0.582,0.095,0.829
				c0.062,0.247,0.179,0.449,0.35,0.606C321.74,0.431,321.983,0.51,322.297,0.51z"/>
			<path id="path115" inkscape:connector-curvature="0" d="M326.543,2.908V2.423c0.314,0,0.573-0.025,0.775-0.074
				c0.202-0.049,0.303-0.171,0.303-0.364v-7.244c0-0.247-0.039-0.424-0.116-0.532c-0.071-0.112-0.177-0.18-0.316-0.202
				c-0.139-0.027-0.355-0.04-0.647-0.04v-0.485l2.048-0.149v4.744c0.193-0.382,0.462-0.687,0.808-0.916
				c0.346-0.233,0.727-0.35,1.146-0.35c0.638,0,1.116,0.153,1.434,0.458c0.323,0.305,0.486,0.772,0.486,1.401v3.315
				c0,0.193,0.101,0.314,0.303,0.364c0.201,0.05,0.46,0.074,0.775,0.074v0.485h-3.161V2.423c0.314,0,0.573-0.025,0.775-0.074
				c0.202-0.049,0.303-0.171,0.303-0.364v-3.275c0-0.449-0.065-0.818-0.195-1.105c-0.13-0.292-0.397-0.438-0.802-0.438
				c-0.535,0-0.975,0.213-1.32,0.64c-0.341,0.427-0.513,0.912-0.513,1.455v2.723c0,0.193,0.101,0.314,0.303,0.364
				c0.202,0.05,0.459,0.074,0.768,0.074v0.485H326.543z"/>
			<path id="path117" inkscape:connector-curvature="0" d="M335.195,1.251v-3.807h-1.146v-0.357c0.602,0,1.045-0.281,1.328-0.843
				c0.283-0.561,0.424-1.17,0.424-1.826h0.397v2.54h1.947v0.485h-1.947v3.78c0,0.382,0.062,0.716,0.189,1.004
				c0.13,0.288,0.361,0.431,0.694,0.431c0.314,0,0.542-0.15,0.681-0.452c0.139-0.305,0.209-0.634,0.209-0.984V0.408h0.398v0.842
				c0,0.288-0.054,0.573-0.163,0.856c-0.103,0.279-0.258,0.508-0.464,0.687c-0.207,0.18-0.459,0.27-0.755,0.27
				c-0.553,0-0.991-0.164-1.314-0.492C335.354,2.239,335.195,1.799,335.195,1.251z"/>
		</g>
		<g id="text4439">
		</g>
		<g id="text4441">
		</g>
		<g id="text4443">
		</g>
		<g id="text4445">
		</g>
		<g id="text4447">
		</g>
		<g id="text4449">
		</g>
		<g id="text4451" transform="scale(0.9163531,1.0912824)">
			<path id="path126" inkscape:connector-curvature="0" d="M377.378,3.55c0,1.476-0.24,2.802-0.72,3.978
				c-0.481,1.176-1.155,2.262-2.022,3.257h-1.683v-0.073c0.376-0.339,0.755-0.753,1.131-1.243c0.382-0.485,0.718-1.029,1.007-1.632
				c0.305-0.627,0.545-1.289,0.721-1.985c0.181-0.696,0.272-1.463,0.272-2.302c0-0.804-0.091-1.569-0.272-2.294
				c-0.181-0.725-0.422-1.39-0.721-1.993c-0.307-0.622-0.645-1.167-1.007-1.632c-0.357-0.471-0.735-0.885-1.131-1.243v-0.074h1.683
				c0.867,0.995,1.541,2.081,2.022,3.257C377.139,0.749,377.378,2.075,377.378,3.55z"/>
		</g>
		<g id="text4453" transform="scale(0.9163531,1.0912824)">
			<path id="path129" inkscape:connector-curvature="0" d="M391.58,10.811h-1.684c-0.867-0.995-1.541-2.081-2.021-3.258
				c-0.48-1.176-0.72-2.503-0.72-3.978c0-1.476,0.24-2.802,0.72-3.978c0.48-1.177,1.154-2.263,2.021-3.257h1.684v0.073
				c-0.397,0.358-0.778,0.772-1.14,1.243c-0.357,0.466-0.69,1.01-0.999,1.632c-0.294,0.603-0.534,1.267-0.721,1.993
				c-0.181,0.725-0.272,1.491-0.272,2.295c0,0.838,0.089,1.605,0.266,2.302c0.181,0.696,0.424,1.358,0.727,1.985
				c0.294,0.603,0.63,1.147,1.007,1.632c0.377,0.49,0.755,0.904,1.132,1.243V10.811z"/>
		</g>
		<g id="text4455">
			<path id="path132" inkscape:connector-curvature="0" d="M364.62,9.027c-0.876,0-1.664-0.231-2.365-0.694
				c-0.696-0.467-1.243-1.085-1.637-1.853c-0.395-0.773-0.593-1.584-0.593-2.433c0-0.629,0.113-1.251,0.338-1.867
				c0.229-0.615,0.546-1.161,0.95-1.637c0.408-0.476,0.898-0.853,1.469-1.132c0.571-0.279,1.183-0.418,1.84-0.418
				c0.651,0,1.262,0.142,1.832,0.424c0.575,0.279,1.068,0.658,1.476,1.139c0.409,0.481,0.723,1.02,0.943,1.618
				c0.22,0.597,0.331,1.221,0.331,1.873c0,0.849-0.197,1.66-0.592,2.433c-0.396,0.768-0.944,1.386-1.644,1.853
				C366.265,8.796,365.483,9.027,364.62,9.027z M362.329,7.235c0.269,0.422,0.602,0.759,0.997,1.011
				c0.396,0.247,0.827,0.371,1.294,0.371c0.301,0,0.595-0.061,0.882-0.182c0.293-0.121,0.555-0.288,0.788-0.499
				c0.238-0.211,0.44-0.445,0.606-0.701c0.549-0.827,0.823-1.963,0.823-3.41c0-1.325-0.274-2.374-0.823-3.147
				c-0.269-0.387-0.606-0.696-1.01-0.93c-0.4-0.234-0.822-0.35-1.267-0.35c-0.449,0-0.876,0.116-1.28,0.35
				c-0.405,0.233-0.742,0.543-1.012,0.93c-0.215,0.301-0.384,0.622-0.506,0.964c-0.117,0.337-0.2,0.687-0.249,1.051
				c-0.049,0.364-0.074,0.741-0.074,1.132c0,0.418,0.023,0.827,0.068,1.226c0.05,0.396,0.137,0.784,0.263,1.166
				C361.961,6.599,362.127,6.938,362.329,7.235L362.329,7.235z"/>
			<path id="path134" inkscape:connector-curvature="0" d="M370.401,8.724V8.239c0.948,0,1.422-0.146,1.422-0.438V0.22
				c0-0.292-0.473-0.438-1.422-0.438v-0.485h7.803l0.385,3.16h-0.398c-0.098-0.795-0.238-1.372-0.418-1.732
				c-0.175-0.359-0.458-0.606-0.849-0.741c-0.39-0.135-0.977-0.202-1.758-0.202h-1.354c-0.166,0-0.297,0.007-0.391,0.02
				c-0.089,0.014-0.163,0.054-0.223,0.121c-0.058,0.063-0.087,0.162-0.087,0.296v3.369h1.017c0.468,0,0.816-0.038,1.044-0.114
				c0.235-0.081,0.394-0.232,0.479-0.452c0.09-0.225,0.135-0.573,0.135-1.044h0.404v3.706h-0.404c0-0.467-0.045-0.813-0.135-1.038
				c-0.085-0.225-0.244-0.375-0.479-0.452c-0.228-0.081-0.576-0.121-1.044-0.121h-1.017v3.726c0,0.198,0.056,0.321,0.168,0.371
				c0.112,0.045,0.29,0.067,0.533,0.067h1.461c0.639,0,1.152-0.049,1.543-0.148c0.396-0.103,0.701-0.272,0.917-0.505
				c0.22-0.238,0.388-0.544,0.506-0.917c0.121-0.377,0.233-0.898,0.336-1.563h0.397l-0.579,3.619H370.401z"/>
			<path id="path136" inkscape:connector-curvature="0" d="M379.781,8.724V8.239c0.948,0,1.422-0.146,1.422-0.438V0.22
				c0-0.292-0.473-0.438-1.422-0.438v-0.485h4.474v0.485c-1.177,0-1.766,0.146-1.766,0.438v7.581c0,0.198,0.057,0.321,0.169,0.371
				c0.112,0.045,0.289,0.067,0.532,0.067h1.065c0.687,0,1.217-0.126,1.59-0.377c0.374-0.252,0.636-0.593,0.789-1.024
				c0.157-0.436,0.276-1.013,0.357-1.732h0.397l-0.384,3.619H379.781z"/>
		</g>
		<g id="text4457">
		</g>
		<g id="text4459">
			<path id="path140" inkscape:connector-curvature="0" d="M391.138,8.724V8.239c0.314,0,0.573-0.025,0.775-0.074
				c0.201-0.049,0.303-0.171,0.303-0.364V4.034c0-0.355-0.07-0.573-0.209-0.653c-0.135-0.081-0.405-0.121-0.809-0.121V2.774
				l1.989-0.149v5.175c0,0.193,0.087,0.315,0.262,0.364s0.409,0.074,0.701,0.074v0.485H391.138z M391.723,0.254
				c0-0.202,0.077-0.38,0.229-0.532c0.153-0.153,0.328-0.229,0.526-0.229c0.13,0,0.257,0.033,0.378,0.101
				c0.121,0.068,0.215,0.162,0.284,0.283c0.067,0.121,0.1,0.247,0.1,0.378c0,0.197-0.077,0.373-0.229,0.526
				c-0.154,0.153-0.331,0.229-0.533,0.229c-0.197,0-0.372-0.076-0.526-0.229C391.8,0.627,391.723,0.451,391.723,0.254z"/>
			<path id="path142" inkscape:connector-curvature="0" d="M394.951,8.724V8.239c0.314,0,0.573-0.025,0.775-0.074
				s0.303-0.171,0.303-0.364V4.034c0-0.247-0.038-0.424-0.115-0.532c-0.071-0.112-0.178-0.18-0.317-0.202
				c-0.139-0.027-0.354-0.041-0.647-0.041V2.774l2.001-0.149v1.348c0.184-0.396,0.456-0.719,0.816-0.97
				c0.364-0.252,0.76-0.378,1.186-0.378c0.638,0,1.116,0.153,1.435,0.458c0.324,0.305,0.485,0.773,0.485,1.402v3.315
				c0,0.193,0.101,0.315,0.303,0.364c0.202,0.049,0.461,0.074,0.775,0.074v0.485h-3.16V8.239c0.314,0,0.573-0.025,0.775-0.074
				s0.303-0.171,0.303-0.364V4.526c0-0.449-0.065-0.817-0.195-1.105c-0.13-0.292-0.397-0.438-0.802-0.438
				c-0.535,0-0.974,0.214-1.32,0.64c-0.341,0.427-0.512,0.912-0.512,1.455v2.722c0,0.193,0.101,0.315,0.303,0.364
				c0.201,0.049,0.458,0.074,0.769,0.074v0.485H394.951z"/>
		</g>
		<g id="text4461">
		</g>
		<g id="text4463">
			<path id="path146" inkscape:connector-curvature="0" d="M406.096,11.399v-0.479c0.314,0,0.573-0.027,0.775-0.081
				s0.303-0.175,0.303-0.364V3.825c0-0.252-0.09-0.409-0.27-0.471c-0.179-0.063-0.449-0.094-0.808-0.094V2.774l2.042-0.149v0.856
				c0.251-0.278,0.544-0.49,0.876-0.633c0.336-0.148,0.694-0.223,1.071-0.223c0.544,0,1.033,0.149,1.469,0.445
				c0.436,0.292,0.775,0.678,1.018,1.159c0.247,0.476,0.371,0.981,0.371,1.516c0,0.557-0.137,1.076-0.412,1.557
				c-0.269,0.481-0.639,0.865-1.112,1.152c-0.467,0.283-0.982,0.424-1.543,0.424c-0.668,0-1.235-0.272-1.698-0.816v2.412
				c0,0.189,0.101,0.31,0.303,0.364c0.207,0.054,0.465,0.081,0.775,0.081v0.479H406.096z M408.178,7.383
				c0.163,0.328,0.387,0.6,0.674,0.816c0.288,0.211,0.602,0.317,0.944,0.317c0.319,0,0.6-0.085,0.843-0.256
				c0.247-0.171,0.453-0.4,0.62-0.687c0.166-0.288,0.287-0.588,0.364-0.903c0.08-0.319,0.121-0.626,0.121-0.923
				c0-0.368-0.068-0.766-0.201-1.193c-0.131-0.431-0.332-0.793-0.607-1.085c-0.269-0.296-0.598-0.444-0.984-0.444
				c-0.372,0-0.715,0.097-1.03,0.289c-0.31,0.189-0.557,0.447-0.741,0.775V7.383L408.178,7.383z"/>
			<path id="path148" inkscape:connector-curvature="0" d="M413.75,11.399v-0.479c0.315,0,0.574-0.027,0.775-0.081
				c0.202-0.054,0.303-0.175,0.303-0.364V3.825c0-0.252-0.089-0.409-0.269-0.471c-0.18-0.063-0.45-0.094-0.809-0.094V2.774
				l2.042-0.149v0.856c0.252-0.278,0.544-0.49,0.876-0.633c0.337-0.148,0.695-0.223,1.072-0.223c0.544,0,1.033,0.149,1.469,0.445
				c0.435,0.292,0.775,0.678,1.017,1.159c0.247,0.476,0.371,0.981,0.371,1.516c0,0.557-0.137,1.076-0.411,1.557
				c-0.269,0.481-0.64,0.865-1.112,1.152c-0.467,0.283-0.982,0.424-1.543,0.424c-0.669,0-1.236-0.272-1.698-0.816v2.412
				c0,0.189,0.101,0.31,0.303,0.364c0.206,0.054,0.464,0.081,0.775,0.081v0.479H413.75z M415.833,7.383
				c0.162,0.328,0.387,0.6,0.674,0.816c0.287,0.211,0.601,0.317,0.943,0.317c0.32,0,0.6-0.085,0.843-0.256
				c0.247-0.171,0.454-0.4,0.62-0.687c0.166-0.288,0.287-0.588,0.363-0.903c0.081-0.319,0.122-0.626,0.122-0.923
				c0-0.368-0.068-0.766-0.202-1.193c-0.13-0.431-0.332-0.793-0.606-1.085c-0.27-0.296-0.598-0.444-0.984-0.444
				c-0.372,0-0.716,0.097-1.03,0.289c-0.31,0.189-0.557,0.447-0.741,0.775V7.383z"/>
			<path id="path150" inkscape:connector-curvature="0" d="M421.46,8.724V8.239c0.314,0,0.573-0.025,0.775-0.074
				s0.303-0.171,0.303-0.364V4.034c0-0.247-0.038-0.424-0.115-0.532c-0.072-0.112-0.178-0.18-0.317-0.202
				c-0.139-0.027-0.355-0.041-0.647-0.041V2.774l2.001-0.149v1.348c0.184-0.396,0.455-0.719,0.815-0.97
				c0.365-0.252,0.76-0.378,1.187-0.378c1.06,0,1.682,0.431,1.866,1.294c0.184-0.386,0.453-0.699,0.809-0.937
				c0.354-0.238,0.743-0.357,1.165-0.357c0.418,0,0.769,0.067,1.051,0.202c0.288,0.135,0.503,0.341,0.647,0.62
				c0.145,0.274,0.216,0.62,0.216,1.038v3.315c0,0.193,0.101,0.315,0.303,0.364c0.207,0.049,0.465,0.074,0.775,0.074v0.485h-3.16
				V8.239c0.314,0,0.573-0.025,0.775-0.074s0.303-0.171,0.303-0.364V4.526c0-0.462-0.066-0.835-0.196-1.119
				c-0.13-0.283-0.397-0.424-0.802-0.424c-0.53,0-0.967,0.214-1.314,0.64c-0.345,0.427-0.518,0.912-0.518,1.455v2.722
				c0,0.193,0.101,0.315,0.303,0.364s0.461,0.074,0.775,0.074v0.485H425.3V8.239c0.315,0,0.573-0.025,0.775-0.074
				c0.202-0.049,0.303-0.171,0.303-0.364V4.526c0-0.449-0.065-0.817-0.195-1.105c-0.13-0.292-0.397-0.438-0.802-0.438
				c-0.535,0-0.975,0.214-1.32,0.64c-0.341,0.427-0.512,0.912-0.512,1.455v2.722c0,0.193,0.1,0.315,0.303,0.364
				s0.459,0.074,0.769,0.074v0.485H421.46z"/>
		</g>
		<g id="text4465" transform="scale(0.9163531,1.0912824)">
			<path id="path153" inkscape:connector-curvature="0" d="M477.45,3.575c0,1.475-0.24,2.801-0.72,3.978
				c-0.481,1.176-1.155,2.263-2.022,3.258h-1.684v-0.074c0.377-0.339,0.755-0.753,1.132-1.243c0.382-0.485,0.718-1.03,1.007-1.632
				c0.305-0.628,0.545-1.289,0.721-1.985c0.181-0.696,0.272-1.464,0.272-2.302c0-0.804-0.091-1.569-0.272-2.295
				c-0.181-0.725-0.422-1.39-0.721-1.993c-0.309-0.622-0.645-1.167-1.007-1.632c-0.358-0.471-0.735-0.885-1.132-1.243v-0.073h1.684
				c0.867,0.995,1.541,2.081,2.022,3.257C477.21,0.773,477.45,2.099,477.45,3.575z"/>
		</g>
		<g id="text4467">
			<path id="path156" inkscape:connector-curvature="0" d="M299.787,29.37V29c0-0.023,0.009-0.047,0.026-0.074l2.143-2.373
				c0.324-0.35,0.586-0.644,0.788-0.882c0.202-0.238,0.403-0.512,0.6-0.822c0.198-0.311,0.352-0.625,0.465-0.944
				c0.116-0.323,0.175-0.665,0.175-1.024c0-0.378-0.07-0.736-0.209-1.077c-0.139-0.347-0.349-0.623-0.627-0.829
				c-0.275-0.207-0.607-0.311-0.997-0.311c-0.4,0-0.76,0.122-1.078,0.365c-0.32,0.238-0.544,0.547-0.674,0.929
				c0.036-0.009,0.085-0.014,0.148-0.014c0.206,0,0.381,0.07,0.526,0.21c0.148,0.139,0.222,0.318,0.222,0.538
				c0,0.211-0.074,0.391-0.222,0.539c-0.145,0.144-0.32,0.216-0.526,0.216c-0.216,0-0.397-0.074-0.546-0.222
				c-0.145-0.154-0.216-0.331-0.216-0.533c0-0.346,0.065-0.669,0.195-0.97c0.131-0.305,0.317-0.575,0.559-0.809
				c0.247-0.238,0.524-0.419,0.829-0.546c0.311-0.126,0.638-0.189,0.984-0.189c0.526,0,1.015,0.113,1.469,0.337
				c0.453,0.22,0.813,0.535,1.078,0.944c0.265,0.404,0.397,0.878,0.397,1.422c0,0.4-0.088,0.779-0.263,1.139
				c-0.175,0.359-0.4,0.687-0.674,0.984c-0.274,0.292-0.624,0.624-1.051,0.998c-0.427,0.372-0.707,0.621-0.843,0.748l-1.562,1.503
				h1.327c0.651,0,1.195-0.005,1.63-0.014c0.441-0.013,0.674-0.031,0.701-0.053c0.108-0.116,0.219-0.541,0.331-1.274h0.405
				l-0.391,2.46H299.787z"/>
			<path id="path158" inkscape:connector-curvature="0" d="M306.384,27.092v-0.485l4.266-6.361c0.031-0.045,0.079-0.068,0.141-0.068
				h0.202c0.104,0,0.155,0.051,0.155,0.155v6.273h1.355v0.485h-1.355v1.355c0,0.188,0.135,0.31,0.405,0.363
				c0.269,0.051,0.582,0.075,0.936,0.075v0.485h-3.8v-0.485c0.356,0,0.668-0.024,0.937-0.075c0.269-0.053,0.405-0.175,0.405-0.363
				v-1.355H306.384z M306.842,26.607h3.268v-4.885L306.842,26.607z"/>
		</g>
		<g id="text4469">
			<path id="path161" inkscape:connector-curvature="0" d="M315.559,28.609c0-0.207,0.076-0.384,0.229-0.532
				c0.152-0.148,0.33-0.223,0.532-0.223c0.126,0,0.249,0.033,0.371,0.101c0.121,0.068,0.215,0.162,0.282,0.283
				c0.069,0.122,0.101,0.246,0.101,0.371c0,0.201-0.074,0.379-0.222,0.532c-0.148,0.154-0.325,0.229-0.532,0.229
				c-0.202,0-0.38-0.076-0.532-0.229C315.635,28.988,315.559,28.81,315.559,28.609z"/>
		</g>
		<g id="text4471">
			<path id="path164" inkscape:connector-curvature="0" d="M317.634,27.092v-0.485l4.265-6.361c0.032-0.045,0.079-0.068,0.142-0.068
				h0.202c0.103,0,0.154,0.051,0.154,0.155v6.273h1.355v0.485h-1.355v1.355c0,0.188,0.135,0.31,0.405,0.363
				c0.269,0.051,0.582,0.075,0.937,0.075v0.485h-3.8v-0.485c0.355,0,0.667-0.024,0.937-0.075c0.269-0.053,0.405-0.175,0.405-0.363
				v-1.355H317.634z M318.092,26.607h3.268v-4.885L318.092,26.607L318.092,26.607z"/>
			<path id="path166" inkscape:connector-curvature="0" d="M325.349,27.8c0.094,0.269,0.238,0.514,0.432,0.734
				c0.197,0.219,0.429,0.393,0.694,0.518c0.269,0.122,0.548,0.182,0.836,0.182c0.665,0,1.123-0.258,1.375-0.775
				c0.251-0.517,0.378-1.142,0.378-1.879c0-0.319-0.007-0.586-0.021-0.802c-0.009-0.219-0.039-0.431-0.088-0.633
				c-0.085-0.323-0.236-0.607-0.452-0.849c-0.211-0.243-0.471-0.364-0.782-0.364c-0.309,0-0.576,0.047-0.802,0.142
				c-0.219,0.094-0.399,0.204-0.538,0.33c-0.139,0.126-0.263,0.258-0.37,0.398c-0.108,0.139-0.175,0.213-0.202,0.222h-0.155
				c-0.023,0-0.051-0.014-0.088-0.041c-0.032-0.032-0.047-0.06-0.047-0.088v-4.61c0-0.022,0.014-0.044,0.041-0.067
				c0.031-0.027,0.062-0.041,0.094-0.041h0.04c0.62,0.297,1.279,0.445,1.975,0.445c0.683,0,1.341-0.148,1.974-0.445h0.041
				c0.031,0,0.06,0.012,0.087,0.033c0.027,0.023,0.042,0.048,0.042,0.074v0.128c0,0.045-0.009,0.068-0.027,0.068
				c-0.315,0.418-0.71,0.743-1.187,0.977c-0.471,0.234-0.961,0.35-1.469,0.35c-0.368,0-0.746-0.051-1.133-0.155v2.607
				c0.305-0.247,0.578-0.422,0.816-0.526c0.243-0.107,0.55-0.161,0.924-0.161c0.508,0,0.961,0.145,1.36,0.437
				c0.405,0.293,0.714,0.674,0.93,1.146c0.215,0.467,0.323,0.946,0.323,1.435c0,0.553-0.137,1.065-0.411,1.536
				c-0.27,0.472-0.639,0.846-1.105,1.125c-0.468,0.279-0.975,0.418-1.524,0.418c-0.453,0-0.872-0.117-1.253-0.35
				c-0.378-0.234-0.676-0.548-0.897-0.944c-0.216-0.395-0.323-0.816-0.323-1.26c0-0.207,0.068-0.376,0.202-0.506
				c0.135-0.13,0.303-0.195,0.505-0.195s0.371,0.067,0.506,0.202c0.139,0.13,0.21,0.296,0.21,0.499c0,0.198-0.07,0.367-0.21,0.506
				c-0.135,0.135-0.303,0.202-0.506,0.202c-0.031,0-0.067-0.003-0.107-0.007C325.396,27.811,325.367,27.804,325.349,27.8z"/>
		</g>
		<g id="text4473">
		</g>
		<g id="text4509">
			<path id="path170" inkscape:connector-curvature="0" d="M149.195,30.363v-0.39c0.253,0,0.461-0.02,0.623-0.06
				c0.163-0.04,0.244-0.137,0.244-0.293v-3.029c0-0.199-0.031-0.341-0.092-0.428c-0.058-0.09-0.143-0.145-0.255-0.163
				c-0.112-0.022-0.285-0.033-0.52-0.033v-0.39l1.609-0.119v1.084c0.148-0.318,0.367-0.578,0.656-0.78
				c0.293-0.202,0.611-0.303,0.954-0.303c0.853,0,1.353,0.347,1.501,1.04c0.148-0.311,0.365-0.562,0.65-0.753
				c0.285-0.191,0.598-0.287,0.937-0.287c0.336,0,0.618,0.054,0.845,0.163c0.231,0.108,0.405,0.275,0.52,0.499
				c0.116,0.22,0.173,0.499,0.173,0.835v2.666c0,0.155,0.081,0.253,0.244,0.293c0.166,0.04,0.374,0.06,0.623,0.06v0.39h-2.541v-0.39
				c0.253,0,0.461-0.02,0.623-0.06s0.244-0.137,0.244-0.293v-2.634c0-0.372-0.052-0.672-0.157-0.9
				c-0.105-0.228-0.32-0.341-0.645-0.341c-0.426,0-0.779,0.172-1.057,0.515s-0.417,0.733-0.417,1.17v2.189
				c0,0.155,0.081,0.253,0.244,0.293s0.37,0.06,0.623,0.06v0.39h-2.541v-0.39c0.253,0,0.461-0.02,0.623-0.06
				s0.244-0.137,0.244-0.293v-2.634c0-0.361-0.052-0.658-0.157-0.889c-0.105-0.235-0.32-0.352-0.645-0.352
				c-0.43,0-0.784,0.172-1.062,0.515c-0.275,0.343-0.412,0.733-0.412,1.17v2.189c0,0.155,0.081,0.253,0.244,0.293
				s0.368,0.06,0.618,0.06v0.39H149.195z"/>
			<path id="path172" inkscape:connector-curvature="0" d="M158.429,31.23c0-0.264,0.096-0.495,0.287-0.694
				c0.191-0.195,0.419-0.334,0.683-0.417c-0.148-0.112-0.262-0.253-0.341-0.423c-0.076-0.17-0.114-0.35-0.114-0.542
				c0-0.347,0.11-0.654,0.331-0.921c-0.34-0.332-0.509-0.713-0.509-1.143c0-0.231,0.049-0.448,0.146-0.65
				c0.101-0.202,0.24-0.378,0.417-0.526s0.374-0.26,0.591-0.336c0.217-0.079,0.439-0.119,0.667-0.119
				c0.441,0,0.836,0.128,1.187,0.385c0.152-0.163,0.331-0.287,0.536-0.374c0.21-0.09,0.426-0.135,0.65-0.135
				c0.159,0,0.289,0.058,0.39,0.173c0.101,0.112,0.152,0.247,0.152,0.406c0,0.09-0.034,0.17-0.103,0.238s-0.148,0.103-0.238,0.103
				c-0.094,0-0.175-0.034-0.244-0.103c-0.069-0.069-0.103-0.148-0.103-0.238c0-0.137,0.045-0.233,0.135-0.287
				c-0.383,0-0.712,0.132-0.986,0.396c0.134,0.134,0.24,0.298,0.32,0.493c0.083,0.191,0.125,0.383,0.125,0.574
				c0,0.314-0.087,0.598-0.26,0.851c-0.173,0.249-0.403,0.444-0.688,0.585c-0.282,0.137-0.573,0.206-0.872,0.206
				c-0.405,0-0.775-0.11-1.111-0.331c-0.105,0.145-0.157,0.307-0.157,0.488c0,0.195,0.063,0.367,0.19,0.515
				c0.13,0.145,0.293,0.217,0.488,0.217h0.91c0.441,0,0.838,0.04,1.192,0.119c0.354,0.079,0.65,0.238,0.889,0.477
				c0.242,0.238,0.363,0.576,0.363,1.013c0,0.325-0.137,0.594-0.412,0.807c-0.275,0.217-0.603,0.372-0.986,0.466
				c-0.379,0.098-0.732,0.146-1.057,0.146c-0.329,0-0.685-0.049-1.068-0.146c-0.383-0.094-0.712-0.249-0.986-0.466
				C158.566,31.825,158.429,31.556,158.429,31.23z M159.052,31.23c0,0.249,0.101,0.457,0.303,0.623
				c0.202,0.17,0.446,0.294,0.732,0.374c0.285,0.083,0.555,0.125,0.807,0.125c0.249,0,0.517-0.042,0.802-0.125
				c0.285-0.079,0.527-0.204,0.726-0.374c0.202-0.166,0.303-0.374,0.303-0.623c0-0.387-0.177-0.638-0.531-0.753
				c-0.354-0.112-0.784-0.168-1.29-0.168h-0.91c-0.17,0-0.327,0.04-0.471,0.119c-0.141,0.083-0.255,0.197-0.341,0.341
				C159.095,30.918,159.052,31.072,159.052,31.23z M160.586,28.434c0.629,0,0.943-0.448,0.943-1.344
				c0-0.387-0.067-0.704-0.201-0.954c-0.134-0.253-0.381-0.379-0.742-0.379s-0.609,0.126-0.742,0.379
				c-0.134,0.249-0.201,0.567-0.201,0.954c0,0.246,0.025,0.468,0.076,0.667c0.051,0.199,0.145,0.361,0.282,0.488
				S160.333,28.434,160.586,28.434z"/>
			<path id="path174" inkscape:connector-curvature="0" d="M164.292,32.916c0-0.022,0.004-0.036,0.011-0.043l3.858-10.697
				c0.014-0.043,0.04-0.076,0.076-0.098c0.036-0.025,0.078-0.038,0.125-0.038c0.065,0,0.117,0.02,0.157,0.06
				c0.043,0.04,0.065,0.094,0.065,0.163v0.043l-3.858,10.697c-0.043,0.09-0.114,0.135-0.211,0.135c-0.061,0-0.114-0.022-0.157-0.065
				C164.314,33.03,164.292,32.977,164.292,32.916z"/>
			<path id="path176" inkscape:connector-curvature="0" d="M169.548,30.363v-0.39c0.253,0,0.461-0.02,0.623-0.06
				s0.244-0.137,0.244-0.293v-3.029c0-0.199-0.031-0.341-0.092-0.428c-0.058-0.09-0.143-0.145-0.255-0.163
				c-0.112-0.022-0.285-0.033-0.52-0.033v-0.39l1.609-0.119v1.084c0.148-0.318,0.367-0.578,0.656-0.78
				c0.293-0.202,0.611-0.303,0.954-0.303c0.853,0,1.353,0.347,1.501,1.04c0.148-0.311,0.365-0.562,0.65-0.753
				c0.285-0.191,0.598-0.287,0.937-0.287c0.336,0,0.618,0.054,0.845,0.163c0.231,0.108,0.405,0.275,0.52,0.499
				c0.116,0.22,0.173,0.499,0.173,0.835v2.666c0,0.155,0.081,0.253,0.244,0.293c0.166,0.04,0.374,0.06,0.623,0.06v0.39h-2.541v-0.39
				c0.253,0,0.461-0.02,0.623-0.06s0.244-0.137,0.244-0.293v-2.634c0-0.372-0.052-0.672-0.157-0.9s-0.32-0.341-0.645-0.341
				c-0.426,0-0.779,0.172-1.057,0.515s-0.417,0.733-0.417,1.17v2.189c0,0.155,0.081,0.253,0.244,0.293s0.37,0.06,0.623,0.06v0.39
				h-2.541v-0.39c0.253,0,0.461-0.02,0.623-0.06s0.244-0.137,0.244-0.293v-2.634c0-0.361-0.052-0.658-0.157-0.889
				c-0.105-0.235-0.32-0.352-0.645-0.352c-0.43,0-0.784,0.172-1.062,0.515c-0.275,0.343-0.412,0.733-0.412,1.17v2.189
				c0,0.155,0.081,0.253,0.244,0.293s0.368,0.06,0.618,0.06v0.39H169.548z"/>
		</g>
		<g id="text4513">
			<path id="path179" inkscape:connector-curvature="0" d="M179.51,25.937c0.116,0.169,0.271,0.294,0.466,0.376
				s0.405,0.123,0.629,0.123c0.287,0,0.49-0.122,0.611-0.365c0.121-0.246,0.181-0.524,0.181-0.835c0-0.14-0.013-0.279-0.04-0.419
				c-0.024-0.14-0.066-0.27-0.126-0.39c-0.06-0.12-0.143-0.217-0.249-0.289c-0.103-0.072-0.231-0.108-0.383-0.108h-0.491
				c-0.043,0-0.065-0.023-0.065-0.069v-0.065c0-0.039,0.022-0.058,0.065-0.058l0.408-0.033c0.173,0,0.317-0.065,0.43-0.195
				c0.116-0.13,0.2-0.288,0.253-0.473c0.053-0.188,0.079-0.366,0.079-0.535c0-0.236-0.055-0.43-0.166-0.582
				c-0.111-0.152-0.279-0.228-0.506-0.228c-0.188,0-0.367,0.036-0.538,0.108c-0.171,0.07-0.307,0.177-0.408,0.322
				c0.01-0.003,0.019-0.004,0.025-0.004c0.007-0.003,0.016-0.004,0.025-0.004c0.111,0,0.204,0.039,0.278,0.116
				c0.075,0.077,0.112,0.17,0.112,0.278c0,0.106-0.037,0.198-0.112,0.275C179.912,22.961,179.82,23,179.709,23
				c-0.108,0-0.201-0.039-0.278-0.116c-0.077-0.077-0.116-0.169-0.116-0.275c0-0.212,0.064-0.396,0.191-0.553
				c0.128-0.156,0.292-0.275,0.491-0.354c0.202-0.082,0.405-0.123,0.607-0.123c0.149,0,0.308,0.023,0.473,0.069
				c0.167,0.043,0.317,0.107,0.452,0.191c0.135,0.082,0.245,0.188,0.329,0.318c0.087,0.13,0.13,0.278,0.13,0.444
				c0,0.207-0.047,0.398-0.141,0.574c-0.091,0.176-0.218,0.328-0.379,0.455c-0.161,0.127-0.338,0.223-0.531,0.285
				c0.214,0.041,0.418,0.122,0.611,0.242c0.193,0.12,0.347,0.275,0.463,0.462c0.118,0.188,0.177,0.39,0.177,0.607
				c0,0.272-0.075,0.519-0.224,0.741c-0.149,0.219-0.345,0.391-0.589,0.517c-0.243,0.123-0.499,0.184-0.769,0.184
				c-0.231,0-0.463-0.044-0.697-0.134c-0.231-0.087-0.421-0.218-0.571-0.394c-0.147-0.176-0.22-0.387-0.22-0.632
				c0-0.123,0.041-0.225,0.123-0.307c0.082-0.082,0.184-0.123,0.307-0.123c0.079,0,0.152,0.019,0.217,0.058
				c0.068,0.036,0.119,0.088,0.155,0.155c0.039,0.068,0.058,0.14,0.058,0.217c0,0.12-0.042,0.221-0.126,0.303
				c-0.084,0.082-0.185,0.123-0.303,0.123H179.51z"/>
		</g>
	</g>
	<g id="text4505">
		<path id="path182" inkscape:connector-curvature="0" d="M289.657,20.165c-0.327,0-0.63-0.082-0.91-0.247
			c-0.279-0.168-0.5-0.391-0.662-0.67s-0.243-0.584-0.243-0.914c0-0.25,0.044-0.491,0.132-0.722c0.09-0.231,0.218-0.437,0.383-0.618
			c0.168-0.184,0.362-0.326,0.582-0.427c0.221-0.104,0.46-0.156,0.718-0.156c0.335,0,0.64,0.089,0.914,0.267
			c0.277,0.176,0.495,0.412,0.654,0.71c0.16,0.295,0.239,0.61,0.239,0.945c0,0.327-0.081,0.632-0.243,0.914
			c-0.162,0.279-0.383,0.503-0.662,0.67C290.282,20.083,289.981,20.165,289.657,20.165z M289.657,19.926
			c0.436,0,0.727-0.158,0.874-0.475c0.146-0.316,0.219-0.719,0.219-1.209c0-0.274-0.015-0.5-0.044-0.678
			c-0.029-0.181-0.093-0.344-0.191-0.491c-0.061-0.09-0.14-0.169-0.235-0.235c-0.093-0.069-0.193-0.121-0.299-0.156
			c-0.104-0.037-0.211-0.056-0.323-0.056c-0.17,0-0.332,0.039-0.487,0.116c-0.152,0.077-0.278,0.188-0.379,0.331
			c-0.101,0.154-0.166,0.324-0.195,0.511c-0.027,0.184-0.04,0.403-0.04,0.658c0,0.306,0.027,0.581,0.08,0.826
			c0.053,0.242,0.16,0.445,0.319,0.61C289.117,19.843,289.351,19.926,289.657,19.926z"/>
		<path id="path184" inkscape:connector-curvature="0" d="M291.963,20.073v-0.287c0.184,0,0.335-0.015,0.455-0.044
			c0.12-0.029,0.18-0.101,0.18-0.215v-2.689h-0.626v-0.287h0.626v-0.977c0-0.176,0.036-0.339,0.108-0.491
			c0.074-0.154,0.173-0.289,0.295-0.403c0.125-0.114,0.267-0.203,0.427-0.267c0.162-0.066,0.33-0.1,0.503-0.1
			c0.184,0,0.348,0.055,0.495,0.164c0.149,0.109,0.223,0.254,0.223,0.435c0,0.104-0.036,0.191-0.108,0.263
			c-0.069,0.069-0.156,0.104-0.259,0.104c-0.104,0-0.193-0.035-0.267-0.104c-0.072-0.072-0.108-0.16-0.108-0.263
			c0-0.17,0.073-0.285,0.219-0.343c-0.088-0.029-0.166-0.044-0.235-0.044c-0.16,0-0.297,0.057-0.411,0.172
			c-0.112,0.112-0.195,0.249-0.251,0.411c-0.056,0.162-0.084,0.323-0.084,0.483v0.961h0.941v0.287h-0.914v2.689
			c0,0.112,0.08,0.184,0.239,0.215c0.16,0.029,0.343,0.044,0.551,0.044v0.287H291.963z"/>
		<path id="path186" inkscape:connector-curvature="0" d="M297.189,20.097v-1.332c0-0.043,0.024-0.064,0.072-0.064h0.1
			c0.032,0,0.053,0.021,0.064,0.064c0.152,0.79,0.519,1.185,1.101,1.185c0.258,0,0.473-0.059,0.646-0.176
			c0.176-0.117,0.263-0.298,0.263-0.543c0-0.176-0.068-0.324-0.203-0.447c-0.136-0.125-0.297-0.21-0.483-0.255l-0.546-0.108
			c-0.184-0.04-0.351-0.101-0.503-0.184c-0.149-0.082-0.271-0.191-0.367-0.327c-0.096-0.138-0.144-0.298-0.144-0.479
			c0-0.239,0.063-0.435,0.188-0.586c0.128-0.154,0.293-0.265,0.495-0.331c0.202-0.069,0.42-0.104,0.654-0.104
			c0.279,0,0.523,0.074,0.73,0.223l0.235-0.203c0-0.013,0.013-0.02,0.04-0.02h0.06c0.016,0,0.031,0.008,0.044,0.024
			c0.013,0.013,0.02,0.028,0.02,0.044v1.069c0,0.051-0.021,0.076-0.064,0.076h-0.1c-0.048,0-0.072-0.025-0.072-0.076
			c0-0.285-0.08-0.513-0.239-0.686c-0.157-0.173-0.378-0.259-0.662-0.259c-0.244,0-0.457,0.045-0.638,0.136
			c-0.178,0.09-0.267,0.246-0.267,0.467c0,0.152,0.064,0.277,0.191,0.375c0.13,0.096,0.282,0.165,0.455,0.207l0.554,0.104
			c0.186,0.043,0.359,0.114,0.519,0.215c0.162,0.101,0.29,0.229,0.383,0.383c0.096,0.154,0.144,0.328,0.144,0.523
			c0,0.197-0.035,0.368-0.104,0.515c-0.066,0.144-0.161,0.263-0.283,0.359c-0.12,0.096-0.262,0.166-0.427,0.211
			c-0.165,0.045-0.338,0.068-0.519,0.068c-0.34,0-0.631-0.114-0.873-0.343l-0.299,0.323c0,0.013-0.015,0.02-0.044,0.02h-0.048
			C297.212,20.165,297.189,20.143,297.189,20.097z"/>
		<path id="path188" inkscape:connector-curvature="0" d="M301.022,19.1v-1.803c0-0.146-0.023-0.251-0.068-0.315
			c-0.043-0.066-0.105-0.106-0.188-0.12c-0.082-0.016-0.21-0.024-0.383-0.024v-0.287l1.237-0.088V19.1
			c0,0.213,0.015,0.379,0.044,0.499c0.032,0.117,0.097,0.205,0.195,0.263c0.101,0.059,0.261,0.088,0.479,0.088
			c0.293,0,0.525-0.122,0.698-0.367c0.173-0.245,0.259-0.523,0.259-0.834v-1.452c0-0.146-0.023-0.251-0.068-0.315
			c-0.045-0.066-0.109-0.106-0.191-0.12c-0.08-0.016-0.206-0.024-0.379-0.024v-0.287l1.233-0.088v2.868
			c0,0.144,0.021,0.249,0.064,0.315c0.045,0.064,0.109,0.104,0.191,0.12c0.082,0.013,0.21,0.02,0.383,0.02v0.287l-1.209,0.092v-0.69
			c-0.101,0.205-0.242,0.371-0.423,0.499c-0.181,0.128-0.38,0.191-0.598,0.191c-0.391,0-0.702-0.082-0.933-0.247
			C301.136,19.75,301.022,19.478,301.022,19.1z"/>
		<path id="path190" inkscape:connector-curvature="0" d="M305.522,20.073v-4.835c0-0.146-0.023-0.251-0.068-0.315
			c-0.043-0.066-0.105-0.106-0.188-0.12c-0.082-0.016-0.21-0.024-0.383-0.024v-0.287l1.209-0.088v2.557
			c0.09-0.101,0.195-0.189,0.315-0.263c0.122-0.077,0.253-0.136,0.391-0.176c0.138-0.04,0.279-0.06,0.423-0.06
			c0.245,0,0.471,0.049,0.678,0.148c0.21,0.098,0.392,0.234,0.547,0.407c0.154,0.173,0.274,0.372,0.359,0.598
			c0.088,0.223,0.132,0.455,0.132,0.694c0,0.33-0.081,0.637-0.243,0.921c-0.16,0.285-0.379,0.512-0.658,0.682
			c-0.277,0.168-0.581,0.251-0.914,0.251c-0.207,0-0.408-0.053-0.602-0.16c-0.194-0.106-0.355-0.247-0.483-0.423l-0.279,0.491
			H305.522z M306.116,19.272c0.09,0.199,0.221,0.363,0.391,0.491c0.17,0.125,0.359,0.187,0.566,0.187
			c0.282,0,0.509-0.081,0.682-0.243c0.176-0.162,0.298-0.367,0.367-0.614c0.069-0.247,0.104-0.508,0.104-0.782
			c0-0.46-0.06-0.81-0.18-1.049c-0.053-0.106-0.126-0.205-0.219-0.295c-0.09-0.09-0.193-0.161-0.307-0.211
			c-0.112-0.053-0.23-0.08-0.355-0.08c-0.218,0-0.42,0.059-0.606,0.176c-0.186,0.114-0.334,0.269-0.443,0.463V19.272z"/>
		<path id="path192" inkscape:connector-curvature="0" d="M309.475,20.097v-1.332c0-0.043,0.024-0.064,0.072-0.064h0.1
			c0.032,0,0.053,0.021,0.064,0.064c0.152,0.79,0.519,1.185,1.101,1.185c0.258,0,0.473-0.059,0.646-0.176
			c0.176-0.117,0.263-0.298,0.263-0.543c0-0.176-0.068-0.324-0.203-0.447c-0.136-0.125-0.297-0.21-0.483-0.255l-0.547-0.108
			c-0.183-0.04-0.351-0.101-0.503-0.184c-0.149-0.082-0.271-0.191-0.367-0.327c-0.096-0.138-0.144-0.298-0.144-0.479
			c0-0.239,0.063-0.435,0.188-0.586c0.128-0.154,0.293-0.265,0.495-0.331c0.202-0.069,0.42-0.104,0.654-0.104
			c0.279,0,0.523,0.074,0.73,0.223l0.235-0.203c0-0.013,0.013-0.02,0.04-0.02h0.06c0.016,0,0.031,0.008,0.044,0.024
			c0.013,0.013,0.02,0.028,0.02,0.044v1.069c0,0.051-0.021,0.076-0.064,0.076h-0.1c-0.048,0-0.072-0.025-0.072-0.076
			c0-0.285-0.08-0.513-0.239-0.686c-0.157-0.173-0.378-0.259-0.662-0.259c-0.245,0-0.457,0.045-0.638,0.136
			c-0.178,0.09-0.267,0.246-0.267,0.467c0,0.152,0.064,0.277,0.191,0.375c0.13,0.096,0.282,0.165,0.455,0.207l0.555,0.104
			c0.186,0.043,0.359,0.114,0.519,0.215c0.162,0.101,0.29,0.229,0.383,0.383c0.096,0.154,0.144,0.328,0.144,0.523
			c0,0.197-0.035,0.368-0.104,0.515c-0.066,0.144-0.161,0.263-0.283,0.359c-0.12,0.096-0.262,0.166-0.427,0.211
			c-0.165,0.045-0.338,0.068-0.519,0.068c-0.34,0-0.632-0.114-0.874-0.343l-0.299,0.323c0,0.013-0.015,0.02-0.044,0.02h-0.048
			C309.499,20.165,309.475,20.143,309.475,20.097z"/>
		<path id="path194" inkscape:connector-curvature="0" d="M313.26,19.092v-2.254h-0.678v-0.211c0.356,0,0.618-0.166,0.786-0.499
			s0.251-0.693,0.251-1.081h0.235v1.504h1.153v0.287h-1.153v2.238c0,0.226,0.037,0.424,0.112,0.594
			c0.077,0.17,0.214,0.255,0.411,0.255c0.186,0,0.32-0.089,0.403-0.267c0.082-0.181,0.124-0.375,0.124-0.582v-0.483h0.235v0.499
			c0,0.17-0.032,0.339-0.096,0.507c-0.061,0.165-0.153,0.301-0.275,0.407c-0.122,0.106-0.271,0.16-0.447,0.16
			c-0.327,0-0.586-0.097-0.778-0.291C313.355,19.677,313.26,19.417,313.26,19.092z"/>
		<path id="path196" inkscape:connector-curvature="0" d="M315.929,19.272c0-0.324,0.128-0.588,0.383-0.79
			c0.255-0.205,0.561-0.348,0.918-0.431c0.359-0.085,0.699-0.128,1.021-0.128v-0.335c0-0.157-0.035-0.309-0.104-0.455
			c-0.069-0.149-0.169-0.27-0.299-0.363c-0.13-0.096-0.274-0.144-0.431-0.144c-0.362,0-0.637,0.081-0.826,0.243
			c0.104,0,0.189,0.04,0.255,0.12c0.069,0.077,0.104,0.168,0.104,0.271c0,0.109-0.039,0.202-0.116,0.279
			c-0.077,0.077-0.169,0.116-0.275,0.116c-0.109,0-0.202-0.039-0.279-0.116c-0.077-0.077-0.116-0.17-0.116-0.279
			c0-0.287,0.13-0.5,0.391-0.638c0.261-0.141,0.548-0.211,0.862-0.211c0.221,0,0.443,0.048,0.666,0.144
			c0.223,0.093,0.406,0.227,0.547,0.403c0.144,0.176,0.215,0.38,0.215,0.614v1.839c0,0.106,0.023,0.205,0.068,0.295
			c0.045,0.088,0.116,0.132,0.211,0.132c0.09,0,0.157-0.045,0.199-0.136c0.045-0.09,0.068-0.188,0.068-0.291v-0.523h0.239v0.523
			c0,0.122-0.032,0.239-0.096,0.351c-0.063,0.109-0.15,0.197-0.259,0.263c-0.106,0.064-0.222,0.096-0.347,0.096
			c-0.16,0-0.298-0.061-0.415-0.184c-0.114-0.125-0.178-0.273-0.191-0.443c-0.1,0.205-0.249,0.368-0.447,0.491
			c-0.197,0.12-0.407,0.18-0.63,0.18c-0.208,0-0.412-0.031-0.614-0.092c-0.199-0.061-0.367-0.157-0.503-0.287
			C315.996,19.653,315.929,19.482,315.929,19.272z M316.591,19.272c0,0.191,0.07,0.352,0.211,0.483s0.307,0.195,0.499,0.195
			c0.176,0,0.335-0.044,0.479-0.132s0.258-0.207,0.343-0.359c0.085-0.152,0.128-0.311,0.128-0.479v-0.85
			c-0.247,0-0.501,0.041-0.762,0.124c-0.258,0.08-0.472,0.206-0.642,0.379S316.591,19.019,316.591,19.272z"/>
		<path id="path198" inkscape:connector-curvature="0" d="M319.93,20.073v-0.287c0.186,0,0.339-0.015,0.459-0.044
			c0.12-0.029,0.18-0.101,0.18-0.215v-2.23c0-0.146-0.023-0.251-0.068-0.315c-0.043-0.066-0.105-0.106-0.187-0.12
			c-0.082-0.016-0.21-0.024-0.383-0.024v-0.287l1.185-0.088v0.798c0.109-0.234,0.27-0.426,0.483-0.574
			c0.215-0.149,0.449-0.223,0.702-0.223c0.378,0,0.661,0.09,0.85,0.271c0.191,0.181,0.287,0.457,0.287,0.83v1.963
			c0,0.114,0.06,0.186,0.18,0.215c0.12,0.029,0.273,0.044,0.459,0.044v0.287h-1.871v-0.287c0.186,0,0.339-0.015,0.459-0.044
			c0.12-0.029,0.18-0.101,0.18-0.215v-1.939c0-0.266-0.039-0.484-0.116-0.654c-0.077-0.173-0.235-0.259-0.475-0.259
			c-0.316,0-0.577,0.126-0.782,0.379c-0.202,0.253-0.303,0.54-0.303,0.862v1.612c0,0.114,0.06,0.186,0.18,0.215
			c0.12,0.029,0.271,0.044,0.455,0.044v0.287H319.93z"/>
		<path id="path200" inkscape:connector-curvature="0" d="M326.253,20.165c-0.33,0-0.629-0.085-0.898-0.255
			c-0.269-0.173-0.48-0.402-0.634-0.686c-0.154-0.287-0.231-0.592-0.231-0.914c0-0.322,0.076-0.63,0.227-0.925
			c0.154-0.295,0.366-0.531,0.634-0.706c0.271-0.178,0.572-0.267,0.902-0.267c0.319,0,0.609,0.063,0.87,0.187
			c0.263,0.125,0.395,0.33,0.395,0.614c0,0.106-0.039,0.199-0.116,0.279c-0.074,0.077-0.166,0.116-0.275,0.116
			c-0.109,0-0.202-0.039-0.279-0.116c-0.074-0.08-0.112-0.173-0.112-0.279c0-0.096,0.031-0.178,0.092-0.247
			c0.061-0.072,0.137-0.117,0.227-0.136c-0.189-0.12-0.453-0.18-0.794-0.18c-0.261,0-0.471,0.086-0.63,0.259
			c-0.16,0.173-0.271,0.387-0.335,0.642c-0.063,0.255-0.095,0.508-0.095,0.758c0,0.263,0.039,0.519,0.116,0.766
			c0.08,0.245,0.206,0.448,0.379,0.61c0.176,0.16,0.395,0.239,0.658,0.239c0.258,0,0.477-0.078,0.658-0.235
			c0.181-0.16,0.305-0.367,0.371-0.622c0-0.032,0.021-0.048,0.064-0.048h0.099c0.016,0,0.031,0.008,0.045,0.024
			c0.013,0.013,0.02,0.029,0.02,0.048v0.024c-0.082,0.322-0.246,0.577-0.491,0.766C326.874,20.071,326.586,20.165,326.253,20.165z"
			/>
		<path id="path202" inkscape:connector-curvature="0" d="M329.875,20.165c-0.332,0-0.638-0.086-0.918-0.259
			c-0.277-0.176-0.495-0.408-0.654-0.698c-0.157-0.293-0.235-0.601-0.235-0.925c0-0.319,0.072-0.622,0.215-0.91
			c0.146-0.287,0.348-0.519,0.606-0.694c0.261-0.178,0.551-0.267,0.87-0.267c0.25,0,0.467,0.043,0.65,0.128
			c0.186,0.082,0.339,0.198,0.459,0.347s0.21,0.324,0.271,0.527c0.061,0.202,0.092,0.424,0.092,0.666
			c0,0.072-0.028,0.108-0.084,0.108h-2.366v0.088c0,0.452,0.09,0.84,0.271,1.165c0.184,0.324,0.481,0.487,0.894,0.487
			c0.168,0,0.322-0.037,0.463-0.112c0.144-0.074,0.267-0.178,0.371-0.311c0.106-0.133,0.178-0.275,0.215-0.427
			c0.005-0.019,0.015-0.035,0.028-0.048c0.016-0.016,0.033-0.024,0.052-0.024h0.072c0.057,0,0.084,0.035,0.084,0.104
			c-0.077,0.309-0.243,0.562-0.499,0.762C330.478,20.067,330.192,20.165,329.875,20.165z M328.79,17.983h1.863
			c0-0.205-0.029-0.412-0.088-0.622c-0.056-0.21-0.15-0.384-0.283-0.523c-0.133-0.141-0.307-0.211-0.523-0.211
			c-0.308,0-0.548,0.145-0.718,0.435C328.874,17.349,328.79,17.656,328.79,17.983z"/>
	</g>
</g>
</svg>
