<?xml version="1.0" encoding="UTF-8" standalone="no"?>
<!-- Created with Inkscape (http://www.inkscape.org/) -->

<svg
   xmlns:dc="http://purl.org/dc/elements/1.1/"
   xmlns:cc="http://creativecommons.org/ns#"
   xmlns:rdf="http://www.w3.org/1999/02/22-rdf-syntax-ns#"
   xmlns:svg="http://www.w3.org/2000/svg"
   xmlns="http://www.w3.org/2000/svg"
   version="1.2"
   width="320"
   height="60"
   id="svg3020">
  <metadata
     id="metadata3026">
    <rdf:RDF>
      <cc:Work
         rdf:about="">
        <dc:format>image/svg+xml</dc:format>
        <dc:type
           rdf:resource="http://purl.org/dc/dcmitype/StillImage" />
        <dc:title></dc:title>
      </cc:Work>
    </rdf:RDF>
  </metadata>
  <defs
     id="defs3024" />
  <text
     x="44.56657"
     y="42.23513"
     transform="scale(0.95814898,1.043679)"
     id="text3030"
     xml:space="preserve"
     style="font-size:41.02812958px;font-style:normal;font-variant:normal;font-weight:normal;font-stretch:normal;line-height:125%;letter-spacing:0px;word-spacing:0px;fill:#000000;fill-opacity:1;stroke:none;font-family:Cambria Math;-inkscape-font-specification:Cambria Math"><tspan
       x="44.56657"
       y="42.23513"
       id="tspan3032" /></text>
  <path
     d="m 100.43407,35.877153 204.61483,0"
     id="path3142-1"
     style="fill:#ffffff;stroke:#ffffff;stroke-width:1.12619078px;stroke-linecap:butt;stroke-linejoin:miter;stroke-opacity:1" />
  <g
     transform="matrix(1.0812913,0,0,1.0812913,-154.46177,19.74116)"
     id="g4427"
     style="fill:#ffffff;stroke:none">
    <g
       id="text4431"
       style="font-size:13.80000019px;font-style:normal;font-variant:normal;font-weight:normal;font-stretch:normal;text-align:start;text-anchor:start;fill:#ffffff;stroke:none;font-family:cmb10;-inkscape-font-specification:cmb10">
      <path
         d="m 215.77883,17.297517 c -0.10781,-0.01347 -0.20103,-0.05952 -0.27964,-0.138135 -0.0786,-0.07861 -0.11792,-0.171824 -0.11792,-0.279638 0,-0.103319 0.0371,-0.194285 0.11118,-0.272901 0.0741,-0.07861 0.16958,-0.129148 0.28638,-0.151611 l 8.38916,0 c 0.1123,0.02246 0.20551,0.073 0.27964,0.151611 0.0741,0.07862 0.11117,0.169582 0.11118,0.272901 -1e-5,0.107814 -0.0393,0.201027 -0.11792,0.279638 -0.0786,0.07861 -0.16959,0.12466 -0.2729,0.138135 z m 0,-3.079395 c -0.10781,-0.01347 -0.20103,-0.05952 -0.27964,-0.138134 -0.0786,-0.07861 -0.11792,-0.169576 -0.11792,-0.272901 0,-0.107807 0.0371,-0.20102 0.11118,-0.279638 0.0741,-0.07861 0.16958,-0.129145 0.28638,-0.151612 l 8.38916,0 c 0.1123,0.02247 0.20551,0.073 0.27964,0.151612 0.0741,0.07862 0.11117,0.171831 0.11118,0.279638 -1e-5,0.103325 -0.0393,0.194292 -0.11792,0.272901 -0.0786,0.07862 -0.16959,0.124662 -0.2729,0.138134 z"
         id="path3402"
         style="font-size:13.80000019px;font-style:normal;font-variant:normal;font-weight:normal;font-stretch:normal;text-align:start;text-anchor:start;fill:#ffffff;stroke:none;font-family:cmb10;-inkscape-font-specification:cmb10" />
    </g>
    <g
       id="text4433"
       style="font-size:13.80000019px;font-style:normal;font-variant:normal;font-weight:normal;font-stretch:normal;text-align:start;text-anchor:start;fill:#ffffff;stroke:none;font-family:cmr10;-inkscape-font-specification:cmr10" />
    <g
       transform="scale(0.9163531,1.0912824)"
       id="text4435"
       style="font-size:15.05969715px;font-style:normal;font-variant:normal;font-weight:normal;font-stretch:normal;text-align:start;text-anchor:start;fill:#ffffff;stroke:none;font-family:cmb10;-inkscape-font-specification:cmb10">
      <path
         d="m 260.13532,11.447569 c -0.53925,-0.441205 -1.00741,-0.947362 -1.40449,-1.5184705 -0.39708,-0.5711131 -0.72186,-1.1900209 -0.97432,-1.8567253 -0.25247,-0.666705 -0.4363,-1.3468908 -0.5515,-2.0405596 -0.11521,-0.6936652 -0.17281,-1.3787533 -0.17281,-2.0552662 0,-0.6765054 0.0576,-1.3628191 0.17281,-2.058943 0.1152,-0.6961123 0.29658,-1.37139589 0.54415,-2.02585283 0.24756,-0.65444121 0.56865,-1.26722127 0.96329,-1.83834197 0.39463,-0.5711013 0.86892,-1.0821598 1.42287,-1.5331771 0.0441,-0.029402 0.0907,-0.049011 0.13972,-0.058827 l 0.2206,0 c 0.12255,0.034327 0.18383,0.1054095 0.18383,0.2132477 0,0.058838 -0.0147,0.1029581 -0.0441,0.1323606 -0.53435,0.6029865 -0.95716,1.2978791 -1.26845,2.0846798 -0.3113,0.78681838 -0.52455,1.59446247 -0.63975,2.4229346 -0.1152,0.8284851 -0.1728,1.7157906 -0.1728,2.6619192 0,0.9510383 0.0576,1.8420205 0.1728,2.6729491 0.1152,0.8309309 0.32845,1.6398005 0.63975,2.4266114 0.31129,0.7868082 0.7341,1.4817011 1.26845,2.0846801 0.0294,0.04412 0.0441,0.08824 0.0441,0.13236 0,0.107846 -0.0613,0.178928 -0.18383,0.213248 l -0.2206,0 c -0.049,-0.0098 -0.0956,-0.02942 -0.13972,-0.05883 z"
         id="path3406"
         style="font-size:15.05969715px;font-style:normal;font-variant:normal;font-weight:normal;font-stretch:normal;text-align:start;text-anchor:start;fill:#ffffff;stroke:none;font-family:cmb10;-inkscape-font-specification:cmb10" />
    </g>
    <g
       id="text4437"
       style="font-size:13.80000019px;font-style:normal;font-variant:normal;font-weight:normal;font-stretch:normal;text-align:start;text-anchor:start;fill:#ffffff;stroke:none;font-family:cmr10;-inkscape-font-specification:cmr10">
      <path
         d="m 240.37651,3.9862251 c 0,-0.3279304 0.11905,-0.6143071 0.35713,-0.8591308 0.23809,-0.2448242 0.5211,-0.4188963 0.84903,-0.5222168 -0.18419,-0.1392574 -0.32457,-0.3144525 -0.42115,-0.525586 -0.0966,-0.2111318 -0.14487,-0.4357409 -0.14487,-0.6738281 0,-0.43124808 0.13701,-0.81308364 0.41104,-1.14550784 -0.42227,-0.41327819 -0.6334,-0.88720351 -0.6334,-1.42177736 0,-0.2874956 0.0618,-0.5570266 0.1853,-0.8085938 0.12353,-0.2515573 0.29536,-0.4694282 0.51548,-0.6536133 0.22011,-0.1841739 0.46494,-0.3245546 0.73447,-0.4211425 0.26953,-0.096576 0.5458,-0.144867 0.82881,-0.1448731 0.54804,6.1e-6 1.03994,0.1594786 1.47568,0.478418 0.18867,-0.2021426 0.41216,-0.358246 0.67046,-0.4683106 0.2583,-0.1100524 0.52671,-0.1650816 0.80523,-0.1650879 0.19765,6.3e-6 0.35937,0.070758 0.48515,0.2122559 0.12578,0.1415098 0.18867,0.3110897 0.18868,0.5087402 -1e-5,0.1123102 -0.0427,0.2111382 -0.12803,0.2964844 -0.0854,0.085357 -0.18419,0.1280325 -0.29649,0.1280274 -0.1168,5.1e-6 -0.21787,-0.042671 -0.30322,-0.1280274 -0.0854,-0.085346 -0.12803,-0.1841742 -0.12803,-0.2964844 0,-0.1706974 0.0562,-0.2897402 0.16846,-0.3571289 -0.47618,5.9e-6 -0.88497,0.1639706 -1.22637,0.4918946 0.16621,0.1662161 0.29985,0.3694874 0.40093,0.6098144 0.10107,0.2403366 0.15161,0.4795454 0.15161,0.717627 0,0.39082399 -0.10782,0.74233732 -0.32344,1.05454103 -0.21563,0.31220974 -0.49976,0.55478762 -0.85239,0.72773438 -0.35264,0.17295134 -0.71538,0.25942586 -1.08823,0.25942383 -0.50313,2.03e-6 -0.96358,-0.13700955 -1.38135,-0.41103516 -0.13027,0.17968976 -0.19541,0.381838 -0.19541,0.60644532 0,0.2425797 0.0797,0.4548354 0.23921,0.6367676 0.15947,0.1819346 0.3605,0.2729013 0.60308,0.2729004 l 1.13203,0 c 0.54804,9e-7 1.04218,0.049415 1.48242,0.1482422 0.44023,0.098829 0.80971,0.2964848 1.10845,0.5929687 0.29872,0.2964843 0.44809,0.7165034 0.44809,1.2600586 0,0.4042954 -0.17071,0.7400861 -0.51211,1.0073731 -0.34141,0.2672828 -0.74907,0.4604467 -1.22299,0.5794922 -0.47393,0.1190402 -0.91305,0.1785616 -1.31734,0.1785645 -0.40879,-2.9e-6 -0.85127,-0.059524 -1.32744,-0.1785645 -0.47617,-0.1190455 -0.88496,-0.3122094 -1.22637,-0.5794922 -0.3414,-0.267287 -0.51211,-0.6030777 -0.51211,-1.0073731 z m 0.77491,0 c -1e-5,0.3099596 0.12578,0.5693832 0.37734,0.7782715 0.25156,0.2088847 0.55478,0.363865 0.90967,0.4649415 0.35488,0.1010717 0.68955,0.1516088 1.004,0.1516113 0.30996,-2.5e-6 0.64238,-0.05054 0.99727,-0.1516113 0.35488,-0.1010765 0.65697,-0.2560568 0.9063,-0.4649415 0.24931,-0.2088883 0.37397,-0.4683119 0.37397,-0.7782715 0,-0.4806646 -0.22012,-0.7917483 -0.66035,-0.9332519 -0.44024,-0.1415039 -0.97481,-0.2122558 -1.60371,-0.2122559 l -1.13203,0 c -0.21114,10e-8 -0.40542,0.050537 -0.58286,0.1516113 -0.17745,0.1010741 -0.32007,0.2425778 -0.42789,0.4245118 -0.10781,0.1819329 -0.16172,0.3717276 -0.16171,0.5693847 z m 1.90693,-3.47695313 c 0.78164,2.4e-6 1.17246,-0.5570283 1.17246,-1.67109377 0,-0.4806595 -0.0831,-0.8770947 -0.24932,-1.1893067 -0.16621,-0.3122014 -0.47393,-0.4683048 -0.92314,-0.4683105 -0.44922,5.7e-6 -0.75694,0.1561091 -0.92314,0.4683105 -0.16622,0.312212 -0.24932,0.7086472 -0.24932,1.1893067 0,0.30547252 0.0314,0.58174177 0.0943,0.8288086 0.0629,0.24707331 0.17969,0.44922155 0.3504,0.60644532 0.1707,0.15722905 0.41327,0.23584225 0.72773,0.23583985 z"
         id="path3409"
         style="font-size:13.80000019px;font-style:normal;font-variant:normal;font-weight:normal;font-stretch:normal;text-align:start;text-anchor:start;fill:#ffffff;stroke:none;font-family:cmr10;-inkscape-font-specification:cmr10" />
      <path
         d="m 247.24956,2.9081001 0,-0.4851562 c 0.31445,5e-7 0.57275,-0.024707 0.7749,-0.074121 0.20215,-0.049413 0.30322,-0.1707024 0.30323,-0.3638672 l 0,-3.7666993 c -1e-5,-0.2470654 -0.0371,-0.4256296 -0.11119,-0.5356934 -0.0741,-0.1100532 -0.18081,-0.177436 -0.32006,-0.2021484 -0.13926,-0.024702 -0.35489,-0.037055 -0.64688,-0.037061 l 0,-0.4851563 1.97432,-0.1482422 0,1.3476563 c 0.14824,-0.3997996 0.35937,-0.7243598 0.6334,-0.9736817 0.27402,-0.2493104 0.60644,-0.3739685 0.99726,-0.3739746 0.27402,6.1e-6 0.51884,0.080865 0.73447,0.2425781 0.21562,0.1617245 0.32344,0.3751032 0.32344,0.6401368 0,0.166216 -0.0595,0.3110889 -0.17856,0.4346191 -0.11905,0.1235398 -0.26617,0.1853073 -0.44136,0.1853028 -0.17071,4.5e-6 -0.3167,-0.06064 -0.43799,-0.1819336 -0.12129,-0.1212842 -0.18194,-0.2672802 -0.18193,-0.4379883 -1e-5,-0.2470649 0.0876,-0.42226 0.26279,-0.525586 l -0.0809,0 c -0.37285,5.8e-6 -0.6772,0.1347713 -0.91304,0.4042969 -0.23584,0.2695363 -0.40317,0.604204 -0.502,1.0040039 -0.0988,0.3998087 -0.14824,0.78164421 -0.14824,1.14550785 l 0,2.26406255 c 0,0.2919928 0.44697,0.4379888 1.34092,0.4379883 l 0,0.4851562 z"
         id="path3411"
         style="font-size:13.80000019px;font-style:normal;font-variant:normal;font-weight:normal;font-stretch:normal;text-align:start;text-anchor:start;fill:#ffffff;stroke:none;font-family:cmr10;-inkscape-font-specification:cmr10" />
      <path
         d="m 252.8356,1.5537056 c -1e-5,-0.548045 0.21562,-0.99389417 0.64687,-1.33754887 0.43125,-0.34364931 0.94897,-0.5862272 1.55317,-0.72773438 0.6042,-0.14150035 1.17808,-0.21225223 1.72164,-0.21225587 l 0,-0.56601558 c -10e-6,-0.2650347 -0.0584,-0.5222121 -0.1752,-0.7715333 -0.1168,-0.2493112 -0.28526,-0.4537055 -0.50537,-0.6131836 -0.22012,-0.1594669 -0.4627,-0.2392031 -0.72774,-0.239209 -0.61094,5.9e-6 -1.07588,0.1370175 -1.39482,0.4110352 0.17519,5.4e-6 0.32007,0.066265 0.43462,0.1987793 0.11455,0.1325246 0.17182,0.2863819 0.17183,0.4615723 -1e-5,0.1841842 -0.0651,0.3414106 -0.19541,0.4716797 -0.13028,0.1302776 -0.28526,0.1954142 -0.46495,0.1954101 -0.18418,4.1e-6 -0.3414,-0.065133 -0.47168,-0.1954101 -0.13027,-0.1302691 -0.19541,-0.2874955 -0.19541,-0.4716797 0,-0.485151 0.22012,-0.8456487 0.66036,-1.0814942 0.44023,-0.2358338 0.92538,-0.3537536 1.45546,-0.3537597 0.37285,6.1e-6 0.74795,0.079742 1.1253,0.2392089 0.37734,0.1594785 0.68617,0.3874568 0.92651,0.6839356 0.24033,0.2964893 0.36049,0.6423874 0.3605,1.0376953 l 0,3.1063477 c -10e-6,0.1796885 0.0382,0.3447762 0.11455,0.4952637 0.0764,0.1504888 0.1954,0.2257328 0.35713,0.2257324 0.15273,4e-7 0.26615,-0.076367 0.34028,-0.2291015 0.0741,-0.1527336 0.11118,-0.3166983 0.11118,-0.4918946 l 0,-0.88271483 0.4043,0 0,0.88271483 c -1e-5,0.2066416 -0.0539,0.4031746 -0.16172,0.5895996 -0.10782,0.1864262 -0.25269,0.3346682 -0.43462,0.4447266 -0.18194,0.1100586 -0.37847,0.1650878 -0.5896,0.1650879 -0.26953,-10e-8 -0.502,-0.1044433 -0.69741,-0.3133301 -0.19541,-0.2088863 -0.30435,-0.4570794 -0.32681,-0.7445801 -0.1707,0.3458991 -0.42227,0.6210453 -0.75468,0.8254395 -0.33243,0.2043945 -0.68731,0.3065916 -1.06465,0.3065918 -0.35039,-2e-7 -0.69517,-0.05166 -1.03433,-0.1549805 -0.33916,-0.1033202 -0.62217,-0.2661618 -0.84902,-0.4885254 -0.22686,-0.2223625 -0.34029,-0.5109853 -0.34028,-0.8658691 z m 1.11855,0 c 0,0.3234385 0.11904,0.5952156 0.35713,0.815332 0.23808,0.2201175 0.51884,0.330176 0.84228,0.3301758 0.29649,2e-7 0.56602,-0.074121 0.8086,-0.2223633 0.24257,-0.1482416 0.43574,-0.3503898 0.57949,-0.6064453 0.14375,-0.2560534 0.21562,-0.5255844 0.21563,-0.8085938 l 0,-1.43525389 c -0.41778,3.29e-6 -0.84566,0.0685091 -1.28365,0.20551759 -0.43799,0.13701465 -0.80073,0.3515164 -1.08823,0.64350586 -0.2875,0.29199434 -0.43125,0.65136894 -0.43125,1.07812504 z"
         id="path3413"
         style="font-size:13.80000019px;font-style:normal;font-variant:normal;font-weight:normal;font-stretch:normal;text-align:start;text-anchor:start;fill:#ffffff;stroke:none;font-family:cmr10;-inkscape-font-specification:cmr10" />
      <path
         d="m 259.59409,2.9081001 0,-0.4851562 c 0.31445,5e-7 0.57275,-0.024707 0.7749,-0.074121 0.20215,-0.049413 0.30322,-0.1707024 0.30323,-0.3638672 l 0,-3.7666993 c -10e-6,-0.2470654 -0.0371,-0.4256296 -0.11119,-0.5356934 -0.0741,-0.1100532 -0.18081,-0.177436 -0.32006,-0.2021484 -0.13926,-0.024702 -0.35489,-0.037055 -0.64688,-0.037061 l 0,-0.4851563 2.00127,-0.1482422 0,1.3476563 c 0.18418,-0.3953074 0.45708,-0.7187446 0.8187,-0.9703125 0.36162,-0.2515566 0.75581,-0.3773377 1.18257,-0.3773438 1.06015,6.1e-6 1.68232,0.4312557 1.8665,1.29375 0.18418,-0.3863229 0.45371,-0.6985296 0.8086,-0.9366211 0.35487,-0.2380799 0.74345,-0.3571228 1.16572,-0.3571289 0.41777,6.1e-6 0.76928,0.067389 1.05454,0.2021485 0.28525,0.1347713 0.49975,0.3402887 0.64351,0.6165527 0.14374,0.2762745 0.21561,0.6232957 0.21562,1.0410645 l 0,3.3152344 c -10e-6,0.1931648 0.10219,0.3144537 0.30659,0.3638672 0.20439,0.049414 0.46157,0.074122 0.77154,0.074121 l 0,0.4851562 -3.16026,0 0,-0.4851562 c 0.31445,5e-7 0.57275,-0.024707 0.77491,-0.074121 0.20214,-0.049413 0.30321,-0.1707024 0.30322,-0.3638672 l 0,-3.2748047 c -1e-5,-0.4626907 -0.0652,-0.8355419 -0.19541,-1.1185548 -0.13028,-0.2830022 -0.39757,-0.4245059 -0.80186,-0.4245117 -0.53008,5.8e-6 -0.96807,0.2133845 -1.31396,0.6401368 -0.34591,0.4267624 -0.51886,0.9119182 -0.51885,1.45546872 l 0,2.72226568 c -1e-5,0.1931648 0.10107,0.3144537 0.30322,0.3638672 0.20214,0.049414 0.46045,0.074122 0.77491,0.074121 l 0,0.4851562 -3.16026,0 0,-0.4851562 c 0.31445,5e-7 0.57275,-0.024707 0.7749,-0.074121 0.20215,-0.049413 0.30322,-0.1707024 0.30323,-0.3638672 l 0,-3.2748047 c -10e-6,-0.4492142 -0.0652,-0.8186962 -0.19541,-1.1084473 -0.13028,-0.2897405 -0.39757,-0.4346134 -0.80186,-0.4346192 -0.53457,5.8e-6 -0.97368,0.2133845 -1.31733,0.6401368 -0.34366,0.4267624 -0.51548,0.9119182 -0.51548,1.45546872 l 0,2.72226568 c 0,0.1931648 0.10107,0.3144537 0.30322,0.3638672 0.20215,0.049414 0.4582,0.074122 0.76816,0.074121 l 0,0.4851562 z"
         id="path3415"
         style="font-size:13.80000019px;font-style:normal;font-variant:normal;font-weight:normal;font-stretch:normal;text-align:start;text-anchor:start;fill:#ffffff;stroke:none;font-family:cmr10;-inkscape-font-specification:cmr10" />
      <path
         d="m 275.71206,2.9081001 0,-0.4851562 c 0.31445,5e-7 0.57275,-0.024707 0.7749,-0.074121 0.20215,-0.049413 0.30322,-0.1707024 0.30323,-0.3638672 l 0,-3.7666993 c -10e-6,-0.2470654 -0.0371,-0.4256296 -0.11119,-0.5356934 -0.0741,-0.1100532 -0.18081,-0.177436 -0.32006,-0.2021484 -0.13926,-0.024702 -0.35489,-0.037055 -0.64688,-0.037061 l 0,-0.4851563 2.00127,-0.1482422 0,1.3476563 c 0.18418,-0.3953074 0.45708,-0.7187446 0.8187,-0.9703125 0.36162,-0.2515566 0.75581,-0.3773377 1.18257,-0.3773438 1.06015,6.1e-6 1.68232,0.4312557 1.8665,1.29375 0.18418,-0.3863229 0.45371,-0.6985296 0.8086,-0.9366211 0.35487,-0.2380799 0.74345,-0.3571228 1.16572,-0.3571289 0.41776,6.1e-6 0.76928,0.067389 1.05454,0.2021485 0.28525,0.1347713 0.49975,0.3402887 0.64351,0.6165527 0.14374,0.2762745 0.21561,0.6232957 0.21562,1.0410645 l 0,3.3152344 c -10e-6,0.1931648 0.10219,0.3144537 0.30659,0.3638672 0.20439,0.049414 0.46157,0.074122 0.77154,0.074121 l 0,0.4851562 -3.16026,0 0,-0.4851562 c 0.31445,5e-7 0.57275,-0.024707 0.77491,-0.074121 0.20213,-0.049413 0.30321,-0.1707024 0.30322,-0.3638672 l 0,-3.2748047 c -10e-6,-0.4626907 -0.0651,-0.8355419 -0.19541,-1.1185548 -0.13028,-0.2830022 -0.39757,-0.4245059 -0.80186,-0.4245117 -0.53008,5.8e-6 -0.96807,0.2133845 -1.31396,0.6401368 -0.34591,0.4267624 -0.51886,0.9119182 -0.51885,1.45546872 l 0,2.72226568 c -1e-5,0.1931648 0.10107,0.3144537 0.30322,0.3638672 0.20214,0.049414 0.46044,0.074122 0.7749,0.074121 l 0,0.4851562 -3.16025,0 0,-0.4851562 c 0.31445,5e-7 0.57275,-0.024707 0.7749,-0.074121 0.20215,-0.049413 0.30322,-0.1707024 0.30323,-0.3638672 l 0,-3.2748047 c -1e-5,-0.4492142 -0.0652,-0.8186962 -0.19541,-1.1084473 -0.13028,-0.2897405 -0.39757,-0.4346134 -0.80186,-0.4346192 -0.53457,5.8e-6 -0.97368,0.2133845 -1.31733,0.6401368 -0.34366,0.4267624 -0.51548,0.9119182 -0.51548,1.45546872 l 0,2.72226568 c 0,0.1931648 0.10107,0.3144537 0.30322,0.3638672 0.20215,0.049414 0.4582,0.074122 0.76816,0.074121 l 0,0.4851562 z"
         id="path3417"
         style="font-size:13.80000019px;font-style:normal;font-variant:normal;font-weight:normal;font-stretch:normal;text-align:start;text-anchor:start;fill:#ffffff;stroke:none;font-family:cmr10;-inkscape-font-specification:cmr10" />
      <path
         d="m 290.26001,3.0630806 c -0.55254,-2e-7 -1.06465,-0.1403809 -1.53633,-0.4211426 -0.47168,-0.2807612 -0.84453,-0.6569815 -1.11855,-1.1286621 -0.27403,-0.4716778 -0.41104,-0.9860328 -0.41104,-1.54306644 0,-0.42226227 0.0752,-0.82880484 0.22573,-1.21962896 0.15049,-0.3908157 0.36612,-0.740083 0.64688,-1.0478027 0.28076,-0.3077093 0.60756,-0.5480411 0.98042,-0.7209961 0.37285,-0.1729431 0.77714,-0.2594177 1.21289,-0.2594238 0.56601,6.1e-6 1.08149,0.1493712 1.54643,0.4480957 0.46494,0.2987359 0.83218,0.6985402 1.10171,1.199414 0.26953,0.500883 0.40429,1.03432973 0.4043,1.60034186 -1e-5,0.55254146 -0.13702,1.06577334 -0.41103,1.53969724 -0.27403,0.4739268 -0.64576,0.8512701 -1.11519,1.1320313 -0.46944,0.2807617 -0.97818,0.4211424 -1.52622,0.4211426 z m 0,-0.4042969 c 0.73671,3e-7 1.22861,-0.2672846 1.47568,-0.8018555 0.24707,-0.5345687 0.3706,-1.21513443 0.37061,-2.04169921 -10e-6,-0.46269176 -0.0247,-0.84565039 -0.0741,-1.14887699 -0.0494,-0.3032181 -0.15723,-0.5783643 -0.32344,-0.8254394 -0.10333,-0.1527292 -0.23472,-0.2863716 -0.39419,-0.4009278 -0.15948,-0.1145452 -0.32793,-0.2021428 -0.50537,-0.262793 -0.17745,-0.060639 -0.3605,-0.090961 -0.54917,-0.090967 -0.2875,5.9e-6 -0.5604,0.065142 -0.8187,0.1954102 -0.25831,0.1302789 -0.47281,0.3167045 -0.64351,0.5592774 -0.1707,0.2605516 -0.27964,0.5469283 -0.3268,0.8591308 -0.0472,0.31221096 -0.0708,0.68393911 -0.0708,1.11518559 0,0.51660415 0.0449,0.98042205 0.13477,1.39145511 0.0898,0.4110364 0.27065,0.7558115 0.54243,1.0343262 0.27178,0.278516 0.66596,0.4177737 1.18257,0.4177734 z"
         id="path3419"
         style="font-size:13.80000019px;font-style:normal;font-variant:normal;font-weight:normal;font-stretch:normal;text-align:start;text-anchor:start;fill:#ffffff;stroke:none;font-family:cmr10;-inkscape-font-specification:cmr10" />
      <path
         d="m 294.13452,2.9081001 0,-0.4851562 c 0.31445,5e-7 0.57276,-0.024707 0.7749,-0.074121 0.20215,-0.049413 0.30323,-0.1707024 0.30323,-0.3638672 l 0,-7.2436525 c 0,-0.2470619 -0.0371,-0.4256261 -0.11118,-0.5356933 -0.0741,-0.1100498 -0.18082,-0.1774326 -0.32007,-0.2021485 -0.13926,-0.024698 -0.35489,-0.037052 -0.64688,-0.03706 l 0,-0.4851563 2.04844,-0.1482422 0,8.6519533 c 0,0.1931648 0.10107,0.3144537 0.30322,0.3638672 0.20215,0.049414 0.4582,0.074122 0.76817,0.074121 l 0,0.4851562 z"
         id="path3421"
         style="font-size:13.80000019px;font-style:normal;font-variant:normal;font-weight:normal;font-stretch:normal;text-align:start;text-anchor:start;fill:#ffffff;stroke:none;font-family:cmr10;-inkscape-font-specification:cmr10" />
      <path
         d="m 300.97388,3.0630806 c -0.56153,-2e-7 -1.07701,-0.1471192 -1.54644,-0.4413574 -0.46943,-0.2942377 -0.83779,-0.6873038 -1.10508,-1.1791993 -0.26728,-0.49189254 -0.40092,-1.01186273 -0.40092,-1.55991209 0,-0.53905895 0.12241,-1.05116781 0.36723,-1.53632811 0.24483,-0.4851513 0.58623,-0.8770942 1.02422,-1.1758301 0.43799,-0.2987245 0.92651,-0.4480896 1.46558,-0.4480957 0.42226,6.1e-6 0.78949,0.070758 1.10171,0.2122558 0.3122,0.1415098 0.56938,0.3380428 0.77153,0.5895996 0.20214,0.2515677 0.35488,0.5480518 0.4582,0.8894532 0.10332,0.3414104 0.15498,0.71650767 0.15498,1.12529296 0,0.12129231 -0.0472,0.18193678 -0.1415,0.18193359 l -3.9958,0 0,0.14824219 c 0,0.76367416 0.15385,1.41953286 0.46157,1.96757816 0.30771,0.5480474 0.80971,0.8220706 1.50601,0.8220703 0.283,3e-7 0.54467,-0.06289 0.78501,-0.1886719 0.24032,-0.1257806 0.44921,-0.3009758 0.62666,-0.5255859 0.17743,-0.2246082 0.2976,-0.46494 0.36049,-0.7209961 0.009,-0.031444 0.0258,-0.05952 0.0505,-0.084228 0.0247,-0.024705 0.0528,-0.037059 0.0842,-0.037061 l 0.12129,0 c 0.0943,1.8e-6 0.1415,0.0584 0.1415,0.1751953 -0.13028,0.5210949 -0.41104,0.9489753 -0.84228,1.2836426 -0.43126,0.334668 -0.91417,0.5020018 -1.44873,0.502002 z m -1.83282,-3.6858399 3.14678,0 c 0,-0.34589456 -0.0483,-0.6962848 -0.14487,-1.0511719 -0.0966,-0.3548779 -0.25718,-0.6502389 -0.48179,-0.886084 -0.22461,-0.2358341 -0.51885,-0.3537539 -0.88271,-0.3537598 -0.5211,5.9e-6 -0.92427,0.2437068 -1.20952,0.7311036 -0.28526,0.4874069 -0.42789,1.0073771 -0.42789,1.5599121 z"
         id="path3423"
         style="font-size:13.80000019px;font-style:normal;font-variant:normal;font-weight:normal;font-stretch:normal;text-align:start;text-anchor:start;fill:#ffffff;stroke:none;font-family:cmr10;-inkscape-font-specification:cmr10" />
      <path
         d="m 307.09224,3.0630806 c -0.55704,-2e-7 -1.06241,-0.1448731 -1.51612,-0.4346191 -0.45371,-0.2897456 -0.81084,-0.6760733 -1.07138,-1.1589844 -0.26055,-0.48290828 -0.39083,-0.9961402 -0.39082,-1.53969733 -1e-5,-0.54355117 0.12915,-1.06464437 0.38745,-1.56328127 0.2583,-0.4986278 0.61542,-0.897309 1.07138,-1.1960449 0.45596,-0.2987245 0.96245,-0.4480896 1.51949,-0.4480957 0.53905,6.1e-6 1.02983,0.1055724 1.47231,0.3166992 0.44248,0.2111385 0.66372,0.5570365 0.66372,1.0376953 0,0.1796922 -0.064,0.3357955 -0.19204,0.4683106 -0.12803,0.1325237 -0.28414,0.1987834 -0.46831,0.1987793 -0.18419,4.1e-6 -0.34029,-0.066256 -0.46831,-0.1987793 -0.12803,-0.1325151 -0.19205,-0.2886184 -0.19204,-0.4683106 -1e-5,-0.1617138 0.0516,-0.3020945 0.15498,-0.4211426 0.10331,-0.1190376 0.23134,-0.1942816 0.38408,-0.2257324 -0.31895,-0.2021428 -0.76592,-0.3032169 -1.34092,-0.3032227 -0.44024,5.8e-6 -0.79512,0.1460018 -1.06465,0.4379883 -0.26953,0.2919973 -0.4582,0.653618 -0.56601,1.0848633 -0.10782,0.43125385 -0.16172,0.85801124 -0.16172,1.28027347 0,0.44472911 0.0663,0.87485564 0.19878,1.29038093 0.13252,0.4155286 0.34589,0.7591806 0.64014,1.030957 0.29423,0.2717777 0.66371,0.4076663 1.10844,0.407666 0.43574,3e-7 0.80635,-0.1336422 1.11182,-0.4009277 0.30546,-0.2672843 0.51435,-0.6165515 0.62666,-1.0478028 -10e-6,-0.053905 0.0359,-0.080858 0.10781,-0.080859 l 0.16846,0 c 0.0269,1.7e-6 0.0516,0.012355 0.0741,0.03706 0.0225,0.024709 0.0337,0.052785 0.0337,0.084229 l 0,0.04043 c -0.13926,0.5435558 -0.41553,0.9748053 -0.82881,1.29375 -0.41328,0.3189453 -0.90068,0.4784178 -1.4622,0.478418 z"
         id="path3425"
         style="font-size:13.80000019px;font-style:normal;font-variant:normal;font-weight:normal;font-stretch:normal;text-align:start;text-anchor:start;fill:#ffffff;stroke:none;font-family:cmr10;-inkscape-font-specification:cmr10" />
      <path
         d="m 311.26323,1.2639595 0,-3.0457032 c 0,-0.2470654 -0.0371,-0.4256296 -0.11118,-0.5356934 -0.0741,-0.1100532 -0.18081,-0.177436 -0.32007,-0.2021484 -0.13926,-0.024702 -0.35488,-0.037055 -0.64687,-0.037061 l 0,-0.4851563 2.08886,-0.1482422 0,4.454004 c 0,0.3593763 0.0258,0.6390147 0.0775,0.838916 0.0517,0.199903 0.16172,0.349268 0.33018,0.4480957 0.16845,0.098828 0.43686,0.1482424 0.80522,0.1482422 0.49414,2e-7 0.88721,-0.2066402 1.1792,-0.6199219 0.29199,-0.41328 0.43799,-0.8827131 0.43799,-1.40830078 l 0,-2.45273442 c 0,-0.2470654 -0.0382,-0.4256296 -0.11455,-0.5356934 -0.0764,-0.1100532 -0.18306,-0.177436 -0.32007,-0.2021484 -0.13701,-0.024702 -0.35152,-0.037055 -0.6435,-0.037061 l 0,-0.4851563 2.08213,-0.1482422 0,4.8448243 c -10e-6,0.2425791 0.037,0.4188973 0.11118,0.5289551 0.0741,0.1100592 0.1808,0.1774419 0.32007,0.2021484 0.13925,0.024708 0.35487,0.037061 0.64687,0.037061 l 0,0.4851562 -2.0417,0.1549805 0,-1.1657227 c -0.17071,0.3458991 -0.40879,0.6266606 -0.71426,0.8422852 -0.30547,0.215625 -0.64238,0.3234373 -1.01074,0.3234375 -0.66035,-2e-7 -1.18482,-0.1403809 -1.57339,-0.4211426 -0.38857,-0.2807612 -0.58286,-0.7400869 -0.58286,-1.3779785 z"
         id="path3427"
         style="font-size:13.80000019px;font-style:normal;font-variant:normal;font-weight:normal;font-stretch:normal;text-align:start;text-anchor:start;fill:#ffffff;stroke:none;font-family:cmr10;-inkscape-font-specification:cmr10" />
      <path
         d="m 317.85328,2.9081001 0,-0.4851562 c 0.31445,5e-7 0.57275,-0.024707 0.7749,-0.074121 0.20215,-0.049413 0.30322,-0.1707024 0.30322,-0.3638672 l 0,-7.2436525 c 0,-0.2470619 -0.0371,-0.4256261 -0.11118,-0.5356933 -0.0741,-0.1100498 -0.18081,-0.1774326 -0.32007,-0.2021485 -0.13926,-0.024698 -0.35488,-0.037052 -0.64687,-0.03706 l 0,-0.4851563 2.04843,-0.1482422 0,8.6519533 c 0,0.1931648 0.10108,0.3144537 0.30323,0.3638672 0.20214,0.049414 0.4582,0.074122 0.76816,0.074121 l 0,0.4851562 z"
         id="path3429"
         style="font-size:13.80000019px;font-style:normal;font-variant:normal;font-weight:normal;font-stretch:normal;text-align:start;text-anchor:start;fill:#ffffff;stroke:none;font-family:cmr10;-inkscape-font-specification:cmr10" />
      <path
         d="m 321.80864,1.5537056 c 0,-0.548045 0.21563,-0.99389417 0.64688,-1.33754887 0.43125,-0.34364931 0.94897,-0.5862272 1.55317,-0.72773438 0.6042,-0.14150035 1.17807,-0.21225223 1.72163,-0.21225587 l 0,-0.56601558 c 0,-0.2650347 -0.0584,-0.5222121 -0.17519,-0.7715333 -0.1168,-0.2493112 -0.28526,-0.4537055 -0.50537,-0.6131836 -0.22012,-0.1594669 -0.4627,-0.2392031 -0.72774,-0.239209 -0.61094,5.9e-6 -1.07588,0.1370175 -1.39482,0.4110352 0.17519,5.4e-6 0.32006,0.066265 0.43462,0.1987793 0.11454,0.1325246 0.17182,0.2863819 0.17182,0.4615723 0,0.1841842 -0.0651,0.3414106 -0.19541,0.4716797 -0.13027,0.1302776 -0.28525,0.1954142 -0.46494,0.1954101 -0.18418,4.1e-6 -0.34141,-0.065133 -0.47168,-0.1954101 -0.13027,-0.1302691 -0.19541,-0.2874955 -0.19541,-0.4716797 0,-0.485151 0.22012,-0.8456487 0.66035,-1.0814942 0.44024,-0.2358338 0.92539,-0.3537536 1.45547,-0.3537597 0.37285,6.1e-6 0.74795,0.079742 1.12529,0.2392089 0.37734,0.1594785 0.68618,0.3874568 0.92652,0.6839356 0.24032,0.2964893 0.36049,0.6423874 0.3605,1.0376953 l 0,3.1063477 c -10e-6,0.1796885 0.0382,0.3447762 0.11455,0.4952637 0.0764,0.1504888 0.1954,0.2257328 0.35713,0.2257324 0.15272,4e-7 0.26615,-0.076367 0.34028,-0.2291015 0.0741,-0.1527336 0.11117,-0.3166983 0.11118,-0.4918946 l 0,-0.88271483 0.4043,0 0,0.88271483 c -1e-5,0.2066416 -0.0539,0.4031746 -0.16172,0.5895996 -0.10782,0.1864262 -0.25269,0.3346682 -0.43462,0.4447266 -0.18194,0.1100586 -0.37847,0.1650878 -0.5896,0.1650879 -0.26954,-10e-8 -0.50201,-0.1044433 -0.69741,-0.3133301 -0.19542,-0.2088863 -0.30435,-0.4570794 -0.32681,-0.7445801 -0.17071,0.3458991 -0.42227,0.6210453 -0.75469,0.8254395 -0.33242,0.2043945 -0.6873,0.3065916 -1.06464,0.3065918 -0.3504,-2e-7 -0.69517,-0.05166 -1.03433,-0.1549805 -0.33916,-0.1033202 -0.62217,-0.2661618 -0.84902,-0.4885254 -0.22686,-0.2223625 -0.34029,-0.5109853 -0.34029,-0.8658691 z m 1.11856,0 c 0,0.3234385 0.11904,0.5952156 0.35713,0.815332 0.23808,0.2201175 0.51884,0.330176 0.84228,0.3301758 0.29648,2e-7 0.56601,-0.074121 0.8086,-0.2223633 0.24257,-0.1482416 0.43573,-0.3503898 0.57949,-0.6064453 0.14374,-0.2560534 0.21562,-0.5255844 0.21562,-0.8085938 l 0,-1.43525389 c -0.41778,3.29e-6 -0.84566,0.0685091 -1.28364,0.20551759 -0.43799,0.13701465 -0.80074,0.3515164 -1.08823,0.64350586 -0.2875,0.29199434 -0.43125,0.65136894 -0.43125,1.07812504 z"
         id="path3431"
         style="font-size:13.80000019px;font-style:normal;font-variant:normal;font-weight:normal;font-stretch:normal;text-align:start;text-anchor:start;fill:#ffffff;stroke:none;font-family:cmr10;-inkscape-font-specification:cmr10" />
      <path
         d="m 328.51323,2.9081001 0,-0.4851562 c 0.31446,5e-7 0.57276,-0.024707 0.77491,-0.074121 0.20214,-0.049413 0.30322,-0.1707024 0.30322,-0.3638672 l 0,-3.7666993 c 0,-0.2470654 -0.0371,-0.4256296 -0.11118,-0.5356934 -0.0741,-0.1100532 -0.18081,-0.177436 -0.32007,-0.2021484 -0.13926,-0.024702 -0.35488,-0.037055 -0.64688,-0.037061 l 0,-0.4851563 1.97432,-0.1482422 0,1.3476563 c 0.14824,-0.3997996 0.35937,-0.7243598 0.6334,-0.9736817 0.27402,-0.2493104 0.60644,-0.3739685 0.99726,-0.3739746 0.27402,6.1e-6 0.51885,0.080865 0.73448,0.2425781 0.21562,0.1617245 0.32343,0.3751032 0.32343,0.6401368 0,0.166216 -0.0595,0.3110889 -0.17856,0.4346191 -0.11905,0.1235398 -0.26617,0.1853073 -0.44136,0.1853028 -0.1707,4.5e-6 -0.3167,-0.06064 -0.43799,-0.1819336 -0.12129,-0.1212842 -0.18193,-0.2672802 -0.18193,-0.4379883 0,-0.2470649 0.0876,-0.42226 0.26279,-0.525586 l -0.0809,0 c -0.37285,5.8e-6 -0.6772,0.1347713 -0.91303,0.4042969 -0.23585,0.2695363 -0.40318,0.604204 -0.502,1.0040039 -0.0988,0.3998087 -0.14825,0.78164421 -0.14825,1.14550785 l 0,2.26406255 c 0,0.2919928 0.44697,0.4379888 1.34092,0.4379883 l 0,0.4851562 z"
         id="path3433"
         style="font-size:13.80000019px;font-style:normal;font-variant:normal;font-weight:normal;font-stretch:normal;text-align:start;text-anchor:start;fill:#ffffff;stroke:none;font-family:cmr10;-inkscape-font-specification:cmr10" />
      <path
         d="m 341.20816,2.9081001 -1.78565,-5.0200196 c -0.0809,-0.2021432 -0.19765,-0.3268013 -0.35039,-0.3739746 -0.15273,-0.047163 -0.3751,-0.070747 -0.66709,-0.070752 l 0,-0.4851563 2.84356,0 0,0.4851563 c -0.54356,5.4e-6 -0.81534,0.1145561 -0.81533,0.3436523 0.004,0.013482 0.008,0.026958 0.0101,0.04043 0.002,0.013482 0.003,0.033696 0.003,0.060644 l 1.32744,3.7195313 1.14551,-3.2411133 -0.18193,-0.478418 c -0.0719,-0.2021432 -0.18643,-0.3268013 -0.34366,-0.3739746 -0.15723,-0.047163 -0.37959,-0.070747 -0.66708,-0.070752 l 0,-0.4851563 2.72226,0 0,0.4851563 c -0.54356,5.4e-6 -0.81534,0.1145561 -0.81533,0.3436523 -1e-5,0.035943 0.004,0.069634 0.0135,0.1010742 l 1.38134,3.8879884 1.25332,-3.5173829 c 0.018,-0.07187 0.0269,-0.1370069 0.027,-0.1954102 -1e-5,-0.193159 -0.082,-0.3447702 -0.24595,-0.4548339 -0.16397,-0.1100532 -0.34703,-0.1650825 -0.54917,-0.1650879 l 0,-0.4851563 2.34492,0 0,0.4851563 c -0.27852,5.4e-6 -0.51773,0.073003 -0.71763,0.2189941 -0.19991,0.1460012 -0.34703,0.3447803 -0.44135,0.5963379 l -1.64414,4.6494141 c -0.0315,0.1033202 -0.10108,0.1549803 -0.20889,0.1549805 l -0.10781,0 c -0.10782,-2e-7 -0.17745,-0.05166 -0.20889,-0.1549805 l -1.39482,-3.9351563 -1.39483,3.9351563 c -0.0449,0.1033202 -0.1168,0.1549803 -0.21562,0.1549805 l -0.10108,0 c -0.11231,-2e-7 -0.18418,-0.05166 -0.21562,-0.1549805 z"
         id="path3435"
         style="font-size:13.80000019px;font-style:normal;font-variant:normal;font-weight:normal;font-stretch:normal;text-align:start;text-anchor:start;fill:#ffffff;stroke:none;font-family:cmr10;-inkscape-font-specification:cmr10" />
      <path
         d="m 351.5649,3.0630806 c -0.56153,-2e-7 -1.07701,-0.1471192 -1.54644,-0.4413574 -0.46943,-0.2942377 -0.83779,-0.6873038 -1.10508,-1.1791993 -0.26728,-0.49189254 -0.40093,-1.01186273 -0.40093,-1.55991209 0,-0.53905895 0.12242,-1.05116781 0.36724,-1.53632811 0.24482,-0.4851513 0.58623,-0.8770942 1.02422,-1.1758301 0.43799,-0.2987245 0.92651,-0.4480896 1.46558,-0.4480957 0.42226,6.1e-6 0.78949,0.070758 1.1017,0.2122558 0.31221,0.1415098 0.56938,0.3380428 0.77154,0.5895996 0.20214,0.2515677 0.35488,0.5480518 0.4582,0.8894532 0.10332,0.3414104 0.15498,0.71650767 0.15498,1.12529296 0,0.12129231 -0.0472,0.18193678 -0.1415,0.18193359 l -3.9958,0 0,0.14824219 c -1e-5,0.76367416 0.15385,1.41953286 0.46157,1.96757816 0.30771,0.5480474 0.80971,0.8220706 1.506,0.8220703 0.28301,3e-7 0.54468,-0.06289 0.78501,-0.1886719 0.24033,-0.1257806 0.44922,-0.3009758 0.62666,-0.5255859 0.17744,-0.2246082 0.29761,-0.46494 0.3605,-0.7209961 0.009,-0.031444 0.0258,-0.05952 0.0505,-0.084228 0.0247,-0.024705 0.0528,-0.037059 0.0842,-0.037061 l 0.12129,0 c 0.0943,1.8e-6 0.1415,0.0584 0.1415,0.1751953 -0.13028,0.5210949 -0.41104,0.9489753 -0.84228,1.2836426 -0.43126,0.334668 -0.91417,0.5020018 -1.44873,0.502002 z m -1.83282,-3.6858399 3.14678,0 c 0,-0.34589456 -0.0483,-0.6962848 -0.14487,-1.0511719 -0.0966,-0.3548779 -0.25718,-0.6502389 -0.48179,-0.886084 -0.22461,-0.2358341 -0.51885,-0.3537539 -0.88271,-0.3537598 -0.5211,5.9e-6 -0.92427,0.2437068 -1.20953,0.7311036 -0.28525,0.4874069 -0.42788,1.0073771 -0.42788,1.5599121 z"
         id="path3437"
         style="font-size:13.80000019px;font-style:normal;font-variant:normal;font-weight:normal;font-stretch:normal;text-align:start;text-anchor:start;fill:#ffffff;stroke:none;font-family:cmr10;-inkscape-font-specification:cmr10" />
      <path
         d="m 354.67124,2.9081001 0,-0.4851562 c 0.31445,5e-7 0.57275,-0.024707 0.7749,-0.074121 0.20215,-0.049413 0.30322,-0.1707024 0.30322,-0.3638672 l 0,-3.7666993 c 0,-0.3548778 -0.0685,-0.5727486 -0.20551,-0.6536133 -0.13702,-0.080854 -0.40767,-0.1212836 -0.81197,-0.121289 l 0,-0.4851563 1.9878,-0.1482422 0,5.1750001 c -10e-6,0.1931648 0.0876,0.3144537 0.26279,0.3638672 0.17519,0.049414 0.40879,0.074122 0.70078,0.074121 l 0,0.4851562 z m 0.58623,-8.4700196 c 0,-0.2021398 0.0764,-0.379581 0.2291,-0.5323242 0.15273,-0.1527253 0.32793,-0.2290924 0.52559,-0.2291016 0.13027,9.2e-6 0.25605,0.033701 0.37734,0.1010742 0.12129,0.067392 0.21562,0.1617277 0.28301,0.2830078 0.0674,0.1212978 0.10107,0.2470789 0.10107,0.3773438 0,0.1976645 -0.0764,0.3728596 -0.2291,0.5255859 -0.15274,0.1527422 -0.33018,0.2291093 -0.53232,0.2291016 -0.19766,7.7e-6 -0.37286,-0.076359 -0.52559,-0.2291016 -0.15273,-0.1527263 -0.2291,-0.3279214 -0.2291,-0.5255859 z"
         id="path3439"
         style="font-size:13.80000019px;font-style:normal;font-variant:normal;font-weight:normal;font-stretch:normal;text-align:start;text-anchor:start;fill:#ffffff;stroke:none;font-family:cmr10;-inkscape-font-specification:cmr10" />
      <path
         d="m 358.45816,3.9862251 c 0,-0.3279304 0.11904,-0.6143071 0.35712,-0.8591308 0.23809,-0.2448242 0.5211,-0.4188963 0.84903,-0.5222168 -0.18418,-0.1392574 -0.32456,-0.3144525 -0.42114,-0.525586 -0.0966,-0.2111318 -0.14488,-0.4357409 -0.14488,-0.6738281 0,-0.43124808 0.13701,-0.81308364 0.41104,-1.14550784 -0.42227,-0.41327819 -0.6334,-0.88720351 -0.6334,-1.42177736 0,-0.2874956 0.0618,-0.5570266 0.1853,-0.8085938 0.12354,-0.2515573 0.29536,-0.4694282 0.51548,-0.6536133 0.22012,-0.1841739 0.46494,-0.3245546 0.73447,-0.4211425 0.26953,-0.096576 0.5458,-0.144867 0.82881,-0.1448731 0.54805,6.1e-6 1.03994,0.1594786 1.47569,0.478418 0.18866,-0.2021426 0.41215,-0.358246 0.67045,-0.4683106 0.2583,-0.1100524 0.52671,-0.1650816 0.80523,-0.1650879 0.19765,6.3e-6 0.35937,0.070758 0.48516,0.2122559 0.12577,0.1415098 0.18866,0.3110897 0.18867,0.5087402 -1e-5,0.1123102 -0.0427,0.2111382 -0.12803,0.2964844 -0.0854,0.085357 -0.18419,0.1280325 -0.29648,0.1280274 -0.11681,5.1e-6 -0.21788,-0.042671 -0.30323,-0.1280274 -0.0854,-0.085346 -0.12803,-0.1841742 -0.12802,-0.2964844 -10e-6,-0.1706974 0.0561,-0.2897402 0.16845,-0.3571289 -0.47617,5.9e-6 -0.88496,0.1639706 -1.22636,0.4918946 0.1662,0.1662161 0.29984,0.3694874 0.40092,0.6098144 0.10107,0.2403366 0.15161,0.4795454 0.15161,0.717627 0,0.39082399 -0.10781,0.74233732 -0.32343,1.05454103 -0.21563,0.31220974 -0.49976,0.55478762 -0.8524,0.72773438 -0.35264,0.17295134 -0.71538,0.25942586 -1.08823,0.25942383 -0.50313,2.03e-6 -0.96357,-0.13700955 -1.38135,-0.41103516 -0.13027,0.17968976 -0.19541,0.381838 -0.19541,0.60644532 0,0.2425797 0.0797,0.4548354 0.23921,0.6367676 0.15947,0.1819346 0.3605,0.2729013 0.60308,0.2729004 l 1.13203,0 c 0.54804,9e-7 1.04218,0.049415 1.48242,0.1482422 0.44023,0.098829 0.80971,0.2964848 1.10845,0.5929687 0.29872,0.2964843 0.44809,0.7165034 0.4481,1.2600586 -1e-5,0.4042954 -0.17071,0.7400861 -0.51211,1.0073731 -0.34142,0.2672828 -0.74908,0.4604467 -1.223,0.5794922 -0.47393,0.1190402 -0.91304,0.1785616 -1.31734,0.1785645 -0.40879,-2.9e-6 -0.85127,-0.059524 -1.32744,-0.1785645 -0.47617,-0.1190455 -0.88496,-0.3122094 -1.22636,-0.5794922 -0.34141,-0.267287 -0.51211,-0.6030777 -0.51211,-1.0073731 z m 0.7749,0 c 0,0.3099596 0.12578,0.5693832 0.37734,0.7782715 0.25156,0.2088847 0.55479,0.363865 0.90967,0.4649415 0.35488,0.1010717 0.68955,0.1516088 1.004,0.1516113 0.30996,-2.5e-6 0.64238,-0.05054 0.99727,-0.1516113 0.35488,-0.1010765 0.65698,-0.2560568 0.9063,-0.4649415 0.24931,-0.2088883 0.37397,-0.4683119 0.37397,-0.7782715 0,-0.4806646 -0.22012,-0.7917483 -0.66035,-0.9332519 -0.44024,-0.1415039 -0.97481,-0.2122558 -1.60371,-0.2122559 l -1.13203,0 c -0.21114,10e-8 -0.40542,0.050537 -0.58286,0.1516113 -0.17745,0.1010741 -0.32007,0.2425778 -0.42788,0.4245118 -0.10782,0.1819329 -0.16172,0.3717276 -0.16172,0.5693847 z m 1.90693,-3.47695313 c 0.78164,2.4e-6 1.17246,-0.5570283 1.17246,-1.67109377 0,-0.4806595 -0.0831,-0.8770947 -0.24931,-1.1893067 -0.16622,-0.3122014 -0.47393,-0.4683048 -0.92315,-0.4683105 -0.44922,5.7e-6 -0.75693,0.1561091 -0.92314,0.4683105 -0.16622,0.312212 -0.24932,0.7086472 -0.24932,1.1893067 0,0.30547252 0.0314,0.58174177 0.0943,0.8288086 0.0629,0.24707331 0.17968,0.44922155 0.35039,0.60644532 0.1707,0.15722905 0.41328,0.23584225 0.72773,0.23583985 z"
         id="path3441"
         style="font-size:13.80000019px;font-style:normal;font-variant:normal;font-weight:normal;font-stretch:normal;text-align:start;text-anchor:start;fill:#ffffff;stroke:none;font-family:cmr10;-inkscape-font-specification:cmr10" />
      <path
         d="m 365.38511,2.9081001 0,-0.4851562 c 0.31445,5e-7 0.57275,-0.024707 0.7749,-0.074121 0.20215,-0.049413 0.30322,-0.1707024 0.30323,-0.3638672 l 0,-7.2436525 c -10e-6,-0.2470619 -0.0371,-0.4256261 -0.11119,-0.5356933 -0.0741,-0.1100498 -0.18081,-0.1774326 -0.32006,-0.2021485 -0.13926,-0.024698 -0.35489,-0.037052 -0.64688,-0.03706 l 0,-0.4851563 2.04844,-0.1482422 0,4.7437501 c 0.19316,-0.3818307 0.46269,-0.6884222 0.80859,-0.9197754 0.3459,-0.2313417 0.72773,-0.3470154 1.14551,-0.3470215 0.63789,6.1e-6 1.11743,0.1527403 1.43862,0.4582031 0.32119,0.3054741 0.48178,0.7726612 0.48179,1.4015626 l 0,3.3152344 c -1e-5,0.1931648 0.10107,0.3144537 0.30322,0.3638672 0.20214,0.049414 0.46044,0.074122 0.7749,0.074121 l 0,0.4851562 -3.16025,0 0,-0.4851562 c 0.31445,5e-7 0.57275,-0.024707 0.7749,-0.074121 0.20215,-0.049413 0.30322,-0.1707024 0.30323,-0.3638672 l 0,-3.2748047 c -10e-6,-0.4492142 -0.0652,-0.8186962 -0.19541,-1.1084473 -0.13028,-0.2897405 -0.39757,-0.4346134 -0.80186,-0.4346192 -0.53457,5.8e-6 -0.97368,0.2133845 -1.31733,0.6401368 -0.34366,0.4267624 -0.51548,0.9119182 -0.51548,1.45546872 l 0,2.72226568 c 0,0.1931648 0.10107,0.3144537 0.30322,0.3638672 0.20215,0.049414 0.4582,0.074122 0.76816,0.074121 l 0,0.4851562 z"
         id="path3443"
         style="font-size:13.80000019px;font-style:normal;font-variant:normal;font-weight:normal;font-stretch:normal;text-align:start;text-anchor:start;fill:#ffffff;stroke:none;font-family:cmr10;-inkscape-font-specification:cmr10" />
      <path
         d="m 374.03705,1.2504829 0,-3.8071289 -1.1455,0 0,-0.357129 c 0.60195,5.9e-6 1.04443,-0.2807556 1.32744,-0.8422851 0.283,-0.5615162 0.42451,-1.170207 0.42451,-1.8260743 l 0.39756,0 0,2.5403321 1.94736,0 0,0.4851563 -1.94736,0 0,3.7801758 c 0,0.3818372 0.064,0.7165049 0.19204,1.0040039 0.12802,0.2875004 0.35825,0.4312503 0.69067,0.43125 0.31445,3e-7 0.54131,-0.1516109 0.68057,-0.454834 0.13925,-0.3032216 0.20888,-0.6300279 0.20889,-0.9804199 l 0,-0.81533205 0.39755,0 0,0.84228515 c 0,0.2875014 -0.0528,0.571632 -0.15834,0.8523926 -0.10558,0.2807623 -0.26168,0.5109866 -0.46832,0.6906738 -0.20664,0.1796875 -0.4582,0.2695311 -0.75468,0.2695313 -0.55254,-2e-7 -0.98941,-0.1650879 -1.3106,-0.4952637 -0.32119,-0.3301751 -0.48179,-0.769286 -0.48179,-1.317334 z"
         id="path3445"
         style="font-size:13.80000019px;font-style:normal;font-variant:normal;font-weight:normal;font-stretch:normal;text-align:start;text-anchor:start;fill:#ffffff;stroke:none;font-family:cmr10;-inkscape-font-specification:cmr10" />
    </g>
    <g
       id="text4439"
       style="font-size:13.80000019px;font-style:normal;font-variant:normal;font-weight:normal;font-stretch:normal;text-align:start;text-anchor:start;fill:#ffffff;stroke:none;font-family:cmr10;-inkscape-font-specification:cmr10" />
    <g
       id="text4441"
       style="font-size:13.80000019px;font-style:normal;font-weight:normal;text-align:start;text-anchor:start;fill:#ffffff;stroke:none;font-family:Cambria Math" />
    <g
       id="text4443"
       style="font-size:13.80000019px;font-style:normal;font-variant:normal;font-weight:normal;font-stretch:normal;text-align:start;text-anchor:start;fill:#ffffff;stroke:none;font-family:cmr10;-inkscape-font-specification:cmr10" />
    <g
       id="text4445"
       style="font-size:13.80000019px;font-style:normal;font-weight:normal;text-align:start;text-anchor:start;fill:#ffffff;stroke:none;font-family:Cambria Math" />
    <g
       id="text4447"
       style="font-size:13.80000019px;font-style:normal;font-weight:normal;text-align:start;text-anchor:start;fill:#ffffff;stroke:none;font-family:Cambria Math" />
    <g
       id="text4449"
       style="font-size:13.80000019px;font-style:normal;font-weight:normal;text-align:start;text-anchor:start;fill:#ffffff;stroke:none;font-family:Cambria Math" />
    <g
       transform="scale(0.9163531,1.0912824)"
       id="text4451"
       style="font-size:15.05969715px;font-style:normal;font-variant:normal;font-weight:normal;font-stretch:normal;text-align:start;text-anchor:start;fill:#ffffff;stroke:none;font-family:cmb10;-inkscape-font-specification:cmb10">
      <path
         d="m 415.29577,11.506396 c -0.12746,-0.02942 -0.19119,-0.1005 -0.19119,-0.213248 0,-0.06373 0.0196,-0.107853 0.0588,-0.13236 0.41669,-0.480423 0.76107,-1.003737 1.03314,-1.5699444 0.27208,-0.5662106 0.48165,-1.1508027 0.62872,-1.7537782 0.14706,-0.6029756 0.25001,-1.2255601 0.30884,-1.8677554 0.0588,-0.6421917 0.0882,-1.3064452 0.0882,-1.9927626 0,-1.4608639 -0.1483,-2.7967243 -0.44488,-4.00758547 -0.29659,-1.21084553 -0.83461,-2.26482723 -1.61406,-3.16194813 -0.0392,-0.039207 -0.0588,-0.083327 -0.0588,-0.1323606 0,-0.1078382 0.0637,-0.1789207 0.19119,-0.2132477 l 0.22795,0 c 0.0196,0.00491 0.0637,0.024522 0.13236,0.058827 0.70592,0.5735733 1.29051,1.2635636 1.75378,2.069973 0.46326,0.80642767 0.80151,1.66922196 1.01476,2.5883854 0.21325,0.9191767 0.31987,1.8518279 0.31988,2.7979565 -1e-5,0.7206331 -0.0588,1.4265557 -0.17648,2.1177699 -0.11766,0.6912175 -0.30027,1.36405 -0.54783,2.0184994 -0.24757,0.6544487 -0.56866,1.2660032 -0.96329,1.8346653 -0.39464,0.568658 -0.86157,1.068686 -1.40082,1.500087 -0.0686,0.03431 -0.11275,0.05392 -0.13236,0.05883 z"
         id="path3454"
         style="font-size:15.05969715px;font-style:normal;font-variant:normal;font-weight:normal;font-stretch:normal;text-align:start;text-anchor:start;fill:#ffffff;stroke:none;font-family:cmb10;-inkscape-font-specification:cmb10" />
    </g>
    <g
       transform="scale(0.9163531,1.0912824)"
       id="text4453"
       style="font-size:15.05969715px;font-style:normal;font-variant:normal;font-weight:normal;font-stretch:normal;text-align:start;text-anchor:start;fill:#ffffff;stroke:none;font-family:cmb10;-inkscape-font-specification:cmb10">
      <path
         d="m 426.61196,11.472063 c -0.53925,-0.441205 -1.00741,-0.947361 -1.40449,-1.5184703 -0.39708,-0.5711131 -0.72186,-1.190021 -0.97432,-1.8567253 -0.25247,-0.666705 -0.4363,-1.3468909 -0.5515,-2.0405596 -0.11521,-0.6936653 -0.17281,-1.3787533 -0.17281,-2.0552663 0,-0.6765053 0.0576,-1.362819 0.17281,-2.0589429 0.1152,-0.6961123 0.29658,-1.37139592 0.54415,-2.02585286 0.24756,-0.65444121 0.56865,-1.26722124 0.96329,-1.83834194 0.39462,-0.5711013 0.86892,-1.0821598 1.42287,-1.5331772 0.0441,-0.029402 0.0907,-0.049011 0.13972,-0.058827 l 0.2206,0 c 0.12255,0.034327 0.18383,0.1054094 0.18383,0.2132477 0,0.058838 -0.0147,0.1029581 -0.0441,0.1323606 -0.53435,0.6029865 -0.95716,1.297879 -1.26845,2.0846797 -0.3113,0.78681845 -0.52455,1.59446254 -0.63975,2.4229347 -0.1152,0.828485 -0.1728,1.7157905 -0.1728,2.6619191 0,0.9510384 0.0576,1.8420206 0.1728,2.6729492 0.1152,0.8309308 0.32845,1.6398005 0.63975,2.4266114 0.31129,0.7868082 0.7341,1.481701 1.26845,2.08468 0.0294,0.04412 0.0441,0.08824 0.0441,0.13236 0,0.107846 -0.0613,0.178929 -0.18383,0.213248 l -0.2206,0 c -0.049,-0.0098 -0.0956,-0.02942 -0.13972,-0.05883 z"
         id="path3457"
         style="font-size:15.05969715px;font-style:normal;font-variant:normal;font-weight:normal;font-stretch:normal;text-align:start;text-anchor:start;fill:#ffffff;stroke:none;font-family:cmb10;-inkscape-font-specification:cmb10" />
    </g>
    <g
       id="text4455"
       style="font-size:13.80000019px;font-style:normal;font-variant:normal;font-weight:normal;font-stretch:normal;text-align:start;text-anchor:start;fill:#ffffff;stroke:none;font-family:cmr10;-inkscape-font-specification:cmr10" />
    <g
       id="text4457"
       style="font-size:13.80000019px;font-style:normal;font-variant:normal;font-weight:normal;font-stretch:normal;text-align:start;text-anchor:start;fill:#ffffff;stroke:none;font-family:cmr10;-inkscape-font-specification:cmr10" />
    <g
       id="text4459"
       style="font-size:13.80000019px;font-style:normal;font-variant:normal;font-weight:normal;font-stretch:normal;text-align:start;text-anchor:start;fill:#ffffff;stroke:none;font-family:cmr10;-inkscape-font-specification:cmr10" />
    <g
       id="text4461"
       style="font-size:13.80000019px;font-style:normal;font-variant:normal;font-weight:normal;font-stretch:normal;text-align:start;text-anchor:start;fill:#ffffff;stroke:none;font-family:cmr10;-inkscape-font-specification:cmr10" />
    <g
       id="text4463"
       style="font-size:13.80000019px;font-style:normal;font-variant:normal;font-weight:normal;font-stretch:normal;text-align:start;text-anchor:start;fill:#ffffff;stroke:none;font-family:cmr10;-inkscape-font-specification:cmr10">
      <path
         d="m 393.14915,11.398772 0,-0.478418 c 0.31445,-2e-6 0.57275,-0.02695 0.7749,-0.08086 0.20215,-0.05391 0.30323,-0.175197 0.30323,-0.363867 l 0,-6.6506838 c 0,-0.2515573 -0.0899,-0.4087837 -0.26953,-0.4716797 -0.17969,-0.062885 -0.44922,-0.09433 -0.8086,-0.094336 l 0,-0.4851563 2.0417,-0.1482421 0,0.8557617 c 0.25156,-0.2785101 0.54468,-0.4907658 0.87935,-0.6367676 0.33466,-0.1459901 0.69067,-0.218988 1.06801,-0.2189941 0.54355,6.1e-6 1.0332,0.1471251 1.46895,0.4413574 0.43574,0.2942436 0.77602,0.6805714 1.02085,1.1589844 0.24482,0.478422 0.36723,0.9849156 0.36724,1.5194824 -10e-6,0.5570337 -0.1359,1.0758808 -0.40767,1.556543 -0.27178,0.480665 -0.64239,0.8636236 -1.11182,1.148877 -0.46944,0.2852539 -0.98491,0.4278807 -1.54643,0.4278808 -0.66934,-1e-7 -1.23536,-0.2717772 -1.69805,-0.815332 l 0,2.4123049 c 0,0.18867 0.1022,0.309959 0.30659,0.363867 0.20439,0.0539 0.46157,0.08086 0.77154,0.08086 l 0,0.478418 z m 2.08213,-4.0160152 c 0.16172,0.3279307 0.38633,0.5985847 0.67383,0.8119629 0.2875,0.2133792 0.60195,0.3200686 0.94336,0.3200684 0.31894,2e-7 0.60082,-0.085351 0.84565,-0.2560547 0.24482,-0.1707025 0.45034,-0.3998039 0.61656,-0.6873047 0.1662,-0.2874986 0.28861,-0.5895979 0.36723,-0.9062989 0.0786,-0.3166968 0.11792,-0.6232883 0.11792,-0.9197754 0,-0.368356 -0.0663,-0.7670373 -0.19878,-1.1960449 -0.13252,-0.4289993 -0.33467,-0.7906201 -0.60644,-1.0848633 -0.27179,-0.2942327 -0.60084,-0.4413517 -0.98716,-0.4413574 -0.37286,5.7e-6 -0.71539,0.095464 -1.02759,0.2863769 -0.31221,0.1909232 -0.5604,0.4503468 -0.74458,0.7782715 z"
         id="path3464"
         style="font-size:13.80000019px;font-style:normal;font-variant:normal;font-weight:normal;font-stretch:normal;text-align:start;text-anchor:start;fill:#ffffff;stroke:none;font-family:cmr10;-inkscape-font-specification:cmr10" />
      <path
         d="m 400.80384,11.398772 0,-0.478418 c 0.31445,-2e-6 0.57275,-0.02695 0.7749,-0.08086 0.20215,-0.05391 0.30322,-0.175197 0.30322,-0.363867 l 0,-6.6506838 c 0,-0.2515573 -0.0898,-0.4087837 -0.26953,-0.4716797 -0.17969,-0.062885 -0.44922,-0.09433 -0.80859,-0.094336 l 0,-0.4851563 2.0417,-0.1482421 0,0.8557617 c 0.25156,-0.2785101 0.54467,-0.4907658 0.87934,-0.6367676 0.33467,-0.1459901 0.69067,-0.218988 1.06802,-0.2189941 0.54355,6.1e-6 1.0332,0.1471251 1.46895,0.4413574 0.43573,0.2942436 0.77602,0.6805714 1.02085,1.1589844 0.24481,0.478422 0.36723,0.9849156 0.36723,1.5194824 0,0.5570337 -0.13589,1.0758808 -0.40766,1.556543 -0.27179,0.480665 -0.64239,0.8636236 -1.11182,1.148877 -0.46944,0.2852539 -0.98492,0.4278807 -1.54644,0.4278808 -0.66933,-1e-7 -1.23535,-0.2717772 -1.69804,-0.815332 l 0,2.4123049 c 0,0.18867 0.10219,0.309959 0.30659,0.363867 0.20439,0.0539 0.46157,0.08086 0.77153,0.08086 l 0,0.478418 z m 2.08213,-4.0160152 c 0.16171,0.3279307 0.38632,0.5985847 0.67383,0.8119629 0.28749,0.2133792 0.60195,0.3200686 0.94336,0.3200684 0.31894,2e-7 0.60082,-0.085351 0.84565,-0.2560547 0.24482,-0.1707025 0.45034,-0.3998039 0.61655,-0.6873047 0.16621,-0.2874986 0.28862,-0.5895979 0.36724,-0.9062989 0.0786,-0.3166968 0.11791,-0.6232883 0.11792,-0.9197754 -10e-6,-0.368356 -0.0663,-0.7670373 -0.19878,-1.1960449 -0.13253,-0.4289993 -0.33467,-0.7906201 -0.60645,-1.0848633 -0.27178,-0.2942327 -0.60083,-0.4413517 -0.98715,-0.4413574 -0.37286,5.7e-6 -0.71539,0.095464 -1.02759,0.2863769 -0.31221,0.1909232 -0.5604,0.4503468 -0.74458,0.7782715 z"
         id="path3466"
         style="font-size:13.80000019px;font-style:normal;font-variant:normal;font-weight:normal;font-stretch:normal;text-align:start;text-anchor:start;fill:#ffffff;stroke:none;font-family:cmr10;-inkscape-font-specification:cmr10" />
      <path
         d="m 408.51243,8.7236748 0,-0.4851563 c 0.31446,5e-7 0.57276,-0.024706 0.77491,-0.074121 0.20214,-0.049413 0.30322,-0.1707024 0.30322,-0.3638672 l 0,-3.7666992 c 0,-0.2470654 -0.0371,-0.4256297 -0.11118,-0.5356934 -0.0741,-0.1100533 -0.18082,-0.177436 -0.32007,-0.2021484 -0.13926,-0.024702 -0.35489,-0.037055 -0.64688,-0.037061 l 0,-0.4851563 2.00127,-0.1482421 0,1.3476562 c 0.18418,-0.3953073 0.45708,-0.7187445 0.8187,-0.9703125 0.36162,-0.2515565 0.75581,-0.3773376 1.18257,-0.3773437 1.06015,6.1e-6 1.68232,0.4312556 1.86651,1.29375 0.18417,-0.386323 0.4537,-0.6985297 0.80859,-0.9366211 0.35487,-0.23808 0.74345,-0.3571228 1.16572,-0.3571289 0.41777,6.1e-6 0.76928,0.067389 1.05454,0.2021484 0.28525,0.1347714 0.49975,0.3402888 0.64351,0.6165527 0.14374,0.2762746 0.21561,0.6232957 0.21562,1.0410645 l 0,3.3152344 c -10e-6,0.1931648 0.10219,0.3144538 0.3066,0.3638672 0.20438,0.049415 0.46156,0.074122 0.77153,0.074121 l 0,0.4851563 -3.16025,0 0,-0.4851563 c 0.31444,5e-7 0.57274,-0.024706 0.7749,-0.074121 0.20214,-0.049413 0.30321,-0.1707024 0.30322,-0.3638672 l 0,-3.2748047 c -1e-5,-0.4626907 -0.0652,-0.8355419 -0.19541,-1.1185547 -0.13028,-0.2830022 -0.39757,-0.424506 -0.80186,-0.4245117 -0.53008,5.7e-6 -0.96807,0.2133844 -1.31396,0.6401367 -0.34591,0.4267625 -0.51885,0.9119183 -0.51885,1.4554688 l 0,2.7222656 c 0,0.1931648 0.10107,0.3144538 0.30322,0.3638672 0.20215,0.049415 0.46045,0.074122 0.77491,0.074121 l 0,0.4851563 -3.16026,0 0,-0.4851563 c 0.31445,5e-7 0.57275,-0.024706 0.77491,-0.074121 0.20214,-0.049413 0.30321,-0.1707024 0.30322,-0.3638672 l 0,-3.2748047 c -10e-6,-0.4492141 -0.0651,-0.8186962 -0.19541,-1.1084473 -0.13028,-0.2897405 -0.39757,-0.4346134 -0.80186,-0.4346191 -0.53457,5.7e-6 -0.97368,0.2133844 -1.31733,0.6401367 -0.34366,0.4267625 -0.51548,0.9119183 -0.51548,1.4554688 l 0,2.7222656 c 0,0.1931648 0.10107,0.3144538 0.30322,0.3638672 0.20215,0.049415 0.4582,0.074122 0.76817,0.074121 l 0,0.4851563 z"
         id="path3468"
         style="font-size:13.80000019px;font-style:normal;font-variant:normal;font-weight:normal;font-stretch:normal;text-align:start;text-anchor:start;fill:#ffffff;stroke:none;font-family:cmr10;-inkscape-font-specification:cmr10" />
    </g>
    <g
       transform="scale(0.9163531,1.0912824)"
       id="text4465"
       style="font-size:15.05969715px;font-style:normal;font-variant:normal;font-weight:normal;font-stretch:normal;text-align:start;text-anchor:start;fill:#ffffff;stroke:none;font-family:cmb10;-inkscape-font-specification:cmb10">
      <path
         d="m 458.85103,11.53089 c -0.12746,-0.02942 -0.19118,-0.1005 -0.19118,-0.213248 0,-0.06373 0.0196,-0.107852 0.0588,-0.13236 0.41669,-0.480423 0.76108,-1.003737 1.03315,-1.5699442 0.27207,-0.5662106 0.48164,-1.1508027 0.62871,-1.7537782 0.14707,-0.6029756 0.25002,-1.2255602 0.30885,-1.8677554 0.0588,-0.6421917 0.0882,-1.3064453 0.0882,-1.9927627 -10e-6,-1.4608638 -0.1483,-2.7967243 -0.44488,-4.0075854 -0.29659,-1.2108456 -0.83461,-2.2648272 -1.61407,-3.1619481 -0.0392,-0.039207 -0.0588,-0.083327 -0.0588,-0.1323606 0,-0.1078383 0.0637,-0.1789207 0.19118,-0.2132477 l 0.22796,0 c 0.0196,0.00491 0.0637,0.024522 0.13236,0.058827 0.70592,0.5735734 1.29051,1.2635637 1.75378,2.0699731 0.46326,0.80642764 0.80151,1.66922193 1.01476,2.5883854 0.21325,0.9191766 0.31987,1.8518278 0.31987,2.7979564 0,0.7206331 -0.0588,1.4265557 -0.17648,2.1177699 -0.11766,0.6912176 -0.30026,1.3640501 -0.54782,2.0184995 -0.24757,0.6544487 -0.56867,1.2660032 -0.96329,1.8346652 -0.39464,0.5686578 -0.86158,1.0686858 -1.40082,1.5000868 -0.0686,0.03431 -0.11275,0.05392 -0.13236,0.05883 z"
         id="path3471"
         style="font-size:15.05969715px;font-style:normal;font-variant:normal;font-weight:normal;font-stretch:normal;text-align:start;text-anchor:start;fill:#ffffff;stroke:none;font-family:cmb10;-inkscape-font-specification:cmb10" />
    </g>
    <g
       id="text4467"
       style="font-size:13.80000019px;font-style:normal;font-variant:normal;font-weight:normal;font-stretch:normal;text-align:start;text-anchor:start;fill:#ffffff;stroke:none;font-family:cmr10;-inkscape-font-specification:cmr10">
      <path
         d="m 312.73479,29.369698 0,-0.370606 c 0,-0.02246 0.009,-0.04717 0.0269,-0.07412 l 2.14278,-2.371875 c 0.32343,-0.350387 0.58622,-0.644625 0.78838,-0.882715 0.20214,-0.238082 0.40204,-0.512105 0.5997,-0.82207 0.19765,-0.309956 0.35376,-0.625532 0.46831,-0.946729 0.11455,-0.321185 0.17182,-0.661468 0.17183,-1.020849 -10e-6,-0.377337 -0.0696,-0.737835 -0.20889,-1.081495 -0.13926,-0.343644 -0.34702,-0.61879 -0.62329,-0.825439 -0.27627,-0.206632 -0.60982,-0.309952 -1.00063,-0.309961 -0.39981,9e-6 -0.75919,0.120175 -1.07813,0.360498 -0.31895,0.24034 -0.54355,0.551424 -0.67383,0.933252 0.0359,-0.009 0.0854,-0.01347 0.14825,-0.01348 0.20663,7e-6 0.38295,0.06964 0.52895,0.208886 0.14599,0.139265 0.21899,0.318952 0.219,0.539063 -1e-5,0.211139 -0.073,0.389703 -0.219,0.535693 -0.146,0.146002 -0.32232,0.219 -0.52895,0.218994 -0.21563,6e-6 -0.39644,-0.07524 -0.54244,-0.225732 -0.14599,-0.150482 -0.21899,-0.3268 -0.21899,-0.528955 0,-0.345892 0.0651,-0.670452 0.19541,-0.973682 0.13027,-0.303215 0.31782,-0.572746 0.56265,-0.808594 0.24482,-0.235831 0.52109,-0.416641 0.82881,-0.542431 0.30771,-0.125772 0.63451,-0.188663 0.98042,-0.188672 0.52558,9e-6 1.01523,0.111191 1.46894,0.333545 0.45371,0.222372 0.81308,0.536824 1.07813,0.943359 0.26503,0.406551 0.39755,0.881599 0.39755,1.425147 0,0.39981 -0.0876,0.7794 -0.26279,1.138769 -0.1752,0.35938 -0.39981,0.686186 -0.67383,0.98042 -0.27403,0.294242 -0.62442,0.627787 -1.05117,1.000635 -0.42676,0.372854 -0.70752,0.622171 -0.84228,0.747949 l -1.56329,1.502637 1.32745,0 c 0.65136,1e-6 1.19604,-0.0056 1.63403,-0.01685 0.43798,-0.01123 0.67045,-0.02808 0.69741,-0.05054 0.10781,-0.116796 0.21787,-0.541307 0.33018,-1.273535 l 0.40429,0 -0.39082,2.459473 z"
         id="path3474"
         style="font-size:13.80000019px;font-style:normal;font-variant:normal;font-weight:normal;font-stretch:normal;text-align:start;text-anchor:start;fill:#ffffff;stroke:none;font-family:cmr10;-inkscape-font-specification:cmr10" />
      <path
         d="m 319.33157,27.092158 0,-0.485156 4.26533,-6.360937 c 0.0314,-0.04491 0.0786,-0.06737 0.1415,-0.06738 l 0.20215,0 c 0.10332,9e-6 0.15498,0.05167 0.15498,0.15498 l 0,6.27334 1.3544,0 0,0.485156 -1.3544,0 0,1.354395 c 0,0.188673 0.13476,0.308839 0.4043,0.360498 0.26952,0.05166 0.58173,0.07749 0.93662,0.07749 l 0,0.485157 -3.80039,0 0,-0.485157 c 0.35488,10e-7 0.66709,-0.02583 0.93662,-0.07749 0.26953,-0.05166 0.40429,-0.171825 0.4043,-0.360498 l 0,-1.354395 z m 0.4582,-0.485156 3.26807,0 0,-4.885254 z"
         id="path3476"
         style="font-size:13.80000019px;font-style:normal;font-variant:normal;font-weight:normal;font-stretch:normal;text-align:start;text-anchor:start;fill:#ffffff;stroke:none;font-family:cmr10;-inkscape-font-specification:cmr10" />
    </g>
    <g
       id="text4469"
       style="font-size:13.80000019px;font-style:normal;font-variant:normal;font-weight:normal;font-stretch:normal;text-align:start;text-anchor:start;fill:#ffffff;stroke:none;font-family:cmr10;-inkscape-font-specification:cmr10">
      <path
         d="m 328.50646,28.608272 c 0,-0.20664 0.0764,-0.384081 0.2291,-0.532324 0.15273,-0.148241 0.33017,-0.222362 0.53232,-0.222364 0.12578,2e-6 0.24932,0.03369 0.37061,0.101074 0.12129,0.06739 0.21562,0.16172 0.28301,0.283008 0.0674,0.12129 0.10107,0.244825 0.10107,0.370606 0,0.202149 -0.0741,0.37959 -0.22236,0.532324 -0.14825,0.152734 -0.32569,0.229102 -0.53233,0.229102 -0.20215,0 -0.37959,-0.07637 -0.53232,-0.229102 -0.15274,-0.152734 -0.2291,-0.330175 -0.2291,-0.532324 z"
         id="path3479"
         style="font-size:13.80000019px;font-style:normal;font-variant:normal;font-weight:normal;font-stretch:normal;text-align:start;text-anchor:start;fill:#ffffff;stroke:none;font-family:cmr10;-inkscape-font-specification:cmr10" />
    </g>
    <g
       id="text4471"
       style="font-size:13.80000019px;font-style:normal;font-variant:normal;font-weight:normal;font-stretch:normal;text-align:start;text-anchor:start;fill:#ffffff;stroke:none;font-family:cmr10;-inkscape-font-specification:cmr10">
      <path
         d="m 330.58156,27.092158 0,-0.485156 4.26533,-6.360937 c 0.0314,-0.04491 0.0786,-0.06737 0.14151,-0.06738 l 0.20215,0 c 0.10331,9e-6 0.15497,0.05167 0.15498,0.15498 l 0,6.27334 1.35439,0 0,0.485156 -1.35439,0 0,1.354395 c -10e-6,0.188673 0.13476,0.308839 0.40429,0.360498 0.26953,0.05166 0.58174,0.07749 0.93662,0.07749 l 0,0.485157 -3.80039,0 0,-0.485157 c 0.35488,10e-7 0.66709,-0.02583 0.93662,-0.07749 0.26953,-0.05166 0.4043,-0.171825 0.4043,-0.360498 l 0,-1.354395 z m 0.4582,-0.485156 3.26807,0 0,-4.885254 z"
         id="path3482"
         style="font-size:13.80000019px;font-style:normal;font-variant:normal;font-weight:normal;font-stretch:normal;text-align:start;text-anchor:start;fill:#ffffff;stroke:none;font-family:cmr10;-inkscape-font-specification:cmr10" />
      <path
         d="m 338.29689,27.799678 c 0.0943,0.269533 0.23921,0.514357 0.43462,0.734473 0.19541,0.220117 0.42676,0.391943 0.69405,0.515478 0.26728,0.123536 0.54467,0.185303 0.83217,0.185303 0.66484,0 1.12305,-0.2583 1.37461,-0.774902 0.25156,-0.516601 0.37734,-1.14326 0.37735,-1.879981 -10e-6,-0.318942 -0.006,-0.58735 -0.0168,-0.805225 -0.0112,-0.217867 -0.0416,-0.427876 -0.091,-0.630029 -0.0853,-0.323433 -0.23472,-0.60644 -0.44809,-0.849023 -0.21338,-0.242573 -0.47505,-0.363862 -0.78501,-0.363867 -0.30997,5e-6 -0.57613,0.04717 -0.79849,0.141503 -0.22236,0.09434 -0.40317,0.2044 -0.54243,0.330176 -0.13926,0.125786 -0.26279,0.258306 -0.37061,0.397559 -0.10781,0.139262 -0.17519,0.213383 -0.20214,0.222363 l -0.15498,0 c -0.0225,4e-6 -0.0505,-0.01459 -0.0842,-0.0438 -0.0337,-0.0292 -0.0505,-0.05727 -0.0505,-0.08423 l 0,-4.608985 c 0,-0.02245 0.0146,-0.04603 0.0438,-0.07075 0.0292,-0.0247 0.0595,-0.03705 0.091,-0.03706 l 0.0404,0 c 0.61992,0.296493 1.27802,0.444735 1.97431,0.444726 0.68281,9e-6 1.34092,-0.148233 1.97432,-0.444726 l 0.0404,0 c 0.0314,9e-6 0.0606,0.01124 0.0876,0.03369 0.0269,0.02247 0.0404,0.04718 0.0404,0.07412 l 0,0.128028 c -1e-5,0.04493 -0.009,0.06739 -0.027,0.06738 -0.31446,0.417782 -0.70864,0.743466 -1.18257,0.977051 -0.47393,0.233602 -0.9647,0.350398 -1.47231,0.350391 -0.36836,7e-6 -0.74571,-0.05165 -1.13203,-0.154981 l 0,2.607715 c 0.30547,-0.247065 0.57837,-0.423383 0.8187,-0.528955 0.24033,-0.10556 0.54692,-0.158344 0.91978,-0.158349 0.50761,5e-6 0.96244,0.146001 1.3645,0.437988 0.40204,0.291997 0.71088,0.67271 0.92651,1.142139 0.21562,0.469437 0.32343,0.948977 0.32344,1.438623 -1e-5,0.552541 -0.1359,1.06465 -0.40767,1.536328 -0.27178,0.47168 -0.64126,0.846778 -1.10845,1.125293 -0.46719,0.278515 -0.9748,0.417773 -1.52285,0.417773 -0.45371,0 -0.87036,-0.116797 -1.24995,-0.35039 -0.37959,-0.233594 -0.67832,-0.548047 -0.89619,-0.94336 -0.21787,-0.395311 -0.32681,-0.81533 -0.32681,-1.260058 0,-0.206639 0.0674,-0.375095 0.20215,-0.505371 0.13477,-0.130271 0.30322,-0.195408 0.50537,-0.195411 0.20215,3e-6 0.37173,0.06626 0.50874,0.19878 0.13701,0.132522 0.20552,0.299856 0.20552,0.502002 0,0.197658 -0.0685,0.364992 -0.20552,0.502002 -0.13701,0.137013 -0.30659,0.205519 -0.50874,0.205517 -0.0314,2e-6 -0.0674,-0.0034 -0.10781,-0.01011 -0.0404,-0.0067 -0.0696,-0.01235 -0.0876,-0.01685 z"
         id="path3484"
         style="font-size:13.80000019px;font-style:normal;font-variant:normal;font-weight:normal;font-stretch:normal;text-align:start;text-anchor:start;fill:#ffffff;stroke:none;font-family:cmr10;-inkscape-font-specification:cmr10" />
    </g>
    <g
       id="text4473"
       style="font-size:13.80000019px;font-style:normal;font-variant:normal;font-weight:normal;font-stretch:normal;text-align:start;text-anchor:start;fill:#ffffff;stroke:none;font-family:cmr10;-inkscape-font-specification:cmr10" />
    <g
       transform="scale(0.98854279,1.01159)"
       id="text4509"
       style="font-size:16.6788311px;font-style:normal;font-variant:normal;font-weight:normal;font-stretch:normal;line-height:125%;letter-spacing:0px;word-spacing:0px;fill:#ffffff;fill-opacity:1;stroke:none;font-family:cmr10;-inkscape-font-specification:cmr10">
      <path
         d="m 160.27971,17.618114 0,-0.586365 c 0.38005,10e-7 0.69224,-0.02986 0.93656,-0.08958 0.24431,-0.05972 0.36647,-0.206313 0.36647,-0.439774 l 0,-4.552474 c 0,-0.298606 -0.0448,-0.514421 -0.13437,-0.647445 -0.0896,-0.133011 -0.21853,-0.214451 -0.38684,-0.244319 -0.16831,-0.02985 -0.42892,-0.04478 -0.78182,-0.04479 l 0,-0.586366 2.41876,-0.179167 0,1.628792 c 0.22259,-0.477772 0.55242,-0.868682 0.98949,-1.17273 0.43705,-0.304034 0.91347,-0.456054 1.42926,-0.456062 1.28131,8e-6 2.03327,0.521221 2.25588,1.563641 0.22259,-0.466914 0.54835,-0.844251 0.97727,-1.132011 0.42891,-0.287746 0.89855,-0.431622 1.40891,-0.43163 0.50492,8e-6 0.92976,0.08145 1.27453,0.244319 0.34475,0.162886 0.604,0.411277 0.77775,0.745172 0.17372,0.333909 0.26059,0.753322 0.2606,1.258242 l 0,4.006829 c -1e-5,0.233461 0.12351,0.380052 0.37056,0.439774 0.24702,0.05972 0.55784,0.08958 0.93248,0.08958 l 0,0.586365 -3.81952,0 0,-0.586365 c 0.38004,1e-6 0.69223,-0.02986 0.93656,-0.08958 0.2443,-0.05972 0.36646,-0.206313 0.36647,-0.439774 l 0,-3.957965 c -1e-5,-0.559213 -0.0787,-1.009845 -0.23617,-1.351897 -0.15746,-0.34204 -0.4805,-0.513063 -0.96913,-0.51307 -0.64067,7e-6 -1.17003,0.257899 -1.58807,0.773676 -0.41807,0.51579 -0.6271,1.102155 -0.62709,1.759096 l 0,3.29016 c -1e-5,0.233461 0.12215,0.380052 0.36648,0.439774 0.24431,0.05972 0.55649,0.08958 0.93656,0.08958 l 0,0.586365 -3.81952,0 0,-0.586365 c 0.38004,1e-6 0.69223,-0.02986 0.93655,-0.08958 0.24432,-0.05972 0.36647,-0.206313 0.36648,-0.439774 l 0,-3.957965 c -10e-6,-0.542925 -0.0787,-0.989485 -0.23617,-1.339681 -0.15746,-0.350184 -0.4805,-0.525279 -0.96913,-0.525286 -0.6461,7e-6 -1.17681,0.257899 -1.59215,0.773676 -0.41534,0.51579 -0.62302,1.102155 -0.62301,1.759096 l 0,3.29016 c -1e-5,0.233461 0.12215,0.380052 0.36648,0.439774 0.24431,0.05972 0.55378,0.08958 0.92841,0.08958 l 0,0.586365 z"
         id="path3488"
         style="fill:#ffffff;stroke:none" />
      <path
         d="m 174.15702,18.921148 c 0,-0.39634 0.14387,-0.742458 0.43163,-1.038355 0.28775,-0.295897 0.6298,-0.506282 1.02614,-0.631157 -0.22261,-0.168308 -0.39227,-0.38005 -0.509,-0.635229 -0.11673,-0.255176 -0.1751,-0.526641 -0.1751,-0.814396 0,-0.521211 0.1656,-0.982701 0.49679,-1.384473 -0.51036,-0.499493 -0.76554,-1.072284 -0.76554,-1.718376 0,-0.34747 0.0747,-0.673228 0.22396,-0.977275 0.14931,-0.304035 0.35698,-0.567356 0.62302,-0.789964 0.26603,-0.222595 0.56193,-0.39226 0.88769,-0.508998 0.32575,-0.116722 0.65966,-0.175087 1.0017,-0.175095 0.66238,8e-6 1.25688,0.192748 1.78353,0.578221 0.22803,-0.244311 0.49814,-0.43298 0.81033,-0.566005 0.31217,-0.13301 0.63658,-0.199519 0.9732,-0.199527 0.23888,8e-6 0.43434,0.08552 0.58636,0.256535 0.15202,0.17103 0.22803,0.375986 0.22804,0.614869 -1e-5,0.135739 -0.0516,0.255184 -0.15474,0.358334 -0.10316,0.103163 -0.22261,0.154742 -0.35833,0.154735 -0.14117,7e-6 -0.26333,-0.05157 -0.36648,-0.154735 -0.10317,-0.10315 -0.15474,-0.222595 -0.15474,-0.358334 0,-0.206307 0.0679,-0.350183 0.2036,-0.43163 -0.57551,7e-6 -1.06958,0.198177 -1.4822,0.594509 0.20088,0.200891 0.3624,0.446567 0.48457,0.737029 0.12215,0.290473 0.18323,0.579583 0.18324,0.867331 -1e-5,0.472354 -0.13031,0.897197 -0.39091,1.27453 -0.26062,0.37734 -0.60402,0.670523 -1.03022,0.879548 -0.4262,0.209031 -0.86462,0.313545 -1.31525,0.313542 -0.60808,3e-6 -1.16458,-0.165591 -1.66951,-0.496781 -0.15745,0.217175 -0.23617,0.461493 -0.23617,0.732956 0,0.293185 0.0964,0.549719 0.28911,0.769604 0.19274,0.219889 0.4357,0.329832 0.72888,0.329831 l 1.36819,0 c 0.66237,1e-6 1.25959,0.05972 1.79167,0.179167 0.53207,0.119446 0.97863,0.358335 1.33968,0.716669 0.36104,0.358334 0.54157,0.865973 0.54157,1.52292 0,0.488636 -0.20632,0.894476 -0.61894,1.217522 -0.41263,0.323041 -0.90534,0.556501 -1.47813,0.700381 -0.57279,0.143873 -1.10351,0.215811 -1.59214,0.215815 -0.49407,-4e-6 -1.02886,-0.07194 -1.60436,-0.215815 -0.57551,-0.14388 -1.06957,-0.37734 -1.4822,-0.700381 -0.41263,-0.323046 -0.61894,-0.728886 -0.61894,-1.217522 z m 0.93655,0 c 0,0.374621 0.15202,0.688163 0.45607,0.940628 0.30403,0.25246 0.67051,0.439771 1.09943,0.561933 0.42891,0.122156 0.8334,0.183236 1.21345,0.183239 0.37462,-3e-6 0.77639,-0.06108 1.20531,-0.183239 0.42891,-0.122162 0.79403,-0.309473 1.09536,-0.561933 0.30132,-0.252465 0.45198,-0.566007 0.45199,-0.940628 -1e-5,-0.580936 -0.26604,-0.956916 -0.79811,-1.127938 -0.53208,-0.171024 -1.17816,-0.256535 -1.93826,-0.256535 l -1.36819,0 c -0.25518,0 -0.48999,0.06108 -0.70445,0.183239 -0.21446,0.122159 -0.38684,0.293182 -0.51714,0.513069 -0.13031,0.219887 -0.19546,0.449275 -0.19546,0.688165 z m 2.30474,-4.202283 c 0.9447,2e-6 1.41705,-0.673231 1.41705,-2.019703 0,-0.58093 -0.10044,-1.060066 -0.30132,-1.437409 -0.20089,-0.37733 -0.5728,-0.565998 -1.11573,-0.566005 -0.54293,7e-6 -0.91484,0.188675 -1.11572,0.566005 -0.20088,0.377343 -0.30133,0.856479 -0.30132,1.437409 -1e-5,0.369198 0.038,0.7031 0.11401,1.001707 0.076,0.298616 0.21717,0.542935 0.42349,0.732957 0.20631,0.190029 0.49949,0.285041 0.87954,0.285039 z"
         id="path3490"
         style="fill:#ffffff;stroke:none" />
      <path
         d="m 182.96878,21.45392 c 0,-0.03258 0.005,-0.0543 0.0163,-0.06515 l 5.7985,-16.0761778 c 0.0217,-0.065139 0.0597,-0.1153604 0.11402,-0.1506633 0.0543,-0.035278 0.11672,-0.052923 0.18731,-0.052936 0.0977,1.26e-5 0.1778,0.029874 0.24025,0.089584 0.0624,0.059735 0.0936,0.1411743 0.0936,0.2443188 l 0,0.065152 -5.7985,16.0761783 c -0.0651,0.135729 -0.17102,0.203595 -0.31761,0.203599 -0.0923,-4e-6 -0.17103,-0.03258 -0.23618,-0.09773 -0.0651,-0.06516 -0.0977,-0.143881 -0.0977,-0.236175 z"
         id="path3492"
         style="fill:#ffffff;stroke:none" />
      <path
         d="m 190.86842,17.618114 0,-0.586365 c 0.38006,10e-7 0.69224,-0.02986 0.93656,-0.08958 0.24432,-0.05972 0.36648,-0.206313 0.36648,-0.439774 l 0,-4.552474 c 0,-0.298606 -0.0448,-0.514421 -0.13438,-0.647445 -0.0896,-0.133011 -0.21853,-0.214451 -0.38684,-0.244319 -0.1683,-0.02985 -0.42891,-0.04478 -0.78182,-0.04479 l 0,-0.586366 2.41876,-0.179167 0,1.628792 c 0.2226,-0.477772 0.55243,-0.868682 0.98949,-1.17273 0.43706,-0.304034 0.91348,-0.456054 1.42927,-0.456062 1.28131,8e-6 2.03327,0.521221 2.25587,1.563641 0.2226,-0.466914 0.54836,-0.844251 0.97728,-1.132011 0.42891,-0.287746 0.89854,-0.431622 1.4089,-0.43163 0.50492,8e-6 0.92976,0.08145 1.27453,0.244319 0.34475,0.162886 0.604,0.411277 0.77775,0.745172 0.17373,0.333909 0.2606,0.753322 0.26061,1.258242 l 0,4.006829 c -1e-5,0.233461 0.1235,0.380052 0.37055,0.439774 0.24702,0.05972 0.55785,0.08958 0.93248,0.08958 l 0,0.586365 -3.81951,0 0,-0.586365 c 0.38004,1e-6 0.69222,-0.02986 0.93655,-0.08958 0.24431,-0.05972 0.36647,-0.206313 0.36648,-0.439774 l 0,-3.957965 c -1e-5,-0.559213 -0.0787,-1.009845 -0.23618,-1.351897 -0.15746,-0.34204 -0.4805,-0.513063 -0.96913,-0.51307 -0.64066,7e-6 -1.17002,0.257899 -1.58807,0.773676 -0.41806,0.51579 -0.62709,1.102155 -0.62708,1.759096 l 0,3.29016 c -1e-5,0.233461 0.12215,0.380052 0.36647,0.439774 0.24431,0.05972 0.5565,0.08958 0.93656,0.08958 l 0,0.586365 -3.81952,0 0,-0.586365 c 0.38005,1e-6 0.69223,-0.02986 0.93656,-0.08958 0.24431,-0.05972 0.36647,-0.206313 0.36648,-0.439774 l 0,-3.957965 c -1e-5,-0.542925 -0.0787,-0.989485 -0.23618,-1.339681 -0.15745,-0.350184 -0.4805,-0.525279 -0.96913,-0.525286 -0.64609,7e-6 -1.17681,0.257899 -1.59214,0.773676 -0.41535,0.51579 -0.62302,1.102155 -0.62302,1.759096 l 0,3.29016 c 0,0.233461 0.12216,0.380052 0.36648,0.439774 0.24432,0.05972 0.55379,0.08958 0.92841,0.08958 l 0,0.586365 z"
         id="path3494"
         style="fill:#ffffff;stroke:none" />
    </g>
    <g
       transform="scale(0.98854279,1.01159)"
       id="text4513"
       style="font-size:11.11922169px;font-style:normal;font-variant:normal;font-weight:normal;font-stretch:normal;line-height:125%;letter-spacing:0px;word-spacing:0px;fill:#ffffff;fill-opacity:1;stroke:none;font-family:cmr10;-inkscape-font-specification:cmr10">
      <path
         d="m 205.84015,10.965304 c 0.17373,0.253368 0.40719,0.441584 0.70038,0.564648 0.29318,0.123064 0.60808,0.184596 0.9447,0.184596 0.43072,0 0.73657,-0.183691 0.91755,-0.551074 0.18097,-0.367383 0.27146,-0.784534 0.27147,-1.2514558 -1e-5,-0.2099311 -0.019,-0.4198641 -0.057,-0.6297997 -0.038,-0.2099304 -0.10226,-0.4053853 -0.19274,-0.5863652 -0.0905,-0.1809736 -0.21446,-0.325755 -0.37191,-0.4343446 -0.15745,-0.1085825 -0.35019,-0.1628755 -0.57822,-0.1628792 l -0.73839,0 c -0.0652,3.7e-6 -0.0977,-0.034382 -0.0977,-0.1031568 l 0,-0.097728 c -1e-5,-0.057909 0.0326,-0.086865 0.0977,-0.086869 l 0.61352,-0.048864 c 0.2606,4.1e-6 0.47687,-0.097723 0.6488,-0.2931826 0.17192,-0.1954505 0.2977,-0.4334349 0.37733,-0.7139539 0.0796,-0.2805089 0.11945,-0.5474495 0.11945,-0.8008228 0,-0.3547086 -0.0832,-0.6460811 -0.24975,-0.8741185 -0.1665,-0.228024 -0.41987,-0.3420393 -0.7601,-0.3420464 -0.28233,7.1e-6 -0.55198,0.053395 -0.80897,0.1601646 -0.25699,0.1067831 -0.46149,0.2687573 -0.61351,0.485923 0.0145,-0.00361 0.0271,-0.00633 0.038,-0.00814 0.0109,-0.0018 0.0235,-0.00271 0.038,-0.00271 0.1665,6.4e-6 0.30585,0.057919 0.41806,0.1737378 0.1122,0.1158314 0.1683,0.2551835 0.16831,0.4180567 -1e-5,0.1592654 -0.0561,0.2968077 -0.16831,0.4126273 -0.11221,0.1158306 -0.25156,0.1737431 -0.41806,0.1737379 -0.16288,5.2e-6 -0.30223,-0.057907 -0.41806,-0.1737379 -0.11582,-0.1158196 -0.17374,-0.2533619 -0.17373,-0.4126273 -10e-6,-0.3185132 0.0959,-0.5954076 0.28775,-0.8306841 0.19183,-0.235263 0.43887,-0.4135251 0.7411,-0.5347868 0.30223,-0.1212471 0.60536,-0.1818744 0.90941,-0.1818818 0.22441,7.4e-6 0.46149,0.033488 0.71124,0.1004422 0.24974,0.066969 0.47596,0.1628864 0.67866,0.2877533 0.20269,0.124881 0.36828,0.2850454 0.49678,0.4804937 0.12849,0.1954614 0.19274,0.4180628 0.19274,0.6678049 0,0.3112858 -0.0697,0.5990388 -0.20903,0.8632598 -0.13935,0.2642311 -0.33028,0.4922618 -0.57279,0.6840928 -0.24251,0.1918396 -0.50855,0.3348113 -0.79811,0.4289153 0.32214,0.061536 0.62799,0.1827904 0.91756,0.3637636 0.28956,0.1809802 0.52211,0.4126305 0.69766,0.6949513 0.17555,0.2823266 0.26332,0.5863675 0.26332,0.9121237 0,0.4090095 -0.11221,0.7791065 -0.33661,1.1102935 -0.22442,0.331188 -0.51941,0.589985 -0.88498,0.776391 -0.36558,0.186406 -0.75106,0.279609 -1.15644,0.279609 -0.34748,0 -0.69586,-0.06606 -1.04514,-0.198169 -0.34929,-0.132114 -0.63523,-0.330283 -0.85783,-0.59451 -0.22261,-0.264225 -0.33391,-0.580934 -0.33391,-0.950128 0,-0.184595 0.0615,-0.3384255 0.1846,-0.4614917 0.12306,-0.1230622 0.27689,-0.1845943 0.46149,-0.1845964 0.11944,2.1e-6 0.22894,0.028053 0.32847,0.084154 0.0995,0.056105 0.17736,0.1348298 0.23346,0.2361749 0.0561,0.1013492 0.0842,0.2099352 0.0842,0.3257592 0,0.180978 -0.0633,0.332998 -0.19003,0.456061 -0.12668,0.123066 -0.2787,0.184598 -0.45606,0.184597 z"
         id="path3497"
         style="fill:#ffffff;stroke:none" />
    </g>
  </g>
  <g
     id="text4505"
     style="font-size:12px;font-style:normal;font-variant:normal;font-weight:normal;font-stretch:normal;line-height:125%;letter-spacing:0px;word-spacing:0px;fill:#ffffff;fill-opacity:1;stroke:none;font-family:cmr10;-inkscape-font-specification:cmr10">
    <path
       d="m 192.98257,32.543152 c -0.48047,0 -0.92578,-0.12207 -1.33593,-0.366211 -0.41016,-0.24414 -0.73438,-0.571288 -0.97266,-0.981445 -0.23828,-0.410155 -0.35742,-0.85742 -0.35742,-1.341797 0,-0.367185 0.0654,-0.7207 0.19629,-1.060547 0.13086,-0.33984 0.31836,-0.643551 0.5625,-0.911133 0.24414,-0.267573 0.52832,-0.476557 0.85254,-0.626953 0.32421,-0.150385 0.67578,-0.225581 1.05468,-0.225586 0.49219,5e-6 0.94043,0.129888 1.34473,0.389648 0.40429,0.259771 0.72363,0.607427 0.95801,1.042969 0.23437,0.435551 0.35156,0.899417 0.35156,1.391602 0,0.480471 -0.11914,0.926759 -0.35742,1.338867 -0.23829,0.41211 -0.56153,0.740235 -0.96973,0.984375 -0.4082,0.244141 -0.85059,0.366211 -1.32715,0.366211 z m 0,-0.351563 c 0.64063,10e-7 1.06836,-0.232421 1.28321,-0.697265 0.21484,-0.464843 0.32226,-1.056639 0.32226,-1.775391 0,-0.402341 -0.0215,-0.735348 -0.0644,-0.999023 -0.043,-0.263668 -0.13672,-0.502926 -0.28125,-0.717774 -0.0899,-0.132808 -0.20411,-0.249019 -0.34277,-0.348633 -0.13868,-0.0996 -0.28516,-0.175776 -0.43946,-0.228515 -0.1543,-0.05273 -0.31348,-0.0791 -0.47754,-0.0791 -0.25,5e-6 -0.4873,0.05665 -0.71191,0.169922 -0.22461,0.113286 -0.41113,0.275395 -0.55957,0.486328 -0.14844,0.226567 -0.24317,0.47559 -0.28418,0.747071 -0.041,0.271487 -0.0615,0.594729 -0.0615,0.969726 0,0.449221 0.0391,0.852541 0.11718,1.209961 0.0781,0.357423 0.23535,0.657227 0.47168,0.899414 0.23633,0.242188 0.5791,0.363282 1.02832,0.363281 z"
       id="path3379"
       style="fill:#ffffff;stroke:none" />
    <path
       d="m 196.36929,32.408386 0,-0.421875 c 0.26953,1e-6 0.49219,-0.02148 0.66797,-0.06445 0.17578,-0.04297 0.26367,-0.148437 0.26367,-0.316406 l 0,-3.949219 -0.91992,0 0,-0.421875 0.91992,0 0,-1.435547 c 0,-0.257805 0.0537,-0.499016 0.16114,-0.723633 0.10742,-0.224601 0.25195,-0.42089 0.43359,-0.588867 0.18164,-0.16796 0.39062,-0.299796 0.62695,-0.395508 0.23633,-0.09569 0.48145,-0.143546 0.73536,-0.143554 0.26952,8e-6 0.51269,0.08009 0.72949,0.240234 0.21679,0.160164 0.32519,0.373055 0.32519,0.638672 0,0.152351 -0.0518,0.280281 -0.15527,0.383789 -0.10352,0.103523 -0.23145,0.155281 -0.38379,0.155273 -0.15235,8e-6 -0.28223,-0.05175 -0.38965,-0.155273 -0.10742,-0.103508 -0.16113,-0.231438 -0.16113,-0.383789 0,-0.249992 0.10742,-0.417961 0.32226,-0.503906 -0.12891,-0.04296 -0.24414,-0.06444 -0.3457,-0.06445 -0.23438,8e-6 -0.43457,0.08302 -0.60058,0.249023 -0.16602,0.166023 -0.29005,0.368172 -0.37207,0.606445 -0.082,0.238289 -0.12305,0.474617 -0.12305,0.708985 l 0,1.412109 1.38281,0 0,0.421875 -1.3418,0 0,3.949219 c 0,0.164063 0.11719,0.268555 0.35157,0.313476 0.23437,0.04492 0.5039,0.06738 0.80859,0.06738 l 0,0.421875 z"
       id="path3381"
       style="fill:#ffffff;stroke:none" />
    <path
       d="m 204.04507,32.443542 0,-1.957031 c 0,-0.0625 0.0352,-0.09375 0.10547,-0.09375 l 0.14649,0 c 0.0469,2e-6 0.0781,0.03125 0.0937,0.09375 0.22265,1.160157 0.76171,1.740235 1.61719,1.740235 0.3789,0 0.69628,-0.08594 0.95214,-0.257813 0.25586,-0.171874 0.38379,-0.437499 0.38379,-0.796875 0,-0.257811 -0.0996,-0.477537 -0.29883,-0.65918 -0.19922,-0.181638 -0.43555,-0.305661 -0.70898,-0.37207 l -0.80273,-0.158203 c -0.26954,-0.05859 -0.51465,-0.148435 -0.73536,-0.269531 -0.2207,-0.121091 -0.40136,-0.282224 -0.54199,-0.483399 -0.14062,-0.201168 -0.21094,-0.434566 -0.21094,-0.700195 0,-0.351558 0.0928,-0.639644 0.27832,-0.864258 0.18555,-0.224604 0.42676,-0.386713 0.72364,-0.486328 0.29687,-0.0996 0.61718,-0.149409 0.96094,-0.149414 0.41015,5e-6 0.76757,0.10938 1.07226,0.328125 l 0.3457,-0.298828 c 0,-0.01953 0.0195,-0.02929 0.0586,-0.0293 l 0.0879,0 c 0.0234,5e-6 0.0449,0.01075 0.0644,0.03223 0.0195,0.02149 0.0293,0.04395 0.0293,0.06738 l 0,1.570313 c -1e-5,0.07422 -0.0313,0.111332 -0.0937,0.111328 l -0.14649,0 c -0.0703,4e-6 -0.10547,-0.03711 -0.10546,-0.111328 -10e-6,-0.417965 -0.11622,-0.753902 -0.34864,-1.007813 -0.23242,-0.253901 -0.55762,-0.380854 -0.97558,-0.380859 -0.35938,5e-6 -0.6709,0.06641 -0.93457,0.199219 -0.26368,0.132817 -0.39551,0.361332 -0.39551,0.685547 0,0.22266 0.0947,0.405277 0.28418,0.547851 0.18945,0.142582 0.41113,0.245121 0.66504,0.307617 l 0.81445,0.152344 c 0.27343,0.0625 0.52832,0.167972 0.76465,0.316406 0.23632,0.148441 0.42382,0.33594 0.5625,0.5625 0.13867,0.226565 0.208,0.482424 0.20801,0.767578 -1e-5,0.289064 -0.0498,0.540041 -0.14942,0.75293 -0.0996,0.212891 -0.23828,0.389649 -0.41601,0.530274 -0.17774,0.140625 -0.3877,0.24414 -0.62989,0.310546 -0.24219,0.06641 -0.49609,0.09961 -0.76171,0.09961 -0.50001,0 -0.92774,-0.167969 -1.28321,-0.503906 l -0.43945,0.474609 c 0,0.01953 -0.0215,0.0293 -0.0645,0.0293 l -0.0703,0 c -0.0703,0 -0.10547,-0.0332 -0.10547,-0.09961 z"
       id="path3383"
       style="fill:#ffffff;stroke:none" />
    <path
       d="m 209.67593,30.978699 0,-2.648438 c 0,-0.214839 -0.0322,-0.370113 -0.0967,-0.46582 -0.0644,-0.0957 -0.15722,-0.154292 -0.27832,-0.175781 -0.12109,-0.02148 -0.30859,-0.03222 -0.5625,-0.03223 l 0,-0.421875 1.81641,-0.128906 0,3.873047 c 0,0.312501 0.0225,0.555665 0.0674,0.729492 0.0449,0.173829 0.14063,0.303711 0.28711,0.389648 0.14648,0.08594 0.37988,0.128907 0.7002,0.128907 0.42968,0 0.77148,-0.179688 1.02539,-0.539063 0.2539,-0.359374 0.38085,-0.767577 0.38086,-1.224609 l 0,-2.132813 c -1e-5,-0.214839 -0.0332,-0.370113 -0.0996,-0.46582 -0.0664,-0.0957 -0.15919,-0.154292 -0.27832,-0.175781 -0.11915,-0.02148 -0.30567,-0.03222 -0.55957,-0.03223 l 0,-0.421875 1.81054,-0.128906 0,4.21289 c 0,0.210939 0.0322,0.364259 0.0967,0.459961 0.0644,0.0957 0.15722,0.154298 0.27832,0.175782 0.12109,0.02148 0.30859,0.03223 0.5625,0.03223 l 0,0.421875 -1.77539,0.134766 0,-1.013672 c -0.14844,0.300782 -0.35547,0.544922 -0.62109,0.732422 -0.26563,0.1875 -0.5586,0.28125 -0.87891,0.28125 -0.57422,0 -1.03027,-0.12207 -1.36816,-0.366211 -0.33789,-0.24414 -0.50684,-0.643554 -0.50684,-1.198242 z"
       id="path3385"
       style="fill:#ffffff;stroke:none" />
    <path
       d="m 216.28531,32.408386 0,-7.101562 c 0,-0.214837 -0.0322,-0.37011 -0.0967,-0.465821 -0.0645,-0.09569 -0.15723,-0.154289 -0.27832,-0.175781 -0.1211,-0.02148 -0.3086,-0.03222 -0.5625,-0.03223 l 0,-0.421875 1.77539,-0.128907 0,3.75586 c 0.13281,-0.148433 0.28808,-0.278316 0.46582,-0.389649 0.17773,-0.111323 0.36816,-0.196284 0.57129,-0.254883 0.20312,-0.05859 0.41015,-0.08788 0.62109,-0.08789 0.35937,5e-6 0.69238,0.07227 0.99903,0.216797 0.30663,0.144536 0.57323,0.343754 0.7998,0.597656 0.22656,0.25391 0.40332,0.545902 0.53027,0.875977 0.12695,0.330081 0.19043,0.670901 0.19043,1.02246 0,0.484378 -0.11817,0.935549 -0.35449,1.353516 -0.23633,0.41797 -0.5586,0.750977 -0.9668,0.999024 -0.4082,0.248046 -0.85644,0.37207 -1.34472,0.37207 -0.30469,0 -0.59961,-0.07813 -0.88477,-0.234375 -0.28516,-0.15625 -0.52148,-0.363281 -0.70898,-0.621094 l -0.41016,0.720703 z m 0.87305,-1.177734 c 0.13281,0.292969 0.32421,0.532227 0.57421,0.717773 0.25,0.185547 0.52734,0.278321 0.83204,0.278321 0.41405,0 0.74901,-0.119141 1.00488,-0.357422 0.25585,-0.238281 0.43456,-0.539062 0.53613,-0.902344 0.10156,-0.363279 0.15234,-0.746092 0.15235,-1.148438 -1e-5,-0.675778 -0.0879,-1.189449 -0.26368,-1.541015 -0.0781,-0.156246 -0.18457,-0.300777 -0.31933,-0.433594 -0.13477,-0.132808 -0.28516,-0.2373 -0.45117,-0.313476 -0.16602,-0.07617 -0.34083,-0.114253 -0.52442,-0.114258 -0.32031,5e-6 -0.61719,0.08497 -0.89062,0.254883 -0.27344,0.169926 -0.49024,0.397465 -0.65039,0.682617 z"
       id="path3387"
       style="fill:#ffffff;stroke:none" />
    <path
       d="m 222.09195,32.443542 0,-1.957031 c 0,-0.0625 0.0352,-0.09375 0.10547,-0.09375 l 0.14648,0 c 0.0469,2e-6 0.0781,0.03125 0.0937,0.09375 0.22266,1.160157 0.76172,1.740235 1.61719,1.740235 0.3789,0 0.69629,-0.08594 0.95215,-0.257813 0.25585,-0.171874 0.38378,-0.437499 0.38379,-0.796875 -1e-5,-0.257811 -0.0996,-0.477537 -0.29883,-0.65918 -0.19922,-0.181638 -0.43555,-0.305661 -0.70898,-0.37207 l -0.80274,-0.158203 c -0.26953,-0.05859 -0.51465,-0.148435 -0.73535,-0.269531 -0.2207,-0.121091 -0.40137,-0.282224 -0.54199,-0.483399 -0.14063,-0.201168 -0.21094,-0.434566 -0.21094,-0.700195 0,-0.351558 0.0928,-0.639644 0.27832,-0.864258 0.18555,-0.224604 0.42676,-0.386713 0.72363,-0.486328 0.29688,-0.0996 0.61719,-0.149409 0.96094,-0.149414 0.41015,5e-6 0.76758,0.10938 1.07227,0.328125 l 0.3457,-0.298828 c 0,-0.01953 0.0195,-0.02929 0.0586,-0.0293 l 0.0879,0 c 0.0234,5e-6 0.0449,0.01075 0.0645,0.03223 0.0195,0.02149 0.0293,0.04395 0.0293,0.06738 l 0,1.570313 c 0,0.07422 -0.0312,0.111332 -0.0937,0.111328 l -0.14648,0 c -0.0703,4e-6 -0.10547,-0.03711 -0.10547,-0.111328 0,-0.417965 -0.11621,-0.753902 -0.34863,-1.007813 -0.23243,-0.253901 -0.55762,-0.380854 -0.97559,-0.380859 -0.35938,5e-6 -0.6709,0.06641 -0.93457,0.199219 -0.26367,0.132817 -0.39551,0.361332 -0.39551,0.685547 0,0.22266 0.0947,0.405277 0.28418,0.547851 0.18945,0.142582 0.41113,0.245121 0.66504,0.307617 l 0.81446,0.152344 c 0.27343,0.0625 0.52831,0.167972 0.76464,0.316406 0.23633,0.148441 0.42383,0.33594 0.5625,0.5625 0.13867,0.226565 0.20801,0.482424 0.20801,0.767578 0,0.289064 -0.0498,0.540041 -0.14941,0.75293 -0.0996,0.212891 -0.23829,0.389649 -0.41602,0.530274 -0.17774,0.140625 -0.3877,0.24414 -0.62988,0.310546 -0.24219,0.06641 -0.4961,0.09961 -0.76172,0.09961 -0.5,0 -0.92774,-0.167969 -1.2832,-0.503906 l -0.43946,0.474609 c 0,0.01953 -0.0215,0.0293 -0.0644,0.0293 l -0.0703,0 c -0.0703,0 -0.10547,-0.0332 -0.10547,-0.09961 z"
       id="path3389"
       style="fill:#ffffff;stroke:none" />
    <path
       d="m 227.6525,30.96698 0,-3.310547 -0.9961,0 0,-0.310547 c 0.52344,5e-6 0.9082,-0.244135 1.1543,-0.732422 0.24609,-0.488275 0.36914,-1.017571 0.36914,-1.58789 l 0.3457,0 0,2.208984 1.69336,0 0,0.421875 -1.69336,0 0,3.287109 c 0,0.332033 0.0557,0.623048 0.167,0.873047 0.11132,0.250001 0.31152,0.375001 0.60058,0.375 0.27344,10e-7 0.4707,-0.131835 0.5918,-0.395507 0.12109,-0.263671 0.18164,-0.547851 0.18164,-0.85254 l 0,-0.708984 0.3457,0 0,0.732422 c 0,0.250001 -0.0459,0.497071 -0.13769,0.741211 -0.0918,0.244141 -0.22755,0.444336 -0.40723,0.600586 -0.17969,0.15625 -0.39844,0.234375 -0.65625,0.234375 -0.48047,0 -0.86035,-0.143555 -1.13965,-0.430664 -0.2793,-0.287109 -0.41894,-0.668945 -0.41894,-1.145508 z"
       id="path3391"
       style="fill:#ffffff;stroke:none" />
    <path
       d="m 231.57242,31.230652 c 0,-0.476561 0.1875,-0.864256 0.5625,-1.163086 0.375,-0.298826 0.82519,-0.509763 1.35058,-0.632813 0.52539,-0.123043 1.02441,-0.184567 1.49707,-0.18457 l 0,-0.492187 c 0,-0.230465 -0.0508,-0.454098 -0.15234,-0.670899 -0.10157,-0.216792 -0.24805,-0.394526 -0.43945,-0.533203 -0.19141,-0.138667 -0.40235,-0.208003 -0.63281,-0.208008 -0.53126,5e-6 -0.93555,0.119146 -1.2129,0.357422 0.15235,5e-6 0.27832,0.05762 0.37793,0.172852 0.0996,0.115238 0.14942,0.249027 0.14942,0.401367 0,0.16016 -0.0566,0.296879 -0.16992,0.410156 -0.11329,0.113285 -0.24805,0.169926 -0.4043,0.169922 -0.16016,4e-6 -0.29688,-0.05664 -0.41016,-0.169922 -0.11328,-0.113277 -0.16992,-0.249996 -0.16992,-0.410156 0,-0.421871 0.19141,-0.735347 0.57422,-0.94043 0.38281,-0.205073 0.80469,-0.307612 1.26563,-0.307617 0.32421,5e-6 0.65038,0.06934 0.97851,0.208008 0.32812,0.138677 0.59668,0.336919 0.80566,0.594726 0.20898,0.257817 0.31348,0.558598 0.31348,0.902344 l 0,2.701172 c 0,0.156251 0.0332,0.299805 0.0996,0.430664 0.0664,0.13086 0.16992,0.196289 0.31055,0.196289 0.1328,0 0.23144,-0.06641 0.2959,-0.199219 0.0644,-0.132811 0.0967,-0.275389 0.0967,-0.427734 l 0,-0.767578 0.35156,0 0,0.767578 c -1e-5,0.179688 -0.0469,0.350587 -0.14063,0.512695 -0.0937,0.16211 -0.21973,0.291016 -0.37793,0.386719 -0.1582,0.0957 -0.3291,0.143555 -0.51269,0.143555 -0.23438,0 -0.43653,-0.09082 -0.60645,-0.272461 -0.16992,-0.18164 -0.26465,-0.397461 -0.28418,-0.647461 -0.14844,0.300782 -0.36719,0.540039 -0.65625,0.717773 -0.28906,0.177735 -0.59766,0.266602 -0.92578,0.266602 -0.30469,0 -0.60449,-0.04492 -0.89941,-0.134766 -0.29493,-0.08984 -0.54102,-0.231445 -0.73828,-0.424804 -0.19727,-0.193359 -0.2959,-0.444336 -0.2959,-0.75293 z m 0.97265,0 c 0,0.281251 0.10352,0.517579 0.31055,0.708984 0.20703,0.191407 0.45117,0.28711 0.73242,0.28711 0.25781,0 0.49219,-0.06445 0.70313,-0.19336 0.21093,-0.128906 0.3789,-0.304687 0.5039,-0.527344 0.125,-0.222655 0.1875,-0.457029 0.1875,-0.703125 l 0,-1.248046 c -0.36328,2e-6 -0.73535,0.05957 -1.11621,0.178711 -0.38086,0.119143 -0.69629,0.305666 -0.94629,0.55957 -0.25,0.253908 -0.375,0.566408 -0.375,0.9375 z"
       id="path3393"
       style="fill:#ffffff;stroke:none" />
    <path
       d="m 237.44937,32.408386 0,-0.421875 c 0.27344,1e-6 0.49805,-0.02148 0.67383,-0.06445 0.17578,-0.04297 0.26367,-0.148437 0.26367,-0.316406 l 0,-3.275391 c 0,-0.214839 -0.0322,-0.370113 -0.0967,-0.46582 -0.0644,-0.0957 -0.15723,-0.154292 -0.27832,-0.175781 -0.12109,-0.02148 -0.30859,-0.03222 -0.5625,-0.03223 l 0,-0.421875 1.74024,-0.128906 0,1.171875 c 0.16015,-0.343746 0.39745,-0.624995 0.71191,-0.84375 0.31445,-0.218745 0.65722,-0.32812 1.02832,-0.328125 0.55468,5e-6 0.97167,0.132818 1.25098,0.398437 0.27929,0.26563 0.41894,0.67188 0.41894,1.21875 l 0,2.882813 c 0,0.167969 0.0879,0.273438 0.26367,0.316406 0.17578,0.04297 0.40039,0.06445 0.67383,0.06445 l 0,0.421875 -2.74804,0 0,-0.421875 c 0.27343,1e-6 0.49804,-0.02148 0.67382,-0.06445 0.17578,-0.04297 0.26367,-0.148437 0.26368,-0.316406 l 0,-2.847656 c -1e-5,-0.390621 -0.0566,-0.71191 -0.16993,-0.963868 -0.11328,-0.251948 -0.3457,-0.377924 -0.69726,-0.377929 -0.46485,5e-6 -0.84669,0.185551 -1.14551,0.55664 -0.29883,0.371098 -0.44824,0.792973 -0.44824,1.265625 l 0,2.367188 c 0,0.167969 0.0879,0.273438 0.26367,0.316406 0.17578,0.04297 0.39843,0.06445 0.66797,0.06445 l 0,0.421875 z"
       id="path3395"
       style="fill:#ffffff;stroke:none" />
    <path
       d="m 246.73648,32.543152 c -0.48438,0 -0.92383,-0.125977 -1.31836,-0.37793 -0.39453,-0.251952 -0.70508,-0.58789 -0.93164,-1.007812 -0.22656,-0.419921 -0.33984,-0.866209 -0.33984,-1.338868 0,-0.472653 0.1123,-0.925777 0.33691,-1.359375 0.22461,-0.433589 0.53516,-0.780268 0.93164,-1.040039 0.39648,-0.25976 0.83691,-0.389643 1.32129,-0.389648 0.46875,5e-6 0.8955,0.0918 1.28027,0.275391 0.38477,0.183598 0.57715,0.484379 0.57715,0.902343 0,0.156254 -0.0557,0.291996 -0.16699,0.407227 -0.11133,0.115238 -0.24707,0.172855 -0.40723,0.172851 -0.16016,4e-6 -0.2959,-0.05761 -0.40722,-0.172851 -0.11133,-0.115231 -0.167,-0.250973 -0.16699,-0.407227 -1e-5,-0.14062 0.0449,-0.26269 0.13476,-0.366211 0.0898,-0.103511 0.20117,-0.16894 0.33399,-0.196289 -0.27735,-0.175776 -0.66602,-0.263666 -1.16602,-0.263672 -0.38282,6e-6 -0.69141,0.126959 -0.92578,0.38086 -0.23438,0.25391 -0.39844,0.568363 -0.49219,0.943359 -0.0937,0.375004 -0.14063,0.746097 -0.14062,1.113281 -10e-6,0.386721 0.0576,0.760744 0.17285,1.122071 0.11523,0.361329 0.30078,0.660157 0.55664,0.896484 0.25585,0.236329 0.57714,0.354493 0.96387,0.354492 0.3789,10e-7 0.70116,-0.11621 0.96679,-0.348632 0.26562,-0.232422 0.44726,-0.536132 0.54492,-0.911133 0,-0.04687 0.0312,-0.07031 0.0937,-0.07031 l 0.14649,0 c 0.0234,2e-6 0.0449,0.01074 0.0644,0.03223 0.0195,0.02149 0.0293,0.0459 0.0293,0.07324 l 0,0.03516 c -0.1211,0.472657 -0.36133,0.847657 -0.7207,1.125 -0.35938,0.277344 -0.78321,0.416016 -1.27149,0.416016 z"
       id="path3397"
       style="fill:#ffffff;stroke:none" />
    <path
       d="m 252.05679,32.543152 c -0.48828,0 -0.93652,-0.12793 -1.34472,-0.383789 -0.40821,-0.255859 -0.72852,-0.597656 -0.96094,-1.025391 -0.23242,-0.427733 -0.34863,-0.87988 -0.34863,-1.356445 0,-0.468747 0.10644,-0.914059 0.31933,-1.335938 0.21289,-0.42187 0.50977,-0.76269 0.89063,-1.022461 0.38085,-0.25976 0.80566,-0.389643 1.27441,-0.389648 0.36719,5e-6 0.68652,0.06153 0.95801,0.18457 0.27148,0.123052 0.49511,0.293951 0.6709,0.512696 0.17577,0.218754 0.30859,0.476566 0.39844,0.773437 0.0898,0.296879 0.13476,0.62305 0.13476,0.978516 0,0.105471 -0.041,0.158206 -0.12305,0.158203 l -3.47461,0 0,0.128906 c 0,0.664065 0.13379,1.234377 0.40137,1.710938 0.26758,0.476563 0.7041,0.714844 1.30957,0.714843 0.24609,10e-7 0.47363,-0.05469 0.68262,-0.164062 0.20898,-0.109375 0.39062,-0.261718 0.54492,-0.457031 0.15429,-0.195312 0.25879,-0.404296 0.31348,-0.626954 0.008,-0.02734 0.0224,-0.05176 0.0439,-0.07324 0.0215,-0.02148 0.0459,-0.03223 0.0733,-0.03223 l 0.10546,0 c 0.082,1e-6 0.12305,0.05078 0.12305,0.152343 -0.11329,0.453126 -0.35743,0.825196 -0.73242,1.116211 -0.37501,0.291016 -0.79493,0.436524 -1.25977,0.436524 z m -1.59375,-3.205078 2.73633,0 c 0,-0.300778 -0.042,-0.605465 -0.12598,-0.914063 -0.084,-0.308589 -0.22363,-0.565425 -0.41894,-0.770508 -0.19532,-0.205073 -0.45118,-0.307612 -0.76758,-0.307617 -0.45313,5e-6 -0.80371,0.211919 -1.05176,0.635742 -0.24804,0.423833 -0.37207,0.875981 -0.37207,1.356446 z"
       id="path3399"
       style="fill:#ffffff;stroke:none" />
  </g>
</svg>
